<?xml version="1.0" encoding="UTF-8" standalone="no"?>
<!-- Generator: Adobe Illustrator 17.0.1, SVG Export Plug-In . SVG Version: 6.00 Build 0)  -->

<svg
   xmlns:dc="http://purl.org/dc/elements/1.1/"
   xmlns:cc="http://creativecommons.org/ns#"
   xmlns:rdf="http://www.w3.org/1999/02/22-rdf-syntax-ns#"
   xmlns:svg="http://www.w3.org/2000/svg"
   xmlns="http://www.w3.org/2000/svg"
   xmlns:sodipodi="http://sodipodi.sourceforge.net/DTD/sodipodi-0.dtd"
   xmlns:inkscape="http://www.inkscape.org/namespaces/inkscape"
   version="1.1"
   id="Layer_1"
   x="0px"
   y="0px"
   width="50"
   height="50.000999"
   viewBox="0 0 50 50.000999"
   enable-background="new 0 0 50 50"
   xml:space="preserve"
   sodipodi:docname="ActiveDirectory.svg"
   inkscape:version="0.92.4 (5da689c313, 2019-01-14)"><metadata
   id="metadata25"><rdf:RDF><cc:Work
       rdf:about=""><dc:format>image/svg+xml</dc:format><dc:type
         rdf:resource="http://purl.org/dc/dcmitype/StillImage" /></cc:Work></rdf:RDF></metadata><defs
   id="defs23" /><sodipodi:namedview
   pagecolor="#ffffff"
   bordercolor="#666666"
   borderopacity="1"
   objecttolerance="10"
   gridtolerance="10"
   guidetolerance="10"
   inkscape:pageopacity="0"
   inkscape:pageshadow="2"
   inkscape:window-width="713"
   inkscape:window-height="543"
   id="namedview21"
   showgrid="false"
   inkscape:zoom="4.72"
   inkscape:cx="25"
   inkscape:cy="25.001"
   inkscape:window-x="0"
   inkscape:window-y="0"
   inkscape:window-maximized="0"
   inkscape:current-layer="Layer_1" />
<path
   d="m 25.001,50.001 c -1.232,0 -2.392,-0.48 -3.261,-1.352 L 1.351,28.261 C 0.492,27.402 0,26.215 0,25 0,23.786 0.492,22.598 1.351,21.74 L 21.74,1.352 C 22.611,0.48 23.769,0 25.001,0 c 1.231,0 2.39,0.48 3.261,1.352 L 48.648,21.74 C 49.521,22.608 50,23.767 50,25 c 0,1.233 -0.479,2.392 -1.353,3.263 L 28.262,48.649 c -0.87,0.872 -2.03,1.352 -3.261,1.352"
   id="path2"
   inkscape:connector-curvature="0"
   style="fill:#59b4d9" />
<path
   d="m 38.614,21.093 c -2.16,0 -3.91,1.75 -3.91,3.909 0,0.792 0.239,1.527 0.645,2.143 l -7.744,7.744 C 27.399,34.745 27.178,34.625 26.949,34.516 V 14.759 C 28.116,14.083 28.91,12.835 28.91,11.389 28.91,9.23 27.16,7.48 25,7.48 c -2.158,0 -3.908,1.75 -3.908,3.909 0,1.446 0.794,2.694 1.96,3.37 v 19.756 c -0.219,0.104 -0.434,0.216 -0.632,0.353 l -7.753,-7.753 c 0.394,-0.61 0.628,-1.333 0.628,-2.113 0,-2.159 -1.75,-3.909 -3.908,-3.909 -2.16,0 -3.91,1.75 -3.91,3.909 0,2.159 1.75,3.909 3.91,3.909 0.448,0 0.872,-0.091 1.274,-0.23 l 8.15,8.15 c -0.234,0.548 -0.364,1.15 -0.364,1.783 0,2.513 2.038,4.551 4.551,4.551 2.514,0 4.551,-2.038 4.551,-4.551 0,-0.621 -0.126,-1.212 -0.351,-1.751 l 8.173,-8.172 c 0.392,0.132 0.804,0.22 1.241,0.22 2.158,0 3.908,-1.75 3.908,-3.909 0,-2.159 -1.749,-3.909 -3.906,-3.909 z"
   id="path4"
   inkscape:connector-curvature="0"
   style="fill:#ffffff" />
<rect
   x="-10.944961"
   y="-46.285004"
   transform="rotate(134.9919)"
   width="2.5229759"
   height="20.675802"
   id="rect6"
   style="opacity:0.5;fill:#ffffff;stroke-width:0.9999904" />
<rect
   x="24.425318"
   y="-9.7499161"
   transform="rotate(45)"
   width="2.5239756"
   height="20.676802"
   id="rect8"
   style="opacity:0.5;fill:#ffffff;stroke-width:0.9999904" />
<path
   d="m 27.665,38.614 c 0,1.496 -1.214,2.709 -2.71,2.709 -1.497,0 -2.709,-1.213 -2.709,-2.709 0,-1.496 1.212,-2.709 2.709,-2.709 1.495,0 2.71,1.213 2.71,2.709"
   id="path10"
   inkscape:connector-curvature="0"
   style="fill:#b8d432" />
<path
   d="m 27.174,11.389 c 0,1.201 -0.973,2.174 -2.174,2.174 -1.201,0 -2.174,-0.973 -2.174,-2.174 0,-1.201 0.973,-2.174 2.174,-2.174 1.201,0 2.174,0.973 2.174,2.174"
   id="path12"
   inkscape:connector-curvature="0"
   style="fill:#b8d432" />
<path
   d="m 13.563,25.001 c 0,1.201 -0.975,2.174 -2.174,2.174 -1.201,0 -2.174,-0.973 -2.174,-2.174 0,-1.201 0.973,-2.174 2.174,-2.174 1.199,0 2.174,0.973 2.174,2.174"
   id="path14"
   inkscape:connector-curvature="0"
   style="fill:#b8d432" />
<path
   d="m 40.788,25.001 c 0,1.201 -0.975,2.174 -2.175,2.174 -1.2,0 -2.174,-0.973 -2.174,-2.174 0,-1.201 0.974,-2.174 2.174,-2.174 1.2,0 2.175,0.973 2.175,2.174"
   id="path16"
   inkscape:connector-curvature="0"
   style="fill:#b8d432" />
<path
   d="M 28.262,1.352 C 27.391,0.48 26.233,0 25.001,0 23.77,0 22.612,0.48 21.741,1.352 L 1.352,21.74 C 0.492,22.598 0,23.786 0,25 c 0,1.215 0.492,2.403 1.352,3.261 L 12.895,39.805 34.61,7.699 Z"
   id="path18"
   inkscape:connector-curvature="0"
   style="opacity:0.1;fill:#ffffff" />
</svg>