<?xml version="1.0" encoding="UTF-8" standalone="no"?>
<!-- Generator: Adobe Illustrator 17.1.0, SVG Export Plug-In . SVG Version: 6.00 Build 0)  -->

<svg
   xmlns:dc="http://purl.org/dc/elements/1.1/"
   xmlns:cc="http://creativecommons.org/ns#"
   xmlns:rdf="http://www.w3.org/1999/02/22-rdf-syntax-ns#"
   xmlns:svg="http://www.w3.org/2000/svg"
   xmlns="http://www.w3.org/2000/svg"
   xmlns:sodipodi="http://sodipodi.sourceforge.net/DTD/sodipodi-0.dtd"
   xmlns:inkscape="http://www.inkscape.org/namespaces/inkscape"
   version="1.1"
   id="Layer_1"
   x="0px"
   y="0px"
   height="49.900002"
   width="50.006462"
   viewBox="0 0 50.006462 49.900002"
   enable-background="new 0 0 50 50"
   xml:space="preserve"
   sodipodi:docname="ActiveDirectoryHealthMonitoring.svg"
   inkscape:version="0.92.4 (5da689c313, 2019-01-14)"><metadata
   id="metadata31"><rdf:RDF><cc:Work
       rdf:about=""><dc:format>image/svg+xml</dc:format><dc:type
         rdf:resource="http://purl.org/dc/dcmitype/StillImage" /></cc:Work></rdf:RDF></metadata><defs
   id="defs29" /><sodipodi:namedview
   pagecolor="#ffffff"
   bordercolor="#666666"
   borderopacity="1"
   objecttolerance="10"
   gridtolerance="10"
   guidetolerance="10"
   inkscape:pageopacity="0"
   inkscape:pageshadow="2"
   inkscape:window-width="713"
   inkscape:window-height="543"
   id="namedview27"
   showgrid="false"
   inkscape:zoom="4.72"
   inkscape:cx="25"
   inkscape:cy="24.9"
   inkscape:window-x="0"
   inkscape:window-y="0"
   inkscape:window-maximized="0"
   inkscape:current-layer="Layer_1" />
<path
   d="m 22,44 c -1.1,0 -2.1,-0.4 -2.9,-1.2 L 1.2,24.9 C 0.4,24.1 0,23.1 0,22 0,20.9 0.4,19.9 1.2,19.1 L 19.1,1.2 C 19.9,0.4 20.9,0 22,0 c 1.1,0 2.1,0.4 2.9,1.2 l 17.9,17.9 c 0.8,0.8 1.2,1.8 1.2,2.9 0,1.1 -0.4,2.1 -1.2,2.9 L 24.9,42.8 C 24.1,43.6 23.1,44 22,44"
   id="path2"
   inkscape:connector-curvature="0"
   style="fill:#59b4d9" />
<path
   d="m 34,18.6 c -1.9,0 -3.4,1.5 -3.4,3.4 0,0.7 0.2,1.3 0.6,1.9 l -6.8,6.8 C 24.2,30.6 24,30.5 23.8,30.4 V 13 c 1,-0.6 1.7,-1.7 1.7,-3 0,-1.9 -1.5,-3.4 -3.4,-3.4 -1.9,0 -3.4,1.5 -3.4,3.4 0,1.3 0.7,2.4 1.7,3 v 17.4 c -0.2,0.1 -0.4,0.2 -0.6,0.3 L 13,23.9 c 0.3,-0.5 0.6,-1.2 0.6,-1.9 0,-1.9 -1.5,-3.4 -3.4,-3.4 -1.9,0 -3.4,1.5 -3.4,3.4 0,1.9 1.5,3.4 3.4,3.4 0.4,0 0.8,-0.1 1.1,-0.2 l 7.2,7.2 c -0.2,0.5 -0.3,1 -0.3,1.6 0,2.2 1.8,4 4,4 2.2,0 4,-1.8 4,-4 0,-0.5 -0.1,-1.1 -0.3,-1.5 l 7.2,-7.2 c 0.3,0.1 0.7,0.2 1.1,0.2 1.9,0 3.4,-1.5 3.4,-3.4 -0.2,-2 -1.7,-3.5 -3.6,-3.5 z"
   id="path4"
   inkscape:connector-curvature="0"
   style="fill:#ffffff" />
<rect
   x="7.4251161"
   y="22.49474"
   transform="rotate(-45.008103)"
   enable-background="new    "
   width="2.1999791"
   height="18.199827"
   id="rect6"
   style="opacity:0.5;fill:#ffffff;stroke-width:0.9999904" />
<rect
   x="-23.722795"
   y="-9.5681019"
   transform="rotate(-135)"
   enable-background="new    "
   width="2.1999791"
   height="18.199825"
   id="rect8"
   style="opacity:0.5;fill:#ffffff;stroke-width:0.9999904" />
<path
   d="m 24.3,34 c 0,1.3 -1.1,2.4 -2.4,2.4 -1.3,0 -2.4,-1.1 -2.4,-2.4 0,-1.3 1.1,-2.4 2.4,-2.4 1.4,0 2.4,1.1 2.4,2.4"
   id="path10"
   inkscape:connector-curvature="0"
   style="fill:#b8d432" />
<path
   d="m 23.9,10 c 0,1.1 -0.9,1.9 -1.9,1.9 -1,0 -1.9,-0.9 -1.9,-1.9 0,-1 0.9,-1.9 1.9,-1.9 1,0 1.9,0.9 1.9,1.9"
   id="path12"
   inkscape:connector-curvature="0"
   style="fill:#b8d432" />
<path
   d="M 11.9,22 C 11.9,23.1 11,23.9 10,23.9 8.9,23.9 8.1,23 8.1,22 8.1,20.9 9,20.1 10,20.1 c 1.1,0 1.9,0.8 1.9,1.9"
   id="path14"
   inkscape:connector-curvature="0"
   style="fill:#b8d432" />
<path
   d="m 35.9,22 c 0,1.1 -0.9,1.9 -1.9,1.9 -1,0 -1.9,-0.9 -1.9,-1.9 0,-1.1 0.9,-1.9 1.9,-1.9 1,0 1.9,0.8 1.9,1.9"
   id="path16"
   inkscape:connector-curvature="0"
   style="fill:#b8d432" />
<path
   enable-background="new    "
   d="M 24.9,1.2 C 24.1,0.4 23.1,0 22,0 20.9,0 19.9,0.4 19.1,1.2 L 1.2,19.1 C 0.4,19.9 0,20.9 0,22 c 0,1.1 0.4,2.1 1.2,2.9 L 11.3,35 30.5,6.8 Z"
   id="path18"
   inkscape:connector-curvature="0"
   style="opacity:0.1;fill:#ffffff" />
<path
   d="m 48.2,30.3 c -0.4,-0.5 -1,-0.8 -1.6,-1.1 -2.7,-1.1 -6.6,0.3 -9,3.7 -3.8,-4.5 -8.2,-5.4 -10.7,-2.7 -5,5.4 1.3,12.6 6.2,16.6 1.9,1.6 3.7,2.7 4.4,3.1 v 0 c 0,0 0,0 0,0 0,0 0,0 0,0 v 0 C 40.2,48.7 55.1,37.8 48.2,30.3"
   id="path20"
   inkscape:connector-curvature="0"
   style="fill:#ba141a" />
<path
   d="m 37.6,32.9 c -3.8,-4.5 -8.2,-5.4 -10.7,-2.7 -5,5.4 1.3,12.6 6.2,16.6 L 46.7,29.1 c -2.8,-1 -6.7,0.4 -9.1,3.8"
   id="path22"
   inkscape:connector-curvature="0"
   style="opacity:0.2;fill:#ffffff" />
<path
   d="M 26.2,39.1 H 29 l 2.5,-0.1 1.9,-5.1 c 0.1,-0.3 0.3,-0.9 1.1,-0.9 0.8,0 0.9,0.6 0.9,0.9 l 0.1,8.5 1.4,-2.9 c 0.1,-0.3 0.4,-0.4 0.6,-0.4 h 8.1 c 0.4,0 0.7,0.4 0.7,0.7 0,0.3 -0.3,0.9 -0.7,0.9 h -7.3 l -2.6,5.2 c -0.2,0.5 -0.4,0.7 -1,0.6 v 0 C 34.4,46.4 34.1,46 34.1,45.7 L 34,37.9 33.2,40 c -0.1,0.3 -0.3,0.7 -0.6,0.7 h -2.4 -3.1 l -0.5,-0.8 z"
   id="path24"
   inkscape:connector-curvature="0"
   style="opacity:0.5;fill:#ffffff" />
</svg>