<?xml version="1.0" encoding="UTF-8" standalone="no"?>
<!-- Generator: Adobe Illustrator 17.1.0, SVG Export Plug-In . SVG Version: 6.00 Build 0)  -->

<svg
   xmlns:dc="http://purl.org/dc/elements/1.1/"
   xmlns:cc="http://creativecommons.org/ns#"
   xmlns:rdf="http://www.w3.org/1999/02/22-rdf-syntax-ns#"
   xmlns:svg="http://www.w3.org/2000/svg"
   xmlns="http://www.w3.org/2000/svg"
   xmlns:sodipodi="http://sodipodi.sourceforge.net/DTD/sodipodi-0.dtd"
   xmlns:inkscape="http://www.inkscape.org/namespaces/inkscape"
   version="1.1"
   id="Layer_1"
   x="0px"
   y="0px"
   width="50.200001"
   height="41.700001"
   viewBox="0 0 50.200001 41.700001"
   enable-background="new 0 0 50 50"
   xml:space="preserve"
   sodipodi:docname="APIManagement.svg"
   inkscape:version="0.92.4 (5da689c313, 2019-01-14)"><metadata
   id="metadata11"><rdf:RDF><cc:Work
       rdf:about=""><dc:format>image/svg+xml</dc:format><dc:type
         rdf:resource="http://purl.org/dc/dcmitype/StillImage" /></cc:Work></rdf:RDF></metadata><defs
   id="defs9" /><sodipodi:namedview
   pagecolor="#ffffff"
   bordercolor="#666666"
   borderopacity="1"
   objecttolerance="10"
   gridtolerance="10"
   guidetolerance="10"
   inkscape:pageopacity="0"
   inkscape:pageshadow="2"
   inkscape:window-width="713"
   inkscape:window-height="543"
   id="namedview7"
   showgrid="false"
   inkscape:zoom="4.72"
   inkscape:cx="25"
   inkscape:cy="20.7"
   inkscape:window-x="0"
   inkscape:window-y="0"
   inkscape:window-maximized="0"
   inkscape:current-layer="Layer_1" />
<path
   d="m 20.5,28.5 h -8.9 v 0 c -4.4,0 -8,-3.6 -8,-8.1 0,-4.5 3.4,-8.1 8,-8.1 0.8,0 1.7,0.2 2.7,0.3 l 1.7,0.5 0.5,-1.7 C 18.1,6.2 23.1,3 28.8,3 35.7,3 41,8.3 41,15.2 c 0,1.1 -0.2,2.2 -0.5,3.3 l -0.7,2.5 2.7,-0.3 c 0.2,0 0.3,0 0.5,0 2,0 3.6,1.7 3.6,3.6 0,1.9 -1.4,3.3 -3.1,3.6 0,0 -8.6,0 -8.9,0 C 34.3,25.4 33,23.2 31.3,21.5 29.1,19.3 26.1,18 23,18 c -2.2,0 -4.4,0.6 -6.1,1.7 l 1.9,3 c 1.4,-0.8 2.8,-1.1 4.4,-1.1 2.2,0 4.4,0.8 5.8,2.5 1.6,1.6 2.5,3.6 2.5,5.8 0,2.2 -0.8,4.4 -2.5,5.8 -1.6,1.7 -3.6,2.5 -5.8,2.5 -1.6,0 -3.1,-0.5 -4.4,-1.4 l -1.9,3 c 1.9,1.1 4.1,1.9 6.1,1.9 3.1,0 6.1,-1.1 8.3,-3.4 1.9,-1.9 3,-4.4 3.3,-7 0.5,0 9.1,0 9.1,0 h 0.2 c 3.6,-0.3 6.3,-3.4 6.3,-7.2 0,-3 -2.8,-5.8 -6.1,-6.4 0.2,-0.6 0.2,-0.9 0.2,-1.9 C 44.3,7 38.1,0 28.2,0 V 0 C 21.9,0 16.3,3.6 14,9.4 13.2,9.4 12.6,9.1 11.7,9.1 5.2,9 0,14 0,20.4 0,26.7 5.2,31.7 11.4,31.7 h 9.8 z"
   id="path2"
   inkscape:connector-curvature="0"
   style="fill:#59b4d9" />
<circle
   cx="22.799999"
   cy="29.799999"
   r="5.5999999"
   id="circle4"
   style="fill:#68217a" />
</svg>