<?xml version="1.0" encoding="UTF-8" standalone="no"?>
<!-- Generator: Adobe Illustrator 17.0.1, SVG Export Plug-In . SVG Version: 6.00 Build 0)  -->

<svg
   xmlns:dc="http://purl.org/dc/elements/1.1/"
   xmlns:cc="http://creativecommons.org/ns#"
   xmlns:rdf="http://www.w3.org/1999/02/22-rdf-syntax-ns#"
   xmlns:svg="http://www.w3.org/2000/svg"
   xmlns="http://www.w3.org/2000/svg"
   xmlns:sodipodi="http://sodipodi.sourceforge.net/DTD/sodipodi-0.dtd"
   xmlns:inkscape="http://www.inkscape.org/namespaces/inkscape"
   version="1.1"
   id="Layer_1"
   x="0px"
   y="0px"
   width="34.445"
   height="50"
   viewBox="0 0 34.445 50"
   enable-background="new 0 0 50 50"
   xml:space="preserve"
   sodipodi:docname="AppServiceMobileApp.svg"
   inkscape:version="0.92.4 (5da689c313, 2019-01-14)"><metadata
   id="metadata27"><rdf:RDF><cc:Work
       rdf:about=""><dc:format>image/svg+xml</dc:format><dc:type
         rdf:resource="http://purl.org/dc/dcmitype/StillImage" /></cc:Work></rdf:RDF></metadata><defs
   id="defs25" /><sodipodi:namedview
   pagecolor="#ffffff"
   bordercolor="#666666"
   borderopacity="1"
   objecttolerance="10"
   gridtolerance="10"
   guidetolerance="10"
   inkscape:pageopacity="0"
   inkscape:pageshadow="2"
   inkscape:window-width="713"
   inkscape:window-height="543"
   id="namedview23"
   showgrid="false"
   inkscape:zoom="4.72"
   inkscape:cx="17"
   inkscape:cy="25"
   inkscape:window-x="0"
   inkscape:window-y="0"
   inkscape:window-maximized="0"
   inkscape:current-layer="Layer_1" />
<path
   d="m 34.445,47 c 0,1.657 -1.343,3 -3,3 H 3 C 1.343,50 0,48.657 0,47 V 3 C 0,1.343 1.343,0 3,0 h 28.445 c 1.657,0 3,1.343 3,3 z"
   id="path2"
   inkscape:connector-curvature="0"
   style="fill:#3e3e3e" />
<rect
   x="2.224"
   y="5"
   width="30"
   height="35.222"
   id="rect4"
   style="fill:#59b4d9" />
<path
   d="m 20.112,45.11 c 0,1.596 -1.294,2.889 -2.89,2.889 -1.594,0 -2.888,-1.293 -2.888,-2.889 0,-1.595 1.294,-2.889 2.888,-2.889 1.596,0 2.89,1.294 2.89,2.889"
   id="path6"
   inkscape:connector-curvature="0"
   style="fill:#ffffff" />
<path
   d="m 19.117,45.11 c 0,1.046 -0.848,1.895 -1.895,1.895 -1.045,0 -1.893,-0.849 -1.893,-1.895 0,-1.046 0.848,-1.894 1.893,-1.894 1.047,0 1.895,0.848 1.895,1.894"
   id="path8"
   inkscape:connector-curvature="0"
   style="fill:#b8d432" />
<path
   d="M 2.223,40.222 V 5 H 24.99 L 27.021,0 H 3 C 1.343,0 0,1.343 0,3 v 44 c 0,1.658 1.343,3 3,3 h 3.695 l 3.974,-9.778 z"
   id="path10"
   inkscape:connector-curvature="0"
   style="opacity:0.15;fill:#ffffff" />
<path
   d="m 22.334,2.817 c 0,0.408 -0.33,0.738 -0.738,0.738 h -8.744 c -0.409,0 -0.74,-0.33 -0.74,-0.738 0,-0.408 0.331,-0.739 0.74,-0.739 h 8.744 c 0.408,0 0.738,0.331 0.738,0.739"
   id="path12"
   inkscape:connector-curvature="0"
   style="fill:#1e1e1e" />
<path
   d="m 22.334,2.817 c 0,0.408 -0.33,0.738 -0.738,0.738 h -8.744 c -0.409,0 -0.74,-0.33 -0.74,-0.738 0,-0.408 0.331,-0.739 0.74,-0.739 h 8.744 c 0.408,0 0.738,0.331 0.738,0.739"
   id="path14"
   inkscape:connector-curvature="0"
   style="fill:#ffffff" />
<path
   d="m 17.251,21.311 c -0.045,0 -0.091,-0.014 -0.134,-0.038 L 8.313,16.191 C 8.232,16.143 8.181,16.054 8.181,15.96 c 0,-0.095 0.051,-0.183 0.132,-0.23 l 8.751,-5.049 c 0.082,-0.046 0.182,-0.046 0.263,0 l 8.807,5.084 c 0.082,0.047 0.131,0.135 0.131,0.23 0,0.096 -0.049,0.183 -0.131,0.23 l -8.748,5.048 c -0.043,0.024 -0.086,0.038 -0.135,0.038"
   id="path16"
   inkscape:connector-curvature="0"
   style="fill:#ffffff" />
<path
   d="m 15.987,33.663 c -0.05,0 -0.095,-0.012 -0.134,-0.036 L 7.075,28.561 C 6.99,28.514 6.939,28.428 6.939,28.33 V 18.164 c 0,-0.096 0.051,-0.183 0.136,-0.231 0.081,-0.049 0.181,-0.049 0.268,0 l 8.777,5.064 c 0.078,0.05 0.13,0.137 0.13,0.233 v 10.166 c 0,0.097 -0.052,0.183 -0.13,0.231 -0.044,0.024 -0.09,0.036 -0.133,0.036"
   id="path18"
   inkscape:connector-curvature="0"
   style="opacity:0.7;fill:#ffffff" />
<path
   d="m 18.471,33.663 c -0.048,0 -0.093,-0.012 -0.138,-0.036 -0.078,-0.048 -0.129,-0.134 -0.129,-0.231 V 23.294 c 0,-0.094 0.051,-0.182 0.129,-0.231 l 8.777,-5.064 c 0.084,-0.048 0.182,-0.048 0.264,0 0.084,0.047 0.135,0.135 0.135,0.23 V 28.33 c 0,0.098 -0.051,0.184 -0.135,0.231 L 18.6,33.627 c -0.036,0.024 -0.083,0.036 -0.129,0.036"
   id="path20"
   inkscape:connector-curvature="0"
   style="opacity:0.4;fill:#ffffff" />
</svg>