<?xml version="1.0" encoding="UTF-8" standalone="no"?>
<!-- Generator: Adobe Illustrator 17.1.0, SVG Export Plug-In . SVG Version: 6.00 Build 0)  -->

<svg
   xmlns:dc="http://purl.org/dc/elements/1.1/"
   xmlns:cc="http://creativecommons.org/ns#"
   xmlns:rdf="http://www.w3.org/1999/02/22-rdf-syntax-ns#"
   xmlns:svg="http://www.w3.org/2000/svg"
   xmlns="http://www.w3.org/2000/svg"
   xmlns:sodipodi="http://sodipodi.sourceforge.net/DTD/sodipodi-0.dtd"
   xmlns:inkscape="http://www.inkscape.org/namespaces/inkscape"
   version="1.1"
   id="Layer_1"
   x="0px"
   y="0px"
   viewBox="0 0 50 42.599998"
   enable-background="new 0 0 50 50"
   xml:space="preserve"
   sodipodi:docname="AppServiceAPIApps.svg"
   width="50"
   height="42.599998"
   inkscape:version="0.92.4 (5da689c313, 2019-01-14)"><metadata
   id="metadata17"><rdf:RDF><cc:Work
       rdf:about=""><dc:format>image/svg+xml</dc:format><dc:type
         rdf:resource="http://purl.org/dc/dcmitype/StillImage" /></cc:Work></rdf:RDF></metadata><defs
   id="defs15" /><sodipodi:namedview
   pagecolor="#ffffff"
   bordercolor="#666666"
   borderopacity="1"
   objecttolerance="10"
   gridtolerance="10"
   guidetolerance="10"
   inkscape:pageopacity="0"
   inkscape:pageshadow="2"
   inkscape:window-width="713"
   inkscape:window-height="543"
   id="namedview13"
   showgrid="false"
   inkscape:zoom="4.72"
   inkscape:cx="25"
   inkscape:cy="21.3"
   inkscape:window-x="0"
   inkscape:window-y="0"
   inkscape:window-maximized="0"
   inkscape:current-layer="Layer_1" />
<path
   d="m 0,40.6 c 0,1.1 0.9,2 2,2 h 46 c 1.1,0 2,-0.9 2,-2 V 9.3 H 0 Z"
   id="path2"
   inkscape:connector-curvature="0"
   style="fill:#59b4d9" />
<path
   d="m 44,3.7 c 0,-1.2 -0.9,-2.1 -2.1,-2.1 -1.2,0 -2.1,0.9 -2.1,2.1 v 21.1 h -4.1 c -0.4,-2.4 -1.6,-4.7 -3.4,-6.6 -2.4,-2.4 -5.5,-3.7 -8.9,-3.7 -3.3,0 -6.5,1.3 -8.9,3.7 -0.8,0.8 -0.8,2.1 0,3 0.8,0.8 2.1,0.8 3,0 1.6,-1.6 3.7,-2.4 5.9,-2.4 2.2,0 4.3,0.9 5.9,2.4 3.3,3.3 3.3,8.6 0,11.8 -1.6,1.6 -3.7,2.4 -5.9,2.4 -2.2,0 -4.3,-0.9 -5.9,-2.4 -0.8,-0.8 -2.1,-0.8 -3,0 -0.8,0.8 -0.8,2.1 0,3 2.4,2.4 5.5,3.7 8.9,3.7 3.3,0 6.5,-1.3 8.9,-3.7 2,-2 3.1,-4.4 3.5,-7 h 6.1 c 1.2,0 2.1,-0.9 2.1,-2.1 z"
   id="path4"
   inkscape:connector-curvature="0"
   style="fill:#ffffff" />
<path
   d="m 23.4,21.9 c -2,0 -3.7,1.2 -4.5,2.9 H 10.2 V 3.7 c 0,-1.2 -0.9,-2.1 -2.1,-2.1 -1.1,0 -2,1 -2,2.1 V 26.9 C 6.1,28.1 7,29 8.2,29 H 19 c 0.8,1.7 2.5,2.9 4.5,2.9 2.8,0 5,-2.2 5,-5 -0.1,-2.8 -2.4,-5 -5.1,-5 z"
   id="path6"
   inkscape:connector-curvature="0"
   style="fill:#ffffff" />
<path
   d="M 48,0 H 2 C 0.9,0 0,0.9 0,2 V 9.6 H 50 V 2 C 50,0.9 49.1,0 48,0"
   id="path8"
   inkscape:connector-curvature="0"
   style="fill:#a0a1a2" />
<path
   enable-background="new    "
   d="M 2,0 C 0.9,0 0,0.9 0,2 v 7.3 3.3 28 c 0,1.1 0.9,2 2,2 H 4.2 L 43.6,0 Z"
   id="path10"
   inkscape:connector-curvature="0"
   style="opacity:0.2;fill:#ffffff" />
</svg>