<?xml version="1.0" encoding="UTF-8" standalone="no"?>
<!-- Generator: Adobe Illustrator 21.0.0, SVG Export Plug-In . SVG Version: 6.00 Build 0)  -->

<svg
   xmlns:dc="http://purl.org/dc/elements/1.1/"
   xmlns:cc="http://creativecommons.org/ns#"
   xmlns:rdf="http://www.w3.org/1999/02/22-rdf-syntax-ns#"
   xmlns:svg="http://www.w3.org/2000/svg"
   xmlns="http://www.w3.org/2000/svg"
   xmlns:sodipodi="http://sodipodi.sourceforge.net/DTD/sodipodi-0.dtd"
   xmlns:inkscape="http://www.inkscape.org/namespaces/inkscape"
   version="1.1"
   id="Layer_1"
   x="0px"
   y="0px"
   width="50"
   height="50"
   viewBox="0 0 50 50"
   xml:space="preserve"
   sodipodi:docname="AzAdvisor.svg"
   inkscape:version="0.92.4 (5da689c313, 2019-01-14)"><metadata
   id="metadata15"><rdf:RDF><cc:Work
       rdf:about=""><dc:format>image/svg+xml</dc:format><dc:type
         rdf:resource="http://purl.org/dc/dcmitype/StillImage" /></cc:Work></rdf:RDF></metadata><defs
   id="defs13" /><sodipodi:namedview
   pagecolor="#ffffff"
   bordercolor="#666666"
   borderopacity="1"
   objecttolerance="10"
   gridtolerance="10"
   guidetolerance="10"
   inkscape:pageopacity="0"
   inkscape:pageshadow="2"
   inkscape:window-width="713"
   inkscape:window-height="543"
   id="namedview11"
   showgrid="false"
   inkscape:zoom="4.72"
   inkscape:cx="25"
   inkscape:cy="25"
   inkscape:window-x="0"
   inkscape:window-y="0"
   inkscape:window-maximized="0"
   inkscape:current-layer="Layer_1" />
<style
   type="text/css"
   id="style2">
	.st0{fill:#0072C6;}
</style>
<g
   id="g8">
	<g
   id="g6">
		<path
   class="st0"
   d="M 44.2,19.6 H 43.4 C 43.7,18.3 44,16.9 44,15.5 44,6.9 37.1,0 28.5,0 21.8,0 16,4.4 14,10.7 12.9,10.4 11.8,10.1 10.6,10.1 4.7,10 0,14.7 0,20.7 c 0,6 4.7,10.7 10.5,10.7 h 7.6 c -0.8,-1.7 -1.3,-3.6 -1.3,-5.6 0,-7 5.7,-12.6 12.6,-12.6 6.9,0 12.6,5.6 12.6,12.5 0,2 -0.5,3.9 -1.3,5.6 h 4 c 3,-0.3 5.3,-2.8 5.3,-6 0,-3.2 -2.7,-5.7 -5.8,-5.7 z M 29.4,38.4 c -2.2,0 -4.4,-0.6 -6.2,-1.6 L 22.5,50 29.3,43.1 36.1,50 35.5,36.7 c -1.8,1.1 -3.9,1.7 -6.1,1.7 z m 0,-23.3 c -5.9,0 -10.6,4.8 -10.6,10.6 0,5.9 4.8,10.6 10.6,10.6 C 35.2,36.3 40,31.6 40,25.7 40,19.8 35.2,15.1 29.4,15.1 Z"
   id="path4"
   inkscape:connector-curvature="0"
   style="fill:#0072c6" />
	</g>
</g>
</svg>