<?xml version="1.0" encoding="UTF-8" standalone="no"?>
<!-- Generator: Adobe Illustrator 19.1.0, SVG Export Plug-In . SVG Version: 6.00 Build 0)  -->

<svg
   xmlns:v="http://schemas.microsoft.com/visio/2003/SVGExtensions/"
   xmlns:dc="http://purl.org/dc/elements/1.1/"
   xmlns:cc="http://creativecommons.org/ns#"
   xmlns:rdf="http://www.w3.org/1999/02/22-rdf-syntax-ns#"
   xmlns:svg="http://www.w3.org/2000/svg"
   xmlns="http://www.w3.org/2000/svg"
   xmlns:sodipodi="http://sodipodi.sourceforge.net/DTD/sodipodi-0.dtd"
   xmlns:inkscape="http://www.inkscape.org/namespaces/inkscape"
   version="1.1"
   id="Layer_1"
   x="0px"
   y="0px"
   viewBox="-226.7 398.7 322.89999 283.50001"
   xml:space="preserve"
   sodipodi:docname="AzApplicationGateway.svg"
   width="322.89999"
   height="283.5"
   inkscape:version="0.92.4 (5da689c313, 2019-01-14)"><metadata
   id="metadata63"><rdf:RDF><cc:Work
       rdf:about=""><dc:format>image/svg+xml</dc:format><dc:type
         rdf:resource="http://purl.org/dc/dcmitype/StillImage" /></cc:Work></rdf:RDF></metadata><defs
   id="defs61" /><sodipodi:namedview
   pagecolor="#ffffff"
   bordercolor="#666666"
   borderopacity="1"
   objecttolerance="10"
   gridtolerance="10"
   guidetolerance="10"
   inkscape:pageopacity="0"
   inkscape:pageshadow="2"
   inkscape:window-width="713"
   inkscape:window-height="543"
   id="namedview59"
   showgrid="false"
   inkscape:zoom="6.8804666"
   inkscape:cx="304.8"
   inkscape:cy="267.35"
   inkscape:window-x="0"
   inkscape:window-y="0"
   inkscape:window-maximized="0"
   inkscape:current-layer="Layer_1" />
<style
   type="text/css"
   id="style2">
	.st0{fill:#0078D7;}
	.st1{fill:none;}
</style>
<v:documentProperties
   v:viewMarkup="false"
   v:langID="1033">
	<v:userDefs>
		<v:ud
   v:nameU="visTLShowProps"
   v:prompt=""
   v:val="VT0(0):26" />
	</v:userDefs>
</v:documentProperties>
<title
   id="title4">Sheet.169</title>
<path
   class="st0"
   d="m 89,421 h -6.2 l 2.2,-2.2 -4.2,-4.2 v 10.1 h 3.1 l -4.4,4.4 -4.4,-4.4 h 3.1 v -10 l -4.2,4.2 2.2,2.2 H 70 v -6.2 l 2.2,2.2 5.3,-5.3 c -0.8,-0.3 -1.4,-0.9 -2,-1.6 -1.7,-2.3 -1.3,-5.5 1,-7.2 0.9,-0.7 2,-1.1 3.1,-1.1 1.5,0 3.1,0.7 4.1,2 1.7,2.3 1.3,5.5 -1,7.2 -0.3,0.3 -0.7,0.5 -1,0.6 l 5.3,5.3 2.2,-2.2 v 6.2 z m -9.5,11 c 0.8,0 1.6,-0.3 2.2,-0.9 l 13.6,-13.5 c 0.6,-0.6 0.9,-1.4 0.9,-2.2 0,-0.9 -0.3,-1.6 -0.9,-2.2 L 81.7,399.6 c -0.6,-0.6 -1.4,-0.9 -2.2,-0.9 -0.8,0 -1.6,0.3 -2.2,0.9 l -13.5,13.5 c -0.6,0.6 -0.9,1.4 -0.9,2.2 0,0.8 0.3,1.6 0.9,2.2 L 77.3,431 c 0.6,0.6 1.4,1 2.2,1 z m -2.8,-21.6 c 0.8,0.7 1.8,1 2.8,1 0.9,0 1.9,-0.3 2.7,-0.9 0.1,-0.1 0.3,-0.2 0.4,-0.3 -0.4,0 -1,0 -1.7,-0.2 -0.1,0.1 -0.1,0.2 -0.2,0.2 -0.4,0.3 -0.9,0.2 -1.3,-0.2 -0.1,-0.2 -0.2,-0.4 -0.2,-0.6 -0.4,-0.2 -0.9,-0.5 -1.3,-0.8 -0.1,-0.1 -0.3,-0.2 -0.4,-0.3 -0.2,0.1 -0.4,0.1 -0.6,0.1 -0.2,0.8 -0.3,1.5 -0.2,2 z m 0,0 c -0.1,0 -0.1,0 0,0 -0.1,0 -0.1,0 0,0 z m -0.9,-0.9 c 0.1,0.1 0.1,0 0,0 z m 0,0 c 0,-0.5 0.1,-1 0.3,-1.5 L 76,407.9 c -0.4,-0.5 -0.4,-1.2 0,-1.6 -0.3,-0.7 -0.3,-1.4 -0.2,-1.8 -1,1.4 -1.1,3.4 0,5 z m 0.5,-5.7 c -0.1,0.4 -0.1,1.1 0.3,1.9 0.2,-0.1 0.5,-0.1 0.7,0 0.1,-0.1 0.1,-0.1 0.2,-0.2 0.4,-0.4 0.8,-0.8 1.2,-1.1 v 0 c -0.5,-0.5 -0.9,-1 -1.2,-1.5 -0.3,0.1 -0.5,0.3 -0.7,0.5 -0.2,0.1 -0.4,0.3 -0.5,0.4 z m 1.2,-0.9 c 0.6,-0.2 0.6,-0.2 0.6,-0.3 -0.6,0.3 -0.6,0.3 -0.6,0.3 z m 0.6,-0.2 c 0.4,0.5 0.8,0.9 1.2,1.4 v 0 c 1.2,-0.6 2.3,-0.7 3,-0.6 -0.8,-0.7 -1.8,-1 -2.8,-1 -0.5,0 -0.9,0.1 -1.4,0.2 z m 4.2,0.8 c 0.2,0.2 0.4,0.4 0.7,0.7 v 0 c -0.2,-0.3 -0.4,-0.5 -0.7,-0.7 z m 0.7,0.7 c -0.1,0 -1.2,-0.1 -2.8,0.8 0.5,0.5 1,1 1.5,1.4 0.4,-0.2 0.9,-0.1 1.2,0.3 0.2,0.3 0.3,0.6 0.1,0.9 0.4,0.3 0.6,0.5 0.8,0.6 0.3,-1.4 0.1,-2.8 -0.8,-4 z m 0.8,3.9 c 0,0.1 0,0 0,0 z m 0,0.2 c 0,0.1 0,0.1 -0.1,0.2 0,-0.1 0,-0.2 0.1,-0.2 z m -0.1,0.2 c -0.2,-0.1 -0.5,-0.3 -0.9,-0.6 0,0 0,0 -0.1,0 -0.4,0.3 -1,0.2 -1.3,-0.2 -0.2,-0.3 -0.3,-0.7 -0.1,-1 -0.6,-0.4 -1.1,-0.9 -1.7,-1.4 -0.4,0.3 -0.8,0.6 -1.2,0.9 -0.1,0.1 -0.1,0.1 -0.2,0.2 0.2,0.4 0.2,0.9 -0.1,1.3 0.1,0.1 0.2,0.1 0.3,0.2 0.4,0.3 0.8,0.6 1.2,0.8 0.4,-0.3 0.9,-0.2 1.2,0.2 0.1,0.1 0.1,0.2 0.2,0.4 1.1,0.3 1.9,0.2 2.2,0.1 0.2,-0.3 0.4,-0.6 0.5,-0.9 z m 0,-0.1 c 0,0.1 0,0.1 0,0 0,0.1 0,0.1 0,0 z m -0.5,1 c 0,0 0,0.1 -0.1,0.1 0,0 0.1,0 0.1,-0.1 z m -3.6,-4.1 c 0,0 -0.1,0 0,0 -0.1,0 0,0 0,0 z m 0,0 z"
   id="path6"
   inkscape:connector-curvature="0"
   style="fill:#0078d7" />
<path
   class="st1"
   d="m 79.5,432 c 0.8,0 1.6,-0.3 2.2,-0.9 l 13.6,-13.5 c 0.6,-0.6 0.9,-1.4 0.9,-2.2 0,-0.9 -0.3,-1.6 -0.9,-2.2 L 81.7,399.6 c -0.6,-0.6 -1.4,-0.9 -2.2,-0.9 -0.8,0 -1.6,0.3 -2.2,0.9 l -13.5,13.5 c -0.6,0.6 -0.9,1.4 -0.9,2.2 0,0.8 0.3,1.6 0.9,2.2 L 77.3,431 c 0.6,0.6 1.4,1 2.2,1"
   id="path8"
   inkscape:connector-curvature="0"
   style="fill:none" />
<path
   class="st1"
   d="m 76.7,410.4 c 0.8,0.7 1.8,1 2.8,1 0.9,0 1.9,-0.3 2.7,-0.9 0.1,-0.1 0.3,-0.2 0.4,-0.3 -0.4,0 -1,0 -1.7,-0.2 -0.1,0.1 -0.1,0.2 -0.2,0.2 -0.4,0.3 -0.9,0.2 -1.3,-0.2 -0.1,-0.2 -0.2,-0.4 -0.2,-0.6 -0.4,-0.2 -0.9,-0.5 -1.3,-0.8 -0.1,-0.1 -0.3,-0.2 -0.4,-0.3 -0.2,0.1 -0.4,0.1 -0.6,0.1 -0.2,0.8 -0.3,1.5 -0.2,2"
   id="path10"
   inkscape:connector-curvature="0"
   style="fill:none" />
<path
   class="st1"
   d="M -226.7,682.2"
   id="path12"
   inkscape:connector-curvature="0"
   style="fill:none" />
<path
   class="st1"
   d="m 76.7,410.4 c -0.1,0 -0.1,0 0,0 -0.1,0 -0.1,0 0,0"
   id="path14"
   inkscape:connector-curvature="0"
   style="fill:none" />
<path
   class="st1"
   d="M -226.7,682.2"
   id="path16"
   inkscape:connector-curvature="0"
   style="fill:none" />
<path
   class="st1"
   d="m 75.8,409.5 c 0.1,0.1 0.1,0 0,0 v 0"
   id="path18"
   inkscape:connector-curvature="0"
   style="fill:none" />
<path
   class="st1"
   d="m 75.8,409.5 c 0,-0.5 0.1,-1 0.3,-1.5 L 76,407.9 c -0.4,-0.5 -0.4,-1.2 0,-1.6 -0.3,-0.7 -0.3,-1.4 -0.2,-1.8 -1,1.4 -1.1,3.4 0,5"
   id="path20"
   inkscape:connector-curvature="0"
   style="fill:none" />
<path
   class="st1"
   d="M 75.8,404.4"
   id="path22"
   inkscape:connector-curvature="0"
   style="fill:none" />
<path
   class="st1"
   d="m 76.3,403.8 c -0.1,0.4 -0.1,1.1 0.3,1.9 0.2,-0.1 0.5,-0.1 0.7,0 0.1,-0.1 0.1,-0.1 0.2,-0.2 0.4,-0.4 0.8,-0.8 1.2,-1.1 v 0 c -0.5,-0.5 -0.9,-1 -1.2,-1.5 -0.3,0.1 -0.5,0.3 -0.7,0.5 -0.2,0.1 -0.4,0.3 -0.5,0.4"
   id="path24"
   inkscape:connector-curvature="0"
   style="fill:none" />
<path
   class="st1"
   d="m 77.5,402.9 c 0.6,-0.2 0.6,-0.2 0.6,-0.3 -0.6,0.3 -0.6,0.3 -0.6,0.3"
   id="path26"
   inkscape:connector-curvature="0"
   style="fill:none" />
<path
   class="st1"
   d="m 78.1,402.7 c 0.4,0.5 0.8,0.9 1.2,1.4 v 0 c 1.2,-0.6 2.3,-0.7 3,-0.6 -0.8,-0.7 -1.8,-1 -2.8,-1 -0.5,0 -0.9,0.1 -1.4,0.2"
   id="path28"
   inkscape:connector-curvature="0"
   style="fill:none" />
<path
   class="st1"
   d="m 82.3,403.5 c 0.2,0.2 0.4,0.4 0.7,0.7 v 0 c -0.2,-0.3 -0.4,-0.5 -0.7,-0.7 v 0"
   id="path30"
   inkscape:connector-curvature="0"
   style="fill:none" />
<path
   class="st1"
   d="m 83,404.2 c -0.1,0 -1.2,-0.1 -2.8,0.8 0.5,0.5 1,1 1.5,1.4 0.4,-0.2 0.9,-0.1 1.2,0.3 0.2,0.3 0.3,0.6 0.1,0.9 0.4,0.3 0.6,0.5 0.8,0.6 0.3,-1.4 0.1,-2.8 -0.8,-4 v 0"
   id="path32"
   inkscape:connector-curvature="0"
   style="fill:none" />
<path
   class="st1"
   d="m 83.8,408.1 c 0,0.1 0,0 0,0"
   id="path34"
   inkscape:connector-curvature="0"
   style="fill:none" />
<path
   class="st1"
   d="M -226.7,682.2"
   id="path36"
   inkscape:connector-curvature="0"
   style="fill:none" />
<path
   class="st1"
   d="m 83.8,408.3 c 0,0.1 0,0.1 -0.1,0.2 0,-0.1 0,-0.2 0.1,-0.2"
   id="path38"
   inkscape:connector-curvature="0"
   style="fill:none" />
<path
   class="st1"
   d="m 83.7,408.5 c -0.2,-0.1 -0.5,-0.3 -0.9,-0.6 0,0 0,0 -0.1,0 -0.4,0.3 -1,0.2 -1.3,-0.2 -0.2,-0.3 -0.3,-0.7 -0.1,-1 -0.6,-0.4 -1.1,-0.9 -1.7,-1.4 -0.4,0.3 -0.8,0.6 -1.2,0.9 -0.1,0.1 -0.1,0.1 -0.2,0.2 0.2,0.4 0.2,0.9 -0.1,1.3 0.1,0.1 0.2,0.1 0.3,0.2 0.4,0.3 0.8,0.6 1.2,0.8 0.4,-0.3 0.9,-0.2 1.2,0.2 0.1,0.1 0.1,0.2 0.2,0.4 1.1,0.3 1.9,0.2 2.2,0.1 0.2,-0.3 0.4,-0.6 0.5,-0.9"
   id="path40"
   inkscape:connector-curvature="0"
   style="fill:none" />
<path
   class="st1"
   d="M -226.7,682.2"
   id="path42"
   inkscape:connector-curvature="0"
   style="fill:none" />
<path
   class="st1"
   d="m 83.7,408.4 c 0,0.1 0,0.1 0,0 0,0.1 0,0.1 0,0"
   id="path44"
   inkscape:connector-curvature="0"
   style="fill:none" />
<path
   class="st1"
   d="m 83.2,409.4 c 0,0 0,0.1 -0.1,0.1 0,0 0.1,0 0.1,-0.1"
   id="path46"
   inkscape:connector-curvature="0"
   style="fill:none" />
<path
   class="st1"
   d="M -226.7,682.2"
   id="path48"
   inkscape:connector-curvature="0"
   style="fill:none" />
<path
   class="st1"
   d="m 79.6,405.3 c 0,0 -0.1,0 0,0 -0.1,0 0,0 0,0"
   id="path50"
   inkscape:connector-curvature="0"
   style="fill:none" />
<path
   class="st1"
   d="M -226.7,682.2"
   id="path52"
   inkscape:connector-curvature="0"
   style="fill:none" />
<path
   class="st1"
   d="m 79.6,405.3 v 0"
   id="path54"
   inkscape:connector-curvature="0"
   style="fill:none" />
<path
   class="st1"
   d="M -226.7,682.2"
   id="path56"
   inkscape:connector-curvature="0"
   style="fill:none" />
</svg>