<?xml version="1.0" encoding="UTF-8" standalone="no"?>
<!-- Generator: Adobe Illustrator 17.1.0, SVG Export Plug-In . SVG Version: 6.00 Build 0)  -->

<svg
   xmlns:dc="http://purl.org/dc/elements/1.1/"
   xmlns:cc="http://creativecommons.org/ns#"
   xmlns:rdf="http://www.w3.org/1999/02/22-rdf-syntax-ns#"
   xmlns:svg="http://www.w3.org/2000/svg"
   xmlns="http://www.w3.org/2000/svg"
   xmlns:sodipodi="http://sodipodi.sourceforge.net/DTD/sodipodi-0.dtd"
   xmlns:inkscape="http://www.inkscape.org/namespaces/inkscape"
   version="1.1"
   id="Layer_1"
   x="0px"
   y="0px"
   width="50"
   height="50"
   viewBox="0 0 50 50"
   enable-background="new 0 0 50 50"
   xml:space="preserve"
   sodipodi:docname="AzAppServiceColor.svg"
   inkscape:version="0.92.4 (5da689c313, 2019-01-14)"><metadata
   id="metadata19"><rdf:RDF><cc:Work
       rdf:about=""><dc:format>image/svg+xml</dc:format><dc:type
         rdf:resource="http://purl.org/dc/dcmitype/StillImage" /></cc:Work></rdf:RDF></metadata><defs
   id="defs17" /><sodipodi:namedview
   pagecolor="#ffffff"
   bordercolor="#666666"
   borderopacity="1"
   objecttolerance="10"
   gridtolerance="10"
   guidetolerance="10"
   inkscape:pageopacity="0"
   inkscape:pageshadow="2"
   inkscape:window-width="713"
   inkscape:window-height="543"
   id="namedview15"
   showgrid="false"
   inkscape:zoom="4.72"
   inkscape:cx="25"
   inkscape:cy="25"
   inkscape:window-x="0"
   inkscape:window-y="0"
   inkscape:window-maximized="0"
   inkscape:current-layer="Layer_1" />
<path
   d="M 20.1,46.5 H 3.5 V 30 H 6.9 C 6.5,29 6.3,27.9 6.3,26.7 c 0,0 0,-0.1 0,-0.2 H 0 V 50 H 23.6 V 36 h -3.5 z"
   id="path2"
   inkscape:connector-curvature="0"
   style="fill:#a0a1a2" />
<path
   d="m 43.5,30 h 3 V 46.6 H 29.9 V 36.1 H 26.4 V 50 H 50 V 26.5 h -7.4 c 0.5,1 0.9,2 0.9,3.3 0,0 0,0.1 0,0.2 z"
   id="path4"
   inkscape:connector-curvature="0"
   style="fill:#a0a1a2" />
<path
   d="M 3.5,20 V 3.5 h 16.6 v 9.6 c 1,-0.8 2.3,-1.3 3.5,-1.6 V 0 H 0 V 23.5 H 6.8 C 7.3,22.3 8,21 9,20.1 Z"
   id="path6"
   inkscape:connector-curvature="0"
   style="fill:#a0a1a2" />
<path
   d="M 29.9,11.1 V 3.5 h 16.6 v 16.6 h -7.3 c 0.3,1 0.5,2.2 0.5,3.4 0,0 0,0.1 0,0.1 H 50 V 0 H 26.4 v 10.9 c 0.3,0 0.5,-0.1 0.8,-0.1 0.9,0.1 1.8,0.1 2.7,0.3 z"
   id="path8"
   inkscape:connector-curvature="0"
   style="fill:#a0a1a2" />
<path
   d="m 40.8,29.7 c 0,-2.1 -1.7,-3.7 -3.7,-3.7 -0.2,0 -0.3,0 -0.5,0 0.2,-0.8 0.4,-1.7 0.4,-2.6 0,-5.5 -4.4,-9.9 -9.9,-9.9 -4.3,0 -8,2.8 -9.3,6.8 -0.7,-0.2 -1.4,-0.4 -2.2,-0.4 -3.7,0 -6.7,3 -6.7,6.8 0,3.8 3,6.8 6.7,6.8 0,0 0,0 0,0 v 0 h 21.8 v 0 c 1.9,-0.2 3.4,-1.8 3.4,-3.8"
   id="path10"
   inkscape:connector-curvature="0"
   style="fill:#59b4d9" />
<path
   d="m 19.2,33.5 c -0.9,-0.9 -1.5,-2 -1.8,-3.3 -0.8,-3.7 1.4,-7.3 5.1,-8.1 0.8,-0.2 1.5,-0.2 2.2,-0.1 0.3,-3.4 2.4,-6.5 5.5,-8 -0.9,-0.3 -1.9,-0.5 -3,-0.5 -4.3,0 -8,2.8 -9.3,6.8 -0.7,-0.2 -1.4,-0.4 -2.2,-0.4 -3.7,0 -6.7,3 -6.7,6.8 0,3.8 3,6.8 6.7,6.8 0,0 0,0 0,0 v 0 z"
   id="path12"
   inkscape:connector-curvature="0"
   style="opacity:0.2;fill:#ffffff" />
</svg>