<?xml version="1.0" encoding="UTF-8" standalone="no"?>
<!-- Generator: Adobe Illustrator 17.1.0, SVG Export Plug-In . SVG Version: 6.00 Build 0)  -->

<svg
   xmlns:dc="http://purl.org/dc/elements/1.1/"
   xmlns:cc="http://creativecommons.org/ns#"
   xmlns:rdf="http://www.w3.org/1999/02/22-rdf-syntax-ns#"
   xmlns:svg="http://www.w3.org/2000/svg"
   xmlns="http://www.w3.org/2000/svg"
   xmlns:sodipodi="http://sodipodi.sourceforge.net/DTD/sodipodi-0.dtd"
   xmlns:inkscape="http://www.inkscape.org/namespaces/inkscape"
   version="1.1"
   id="Layer_1"
   x="0px"
   y="0px"
   width="50.099998"
   height="50"
   viewBox="0 0 50.099998 50"
   enable-background="new 0 0 50 50"
   xml:space="preserve"
   sodipodi:docname="AzAppServiceWorkerPoolsColor.svg"
   inkscape:version="0.92.4 (5da689c313, 2019-01-14)"><metadata
   id="metadata35"><rdf:RDF><cc:Work
       rdf:about=""><dc:format>image/svg+xml</dc:format><dc:type
         rdf:resource="http://purl.org/dc/dcmitype/StillImage" /></cc:Work></rdf:RDF></metadata><defs
   id="defs33" /><sodipodi:namedview
   pagecolor="#ffffff"
   bordercolor="#666666"
   borderopacity="1"
   objecttolerance="10"
   gridtolerance="10"
   guidetolerance="10"
   inkscape:pageopacity="0"
   inkscape:pageshadow="2"
   inkscape:window-width="713"
   inkscape:window-height="543"
   id="namedview31"
   showgrid="false"
   inkscape:zoom="4.72"
   inkscape:cx="25"
   inkscape:cy="25"
   inkscape:window-x="0"
   inkscape:window-y="0"
   inkscape:window-maximized="0"
   inkscape:current-layer="Layer_1" />
<path
   d="m 25,50 c -1.2,0 -2.4,-0.5 -3.3,-1.4 L 1.4,28.3 C 0.5,27.4 0,26.2 0,25 0,23.8 0.5,22.6 1.4,21.7 L 21.7,1.4 C 22.6,0.5 23.8,0 25,0 c 1.2,0 2.4,0.5 3.3,1.4 l 20.4,20.4 c 0.9,0.9 1.4,2 1.4,3.3 0,1.3 -0.5,2.4 -1.4,3.3 L 28.3,48.6 C 27.4,49.5 26.2,50 25,50"
   id="path2"
   inkscape:connector-curvature="0"
   style="fill:#59b4d9" />
<path
   enable-background="new    "
   d="M 28.3,1.4 C 27.4,0.5 26.2,0 25,0 23.8,0 22.6,0.5 21.7,1.4 L 1.4,21.7 C 0.5,22.6 0,23.8 0,25 c 0,1.2 0.5,2.4 1.4,3.3 L 12.9,39.8 34.6,7.7 Z"
   id="path4"
   inkscape:connector-curvature="0"
   style="opacity:0.1;fill:#ffffff" />
<polygon
   points="30.4,11.3 29.1,10.9 28.7,10 29.4,8.5 28.5,7.6 28.3,7.7 27.1,8.3 26.2,7.9 25.6,6.4 24.3,6.4 24.3,6.6 23.8,8 22.9,8.3 21.5,7.6 20.6,8.5 20.6,8.7 21.3,10 20.9,10.9 19.4,11.4 19.4,12.7 19.6,12.8 20.9,13.2 21.3,14.1 20.6,15.6 21.5,16.5 21.7,16.4 22.9,15.7 23.8,16.1 24.4,17.6 25.7,17.6 25.7,17.5 26.2,16.1 27.1,15.7 28.5,16.4 29.4,15.5 29.4,15.4 28.7,14.1 29.1,13.2 30.6,12.6 30.6,11.4 "
   id="polygon6"
   style="fill:#3e3e3e" />
<path
   enable-background="new    "
   d="M 28.3,7.7 27,8.3 26.1,7.9 25.5,6.4 H 24.2 L 24.1,6.6 23.8,8 22.9,8.4 21.4,7.7 l -0.9,0.9 0.1,0.2 0.7,1.3 -0.4,0.9 -1.5,0.6 v 1.3 l 0.2,0.1 1.4,0.4 0.4,0.9 -0.7,1.5 0.9,0.9 0.2,-0.1 0.5,-0.3 L 23,15 c 0,0 0,0 0,0 l 4.3,-5.9 c 0,0 0,0 0,0 z"
   id="path8"
   inkscape:connector-curvature="0"
   style="opacity:0.2;fill:#f1f1f1" />
<circle
   cx="25"
   cy="12"
   r="2"
   id="circle10"
   style="fill:#59b4d9" />
<polygon
   points="30.4,38.1 29.1,37.6 28.7,36.7 29.4,35.3 28.5,34.4 28.3,34.4 27.1,35.1 26.2,34.7 25.6,33.2 24.3,33.2 24.3,33.4 23.8,34.7 22.9,35.1 21.5,34.4 20.6,35.3 20.6,35.5 21.3,36.8 20.9,37.6 19.4,38.2 19.4,39.5 19.6,39.5 20.9,40 21.3,40.9 20.6,42.3 21.5,43.3 21.7,43.2 22.9,42.5 23.8,42.9 24.4,44.4 25.7,44.4 25.7,44.2 26.2,42.9 27.1,42.5 28.5,43.2 29.4,42.3 29.4,42.1 28.7,40.9 29.1,40 30.6,39.4 30.6,38.1 "
   id="polygon12"
   style="fill:#3e3e3e" />
<path
   enable-background="new    "
   d="M 28.3,34.5 27,35.1 26.1,34.7 25.5,33.2 h -1.3 l -0.1,0.2 -0.4,1.4 -0.9,0.4 -1.5,-0.7 -0.9,0.9 0.1,0.2 0.7,1.3 -0.4,0.9 -1.5,0.6 v 1.3 l 0.2,0.1 1.4,0.4 0.4,0.9 -0.7,1.5 0.9,0.9 0.2,-0.1 0.5,-0.3 L 23,42 c 0,0 0,0 0,0 l 4.3,-5.9 c 0,0 0,0 0,0 z"
   id="path14"
   inkscape:connector-curvature="0"
   style="opacity:0.2;fill:#f1f1f1" />
<circle
   cx="25"
   cy="38.799999"
   r="2"
   id="circle16"
   style="fill:#59b4d9" />
<polygon
   points="16.7,24.3 15.3,23.8 15,22.9 15.7,21.5 14.8,20.6 14.6,20.6 13.3,21.3 12.4,20.9 11.9,19.4 10.6,19.4 10.5,19.6 10.1,20.9 9.2,21.3 7.7,20.6 6.8,21.5 6.9,21.7 7.5,22.9 7.2,23.8 5.6,24.4 5.6,25.7 5.8,25.7 7.2,26.2 7.5,27.1 6.8,28.5 7.7,29.4 7.9,29.4 9.2,28.7 10.1,29.1 10.6,30.6 11.9,30.6 12,30.4 12.4,29.1 13.3,28.7 14.8,29.4 15.7,28.5 15.6,28.3 15,27.1 15.3,26.2 16.9,25.6 16.9,24.3 "
   id="polygon18"
   style="fill:#3e3e3e" />
<path
   enable-background="new    "
   d="m 14.6,20.6 -1.3,0.6 -0.9,-0.4 -0.6,-1.5 H 10.5 L 10.4,19.5 10,20.9 9.1,21.3 7.6,20.6 6.7,21.5 6.8,21.7 7.5,23 7.1,23.9 5.6,24.5 v 1.3 l 0.2,0.1 1.4,0.4 0.4,0.9 -0.7,1.5 0.9,0.9 L 8,29.5 8.5,29.2 9.2,28 c 0,0 0,0 0,0 l 4.3,-5.9 c 0,0 0,0 0,0 z"
   id="path20"
   inkscape:connector-curvature="0"
   style="opacity:0.2;fill:#f1f1f1" />
<circle
   cx="11.3"
   cy="25"
   r="2"
   id="circle22"
   style="fill:#59b4d9" />
<polygon
   points="44.7,24.3 43.3,23.8 42.9,22.9 43.6,21.5 42.7,20.6 42.6,20.6 41.3,21.3 40.4,20.9 39.8,19.4 38.6,19.4 38.5,19.6 38.1,20.9 37.2,21.3 35.7,20.6 34.8,21.5 34.9,21.7 35.5,22.9 35.2,23.8 33.6,24.4 33.6,25.7 33.8,25.7 35.2,26.2 35.5,27.1 34.8,28.5 35.7,29.4 35.9,29.4 37.2,28.7 38.1,29.1 38.6,30.6 39.9,30.6 40,30.4 40.4,29.1 41.3,28.7 42.8,29.4 43.7,28.5 43.6,28.3 42.9,27.1 43.3,26.2 44.9,25.6 44.9,24.3 "
   id="polygon24"
   style="fill:#3e3e3e" />
<path
   enable-background="new    "
   d="m 42.6,20.6 -1.3,0.6 -0.9,-0.4 -0.6,-1.5 h -1.3 l -0.1,0.2 -0.4,1.4 -0.9,0.4 -1.5,-0.7 -0.9,0.9 0.1,0.2 0.7,1.3 -0.4,0.9 -1.5,0.6 v 1.3 l 0.2,0.1 1.4,0.4 0.4,0.9 -0.7,1.5 0.9,0.9 0.2,-0.1 0.5,-0.3 0.8,-1.1 c 0,0 0,0 0,0 l 4.3,-5.9 c 0,0 0,0 0,0 z"
   id="path26"
   inkscape:connector-curvature="0"
   style="opacity:0.2;fill:#f1f1f1" />
<circle
   cx="39.200001"
   cy="25"
   r="2"
   id="circle28"
   style="fill:#59b4d9" />
</svg>