<?xml version="1.0" encoding="UTF-8" standalone="no"?>
<!-- Generator: Adobe Illustrator 19.1.0, SVG Export Plug-In . SVG Version: 6.00 Build 0)  -->

<svg
   xmlns:dc="http://purl.org/dc/elements/1.1/"
   xmlns:cc="http://creativecommons.org/ns#"
   xmlns:rdf="http://www.w3.org/1999/02/22-rdf-syntax-ns#"
   xmlns:svg="http://www.w3.org/2000/svg"
   xmlns="http://www.w3.org/2000/svg"
   xmlns:sodipodi="http://sodipodi.sourceforge.net/DTD/sodipodi-0.dtd"
   xmlns:inkscape="http://www.inkscape.org/namespaces/inkscape"
   version="1.1"
   id="Layer_1"
   x="0px"
   y="0px"
   width="50.099998"
   height="50"
   viewBox="0 0 50.099998 50"
   enable-background="new 0 0 50 50"
   xml:space="preserve"
   sodipodi:docname="AzApplicationGatewayColor.svg"
   inkscape:version="0.92.4 (5da689c313, 2019-01-14)"><metadata
   id="metadata23"><rdf:RDF><cc:Work
       rdf:about=""><dc:format>image/svg+xml</dc:format><dc:type
         rdf:resource="http://purl.org/dc/dcmitype/StillImage" /></cc:Work></rdf:RDF></metadata><defs
   id="defs21" /><sodipodi:namedview
   pagecolor="#ffffff"
   bordercolor="#666666"
   borderopacity="1"
   objecttolerance="10"
   gridtolerance="10"
   guidetolerance="10"
   inkscape:pageopacity="0"
   inkscape:pageshadow="2"
   inkscape:window-width="713"
   inkscape:window-height="543"
   id="namedview19"
   showgrid="false"
   inkscape:zoom="4.72"
   inkscape:cx="25"
   inkscape:cy="25"
   inkscape:window-x="0"
   inkscape:window-y="0"
   inkscape:window-maximized="0"
   inkscape:current-layer="Layer_1" />
<path
   d="m 25,50 c -1.2,0 -2.4,-0.5 -3.3,-1.4 L 1.4,28.3 C 0.5,27.4 0,26.2 0,25 0,23.8 0.5,22.6 1.4,21.7 L 21.7,1.4 C 22.6,0.5 23.8,0 25,0 c 1.2,0 2.4,0.5 3.3,1.4 l 20.4,20.4 c 0.9,0.9 1.4,2 1.4,3.3 0,1.2 -0.5,2.4 -1.4,3.3 L 28.3,48.6 C 27.4,49.5 26.2,50 25,50"
   id="path2"
   inkscape:connector-curvature="0"
   style="fill:#7fba00" />
<path
   d="m 29.738,18.584 c -1.398,1.069 -3.044,1.589 -4.68,1.589 -2.32,0 -4.614,-1.042 -6.131,-3.025 -2.59,-3.382 -1.951,-8.219 1.437,-10.811 1.397,-1.075 3.046,-1.588 4.679,-1.588 2.32,0 4.615,1.042 6.131,3.026 2.591,3.383 1.945,8.221 -1.436,10.809"
   id="path4"
   inkscape:connector-curvature="0"
   style="fill:#ffffff" />
<path
   enable-background="new    "
   d="M 28.3,1.4 C 27.4,0.5 26.2,0 25,0 23.8,0 22.6,0.5 21.7,1.4 L 1.4,21.7 C 0.5,22.6 0,23.8 0,25 c 0,1.2 0.5,2.4 1.4,3.3 L 12.9,39.8 34.6,7.7 Z"
   id="path6"
   inkscape:connector-curvature="0"
   style="opacity:0.15;fill:#ffffff" />
<polygon
   points="26.9,39 26.9,19.149 23,19.149 23,39 18.4,39 25,45.6 31.6,39 "
   id="polygon8"
   style="fill:#ffffff" />
<polygon
   points="36.077,27.399 27.633,18.955 24.805,21.783 33.249,30.227 29.996,33.48 39.33,33.48 39.33,24.146 "
   id="polygon10"
   style="fill:#ffffff" />
<polygon
   points="16.766,30.263 25.447,21.582 22.618,18.753 13.937,27.434 10.685,24.182 10.685,33.515 20.018,33.515 "
   id="polygon12"
   style="fill:#ffffff" />
<path
   d="m 29.115,17.771 c -1.212,0.927 -2.64,1.378 -4.058,1.378 -2.012,0 -4.002,-0.903 -5.316,-2.623 -2.246,-2.933 -1.692,-7.127 1.246,-9.375 1.212,-0.932 2.641,-1.377 4.057,-1.377 2.012,0 4.002,0.903 5.316,2.624 2.248,2.933 1.688,7.128 -1.245,9.373"
   id="path14"
   inkscape:connector-curvature="0"
   style="fill:#59b4d9" />
<path
   d="m 27.886,13.635 c 0.486,0.634 1.388,0.748 2.018,0.269 0.033,-0.025 0.058,-0.056 0.088,-0.083 0.645,0.454 1.092,0.754 1.344,0.925 0.075,-0.193 0.126,-0.379 0.179,-0.573 -0.266,-0.198 -0.627,-0.476 -1.148,-0.898 0.171,-0.449 0.117,-0.974 -0.195,-1.384 C 29.725,11.313 28.934,11.166 28.316,11.523 27.635,10.912 26.886,10.211 26.097,9.427 28.549,8.108 30.291,8.301 30.291,8.301 30,7.93 29.674,7.605 29.326,7.312 28.292,7.152 26.686,7.17 24.85,8.146 L 24.849,8.145 v 0 c -0.612,-0.64 -1.234,-1.327 -1.868,-2.063 -0.303,0.097 -0.6,0.217 -0.886,0.36 0.468,0.766 1.098,1.538 1.807,2.292 v 0 c 10e-4,0.002 0.003,0.003 0.005,0.005 -0.592,0.414 -1.25,0.967 -1.858,1.609 -0.078,0.083 -0.152,0.166 -0.225,0.249 -0.363,-0.076 -0.745,-0.054 -1.102,0.075 -0.606,-1.307 -0.557,-2.357 -0.461,-2.898 -0.263,0.276 -0.509,0.565 -0.72,0.874 -0.158,0.646 -0.203,1.578 0.264,2.701 -0.54,0.707 -0.566,1.709 -0.001,2.449 0.047,0.061 0.097,0.118 0.15,0.173 -0.246,0.839 -0.357,1.649 -0.391,2.344 0.063,0.086 0.063,0.156 0.126,0.24 0.321,0.411 0.724,0.758 1.113,1.072 -0.048,-0.736 0.004,-1.821 0.459,-3.043 0.314,0.024 0.633,-0.026 0.932,-0.151 0.171,0.151 0.35,0.303 0.542,0.458 0.656,0.52 1.311,0.924 1.949,1.242 -0.033,0.325 0.048,0.662 0.259,0.941 0.451,0.582 1.286,0.691 1.868,0.246 0.121,-0.093 0.217,-0.205 0.296,-0.325 1.041,0.232 1.95,0.273 2.624,0.273 0.103,0 0.582,-0.652 0.857,-1.056 -0.41,0.086 -1.628,0.253 -3.291,-0.225 -0.04,-0.187 -0.117,-0.368 -0.24,-0.53 -0.422,-0.554 -1.195,-0.674 -1.771,-0.303 -0.578,-0.314 -1.184,-0.707 -1.808,-1.201 -0.126,-0.1 -0.247,-0.199 -0.364,-0.299 0.382,-0.601 0.422,-1.372 0.085,-2.02 0.077,-0.077 0.152,-0.153 0.233,-0.229 0.618,-0.578 1.2,-1.04 1.744,-1.411 -0.022,-0.02 -0.042,-0.042 -0.063,-0.062 0.022,0.02 0.042,0.041 0.064,0.061 0,0 0,0 -0.001,0 0.835,0.772 1.72,1.504 2.559,2.158 -0.221,0.47 -0.186,1.043 0.151,1.484 z"
   id="path16"
   inkscape:connector-curvature="0"
   style="fill:#ffffff" />
</svg>