<?xml version="1.0" encoding="UTF-8" standalone="no"?>
<!-- Generator: Adobe Illustrator 18.1.0, SVG Export Plug-In . SVG Version: 6.00 Build 0)  -->

<svg
   xmlns:dc="http://purl.org/dc/elements/1.1/"
   xmlns:cc="http://creativecommons.org/ns#"
   xmlns:rdf="http://www.w3.org/1999/02/22-rdf-syntax-ns#"
   xmlns:svg="http://www.w3.org/2000/svg"
   xmlns="http://www.w3.org/2000/svg"
   xmlns:sodipodi="http://sodipodi.sourceforge.net/DTD/sodipodi-0.dtd"
   xmlns:inkscape="http://www.inkscape.org/namespaces/inkscape"
   version="1.0"
   x="0px"
   y="0px"
   viewBox="0 0 33.762154 51.711571"
   enable-background="new 0 0 152 117.5"
   xml:space="preserve"
   id="svg18"
   sodipodi:docname="AzApplicationInsights.svg"
   width="33.762154"
   height="51.711571"
   inkscape:version="0.92.4 (5da689c313, 2019-01-14)"><metadata
   id="metadata24"><rdf:RDF><cc:Work
       rdf:about=""><dc:format>image/svg+xml</dc:format><dc:type
         rdf:resource="http://purl.org/dc/dcmitype/StillImage" /></cc:Work></rdf:RDF></metadata><defs
   id="defs22" /><sodipodi:namedview
   pagecolor="#ffffff"
   bordercolor="#666666"
   borderopacity="1"
   objecttolerance="10"
   gridtolerance="10"
   guidetolerance="10"
   inkscape:pageopacity="0"
   inkscape:pageshadow="2"
   inkscape:window-width="713"
   inkscape:window-height="543"
   id="namedview20"
   showgrid="false"
   inkscape:zoom="2.0085106"
   inkscape:cx="16.836409"
   inkscape:cy="25.85"
   inkscape:window-x="0"
   inkscape:window-y="0"
   inkscape:window-maximized="0"
   inkscape:current-layer="svg18" />
<g
   id="Layer_1"
   transform="translate(-59.163591,-32.88843)">
	<g
   id="g12">
		<rect
   x="70.699997"
   y="73.599998"
   width="11"
   height="3.5"
   id="rect2"
   style="fill:#0078d7" />
		<polygon
   points="81.6,80.9 70.7,80.9 74.1,84.6 78.2,84.6 "
   id="polygon4"
   style="fill:#0078d7" />
		<path
   d="m 71.2,50.6 c -0.9,0 -1.8,0.8 -1.8,1.8 0,0.9 0.8,1.8 1.8,1.8 H 73 v -1.8 c -0.2,-1 -0.9,-1.8 -1.8,-1.8 z"
   id="path6"
   inkscape:connector-curvature="0"
   style="fill:#0078d7" />
		<path
   d="m 80.6,50.6 c -0.9,0 -1.8,0.8 -1.8,1.8 v 1.8 h 1.8 c 0.9,0 1.8,-0.8 1.8,-1.8 0,-0.9 -0.7,-1.8 -1.8,-1.8 z"
   id="path8"
   inkscape:connector-curvature="0"
   style="fill:#0078d7" />
		<path
   d="m 92.9,48 v -0.3 c 0,-8 -6.8,-14.5 -15.2,-14.7 -0.2,-0.3 -5,0.1 -5,0.1 -7.6,0.9 -13.5,7.2 -13.5,14.5 0,0.2 -0.8,6 5.1,10.9 2.7,2.4 5.5,8.8 5.9,10.6 l 0.3,0.6 h 11 l 0.3,-0.6 c 0.4,-1.9 3.3,-8.3 5.9,-10.6 5.9,-4.8 5.2,-10.3 5.2,-10.5 z m -12.2,8.2 h -1.8 v 13.1 h -2 V 56.2 H 75 v 13 h -2 v -13 h -1.8 c -2,0 -3.8,-1.8 -3.8,-3.8 0,-2 1.7,-3.8 3.8,-3.8 2.1,0 3.8,1.8 3.8,3.8 v 1.8 h 1.8 v -1.8 c 0,-2 1.8,-3.8 3.8,-3.8 2,0 3.8,1.8 3.8,3.8 0.1,2.1 -1.7,3.8 -3.7,3.8 z"
   id="path10"
   inkscape:connector-curvature="0"
   style="fill:#0078d7" />
	</g>
</g>
<g
   id="paths"
   transform="translate(-59.163591,-32.88843)">
	<g
   id="Access_control">
	</g>
	<g
   id="Azure_active_directory">
	</g>
</g>
</svg>