<?xml version="1.0" encoding="UTF-8" standalone="no"?>
<!-- Generator: Adobe Illustrator 17.1.0, SVG Export Plug-In . SVG Version: 6.00 Build 0)  -->

<svg
   xmlns:dc="http://purl.org/dc/elements/1.1/"
   xmlns:cc="http://creativecommons.org/ns#"
   xmlns:rdf="http://www.w3.org/1999/02/22-rdf-syntax-ns#"
   xmlns:svg="http://www.w3.org/2000/svg"
   xmlns="http://www.w3.org/2000/svg"
   xmlns:sodipodi="http://sodipodi.sourceforge.net/DTD/sodipodi-0.dtd"
   xmlns:inkscape="http://www.inkscape.org/namespaces/inkscape"
   version="1.1"
   id="Layer_1"
   x="0px"
   y="0px"
   height="49.911572"
   width="32.565647"
   viewBox="0 0 32.565647 49.911572"
   enable-background="new 0 0 50 50"
   xml:space="preserve"
   sodipodi:docname="AzApplicationInsightsColor.svg"
   inkscape:version="0.92.4 (5da689c313, 2019-01-14)"><metadata
   id="metadata21"><rdf:RDF><cc:Work
       rdf:about=""><dc:format>image/svg+xml</dc:format><dc:type
         rdf:resource="http://purl.org/dc/dcmitype/StillImage" /></cc:Work></rdf:RDF></metadata><defs
   id="defs19" /><sodipodi:namedview
   pagecolor="#ffffff"
   bordercolor="#666666"
   borderopacity="1"
   objecttolerance="10"
   gridtolerance="10"
   guidetolerance="10"
   inkscape:pageopacity="0"
   inkscape:pageshadow="2"
   inkscape:window-width="713"
   inkscape:window-height="543"
   id="namedview17"
   showgrid="false"
   inkscape:zoom="4.72"
   inkscape:cx="16.138431"
   inkscape:cy="25"
   inkscape:window-x="0"
   inkscape:window-y="0"
   inkscape:window-maximized="0"
   inkscape:current-layer="Layer_1" />
<path
   d="m 32.538431,14.61157 v 0 -0.3 c 0,-7.6999998 -6.6,-14.09999975 -14.7,-14.19999975 -0.2,-0.3 -4.8,0.1 -4.8,0.1 v 0 C 5.7384312,1.1115702 0.03843123,7.2115702 0.03843123,14.31157 c 0,0.2 -0.8,5.8 4.89999997,10.5 2.6,2.3 5.2999998,8.5 5.6999998,10.3 l 0.3,0.6 h 10.6 l 0.3,-0.6 c 0.4,-1.8 3.2,-8 5.7,-10.2 5.7,-4.8 5,-10.1 5,-10.3 z"
   id="path2"
   inkscape:connector-curvature="0"
   style="fill:#68217a" />
<rect
   x="11.138432"
   y="39.311573"
   width="10.6"
   height="3.4000001"
   id="rect4"
   style="fill:#7a7a7a" />
<polygon
   points="30.5,46.5 20,46.5 23.3,50 27.2,50 "
   id="polygon6"
   style="fill:#7a7a7a"
   transform="translate(-8.8615688,-0.08842975)" />
<g
   id="g10"
   style="opacity:0.65"
   transform="translate(-8.8615688,-0.08842975)">
	<path
   d="m 27.9,35.3 h -2 V 22.6 h -1.7 v 12.6 h -2 V 22.6 h -1.7 c -2,0 -3.7,-1.7 -3.7,-3.7 0,-2 1.6,-3.7 3.7,-3.7 2.1,0 3.7,1.7 3.7,3.7 v 1.7 h 1.7 v -1.7 c 0,-2 1.7,-3.7 3.7,-3.7 2,0 3.7,1.7 3.7,3.7 0,2 -1.7,3.7 -3.7,3.7 H 27.9 Z M 20.5,17.2 c -0.9,0 -1.7,0.7 -1.7,1.7 0,0.9 0.8,1.7 1.7,1.7 h 1.7 V 18.9 C 22.1,18 21.4,17.2 20.5,17.2 Z m 9.1,0 c -0.9,0 -1.7,0.8 -1.7,1.7 v 1.7 h 1.7 c 0.9,0 1.7,-0.8 1.7,-1.7 0,-0.9 -0.7,-1.7 -1.7,-1.7 z"
   id="path8"
   inkscape:connector-curvature="0"
   style="fill:#ffffff" />
</g>
<g
   enable-background="new    "
   id="g14"
   style="opacity:0.15"
   transform="translate(-8.8615688,-0.08842975)">
	<path
   d="m 26.7,0.2 c -0.2,-0.3 -4.8,0.1 -4.8,0.1 -7.3,0.9 -13,7 -13,14.1 0,0.2 -0.7,5.1 3.9,9.6 L 34.4,2.4 C 32.1,1 29.5,0.2 26.7,0.2 Z"
   id="path12"
   inkscape:connector-curvature="0"
   style="fill:#ffffff" />
</g>
</svg>