<?xml version="1.0" encoding="UTF-8" standalone="no"?>
<!-- Generator: Adobe Illustrator 17.0.1, SVG Export Plug-In . SVG Version: 6.00 Build 0)  -->

<svg
   xmlns:dc="http://purl.org/dc/elements/1.1/"
   xmlns:cc="http://creativecommons.org/ns#"
   xmlns:rdf="http://www.w3.org/1999/02/22-rdf-syntax-ns#"
   xmlns:svg="http://www.w3.org/2000/svg"
   xmlns="http://www.w3.org/2000/svg"
   xmlns:sodipodi="http://sodipodi.sourceforge.net/DTD/sodipodi-0.dtd"
   xmlns:inkscape="http://www.inkscape.org/namespaces/inkscape"
   version="1.1"
   id="Layer_1"
   x="0px"
   y="0px"
   width="50.000999"
   height="45.312"
   viewBox="0 0 50.000999 45.312"
   enable-background="new 0 0 50 50"
   xml:space="preserve"
   sodipodi:docname="AzAutomationColor.svg"
   inkscape:version="0.92.4 (5da689c313, 2019-01-14)"><metadata
   id="metadata17"><rdf:RDF><cc:Work
       rdf:about=""><dc:format>image/svg+xml</dc:format><dc:type
         rdf:resource="http://purl.org/dc/dcmitype/StillImage" /></cc:Work></rdf:RDF></metadata><defs
   id="defs15" /><sodipodi:namedview
   pagecolor="#ffffff"
   bordercolor="#666666"
   borderopacity="1"
   objecttolerance="10"
   gridtolerance="10"
   guidetolerance="10"
   inkscape:pageopacity="0"
   inkscape:pageshadow="2"
   inkscape:window-width="713"
   inkscape:window-height="543"
   id="namedview13"
   showgrid="false"
   inkscape:zoom="4.72"
   inkscape:cx="25"
   inkscape:cy="22"
   inkscape:window-x="0"
   inkscape:window-y="0"
   inkscape:window-maximized="0"
   inkscape:current-layer="Layer_1" />
<path
   d="m 46.281,21.656 c 0,-0.375 -0.031,-0.734 -0.063,-1.109 L 50,18.453 c -0.203,-1.25 -0.531,-2.469 -0.969,-3.625 l -4.313,0.078 C 44.39,14.234 44.03,13.578 43.624,12.968 L 45.843,9.265 C 45.046,8.296 44.155,7.406 43.202,6.624 l -2.188,1.297 -0.922,1.375 -1.984,2.922 c 2.813,2.188 4.625,5.594 4.625,9.438 0,6.594 -5.328,11.938 -11.922,11.938 -6.578,0 -11.922,-5.344 -11.922,-11.938 0,-5.906 4.281,-10.781 9.906,-11.75 L 29.701,6.234 27.607,2.453 C 26.359,2.656 25.156,2.984 24,3.421 l 0.063,4.328 C 23.407,8.062 22.75,8.421 22.141,8.843 L 18.438,6.624 c -0.969,0.781 -1.844,1.672 -2.641,2.641 l 2.219,3.703 c -0.422,0.609 -0.766,1.266 -1.094,1.938 l -4.328,-0.078 c -0.422,1.156 -0.75,2.375 -0.953,3.625 l 3.766,2.094 c -0.031,0.375 -0.047,0.734 -0.047,1.109 0,0.375 0.016,0.734 0.047,1.109 l -3.766,2.094 c 0.203,1.25 0.531,2.469 0.969,3.625 l 4.313,-0.078 c 0.328,0.672 0.672,1.328 1.094,1.938 l -2.219,3.703 c 0.797,0.969 1.672,1.859 2.641,2.656 l 3.703,-2.234 c 0.609,0.422 1.266,0.781 1.922,1.109 L 24,39.89 c 1.156,0.438 2.359,0.766 3.609,0.969 l 2.109,-3.781 c 0.359,0.031 0.719,0.063 1.094,0.063 0.375,0 0.75,-0.031 1.109,-0.063 l 2.094,3.781 c 1.25,-0.203 2.469,-0.531 3.625,-0.969 l -0.078,-4.313 c 0.672,-0.328 1.313,-0.688 1.938,-1.109 l 3.703,2.234 c 0.953,-0.797 1.844,-1.688 2.641,-2.656 l -2.219,-3.703 c 0.406,-0.609 0.766,-1.266 1.094,-1.938 l 4.313,0.078 c 0.438,-1.156 0.766,-2.375 0.969,-3.625 L 46.22,22.764 c 0.03,-0.374 0.061,-0.733 0.061,-1.108 z"
   id="path2"
   inkscape:connector-curvature="0"
   style="fill:#a0a1a2" />
<path
   d="m 16,38.031 v -1.859 l -0.102,-0.094 -1.902,-0.641 -0.49,-1.281 0.942,-1.953 0.104,-0.219 -0.589,-0.594 -0.716,-0.719 -0.249,0.125 -1.859,0.953 L 9.858,31.39 9.047,29.312 H 7.203 L 7.109,29.406 6.468,31.304 5.172,31.792 3.016,30.755 1.703,32.057 1.828,32.302 2.781,34.159 2.25,35.439 0,36.25 v 1.859 l 0.266,0.078 1.984,0.656 0.531,1.281 -1.016,2.156 1.313,1.328 0.25,-0.125 1.859,-0.953 1.281,0.531 0.813,2.251 H 9.14 l 0.078,-0.266 0.656,-1.984 1.266,-0.531 2.172,1.016 1.313,-1.313 -0.125,-0.25 -0.953,-1.859 0.367,-1.297 z M 8.172,39.75 c -1.438,0 -2.609,-1.172 -2.609,-2.609 0,-1.437 1.172,-2.609 2.609,-2.609 1.437,0 2.594,1.172 2.594,2.609 0,1.437 -1.157,2.609 -2.594,2.609 z"
   id="path4"
   inkscape:connector-curvature="0"
   style="fill:#7a7a7a" />
<path
   d="M 33.297,0 32.578,2.266 31.344,6.204 30.75,8.093 30.234,9.749 26.64,21.171 c -0.078,0.219 0.031,0.391 0.281,0.391 h 3.313 c 0.109,0 0.188,0.031 0.234,0.094 0.078,0.078 0.094,0.188 0.047,0.313 l -3.422,8.297 c -0.094,0.219 -0.031,0.266 0.125,0.078 L 38.047,18.062 c 0.156,-0.188 0.094,-0.328 -0.141,-0.328 l -3.547,0.016 -0.656,0.016 c -0.234,0 -0.344,-0.172 -0.219,-0.375 l 3.375,-6.016 0.797,-1.438 0.922,-1.656 1.969,-3.484 1.125,-2.031 C 39.156,1.312 36.328,0.343 33.297,0 Z"
   id="path6"
   inkscape:connector-curvature="0"
   style="fill:#fcd116" />
<path
   d="m 39.505,1.679 -7.844,16.07 h 1.953 C 33.44,17.712 33.365,17.566 33.474,17.39 L 36.849,11.374 37.646,9.936 38.568,8.28 40.537,4.796 41.662,2.765 C 40.966,2.364 40.245,2.004 39.505,1.679 Z"
   id="path8"
   inkscape:connector-curvature="0"
   style="opacity:0.3;fill:#ff8c00" />
<path
   d="m 37.92,17.734 -2.189,0.01 -8.093,12.14 10.423,-11.822 c 0.156,-0.187 0.094,-0.328 -0.141,-0.328 z"
   id="path10"
   inkscape:connector-curvature="0"
   style="opacity:0.3;fill:#ff8c00" />
</svg>