<?xml version="1.0" encoding="UTF-8" standalone="no"?>
<!-- Generator: Adobe Illustrator 18.1.0, SVG Export Plug-In . SVG Version: 6.00 Build 0)  -->

<svg
   xmlns:dc="http://purl.org/dc/elements/1.1/"
   xmlns:cc="http://creativecommons.org/ns#"
   xmlns:rdf="http://www.w3.org/1999/02/22-rdf-syntax-ns#"
   xmlns:svg="http://www.w3.org/2000/svg"
   xmlns="http://www.w3.org/2000/svg"
   xmlns:sodipodi="http://sodipodi.sourceforge.net/DTD/sodipodi-0.dtd"
   xmlns:inkscape="http://www.inkscape.org/namespaces/inkscape"
   version="1.0"
   x="0px"
   y="0px"
   viewBox="0 0 42.596748 38.416"
   enable-background="new 0 0 152 117.5"
   xml:space="preserve"
   id="svg26"
   sodipodi:docname="AzAutomation.svg"
   width="42.596748"
   height="38.416"
   inkscape:version="0.92.4 (5da689c313, 2019-01-14)"><metadata
   id="metadata32"><rdf:RDF><cc:Work
       rdf:about=""><dc:format>image/svg+xml</dc:format><dc:type
         rdf:resource="http://purl.org/dc/dcmitype/StillImage" /></cc:Work></rdf:RDF></metadata><defs
   id="defs30" /><sodipodi:namedview
   pagecolor="#ffffff"
   bordercolor="#666666"
   borderopacity="1"
   objecttolerance="10"
   gridtolerance="10"
   guidetolerance="10"
   inkscape:pageopacity="0"
   inkscape:pageshadow="2"
   inkscape:window-width="713"
   inkscape:window-height="543"
   id="namedview28"
   showgrid="false"
   inkscape:zoom="2.0085106"
   inkscape:cx="21.2653"
   inkscape:cy="19.15"
   inkscape:window-x="0"
   inkscape:window-y="0"
   inkscape:window-maximized="0"
   inkscape:current-layer="svg26" />
<g
   id="Layer_1"
   transform="translate(-54.7347,-39.484)">
</g>
<g
   id="paths"
   transform="translate(-54.7347,-39.484)">
	<g
   id="Access_control">
	</g>
	<g
   id="Azure_active_directory">
	</g>
	<g
   id="API_Management">
	</g>
	<g
   id="Azure_automation">
		<g
   id="group1274-2438_1_"
   transform="translate(33.8347,-3335.5)">
			<title
   id="title6">Automation.1274</title>
			<g
   id="shape1275-2439_1_"
   transform="translate(9.39675,-3.5805)">
				<title
   id="title8">Sheet.1275</title>
				<path
   d="m 50.9,3397 c 0,-0.3 0,-0.6 0,-0.9 l 3.2,-1.8 c -0.2,-1.1 -0.4,-2.1 -0.8,-3.1 l -3.7,0.1 c -0.3,-0.6 -0.6,-1.1 -0.9,-1.6 l 1.9,-3.2 c -0.7,-0.8 -1.4,-1.6 -2.2,-2.2 l -1.9,1.1 -0.8,1.2 -1.7,2.5 c 2.4,1.9 3.9,4.8 3.9,8 0,5.6 -4.5,10.1 -10.1,10.1 -5.6,0 -10.1,-4.5 -10.1,-10.1 0,-5 3.6,-9.2 8.4,-10 l 0.8,-3.1 -1.8,-3.2 c -1.1,0.2 -2.1,0.5 -3.1,0.8 l 0.1,3.7 c -0.6,0.3 -1.1,0.6 -1.6,0.9 l -3.2,-1.9 c -0.8,0.7 -1.6,1.4 -2.2,2.2 l 1.9,3.1 c -0.4,0.5 -0.6,1.1 -0.9,1.7 l -3.7,-0.1 c -0.4,1 -0.6,2 -0.8,3.1 l 3.2,1.8 c 0,0.3 0,0.6 0,0.9 0,0.3 0,0.6 0,0.9 l -3.2,1.8 c 0.2,1.1 0.5,2.1 0.8,3.1 l 3.7,-0.1 c 0.3,0.6 0.6,1.1 0.9,1.7 l -1.9,3.2 c 0.7,0.8 1.4,1.6 2.2,2.3 l 3.2,-1.9 c 0.5,0.4 1.1,0.7 1.6,0.9 l -0.1,3.7 c 1,0.4 2,0.6 3.1,0.8 l 1.8,-3.2 c 0.3,0 0.6,0.1 0.9,0.1 0.3,0 0.6,0 0.9,-0.1 l 1.8,3.2 c 1.1,-0.2 2.1,-0.5 3.1,-0.8 l -0.1,-3.7 c 0.6,-0.3 1.1,-0.6 1.6,-0.9 l 3.2,1.9 c 0.8,-0.7 1.6,-1.4 2.2,-2.3 l -1.9,-3.2 c 0.3,-0.5 0.7,-1.1 0.9,-1.7 l 3.7,0.1 c 0.4,-1 0.6,-2 0.8,-3.1 l -3.2,-1.8 c 0.1,-0.3 0.1,-0.6 0.1,-0.9 z"
   id="path10"
   inkscape:connector-curvature="0"
   style="fill:#0078d7" />
			</g>
			<g
   id="shape1276-2441_1_">
				<title
   id="title13">Sheet.1276</title>
				<path
   d="m 27.9,3408.8 c -1.2,0 -2.2,-1 -2.2,-2.2 0,-1.2 1,-2.2 2.2,-2.2 1.2,0 2.2,1 2.2,2.2 0,1.2 -1,2.2 -2.2,2.2 z m 4.3,-7.8 -1.8,0.9 -1.1,-0.5 -0.7,-1.9 H 27 l -0.6,1.9 -1.1,0.5 -1.8,-0.9 -1.1,1.1 0.9,1.8 -0.5,1.1 -1.9,0.7 v 1.6 l 1.9,0.6 0.5,1.1 -0.9,1.8 1.1,1.1 1.8,-0.9 1.1,0.5 0.7,1.9 h 1.6 l 0.6,-1.9 1.1,-0.5 1.8,0.9 1.1,-1.1 -0.9,-1.8 0.5,-1.1 1.9,-0.7 v -1.6 l -1.9,-0.6 -0.5,-1.1 0.9,-1.8 z"
   id="path15"
   inkscape:connector-curvature="0"
   style="fill:#0078d7" />
			</g>
			<g
   id="shape1278-2445_1_"
   transform="translate(21.4387,-11.916)">
				<title
   id="title18">Sheet.1278</title>
				<path
   d="m 27.8,3386.9 -0.6,1.9 -2,6.4 -3.1,9.7 c -0.1,0.2 0,0.3 0.2,0.3 h 2.8 c 0.1,0 0.2,0 0.2,0.1 0.1,0.1 0.1,0.2 0.1,0.3 l -2.9,7.1 c -0.1,0.2 0,0.2 0.1,0.1 l 9.2,-10.4 c 0.1,-0.2 0.1,-0.3 -0.1,-0.3 h -3 -0.6 c -0.2,0 -0.3,-0.1 -0.2,-0.3 l 2.9,-5.1 3.1,-5.6 1,-1.7 c -2.1,-1.4 -4.5,-2.2 -7.1,-2.5 z"
   id="path20"
   inkscape:connector-curvature="0"
   style="fill:#0078d7" />
			</g>
		</g>
	</g>
</g>
</svg>