<?xml version="1.0" encoding="UTF-8" standalone="no"?>
<!-- Generator: Adobe Illustrator 17.1.0, SVG Export Plug-In . SVG Version: 6.00 Build 0)  -->

<svg
   xmlns:dc="http://purl.org/dc/elements/1.1/"
   xmlns:cc="http://creativecommons.org/ns#"
   xmlns:rdf="http://www.w3.org/1999/02/22-rdf-syntax-ns#"
   xmlns:svg="http://www.w3.org/2000/svg"
   xmlns="http://www.w3.org/2000/svg"
   xmlns:sodipodi="http://sodipodi.sourceforge.net/DTD/sodipodi-0.dtd"
   xmlns:inkscape="http://www.inkscape.org/namespaces/inkscape"
   version="1.1"
   id="Layer_1"
   x="0px"
   y="0px"
   height="49.900002"
   width="46.206318"
   viewBox="0 0 46.206318 49.900002"
   enable-background="new 0 0 50 50"
   xml:space="preserve"
   sodipodi:docname="AzAutomationRunbooksColor.svg"
   inkscape:version="0.92.4 (5da689c313, 2019-01-14)"><metadata
   id="metadata17"><rdf:RDF><cc:Work
       rdf:about=""><dc:format>image/svg+xml</dc:format><dc:type
         rdf:resource="http://purl.org/dc/dcmitype/StillImage" /></cc:Work></rdf:RDF></metadata><defs
   id="defs15" /><sodipodi:namedview
   pagecolor="#ffffff"
   bordercolor="#666666"
   borderopacity="1"
   objecttolerance="10"
   gridtolerance="10"
   guidetolerance="10"
   inkscape:pageopacity="0"
   inkscape:pageshadow="2"
   inkscape:window-width="713"
   inkscape:window-height="543"
   id="namedview13"
   showgrid="false"
   inkscape:zoom="4.72"
   inkscape:cx="23.1"
   inkscape:cy="24.9"
   inkscape:window-x="0"
   inkscape:window-y="0"
   inkscape:window-maximized="0"
   inkscape:current-layer="Layer_1" />
<path
   d="M 37.2,23.2 H 9 c -1.2,0 -2.3,1 -2.3,2.5 v 10.7 l 3.9,1.1 V 27.1 h 24.9 v 10.3 l 3.9,-1.1 V 25.7 c 0,-1.5 -1.1,-2.5 -2.2,-2.5 z"
   id="path2"
   inkscape:connector-curvature="0"
   style="clip-rule:evenodd;fill:#7a7a7a;fill-rule:evenodd" />
<rect
   x="21.1"
   y="16.4"
   width="3.9000001"
   height="10.4"
   id="rect4"
   style="clip-rule:evenodd;fill:#7a7a7a;fill-rule:evenodd" />
<path
   d="M 29.4,0 H 16.8 c -1.3,0 -2.4,1.1 -2.4,2.4 v 11.7 c 0,1.3 1.1,2.4 2.4,2.4 h 12.5 c 1.3,0 2.4,-1.1 2.4,-2.4 V 2.4 C 31.8,1.1 30.7,0 29.4,0 Z"
   id="path6"
   inkscape:connector-curvature="0"
   style="clip-rule:evenodd;fill:#59b4d9;fill-rule:evenodd" />
<path
   d="M 14.9,33.4 H 2.4 C 1.1,33.4 0,34.5 0,35.8 v 11.7 c 0,1.3 1.1,2.4 2.4,2.4 h 12.5 c 1.3,0 2.4,-1.1 2.4,-2.4 V 35.8 c 0,-1.3 -1.1,-2.4 -2.4,-2.4 z"
   id="path8"
   inkscape:connector-curvature="0"
   style="clip-rule:evenodd;fill:#59b4d9;fill-rule:evenodd" />
<path
   d="M 43.8,33.4 H 31.3 c -1.3,0 -2.4,1.1 -2.4,2.4 v 11.7 c 0,1.3 1.1,2.4 2.4,2.4 h 12.5 c 1.3,0 2.4,-1.1 2.4,-2.4 V 35.8 c 0.1,-1.3 -1,-2.4 -2.4,-2.4 z"
   id="path10"
   inkscape:connector-curvature="0"
   style="clip-rule:evenodd;fill:#59b4d9;fill-rule:evenodd" />
</svg>