<?xml version="1.0" encoding="UTF-8" standalone="no"?>
<!-- Generated by Microsoft Visio, SVG Export Recovery Vault.svg Page-1 -->

<svg
   xmlns:v="http://schemas.microsoft.com/visio/2003/SVGExtensions/"
   xmlns:dc="http://purl.org/dc/elements/1.1/"
   xmlns:cc="http://creativecommons.org/ns#"
   xmlns:rdf="http://www.w3.org/1999/02/22-rdf-syntax-ns#"
   xmlns:svg="http://www.w3.org/2000/svg"
   xmlns="http://www.w3.org/2000/svg"
   xmlns:sodipodi="http://sodipodi.sourceforge.net/DTD/sodipodi-0.dtd"
   xmlns:inkscape="http://www.inkscape.org/namespaces/inkscape"
   width="0.48722184in"
   height="0.48722184in"
   viewBox="0 0 35.08 35.08"
   xml:space="preserve"
   class="st2"
   version="1.1"
   id="svg13"
   sodipodi:docname="AzBackupRecoveryVault.svg"
   style="font-size:12px;overflow:visible;color-interpolation-filters:sRGB;fill:none;fill-rule:evenodd;stroke-linecap:square;stroke-miterlimit:3"
   inkscape:version="0.92.4 (5da689c313, 2019-01-14)"><metadata
   id="metadata19"><rdf:RDF><cc:Work
       rdf:about=""><dc:format>image/svg+xml</dc:format><dc:type
         rdf:resource="http://purl.org/dc/dcmitype/StillImage" /></cc:Work></rdf:RDF></metadata><defs
   id="defs17" /><sodipodi:namedview
   pagecolor="#ffffff"
   bordercolor="#666666"
   borderopacity="1"
   objecttolerance="10"
   gridtolerance="10"
   guidetolerance="10"
   inkscape:pageopacity="0"
   inkscape:pageshadow="2"
   inkscape:window-width="713"
   inkscape:window-height="543"
   id="namedview15"
   showgrid="false"
   inkscape:zoom="4.9406188"
   inkscape:cx="23.383734"
   inkscape:cy="23.389304"
   inkscape:window-x="0"
   inkscape:window-y="0"
   inkscape:window-maximized="0"
   inkscape:current-layer="svg13" />
	<v:documentProperties
   v:langID="1033"
   v:viewMarkup="false" />

	<style
   type="text/css"
   id="style2">
	<![CDATA[
		.st1 {fill:#0070c0;stroke:none;stroke-linecap:round;stroke-linejoin:round;stroke-width:0.75}
		.st2 {fill:none;fill-rule:evenodd;font-size:12px;overflow:visible;stroke-linecap:square;stroke-miterlimit:3}
	]]>
	</style>

	<g
   v:mID="0"
   v:index="1"
   v:groupContext="foregroundPage"
   id="g11"
   transform="translate(-0.374936,-0.374742)">
		<title
   id="title4">Page-1</title>
		<v:pageProperties
   v:drawingScale="1"
   v:pageScale="1"
   v:drawingUnits="19"
   v:shadowOffsetX="2.83465"
   v:shadowOffsetY="-2.83465"
   v:shadowType="1" />
		<g
   id="shape19743-1"
   v:mID="19743"
   v:groupContext="shape"
   transform="translate(0.374936,-0.375258)">
			<title
   id="title6">Sheet.19743</title>
			<path
   d="M 15.56,14.76 10.41,9.6 a 1.09759,1.09759 -180 0 0 -1.56,0 1.09759,1.09759 -180 0 0 0,1.56 l 5.16,5.15 a 4.04165,4.04165 -180 0 0 0,3.95 l -5.16,5.16 a 1.09759,1.09759 -180 0 0 0,1.55 1.09759,1.09759 -180 0 0 1.56,0 l 5.15,-5.16 a 4.04165,4.04165 -180 0 0 3.95,0 l 5.16,5.16 a 1.09759,1.09759 -180 0 0 1.55,0 1.09759,1.09759 -180 0 0 0,-1.55 l -5.16,-5.16 a 4.04165,4.04165 -180 0 0 0,-3.95 l 5.16,-5.15 a 1.09759,1.09759 -180 0 0 0,-1.56 1.09759,1.09759 -180 0 0 -1.55,0 l -5.16,5.16 a 4.04165,4.04165 -180 0 0 -3.95,0 z m 16.81,3.53 a 14.8315,14.7973 -180 1 0 -29.66,0 14.8315,14.7973 -180 1 0 29.66,0 z M 3.18,35.83 H 31.9 a 3.18018,3.18018 -180 0 0 3.18,-3.18 V 3.93 A 3.18018,3.18018 -180 0 0 31.9,0.75 H 3.18 A 3.18018,3.18018 -180 0 0 0,3.93 v 28.72 a 3.18018,3.18018 -180 0 0 3.18,3.18 z M 33.01,18.29 a 15.4755,15.4397 0 1 1 -30.95,0 15.4755,15.4397 0 1 1 30.95,0 z m -8.87,3.53 a 7.48488,7.48488 -180 0 0 0,-7.06 l -2.07,2.07 a 4.75843,4.75843 0 0 1 0,2.92 z m -10.13,3.07 a 7.48488,7.48488 -180 0 0 7.06,0 L 19,22.82 a 4.75843,4.75843 0 0 1 -2.92,0 z M 10.94,14.76 a 7.48488,7.48488 -180 0 0 0,7.06 l 2.07,-2.07 a 4.75843,4.75843 0 0 1 0,-2.92 z m 2.8,-3.34 a 7.8814,7.84219 0 0 1 7.6,-0.01 l 2.38,-2.37 a 2.17124,2.17124 0 0 1 3.07,0 2.17124,2.17124 0 0 1 0,3.07 l -2.35,2.35 a 7.8814,7.84219 0 0 1 0,7.65 l 2.35,2.35 a 2.17124,2.17124 0 0 1 0,3.08 2.17124,2.17124 0 0 1 -3.07,0 l -2.38,-2.38 a 7.8814,7.84219 0 0 1 -7.6,-0.01 l -2.38,2.39 a 2.17124,2.17124 0 0 1 -3.07,0 2.17124,2.17124 0 0 1 0,-3.08 l 2.37,-2.37 a 7.8814,7.84219 0 0 1 0,-7.61 L 8.29,12.11 a 2.17124,2.17124 0 0 1 0,-3.07 2.17124,2.17124 0 0 1 3.07,0 z m 2.34,2.34 a 4.75843,4.75843 0 0 1 2.92,0 l 2.07,-2.07 a 7.48488,7.48488 -180 0 0 -7.06,0 z"
   class="st1"
   id="path8"
   inkscape:connector-curvature="0"
   style="fill:#0070c0;stroke:none;stroke-width:0.75;stroke-linecap:round;stroke-linejoin:round" />
		</g>
	</g>
</svg>