<?xml version="1.0" encoding="UTF-8" standalone="no"?>
<!-- Generator: Adobe Illustrator 17.0.1, SVG Export Plug-In . SVG Version: 6.00 Build 0)  -->

<svg
   xmlns:dc="http://purl.org/dc/elements/1.1/"
   xmlns:cc="http://creativecommons.org/ns#"
   xmlns:rdf="http://www.w3.org/1999/02/22-rdf-syntax-ns#"
   xmlns:svg="http://www.w3.org/2000/svg"
   xmlns="http://www.w3.org/2000/svg"
   xmlns:sodipodi="http://sodipodi.sourceforge.net/DTD/sodipodi-0.dtd"
   xmlns:inkscape="http://www.inkscape.org/namespaces/inkscape"
   version="1.1"
   id="Layer_1"
   x="0px"
   y="0px"
   width="50"
   height="41.666"
   viewBox="0 0 50 41.666"
   enable-background="new 0 0 50 50"
   xml:space="preserve"
   sodipodi:docname="AzBackupColor.svg"
   inkscape:version="0.92.4 (5da689c313, 2019-01-14)"><metadata
   id="metadata11"><rdf:RDF><cc:Work
       rdf:about=""><dc:format>image/svg+xml</dc:format><dc:type
         rdf:resource="http://purl.org/dc/dcmitype/StillImage" /></cc:Work></rdf:RDF></metadata><defs
   id="defs9" /><sodipodi:namedview
   pagecolor="#ffffff"
   bordercolor="#666666"
   borderopacity="1"
   objecttolerance="10"
   gridtolerance="10"
   guidetolerance="10"
   inkscape:pageopacity="0"
   inkscape:pageshadow="2"
   inkscape:window-width="713"
   inkscape:window-height="543"
   id="namedview7"
   showgrid="false"
   inkscape:zoom="4.72"
   inkscape:cx="25"
   inkscape:cy="20"
   inkscape:window-x="0"
   inkscape:window-y="0"
   inkscape:window-maximized="0"
   inkscape:current-layer="Layer_1" />
<path
   d="m 45.083,11.633 c 0.033,-0.35 0.05,-0.717 0.05,-1.083 C 45.133,4.7330004 40.35,4.4965651e-7 34.483,4.4965651e-7 31,-9.9955034e-4 27.8,1.6660004 25.833,4.3990004 c -1.266,-0.783 -2.733,-1.216 -4.266,-1.216 -4.183,0 -7.633,3.183 -8.017,7.2329996 0.65,-0.083 1.3,-0.15 1.967,-0.15 3.083,0 6.05,1 8.467,2.767 C 25.8,8.8490004 30.417,6.1660004 35.533,6.0160004 v -3.583 l 6.25,5.35 L 35.533,13.1 V 9.6000004 C 32.6,9.7160004 29.75,10.816 28.1,13.483 l 0.333,-0.033 c 5.967,0 10.9,4.467 11.6,10.183 1.417,1.067 2.533,2.35 3.333,3.817 C 47.233,26.416 50,23.083 50,18.999 c 0,-3.283 -1.767,-5.9 -4.917,-7.366 z"
   id="path2"
   inkscape:connector-curvature="0"
   style="fill:#0072c6" />
<path
   d="m 4.917,25.499 c -0.033,-0.367 -0.05,-0.733 -0.05,-1.1 0,-5.817 4.783,-10.533 10.65,-10.533 3.483,0 6.683,1.667 8.65,4.383 1.267,-0.783 2.733,-1.2 4.267,-1.2 4.433,0 8.05,3.583 8.05,7.983 l -0.017,0.634 c 3,1.517 4.617,4.033 4.617,7.183 0,4.95 -4.033,8.817 -9.183,8.817 H 9.183 C 4.033,41.666 0,37.799 0,32.849 0,29.583 1.767,26.966 4.917,25.499 Z"
   id="path4"
   inkscape:connector-curvature="0"
   style="fill:#59b4d9" />
</svg>