<?xml version="1.0" encoding="UTF-8" standalone="no"?>
<!-- Generator: Adobe Illustrator 18.1.0, SVG Export Plug-In . SVG Version: 6.00 Build 0)  -->

<svg
   xmlns:dc="http://purl.org/dc/elements/1.1/"
   xmlns:cc="http://creativecommons.org/ns#"
   xmlns:rdf="http://www.w3.org/1999/02/22-rdf-syntax-ns#"
   xmlns:svg="http://www.w3.org/2000/svg"
   xmlns="http://www.w3.org/2000/svg"
   xmlns:sodipodi="http://sodipodi.sourceforge.net/DTD/sodipodi-0.dtd"
   xmlns:inkscape="http://www.inkscape.org/namespaces/inkscape"
   version="1.0"
   x="0px"
   y="0px"
   viewBox="0 0 38.5 25.4"
   enable-background="new 0 0 152 117.5"
   xml:space="preserve"
   id="svg41"
   sodipodi:docname="AzBizTalkServicesHybridConnectionManager.svg"
   width="38.5"
   height="25.4"
   inkscape:version="0.92.4 (5da689c313, 2019-01-14)"><metadata
   id="metadata47"><rdf:RDF><cc:Work
       rdf:about=""><dc:format>image/svg+xml</dc:format><dc:type
         rdf:resource="http://purl.org/dc/dcmitype/StillImage" /></cc:Work></rdf:RDF></metadata><defs
   id="defs45" /><sodipodi:namedview
   pagecolor="#ffffff"
   bordercolor="#666666"
   borderopacity="1"
   objecttolerance="10"
   gridtolerance="10"
   guidetolerance="10"
   inkscape:pageopacity="0"
   inkscape:pageshadow="2"
   inkscape:window-width="713"
   inkscape:window-height="543"
   id="namedview43"
   showgrid="false"
   inkscape:zoom="2.0085106"
   inkscape:cx="20.4"
   inkscape:cy="12.55"
   inkscape:window-x="0"
   inkscape:window-y="0"
   inkscape:window-maximized="0"
   inkscape:current-layer="svg41" />
<g
   id="Layer_1"
   transform="translate(-55.6,-45.9)">
	<g
   id="Azure">
	</g>
	<g
   id="BizTalk_Services"
   transform="translate(37.3575,-2500.2)">
	</g>
</g>
<g
   id="paths"
   transform="translate(-55.6,-45.9)">
	<g
   id="Access_control">
	</g>
	<g
   id="Azure_active_directory">
	</g>
	<g
   id="API_Management">
	</g>
	<g
   id="Azure_automation">
	</g>
	<g
   id="Azure_SQL_database">
	</g>
	<g
   id="Azure_subscription">
	</g>
	<g
   id="Backup_service">
	</g>
	<g
   id="Bitbucket_code_source">
	</g>
	<g
   id="Azure_cache">
	</g>
	<g
   id="Content_delivery_network__x28_CDN_x29_">
	</g>
	<g
   id="Cloud_service">
	</g>
	<g
   id="CodePlex">
	</g>
	<g
   id="Dropbox_code_source">
	</g>
	<g
   id="Express_route">
	</g>
	<g
   id="Git_repository">
	</g>
	<g
   id="GitHub_code">
	</g>
	<g
   id="HD_Insight">
	</g>
	<g
   id="Health_monitoring">
	</g>
	<g
   id="Healthy">
	</g>
	<g
   id="BizTalk_hybrid_connection">
	</g>
	<g
   id="Hybrid_connection_manager_for_BizTalk_hybrid_connection">
		<g
   id="g37">
			<path
   d="m 85.8,61.3 v 0 c 0.1,0 0.1,0 0,0 0.1,0 0.1,0 0.1,0 z"
   id="path25"
   inkscape:connector-curvature="0"
   style="fill:#0078d7" />
			<path
   d="m 85.8,56.6 v 0 h 0.1 c 0,0 0,0 -0.1,0 z"
   id="path27"
   inkscape:connector-curvature="0"
   style="fill:#0078d7" />
			<path
   d="m 83.6,58.9 c 0,-1.3 1,-2.3 2.2,-2.4 0,0 0,0 0.1,0 0,0 0.1,0 0.1,0 h 5.7 c 1.3,0 2.4,1.1 2.4,2.4 0,1.3 -1.1,2.4 -2.4,2.4 H 86 c 0,0 -0.1,0 -0.1,0 0,0 0,0 -0.1,0 -1.2,-0.1 -2.2,-1.1 -2.2,-2.4 z"
   id="path29"
   inkscape:connector-curvature="0"
   style="fill:#0078d7" />
			<path
   d="m 85.8,61.3 v 0 c 0.1,0 0.1,0 0,0 0.1,0 0.1,0 0,0 z"
   id="path31"
   inkscape:connector-curvature="0"
   style="fill:#0078d7" />
			<path
   d="m 85.9,56.6 c 0,0 0,0 0,0 v 0 c 0,0 0,0 0,0 z"
   id="path33"
   inkscape:connector-curvature="0"
   style="fill:#0078d7" />
			<path
   d="m 71.8,58.7 c 0,-2.7 2.2,-4.8 4.8,-4.8 2.7,0 4.8,2.2 4.8,4.8 0,2.6 -2.2,4.8 -4.8,4.8 -2.6,0.1 -4.8,-2.1 -4.8,-4.8 z m -13.9,2.6 c 0,0 0,0 0,0 0.1,0 0.1,0 0.1,0 h 5.7 c 0.2,0 0.4,0 0.5,-0.1 1.2,5.8 6.3,10.1 12.4,10.1 3.4,0 6.4,-1.3 8.7,-3.5 0.4,-0.4 0.7,-1 0.7,-1.7 0,-1.3 -1.1,-2.4 -2.4,-2.4 -0.4,0 -0.8,0.1 -1.1,0.3 v 0 c -0.3,0.3 -0.6,0.6 -0.9,0.8 -1.4,1.1 -3.1,1.8 -5,1.8 -4.4,0 -8,-3.6 -8,-8 0,-4.4 3.6,-8 8,-8 2.2,0 4.2,0.9 5.6,2.3 0,0 0,0 0,0 0.2,0.2 0.3,0.3 0.5,0.5 0,0 0,0 0,0 0.4,0.3 0.9,0.5 1.5,0.5 1.3,0 2.4,-1.1 2.4,-2.4 0,-0.4 -0.1,-0.8 -0.3,-1.1 -0.3,-0.3 -0.5,-0.6 -0.8,-0.9 -2.3,-2.2 -5.4,-3.6 -8.9,-3.6 -6.3,0 -11.5,4.6 -12.5,10.6 -0.1,0 -0.3,0 -0.5,0 H 58 c 0,0 -0.1,0 -0.1,0 0,0 0,0 -0.1,0 -1.2,0.1 -2.2,1.1 -2.2,2.4 0.1,1.3 1.1,2.3 2.3,2.4 z"
   id="path35"
   inkscape:connector-curvature="0"
   style="fill:#0078d7" />
		</g>
	</g>
</g>
</svg>