<?xml version="1.0" encoding="UTF-8" standalone="no"?>
<!-- Generator: Adobe Illustrator 18.1.0, SVG Export Plug-In . SVG Version: 6.00 Build 0)  -->

<svg
   xmlns:dc="http://purl.org/dc/elements/1.1/"
   xmlns:cc="http://creativecommons.org/ns#"
   xmlns:rdf="http://www.w3.org/1999/02/22-rdf-syntax-ns#"
   xmlns:svg="http://www.w3.org/2000/svg"
   xmlns="http://www.w3.org/2000/svg"
   xmlns:sodipodi="http://sodipodi.sourceforge.net/DTD/sodipodi-0.dtd"
   xmlns:inkscape="http://www.inkscape.org/namespaces/inkscape"
   version="1.0"
   x="0px"
   y="0px"
   viewBox="0 0 42.700001 41.285801"
   enable-background="new 0 0 152 117.5"
   xml:space="preserve"
   id="svg36"
   sodipodi:docname="AzBizTalkServices.svg"
   width="42.700001"
   height="41.285801"
   inkscape:version="0.92.4 (5da689c313, 2019-01-14)"><metadata
   id="metadata42"><rdf:RDF><cc:Work
       rdf:about=""><dc:format>image/svg+xml</dc:format><dc:type
         rdf:resource="http://purl.org/dc/dcmitype/StillImage" /></cc:Work></rdf:RDF></metadata><defs
   id="defs40" /><sodipodi:namedview
   pagecolor="#ffffff"
   bordercolor="#666666"
   borderopacity="1"
   objecttolerance="10"
   gridtolerance="10"
   guidetolerance="10"
   inkscape:pageopacity="0"
   inkscape:pageshadow="2"
   inkscape:window-width="713"
   inkscape:window-height="543"
   id="namedview38"
   showgrid="false"
   inkscape:zoom="2.0085106"
   inkscape:cx="21.3425"
   inkscape:cy="20.65"
   inkscape:window-x="0"
   inkscape:window-y="0"
   inkscape:window-maximized="0"
   inkscape:current-layer="svg36" />
<g
   id="Layer_1"
   transform="translate(-54.6575,-38.1142)">
	<g
   id="Azure">
	</g>
	<g
   id="BizTalk_Services"
   transform="translate(37.3575,-2500.2)">
		<g
   id="g23">
			<title
   id="title3">Sheet.1079</title>
			<g
   id="group1080-2176_1_"
   transform="translate(0,-11.3858)">
				<title
   id="title5">Sheet.1080</title>
				<g
   id="shape1081-2177_1_"
   transform="translate(16.683,-5.499)">
					<title
   id="title7">Sheet.1081</title>
					<path
   d="m 25.9,2574.8 c 0,-2.1 -1.7,-3.8 -3.8,-3.8 -2.1,0 -3.8,1.7 -3.8,3.8 0,2.1 1.7,3.8 3.8,3.8 2.1,0 3.8,-1.7 3.8,-3.8 z"
   id="path9"
   inkscape:connector-curvature="0"
   style="fill:#0078d7" />
				</g>
				<g
   id="shape1082-2179_1_">
					<title
   id="title12">Sheet.1082</title>
					<path
   d="m 54,2562.6 c 0.2,-0.8 0.3,-1.7 0.3,-2.6 0,-5.7 -4.5,-10.3 -10,-10.3 -4.2,0 -7.7,2.6 -9.3,6.3 -1.3,-1.6 -3.3,-2.6 -5.4,-2.6 -3.9,0 -7.1,3.3 -7.1,7.3 0,0.7 0.1,1.4 0.3,2 -3.2,1.2 -5.5,4 -5.5,7.7 0,4.7 3.8,8.4 8.4,8.4 h 2.5 9.6 v -3.6 c -1.5,-0.2 -2.9,-1 -3.8,-2.2 l -3.2,1.9 1.3,2.2 -5.1,-1 1.7,-5.1 1.3,2.3 3.2,-1.8 c -0.3,-0.7 -0.5,-1.5 -0.5,-2.3 0,-0.8 0.2,-1.5 0.4,-2.2 0,0 -3.3,-1.9 -3.3,-1.9 l -1.3,2.3 -1.7,-5.1 5.1,-0.8 -1.2,2.1 3.3,1.9 c 0.9,-1.2 2.3,-2.1 3.9,-2.3 v -3.7 h -2.3 l 3.2,-3.9 3.4,3.9 h -2.5 v 3.7 c 1.6,0.2 3,1.1 3.9,2.3 l 3.3,-1.9 -1.3,-2.2 5.1,1 -2.2,5 -0.7,-2.3 -3.3,1.9 c 0.3,0.7 0.4,1.4 0.4,2.2 0,0.8 -0.2,1.5 -0.4,2.2 l 3.3,1.9 1.4,-2.5 1.5,5.3 -5.2,1.2 1.4,-2.4 -3.3,-1.9 c -0.9,1.2 -2.4,2.1 -4,2.3 v 3.6 H 50 51.6 c 4.6,0 8.4,-3.7 8.4,-8.4 -0.1,-3.8 -2.6,-6.8 -6,-7.9 z"
   id="path14"
   inkscape:connector-curvature="0"
   style="fill:#0078d7" />
				</g>
			</g>
			<g
   id="shape1083-2181_1_"
   transform="translate(17.0798)">
				<title
   id="title18">Sheet.1083</title>
				<path
   d="m 22.5,2572.9 v -5.4 h -1.8 v 5.5 c -1.4,0.4 -2.5,1.7 -2.5,3.2 0,1.9 1.5,3.4 3.4,3.4 1.8,0 3.4,-1.5 3.4,-3.4 0,-1.6 -1,-2.9 -2.5,-3.3 z"
   id="path20"
   inkscape:connector-curvature="0"
   style="fill:#0078d7" />
			</g>
		</g>
	</g>
</g>
<g
   id="paths"
   transform="translate(-54.6575,-38.1142)">
	<g
   id="Access_control">
	</g>
	<g
   id="Azure_active_directory">
	</g>
	<g
   id="API_Management">
	</g>
	<g
   id="Azure_automation">
	</g>
	<g
   id="Azure_SQL_database">
	</g>
	<g
   id="Azure_subscription">
	</g>
	<g
   id="Backup_service">
	</g>
	<g
   id="Bitbucket_code_source">
	</g>
</g>
</svg>