<?xml version="1.0" encoding="UTF-8" standalone="no"?>
<!-- Generator: Adobe Illustrator 17.1.0, SVG Export Plug-In . SVG Version: 6.00 Build 0)  -->

<svg
   xmlns:dc="http://purl.org/dc/elements/1.1/"
   xmlns:cc="http://creativecommons.org/ns#"
   xmlns:rdf="http://www.w3.org/1999/02/22-rdf-syntax-ns#"
   xmlns:svg="http://www.w3.org/2000/svg"
   xmlns="http://www.w3.org/2000/svg"
   xmlns:sodipodi="http://sodipodi.sourceforge.net/DTD/sodipodi-0.dtd"
   xmlns:inkscape="http://www.inkscape.org/namespaces/inkscape"
   version="1.1"
   id="Layer_1"
   x="0px"
   y="0px"
   width="47"
   height="50"
   viewBox="0 0 47 50"
   enable-background="new 0 0 50 50"
   xml:space="preserve"
   sodipodi:docname="AzBizTalkServicesHybridConnectionsColor.svg"
   inkscape:version="0.92.4 (5da689c313, 2019-01-14)"><metadata
   id="metadata19"><rdf:RDF><cc:Work
       rdf:about=""><dc:format>image/svg+xml</dc:format><dc:type
         rdf:resource="http://purl.org/dc/dcmitype/StillImage" /></cc:Work></rdf:RDF></metadata><defs
   id="defs17" /><sodipodi:namedview
   pagecolor="#ffffff"
   bordercolor="#666666"
   borderopacity="1"
   objecttolerance="10"
   gridtolerance="10"
   guidetolerance="10"
   inkscape:pageopacity="0"
   inkscape:pageshadow="2"
   inkscape:window-width="713"
   inkscape:window-height="543"
   id="namedview15"
   showgrid="false"
   inkscape:zoom="4.72"
   inkscape:cx="23.5"
   inkscape:cy="25"
   inkscape:window-x="0"
   inkscape:window-y="0"
   inkscape:window-maximized="0"
   inkscape:current-layer="Layer_1" />
<circle
   cx="22.799999"
   cy="11.1"
   r="4"
   id="circle2"
   style="fill:#7fba00" />
<circle
   cx="23.1"
   cy="38.900002"
   r="4"
   id="circle4"
   style="fill:#7fba00" />
<path
   d="M 13,40.9 H 11.1 C 5,40.9 0,35.9 0,29.8 V 20.1 C 0.1,14.3 5,9.3 11,9 h 3 c 1,0 1.8,0.8 1.8,1.8 0,1 -0.8,1.8 -1.8,1.8 h -2.9 c -4,0.2 -7.4,3.5 -7.4,7.4 v 9.7 c 0,4.1 3.3,7.4 7.4,7.4 H 13 c 1,0 1.8,0.8 1.8,1.8 0,1.2 -0.8,2 -1.8,2 z"
   id="path6"
   inkscape:connector-curvature="0"
   style="fill:#59b4d9" />
<path
   d="M 35.9,40.9 H 32 c -1,0 -1.8,-0.8 -1.8,-1.8 0,-1 0.8,-1.8 1.8,-1.8 h 3.9 c 4.1,0 7.4,-3.3 7.4,-7.4 v -9.7 c 0,-4.1 -3.3,-7.4 -7.4,-7.4 H 33 C 32,12.8 31.2,12 31.2,11 31.2,10 32,9.2 33,9.2 h 2.9 C 42,9.2 47,14.2 47,20.3 V 30 c 0,6 -5,10.9 -11.1,10.9 z"
   id="path8"
   inkscape:connector-curvature="0"
   style="fill:#804998" />
<path
   d="m 22.6,22.2 c -2.8,0 -5.7,-1.1 -7.8,-3.2 -0.7,-0.7 -0.7,-1.9 0,-2.6 0.7,-0.7 1.9,-0.7 2.6,0 2.9,2.9 7.6,2.9 10.4,0 C 30.7,13.5 30.7,8.8 27.8,6 26.4,4.6 24.5,3.8 22.6,3.8 20.6,3.8 18.8,4.6 17.4,6 16.7,6.7 15.5,6.7 14.8,6 14.1,5.3 14.1,4.1 14.8,3.4 16.9,1.2 19.7,0 22.6,0 c 3,0 5.7,1.2 7.8,3.2 4.3,4.3 4.3,11.4 0,15.7 -2.1,2.2 -4.9,3.3 -7.8,3.3 z"
   id="path10"
   inkscape:connector-curvature="0"
   style="fill:#68217a" />
<path
   d="m 23,50 c -3,0 -5.7,-1.2 -7.8,-3.2 -4.3,-4.3 -4.3,-11.4 0,-15.7 2.1,-2.1 4.9,-3.2 7.8,-3.2 3,0 5.7,1.2 7.8,3.2 0.7,0.7 0.7,1.9 0,2.6 -0.7,0.7 -1.9,0.7 -2.6,0 -1.4,-1.4 -3.3,-2.2 -5.2,-2.2 -2,0 -3.8,0.8 -5.2,2.2 -2.9,2.9 -2.9,7.6 0,10.4 1.4,1.4 3.2,2.2 5.2,2.2 2,0 3.8,-0.8 5.2,-2.2 0.7,-0.7 1.9,-0.7 2.6,0 0.7,0.7 0.7,1.9 0,2.6 C 28.8,48.8 26,50 23,50 Z"
   id="path12"
   inkscape:connector-curvature="0"
   style="fill:#0072c6" />
</svg>