<?xml version="1.0" encoding="UTF-8" standalone="no"?>
<!-- Generator: Adobe Illustrator 17.1.0, SVG Export Plug-In . SVG Version: 6.00 Build 0)  -->

<svg
   xmlns:dc="http://purl.org/dc/elements/1.1/"
   xmlns:cc="http://creativecommons.org/ns#"
   xmlns:rdf="http://www.w3.org/1999/02/22-rdf-syntax-ns#"
   xmlns:svg="http://www.w3.org/2000/svg"
   xmlns="http://www.w3.org/2000/svg"
   xmlns:sodipodi="http://sodipodi.sourceforge.net/DTD/sodipodi-0.dtd"
   xmlns:inkscape="http://www.inkscape.org/namespaces/inkscape"
   version="1.1"
   id="Layer_1"
   x="0px"
   y="0px"
   width="50"
   height="48.400002"
   viewBox="0 0 50 48.400002"
   enable-background="new 0 0 50 50"
   xml:space="preserve"
   sodipodi:docname="AzBizTalkServicesColor.svg"
   inkscape:version="0.92.4 (5da689c313, 2019-01-14)"><metadata
   id="metadata15"><rdf:RDF><cc:Work
       rdf:about=""><dc:format>image/svg+xml</dc:format><dc:type
         rdf:resource="http://purl.org/dc/dcmitype/StillImage" /></cc:Work></rdf:RDF></metadata><defs
   id="defs13" /><sodipodi:namedview
   pagecolor="#ffffff"
   bordercolor="#666666"
   borderopacity="1"
   objecttolerance="10"
   gridtolerance="10"
   guidetolerance="10"
   inkscape:pageopacity="0"
   inkscape:pageshadow="2"
   inkscape:window-width="713"
   inkscape:window-height="543"
   id="namedview11"
   showgrid="false"
   inkscape:zoom="4.72"
   inkscape:cx="25"
   inkscape:cy="24"
   inkscape:window-x="0"
   inkscape:window-y="0"
   inkscape:window-maximized="0"
   inkscape:current-layer="Layer_1" />
<path
   d="m 29.6,23.2 c 0,-2.5 -2,-4.5 -4.5,-4.5 -2.5,0 -4.5,2 -4.5,4.5 0,2.5 2,4.5 4.5,4.5 2.5,0 4.5,-2 4.5,-4.5 z"
   id="path2"
   inkscape:connector-curvature="0"
   style="fill:#b8d432" />
<path
   d="m 43.1,15.3 c 0.3,-1 0.4,-2 0.4,-3.1 C 43.5,5.5 38.2,0 31.7,0 26.8,0 22.6,3.1 20.8,7.5 19.3,5.6 17,4.5 14.4,4.5 c -4.6,0 -8.3,3.9 -8.3,8.6 0,0.8 0.1,1.6 0.3,2.4 -3.7,1.4 -6.4,4.7 -6.4,9.1 0,5.6 4.4,9.8 9.9,9.8 h 2.9 11.3 V 30.3 C 22.3,30 20.7,29.1 19.7,27.7 l -3.8,2 1.3,3 -5.8,-1.5 2,-6 1.5,2.8 3.7,-2.2 C 18.3,25 18.1,24 18.1,23 c 0,-0.9 0.2,-1.8 0.5,-2.6 v 0 l -3.9,-2.3 -1.5,2.7 -1.9,-6 5.9,-1 -1.4,2.5 3.9,2.3 c 1.1,-1.4 2.7,-2.4 4.6,-2.7 v -4.4 h -2.8 l 3.8,-4.6 4,4.6 h -3 v 4.4 c 1.9,0.3 3.5,1.3 4.6,2.7 l 3.9,-2.3 -1.5,-2.6 5.9,1.2 -1.9,5.9 -1.5,-2.6 -3.9,2.3 c 0.3,0.8 0.5,1.7 0.5,2.6 0,0.9 -0.2,1.8 -0.5,2.6 l 3.9,2.3 1.7,-2.9 1.8,6.2 -6.3,1.4 1.6,-2.9 -3.9,-2.3 C 29.6,29 27.9,30 26.1,30.2 v 4.2 h 12.2 1.9 c 5.5,0 9.8,-4.2 9.8,-9.8 0,-4.5 -2.9,-8 -6.9,-9.3 z"
   id="path4"
   inkscape:connector-curvature="0"
   style="fill:#59b4d9" />
<rect
   x="23.5"
   y="34.400002"
   width="3"
   height="7"
   id="rect6"
   style="fill:#3999c6" />
<circle
   cx="25"
   cy="44.400002"
   r="4"
   id="circle8"
   style="fill:#0072c6" />
</svg>