<?xml version="1.0" encoding="UTF-8" standalone="no"?>
<!-- Generator: Adobe Illustrator 17.1.0, SVG Export Plug-In . SVG Version: 6.00 Build 0)  -->

<svg
   xmlns:dc="http://purl.org/dc/elements/1.1/"
   xmlns:cc="http://creativecommons.org/ns#"
   xmlns:rdf="http://www.w3.org/1999/02/22-rdf-syntax-ns#"
   xmlns:svg="http://www.w3.org/2000/svg"
   xmlns="http://www.w3.org/2000/svg"
   xmlns:sodipodi="http://sodipodi.sourceforge.net/DTD/sodipodi-0.dtd"
   xmlns:inkscape="http://www.inkscape.org/namespaces/inkscape"
   version="1.1"
   id="Layer_1"
   x="0px"
   y="0px"
   width="40.666668"
   height="41.416668"
   viewBox="0 0 244.00001 207.08334"
   enable-background="new 0 0 300 250"
   xml:space="preserve"
   sodipodi:docname="AzCacheincludingRedisColor.svg"
   inkscape:version="0.92.4 (5da689c313, 2019-01-14)"><metadata
   id="metadata31"><rdf:RDF><cc:Work
       rdf:about=""><dc:format>image/svg+xml</dc:format><dc:type
         rdf:resource="http://purl.org/dc/dcmitype/StillImage" /></cc:Work></rdf:RDF></metadata><defs
   id="defs29" /><sodipodi:namedview
   pagecolor="#ffffff"
   bordercolor="#666666"
   borderopacity="1"
   objecttolerance="10"
   gridtolerance="10"
   guidetolerance="10"
   inkscape:pageopacity="0"
   inkscape:pageshadow="2"
   inkscape:window-width="713"
   inkscape:window-height="543"
   id="namedview27"
   showgrid="false"
   inkscape:zoom="4.72"
   inkscape:cx="20.833333"
   inkscape:cy="20.833333"
   inkscape:window-x="0"
   inkscape:window-y="0"
   inkscape:window-maximized="0"
   inkscape:current-layer="Layer_1" />
<path
   d="m 0,9 v 180.5 c 0,19 42,34 93.5,34 V 9 Z"
   id="path2"
   inkscape:connector-curvature="0"
   style="fill:#3999c6" />
<path
   d="M 92.5,223.5 H 94 c 52,0 93.5,-15 93.5,-34 V 9 h -95 z"
   id="path4"
   inkscape:connector-curvature="0"
   style="fill:#59b4d9" />
<path
   d="m 187.5,9 c 0,18.5 -42,34 -93.5,34 C 42.5,43 0,27.5 0,9 0,-9.5 42,-25 93.5,-25 c 51.5,0 94,15.5 94,34"
   id="path6"
   inkscape:connector-curvature="0"
   style="fill:#ffffff" />
<path
   d="M 168.5,7 C 168.5,19.5 135,29.5 94,29.5 53,29.5 19,19.5 19,7 c 0,-12.5 33.5,-22.5 74.5,-22.5 41,0 75,10 75,22.5"
   id="path8"
   inkscape:connector-curvature="0"
   style="fill:#7fba00" />
<path
   d="M 152.5,20.5 C 162.5,16.5 168,12 168,7 168,-5.5 134.5,-15.5 93.5,-15.5 52.5,-15.5 19,-5.5 19,7 19,12 25,17 34.5,20.5 48,15 69.5,12 93.5,12 c 24,0 45.5,3.5 59,8.5"
   id="path10"
   inkscape:connector-curvature="0"
   style="fill:#b8d432" />
<path
   d="M 119,80.5 V 201 c 0,12.5 28,22.5 62.5,22.5 v -143 z"
   id="path12"
   inkscape:connector-curvature="0"
   style="fill:#0072c6" />
<path
   d="m 180.5,223.5 h 1 c 34.5,0 62.5,-10 62.5,-22.5 V 80.5 h -63.5 z"
   id="path14"
   inkscape:connector-curvature="0"
   style="fill:#0072c6" />
<path
   enable-background="new    "
   d="m 180.5,223.5 h 1 c 34.5,0 62.5,-10 62.5,-22.5 V 80.5 h -63.5 z"
   id="path16"
   inkscape:connector-curvature="0"
   style="opacity:0.15;fill:#ffffff" />
<path
   d="M 244,80.5 C 244,93 216,103 181.5,103 147,103 119,93 119,80.5 119,68 147,58 181.5,58 216,58 244,68 244,80.5"
   id="path18"
   inkscape:connector-curvature="0"
   style="fill:#ffffff" />
<path
   d="m 231,79 c 0,8 -22.5,15 -49.5,15 -27,0 -49.5,-6.5 -49.5,-15 0,-8 22.5,-15 49.5,-15 27,0 49.5,7 49.5,15"
   id="path20"
   inkscape:connector-curvature="0"
   style="fill:#7fba00" />
<path
   d="M 220.5,88 C 227,85.5 231,82.5 231,79 231,71 208.5,64 181.5,64 154,64 132,70.5 132,79 c 0,3.5 4,6.5 10.5,9 9,-3.5 23.5,-6 39.5,-6 15,0 29,2.5 38.5,6"
   id="path22"
   inkscape:connector-curvature="0"
   style="fill:#b8d432" />
<polygon
   points="198,193 174.5,193 244,136 217,180 240.5,180 171,237.5 "
   id="polygon24"
   style="fill:#ffffff"
   transform="translate(-25,-26.5)" />
</svg>