<?xml version="1.0" encoding="UTF-8" standalone="no"?>
<!-- Generator: Adobe Illustrator 18.1.0, SVG Export Plug-In . SVG Version: 6.00 Build 0)  -->

<svg
   xmlns:dc="http://purl.org/dc/elements/1.1/"
   xmlns:cc="http://creativecommons.org/ns#"
   xmlns:rdf="http://www.w3.org/1999/02/22-rdf-syntax-ns#"
   xmlns:svg="http://www.w3.org/2000/svg"
   xmlns="http://www.w3.org/2000/svg"
   xmlns:sodipodi="http://sodipodi.sourceforge.net/DTD/sodipodi-0.dtd"
   xmlns:inkscape="http://www.inkscape.org/namespaces/inkscape"
   version="1.0"
   x="0px"
   y="0px"
   viewBox="0 0 36.744202 40.881748"
   enable-background="new 0 0 152 117.5"
   xml:space="preserve"
   id="svg27"
   sodipodi:docname="AzCacheincludingRedis.svg"
   width="36.744202"
   height="40.881748"
   inkscape:version="0.92.4 (5da689c313, 2019-01-14)"><metadata
   id="metadata33"><rdf:RDF><cc:Work
       rdf:about=""><dc:format>image/svg+xml</dc:format><dc:type
         rdf:resource="http://purl.org/dc/dcmitype/StillImage" /></cc:Work></rdf:RDF></metadata><defs
   id="defs31" /><sodipodi:namedview
   pagecolor="#ffffff"
   bordercolor="#666666"
   borderopacity="1"
   objecttolerance="10"
   gridtolerance="10"
   guidetolerance="10"
   inkscape:pageopacity="0"
   inkscape:pageshadow="2"
   inkscape:window-width="713"
   inkscape:window-height="543"
   id="namedview29"
   showgrid="false"
   inkscape:zoom="2.0085106"
   inkscape:cx="18.4"
   inkscape:cy="20.45"
   inkscape:window-x="0"
   inkscape:window-y="0"
   inkscape:window-maximized="0"
   inkscape:current-layer="svg27" />
<g
   id="Layer_1"
   transform="translate(-57.6,-38.31825)">
	<g
   id="Azure">
	</g>
	<g
   id="BizTalk_Services"
   transform="translate(37.3575,-2500.2)">
	</g>
</g>
<g
   id="paths"
   transform="translate(-57.6,-38.31825)">
	<g
   id="Access_control">
	</g>
	<g
   id="Azure_active_directory">
	</g>
	<g
   id="API_Management">
	</g>
	<g
   id="Azure_automation">
	</g>
	<g
   id="Azure_SQL_database">
	</g>
	<g
   id="Azure_subscription">
	</g>
	<g
   id="Backup_service">
	</g>
	<g
   id="Bitbucket_code_source">
	</g>
	<g
   id="Azure_cache">
		<g
   id="g23">
			<g
   id="shape947-1933_1_"
   transform="translate(0,-0.38175)">
				<title
   id="title13">Sheet.947</title>
				<path
   d="m 62.5,43.4 c 0,-1.4 4.5,-2.5 10.1,-2.5 5.6,0 10.1,1.1 10.1,2.5 0,1.4 -4.5,2.5 -10.1,2.5 -5.6,0 -10.1,-1.1 -10.1,-2.5 z m 9,33.7 V 52.9 c 0,-3 4.7,-4.4 11.6,-4.4 1.6,0 3.1,0.1 4.5,0.3 v -5.4 c 0,-2.6 -6.7,-4.7 -15,-4.7 -8.3,0 -15,2.1 -15,4.7 v 31.2 c 0,2.6 6.7,4.7 15,4.7 h 1 c -1.3,-0.7 -2.1,-1.4 -2.1,-2.2 z"
   id="path15"
   inkscape:connector-curvature="0"
   style="fill:#0078d7" />
			</g>
			<g
   id="shape948-1935_1_"
   transform="translate(16.8442)">
				<title
   id="title18">Sheet.948</title>
				<path
   d="m 66.7,55.8 c -4,0 -7.3,-0.8 -7.3,-1.8 0,-1 3.3,-1.8 7.3,-1.8 4,0 7.3,0.8 7.3,1.8 0,1 -3.2,1.8 -7.3,1.8 z m 6.4,10.1 -13.3,11 5.1,-8.5 h -4.5 l 13.3,-11 -5.1,8.5 z M 66.7,50 c -5.9,0 -10.4,1.5 -10.4,3.3 v 22.4 c 0,1.9 4.4,3.5 10.4,3.5 5.9,0 10.8,-1.5 10.8,-3.4 V 53.4 C 77.5,51.5 72.7,50 66.7,50 Z"
   id="path20"
   inkscape:connector-curvature="0"
   style="fill:#0078d7" />
			</g>
		</g>
	</g>
</g>
</svg>