<?xml version="1.0" encoding="UTF-8" standalone="no"?>
<!-- Generator: Adobe Illustrator 19.1.0, SVG Export Plug-In . SVG Version: 6.00 Build 0)  -->

<svg
   xmlns:dc="http://purl.org/dc/elements/1.1/"
   xmlns:cc="http://creativecommons.org/ns#"
   xmlns:rdf="http://www.w3.org/1999/02/22-rdf-syntax-ns#"
   xmlns:svg="http://www.w3.org/2000/svg"
   xmlns="http://www.w3.org/2000/svg"
   xmlns:sodipodi="http://sodipodi.sourceforge.net/DTD/sodipodi-0.dtd"
   xmlns:inkscape="http://www.inkscape.org/namespaces/inkscape"
   version="1.1"
   id="Layer_1"
   x="0px"
   y="0px"
   width="50.001617"
   height="42.139"
   viewBox="0 0 50.001617 42.139"
   enable-background="new 0 0 50 50"
   xml:space="preserve"
   sodipodi:docname="AzCacheRedisProducticonColor.svg"
   inkscape:version="0.92.4 (5da689c313, 2019-01-14)"><metadata
   id="metadata41"><rdf:RDF><cc:Work
       rdf:about=""><dc:format>image/svg+xml</dc:format><dc:type
         rdf:resource="http://purl.org/dc/dcmitype/StillImage" /></cc:Work></rdf:RDF></metadata><defs
   id="defs39" /><sodipodi:namedview
   pagecolor="#ffffff"
   bordercolor="#666666"
   borderopacity="1"
   objecttolerance="10"
   gridtolerance="10"
   guidetolerance="10"
   inkscape:pageopacity="0"
   inkscape:pageshadow="2"
   inkscape:window-width="713"
   inkscape:window-height="543"
   id="namedview37"
   showgrid="false"
   inkscape:zoom="4.72"
   inkscape:cx="25.000053"
   inkscape:cy="20.9995"
   inkscape:window-x="0"
   inkscape:window-y="0"
   inkscape:window-maximized="0"
   inkscape:current-layer="Layer_1" />
<g
   id="g6"
   transform="translate(5.3339518e-5,-3.8605)">
	<path
   d="m 0.01,35.63 c -0.085,0.532 0.369,1.076 1.362,1.483 l 20.316,8.324 c 1.829,0.75 4.795,0.75 6.625,0 l 20.316,-8.324 c 0.993,-0.407 1.447,-0.951 1.362,-1.483 l 0.005,-4.768 c 0.062,0.522 -0.394,1.052 -1.367,1.451 l -20.316,8.324 c -1.829,0.75 -4.795,0.75 -6.625,0 L 1.372,32.313 C 0.304,31.875 -0.141,31.279 0.039,30.709 Z"
   id="path2"
   inkscape:connector-curvature="0"
   style="fill:#ba141a" />
	<path
   d="m 48.628,29.599 c 1.829,0.75 1.829,1.965 0,2.714 l -20.316,8.324 c -1.829,0.75 -4.795,0.75 -6.625,0 L 1.372,32.313 c -1.829,-0.75 -1.829,-1.965 0,-2.714 l 20.316,-8.324 c 1.829,-0.75 4.795,-0.75 6.625,0 z"
   id="path4"
   inkscape:connector-curvature="0"
   style="fill:#ba141a" />
</g>
<g
   id="g12"
   transform="translate(5.3339518e-5,-3.8605)">
	<path
   d="m 0.01,27.204 c -0.085,0.532 0.369,1.076 1.362,1.483 l 20.316,8.324 c 1.829,0.75 4.795,0.75 6.625,0 l 20.316,-8.324 c 0.993,-0.407 1.447,-0.951 1.362,-1.483 l 0.005,-4.768 c 0.062,0.522 -0.394,1.052 -1.367,1.451 l -20.316,8.324 c -1.829,0.75 -4.795,0.75 -6.625,0 L 1.372,23.887 C 0.304,23.449 -0.141,22.853 0.039,22.283 Z"
   id="path8"
   inkscape:connector-curvature="0"
   style="fill:#ba141a" />
	<path
   d="m 48.628,21.173 c 1.829,0.75 1.829,1.965 0,2.714 l -20.316,8.324 c -1.829,0.75 -4.795,0.75 -6.625,0 L 1.372,23.887 c -1.829,-0.75 -1.829,-1.965 0,-2.714 l 20.316,-8.324 c 1.829,-0.75 4.795,-0.75 6.625,0 z"
   id="path10"
   inkscape:connector-curvature="0"
   style="fill:#ba141a" />
</g>
<g
   id="g24"
   transform="translate(5.3339518e-5,-3.8605)">
	<path
   d="m 0.01,18.778 c -0.085,0.532 0.369,1.076 1.362,1.483 l 20.316,8.324 c 1.829,0.75 4.795,0.75 6.625,0 l 20.316,-8.324 c 0.993,-0.407 1.447,-0.951 1.362,-1.483 l 0.005,-4.768 c 0.062,0.522 -0.394,1.052 -1.367,1.451 l -20.316,8.324 c -1.829,0.75 -4.795,0.75 -6.625,0 L 1.372,15.461 C 0.304,15.023 -0.141,14.427 0.039,13.857 Z"
   id="path14"
   inkscape:connector-curvature="0"
   style="fill:#ba141a" />
	<path
   d="m 0.01,35.63 c -0.085,0.532 0.369,1.076 1.362,1.483 l 20.316,8.324 c 1.829,0.75 4.795,0.75 6.625,0 l 20.316,-8.324 c 0.993,-0.407 1.447,-0.951 1.362,-1.483 l 0.005,-4.768 c 0.062,0.522 -0.394,1.052 -1.367,1.451 l -20.316,8.324 c -1.829,0.75 -4.795,0.75 -6.625,0 L 1.372,32.313 C 0.304,31.875 -0.141,31.279 0.039,30.709 Z"
   id="path16"
   inkscape:connector-curvature="0"
   style="opacity:0.25;fill:#1e1e1e" />
	<path
   d="m 0.01,27.204 c -0.085,0.532 0.369,1.076 1.362,1.483 l 20.316,8.324 c 1.829,0.75 4.795,0.75 6.625,0 l 20.316,-8.324 c 0.993,-0.407 1.447,-0.951 1.362,-1.483 l 0.005,-4.768 c 0.062,0.522 -0.394,1.052 -1.367,1.451 l -20.316,8.324 c -1.829,0.75 -4.795,0.75 -6.625,0 L 1.372,23.887 C 0.304,23.449 -0.141,22.853 0.039,22.283 Z"
   id="path18"
   inkscape:connector-curvature="0"
   style="opacity:0.25;fill:#1e1e1e" />
	<path
   d="m 0.01,18.778 c -0.085,0.532 0.369,1.076 1.362,1.483 l 20.316,8.324 c 1.829,0.75 4.795,0.75 6.625,0 l 20.316,-8.324 c 0.993,-0.407 1.447,-0.951 1.362,-1.483 l 0.005,-4.768 c 0.062,0.522 -0.394,1.052 -1.367,1.451 l -20.316,8.324 c -1.829,0.75 -4.795,0.75 -6.625,0 L 1.372,15.461 C 0.304,15.023 -0.141,14.427 0.039,13.857 Z"
   id="path20"
   inkscape:connector-curvature="0"
   style="opacity:0.25;fill:#1e1e1e" />
	<path
   d="m 48.628,12.747 c 1.829,0.75 1.829,1.965 0,2.714 l -20.316,8.324 c -1.829,0.75 -4.795,0.75 -6.625,0 L 1.372,15.461 c -1.829,-0.75 -1.829,-1.965 0,-2.714 L 21.688,4.423 c 1.829,-0.75 4.795,-0.75 6.625,0 z"
   id="path22"
   inkscape:connector-curvature="0"
   style="fill:#ba141a" />
</g>
<path
   d="m 18.740053,11.8125 c -2.319,1.031 -6.078,1.031 -8.396,0 -2.3179997,-1.031 -2.3189997,-2.703 0,-3.735 2.319,-1.032 6.078,-1.031 8.396,0 2.318,1.031 2.319,2.704 0,3.735 z"
   id="path26"
   inkscape:connector-curvature="0"
   style="fill:#ffffff" />
<polygon
   points="25.877,22.203 17.167,18.329 29.065,16.911 "
   id="polygon28"
   style="fill:#ffffff"
   transform="translate(5.3339518e-5,-3.8605)" />
<polygon
   points="35.81,10.669 42.926,13.834 35.81,16.999 28.695,13.834 "
   id="polygon30"
   style="opacity:0.25;fill:#1e1e1e"
   transform="translate(5.3339518e-5,-3.8605)" />
<polygon
   points="35.81,10.669 35.81,16.999 28.695,13.834 "
   id="polygon32"
   style="opacity:0.25;fill:#1e1e1e"
   transform="translate(5.3339518e-5,-3.8605)" />
<polygon
   points="22.198,8.508 21.661,6.412 25.156,7.837 29.47,6.963 27.504,8.881 30.707,10.436 25.997,10.197 23.662,12.033 22.717,9.966 18.072,9.546 "
   id="polygon34"
   style="fill:#ffffff"
   transform="translate(5.3339518e-5,-3.8605)" />
</svg>