<?xml version="1.0" encoding="UTF-8" standalone="no"?>
<!-- Generator: Adobe Illustrator 18.1.0, SVG Export Plug-In . SVG Version: 6.00 Build 0)  -->

<svg
   xmlns:dc="http://purl.org/dc/elements/1.1/"
   xmlns:cc="http://creativecommons.org/ns#"
   xmlns:rdf="http://www.w3.org/1999/02/22-rdf-syntax-ns#"
   xmlns:svg="http://www.w3.org/2000/svg"
   xmlns="http://www.w3.org/2000/svg"
   xmlns:sodipodi="http://sodipodi.sourceforge.net/DTD/sodipodi-0.dtd"
   xmlns:inkscape="http://www.inkscape.org/namespaces/inkscape"
   version="1.0"
   x="0px"
   y="0px"
   viewBox="0 0 42.903419 35.900002"
   enable-background="new 0 0 152 117.5"
   xml:space="preserve"
   id="svg36"
   sodipodi:docname="AzCloudService.svg"
   width="42.903419"
   height="35.900002"
   inkscape:version="0.92.4 (5da689c313, 2019-01-14)"><metadata
   id="metadata42"><rdf:RDF><cc:Work
       rdf:about=""><dc:format>image/svg+xml</dc:format><dc:type
         rdf:resource="http://purl.org/dc/dcmitype/StillImage" /></cc:Work></rdf:RDF></metadata><defs
   id="defs40" /><sodipodi:namedview
   pagecolor="#ffffff"
   bordercolor="#666666"
   borderopacity="1"
   objecttolerance="10"
   gridtolerance="10"
   guidetolerance="10"
   inkscape:pageopacity="0"
   inkscape:pageshadow="2"
   inkscape:window-width="713"
   inkscape:window-height="543"
   id="namedview38"
   showgrid="false"
   inkscape:zoom="2.0085106"
   inkscape:cx="20.9"
   inkscape:cy="17.55"
   inkscape:window-x="0"
   inkscape:window-y="0"
   inkscape:window-maximized="0"
   inkscape:current-layer="svg36" />
<g
   id="Layer_1"
   transform="translate(-55.1,-40.4)">
	<g
   id="Azure">
	</g>
	<g
   id="BizTalk_Services"
   transform="translate(37.3575,-2500.2)">
	</g>
</g>
<g
   id="paths"
   transform="translate(-55.1,-40.4)">
	<g
   id="Access_control">
	</g>
	<g
   id="Azure_active_directory">
	</g>
	<g
   id="API_Management">
	</g>
	<g
   id="Azure_automation">
	</g>
	<g
   id="Azure_SQL_database">
	</g>
	<g
   id="Azure_subscription">
	</g>
	<g
   id="Backup_service">
	</g>
	<g
   id="Bitbucket_code_source">
	</g>
	<g
   id="Azure_cache">
	</g>
	<g
   id="Content_delivery_network__x28_CDN_x29_">
	</g>
	<g
   id="Cloud_service">
		<g
   id="g32">
			<title
   id="title15">Sheet.36</title>
			<g
   id="shape37-71_1_"
   transform="translate(22.6815,-17.5267)">
				<title
   id="title17">Sheet.37</title>
				<circle
   cx="60"
   cy="72.199997"
   id="ellipse19"
   r="2.0999999"
   style="fill:#0078d7" />
			</g>
			<g
   id="shape38-73_1_"
   transform="translate(13.062,-11.2635)">
				<title
   id="title22">Sheet.38</title>
				<path
   d="m 58.9,70.9 c -1.1,0 -2.1,0.9 -2.1,2.1 0,1.1 0.9,2.1 2.1,2.1 1.1,0 2.1,-0.9 2.1,-2.1 -0.1,-1.2 -1,-2.1 -2.1,-2.1 z"
   id="path24"
   inkscape:connector-curvature="0"
   style="fill:#0078d7" />
			</g>
			<g
   id="shape39-75_1_">
				<title
   id="title27">Sheet.39</title>
				<path
   d="m 89.4,55.4 -1.9,0.6 -0.5,1 0.7,1.5 0.1,0.2 -1,1 -1.7,-0.7 -1,0.4 -0.5,1.6 -0.1,0.2 H 82 l -0.6,-1.8 -1,-0.4 -1.5,0.7 -0.2,0.1 -1,-1 0.8,-1.7 -0.4,-1 -1.3,-0.5 V 55.5 54 l 1.5,-0.6 0.3,-1 -0.8,-1.5 -0.1,-0.2 1,-1 1.7,0.8 1,-0.4 0.5,-1.5 0.1,-0.1 h 1.5 l 0.6,1.7 1,0.3 1.5,-0.8 0.2,-0.1 1,1 -0.8,1.7 0.4,1 1.7,0.5 0.3,0.1 z m -23.9,5.6 1.8,-0.6 0.4,-1 -0.7,-1.5 -0.1,-0.2 1,-1 1.7,0.8 1,-0.4 0.5,-1.4 0.1,-0.1 h 1.5 l 0.6,1.6 1,0.4 1.5,-0.8 0.2,-0.1 1,1 -0.8,1.7 0.4,1 1.4,0.5 0.1,0.1 v 1.5 l -1.6,0.5 -0.4,1 0.8,1.5 0.1,0.2 -1,1 -1.7,-0.7 -1,0.4 -0.5,1.6 -0.1,0.2 h -1.5 l -0.7,-1.8 -1,-0.4 -1.5,0.7 -0.2,0.1 -1,-1 0.8,-1.7 -0.4,-1 -1.6,-0.5 -0.2,-0.1 V 61 Z M 92.6,53.5 91.8,53.2 92,52.4 c 0.2,-0.8 0.3,-1.6 0.3,-2.4 0,-5.3 -4.3,-9.6 -9.6,-9.6 -3.9,0 -7.4,2.3 -8.9,5.9 l -0.6,1.3 -0.9,-1.1 c -1.3,-1.5 -3.1,-2.3 -5,-2.3 -3.6,0 -6.6,2.9 -6.6,6.6 0,0.6 0.1,1.2 0.2,1.8 l 0.2,0.8 -0.8,0.3 c -3.2,1.2 -5.2,3.8 -5.2,7 0,4.2 3.5,7.5 7.9,7.5 h 2 c -0.1,0 -0.1,0.7 -0.1,1.1 0,3.9 3.2,7 7,7 2.8,0 5.4,-1.7 6.5,-4.3 l 0.4,-1 0.7,0.8 c 0.9,1.1 2.3,1.7 3.6,1.7 2.6,0 4.8,-2.2 4.8,-4.8 0,-0.2 0,-0.5 0,-0.5 h 2.2 c 4.4,0 7.9,-3.3 7.9,-7.5 0.1,-3.4 -2,-6.1 -5.4,-7.2 z"
   id="path29"
   inkscape:connector-curvature="0"
   style="fill:#0078d7" />
			</g>
		</g>
	</g>
</g>
</svg>