<?xml version="1.0" encoding="UTF-8" standalone="no"?>
<!-- Generator: Adobe Illustrator 17.0.1, SVG Export Plug-In . SVG Version: 6.00 Build 0)  -->

<svg
   xmlns:dc="http://purl.org/dc/elements/1.1/"
   xmlns:cc="http://creativecommons.org/ns#"
   xmlns:rdf="http://www.w3.org/1999/02/22-rdf-syntax-ns#"
   xmlns:svg="http://www.w3.org/2000/svg"
   xmlns="http://www.w3.org/2000/svg"
   xmlns:sodipodi="http://sodipodi.sourceforge.net/DTD/sodipodi-0.dtd"
   xmlns:inkscape="http://www.inkscape.org/namespaces/inkscape"
   version="1.1"
   id="Layer_1"
   x="0px"
   y="0px"
   width="50"
   height="42.433998"
   viewBox="0 0 50 42.433998"
   enable-background="new 0 0 50 50"
   xml:space="preserve"
   sodipodi:docname="AzCloudServiceColor.svg"
   inkscape:version="0.92.4 (5da689c313, 2019-01-14)"><metadata
   id="metadata17"><rdf:RDF><cc:Work
       rdf:about=""><dc:format>image/svg+xml</dc:format><dc:type
         rdf:resource="http://purl.org/dc/dcmitype/StillImage" /></cc:Work></rdf:RDF></metadata><defs
   id="defs15" /><sodipodi:namedview
   pagecolor="#ffffff"
   bordercolor="#666666"
   borderopacity="1"
   objecttolerance="10"
   gridtolerance="10"
   guidetolerance="10"
   inkscape:pageopacity="0"
   inkscape:pageshadow="2"
   inkscape:window-width="713"
   inkscape:window-height="543"
   id="namedview13"
   showgrid="false"
   inkscape:zoom="4.72"
   inkscape:cx="25"
   inkscape:cy="21.434"
   inkscape:window-x="0"
   inkscape:window-y="0"
   inkscape:window-maximized="0"
   inkscape:current-layer="Layer_1" />
<path
   d="M 43.339,14.659 C 43.534,13.748 43.63,12.88 43.63,12.016 43.63,5.39 38.232,0 31.595,0 c -4.631,0 -8.8,2.622 -10.81,6.736 -1.619,-1.61 -3.809,-2.523 -6.114,-2.523 -4.763,0 -8.638,3.875 -8.638,8.637 0,0.646 0.072,1.298 0.218,1.968 C 2.328,16.416 0,19.731 0,23.763 0,29.2 4.443,33.459 10.113,33.459 h 0.646 c 0.11,4.968 4.18,8.975 9.164,8.975 3.355,0 6.393,-1.809 7.996,-4.681 1.206,1.045 2.748,1.628 4.36,1.628 3.42,0 6.249,-2.591 6.65,-5.922 H 39.89 C 45.56,33.459 50,29.2 50,23.763 50,19.564 47.456,16.109 43.339,14.659"
   id="path2"
   inkscape:connector-curvature="0"
   style="fill:#3e3e3e" />
<path
   d="m 39.437,19.192 0.736,-1.743 -0.213,-0.184 -1.607,-1.396 0.008,-1.411 1.812,-1.62 -0.713,-1.753 -0.279,0.019 -2.125,0.152 -0.992,-1.006 0.135,-2.428 -1.742,-0.735 -0.184,0.212 -1.397,1.609 -1.412,-0.01 -1.621,-1.81 -1.752,0.711 0.02,0.281 0.15,2.125 -1.004,0.99 -2.428,-0.135 -0.736,1.743 0.213,0.184 1.608,1.397 -0.009,1.412 -1.81,1.621 0.711,1.752 0.281,-0.021 2.123,-0.149 0.992,1.005 -0.135,2.426 1.743,0.736 0.184,-0.213 1.396,-1.608 1.412,0.01 1.621,1.812 1.752,-0.712 -0.02,-0.282 -0.15,-2.124 1.006,-0.992 z m -8.809,-0.499 c -1.971,-0.831 -2.894,-3.102 -2.062,-5.071 0.833,-1.972 3.102,-2.894 5.072,-2.063 1.97,0.832 2.893,3.103 2.062,5.073 -0.832,1.97 -3.101,2.893 -5.072,2.061"
   id="path4"
   inkscape:connector-curvature="0"
   style="fill:#ffffff" />
<path
   d="m 28.357,27.948 v -1.893 l -0.266,-0.086 -2.025,-0.663 -0.539,-1.304 1.04,-2.198 -1.336,-1.337 -0.251,0.127 -1.899,0.962 -1.305,-0.541 -0.818,-2.289 -1.891,-0.002 -0.087,0.269 -0.663,2.023 -1.304,0.539 -2.198,-1.039 -1.337,1.337 0.127,0.251 0.962,1.9 -0.54,1.302 -2.29,0.819 -10e-4,1.891 0.267,0.088 2.025,0.661 0.539,1.306 -1.04,2.196 1.336,1.34 0.251,-0.128 1.901,-0.964 1.302,0.541 0.819,2.289 1.891,10e-4 0.087,-0.266 0.663,-2.025 1.305,-0.539 2.196,1.04 1.339,-1.336 -0.127,-0.251 -0.964,-1.899 0.542,-1.305 z m -8.313,2.96 c -2.138,-0.001 -3.869,-1.736 -3.869,-3.874 0.002,-2.139 1.736,-3.87 3.875,-3.869 2.139,0.001 3.871,1.735 3.869,3.874 -0.001,2.138 -1.736,3.87 -3.875,3.869"
   id="path6"
   inkscape:connector-curvature="0"
   style="fill:#ffffff" />
<path
   d="m 34.449,16.103 c -0.539,1.279 -2.014,1.878 -3.293,1.338 -1.279,-0.54 -1.878,-2.014 -1.338,-3.293 0.54,-1.277 2.014,-1.878 3.293,-1.338 1.278,0.54 1.877,2.014 1.338,3.293"
   id="path8"
   inkscape:connector-curvature="0"
   style="fill:#b8d432" />
<path
   d="m 22.561,27.037 c -0.001,1.389 -1.128,2.514 -2.515,2.513 -1.388,-0.001 -2.512,-1.127 -2.511,-2.516 0.001,-1.388 1.127,-2.513 2.513,-2.512 1.389,0.001 2.514,1.127 2.513,2.515"
   id="path10"
   inkscape:connector-curvature="0"
   style="fill:#b8d432" />
</svg>