<?xml version="1.0" encoding="UTF-8" standalone="no"?>
<!-- Generator: Adobe Illustrator 18.1.0, SVG Export Plug-In . SVG Version: 6.00 Build 0)  -->

<svg
   xmlns:dc="http://purl.org/dc/elements/1.1/"
   xmlns:cc="http://creativecommons.org/ns#"
   xmlns:rdf="http://www.w3.org/1999/02/22-rdf-syntax-ns#"
   xmlns:svg="http://www.w3.org/2000/svg"
   xmlns="http://www.w3.org/2000/svg"
   xmlns:sodipodi="http://sodipodi.sourceforge.net/DTD/sodipodi-0.dtd"
   xmlns:inkscape="http://www.inkscape.org/namespaces/inkscape"
   version="1.0"
   x="0px"
   y="0px"
   viewBox="0 0 43.799999 36.5"
   enable-background="new 0 0 152 117.5"
   xml:space="preserve"
   id="svg107"
   sodipodi:docname="AzCloudServicesWebroles.svg"
   width="43.799999"
   height="36.5"
   inkscape:version="0.92.4 (5da689c313, 2019-01-14)"><metadata
   id="metadata113"><rdf:RDF><cc:Work
       rdf:about=""><dc:format>image/svg+xml</dc:format><dc:type
         rdf:resource="http://purl.org/dc/dcmitype/StillImage" /></cc:Work></rdf:RDF></metadata><defs
   id="defs111" /><sodipodi:namedview
   pagecolor="#ffffff"
   bordercolor="#666666"
   borderopacity="1"
   objecttolerance="10"
   gridtolerance="10"
   guidetolerance="10"
   inkscape:pageopacity="0"
   inkscape:pageshadow="2"
   inkscape:window-width="713"
   inkscape:window-height="543"
   id="namedview109"
   showgrid="false"
   inkscape:zoom="2.0085106"
   inkscape:cx="21.9"
   inkscape:cy="18.35"
   inkscape:window-x="0"
   inkscape:window-y="0"
   inkscape:window-maximized="0"
   inkscape:current-layer="svg107" />
<g
   id="Layer_1"
   transform="translate(-54.1,-40.6)">
	<g
   id="Azure">
	</g>
	<g
   id="BizTalk_Services"
   transform="translate(37.3575,-2500.2)">
	</g>
	<g
   id="Key_Vault">
	</g>
	<g
   id="Mobile_Engagement">
	</g>
	<g
   id="Office_subscription">
		<g
   id="Office_subscription_1_">
		</g>
	</g>
</g>
<g
   id="paths"
   transform="translate(-54.1,-40.6)">
	<g
   id="Access_control">
	</g>
	<g
   id="Azure_active_directory">
	</g>
	<g
   id="API_Management">
	</g>
	<g
   id="Azure_automation">
	</g>
	<g
   id="Azure_SQL_database">
	</g>
	<g
   id="Azure_subscription">
	</g>
	<g
   id="Backup_service">
	</g>
	<g
   id="Bitbucket_code_source">
	</g>
	<g
   id="Azure_cache">
	</g>
	<g
   id="Content_delivery_network__x28_CDN_x29_">
	</g>
	<g
   id="Cloud_service">
	</g>
	<g
   id="CodePlex">
	</g>
	<g
   id="Dropbox_code_source">
	</g>
	<g
   id="Express_route">
	</g>
	<g
   id="Git_repository">
	</g>
	<g
   id="GitHub_code">
	</g>
	<g
   id="HD_Insight">
	</g>
	<g
   id="Health_monitoring">
	</g>
	<g
   id="Healthy">
	</g>
	<g
   id="BizTalk_hybrid_connection">
	</g>
	<g
   id="Hybrid_connection_manager_for_BizTalk_hybrid_connection">
	</g>
	<g
   id="Hyper-V_recovery_manager">
	</g>
	<g
   id="Machine_learning">
	</g>
	<g
   id="Media_services">
	</g>
	<g
   id="Microsoft_account">
	</g>
	<g
   id="Mobile_services">
	</g>
	<g
   id="Multi-factor_authentication">
	</g>
	<g
   id="MySQL_database">
	</g>
	<g
   id="Notification_hub">
	</g>
	<g
   id="Notification_topic">
	</g>
	<g
   id="Cloud_Office_365">
	</g>
	<g
   id="Office_365">
	</g>
	<g
   id="OS_image">
	</g>
	<g
   id="Remote_app">
	</g>
	<g
   id="Task_scheduler">
	</g>
	<g
   id="Azure_SDK">
	</g>
	<g
   id="Service_bus">
	</g>
	<g
   id="Service_bus_queue">
	</g>
	<g
   id="Service_bus_relay">
	</g>
	<g
   id="Service_bus_topic">
	</g>
	<g
   id="Service_endpoint">
	</g>
	<g
   id="Custom_create">
	</g>
	<g
   id="SQL_data_sync">
	</g>
	<g
   id="SQL_reporting">
	</g>
	<g
   id="Startup_task">
	</g>
	<g
   id="Windows_Azure_storage">
	</g>
	<g
   id="Storage_blob">
	</g>
	<g
   id="Storage_table">
	</g>
	<g
   id="Storage_queue">
	</g>
	<g
   id="StorSimple">
	</g>
	<g
   id="Traffic_manager">
	</g>
	<g
   id="VHD">
	</g>
	<g
   id="VHD_data_disk">
	</g>
	<g
   id="Virtual_machine">
	</g>
	<g
   id="Team_foundation">
	</g>
	<g
   id="Azure_web_site">
	</g>
	<g
   id="Web_role">
	</g>
	<g
   id="Web_roles">
		<g
   id="g100">
			<path
   d="m 79.6,55.4 c -0.1,-1.7 -0.4,-3.3 -1.1,-4.7 -1.4,0.6 -3,0.9 -4.6,1 v 3.7 z"
   id="path66"
   inkscape:connector-curvature="0"
   style="fill:#0078d7" />
			<path
   d="m 78.1,49.9 c -1,-1.8 -2.5,-3 -4.2,-3.2 v 4.1 c 1.6,0 3,-0.3 4.2,-0.9 z"
   id="path68"
   inkscape:connector-curvature="0"
   style="fill:#0078d7" />
			<path
   d="m 79.9,48.9 c -0.7,-0.7 -1.5,-1.2 -2.3,-1.6 0.6,0.6 1.1,1.3 1.6,2.1 0.3,-0.2 0.5,-0.3 0.7,-0.5 z"
   id="path70"
   inkscape:connector-curvature="0"
   style="fill:#0078d7" />
			<path
   d="m 78.1,62 c -1.2,-0.5 -2.7,-0.8 -4.2,-0.9 v 4.1 C 75.6,65 77.1,63.8 78.1,62 Z"
   id="path72"
   inkscape:connector-curvature="0"
   style="fill:#0078d7" />
			<path
   d="m 73.9,60.1 c 1.7,0.1 3.3,0.4 4.6,1 0.6,-1.3 1,-2.9 1.1,-4.6 h -5.7 z"
   id="path74"
   inkscape:connector-curvature="0"
   style="fill:#0078d7" />
			<path
   d="m 80.6,49.6 c -0.3,0.2 -0.6,0.4 -0.9,0.6 0.7,1.5 1.1,3.3 1.2,5.2 H 83 c -0.1,-2.1 -0.9,-4.2 -2.4,-5.8 z"
   id="path76"
   inkscape:connector-curvature="0"
   style="fill:#0078d7" />
			<path
   d="m 77.6,64.6 c 0.8,-0.4 1.6,-0.9 2.3,-1.6 -0.2,-0.2 -0.5,-0.3 -0.7,-0.5 -0.4,0.8 -1,1.5 -1.6,2.1 z"
   id="path78"
   inkscape:connector-curvature="0"
   style="fill:#0078d7" />
			<path
   d="m 79.6,61.7 c 0.3,0.2 0.6,0.4 0.9,0.6 1.5,-1.7 2.2,-3.7 2.4,-5.8 h -2.1 c -0.1,1.9 -0.5,3.7 -1.2,5.2 z"
   id="path80"
   inkscape:connector-curvature="0"
   style="fill:#0078d7" />
			<path
   d="m 66.1,62.3 c 0.3,-0.2 0.6,-0.4 0.9,-0.6 -0.7,-1.5 -1.1,-3.3 -1.2,-5.2 h -2.1 c 0.2,2.1 1,4.1 2.4,5.8 z"
   id="path82"
   inkscape:connector-curvature="0"
   style="fill:#0078d7" />
			<path
   d="m 67.1,50.2 c -0.3,-0.2 -0.7,-0.4 -0.9,-0.6 -1.5,1.7 -2.3,3.7 -2.4,5.9 h 2.1 c 0,-2 0.5,-3.8 1.2,-5.3 z"
   id="path84"
   inkscape:connector-curvature="0"
   style="fill:#0078d7" />
			<path
   d="m 68.5,49.9 c 1.2,0.5 2.7,0.8 4.2,0.9 v -4.1 c -1.6,0.2 -3.1,1.4 -4.2,3.2 z"
   id="path86"
   inkscape:connector-curvature="0"
   style="fill:#0078d7" />
			<path
   d="m 69.1,47.3 c -0.8,0.4 -1.6,0.9 -2.3,1.6 0.2,0.2 0.5,0.3 0.7,0.5 0.4,-0.8 1,-1.5 1.6,-2.1 z"
   id="path88"
   inkscape:connector-curvature="0"
   style="fill:#0078d7" />
			<path
   d="m 95.9,44.8 h -0.3 c 0,-1.3 -0.9,-2.3 -2,-2.3 H 93.3 93 c 0,-0.7 -0.3,-1.3 -0.8,-1.6 0,0 0,0 -0.1,0 -0.1,-0.1 -0.1,-0.1 -0.2,-0.1 0,0 -0.1,0 -0.1,-0.1 -0.1,0 -0.1,0 -0.2,-0.1 -0.1,0 -0.2,0 -0.3,0 H 55.8 c -0.9,0 -1.7,0.9 -1.7,2 v 27.6 c 0,1.1 0.8,2 1.7,2 H 56 v 0.3 c 0,0 0,0 0,0 0,1.3 0.9,2.3 2,2.3 h 0.3 c 0,1.3 0.9,2.3 2,2.3 h 35.6 c 1.1,0 2,-1 2,-2.3 V 47.1 c 0,-1.3 -0.9,-2.3 -2,-2.3 z m -30.4,3.3 c 2.2,-2.2 5,-3.3 7.9,-3.3 2.8,0 5.7,1.1 7.9,3.3 2.1,2.1 3.3,5 3.3,7.8 0,2.9 -1.1,5.8 -3.3,7.9 -2.3,2.2 -5.1,3.2 -8,3.2 -2.8,0 -5.7,-1.1 -7.9,-3.3 -2.2,-2.2 -3.3,-5 -3.3,-7.9 0.1,-2.7 1.2,-5.6 3.4,-7.7 z m -6.9,26 H 58.3 58 c -0.8,0 -1.4,-0.7 -1.4,-1.7 0,0 0,0 0,0 v -0.3 h 1.7 0.3 0.3 32.4 c 0.9,0 1.7,-0.9 1.7,-2 V 45.4 45.1 44.8 43.1 h 0.3 0.3 c 0.8,0 1.4,0.7 1.4,1.7 v 0 0.3 0.3 27 c 0,0.9 -0.6,1.7 -1.4,1.7 H 58.9 Z m 38.7,0.6 c 0,0.9 -0.6,1.7 -1.4,1.7 H 60.4 C 59.6,76.4 59,75.7 59,74.7 h 34.7 c 1.1,0 2,-1 2,-2.3 v -27 H 96 c 0.8,0 1.4,0.8 1.4,1.7 v 27.6 z"
   id="path90"
   inkscape:connector-curvature="0"
   style="fill:#0078d7" />
			<path
   d="m 67.1,56.5 c 0.1,1.7 0.4,3.3 1.1,4.6 1.4,-0.6 3,-0.9 4.7,-1 v -3.6 z"
   id="path92"
   inkscape:connector-curvature="0"
   style="fill:#0078d7" />
			<path
   d="m 68.5,61.9 c 1,1.8 2.5,3 4.2,3.2 V 61 c -1.5,0.1 -2.9,0.4 -4.2,0.9 z"
   id="path94"
   inkscape:connector-curvature="0"
   style="fill:#0078d7" />
			<path
   d="m 72.8,51.7 c -1.7,-0.1 -3.3,-0.4 -4.7,-1 -0.6,1.4 -1,3 -1.1,4.7 h 5.7 v -3.7 z"
   id="path96"
   inkscape:connector-curvature="0"
   style="fill:#0078d7" />
			<path
   d="m 66.8,63 c 0.7,0.7 1.5,1.2 2.3,1.6 C 68.5,64 68,63.3 67.5,62.5 67.2,62.6 67,62.8 66.8,63 Z"
   id="path98"
   inkscape:connector-curvature="0"
   style="fill:#0078d7" />
		</g>
	</g>
</g>
<g
   id="Layer_57"
   transform="translate(-54.1,-40.6)">
</g>
<g
   id="Ibiza_Symbols"
   transform="translate(-54.1,-40.6)">
	<g
   id="SQL_Database_Premium">
	</g>
</g>
</svg>