<?xml version="1.0" encoding="UTF-8" standalone="no"?>
<!-- Generator: Adobe Illustrator 18.1.0, SVG Export Plug-In . SVG Version: 6.00 Build 0)  -->

<svg
   xmlns:dc="http://purl.org/dc/elements/1.1/"
   xmlns:cc="http://creativecommons.org/ns#"
   xmlns:rdf="http://www.w3.org/1999/02/22-rdf-syntax-ns#"
   xmlns:svg="http://www.w3.org/2000/svg"
   xmlns="http://www.w3.org/2000/svg"
   xmlns:sodipodi="http://sodipodi.sourceforge.net/DTD/sodipodi-0.dtd"
   xmlns:inkscape="http://www.inkscape.org/namespaces/inkscape"
   version="1.0"
   x="0px"
   y="0px"
   viewBox="0 0 43.906914 36.5"
   enable-background="new 0 0 152 117.5"
   xml:space="preserve"
   id="svg84"
   sodipodi:docname="AzCloudServicesWorkerroles.svg"
   width="43.906914"
   height="36.5"
   inkscape:version="0.92.4 (5da689c313, 2019-01-14)"><metadata
   id="metadata90"><rdf:RDF><cc:Work
       rdf:about=""><dc:format>image/svg+xml</dc:format><dc:type
         rdf:resource="http://purl.org/dc/dcmitype/StillImage" /></cc:Work></rdf:RDF></metadata><defs
   id="defs88" /><sodipodi:namedview
   pagecolor="#ffffff"
   bordercolor="#666666"
   borderopacity="1"
   objecttolerance="10"
   gridtolerance="10"
   guidetolerance="10"
   inkscape:pageopacity="0"
   inkscape:pageshadow="2"
   inkscape:window-width="713"
   inkscape:window-height="543"
   id="namedview86"
   showgrid="false"
   inkscape:zoom="2.0085106"
   inkscape:cx="19.17"
   inkscape:cy="22"
   inkscape:window-x="0"
   inkscape:window-y="0"
   inkscape:window-maximized="0"
   inkscape:current-layer="svg84" />
<g
   id="Layer_1"
   transform="translate(-56.83,-44.25)">
	<g
   id="Azure">
	</g>
	<g
   id="BizTalk_Services"
   transform="translate(37.3575,-2500.2)">
	</g>
	<g
   id="Key_Vault">
	</g>
	<g
   id="Mobile_Engagement">
	</g>
	<g
   id="Office_subscription">
		<g
   id="Office_subscription_1_">
		</g>
	</g>
</g>
<g
   id="paths"
   transform="translate(-56.83,-44.25)">
	<g
   id="Access_control">
	</g>
	<g
   id="Azure_active_directory">
	</g>
	<g
   id="API_Management">
	</g>
	<g
   id="Azure_automation">
	</g>
	<g
   id="Azure_SQL_database">
	</g>
	<g
   id="Azure_subscription">
	</g>
	<g
   id="Backup_service">
	</g>
	<g
   id="Bitbucket_code_source">
	</g>
	<g
   id="Azure_cache">
	</g>
	<g
   id="Content_delivery_network__x28_CDN_x29_">
	</g>
	<g
   id="Cloud_service">
	</g>
	<g
   id="CodePlex">
	</g>
	<g
   id="Dropbox_code_source">
	</g>
	<g
   id="Express_route">
	</g>
	<g
   id="Git_repository">
	</g>
	<g
   id="GitHub_code">
	</g>
	<g
   id="HD_Insight">
	</g>
	<g
   id="Health_monitoring">
	</g>
	<g
   id="Healthy">
	</g>
	<g
   id="BizTalk_hybrid_connection">
	</g>
	<g
   id="Hybrid_connection_manager_for_BizTalk_hybrid_connection">
	</g>
	<g
   id="Hyper-V_recovery_manager">
	</g>
	<g
   id="Machine_learning">
	</g>
	<g
   id="Media_services">
	</g>
	<g
   id="Microsoft_account">
	</g>
	<g
   id="Mobile_services">
	</g>
	<g
   id="Multi-factor_authentication">
	</g>
	<g
   id="MySQL_database">
	</g>
	<g
   id="Notification_hub">
	</g>
	<g
   id="Notification_topic">
	</g>
	<g
   id="Cloud_Office_365">
	</g>
	<g
   id="Office_365">
	</g>
	<g
   id="OS_image">
	</g>
	<g
   id="Remote_app">
	</g>
	<g
   id="Task_scheduler">
	</g>
	<g
   id="Azure_SDK">
	</g>
	<g
   id="Service_bus">
	</g>
	<g
   id="Service_bus_queue">
	</g>
	<g
   id="Service_bus_relay">
	</g>
	<g
   id="Service_bus_topic">
	</g>
	<g
   id="Service_endpoint">
	</g>
	<g
   id="Custom_create">
	</g>
	<g
   id="SQL_data_sync">
	</g>
	<g
   id="SQL_reporting">
	</g>
	<g
   id="Startup_task">
	</g>
	<g
   id="Windows_Azure_storage">
	</g>
	<g
   id="Storage_blob">
	</g>
	<g
   id="Storage_table">
	</g>
	<g
   id="Storage_queue">
	</g>
	<g
   id="StorSimple">
	</g>
	<g
   id="Traffic_manager">
	</g>
	<g
   id="VHD">
	</g>
	<g
   id="VHD_data_disk">
	</g>
	<g
   id="Virtual_machine">
	</g>
	<g
   id="Team_foundation">
	</g>
	<g
   id="Azure_web_site">
	</g>
	<g
   id="Web_role">
	</g>
	<g
   id="Web_roles">
	</g>
	<g
   id="Worker_role">
	</g>
	<g
   id="Worker_roles">
		<g
   id="group376-785_3_"
   transform="translate(1232.63,-2875.15)">
			<g
   id="shape377-786_3_"
   transform="translate(13.3508,-15.1792)">
				<title
   id="title68">Sheet.377</title>
				<path
   d="m -1167.4,2953.8 c 2.3,-1.2 3.3,-4.1 2.1,-6.4 -1.2,-2.3 -4.1,-3.2 -6.4,-2.1 -2.3,1.2 -3.3,4.1 -2.1,6.4 1.2,2.4 4.1,3.3 6.4,2.1 z m -3,-5.7 c 0.9,-0.4 1.9,-0.1 2.4,0.8 0.4,0.9 0.1,1.9 -0.8,2.3 -0.9,0.4 -1.9,0.1 -2.3,-0.8 -0.5,-0.8 -0.1,-1.9 0.7,-2.3 z"
   id="path70"
   inkscape:connector-curvature="0"
   style="fill:#0078d7" />
			</g>
			<g
   id="shape378-788_3_">
				<title
   id="title73">Sheet.378</title>
				<path
   d="m -1133.9,2923.7 h -0.3 c 0,-1.3 -0.9,-2.3 -2,-2.3 h -0.3 -0.3 c 0,-1.1 -0.8,-2 -1.7,-2 h -35.6 c -0.9,0 -1.7,0.9 -1.7,2 v 27.6 c 0,1.1 0.8,2 1.7,2 h 0.3 v 0.3 0 c 0,1.3 0.9,2.3 2,2.3 h 0.3 c 0,1.3 0.9,2.3 2,2.3 h 35.6 c 1.1,0 2,-1 2,-2.3 V 2926 c 0.1,-1.3 -0.9,-2.3 -2,-2.3 z m -32,7.1 1.8,-2.9 2.5,1 c 0.4,-0.3 0.8,-0.7 1.2,-0.9 l -0.4,-2.8 3.3,-0.9 1.1,2.5 c 0.6,0 1.3,0.1 1.9,0.2 l 1.8,-2.2 2.9,1.8 -1.1,2.6 c 0.4,0.4 0.7,0.8 1,1.3 l 2.9,-0.3 0.8,3.3 -2.6,1.1 c 0,0.6 -0.1,1.1 -0.2,1.7 l 2.2,1.8 -1.8,2.9 -2.5,-1 c -0.4,0.4 -0.9,0.8 -1.4,1.1 l 0.3,2.8 -3.3,0.8 -1,-2.5 c -0.6,0 -1.2,-0.1 -1.8,-0.2 l -1.7,2.2 -2.9,-1.8 1,-2.4 c -0.4,-0.4 -0.8,-0.9 -1.1,-1.5 l -2.7,0.3 -0.8,-3.3 2.4,-1 c 0,-0.6 0.1,-1.2 0.3,-1.8 z m -5.3,22.2 h -0.3 -0.3 c -0.8,0 -1.4,-0.7 -1.4,-1.7 v 0 -0.3 h 1.7 0.3 0.3 32.4 c 0.9,0 1.7,-0.9 1.7,-2 v -24.7 -0.3 -0.3 -1.7 h 0.3 0.3 c 0.8,0 1.4,0.7 1.4,1.7 v 0 0.3 0.3 27 c 0,0.9 -0.6,1.7 -1.4,1.7 h -34.7 z m 38.7,0.6 c 0,0.9 -0.6,1.7 -1.4,1.7 h -35.6 c -0.8,0 -1.4,-0.7 -1.4,-1.7 h 34.7 c 1.1,0 2,-1 2,-2.3 v -27 h 0.3 c 0.8,0 1.4,0.8 1.4,1.7 z"
   id="path75"
   inkscape:connector-curvature="0"
   style="fill:#0078d7" />
			</g>
		</g>
	</g>
</g>
<g
   id="Layer_57"
   transform="translate(-56.83,-44.25)">
</g>
<g
   id="Ibiza_Symbols"
   transform="translate(-56.83,-44.25)">
	<g
   id="SQL_Database_Premium">
	</g>
</g>
</svg>