<?xml version="1.0" encoding="UTF-8" standalone="no"?>
<!-- Generator: Adobe Illustrator 18.1.0, SVG Export Plug-In . SVG Version: 6.00 Build 0)  -->

<svg
   xmlns:dc="http://purl.org/dc/elements/1.1/"
   xmlns:cc="http://creativecommons.org/ns#"
   xmlns:rdf="http://www.w3.org/1999/02/22-rdf-syntax-ns#"
   xmlns:svg="http://www.w3.org/2000/svg"
   xmlns="http://www.w3.org/2000/svg"
   xmlns:sodipodi="http://sodipodi.sourceforge.net/DTD/sodipodi-0.dtd"
   xmlns:inkscape="http://www.inkscape.org/namespaces/inkscape"
   version="1.0"
   x="0px"
   y="0px"
   viewBox="0 0 42.707615 34.599998"
   enable-background="new 0 0 152 117.5"
   xml:space="preserve"
   id="svg106"
   sodipodi:docname="AzCloudServicesWebrole.svg"
   width="42.707615"
   height="34.599998"
   inkscape:version="0.92.4 (5da689c313, 2019-01-14)"><metadata
   id="metadata112"><rdf:RDF><cc:Work
       rdf:about=""><dc:format>image/svg+xml</dc:format><dc:type
         rdf:resource="http://purl.org/dc/dcmitype/StillImage" /></cc:Work></rdf:RDF></metadata><defs
   id="defs110" /><sodipodi:namedview
   pagecolor="#ffffff"
   bordercolor="#666666"
   borderopacity="1"
   objecttolerance="10"
   gridtolerance="10"
   guidetolerance="10"
   inkscape:pageopacity="0"
   inkscape:pageshadow="2"
   inkscape:window-width="713"
   inkscape:window-height="543"
   id="namedview108"
   showgrid="false"
   inkscape:zoom="2.0085106"
   inkscape:cx="25.7"
   inkscape:cy="13.75"
   inkscape:window-x="0"
   inkscape:window-y="0"
   inkscape:window-maximized="0"
   inkscape:current-layer="svg106" />
<g
   id="Layer_1"
   transform="translate(-50.3,-37.9)">
	<g
   id="Azure">
	</g>
	<g
   id="BizTalk_Services"
   transform="translate(37.3575,-2500.2)">
	</g>
	<g
   id="Key_Vault">
	</g>
	<g
   id="Mobile_Engagement">
	</g>
	<g
   id="Office_subscription">
		<g
   id="Office_subscription_1_">
		</g>
	</g>
</g>
<g
   id="paths"
   transform="translate(-50.3,-37.9)">
	<g
   id="Access_control">
	</g>
	<g
   id="Azure_active_directory">
	</g>
	<g
   id="API_Management">
	</g>
	<g
   id="Azure_automation">
	</g>
	<g
   id="Azure_SQL_database">
	</g>
	<g
   id="Azure_subscription">
	</g>
	<g
   id="Backup_service">
	</g>
	<g
   id="Bitbucket_code_source">
	</g>
	<g
   id="Azure_cache">
	</g>
	<g
   id="Content_delivery_network__x28_CDN_x29_">
	</g>
	<g
   id="Cloud_service">
	</g>
	<g
   id="CodePlex">
	</g>
	<g
   id="Dropbox_code_source">
	</g>
	<g
   id="Express_route">
	</g>
	<g
   id="Git_repository">
	</g>
	<g
   id="GitHub_code">
	</g>
	<g
   id="HD_Insight">
	</g>
	<g
   id="Health_monitoring">
	</g>
	<g
   id="Healthy">
	</g>
	<g
   id="BizTalk_hybrid_connection">
	</g>
	<g
   id="Hybrid_connection_manager_for_BizTalk_hybrid_connection">
	</g>
	<g
   id="Hyper-V_recovery_manager">
	</g>
	<g
   id="Machine_learning">
	</g>
	<g
   id="Media_services">
	</g>
	<g
   id="Microsoft_account">
	</g>
	<g
   id="Mobile_services">
	</g>
	<g
   id="Multi-factor_authentication">
	</g>
	<g
   id="MySQL_database">
	</g>
	<g
   id="Notification_hub">
	</g>
	<g
   id="Notification_topic">
	</g>
	<g
   id="Cloud_Office_365">
	</g>
	<g
   id="Office_365">
	</g>
	<g
   id="OS_image">
	</g>
	<g
   id="Remote_app">
	</g>
	<g
   id="Task_scheduler">
	</g>
	<g
   id="Azure_SDK">
	</g>
	<g
   id="Service_bus">
	</g>
	<g
   id="Service_bus_queue">
	</g>
	<g
   id="Service_bus_relay">
	</g>
	<g
   id="Service_bus_topic">
	</g>
	<g
   id="Service_endpoint">
	</g>
	<g
   id="Custom_create">
	</g>
	<g
   id="SQL_data_sync">
	</g>
	<g
   id="SQL_reporting">
	</g>
	<g
   id="Startup_task">
	</g>
	<g
   id="Windows_Azure_storage">
	</g>
	<g
   id="Storage_blob">
	</g>
	<g
   id="Storage_table">
	</g>
	<g
   id="Storage_queue">
	</g>
	<g
   id="StorSimple">
	</g>
	<g
   id="Traffic_manager">
	</g>
	<g
   id="VHD">
	</g>
	<g
   id="VHD_data_disk">
	</g>
	<g
   id="Virtual_machine">
	</g>
	<g
   id="Team_foundation">
	</g>
	<g
   id="Azure_web_site">
	</g>
	<g
   id="Web_role">
		<g
   id="g99">
			<path
   d="m 66.2,61.3 c 1.1,2 2.8,3.3 4.6,3.5 v -4.5 c -1.6,0.1 -3.2,0.5 -4.6,1 z"
   id="path65"
   inkscape:connector-curvature="0"
   style="fill:#0078d7" />
			<path
   d="m 78.7,47.1 c -0.8,-0.7 -1.6,-1.3 -2.5,-1.8 0.7,0.6 1.2,1.4 1.8,2.3 0.2,-0.2 0.4,-0.3 0.7,-0.5 z"
   id="path67"
   inkscape:connector-curvature="0"
   style="fill:#0078d7" />
			<path
   d="m 66.2,48.2 c 1.4,0.6 2.9,0.9 4.6,1 v -4.5 c -1.8,0.2 -3.4,1.5 -4.6,3.5 z"
   id="path69"
   inkscape:connector-curvature="0"
   style="fill:#0078d7" />
			<path
   d="m 65.8,49 c -0.7,1.5 -1.1,3.2 -1.2,5.1 h 6.2 v -4 c -1.8,0 -3.6,-0.4 -5,-1.1 z"
   id="path71"
   inkscape:connector-curvature="0"
   style="fill:#0078d7" />
			<path
   d="m 64.6,55.3 c 0.1,1.9 0.5,3.7 1.2,5.2 1.5,-0.6 3.2,-1 5.1,-1.1 v -4.1 z"
   id="path73"
   inkscape:connector-curvature="0"
   style="fill:#0078d7" />
			<path
   d="m 64.3,62.5 c 0.8,0.7 1.6,1.3 2.5,1.8 -0.7,-0.6 -1.3,-1.4 -1.8,-2.3 -0.2,0.1 -0.5,0.3 -0.7,0.5 z"
   id="path75"
   inkscape:connector-curvature="0"
   style="fill:#0078d7" />
			<path
   d="m 66.8,45.3 c -0.9,0.4 -1.8,1 -2.5,1.8 0.2,0.2 0.5,0.4 0.8,0.5 0.5,-0.9 1,-1.7 1.7,-2.3 z"
   id="path77"
   inkscape:connector-curvature="0"
   style="fill:#0078d7" />
			<path
   d="m 64.6,48.5 c -0.4,-0.2 -0.7,-0.4 -1,-0.7 -1.6,1.8 -2.5,4.1 -2.6,6.4 h 2.3 c 0.1,-2.1 0.5,-4.1 1.3,-5.7 z"
   id="path79"
   inkscape:connector-curvature="0"
   style="fill:#0078d7" />
			<path
   d="M 63.3,55.3 H 61 c 0.1,2.3 1,4.6 2.6,6.4 0.3,-0.2 0.7,-0.5 1,-0.7 -0.8,-1.6 -1.2,-3.6 -1.3,-5.7 z"
   id="path81"
   inkscape:connector-curvature="0"
   style="fill:#0078d7" />
			<path
   d="m 77.2,60.5 c 0.7,-1.5 1.1,-3.3 1.2,-5.2 h -6.3 v 4.1 c 1.8,0 3.6,0.4 5.1,1.1 z"
   id="path83"
   inkscape:connector-curvature="0"
   style="fill:#0078d7" />
			<path
   d="m 78.4,61 c 0.4,0.2 0.7,0.4 1,0.7 1.6,-1.8 2.5,-4.1 2.6,-6.4 h -2.3 c -0.1,2.1 -0.6,4.1 -1.3,5.7 z"
   id="path85"
   inkscape:connector-curvature="0"
   style="fill:#0078d7" />
			<path
   d="m 78.4,48.5 c 0.8,1.7 1.2,3.6 1.3,5.7 H 82 c -0.1,-2.3 -1,-4.5 -2.6,-6.4 -0.3,0.2 -0.7,0.5 -1,0.7 z"
   id="path87"
   inkscape:connector-curvature="0"
   style="fill:#0078d7" />
			<path
   d="m 76.7,48.2 c -1.1,-2 -2.8,-3.3 -4.6,-3.5 v 4.5 c 1.7,-0.1 3.3,-0.4 4.6,-1 z"
   id="path89"
   inkscape:connector-curvature="0"
   style="fill:#0078d7" />
			<path
   d="m 91.2,37.9 h -39 c -1,0 -1.9,1 -1.9,2.2 v 30.2 c 0,1.2 0.8,2.2 1.9,2.2 h 38.9 c 1,0 1.9,-1 1.9,-2.2 V 40 c 0.1,-1.2 -0.8,-2.1 -1.8,-2.1 z M 80.1,63.4 c -2.4,2.4 -5.5,3.6 -8.6,3.6 -3.1,0 -6.2,-1.2 -8.6,-3.6 -2.4,-2.4 -3.6,-5.5 -3.6,-8.6 0,-3.1 1.2,-6.2 3.6,-8.6 2.4,-2.4 5.5,-3.6 8.6,-3.6 3.1,0 6.2,1.2 8.6,3.6 2.4,2.3 3.6,5.4 3.6,8.5 -0.1,3.1 -1.2,6.3 -3.6,8.7 z"
   id="path91"
   inkscape:connector-curvature="0"
   style="fill:#0078d7" />
			<path
   d="m 78.3,54.2 c -0.1,-1.9 -0.5,-3.6 -1.2,-5.1 -1.5,0.7 -3.3,1 -5.1,1.1 v 4 z"
   id="path93"
   inkscape:connector-curvature="0"
   style="fill:#0078d7" />
			<path
   d="m 76.7,61.3 c -1.4,-0.6 -3,-0.9 -4.6,-1 v 4.5 c 1.8,-0.2 3.5,-1.5 4.6,-3.5 z"
   id="path95"
   inkscape:connector-curvature="0"
   style="fill:#0078d7" />
			<path
   d="m 76.1,64.2 c 0.9,-0.4 1.8,-1 2.5,-1.8 -0.3,-0.2 -0.5,-0.4 -0.8,-0.5 -0.4,0.9 -1,1.7 -1.7,2.3 z"
   id="path97"
   inkscape:connector-curvature="0"
   style="fill:#0078d7" />
		</g>
	</g>
</g>
<g
   id="Layer_57"
   transform="translate(-50.3,-37.9)">
</g>
<g
   id="Ibiza_Symbols"
   transform="translate(-50.3,-37.9)">
	<g
   id="SQL_Database_Premium">
	</g>
</g>
</svg>