<?xml version="1.0" encoding="UTF-8" standalone="no"?>
<!-- Generator: Adobe Illustrator 19.1.0, SVG Export Plug-In . SVG Version: 6.00 Build 0)  -->

<svg
   xmlns:dc="http://purl.org/dc/elements/1.1/"
   xmlns:cc="http://creativecommons.org/ns#"
   xmlns:rdf="http://www.w3.org/1999/02/22-rdf-syntax-ns#"
   xmlns:svg="http://www.w3.org/2000/svg"
   xmlns="http://www.w3.org/2000/svg"
   xmlns:sodipodi="http://sodipodi.sourceforge.net/DTD/sodipodi-0.dtd"
   xmlns:inkscape="http://www.inkscape.org/namespaces/inkscape"
   version="1.1"
   id="Layer_1"
   x="0px"
   y="0px"
   width="50"
   height="50"
   viewBox="0 0 50 50"
   enable-background="new 0 0 50 50"
   xml:space="preserve"
   sodipodi:docname="AzCognativeServicesWebLanguageModelColor.svg"
   inkscape:version="0.92.4 (5da689c313, 2019-01-14)"><metadata
   id="metadata17"><rdf:RDF><cc:Work
       rdf:about=""><dc:format>image/svg+xml</dc:format><dc:type
         rdf:resource="http://purl.org/dc/dcmitype/StillImage" /></cc:Work></rdf:RDF></metadata><defs
   id="defs15" /><sodipodi:namedview
   pagecolor="#ffffff"
   bordercolor="#666666"
   borderopacity="1"
   objecttolerance="10"
   gridtolerance="10"
   guidetolerance="10"
   inkscape:pageopacity="0"
   inkscape:pageshadow="2"
   inkscape:window-width="713"
   inkscape:window-height="543"
   id="namedview13"
   showgrid="false"
   inkscape:zoom="4.72"
   inkscape:cx="25"
   inkscape:cy="25"
   inkscape:window-x="0"
   inkscape:window-y="0"
   inkscape:window-maximized="0"
   inkscape:current-layer="Layer_1" />
<rect
   x="0"
   y="0"
   width="50"
   height="50"
   id="rect2"
   style="fill:#009480" />
<path
   d="m 37.488,21.047 c 0,-6.256 -5.07,-11.349 -11.349,-11.349 -6.279,0 -11.349,5.07 -11.349,11.349 0,4.651 2.791,8.628 6.767,10.395 -0.372,0.628 -1.279,1.488 -2.186,2.047 -1.744,1.116 -3.814,1.698 -5.721,2.535 -0.326,0.14 -0.814,0.349 -0.837,0.581 -0.14,1.07 -0.14,2.163 -0.209,3.233 0.233,0.07 0.349,0.14 0.465,0.14 5.395,1 10.279,-0.279 14.698,-3.093 4.605,-2.932 9.721,-7.699 9.721,-15.838 z"
   id="path4"
   inkscape:connector-curvature="0"
   style="fill:#ffffff" />
<path
   d="m 26.186,13.465 c -4.14,-0.023 -7.535,3.279 -7.581,7.372 -0.047,4.186 3.279,7.605 7.419,7.628 4.163,0.023 7.581,-3.326 7.581,-7.465 0.023,-4.116 -3.326,-7.488 -7.419,-7.535 z"
   id="path6"
   inkscape:connector-curvature="0"
   style="fill:#414141" />
<path
   d="m 21.07,21.558 v -0.674 l 3.977,-2.977 v 1.233 l -2.86,2.07 v 0.023 l 2.86,1.86 v 1.233 z"
   id="path8"
   inkscape:connector-curvature="0"
   style="fill:#ffffff" />
<path
   d="M 27.163,24.302 V 23.07 l 2.86,-1.837 V 21.21 l -2.86,-2.07 v -1.233 l 3.977,3 v 0.651 z"
   id="path10"
   inkscape:connector-curvature="0"
   style="fill:#ffffff" />
</svg>