<?xml version="1.0" encoding="UTF-8" standalone="no"?>
<!-- Generator: Adobe Illustrator 18.1.0, SVG Export Plug-In . SVG Version: 6.00 Build 0)  -->

<svg
   xmlns:dc="http://purl.org/dc/elements/1.1/"
   xmlns:cc="http://creativecommons.org/ns#"
   xmlns:rdf="http://www.w3.org/1999/02/22-rdf-syntax-ns#"
   xmlns:svg="http://www.w3.org/2000/svg"
   xmlns="http://www.w3.org/2000/svg"
   xmlns:sodipodi="http://sodipodi.sourceforge.net/DTD/sodipodi-0.dtd"
   xmlns:inkscape="http://www.inkscape.org/namespaces/inkscape"
   version="1.0"
   x="0px"
   y="0px"
   viewBox="0 0 42.599998 27.1"
   enable-background="new 0 0 152 117.5"
   xml:space="preserve"
   id="svg12"
   sodipodi:docname="AzComputeAutoscaling.svg"
   width="42.599998"
   height="27.1"
   inkscape:version="0.92.4 (5da689c313, 2019-01-14)"><metadata
   id="metadata18"><rdf:RDF><cc:Work
       rdf:about=""><dc:format>image/svg+xml</dc:format><dc:type
         rdf:resource="http://purl.org/dc/dcmitype/StillImage" /></cc:Work></rdf:RDF></metadata><defs
   id="defs16" /><sodipodi:namedview
   pagecolor="#ffffff"
   bordercolor="#666666"
   borderopacity="1"
   objecttolerance="10"
   gridtolerance="10"
   guidetolerance="10"
   inkscape:pageopacity="0"
   inkscape:pageshadow="2"
   inkscape:window-width="713"
   inkscape:window-height="543"
   id="namedview14"
   showgrid="false"
   inkscape:zoom="2.0085106"
   inkscape:cx="21.3"
   inkscape:cy="13.55"
   inkscape:window-x="0"
   inkscape:window-y="0"
   inkscape:window-maximized="0"
   inkscape:current-layer="svg12" />
<g
   id="Layer_1"
   transform="translate(-54.7,-45.2)">
	<g
   id="g6">
		<path
   d="m 76,56.3 c -1.3,0 -2.4,1.1 -2.4,2.4 0,1.3 1.1,2.4 2.4,2.4 1.3,0 2.4,-1.1 2.4,-2.4 0,-1.3 -1,-2.4 -2.4,-2.4 z"
   id="path2"
   inkscape:connector-curvature="0"
   style="fill:#0078d7" />
		<path
   d="m 76,48.8 c -8.4,0 -16,-1.4 -21.3,-3.6 V 72.3 C 60,70 67.6,68.7 76,68.7 c 8.4,0 16,1.4 21.3,3.6 V 45.2 C 92,47.4 84.4,48.8 76,48.8 Z m 7.6,10.8 -2.1,0.8 -0.5,1.1 0.9,1.7 0.1,0.2 -1.2,1.2 -2,-1 -1.2,0.5 -0.6,2 -0.1,0.2 h -1.7 l -0.8,-2.1 -1.2,-0.5 -1.7,0.9 -0.2,0.1 -1.3,-1.2 1,-2 -0.5,-1.2 -1.8,-0.6 -0.3,-0.1 V 57.9 L 70.5,57.1 71,56 70.1,54.3 70,54 l 1.2,-1.2 2,1 1.2,-0.5 0.6,-1.9 0.1,-0.3 h 1.7 l 0.8,2.1 1.2,0.5 1.7,-0.9 0.2,-0.1 0.7,0.7 c 0.2,0.3 0.3,0.5 0.5,0.8 L 81,56 l 0.5,1.2 1.8,0.6 0.3,0.1 z"
   id="path4"
   inkscape:connector-curvature="0"
   style="fill:#0078d7" />
	</g>
</g>
<g
   id="paths"
   transform="translate(-54.7,-45.2)">
	<g
   id="Access_control">
	</g>
	<g
   id="Azure_active_directory">
	</g>
</g>
</svg>