<?xml version="1.0" encoding="UTF-8" standalone="no"?>
<!-- Generator: Adobe Illustrator 19.1.0, SVG Export Plug-In . SVG Version: 6.00 Build 0)  -->

<svg
   xmlns:dc="http://purl.org/dc/elements/1.1/"
   xmlns:cc="http://creativecommons.org/ns#"
   xmlns:rdf="http://www.w3.org/1999/02/22-rdf-syntax-ns#"
   xmlns:svg="http://www.w3.org/2000/svg"
   xmlns="http://www.w3.org/2000/svg"
   xmlns:sodipodi="http://sodipodi.sourceforge.net/DTD/sodipodi-0.dtd"
   xmlns:inkscape="http://www.inkscape.org/namespaces/inkscape"
   version="1.1"
   id="Layer_1"
   x="0px"
   y="0px"
   width="50"
   height="50"
   viewBox="0 0 50 50"
   enable-background="new 0 0 50 50"
   xml:space="preserve"
   sodipodi:docname="AzCognativeServicesRecommendationsColor.svg"
   inkscape:version="0.92.4 (5da689c313, 2019-01-14)"><metadata
   id="metadata17"><rdf:RDF><cc:Work
       rdf:about=""><dc:format>image/svg+xml</dc:format><dc:type
         rdf:resource="http://purl.org/dc/dcmitype/StillImage" /></cc:Work></rdf:RDF></metadata><defs
   id="defs15" /><sodipodi:namedview
   pagecolor="#ffffff"
   bordercolor="#666666"
   borderopacity="1"
   objecttolerance="10"
   gridtolerance="10"
   guidetolerance="10"
   inkscape:pageopacity="0"
   inkscape:pageshadow="2"
   inkscape:window-width="713"
   inkscape:window-height="543"
   id="namedview13"
   showgrid="false"
   inkscape:zoom="4.72"
   inkscape:cx="25"
   inkscape:cy="25"
   inkscape:window-x="0"
   inkscape:window-y="0"
   inkscape:window-maximized="0"
   inkscape:current-layer="Layer_1" />
<rect
   width="50"
   height="50"
   id="rect2"
   x="0"
   y="0"
   style="fill:#009480" />
<path
   d="m 21.909,9.674 h 6.147 v 3.366 l 3.295,1.378 2.206,-2.371 4.45,4.45 -2.378,2.244 1.337,3.202 h 3.362 v 6.14 h -3.364 l -1.377,3.294 2.361,2.213 -4.415,4.428 -2.187,-2.386 -3.321,1.387 v 3.31 h -6.113 v -3.321 l -3.264,-1.362 -2.227,2.371 -4.498,-4.488 2.439,-2.139 -1.397,-3.336 H 9.669 v -6.099 h 3.321 l 1.362,-3.269 -2.365,-2.211 4.456,-4.463 2.214,2.378 3.247,-1.357 V 9.667 Z"
   id="path4"
   inkscape:connector-curvature="0"
   style="fill:#ffffff" />
<circle
   cx="25"
   cy="25"
   id="ellipse6"
   r="12.705"
   style="fill:#ffffff" />
<path
   d="m 25.096,17.024 c -4.393,0 -8.004,3.485 -8.061,7.838 -0.057,4.353 3.482,8.078 7.887,8.114 4.404,0.036 8.05,-3.532 8.061,-7.944 0.011,-4.411 -3.527,-7.974 -7.887,-8.008 z"
   id="path8"
   inkscape:connector-curvature="0"
   style="fill:#414142" />
<path
   d="M 29.742,23.873 C 29.723,23.816 29.69,23.765 29.646,23.724 29.599,23.682 29.544,23.65 29.485,23.628 29.398,23.601 29.307,23.588 29.216,23.591 h -3.13 c 0.058,-0.202 0.125,-0.401 0.204,-0.596 l 0.108,-0.263 c 0.035,-0.09 0.075,-0.177 0.12,-0.263 l 0.126,-0.244 c 0.039,-0.071 0.083,-0.139 0.13,-0.204 l 0.22,-0.299 c 0.079,-0.115 0.148,-0.237 0.204,-0.364 0.064,-0.148 0.114,-0.302 0.149,-0.46 0.042,-0.196 0.062,-0.396 0.059,-0.596 0.001,-0.087 -0.014,-0.174 -0.043,-0.256 -0.044,-0.143 -0.14,-0.264 -0.269,-0.34 -0.063,-0.031 -0.133,-0.047 -0.204,-0.047 -0.07,0.001 -0.139,0.016 -0.204,0.043 -0.075,0.033 -0.144,0.079 -0.204,0.136 -0.078,0.07 -0.146,0.15 -0.204,0.238 -0.069,0.111 -0.127,0.229 -0.173,0.352 -0.086,0.236 -0.205,0.458 -0.352,0.661 -0.146,0.199 -0.312,0.383 -0.495,0.55 -0.187,0.17 -0.386,0.326 -0.596,0.466 -0.214,0.142 -0.435,0.282 -0.661,0.417 -0.285,0.159 -0.553,0.347 -0.8,0.56 -0.185,0.162 -0.349,0.347 -0.488,0.55 -0.111,0.162 -0.196,0.342 -0.25,0.531 -0.031,0.121 -0.051,0.245 -0.059,0.37 h -2.139 v 4.885 h 2.111 v -0.668 0 c 0.025,0.062 0.071,0.112 0.13,0.142 0.117,0.065 0.241,0.115 0.37,0.149 0.181,0.05 0.364,0.09 0.55,0.12 l 0.655,0.096 0.71,0.071 0.698,0.047 h 1.085 c 0.176,0.021 0.354,0.008 0.525,-0.037 0.137,-0.049 0.266,-0.117 0.383,-0.204 0.109,-0.079 0.209,-0.169 0.299,-0.269 0.102,-0.116 0.198,-0.238 0.287,-0.364 0.052,-0.069 0.089,-0.148 0.108,-0.232 0.001,-0.087 0.015,-0.174 0.043,-0.256 0.028,-0.089 0.043,-0.182 0.043,-0.275 0.018,-0.102 0.05,-0.201 0.096,-0.293 0.034,-0.075 0.08,-0.144 0.136,-0.204 l 0.185,-0.204 c 0.067,-0.075 0.129,-0.155 0.185,-0.238 0.063,-0.091 0.109,-0.192 0.136,-0.299 0.005,-0.073 0.005,-0.147 0,-0.22 v -0.596 c -0.006,-0.068 -0.006,-0.136 0,-0.204 0.056,-0.075 0.12,-0.143 0.191,-0.204 l 0.12,-0.22 0.126,-0.214 0.096,-0.161 c 0.035,-0.048 0.067,-0.097 0.096,-0.149 0.03,-0.054 0.056,-0.11 0.077,-0.167 0.022,-0.058 0.039,-0.118 0.053,-0.179 0.007,-0.057 0.007,-0.116 0,-0.173 0.002,-0.044 -0.004,-0.093 -0.017,-0.14 z"
   id="path10"
   inkscape:connector-curvature="0"
   style="fill:#ffffff" />
</svg>