<?xml version="1.0" encoding="UTF-8" standalone="no"?>
<!-- Generator: Adobe Illustrator 19.1.0, SVG Export Plug-In . SVG Version: 6.00 Build 0)  -->

<svg
   xmlns:dc="http://purl.org/dc/elements/1.1/"
   xmlns:cc="http://creativecommons.org/ns#"
   xmlns:rdf="http://www.w3.org/1999/02/22-rdf-syntax-ns#"
   xmlns:svg="http://www.w3.org/2000/svg"
   xmlns="http://www.w3.org/2000/svg"
   xmlns:sodipodi="http://sodipodi.sourceforge.net/DTD/sodipodi-0.dtd"
   xmlns:inkscape="http://www.inkscape.org/namespaces/inkscape"
   version="1.1"
   id="Layer_1"
   x="0px"
   y="0px"
   width="50"
   height="50"
   viewBox="0 0 50 50"
   enable-background="new 0 0 50 50"
   xml:space="preserve"
   sodipodi:docname="AzCognativeServicesEmotionColor.svg"
   inkscape:version="0.92.4 (5da689c313, 2019-01-14)"><metadata
   id="metadata17"><rdf:RDF><cc:Work
       rdf:about=""><dc:format>image/svg+xml</dc:format><dc:type
         rdf:resource="http://purl.org/dc/dcmitype/StillImage" /></cc:Work></rdf:RDF></metadata><defs
   id="defs15" /><sodipodi:namedview
   pagecolor="#ffffff"
   bordercolor="#666666"
   borderopacity="1"
   objecttolerance="10"
   gridtolerance="10"
   guidetolerance="10"
   inkscape:pageopacity="0"
   inkscape:pageshadow="2"
   inkscape:window-width="713"
   inkscape:window-height="543"
   id="namedview13"
   showgrid="false"
   inkscape:zoom="4.72"
   inkscape:cx="25"
   inkscape:cy="25"
   inkscape:window-x="0"
   inkscape:window-y="0"
   inkscape:window-maximized="0"
   inkscape:current-layer="Layer_1" />
<rect
   y="0"
   width="50"
   height="50"
   id="rect2"
   x="0"
   style="fill:#009480" />
<path
   d="M 31.465,15.581 C 28.512,14.186 25.418,13.604 22.209,14.372 15.884,15.86 11.581,20.093 7.698,25.07 c 2.953,3.907 6.349,7.14 10.674,9.233 4.209,2.047 8.465,2.233 12.767,0.256 4.442,-2.047 7.884,-5.256 10.814,-9.116 0.14,-0.186 0.256,-0.395 0.372,-0.605 -2.976,-3.885 -6.418,-7.164 -10.86,-9.257 z"
   id="path4"
   inkscape:connector-curvature="0"
   style="fill:#ffffff" />
<path
   d="m 25,17.651 c -4.14,0 -7.488,3.349 -7.488,7.512 0,4.14 3.349,7.512 7.488,7.512 4.139,0 7.488,-3.349 7.488,-7.512 C 32.488,21 29.14,17.651 25,17.651 Z m 0,13.047 c -1.093,0 -2.07,-1.07 -2.07,-2.302 0,-1 0.907,-1.814 2.047,-1.814 1.14,0 2.07,0.814 2.07,1.791 0.023,1.255 -0.931,2.325 -2.047,2.325 z"
   id="path6"
   inkscape:connector-curvature="0"
   style="fill:#414141" />
<path
   d="m 28,24.605 c -0.651,0 -1.186,-0.535 -1.186,-1.186 0.023,-0.651 0.535,-1.163 1.186,-1.163 0.651,0 1.186,0.535 1.186,1.186 0,0.651 -0.535,1.163 -1.186,1.163 z"
   id="path8"
   inkscape:connector-curvature="0"
   style="fill:#ffffff" />
<path
   d="m 22.047,24.605 c -0.651,0 -1.186,-0.535 -1.186,-1.186 0.023,-0.651 0.535,-1.163 1.186,-1.163 0.651,0 1.186,0.535 1.186,1.186 0,0.651 -0.535,1.163 -1.186,1.163 z"
   id="path10"
   inkscape:connector-curvature="0"
   style="fill:#ffffff" />
</svg>