<?xml version="1.0" encoding="UTF-8" standalone="no"?>
<!-- Generated by Microsoft Visio, SVG Export Container Service mono.svg Page-1 -->

<svg
   xmlns:v="http://schemas.microsoft.com/visio/2003/SVGExtensions/"
   xmlns:dc="http://purl.org/dc/elements/1.1/"
   xmlns:cc="http://creativecommons.org/ns#"
   xmlns:rdf="http://www.w3.org/1999/02/22-rdf-syntax-ns#"
   xmlns:svg="http://www.w3.org/2000/svg"
   xmlns="http://www.w3.org/2000/svg"
   xmlns:sodipodi="http://sodipodi.sourceforge.net/DTD/sodipodi-0.dtd"
   xmlns:inkscape="http://www.inkscape.org/namespaces/inkscape"
   width="0.45805591in"
   height="0.33888915in"
   viewBox="0 0 32.980007 24.399997"
   xml:space="preserve"
   class="st2"
   version="1.1"
   id="svg13"
   sodipodi:docname="AzContainerService.svg"
   style="font-size:12px;overflow:visible;color-interpolation-filters:sRGB;fill:none;fill-rule:evenodd;stroke-linecap:square;stroke-miterlimit:3"
   inkscape:version="0.92.4 (5da689c313, 2019-01-14)"><metadata
   id="metadata19"><rdf:RDF><cc:Work
       rdf:about=""><dc:format>image/svg+xml</dc:format><dc:type
         rdf:resource="http://purl.org/dc/dcmitype/StillImage" /></cc:Work></rdf:RDF></metadata><defs
   id="defs17" /><sodipodi:namedview
   pagecolor="#ffffff"
   bordercolor="#666666"
   borderopacity="1"
   objecttolerance="10"
   gridtolerance="10"
   guidetolerance="10"
   inkscape:pageopacity="0"
   inkscape:pageshadow="2"
   inkscape:window-width="713"
   inkscape:window-height="543"
   id="namedview15"
   showgrid="false"
   inkscape:zoom="6.8326516"
   inkscape:cx="21.986479"
   inkscape:cy="16.263343"
   inkscape:window-x="0"
   inkscape:window-y="0"
   inkscape:window-maximized="0"
   inkscape:current-layer="svg13" />
	<v:documentProperties
   v:langID="1033"
   v:viewMarkup="false">
		<v:userDefs>
			<v:ud
   v:nameU="visTLShowProps"
   v:prompt=""
   v:val="VT0(0):26" />
		</v:userDefs>
	</v:documentProperties>

	<style
   type="text/css"
   id="style2">
	<![CDATA[
		.st1 {fill:#0078d7;stroke:none;stroke-linecap:butt;stroke-width:0.75}
		.st2 {fill:none;fill-rule:evenodd;font-size:12px;overflow:visible;stroke-linecap:square;stroke-miterlimit:3}
	]]>
	</style>

	<g
   v:mID="0"
   v:index="1"
   v:groupContext="foregroundPage"
   id="g11"
   transform="translate(-0.75,-0.75)">
		<title
   id="title4">Page-1</title>
		<v:pageProperties
   v:drawingScale="1"
   v:pageScale="1"
   v:drawingUnits="19"
   v:shadowOffsetX="2.83465"
   v:shadowOffsetY="-2.83465"
   v:shadowType="1" />
		<g
   id="shape1093-1"
   v:mID="1093"
   v:groupContext="shape"
   transform="translate(0.75,-0.75)">
			<title
   id="title6">Container Service.2696</title>
			<path
   d="m 27.97,9.61 v 8.12 l 5.01,-1.92 v -4.42 z m -2.05,6.99 -0.33,-0.13 v -5.6 l 0.33,-0.07 0.33,-0.13 0.4,-0.13 v 6.26 l -0.4,-0.13 z M 24.73,16.21 24.47,16.14 V 11.2 L 25.26,11 v 5.41 L 25,16.34 Z m -0.98,-0.33 -0.2,-0.07 v -4.42 l 0.59,-0.19 v 4.81 z m -0.4,-4.95 v 5.34 l 3.76,1.46 V 9.61 Z M 21.83,1.5 V 9.68 L 26.91,7.7 V 3.28 Z m 0,16.23 v 8.17 l 5.08,-1.97 V 19.51 Z M 19.85,8.49 19.52,8.36 V 2.75 l 0.33,-0.06 0.33,-0.13 0.4,-0.14 V 8.69 L 20.18,8.56 Z M 18.67,8.1 18.4,8.03 V 3.08 l 0.79,-0.19 v 5.4 L 18.93,8.23 Z M 17.68,7.83 17.48,7.77 V 3.35 l 0.59,-0.2 v 4.81 z m -0.4,-4.94 v 5.34 l 3.76,1.45 V 1.57 Z m 2.57,21.83 -0.33,-0.13 v -5.61 l 0.33,-0.07 0.33,-0.13 0.4,-0.13 v 6.27 l -0.4,-0.14 z m -1.18,-0.4 -0.27,-0.06 v -4.95 l 0.79,-0.2 v 5.41 l -0.26,-0.07 z m -0.99,-0.26 -0.2,-0.07 v -4.42 l 0.59,-0.19 v 4.81 z m -0.4,-4.95 v 5.34 l 3.76,1.45 v -8.11 z m -0.92,-9.5 v 8.12 l 5.01,-1.92 v -4.42 z m -2.05,6.99 -0.33,-0.13 v -5.6 l 0.33,-0.07 0.33,-0.13 0.4,-0.13 v 6.26 l -0.4,-0.13 z M 13.13,16.21 12.86,16.14 V 11.2 L 13.65,11 v 5.41 l -0.26,-0.07 z m -0.99,-0.33 -0.2,-0.07 v -4.42 l 0.59,-0.19 v 4.81 z m -0.4,-4.95 v 5.34 l 3.76,1.46 V 9.61 Z M 10.03,1.5 V 9.68 L 15.1,7.7 V 3.28 Z m 0,16.23 V 25.9 L 15.1,23.93 V 19.51 Z M 8.05,8.49 7.72,8.36 V 2.75 L 8.05,2.69 8.38,2.56 8.77,2.42 V 8.69 L 8.38,8.56 Z M 6.86,8.1 6.6,8.03 V 3.08 L 7.39,2.89 v 5.4 L 7.12,8.23 Z M 5.87,7.83 5.67,7.77 V 3.35 l 0.6,-0.2 V 7.96 Z M 5.47,2.89 V 8.23 L 9.23,9.68 V 1.57 Z M 8.05,24.72 7.72,24.59 v -5.61 l 0.33,-0.07 0.33,-0.13 0.39,-0.13 v 6.27 L 8.38,24.78 Z M 6.86,24.32 6.6,24.26 v -4.95 l 0.79,-0.2 v 5.41 L 7.12,24.45 Z M 5.87,24.06 5.67,23.99 v -4.42 l 0.6,-0.19 v 4.81 z m -0.4,-4.95 v 5.34 L 9.23,25.9 V 17.79 Z M 4.62,9.61 v 8.12 L 9.63,15.81 V 11.39 Z M 2.57,16.6 2.24,16.47 v -5.6 L 2.57,10.8 2.9,10.67 3.3,10.54 V 16.8 L 2.9,16.67 Z M 1.39,16.21 1.12,16.14 V 11.2 L 1.91,11 v 5.41 L 1.65,16.34 Z M 0.4,15.88 0.2,15.81 V 11.39 L 0.79,11.2 v 4.81 z M 0,10.93 v 5.34 l 3.76,1.46 V 9.61 Z"
   class="st1"
   id="path8"
   inkscape:connector-curvature="0"
   style="fill:#0078d7;stroke:none;stroke-width:0.75;stroke-linecap:butt" />
		</g>
	</g>
</svg>