<?xml version="1.0" encoding="UTF-8" standalone="no"?>
<!-- Generator: Adobe Illustrator 19.1.0, SVG Export Plug-In . SVG Version: 6.00 Build 0)  -->

<svg
   xmlns:dc="http://purl.org/dc/elements/1.1/"
   xmlns:cc="http://creativecommons.org/ns#"
   xmlns:rdf="http://www.w3.org/1999/02/22-rdf-syntax-ns#"
   xmlns:svg="http://www.w3.org/2000/svg"
   xmlns="http://www.w3.org/2000/svg"
   xmlns:sodipodi="http://sodipodi.sourceforge.net/DTD/sodipodi-0.dtd"
   xmlns:inkscape="http://www.inkscape.org/namespaces/inkscape"
   version="1.1"
   id="Layer_1"
   x="0px"
   y="0px"
   width="50"
   height="50"
   viewBox="0 0 50 50"
   enable-background="new 0 0 50 50"
   xml:space="preserve"
   sodipodi:docname="AzCognativeServicesSpeechColor.svg"
   inkscape:version="0.92.4 (5da689c313, 2019-01-14)"><metadata
   id="metadata19"><rdf:RDF><cc:Work
       rdf:about=""><dc:format>image/svg+xml</dc:format><dc:type
         rdf:resource="http://purl.org/dc/dcmitype/StillImage" /></cc:Work></rdf:RDF></metadata><defs
   id="defs17" /><sodipodi:namedview
   pagecolor="#ffffff"
   bordercolor="#666666"
   borderopacity="1"
   objecttolerance="10"
   gridtolerance="10"
   guidetolerance="10"
   inkscape:pageopacity="0"
   inkscape:pageshadow="2"
   inkscape:window-width="713"
   inkscape:window-height="543"
   id="namedview15"
   showgrid="false"
   inkscape:zoom="4.72"
   inkscape:cx="25"
   inkscape:cy="25"
   inkscape:window-x="0"
   inkscape:window-y="0"
   inkscape:window-maximized="0"
   inkscape:current-layer="Layer_1" />
<rect
   y="0"
   width="50"
   height="50"
   id="rect2"
   x="0"
   style="fill:#009480" />
<path
   d="m 9.907,25.419 c 0,-1.419 0,-2.814 0,-4.233 0.093,-0.605 0.233,-1.233 0.302,-1.837 0.395,-2.86 2.326,-5.767 5.837,-6.372 C 22.023,11.93 28,11.907 33.977,13 c 3.256,0.605 5.047,2.721 5.698,5.86 0.605,2.907 0.558,5.837 0.07,8.767 -0.488,2.814 -2.465,5.674 -6.093,6.116 -2.372,0.279 -4.744,0.488 -7.116,0.744 -0.326,0.047 -0.698,0.116 -0.953,0.302 -1.326,0.86 -2.07,1.837 -3.977,2.605 -1.558,0.674 -4.86,1.395 -5.116,1.326 -0.116,-0.186 2.326,-2.884 2.535,-4.512 -0.86,-0.14 -1.512,-0.233 -2.14,-0.326 -3.721,-0.558 -5.907,-2.605 -6.605,-6.233 -0.14,-0.742 -0.233,-1.486 -0.373,-2.23 z"
   id="path4"
   inkscape:connector-curvature="0"
   style="fill:#ffffff" />
<path
   d="m 29.047,30.256 c 0.605,-0.093 1.047,-0.14 1.512,-0.209 2.605,-0.372 4.14,-1.698 4.628,-4.023 0.093,-0.465 0.163,-0.953 0.256,-1.442 0,-0.907 0,-1.814 0,-2.721 -0.07,-0.395 -0.163,-0.791 -0.209,-1.186 -0.279,-1.837 -1.628,-3.721 -4.093,-4.116 -4.186,-0.674 -8.372,-0.698 -12.558,0.023 -2.279,0.395 -3.535,1.767 -4,3.791 -0.442,1.884 -0.395,3.767 -0.047,5.674 0.326,1.814 1.744,3.581 4.256,3.953 3.72,0.512 10.255,0.256 10.255,0.256 z"
   id="path6"
   inkscape:connector-curvature="0"
   style="fill:#414141" />
<path
   d="M 19,23.186 C 19,22.512 19.512,22 20.186,22 c 0.651,0 1.186,0.535 1.186,1.186 0,0.628 -0.535,1.163 -1.186,1.163 C 19.535,24.372 19,23.837 19,23.186 Z"
   id="path8"
   inkscape:connector-curvature="0"
   style="fill:#ffffff" />
<path
   d="m 29.93,22 c 0.674,0 1.186,0.512 1.186,1.186 0,0.651 -0.535,1.186 -1.186,1.186 -0.628,0 -1.163,-0.535 -1.186,-1.163 0,-0.674 0.535,-1.209 1.186,-1.209 z"
   id="path10"
   inkscape:connector-curvature="0"
   style="fill:#ffffff" />
<path
   d="m 25.047,24.372 c -0.651,0 -1.186,-0.535 -1.186,-1.186 0.023,-0.651 0.535,-1.163 1.186,-1.163 0.651,0 1.186,0.535 1.186,1.186 0,0.628 -0.512,1.163 -1.186,1.163 z"
   id="path12"
   inkscape:connector-curvature="0"
   style="fill:#ffffff" />
</svg>