<?xml version="1.0" encoding="UTF-8" standalone="no"?>
<!-- Generator: Adobe Illustrator 19.1.0, SVG Export Plug-In . SVG Version: 6.00 Build 0)  -->

<svg
   xmlns:dc="http://purl.org/dc/elements/1.1/"
   xmlns:cc="http://creativecommons.org/ns#"
   xmlns:rdf="http://www.w3.org/1999/02/22-rdf-syntax-ns#"
   xmlns:svg="http://www.w3.org/2000/svg"
   xmlns="http://www.w3.org/2000/svg"
   xmlns:sodipodi="http://sodipodi.sourceforge.net/DTD/sodipodi-0.dtd"
   xmlns:inkscape="http://www.inkscape.org/namespaces/inkscape"
   version="1.1"
   id="Layer_1"
   x="0px"
   y="0px"
   width="50"
   height="22.799999"
   viewBox="0 0 50 22.799999"
   xml:space="preserve"
   sodipodi:docname="AzContentDeliveryNetwork.svg"
   inkscape:version="0.92.4 (5da689c313, 2019-01-14)"><metadata
   id="metadata19"><rdf:RDF><cc:Work
       rdf:about=""><dc:format>image/svg+xml</dc:format><dc:type
         rdf:resource="http://purl.org/dc/dcmitype/StillImage" /></cc:Work></rdf:RDF></metadata><defs
   id="defs17" /><sodipodi:namedview
   pagecolor="#ffffff"
   bordercolor="#666666"
   borderopacity="1"
   objecttolerance="10"
   gridtolerance="10"
   guidetolerance="10"
   inkscape:pageopacity="0"
   inkscape:pageshadow="2"
   inkscape:window-width="713"
   inkscape:window-height="543"
   id="namedview15"
   showgrid="false"
   inkscape:zoom="4.72"
   inkscape:cx="25"
   inkscape:cy="8.5"
   inkscape:window-x="0"
   inkscape:window-y="0"
   inkscape:window-maximized="0"
   inkscape:current-layer="Layer_1" />
<style
   type="text/css"
   id="style2">
	.st0{fill:#7A7A7A;}
	.st1{fill:#3999C6;}
	.st2{opacity:0.2;fill:#FFFFFF;enable-background:new    ;}
</style>
<path
   class="st0"
   d="M 34.9,6.1 H 8.3 c -1.1,0 -2,-0.9 -2,-2 v 0 c 0,-1.1 0.9,-2 2,-2 h 26.6 c 1.1,0 2,0.9 2,2 v 0 c 0,1.1 -0.9,2 -2,2 z"
   id="path4"
   inkscape:connector-curvature="0"
   style="fill:#7a7a7a" />
<path
   class="st0"
   d="M 29.5,22.8 H 4.9 c -1.1,0 -2,-0.9 -2,-2 v 0 c 0,-1.1 0.9,-2 2,-2 h 24.6 c 1.1,0 2,0.9 2,2 v 0 c 0,1.1 -0.9,2 -2,2 z"
   id="path6"
   inkscape:connector-curvature="0"
   style="fill:#7a7a7a" />
<path
   class="st0"
   d="M 26.6,14.7 H 2 c -1.1,0 -2,-0.9 -2,-2 v 0 c 0,-1.1 0.9,-2 2,-2 h 24.6 c 1.1,0 2,0.9 2,2 v 0 c 0,1.1 -0.9,2 -2,2 z"
   id="path8"
   inkscape:connector-curvature="0"
   style="fill:#7a7a7a" />
<path
   class="st1"
   d="m 50,18.5 c 0,-2.4 -1.9,-4.3 -4.2,-4.3 -0.2,0 -0.3,0 -0.6,0 0.2,-0.9 0.4,-1.9 0.4,-3 C 45.6,5 40.5,0 34.4,0 29.5,0 25.3,3.3 23.8,7.6 23,7.4 22.2,7.2 21.3,7.2 c -4.3,0 -7.6,3.5 -7.6,7.8 0,4.3 3.4,7.8 7.6,7.8 v 0 0 H 46 v 0 c 2.3,-0.3 4,-2.1 4,-4.3"
   id="path10"
   inkscape:connector-curvature="0"
   style="fill:#3999c6" />
<path
   class="st2"
   d="m 25.3,22.7 c -1,-1 -1.8,-2.2 -2.1,-3.8 -0.9,-4.2 1.6,-8.3 5.7,-9.2 0.9,-0.2 1.7,-0.2 2.6,-0.1 0.3,-3.9 2.7,-7.3 6.3,-9 C 36.7,0.3 35.6,0 34.4,0 29.5,0 25.3,3.3 23.8,7.6 23,7.4 22.2,7.2 21.3,7.2 c -4.3,0 -7.6,3.5 -7.6,7.8 0,4.3 3.4,7.8 7.6,7.8 v 0 0 z"
   id="path12"
   inkscape:connector-curvature="0"
   style="opacity:0.2;fill:#ffffff;enable-background:new" />
</svg>