<?xml version="1.0" encoding="UTF-8" standalone="no"?>
<!-- Generator: Adobe Illustrator 19.1.0, SVG Export Plug-In . SVG Version: 6.00 Build 0)  -->

<svg
   xmlns:dc="http://purl.org/dc/elements/1.1/"
   xmlns:cc="http://creativecommons.org/ns#"
   xmlns:rdf="http://www.w3.org/1999/02/22-rdf-syntax-ns#"
   xmlns:svg="http://www.w3.org/2000/svg"
   xmlns="http://www.w3.org/2000/svg"
   xmlns:sodipodi="http://sodipodi.sourceforge.net/DTD/sodipodi-0.dtd"
   xmlns:inkscape="http://www.inkscape.org/namespaces/inkscape"
   version="1.1"
   id="Layer_1"
   x="0px"
   y="0px"
   width="50"
   height="37"
   viewBox="-454 256 50 37"
   xml:space="preserve"
   sodipodi:docname="AzContainerServiceColor.svg"
   inkscape:version="0.92.4 (5da689c313, 2019-01-14)"><metadata
   id="metadata51"><rdf:RDF><cc:Work
       rdf:about=""><dc:format>image/svg+xml</dc:format><dc:type
         rdf:resource="http://purl.org/dc/dcmitype/StillImage" /></cc:Work></rdf:RDF></metadata><defs
   id="defs49" /><sodipodi:namedview
   pagecolor="#ffffff"
   bordercolor="#666666"
   borderopacity="1"
   objecttolerance="10"
   gridtolerance="10"
   guidetolerance="10"
   inkscape:pageopacity="0"
   inkscape:pageshadow="2"
   inkscape:window-width="713"
   inkscape:window-height="543"
   id="namedview47"
   showgrid="false"
   inkscape:zoom="4.72"
   inkscape:cx="25"
   inkscape:cy="18.5"
   inkscape:window-x="0"
   inkscape:window-y="0"
   inkscape:window-maximized="0"
   inkscape:current-layer="Layer_1" />
<style
   type="text/css"
   id="style2">
	.st0{fill:#804998;}
	.st1{opacity:0.2;fill:#FFFFFF;}
</style>
<polygon
   class="st0"
   points="-438.8,262.5 -431.1,265.2 -431.1,271.9 -438.8,274.9 "
   id="polygon4"
   style="fill:#804998"
   transform="translate(0,-6.5)" />
<path
   class="st0"
   d="m -445.7,258.1 v 8.1 l 5.7,2.2 v -12.3 z m 0.6,7.5 -0.3,-0.1 v -6.7 l 0.3,-0.1 0.3,-0.1 0.3,-0.1 v 7.3 l -0.3,-0.1 z m 1.5,0.4 -0.4,-0.1 v -7.5 l 0.4,-0.1 0.4,-0.1 0.4,-0.1 v 8.2 l -0.4,-0.1 z m 1.8,0.6 -0.5,-0.2 v -8.5 l 0.5,-0.1 0.5,-0.2 0.6,-0.2 v 9.5 l -0.6,-0.2 z"
   id="path6"
   inkscape:connector-curvature="0"
   style="fill:#804998" />
<polygon
   class="st0"
   points="-420.9,262.5 -413.2,265.2 -413.2,271.9 -420.9,274.9 "
   id="polygon8"
   style="fill:#804998"
   transform="translate(0,-6.5)" />
<path
   class="st0"
   d="m -427.8,258.1 v 8.1 l 5.7,2.2 v -12.3 z m 0.6,7.5 -0.3,-0.1 v -6.7 l 0.3,-0.1 0.3,-0.1 0.3,-0.1 v 7.3 l -0.3,-0.1 z m 1.5,0.4 -0.4,-0.1 v -7.5 l 0.4,-0.1 0.4,-0.1 0.4,-0.1 v 8.2 l -0.4,-0.1 z m 1.8,0.6 -0.5,-0.2 v -8.5 l 0.5,-0.1 0.5,-0.2 0.6,-0.2 v 9.5 l -0.6,-0.2 z"
   id="path10"
   inkscape:connector-curvature="0"
   style="fill:#804998" />
<polygon
   class="st0"
   points="-438.8,287.1 -431.1,289.8 -431.1,296.5 -438.8,299.5 "
   id="polygon12"
   style="fill:#804998"
   transform="translate(0,-6.5)" />
<path
   class="st0"
   d="m -445.7,282.7 v 8.1 l 5.7,2.2 v -12.3 z m 0.6,7.5 -0.3,-0.1 v -6.7 l 0.3,-0.1 0.3,-0.1 0.3,-0.1 v 7.3 l -0.3,-0.1 z m 1.5,0.4 -0.4,-0.1 V 283 l 0.4,-0.1 0.4,-0.1 0.4,-0.1 v 8.2 l -0.4,-0.1 z m 1.8,0.6 -0.5,-0.2 v -8.5 l 0.5,-0.1 0.5,-0.2 0.6,-0.2 v 9.5 l -0.6,-0.2 z"
   id="path14"
   inkscape:connector-curvature="0"
   style="fill:#804998" />
<polygon
   class="st0"
   points="-420.9,287.1 -413.2,289.8 -413.2,296.5 -420.9,299.5 "
   id="polygon16"
   style="fill:#804998"
   transform="translate(0,-6.5)" />
<path
   class="st0"
   d="m -427.8,282.7 v 8.1 l 5.7,2.2 v -12.3 z m 0.6,7.5 -0.3,-0.1 v -6.7 l 0.3,-0.1 0.3,-0.1 0.3,-0.1 v 7.3 l -0.3,-0.1 z m 1.5,0.4 -0.4,-0.1 V 283 l 0.4,-0.1 0.4,-0.1 0.4,-0.1 v 8.2 l -0.4,-0.1 z m 1.8,0.6 -0.5,-0.2 v -8.5 l 0.5,-0.1 0.5,-0.2 0.6,-0.2 v 9.5 l -0.6,-0.2 z"
   id="path18"
   inkscape:connector-curvature="0"
   style="fill:#804998" />
<polygon
   class="st0"
   points="-429.2,274.8 -421.6,277.5 -421.6,284.2 -429.2,287.1 "
   id="polygon20"
   style="fill:#804998"
   transform="translate(0,-6.5)" />
<path
   class="st0"
   d="m -436.2,270.3 v 8.1 l 5.7,2.2 v -12.3 z m 0.6,7.5 -0.3,-0.1 V 271 l 0.3,-0.1 0.3,-0.1 0.3,-0.1 v 7.3 l -0.3,-0.1 z m 1.5,0.5 -0.4,-0.1 v -7.5 l 0.4,-0.1 0.4,-0.1 0.4,-0.1 v 8.2 l -0.4,-0.1 z m 1.8,0.6 -0.5,-0.2 v -8.5 l 0.5,-0.1 0.5,-0.2 0.6,-0.2 v 9.5 l -0.6,-0.2 z"
   id="path22"
   inkscape:connector-curvature="0"
   style="fill:#804998" />
<polygon
   class="st0"
   points="-447,274.8 -439.4,277.5 -439.4,284.2 -447,287.1 "
   id="polygon24"
   style="fill:#804998"
   transform="translate(0,-6.5)" />
<path
   class="st0"
   d="m -454,270.3 v 8.1 l 5.7,2.2 v -12.3 z m 0.6,7.5 -0.3,-0.1 V 271 l 0.3,-0.1 0.3,-0.1 0.3,-0.1 v 7.3 l -0.3,-0.1 z m 1.5,0.5 -0.4,-0.1 v -7.5 l 0.4,-0.1 0.4,-0.1 0.4,-0.1 v 8.2 l -0.4,-0.1 z m 1.8,0.6 -0.5,-0.2 v -8.5 l 0.5,-0.1 0.5,-0.2 0.6,-0.2 v 9.5 l -0.6,-0.2 z"
   id="path26"
   inkscape:connector-curvature="0"
   style="fill:#804998" />
<polygon
   class="st0"
   points="-411.6,274.8 -404,277.5 -404,284.2 -411.6,287.1 "
   id="polygon28"
   style="fill:#804998"
   transform="translate(0,-6.5)" />
<polygon
   class="st1"
   points="-438.8,262.5 -431.1,265.2 -431.1,271.9 -438.8,274.9 "
   id="polygon30"
   style="opacity:0.2;fill:#ffffff"
   transform="translate(0,-6.5)" />
<polygon
   class="st1"
   points="-420.9,262.5 -413.2,265.2 -413.2,271.9 -420.9,274.9 "
   id="polygon32"
   style="opacity:0.2;fill:#ffffff"
   transform="translate(0,-6.5)" />
<polygon
   class="st1"
   points="-438.8,287.1 -431.1,289.8 -431.1,296.5 -438.8,299.5 "
   id="polygon34"
   style="opacity:0.2;fill:#ffffff"
   transform="translate(0,-6.5)" />
<polygon
   class="st1"
   points="-420.9,287.1 -413.2,289.8 -413.2,296.5 -420.9,299.5 "
   id="polygon36"
   style="opacity:0.2;fill:#ffffff"
   transform="translate(0,-6.5)" />
<polygon
   class="st1"
   points="-429.2,274.8 -421.6,277.5 -421.6,284.2 -429.2,287.1 "
   id="polygon38"
   style="opacity:0.2;fill:#ffffff"
   transform="translate(0,-6.5)" />
<polygon
   class="st1"
   points="-447,274.8 -439.4,277.5 -439.4,284.2 -447,287.1 "
   id="polygon40"
   style="opacity:0.2;fill:#ffffff"
   transform="translate(0,-6.5)" />
<polygon
   class="st1"
   points="-411.6,274.8 -404,277.5 -404,284.2 -411.6,287.1 "
   id="polygon42"
   style="opacity:0.2;fill:#ffffff"
   transform="translate(0,-6.5)" />
<path
   class="st0"
   d="m -418.6,270.3 v 8.1 l 5.7,2.2 v -12.3 z m 0.6,7.5 -0.3,-0.1 V 271 l 0.3,-0.1 0.3,-0.1 0.3,-0.1 v 7.3 l -0.3,-0.1 z m 1.5,0.5 -0.4,-0.1 v -7.5 l 0.4,-0.1 0.4,-0.1 0.4,-0.1 v 8.2 l -0.4,-0.1 z m 1.8,0.6 -0.5,-0.2 v -8.5 l 0.5,-0.1 0.5,-0.2 0.6,-0.2 v 9.5 l -0.6,-0.2 z"
   id="path44"
   inkscape:connector-curvature="0"
   style="fill:#804998" />
</svg>