<?xml version="1.0" encoding="UTF-8" standalone="no"?>
<!-- Generator: Adobe Illustrator 19.1.0, SVG Export Plug-In . SVG Version: 6.00 Build 0)  -->

<svg
   xmlns:dc="http://purl.org/dc/elements/1.1/"
   xmlns:cc="http://creativecommons.org/ns#"
   xmlns:rdf="http://www.w3.org/1999/02/22-rdf-syntax-ns#"
   xmlns:svg="http://www.w3.org/2000/svg"
   xmlns="http://www.w3.org/2000/svg"
   xmlns:sodipodi="http://sodipodi.sourceforge.net/DTD/sodipodi-0.dtd"
   xmlns:inkscape="http://www.inkscape.org/namespaces/inkscape"
   version="1.1"
   id="Layer_1"
   x="0px"
   y="0px"
   width="50"
   height="50"
   viewBox="0 0 50 50"
   enable-background="new 0 0 50 50"
   xml:space="preserve"
   sodipodi:docname="AzCognativeServicesTextAnalyticsColor.svg"
   inkscape:version="0.92.4 (5da689c313, 2019-01-14)"><metadata
   id="metadata15"><rdf:RDF><cc:Work
       rdf:about=""><dc:format>image/svg+xml</dc:format><dc:type
         rdf:resource="http://purl.org/dc/dcmitype/StillImage" /></cc:Work></rdf:RDF></metadata><defs
   id="defs13" /><sodipodi:namedview
   pagecolor="#ffffff"
   bordercolor="#666666"
   borderopacity="1"
   objecttolerance="10"
   gridtolerance="10"
   guidetolerance="10"
   inkscape:pageopacity="0"
   inkscape:pageshadow="2"
   inkscape:window-width="713"
   inkscape:window-height="543"
   id="namedview11"
   showgrid="false"
   inkscape:zoom="4.72"
   inkscape:cx="25"
   inkscape:cy="25"
   inkscape:window-x="0"
   inkscape:window-y="0"
   inkscape:window-maximized="0"
   inkscape:current-layer="Layer_1" />
<rect
   width="50"
   height="50"
   id="rect2"
   x="0"
   y="0"
   style="fill:#009480" />
<path
   d="m 37.442,21.038 c 0,-6.267 -5.087,-11.346 -11.361,-11.346 -6.274,0 -11.36,5.07 -11.36,11.346 0,4.648 2.789,8.625 6.783,10.385 -0.371,0.617 -1.29,1.479 -2.186,2.052 -1.748,1.113 -3.81,1.69 -5.72,2.535 -0.319,0.139 -0.811,0.353 -0.841,0.588 -0.142,1.069 -0.147,2.16 -0.2,3.222 0.238,0.078 0.348,0.129 0.461,0.15 5.402,1.002 10.298,-0.27 14.722,-3.091 4.593,-2.935 9.702,-7.7 9.702,-15.841 z"
   id="path4"
   inkscape:connector-curvature="0"
   style="fill:#ffffff" />
<path
   d="m 26.183,13.374 c -4.097,0 -7.473,3.252 -7.518,7.311 -0.045,4.058 3.25,7.537 7.363,7.567 4.113,0.03 7.514,-3.299 7.525,-7.432 0.011,-4.132 -3.299,-7.414 -7.37,-7.446 z"
   id="path6"
   inkscape:connector-curvature="0"
   style="fill:#414142" />
<path
   d="m 28.041,18.412 v -1.63 h 0.519 v -1.064 h -4.522 v 1.064 h 0.519 v 1.63 l -2.675,5.341 0.809,1.358 h 7.235 L 30.728,23.77 Z M 25.928,19.727 23.785,24 h -0.526 l -0.285,-0.272 2.675,-5.077 v -1.847 h 1.309 v 1.853 l 0.519,1.064 h -1.555 v 0 z"
   id="path8"
   inkscape:connector-curvature="0"
   style="fill:#ffffff" />
</svg>