<?xml version="1.0" encoding="UTF-8" standalone="no"?>
<!-- Generator: Adobe Illustrator 21.0.0, SVG Export Plug-In . SVG Version: 6.00 Build 0)  -->

<svg
   xmlns:dc="http://purl.org/dc/elements/1.1/"
   xmlns:cc="http://creativecommons.org/ns#"
   xmlns:rdf="http://www.w3.org/1999/02/22-rdf-syntax-ns#"
   xmlns:svg="http://www.w3.org/2000/svg"
   xmlns="http://www.w3.org/2000/svg"
   xmlns:sodipodi="http://sodipodi.sourceforge.net/DTD/sodipodi-0.dtd"
   xmlns:inkscape="http://www.inkscape.org/namespaces/inkscape"
   version="1.1"
   id="Layer_1"
   x="0px"
   y="0px"
   width="45"
   height="39"
   viewBox="0 0 45 39"
   enable-background="new 0 0 50 50"
   xml:space="preserve"
   sodipodi:docname="AzContainerRegistry.svg"
   inkscape:version="0.92.4 (5da689c313, 2019-01-14)"><metadata
   id="metadata17"><rdf:RDF><cc:Work
       rdf:about=""><dc:format>image/svg+xml</dc:format><dc:type
         rdf:resource="http://purl.org/dc/dcmitype/StillImage" /></cc:Work></rdf:RDF></metadata><defs
   id="defs15" /><sodipodi:namedview
   pagecolor="#ffffff"
   bordercolor="#666666"
   borderopacity="1"
   objecttolerance="10"
   gridtolerance="10"
   guidetolerance="10"
   inkscape:pageopacity="0"
   inkscape:pageshadow="2"
   inkscape:window-width="713"
   inkscape:window-height="543"
   id="namedview13"
   showgrid="false"
   inkscape:zoom="4.72"
   inkscape:cx="23"
   inkscape:cy="19"
   inkscape:window-x="0"
   inkscape:window-y="0"
   inkscape:window-maximized="0"
   inkscape:current-layer="Layer_1" />
<path
   d="m 16,13 v 11 l 7,-3 V 9 Z m 6,-1.208 v 1 6.637 l -1.5,0.679 v -6.503 l -2,1.083 v 6.348 L 17,21.643 v -6.143 -1 l 3.5,-1.896 v -0.009 z"
   id="path2"
   inkscape:connector-curvature="0"
   style="fill:#0072c6" />
<path
   d="m 23,9 v 12 l 22,4.75 V 17 Z m 20,10 v 5 l -1.455,-0.401 v -5.2 L 39,17.6 V 23 l -1.455,-0.401 v -5.6 L 35,16.2 V 22 l -1.455,-0.401 v -6 L 31,14.8 V 21 l -1.455,-0.401 v -6.4 L 26.746,13.306 26.751,19.943 25,19.5 v -6.8 -1 l 4,1.4 v 0 l 2,0.7 2,0.7 1,0.35 3.857,1.35 1.143,0.4 2,0.7 2,0.7 z"
   id="path4"
   inkscape:connector-curvature="0"
   style="fill:#0072c6" />
<path
   d="m 23,23 v 16 l 22,-5 v -6.75 z m 20,9.909 -1.454,0.244 V 28.812 L 39,28.477 v 5.251 l -1.454,0.244 V 28.29 L 35,27.953 v 6.592 l -1.454,0.244 V 27.765 L 31,27.43 v 7.934 l -1.454,0.244 V 27.243 L 26.75,26.92 26.745,36.289 25,36.591 V 25.52 l 18,2.73 z"
   id="path6"
   inkscape:connector-curvature="0"
   style="fill:#0072c6" />
<path
   d="M 14,11.839 22.813,6.803 39.937,13.03 C 39.446,7.972 35.185,4 30,4 28.791,4 27.611,4.217 26.481,4.646 24.213,1.722 20.728,0 17,0 10.383,0 5,5.383 5,12 5,12.116 5.002,12.231 5.007,12.345 1.902,14.13 0,17.388 0,21 0,26.514 4.486,31 10,31 h 4 z"
   id="path8"
   inkscape:connector-curvature="0"
   style="fill:#0072c6" />
<path
   d="M 16,25.75 V 35 l 7,4 V 23 Z m 6,1.079 V 36.5 l -1.5,-0.75 v -8.427 l -2,0.658 v 6.766 L 17,34 v -5.525 -1 l 3.5,-1.152 1.5,-0.494 z"
   id="path10"
   inkscape:connector-curvature="0"
   style="fill:#0072c6" />
</svg>