<?xml version="1.0" encoding="UTF-8" standalone="no"?>
<!-- Generator: Adobe Illustrator 19.1.0, SVG Export Plug-In . SVG Version: 6.00 Build 0)  -->

<svg
   xmlns:dc="http://purl.org/dc/elements/1.1/"
   xmlns:cc="http://creativecommons.org/ns#"
   xmlns:rdf="http://www.w3.org/1999/02/22-rdf-syntax-ns#"
   xmlns:svg="http://www.w3.org/2000/svg"
   xmlns="http://www.w3.org/2000/svg"
   xmlns:sodipodi="http://sodipodi.sourceforge.net/DTD/sodipodi-0.dtd"
   xmlns:inkscape="http://www.inkscape.org/namespaces/inkscape"
   version="1.1"
   id="Layer_1"
   x="0px"
   y="0px"
   width="50"
   height="50"
   viewBox="0 0 50 50"
   enable-background="new 0 0 50 50"
   xml:space="preserve"
   sodipodi:docname="AzCognativeServicesComputerVisionColor.svg"
   inkscape:version="0.92.4 (5da689c313, 2019-01-14)"><metadata
   id="metadata13"><rdf:RDF><cc:Work
       rdf:about=""><dc:format>image/svg+xml</dc:format><dc:type
         rdf:resource="http://purl.org/dc/dcmitype/StillImage" /></cc:Work></rdf:RDF></metadata><defs
   id="defs11" /><sodipodi:namedview
   pagecolor="#ffffff"
   bordercolor="#666666"
   borderopacity="1"
   objecttolerance="10"
   gridtolerance="10"
   guidetolerance="10"
   inkscape:pageopacity="0"
   inkscape:pageshadow="2"
   inkscape:window-width="713"
   inkscape:window-height="543"
   id="namedview9"
   showgrid="false"
   inkscape:zoom="4.72"
   inkscape:cx="25"
   inkscape:cy="25"
   inkscape:window-x="0"
   inkscape:window-y="0"
   inkscape:window-maximized="0"
   inkscape:current-layer="Layer_1" />
<rect
   y="0"
   width="50"
   height="50"
   id="rect2"
   x="0"
   style="fill:#009480" />
<path
   d="m 31.512,15.628 c -2.93,-1.395 -6.023,-2 -9.256,-1.256 -6.326,1.442 -10.651,5.651 -14.558,10.605 2.93,3.93 6.302,7.163 10.605,9.302 4.186,2.07 8.465,2.279 12.767,0.326 4.465,-2.023 7.93,-5.209 10.86,-9.047 0.14,-0.186 0.256,-0.395 0.395,-0.605 -2.953,-3.906 -6.372,-7.209 -10.813,-9.325 z"
   id="path4"
   inkscape:connector-curvature="0"
   style="fill:#ffffff" />
<path
   d="m 25.07,17.651 c -4.116,-0.023 -7.512,3.279 -7.558,7.372 -0.047,4.186 3.279,7.605 7.419,7.628 4.163,0.023 7.581,-3.326 7.581,-7.465 0,-4.139 -3.326,-7.512 -7.442,-7.535 z m -1,11.163 c -0.907,0 -1.814,0 -2.721,0 0,-0.907 0,-1.814 0,-2.721 0.907,0 1.814,0 2.721,0 0,0.884 0,1.791 0,2.721 z m 0,-4.605 c -0.907,0 -1.814,0 -2.721,0 0,-0.907 0,-1.814 0,-2.721 0.907,0 1.814,0 2.721,0 0,0.907 0,1.814 0,2.721 z m 4.604,4.605 c -0.907,0 -1.814,0 -2.721,0 0,-0.907 0,-1.814 0,-2.721 0.907,0 1.814,0 2.721,0 0,0.884 0,1.791 0,2.721 z m 0,-4.605 c -0.907,0 -1.814,0 -2.721,0 0,-0.907 0,-1.814 0,-2.744 0.907,0 1.814,0 2.721,0 0,0.93 0,1.837 0,2.744 z"
   id="path6"
   inkscape:connector-curvature="0"
   style="fill:#414141" />
</svg>