<?xml version="1.0" encoding="UTF-8" standalone="no"?>
<!-- Generator: Adobe Illustrator 19.1.0, SVG Export Plug-In . SVG Version: 6.00 Build 0)  -->

<svg
   xmlns:dc="http://purl.org/dc/elements/1.1/"
   xmlns:cc="http://creativecommons.org/ns#"
   xmlns:rdf="http://www.w3.org/1999/02/22-rdf-syntax-ns#"
   xmlns:svg="http://www.w3.org/2000/svg"
   xmlns="http://www.w3.org/2000/svg"
   xmlns:sodipodi="http://sodipodi.sourceforge.net/DTD/sodipodi-0.dtd"
   xmlns:inkscape="http://www.inkscape.org/namespaces/inkscape"
   version="1.1"
   id="Layer_1"
   x="0px"
   y="0px"
   width="50.001965"
   height="29.618"
   viewBox="0 0 50.001965 29.618"
   enable-background="new 0 0 50 50"
   xml:space="preserve"
   sodipodi:docname="AzCognativeServicesColor.svg"
   inkscape:version="0.92.4 (5da689c313, 2019-01-14)"><metadata
   id="metadata23"><rdf:RDF><cc:Work
       rdf:about=""><dc:format>image/svg+xml</dc:format><dc:type
         rdf:resource="http://purl.org/dc/dcmitype/StillImage" /></cc:Work></rdf:RDF></metadata><defs
   id="defs21" /><sodipodi:namedview
   pagecolor="#ffffff"
   bordercolor="#666666"
   borderopacity="1"
   objecttolerance="10"
   gridtolerance="10"
   guidetolerance="10"
   inkscape:pageopacity="0"
   inkscape:pageshadow="2"
   inkscape:window-width="713"
   inkscape:window-height="543"
   id="namedview19"
   showgrid="false"
   inkscape:zoom="4.72"
   inkscape:cx="25.001975"
   inkscape:cy="14.81"
   inkscape:window-x="0"
   inkscape:window-y="0"
   inkscape:window-maximized="0"
   inkscape:current-layer="Layer_1" />
<path
   d="m 49.384975,14.681 c -0.907,-2.15 -2.785,-3.97 -5.214,-5.083 -1.12,-3.765 -4.254,-7.53 -8.928,-7.53 -0.149,0 -0.299,0.004 -0.451,0.011 -1.949,-1.398 -3.843,-2.079 -5.771,-2.079 -1.162,0 -2.35,0.257 -3.541,0.764 -0.882,-0.462 -1.893,-0.703 -2.975,-0.703 -2.392,0 -4.661,1.105 -6.061,2.399 -0.441,-0.104 -0.9,-0.156 -1.374,-0.156 -3.568,0 -7.104,2.948 -8.06,6.522 -3.076,1.116 -5.322,3.143 -6.37699996,5.781 -1.023,2.559 -0.798,5.42 0.61699996,7.85 1.406,2.413 3.866,3.854 6.58,3.854 1.041,0 2.045,-0.213 2.96,-0.622 1.65,1.5 3.773,2.397 5.784,2.397 0.701,0 1.372,-0.104 2.007,-0.309 1.628,1.339 4.123,1.841 6.148,1.841 2.389,0 4.465,-0.631 5.841,-1.733 0.892,0.413 1.874,0.627 2.899,0.627 h 10e-4 c 2.563,0 5.212,-1.366 6.659,-3.265 0.807,0.331 1.656,0.502 2.515,0.502 0,0 0.001,0 0.001,0 2.801,-10e-4 5.402,-1.829 6.626,-4.658 0.934,-2.159 0.974,-4.375 0.114,-6.41 z"
   id="path2"
   inkscape:connector-curvature="0"
   style="fill:#009580" />
<path
   d="M 16.071975,28.064 V 19.26 c 0,-1.093 -0.889,-1.981 -1.981,-1.981 h -3.299 v 1.4 h 3.299 c 0.32,0 0.581,0.261 0.581,0.581 v 8.569 c 0.464,0.123 0.934,0.201 1.4,0.235 z"
   id="path4"
   inkscape:connector-curvature="0"
   style="fill:#ffffff" />
<path
   d="m 22.159975,13.004 h -4.432 c -0.32,0 -0.581,-0.261 -0.581,-0.581 V 1.884 c -0.252,0.186 -0.488,0.378 -0.702,0.576 -0.228,-0.054 -0.461,-0.093 -0.698,-0.119 v 10.082 c 0,1.093 0.889,1.981 1.981,1.981 h 4.432 c 0.32,0 0.58,0.26 0.58,0.58 v 3.282 h 1.4 v -3.282 c 0.001,-1.092 -0.888,-1.98 -1.98,-1.98 z"
   id="path6"
   inkscape:connector-curvature="0"
   style="fill:#ffffff" />
<path
   d="m 40.804975,18.602 v -1.256 h -1.401 v 1.256 c 0,0.32 -0.26,0.581 -0.58,0.581 h -5.612 V 9.142 c 0,-1.092 -0.888,-1.981 -1.981,-1.981 h -3.817 v 1.4 h 3.817 c 0.32,0 0.58,0.26 0.58,0.581 v 19.171 c 0.453,0.11 0.922,0.174 1.4,0.191 v -7.92 h 5.611 c 1.094,-0.001 1.983,-0.889 1.983,-1.982 z"
   id="path8"
   inkscape:connector-curvature="0"
   style="fill:#ffffff" />
<path
   d="m 23.440975,24.058 c -1.72,0 -3.12,-1.4 -3.12,-3.12 0,-1.721 1.4,-3.121 3.12,-3.121 1.721,0 3.12,1.4 3.12,3.121 0,1.72 -1.4,3.12 -3.12,3.12 z m 0,-4.946 c -1.006,0 -1.825,0.819 -1.825,1.826 0,1.007 0.819,1.826 1.825,1.826 1.007,0 1.825,-0.819 1.825,-1.826 0,-1.007 -0.819,-1.826 -1.825,-1.826 z"
   id="path10"
   inkscape:connector-curvature="0"
   style="fill:#ffffff" />
<path
   d="m 8.526975,21.088 c -1.721,0 -3.12,-1.4 -3.12,-3.121 0,-1.721 1.4,-3.12 3.12,-3.12 1.72,0 3.12,1.4 3.12,3.12 0,1.721 -1.399,3.121 -3.12,3.121 z m 0,-4.947 c -1.007,0 -1.825,0.819 -1.825,1.826 0,1.007 0.819,1.826 1.825,1.826 1.006,0 1.825,-0.819 1.825,-1.826 0.001,-1.007 -0.818,-1.826 -1.825,-1.826 z"
   id="path12"
   inkscape:connector-curvature="0"
   style="fill:#ffffff" />
<path
   d="m 40.115975,18.109 c -1.721,0 -3.12,-1.4 -3.12,-3.12 0,-1.721 1.4,-3.12 3.12,-3.12 1.72,0 3.12,1.4 3.12,3.12 0,1.721 -1.4,3.12 -3.12,3.12 z m 0,-4.945 c -1.007,0 -1.825,0.819 -1.825,1.825 0,1.006 0.819,1.826 1.825,1.826 1.006,0 1.825,-0.819 1.825,-1.826 0,-1.007 -0.819,-1.825 -1.825,-1.825 z"
   id="path14"
   inkscape:connector-curvature="0"
   style="fill:#ffffff" />
<path
   d="m 25.148975,10.969 c -1.721,0 -3.12,-1.4 -3.12,-3.12 0,-1.721 1.4,-3.12 3.12,-3.12 1.72,0 3.12,1.4 3.12,3.12 10e-4,1.72 -1.399,3.12 -3.12,3.12 z m 0,-4.946 c -1.007,0 -1.825,0.819 -1.825,1.826 0,1.006 0.819,1.825 1.825,1.825 1.006,0 1.825,-0.819 1.825,-1.825 0.001,-1.007 -0.818,-1.826 -1.825,-1.826 z"
   id="path16"
   inkscape:connector-curvature="0"
   style="fill:#ffffff" />
</svg>