<?xml version="1.0" encoding="UTF-8" standalone="no"?>
<!-- Generator: Adobe Illustrator 19.1.0, SVG Export Plug-In . SVG Version: 6.00 Build 0)  -->

<svg
   xmlns:dc="http://purl.org/dc/elements/1.1/"
   xmlns:cc="http://creativecommons.org/ns#"
   xmlns:rdf="http://www.w3.org/1999/02/22-rdf-syntax-ns#"
   xmlns:svg="http://www.w3.org/2000/svg"
   xmlns="http://www.w3.org/2000/svg"
   xmlns:sodipodi="http://sodipodi.sourceforge.net/DTD/sodipodi-0.dtd"
   xmlns:inkscape="http://www.inkscape.org/namespaces/inkscape"
   version="1.1"
   id="Layer_1"
   x="0px"
   y="0px"
   viewBox="-267 358.6 76.4 76.4"
   xml:space="preserve"
   sodipodi:docname="AzCortanaManagementSuite.svg"
   width="76.400002"
   height="76.400002"
   inkscape:version="0.92.4 (5da689c313, 2019-01-14)"><metadata
   id="metadata19"><rdf:RDF><cc:Work
       rdf:about=""><dc:format>image/svg+xml</dc:format><dc:type
         rdf:resource="http://purl.org/dc/dcmitype/StillImage" /></cc:Work></rdf:RDF></metadata><defs
   id="defs17" /><sodipodi:namedview
   pagecolor="#ffffff"
   bordercolor="#666666"
   borderopacity="1"
   objecttolerance="10"
   gridtolerance="10"
   guidetolerance="10"
   inkscape:pageopacity="0"
   inkscape:pageshadow="2"
   inkscape:window-width="713"
   inkscape:window-height="543"
   id="namedview15"
   showgrid="false"
   inkscape:zoom="3.0890052"
   inkscape:cx="38.200001"
   inkscape:cy="38.199999"
   inkscape:window-x="0"
   inkscape:window-y="0"
   inkscape:window-maximized="0"
   inkscape:current-layer="Layer_1" />
<style
   type="text/css"
   id="style2">
	.st0{opacity:0.4;}
	.st1{fill:#0079D6;}
</style>
<g
   id="g12">
	<g
   class="st0"
   id="g8"
   style="opacity:0.4">
		<g
   id="g6">
			<path
   class="st1"
   d="m -228.8,358.6 c 3.5,0 6.9,0.5 10.1,1.4 3.3,0.9 6.3,2.2 9.1,3.9 2.8,1.7 5.4,3.7 7.7,6 2.3,2.3 4.3,4.9 6,7.7 1.7,2.8 3,5.9 3.9,9.1 0.9,3.3 1.4,6.6 1.4,10.1 0,3.5 -0.5,6.9 -1.4,10.1 -0.9,3.3 -2.2,6.3 -3.9,9.1 -1.7,2.8 -3.7,5.4 -6,7.7 -2.3,2.3 -4.9,4.3 -7.7,6 -2.8,1.7 -5.9,3 -9.1,3.9 -3.3,0.9 -6.6,1.4 -10.1,1.4 -3.5,0 -6.9,-0.5 -10.1,-1.4 -3.3,-0.9 -6.3,-2.2 -9.1,-3.9 -2.8,-1.7 -5.4,-3.7 -7.7,-6 -2.3,-2.3 -4.3,-4.9 -6,-7.7 -1.7,-2.8 -3,-5.9 -3.9,-9.1 -0.9,-3.2 -1.4,-6.6 -1.4,-10.1 0,-3.5 0.5,-6.9 1.4,-10.1 0.9,-3.3 2.2,-6.3 3.9,-9.1 1.7,-2.8 3.7,-5.4 6,-7.7 2.3,-2.3 4.9,-4.3 7.7,-6 2.8,-1.7 5.9,-3 9.1,-3.9 3.2,-0.9 6.6,-1.4 10.1,-1.4 m 0,71.2 c 3,0 6,-0.4 8.8,-1.2 2.8,-0.8 5.4,-1.9 7.9,-3.3 2.4,-1.4 4.7,-3.2 6.7,-5.2 2,-2 3.7,-4.2 5.2,-6.7 1.4,-2.4 2.5,-5.1 3.3,-7.9 0.8,-2.8 1.2,-5.7 1.2,-8.8 0,-3.1 -0.4,-6 -1.2,-8.8 -0.8,-2.8 -1.9,-5.4 -3.3,-7.9 -1.4,-2.4 -3.2,-4.7 -5.2,-6.7 -2,-2 -4.2,-3.7 -6.7,-5.2 -2.4,-1.4 -5.1,-2.5 -7.9,-3.3 -2.8,-0.8 -5.7,-1.2 -8.8,-1.2 -3,0 -6,0.4 -8.8,1.2 -2.8,0.8 -5.4,1.9 -7.9,3.3 -2.4,1.4 -4.7,3.2 -6.7,5.2 -2,2 -3.7,4.2 -5.2,6.7 -1.4,2.4 -2.5,5.1 -3.3,7.9 -0.8,2.8 -1.2,5.7 -1.2,8.8 0,3.1 0.4,6 1.2,8.8 0.8,2.8 1.9,5.4 3.3,7.9 1.4,2.4 3.2,4.7 5.2,6.7 2,2 4.2,3.7 6.7,5.2 2.4,1.4 5.1,2.5 7.9,3.3 2.9,0.8 5.8,1.2 8.8,1.2"
   id="path4"
   inkscape:connector-curvature="0"
   style="fill:#0079d6" />
		</g>
	</g>
	<path
   class="st1"
   d="m -228.8,363.4 c 3.1,0 6.1,0.4 8.9,1.2 2.8,0.8 5.5,1.9 8,3.4 2.5,1.5 4.7,3.2 6.8,5.2 2,2 3.8,4.3 5.2,6.8 1.5,2.5 2.6,5.1 3.4,8 0.8,2.8 1.2,5.8 1.2,8.9 0,3.1 -0.4,6.1 -1.2,8.9 -0.8,2.8 -1.9,5.5 -3.4,8 -1.5,2.5 -3.2,4.7 -5.2,6.8 -2,2 -4.3,3.8 -6.8,5.2 -2.5,1.5 -5.1,2.6 -8,3.4 -2.8,0.8 -5.8,1.2 -8.9,1.2 -3.1,0 -6.1,-0.4 -8.9,-1.2 -2.8,-0.8 -5.5,-1.9 -8,-3.4 -2.5,-1.5 -4.7,-3.2 -6.8,-5.2 -2,-2 -3.8,-4.3 -5.2,-6.8 -1.5,-2.5 -2.6,-5.1 -3.4,-8 -0.8,-2.8 -1.2,-5.8 -1.2,-8.9 0,-3.1 0.4,-6.1 1.2,-8.9 0.8,-2.8 1.9,-5.5 3.4,-8 1.5,-2.5 3.2,-4.7 5.2,-6.8 2,-2 4.3,-3.8 6.8,-5.2 2.5,-1.5 5.1,-2.6 8,-3.4 2.9,-0.8 5.8,-1.2 8.9,-1.2 m 0,60.3 c 2.5,0 4.8,-0.3 7.1,-1 2.3,-0.6 4.4,-1.5 6.4,-2.7 2,-1.2 3.8,-2.6 5.4,-4.2 1.6,-1.6 3,-3.5 4.2,-5.4 1.2,-2 2.1,-4.1 2.7,-6.4 0.6,-2.3 1,-4.7 1,-7.2 0,-2.5 -0.3,-4.8 -1,-7.1 -0.6,-2.3 -1.5,-4.4 -2.7,-6.4 -1.2,-2 -2.6,-3.8 -4.2,-5.4 -1.6,-1.6 -3.5,-3 -5.4,-4.2 -2,-1.2 -4.1,-2.1 -6.4,-2.7 -2.3,-0.6 -4.7,-1 -7.1,-1 -2.5,0 -4.8,0.3 -7.1,1 -2.3,0.6 -4.4,1.5 -6.4,2.7 -2,1.2 -3.8,2.6 -5.4,4.2 -1.6,1.6 -3,3.5 -4.2,5.4 -1.2,2 -2.1,4.1 -2.7,6.4 -0.6,2.3 -1,4.7 -1,7.1 0,2.5 0.3,4.8 1,7.1 0.6,2.3 1.5,4.4 2.7,6.4 1.2,2 2.6,3.8 4.2,5.4 1.6,1.6 3.5,3 5.4,4.2 2,1.2 4.1,2.1 6.4,2.7 2.2,0.8 4.6,1.1 7.1,1.1"
   id="path10"
   inkscape:connector-curvature="0"
   style="fill:#0079d6" />
</g>
</svg>