<?xml version="1.0" encoding="UTF-8" standalone="no"?>
<!-- Generator: Adobe Illustrator 19.1.0, SVG Export Plug-In . SVG Version: 6.00 Build 0)  -->

<svg
   xmlns:dc="http://purl.org/dc/elements/1.1/"
   xmlns:cc="http://creativecommons.org/ns#"
   xmlns:rdf="http://www.w3.org/1999/02/22-rdf-syntax-ns#"
   xmlns:svg="http://www.w3.org/2000/svg"
   xmlns="http://www.w3.org/2000/svg"
   xmlns:sodipodi="http://sodipodi.sourceforge.net/DTD/sodipodi-0.dtd"
   xmlns:inkscape="http://www.inkscape.org/namespaces/inkscape"
   version="1.1"
   id="Layer_1"
   x="0px"
   y="0px"
   viewBox="-280 372 50.091961 29.6"
   xml:space="preserve"
   sodipodi:docname="AzCognativeServices.svg"
   width="50.091961"
   height="29.6"
   inkscape:version="0.92.4 (5da689c313, 2019-01-14)"><metadata
   id="metadata25"><rdf:RDF><cc:Work
       rdf:about=""><dc:format>image/svg+xml</dc:format><dc:type
         rdf:resource="http://purl.org/dc/dcmitype/StillImage" /></cc:Work></rdf:RDF></metadata><defs
   id="defs23" /><sodipodi:namedview
   pagecolor="#ffffff"
   bordercolor="#666666"
   borderopacity="1"
   objecttolerance="10"
   gridtolerance="10"
   guidetolerance="10"
   inkscape:pageopacity="0"
   inkscape:pageshadow="2"
   inkscape:window-width="713"
   inkscape:window-height="543"
   id="namedview21"
   showgrid="false"
   inkscape:zoom="4.72"
   inkscape:cx="25.125"
   inkscape:cy="14.8"
   inkscape:window-x="0"
   inkscape:window-y="0"
   inkscape:window-maximized="0"
   inkscape:current-layer="Layer_1" />
<style
   type="text/css"
   id="style2">
	.st0{fill:#0078D7;}
	.st1{fill:#FFFFFF;}
</style>
<path
   class="st0"
   d="m -230.475,386.7 c -0.9,-2.1 -2.8,-4 -5.2,-5.1 -1.1,-3.8 -4.3,-7.5 -8.9,-7.5 -0.1,0 -0.3,0 -0.5,0 -1.9,-1.4 -3.8,-2.1 -5.8,-2.1 -1.2,0 -2.4,0.3 -3.5,0.8 -0.9,-0.5 -1.9,-0.7 -3,-0.7 -2.4,0 -4.7,1.1 -6.1,2.4 -0.4,-0.1 -0.9,-0.2 -1.4,-0.2 -3.6,0 -7.1,2.9 -8.1,6.5 -3.1,1.1 -5.3,3.1 -6.4,5.8 -1,2.6 -0.8,5.4 0.6,7.8 1.4,2.4 3.9,3.9 6.6,3.9 1,0 2,-0.2 3,-0.6 1.6,1.5 3.8,2.4 5.8,2.4 0.7,0 1.4,-0.1 2,-0.3 1.6,1.3 4.1,1.8 6.1,1.8 2.4,0 4.5,-0.6 5.8,-1.7 0.9,0.4 1.9,0.6 2.9,0.6 v 0 c 2.6,0 5.2,-1.4 6.7,-3.3 0.8,0.3 1.7,0.5 2.5,0.5 v 0 c 2.8,0 5.4,-1.8 6.6,-4.7 1.1,-2.1 1.1,-4.3 0.3,-6.3 z"
   id="path4"
   inkscape:connector-curvature="0"
   style="fill:#0078d7" />
<path
   class="st1"
   d="m -263.775,400.1 v -8.8 c 0,-1.1 -0.9,-2 -2,-2 h -3.3 v 1.4 h 3.3 c 0.3,0 0.6,0.3 0.6,0.6 v 8.6 c 0.4,0 0.9,0.1 1.4,0.2 z"
   id="path6"
   inkscape:connector-curvature="0"
   style="fill:#ffffff" />
<path
   class="st1"
   d="m -257.675,385 h -4.4 c -0.3,0 -0.6,-0.3 -0.6,-0.6 v -10.5 c -0.3,0.2 -0.5,0.4 -0.7,0.6 -0.2,-0.1 -0.5,-0.1 -0.7,-0.1 v 10.1 c 0,1.1 0.9,2 2,2 h 4.4 c 0.3,0 0.6,0.3 0.6,0.6 v 3.3 h 1.4 v -3.3 c -0.1,-1.2 -1,-2.1 -2,-2.1 z"
   id="path8"
   inkscape:connector-curvature="0"
   style="fill:#ffffff" />
<path
   class="st1"
   d="m -239.075,390.6 v -1.3 h -1.4 v 1.3 c 0,0.3 -0.3,0.6 -0.6,0.6 h -5.6 v -10 c 0,-1.1 -0.9,-2 -2,-2 h -3.8 v 1.4 h 3.8 c 0.3,0 0.6,0.3 0.6,0.6 v 19.2 c 0.5,0.1 0.9,0.2 1.4,0.2 v -7.9 h 5.6 c 1.1,-0.1 2,-1 2,-2.1 z"
   id="path10"
   inkscape:connector-curvature="0"
   style="fill:#ffffff" />
<path
   class="st1"
   d="m -256.475,396.1 c -1.7,0 -3.1,-1.4 -3.1,-3.1 0,-1.7 1.4,-3.1 3.1,-3.1 1.7,0 3.1,1.4 3.1,3.1 0.1,1.7 -1.3,3.1 -3.1,3.1 z m 0,-5 c -1,0 -1.8,0.8 -1.8,1.8 0,1 0.8,1.8 1.8,1.8 1,0 1.8,-0.8 1.8,-1.8 0.1,-1 -0.8,-1.8 -1.8,-1.8 z"
   id="path12"
   inkscape:connector-curvature="0"
   style="fill:#ffffff" />
<path
   class="st1"
   d="m -271.375,393.1 c -1.7,0 -3.1,-1.4 -3.1,-3.1 0,-1.7 1.4,-3.1 3.1,-3.1 1.7,0 3.1,1.4 3.1,3.1 0,1.7 -1.4,3.1 -3.1,3.1 z m 0,-5 c -1,0 -1.8,0.8 -1.8,1.8 0,1 0.8,1.8 1.8,1.8 1,0 1.8,-0.8 1.8,-1.8 0.1,-0.9 -0.8,-1.8 -1.8,-1.8 z"
   id="path14"
   inkscape:connector-curvature="0"
   style="fill:#ffffff" />
<path
   class="st1"
   d="m -239.775,390.1 c -1.7,0 -3.1,-1.4 -3.1,-3.1 0,-1.7 1.4,-3.1 3.1,-3.1 1.7,0 3.1,1.4 3.1,3.1 0,1.7 -1.4,3.1 -3.1,3.1 z m 0,-4.9 c -1,0 -1.8,0.8 -1.8,1.8 0,1 0.8,1.8 1.8,1.8 1,0 1.8,-0.8 1.8,-1.8 0,-1 -0.8,-1.8 -1.8,-1.8 z"
   id="path16"
   inkscape:connector-curvature="0"
   style="fill:#ffffff" />
<path
   class="st1"
   d="m -254.775,383 c -1.7,0 -3.1,-1.4 -3.1,-3.1 0,-1.7 1.4,-3.1 3.1,-3.1 1.7,0 3.1,1.4 3.1,3.1 0.1,1.7 -1.3,3.1 -3.1,3.1 z m 0,-5 c -1,0 -1.8,0.8 -1.8,1.8 0,1 0.8,1.8 1.8,1.8 1,0 1.8,-0.8 1.8,-1.8 0.1,-1 -0.7,-1.8 -1.8,-1.8 z"
   id="path18"
   inkscape:connector-curvature="0"
   style="fill:#ffffff" />
</svg>