<?xml version="1.0" encoding="UTF-8" standalone="no"?>
<!-- Generator: Adobe Illustrator 17.0.1, SVG Export Plug-In . SVG Version: 6.00 Build 0)  -->

<svg
   xmlns:dc="http://purl.org/dc/elements/1.1/"
   xmlns:cc="http://creativecommons.org/ns#"
   xmlns:rdf="http://www.w3.org/1999/02/22-rdf-syntax-ns#"
   xmlns:svg="http://www.w3.org/2000/svg"
   xmlns="http://www.w3.org/2000/svg"
   xmlns:sodipodi="http://sodipodi.sourceforge.net/DTD/sodipodi-0.dtd"
   xmlns:inkscape="http://www.inkscape.org/namespaces/inkscape"
   version="1.1"
   id="Layer_1"
   x="0px"
   y="0px"
   width="37.486"
   height="49.688"
   viewBox="0 0 37.486 49.688"
   enable-background="new 0 0 50 50"
   xml:space="preserve"
   sodipodi:docname="AzDatabaseGeneral.svg"
   inkscape:version="0.92.4 (5da689c313, 2019-01-14)"><metadata
   id="metadata25"><rdf:RDF><cc:Work
       rdf:about=""><dc:format>image/svg+xml</dc:format><dc:type
         rdf:resource="http://purl.org/dc/dcmitype/StillImage" /></cc:Work></rdf:RDF></metadata><defs
   id="defs23" /><sodipodi:namedview
   pagecolor="#ffffff"
   bordercolor="#666666"
   borderopacity="1"
   objecttolerance="10"
   gridtolerance="10"
   guidetolerance="10"
   inkscape:pageopacity="0"
   inkscape:pageshadow="2"
   inkscape:window-width="713"
   inkscape:window-height="543"
   id="namedview21"
   showgrid="false"
   inkscape:zoom="4.72"
   inkscape:cx="19"
   inkscape:cy="24.688"
   inkscape:window-x="0"
   inkscape:window-y="0"
   inkscape:window-maximized="0"
   inkscape:current-layer="Layer_1" />
<path
   d="m 0,6.788 v 36.111 c 0,3.749 8.392,6.789 18.743,6.789 v -42.9 c 0,0 -18.743,0 -18.743,0 z"
   id="path2"
   inkscape:connector-curvature="0"
   style="fill:#3999c6" />
<path
   d="m 18.486,49.687 h 0.257 c 10.351,0 18.743,-3.038 18.743,-6.788 V 6.788 h -19 z"
   id="path4"
   inkscape:connector-curvature="0"
   style="fill:#59b4d9" />
<path
   d="m 37.486,6.788 c 0,3.749 -8.392,6.788 -18.743,6.788 C 8.392,13.576 0,10.537 0,6.788 0,3.039 8.392,0 18.743,0 29.094,0 37.486,3.039 37.486,6.788"
   id="path6"
   inkscape:connector-curvature="0"
   style="fill:#ffffff" />
<path
   d="m 33.654,6.397 c 0,2.475 -6.676,4.479 -14.911,4.479 -8.235,0 -14.912,-2.004 -14.912,-4.479 0,-2.474 6.677,-4.479 14.912,-4.479 8.235,0 14.911,2.005 14.911,4.479"
   id="path8"
   inkscape:connector-curvature="0"
   style="fill:#7fba00" />
<path
   d="m 30.53,9.134 c 1.952,-0.757 3.125,-1.705 3.125,-2.735 0,-2.475 -6.676,-4.48 -14.912,-4.48 -8.235,0 -14.911,2.005 -14.911,4.48 0,1.03 1.173,1.978 3.125,2.735 2.726,-1.058 6.986,-1.741 11.786,-1.741 4.801,0 9.059,0.683 11.787,1.741"
   id="path10"
   inkscape:connector-curvature="0"
   style="fill:#b8d432" />
<path
   d="m 30.857,36.068 c -1.003,0.836 -2.362,1.256 -4.128,1.256 h -5.89 V 21.961 h 5.587 c 1.759,0 3.107,0.321 4.034,0.986 0.868,0.624 1.303,1.497 1.303,2.612 0,0.889 -0.317,1.645 -0.964,2.31 -0.551,0.55 -1.213,0.93 -2.029,1.153 v 0.036 c 1.095,0.135 1.989,0.552 2.655,1.253 0.623,0.665 0.944,1.481 0.944,2.424 0.004,1.405 -0.508,2.505 -1.512,3.333 M 16.502,35.163 c -1.474,1.442 -3.464,2.161 -5.947,2.161 H 5.117 V 21.961 h 5.438 c 5.455,0 8.183,2.483 8.183,7.48 0,2.389 -0.738,4.301 -2.236,5.722"
   id="path12"
   inkscape:connector-curvature="0"
   style="fill:#ffffff" />
<path
   d="M 10.271,24.765 H 8.567 v 9.754 h 1.724 c 1.515,0 2.689,-0.474 3.558,-1.383 0.832,-0.909 1.253,-2.121 1.253,-3.654 0,-1.439 -0.421,-2.573 -1.234,-3.413 -0.853,-0.868 -2.046,-1.304 -3.597,-1.304"
   id="path14"
   inkscape:connector-curvature="0"
   style="fill:#3999c6" />
<path
   d="m 27.485,27.628 c 0.416,-0.362 0.624,-0.836 0.624,-1.424 0,-1.139 -0.832,-1.706 -2.52,-1.706 h -1.302 v 3.64 h 1.533 c 0.701,0 1.269,-0.175 1.665,-0.51"
   id="path16"
   inkscape:connector-curvature="0"
   style="fill:#59b4d9" />
<path
   d="m 28.054,31.241 c -0.456,-0.339 -1.076,-0.53 -1.877,-0.53 h -1.893 v 4.052 h 1.875 c 0.797,0 1.439,-0.189 1.913,-0.568 0.435,-0.38 0.661,-0.869 0.661,-1.515 0.004,-0.607 -0.223,-1.099 -0.679,-1.439"
   id="path18"
   inkscape:connector-curvature="0"
   style="fill:#59b4d9" />
</svg>