<?xml version="1.0" encoding="UTF-8" standalone="no"?>
<!-- Generator: Adobe Illustrator 17.1.0, SVG Export Plug-In . SVG Version: 6.00 Build 0)  -->

<svg
   xmlns:dc="http://purl.org/dc/elements/1.1/"
   xmlns:cc="http://creativecommons.org/ns#"
   xmlns:rdf="http://www.w3.org/1999/02/22-rdf-syntax-ns#"
   xmlns:svg="http://www.w3.org/2000/svg"
   xmlns="http://www.w3.org/2000/svg"
   xmlns:sodipodi="http://sodipodi.sourceforge.net/DTD/sodipodi-0.dtd"
   xmlns:inkscape="http://www.inkscape.org/namespaces/inkscape"
   version="1.1"
   id="Layer_1"
   x="0px"
   y="0px"
   width="47"
   height="50.200001"
   viewBox="0 0 47 50.200001"
   enable-background="new 0 0 50 50"
   xml:space="preserve"
   sodipodi:docname="AzDataCatalog.svg"
   inkscape:version="0.92.4 (5da689c313, 2019-01-14)"><metadata
   id="metadata29"><rdf:RDF><cc:Work
       rdf:about=""><dc:format>image/svg+xml</dc:format><dc:type
         rdf:resource="http://purl.org/dc/dcmitype/StillImage" /></cc:Work></rdf:RDF></metadata><defs
   id="defs27" /><sodipodi:namedview
   pagecolor="#ffffff"
   bordercolor="#666666"
   borderopacity="1"
   objecttolerance="10"
   gridtolerance="10"
   guidetolerance="10"
   inkscape:pageopacity="0"
   inkscape:pageshadow="2"
   inkscape:window-width="713"
   inkscape:window-height="543"
   id="namedview25"
   showgrid="false"
   inkscape:zoom="4.72"
   inkscape:cx="24"
   inkscape:cy="25.2"
   inkscape:window-x="0"
   inkscape:window-y="0"
   inkscape:window-maximized="0"
   inkscape:current-layer="Layer_1" />
<path
   d="m 35.7,35.7 h 1.6 V 0 H 8.1 6 C 5,0.1 2.9,2.6 2.9,2.9 c 0,0.1 0,34.5 0,34.5 0,1 0.8,1.9 1.9,1.9 h 28.5 v -0.6 z"
   id="path2"
   inkscape:connector-curvature="0"
   style="fill:#0072c6" />
<path
   d="m 7.4,1.6 c -0.9,0 -1.2,0.1 -2,0.8 -1.7,1.5 0.4,1.5 1.2,1.5 h 26.7 v 34.8 l 2.4,-3.1 v -34 z"
   id="path4"
   inkscape:connector-curvature="0"
   style="fill:#e5e5e5" />
<polygon
   enable-background="new    "
   points="36.7,1.6 34.3,3.9 34.3,38.7 36.7,35.7 "
   id="polygon6"
   style="opacity:0.5;fill:#a0a1a2"
   transform="translate(-1)" />
<path
   d="M 7.4,21.2 C 7.4,22 6.8,22.6 6,22.6 H 1.4 C 0.6,22.6 0,22 0,21.2 v 0 C 0,20.4 0.6,19.8 1.4,19.8 H 6 c 0.8,-0.1 1.4,0.6 1.4,1.4 z"
   id="path8"
   inkscape:connector-curvature="0"
   style="fill:#a0a1a2" />
<path
   d="m 7.4,10.9 c 0,0.8 -0.6,1.4 -1.4,1.4 H 1.4 C 0.6,12.3 0,11.7 0,10.9 v 0 C 0,10.1 0.6,9.5 1.4,9.5 H 6 c 0.8,0 1.4,0.7 1.4,1.4 z"
   id="path10"
   inkscape:connector-curvature="0"
   style="fill:#a0a1a2" />
<path
   d="m 7.4,31.4 c 0,0.8 -0.6,1.4 -1.4,1.4 H 1.4 C 0.6,32.8 0,32.2 0,31.4 v 0 C 0,30.6 0.6,30 1.4,30 H 6 c 0.8,0 1.4,0.6 1.4,1.4 z"
   id="path12"
   inkscape:connector-curvature="0"
   style="fill:#a0a1a2" />
<path
   d="m 22.6,22.2 v 23.5 c 0,2.4 5.5,4.4 12.2,4.4 v -28 H 22.6 Z"
   id="path14"
   inkscape:connector-curvature="0"
   style="fill:#3999c6" />
<path
   d="m 34.6,50.2 h 0.2 c 6.7,0 12.2,-2 12.2,-4.4 V 22.2 H 34.6 Z"
   id="path16"
   inkscape:connector-curvature="0"
   style="fill:#59b4d9" />
<path
   d="m 47,22.2 c 0,2.4 -5.5,4.4 -12.2,4.4 -6.7,0 -12.2,-2 -12.2,-4.4 0,-2.4 5.5,-4.4 12.2,-4.4 6.7,0 12.2,2 12.2,4.4"
   id="path18"
   inkscape:connector-curvature="0"
   style="fill:#ffffff" />
<path
   d="m 44.5,21.9 c 0,1.6 -4.4,2.9 -9.7,2.9 -5.3,0 -9.7,-1.3 -9.7,-2.9 0,-1.6 4.4,-2.9 9.7,-2.9 5.3,0 9.7,1.3 9.7,2.9"
   id="path20"
   inkscape:connector-curvature="0"
   style="fill:#7fba00" />
<path
   d="m 42.5,23.7 c 1.3,-0.5 2,-1.1 2,-1.8 0,-1.6 -4.4,-2.9 -9.7,-2.9 -5.4,0 -9.7,1.3 -9.7,2.9 0,0.7 0.8,1.3 2,1.8 1.8,-0.7 4.6,-1.1 7.7,-1.1 3.1,0 5.9,0.4 7.7,1.1"
   id="path22"
   inkscape:connector-curvature="0"
   style="fill:#b8d432" />
</svg>