<?xml version="1.0" encoding="UTF-8" standalone="no"?>
<!-- Generator: Adobe Illustrator 19.1.0, SVG Export Plug-In . SVG Version: 6.00 Build 0)  -->

<svg
   xmlns:dc="http://purl.org/dc/elements/1.1/"
   xmlns:cc="http://creativecommons.org/ns#"
   xmlns:rdf="http://www.w3.org/1999/02/22-rdf-syntax-ns#"
   xmlns:svg="http://www.w3.org/2000/svg"
   xmlns="http://www.w3.org/2000/svg"
   xmlns:sodipodi="http://sodipodi.sourceforge.net/DTD/sodipodi-0.dtd"
   xmlns:inkscape="http://www.inkscape.org/namespaces/inkscape"
   version="1.1"
   id="Layer_1"
   x="0px"
   y="0px"
   width="37.486"
   height="49.688"
   viewBox="-454 256 37.486 49.688"
   enable-background="new -454 256 50 50"
   xml:space="preserve"
   sodipodi:docname="AzDataServicesCategoryRollup.svg"
   inkscape:version="0.92.4 (5da689c313, 2019-01-14)"><metadata
   id="metadata25"><rdf:RDF><cc:Work
       rdf:about=""><dc:format>image/svg+xml</dc:format><dc:type
         rdf:resource="http://purl.org/dc/dcmitype/StillImage" /></cc:Work></rdf:RDF></metadata><defs
   id="defs23" /><sodipodi:namedview
   pagecolor="#ffffff"
   bordercolor="#666666"
   borderopacity="1"
   objecttolerance="10"
   gridtolerance="10"
   guidetolerance="10"
   inkscape:pageopacity="0"
   inkscape:pageshadow="2"
   inkscape:window-width="713"
   inkscape:window-height="543"
   id="namedview21"
   showgrid="false"
   inkscape:zoom="4.72"
   inkscape:cx="19"
   inkscape:cy="24.688"
   inkscape:window-x="0"
   inkscape:window-y="0"
   inkscape:window-maximized="0"
   inkscape:current-layer="Layer_1" />
<path
   d="m -454,262.788 v 36.111 c 0,3.749 8.392,6.789 18.743,6.789 v -42.9 c 0,0 -18.743,0 -18.743,0 z"
   id="path2"
   inkscape:connector-curvature="0"
   style="fill:#3999c6" />
<path
   d="m -435.514,305.687 h 0.257 c 10.351,0 18.743,-3.038 18.743,-6.788 v -36.111 h -19 z"
   id="path4"
   inkscape:connector-curvature="0"
   style="fill:#59b4d9" />
<path
   d="m -416.514,262.788 c 0,3.749 -8.392,6.788 -18.743,6.788 -10.351,0 -18.743,-3.039 -18.743,-6.788 0,-3.749 8.392,-6.788 18.743,-6.788 10.351,0 18.743,3.039 18.743,6.788"
   id="path6"
   inkscape:connector-curvature="0"
   style="fill:#ffffff" />
<path
   d="m -420.346,262.397 c 0,2.475 -6.676,4.479 -14.911,4.479 -8.235,0 -14.912,-2.004 -14.912,-4.479 0,-2.474 6.677,-4.479 14.912,-4.479 8.235,0 14.911,2.005 14.911,4.479"
   id="path8"
   inkscape:connector-curvature="0"
   style="fill:#7fba00" />
<path
   d="m -423.47,265.134 c 1.952,-0.757 3.125,-1.705 3.125,-2.735 0,-2.475 -6.676,-4.48 -14.912,-4.48 -8.235,0 -14.911,2.005 -14.911,4.48 0,1.03 1.173,1.978 3.125,2.735 2.726,-1.058 6.986,-1.741 11.786,-1.741 4.801,0 9.059,0.683 11.787,1.741"
   id="path10"
   inkscape:connector-curvature="0"
   style="fill:#b8d432" />
<path
   d="m -443.729,280.765 h -1.704 v 9.754 h 1.724 c 1.515,0 2.689,-0.474 3.558,-1.383 0.832,-0.909 1.253,-2.121 1.253,-3.654 0,-1.439 -0.421,-2.573 -1.234,-3.413 -0.853,-0.868 -2.046,-1.304 -3.597,-1.304"
   id="path12"
   inkscape:connector-curvature="0"
   style="fill:#3999c6" />
<path
   d="m -426.515,283.628 c 0.416,-0.362 0.624,-0.836 0.624,-1.424 0,-1.139 -0.832,-1.706 -2.52,-1.706 h -1.302 v 3.64 h 1.533 c 0.701,0 1.269,-0.175 1.665,-0.51"
   id="path14"
   inkscape:connector-curvature="0"
   style="fill:#59b4d9" />
<path
   d="m -425.946,287.241 c -0.456,-0.339 -1.076,-0.53 -1.877,-0.53 h -1.893 v 4.052 h 1.875 c 0.797,0 1.439,-0.189 1.913,-0.568 0.435,-0.38 0.661,-0.869 0.661,-1.515 0.004,-0.607 -0.223,-1.099 -0.679,-1.439"
   id="path16"
   inkscape:connector-curvature="0"
   style="fill:#59b4d9" />
<path
   d="m -436.917,276.561 c 0.687,0.729 1.206,1.458 1.556,2.187 0.252,0.504 0.666,1.829 1.241,3.974 l 1.85,-2.775 c 0.49,-0.673 1.086,-1.314 1.787,-1.924 0.701,-0.61 1.318,-1.027 1.85,-1.251 0.336,-0.14 0.708,-0.21 1.115,-0.21 0.603,0 1.083,0.161 1.44,0.484 0.358,0.323 0.536,0.715 0.536,1.178 0,0.533 -0.105,0.897 -0.315,1.093 -0.393,0.35 -0.841,0.526 -1.346,0.526 -0.294,0 -0.61,-0.063 -0.946,-0.189 -0.659,-0.224 -1.101,-0.336 -1.324,-0.336 -0.336,0 -0.736,0.197 -1.198,0.589 -0.869,0.729 -1.906,2.138 -3.112,4.226 l 1.724,7.233 c 0.267,1.107 0.49,1.77 0.673,1.987 0.182,0.218 0.364,0.326 0.547,0.326 0.294,0 0.638,-0.161 1.03,-0.484 0.771,-0.645 1.43,-1.486 1.977,-2.523 l 0.736,0.378 c -0.883,1.654 -2.004,3.028 -3.364,4.121 -0.771,0.617 -1.423,0.925 -1.955,0.925 -0.785,0 -1.409,-0.441 -1.872,-1.324 -0.294,-0.547 -0.904,-2.902 -1.829,-7.065 -2.187,3.799 -3.939,6.245 -5.257,7.338 -0.855,0.701 -1.682,1.051 -2.481,1.051 -0.561,0 -1.072,-0.203 -1.535,-0.61 -0.336,-0.308 -0.504,-0.722 -0.504,-1.241 0,-0.463 0.154,-0.848 0.463,-1.156 0.308,-0.308 0.687,-0.463 1.135,-0.463 0.449,0 0.925,0.224 1.43,0.673 0.364,0.323 0.645,0.484 0.841,0.484 0.168,0 0.385,-0.112 0.652,-0.336 0.659,-0.533 1.556,-1.682 2.691,-3.448 1.135,-1.766 1.878,-3.041 2.229,-3.827 -0.869,-3.406 -1.339,-5.207 -1.409,-5.404 -0.322,-0.911 -0.743,-1.556 -1.261,-1.935 -0.518,-0.379 -1.283,-0.567 -2.292,-0.567 -0.322,0 -0.694,0.014 -1.115,0.042 v -0.757 z"
   id="path18"
   inkscape:connector-curvature="0"
   style="fill:#ffffff" />
</svg>