<?xml version="1.0" encoding="UTF-8" standalone="no"?>
<!-- Generator: Adobe Illustrator 18.1.1, SVG Export Plug-In . SVG Version: 6.00 Build 0)  -->

<svg
   xmlns:dc="http://purl.org/dc/elements/1.1/"
   xmlns:cc="http://creativecommons.org/ns#"
   xmlns:rdf="http://www.w3.org/1999/02/22-rdf-syntax-ns#"
   xmlns:svg="http://www.w3.org/2000/svg"
   xmlns="http://www.w3.org/2000/svg"
   xmlns:sodipodi="http://sodipodi.sourceforge.net/DTD/sodipodi-0.dtd"
   xmlns:inkscape="http://www.inkscape.org/namespaces/inkscape"
   version="1.1"
   id="Layer_1"
   x="0px"
   y="0px"
   width="372.89999"
   height="362.60001"
   viewBox="0 0 372.89999 362.60001"
   xml:space="preserve"
   sodipodi:docname="AzDataWarehouse.svg"
   inkscape:version="0.92.4 (5da689c313, 2019-01-14)"><metadata
   id="metadata78"><rdf:RDF><cc:Work
       rdf:about=""><dc:format>image/svg+xml</dc:format><dc:type
         rdf:resource="http://purl.org/dc/dcmitype/StillImage" /></cc:Work></rdf:RDF></metadata><defs
   id="defs76" /><sodipodi:namedview
   pagecolor="#ffffff"
   bordercolor="#666666"
   borderopacity="1"
   objecttolerance="10"
   gridtolerance="10"
   guidetolerance="10"
   inkscape:pageopacity="0"
   inkscape:pageshadow="2"
   inkscape:window-width="713"
   inkscape:window-height="543"
   id="namedview74"
   showgrid="false"
   inkscape:zoom="0.59"
   inkscape:cx="182.5"
   inkscape:cy="177.5"
   inkscape:window-x="0"
   inkscape:window-y="0"
   inkscape:window-maximized="0"
   inkscape:current-layer="Layer_1" />
<g
   id="Layer_4"
   transform="translate(-17.5,-14.9)">
	<rect
   x="107.3"
   y="128.60001"
   style="fill:#7fbb42"
   width="35.700001"
   height="35.700001"
   id="rect2" />
	<rect
   x="79"
   y="225.39999"
   style="fill:#7fbb42"
   width="35.700001"
   height="35.700001"
   id="rect4" />
	<rect
   x="129.8"
   y="225.39999"
   style="fill:#7fbb42"
   width="35.700001"
   height="35.700001"
   id="rect6" />
	<rect
   x="180.10001"
   y="225.39999"
   style="fill:#7fbb42"
   width="35.700001"
   height="35.700001"
   id="rect8" />
	<rect
   x="79"
   y="177"
   style="fill:#7fbb42"
   width="35.700001"
   height="35.700001"
   id="rect10" />
	<rect
   x="129.8"
   y="177"
   style="fill:#7fbb42"
   width="35.700001"
   height="35.700001"
   id="rect12" />
	<polygon
   style="fill:#3999c6"
   points="17.5,111.4 46.2,111.4 46.2,262.3 70.2,262.3 70.2,111.4 245,111.4 245,252.7 271.4,252.7 271.4,111.4 297.7,111.4 297.7,89.6 158.1,14.9 17.5,89.6 "
   id="polygon14" />
	<polygon
   style="opacity:0.8;fill:#b8d433;enable-background:new"
   points="138.9,133.2 107.3,133.2 107.3,128.6 143,128.6 143,164.3 138.9,164.3 "
   id="polygon16" />
	<polygon
   style="opacity:0.5;fill:#b8d433;enable-background:new"
   points="111.4,159.8 143,159.8 143,164.3 107.3,164.3 107.3,128.6 111.4,128.6 "
   id="polygon18" />
	<polygon
   style="opacity:0.8;fill:#b8d433;enable-background:new"
   points="110.7,181.6 79,181.6 79,177 114.7,177 114.7,212.7 110.7,212.7 "
   id="polygon20" />
	<polygon
   style="opacity:0.5;fill:#b8d433;enable-background:new"
   points="83.1,208.1 114.7,208.1 114.7,212.7 79,212.7 79,177 83.1,177 "
   id="polygon22" />
	<polygon
   style="opacity:0.8;fill:#b8d433;enable-background:new"
   points="161.4,181.6 129.8,181.6 129.8,177 165.7,177 165.7,212.7 161.4,212.7 "
   id="polygon24" />
	<polygon
   style="opacity:0.5;fill:#b8d433;enable-background:new"
   points="134.1,208.1 165.7,208.1 165.7,212.7 129.8,212.7 129.8,177 134.1,177 "
   id="polygon26" />
	<polygon
   style="opacity:0.8;fill:#b8d433;enable-background:new"
   points="110.7,229.9 79,229.9 79,225.4 114.7,225.4 114.7,261.1 110.7,261.1 "
   id="polygon28" />
	<polygon
   style="opacity:0.5;fill:#b8d433;enable-background:new"
   points="83.1,256.5 114.7,256.5 114.7,261.1 79,261.1 79,225.4 83.1,225.4 "
   id="polygon30" />
	<polygon
   style="opacity:0.8;fill:#b8d433;enable-background:new"
   points="161.4,229.9 129.8,229.9 129.8,225.4 165.7,225.4 165.7,261.1 161.4,261.1 "
   id="polygon32" />
	<polygon
   style="opacity:0.5;fill:#b8d433;enable-background:new"
   points="134.1,256.5 165.7,256.5 165.7,261.1 129.8,261.1 129.8,225.4 134.1,225.4 "
   id="polygon34" />
	<polygon
   style="opacity:0.8;fill:#b8d433;enable-background:new"
   points="211.7,229.9 180.1,229.9 180.1,225.4 215.8,225.4 215.8,261.1 211.7,261.1 "
   id="polygon36" />
	<polygon
   style="opacity:0.5;fill:#b8d433;enable-background:new"
   points="184.2,256.5 215.8,256.5 215.8,261.1 180.1,261.1 180.1,225.4 184.2,225.4 "
   id="polygon38" />
	<polygon
   style="opacity:0.8;fill:#b8d433;enable-background:new"
   points="107.3,160.2 138.2,128.6 143,128.6 143,132.2 112.6,164.3 107.3,164.3 "
   id="polygon40" />
	<polygon
   style="opacity:0.8;fill:#b8d433;enable-background:new"
   points="129.8,208.6 161,177 165.7,177 165.7,180.6 135.1,212.7 129.8,212.7 "
   id="polygon42" />
	<polygon
   style="opacity:0.8;fill:#b8d433;enable-background:new"
   points="79,208.6 109.9,177 114.7,177 114.7,180.6 84.3,212.7 79,212.7 "
   id="polygon44" />
	<polygon
   style="opacity:0.8;fill:#b8d433;enable-background:new"
   points="79,257 109.9,225.4 114.7,225.4 114.7,229 84.3,261.1 79,261.1 "
   id="polygon46" />
	<polygon
   style="opacity:0.8;fill:#b8d433;enable-background:new"
   points="129.8,257 161,225.4 165.7,225.4 165.7,229 135.1,261.1 129.8,261.1 "
   id="polygon48" />
	<polygon
   style="opacity:0.8;fill:#b8d433;enable-background:new"
   points="180.1,257 211,225.4 215.8,225.4 215.8,229 185.4,261.1 180.1,261.1 "
   id="polygon50" />
	<g
   id="g70">
		<path
   style="fill:#3999c6"
   d="m 229,192.8 v 155.4 c 0,16 36.2,29.2 80.7,29.2 V 192.8 Z"
   id="path52"
   inkscape:connector-curvature="0" />
		<path
   style="fill:#5ab4d9"
   d="m 308.5,377.5 h 1.2 c 44.6,0 80.7,-13.2 80.7,-29.2 V 192.8 h -81.9 z"
   id="path54"
   inkscape:connector-curvature="0" />
		<path
   style="fill:#ffffff"
   d="m 390.4,192.8 c 0,16 -36.2,29.2 -80.7,29.2 -44.5,0 -80.7,-13.1 -80.7,-29.2 0,-16.1 36.2,-29.2 80.7,-29.2 44.5,0 80.7,12.9 80.7,29.2"
   id="path56"
   inkscape:connector-curvature="0" />
		<path
   style="fill:#7fbb42"
   d="m 373.9,191.1 c 0,10.5 -28.7,19.4 -64.2,19.4 -35.5,0 -64.2,-8.6 -64.2,-19.4 0,-10.5 28.7,-19.4 64.2,-19.4 35.5,0 64.2,8.7 64.2,19.4"
   id="path58"
   inkscape:connector-curvature="0" />
		<path
   style="fill:#b8d433"
   d="m 360.5,202.9 c 8.4,-3.4 13.4,-7.4 13.4,-11.7 0,-10.5 -28.7,-19.4 -64.2,-19.4 -35.5,0 -64.2,8.6 -64.2,19.4 0,4.6 5,8.6 13.4,11.7 11.7,-4.6 30.2,-7.4 50.8,-7.4 20.6,-0.3 39,2.8 50.8,7.4"
   id="path60"
   inkscape:connector-curvature="0" />
		<g
   id="g68">
			<path
   style="fill:#ffffff"
   d="m 249.1,304.2 v -11 c 1.9,1.7 4.1,2.9 6.5,3.8 2.4,0.7 4.8,1.2 6.9,1.2 1.4,0 2.6,-0.2 3.6,-0.5 1,-0.2 1.9,-0.5 2.6,-1 0.7,-0.5 1.2,-1 1.4,-1.7 0.2,-0.7 0.5,-1.2 0.5,-1.9 0,-1 -0.2,-1.9 -0.7,-2.6 -0.5,-0.7 -1.2,-1.4 -2.2,-2.2 -1,-0.7 -2.2,-1.2 -3.4,-1.9 -1.2,-0.5 -2.6,-1.2 -4.3,-1.9 -3.8,-1.7 -6.7,-3.6 -8.6,-5.7 -1.9,-2.4 -2.9,-5 -2.9,-8.4 0,-2.6 0.5,-4.8 1.4,-6.5 1,-1.9 2.4,-3.4 4.1,-4.6 1.7,-1.2 3.8,-2.2 6.2,-2.6 2.4,-0.5 4.8,-0.7 7.4,-0.7 2.6,0 4.8,0.2 6.7,0.5 1.9,0.2 3.8,0.7 5.5,1.4 v 10.3 c -0.7,-0.5 -1.7,-1 -2.6,-1.4 -0.9,-0.4 -1.9,-0.7 -2.9,-1 -1,-0.2 -2.2,-0.5 -3.1,-0.7 -1,-0.2 -1.9,-0.2 -2.9,-0.2 -1.2,0 -2.4,0 -3.4,0.2 -1,0.2 -1.9,0.5 -2.6,1 -0.7,0.5 -1.2,1 -1.7,1.4 -0.5,0.7 -0.5,1.2 -0.5,1.9 0,0.7 0.2,1.4 0.7,2.2 0.5,0.7 1,1.2 1.9,1.9 0.7,0.5 1.7,1.2 2.9,1.7 1.2,0.5 2.4,1.2 3.8,1.7 1.9,0.7 3.8,1.7 5.3,2.6 1.7,1 2.9,1.9 4.1,3.1 1.2,1.2 1.9,2.4 2.6,4.1 0.5,1.4 1,3.1 1,5.3 0,2.6 -0.5,5 -1.4,6.9 -1,1.9 -2.4,3.4 -4.3,4.6 -1.7,1.2 -3.8,1.9 -6.2,2.4 -2.4,0.5 -4.8,0.7 -7.4,0.7 -2.6,0 -5.3,-0.2 -7.7,-0.7 -2.5,0 -4.6,-0.8 -6.3,-1.7 z"
   id="path62"
   inkscape:connector-curvature="0" />
			<path
   style="fill:#ffffff"
   d="m 311.1,307.1 c -6.9,0 -12.7,-2.4 -17.2,-6.9 -4.3,-4.6 -6.7,-10.5 -6.7,-18 0,-7.7 2.2,-13.9 6.7,-18.7 4.6,-4.8 10.3,-7.2 17.7,-7.2 6.9,0 12.7,2.4 17,6.9 4.3,4.5 6.5,10.5 6.5,18.2 0,7.7 -2.2,13.9 -6.7,18.7 -0.2,0.2 -0.2,0.2 -0.5,0.5 -0.2,0.2 -0.2,0.2 -0.5,0.5 l 12.5,12 h -15.6 l -6.5,-6.7 c -1.6,0.4 -4,0.7 -6.7,0.7 z m 0.5,-41.2 c -3.8,0 -6.9,1.4 -9.3,4.3 -2.4,2.9 -3.4,6.7 -3.4,11.5 0,4.8 1.2,8.6 3.4,11.5 2.4,2.9 5.3,4.3 8.9,4.3 3.8,0 6.7,-1.4 9.1,-4.1 2.2,-2.9 3.4,-6.7 3.4,-11.5 0,-5 -1.2,-9.1 -3.4,-12 -2,-2.6 -4.9,-4 -8.7,-4 z"
   id="path64"
   inkscape:connector-curvature="0" />
			<path
   style="fill:#ffffff"
   d="M 372.7,306.1 H 343.5 V 257 h 11 v 40 h 18.2 z"
   id="path66"
   inkscape:connector-curvature="0" />
		</g>
	</g>
</g>
</svg>