<?xml version="1.0" encoding="UTF-8" standalone="no"?>
<!-- Generator: Adobe Illustrator 19.1.0, SVG Export Plug-In . SVG Version: 6.00 Build 0)  -->

<svg
   xmlns:dc="http://purl.org/dc/elements/1.1/"
   xmlns:cc="http://creativecommons.org/ns#"
   xmlns:rdf="http://www.w3.org/1999/02/22-rdf-syntax-ns#"
   xmlns:svg="http://www.w3.org/2000/svg"
   xmlns="http://www.w3.org/2000/svg"
   xmlns:sodipodi="http://sodipodi.sourceforge.net/DTD/sodipodi-0.dtd"
   xmlns:inkscape="http://www.inkscape.org/namespaces/inkscape"
   version="1.1"
   id="Layer_1"
   x="0px"
   y="0px"
   viewBox="-549 251 100 78.5"
   xml:space="preserve"
   sodipodi:docname="AzDataLakeStore.svg"
   width="100"
   height="78.5"
   inkscape:version="0.92.4 (5da689c313, 2019-01-14)"><metadata
   id="metadata13"><rdf:RDF><cc:Work
       rdf:about=""><dc:format>image/svg+xml</dc:format><dc:type
         rdf:resource="http://purl.org/dc/dcmitype/StillImage" /></cc:Work></rdf:RDF></metadata><defs
   id="defs11" /><sodipodi:namedview
   pagecolor="#ffffff"
   bordercolor="#666666"
   borderopacity="1"
   objecttolerance="10"
   gridtolerance="10"
   guidetolerance="10"
   inkscape:pageopacity="0"
   inkscape:pageshadow="2"
   inkscape:window-width="713"
   inkscape:window-height="543"
   id="namedview9"
   showgrid="false"
   inkscape:zoom="2.36"
   inkscape:cx="50"
   inkscape:cy="39.2"
   inkscape:window-x="0"
   inkscape:window-y="0"
   inkscape:window-maximized="0"
   inkscape:current-layer="Layer_1" />
	<g
   id="g6"
   transform="translate(0,-10.7)">
		<path
   d="m -489.9,269.8 -2.9,-5 c -1.1,-1.9 -3.2,-3.1 -5.4,-3.1 h -44.6 c -3.4,0 -6.2,2.8 -6.2,6.2 v 2.9 0.3 h 60.2 c -0.5,-0.3 -0.8,-0.8 -1.1,-1.3 z"
   id="path2"
   inkscape:connector-curvature="0"
   style="fill:#3999c6" />
		<path
   d="M -452.9,274.3 H -549 v 4.6 55.1 c 0,3.4 2.8,6.2 6.2,6.2 h 87.6 c 3.4,0 6.2,-2.8 6.2,-6.2 v -54 c 0,-2.5 -1.6,-4.7 -3.9,-5.7 z m -33.4,30 -17.7,25.3 c -0.2,0.2 -0.4,0.4 -0.7,0.4 -0.1,0 -0.3,0 -0.4,-0.1 -0.4,-0.2 -0.6,-0.6 -0.4,-1 l 4.6,-15.1 h -10.3 c -0.3,0 -0.6,-0.2 -0.8,-0.5 -0.1,-0.3 -0.1,-0.6 0.1,-0.9 l 17.2,-25 c 0.2,-0.2 0.4,-0.4 0.7,-0.4 0.1,0 0.2,0 0.4,0.1 0.4,0.2 0.6,0.6 0.4,1 l -4.4,14.8 h 10.6 v 0 c 0.5,0 0.9,0.4 0.9,0.9 0,0.2 -0.1,0.3 -0.2,0.5 z"
   id="path4"
   inkscape:connector-curvature="0"
   style="fill:#59b4d9" />
	</g>
</svg>