<?xml version="1.0" encoding="UTF-8" standalone="no"?>
<!-- Generator: Adobe Illustrator 18.1.0, SVG Export Plug-In . SVG Version: 6.00 Build 0)  -->

<svg
   xmlns:dc="http://purl.org/dc/elements/1.1/"
   xmlns:cc="http://creativecommons.org/ns#"
   xmlns:rdf="http://www.w3.org/1999/02/22-rdf-syntax-ns#"
   xmlns:svg="http://www.w3.org/2000/svg"
   xmlns="http://www.w3.org/2000/svg"
   xmlns:sodipodi="http://sodipodi.sourceforge.net/DTD/sodipodi-0.dtd"
   xmlns:inkscape="http://www.inkscape.org/namespaces/inkscape"
   version="1.0"
   x="0px"
   y="0px"
   viewBox="0 0 41.5 41.299999"
   enable-background="new 0 0 152 117.5"
   xml:space="preserve"
   id="svg20"
   sodipodi:docname="AzDataFactory.svg"
   width="41.5"
   height="41.299999"
   inkscape:version="0.92.4 (5da689c313, 2019-01-14)"><metadata
   id="metadata26"><rdf:RDF><cc:Work
       rdf:about=""><dc:format>image/svg+xml</dc:format><dc:type
         rdf:resource="http://purl.org/dc/dcmitype/StillImage" /></cc:Work></rdf:RDF></metadata><defs
   id="defs24" /><sodipodi:namedview
   pagecolor="#ffffff"
   bordercolor="#666666"
   borderopacity="1"
   objecttolerance="10"
   gridtolerance="10"
   guidetolerance="10"
   inkscape:pageopacity="0"
   inkscape:pageshadow="2"
   inkscape:window-width="713"
   inkscape:window-height="543"
   id="namedview22"
   showgrid="false"
   inkscape:zoom="2.0085106"
   inkscape:cx="20.8"
   inkscape:cy="20.55"
   inkscape:window-x="0"
   inkscape:window-y="0"
   inkscape:window-maximized="0"
   inkscape:current-layer="svg20" />
<g
   id="Layer_1"
   transform="translate(-55.2,-38)">
	<g
   id="Azure">
	</g>
	<g
   id="BizTalk_Services"
   transform="translate(37.3575,-2500.2)">
	</g>
	<path
   d="m 96.7,62.4 v 0 -10 L 85.3,62.3 H 85 v -9.9 l -11.4,9.9 v 0 -20.8 c 0,-1.7 -3.9,-3.5 -9,-3.5 -5.1,0 -9.4,1.7 -9.4,3.5 v 37.8 h 18.2 v 0 H 96.7 Z M 64.6,43.2 c -3.7,0 -6.7,-0.9 -6.7,-1.9 0,-1 3,-1.9 6.7,-1.9 3.7,0 6.7,0.8 6.7,1.9 0,1 -3,1.9 -6.7,1.9 z m 19.6,29.5 h -4.6 v -4.6 h 4.6 z m -8,0 h -4.6 v -4.6 h 4.6 z m 11.6,0 v -4.6 h 4.6 v 4.6 z"
   id="path4"
   inkscape:connector-curvature="0"
   style="fill:#006fd4" />
</g>
<g
   id="paths"
   transform="translate(-55.2,-38)">
	<g
   id="Access_control">
	</g>
	<g
   id="Azure_active_directory">
	</g>
	<g
   id="API_Management">
	</g>
	<g
   id="Azure_automation">
	</g>
	<g
   id="Azure_SQL_database">
	</g>
	<g
   id="Azure_subscription">
	</g>
	<g
   id="Backup_service">
	</g>
	<g
   id="Bitbucket_code_source">
	</g>
	<g
   id="Azure_cache">
	</g>
	<g
   id="Content_delivery_network__x28_CDN_x29_">
	</g>
	<g
   id="Cloud_service">
	</g>
	<g
   id="CodePlex">
	</g>
</g>
</svg>