<?xml version="1.0" encoding="UTF-8" standalone="no"?>
<!-- Generator: Adobe Illustrator 19.1.0, SVG Export Plug-In . SVG Version: 6.00 Build 0)  -->

<svg
   xmlns:dc="http://purl.org/dc/elements/1.1/"
   xmlns:cc="http://creativecommons.org/ns#"
   xmlns:rdf="http://www.w3.org/1999/02/22-rdf-syntax-ns#"
   xmlns:svg="http://www.w3.org/2000/svg"
   xmlns="http://www.w3.org/2000/svg"
   xmlns:sodipodi="http://sodipodi.sourceforge.net/DTD/sodipodi-0.dtd"
   xmlns:inkscape="http://www.inkscape.org/namespaces/inkscape"
   version="1.1"
   id="Layer_1"
   x="0px"
   y="0px"
   viewBox="-549 251 99.982254 99.974754"
   xml:space="preserve"
   sodipodi:docname="AzDataLakeAnalytics.svg"
   width="99.982254"
   height="99.974754"
   inkscape:version="0.92.4 (5da689c313, 2019-01-14)"><metadata
   id="metadata25"><rdf:RDF><cc:Work
       rdf:about=""><dc:format>image/svg+xml</dc:format><dc:type
         rdf:resource="http://purl.org/dc/dcmitype/StillImage" /></cc:Work></rdf:RDF></metadata><defs
   id="defs23" /><sodipodi:namedview
   pagecolor="#ffffff"
   bordercolor="#666666"
   borderopacity="1"
   objecttolerance="10"
   gridtolerance="10"
   guidetolerance="10"
   inkscape:pageopacity="0"
   inkscape:pageshadow="2"
   inkscape:window-width="713"
   inkscape:window-height="543"
   id="namedview21"
   showgrid="false"
   inkscape:zoom="2.36"
   inkscape:cx="49.974751"
   inkscape:cy="50"
   inkscape:window-x="0"
   inkscape:window-y="0"
   inkscape:window-maximized="0"
   inkscape:current-layer="Layer_1" />
	<g
   id="g18"
   transform="translate(-0.0252486,-0.0252486)">
		<path
   d="m -466.3,342.8 h -65.5 c -5,0 -9.1,-4.1 -9.1,-9.1 v -65.5 c 0,-5 4.1,-9.1 9.1,-9.1 h 65.5 c 5,0 9.1,4.1 9.1,9.1 v 65.5 c 0,5 -4.1,9.1 -9.1,9.1 z m -65.5,-77.7 c -1.7,0 -3,1.4 -3,3 v 65.5 c 0,1.7 1.4,3 3,3 h 65.5 c 1.7,0 3,-1.4 3,-3 v -65.5 c 0,-1.7 -1.4,-3 -3,-3 z"
   id="path2"
   inkscape:connector-curvature="0"
   style="fill:#a0a1a2" />
		<g
   id="g12">
			<path
   d="m -507.9,251.9 c -2.2,-1 -4.8,-1.2 -7.1,-0.3 -2.3,0.8 -4.2,2.5 -5.2,4.8 l -1.4,2.9 h 29.5 z"
   id="path4"
   inkscape:connector-curvature="0"
   style="fill:#7a7a7a" />
			<path
   d="m -449.6,285 c -0.8,-2.3 -2.5,-4.2 -4.8,-5.2 l -2.9,-1.4 V 308 l 7.4,-15.8 c 1.1,-2.3 1.2,-4.8 0.3,-7.2 z"
   id="path6"
   inkscape:connector-curvature="0"
   style="fill:#7a7a7a" />
			<path
   d="m -548.1,316.7 c -1,2.2 -1.2,4.8 -0.3,7.1 0.8,2.3 2.5,4.2 4.8,5.2 l 2.9,1.4 v -29.5 z"
   id="path8"
   inkscape:connector-curvature="0"
   style="fill:#7a7a7a" />
			<path
   d="m -483.3,350.1 c 1.2,0.6 2.6,0.9 3.9,0.9 1.1,0 2.1,-0.2 3.2,-0.6 2.3,-0.8 4.2,-2.5 5.2,-4.8 v 0 l 1.4,-2.9 h -29.5 z"
   id="path10"
   inkscape:connector-curvature="0"
   style="fill:#7a7a7a" />
		</g>
		<path
   d="m -531.8,265.1 c -1.7,0 -3,1.4 -3,3 v 65.5 c 0,1.7 1.4,3 3,3 h 65.5 c 1.7,0 3,-1.4 3,-3 v -65.5 c 0,-1.7 -1.4,-3 -3,-3 z"
   id="path14"
   inkscape:connector-curvature="0"
   style="fill:#ffffff" />
		<path
   d="m -484.6,294.7 v 0 h -12.7 L -492,277 c 0.1,-0.5 -0.1,-1 -0.5,-1.2 -0.1,-0.1 -0.3,-0.1 -0.4,-0.1 -0.3,0 -0.6,0.2 -0.8,0.4 l -20.5,29.9 c -0.2,0.3 -0.2,0.7 -0.1,1 0.2,0.3 0.5,0.5 0.9,0.5 h 12.3 l -5.5,18 c -0.1,0.5 0.1,1 0.5,1.2 0.1,0.1 0.3,0.1 0.4,0.1 0.3,0 0.6,-0.2 0.8,-0.4 l 21.1,-30.2 c 0.1,-0.2 0.2,-0.4 0.2,-0.6 0,-0.5 -0.5,-0.9 -1,-0.9 z"
   id="path16"
   inkscape:connector-curvature="0"
   style="fill:#59b4d9" />
	</g>
</svg>