<?xml version="1.0" encoding="UTF-8" standalone="no"?>
<!-- Generator: Adobe Illustrator 17.1.0, SVG Export Plug-In . SVG Version: 6.00 Build 0)  -->

<svg
   xmlns:dc="http://purl.org/dc/elements/1.1/"
   xmlns:cc="http://creativecommons.org/ns#"
   xmlns:rdf="http://www.w3.org/1999/02/22-rdf-syntax-ns#"
   xmlns:svg="http://www.w3.org/2000/svg"
   xmlns="http://www.w3.org/2000/svg"
   xmlns:sodipodi="http://sodipodi.sourceforge.net/DTD/sodipodi-0.dtd"
   xmlns:inkscape="http://www.inkscape.org/namespaces/inkscape"
   version="1.1"
   id="Layer_1"
   x="0px"
   y="0px"
   width="50"
   height="50"
   viewBox="0 0 50 50"
   enable-background="new 0 0 50 50"
   xml:space="preserve"
   sodipodi:docname="AzDevTestLabsColor.svg"
   inkscape:version="0.92.4 (5da689c313, 2019-01-14)"><metadata
   id="metadata21"><rdf:RDF><cc:Work
       rdf:about=""><dc:format>image/svg+xml</dc:format><dc:type
         rdf:resource="http://purl.org/dc/dcmitype/StillImage" /></cc:Work></rdf:RDF></metadata><defs
   id="defs19" /><sodipodi:namedview
   pagecolor="#ffffff"
   bordercolor="#666666"
   borderopacity="1"
   objecttolerance="10"
   gridtolerance="10"
   guidetolerance="10"
   inkscape:pageopacity="0"
   inkscape:pageshadow="2"
   inkscape:window-width="713"
   inkscape:window-height="543"
   id="namedview17"
   showgrid="false"
   inkscape:zoom="4.72"
   inkscape:cx="25"
   inkscape:cy="25"
   inkscape:window-x="0"
   inkscape:window-y="0"
   inkscape:window-maximized="0"
   inkscape:current-layer="Layer_1" />
<path
   d="m 50,25.5 c 0,-3.2 -2.6,-5.8 -5.8,-5.8 -0.2,0 -0.5,0 -0.7,0 C 43.9,18.4 44,17 44,15.6 44.1,7 37.1,0 28.6,0 21.8,0 16,4.4 14,10.6 12.9,10.2 11.8,10 10.6,10 4.7,10 0,14.8 0,20.7 c 0,5.9 4.7,10.6 10.5,10.6 0,0 0,0 0,0 v 0 h 34.1 v 0 C 47.7,31 50,28.5 50,25.5"
   id="path2"
   inkscape:connector-curvature="0"
   style="fill:#0072c6" />
<path
   d="M 16.2,31.3 C 14.8,29.9 13.8,28.1 13.3,26.1 12,20.4 15.5,14.7 21.2,13.4 22.4,13.1 23.6,13.1 24.7,13.2 25.2,7.8 28.5,3.1 33.3,0.7 31.8,0.3 30.3,0 28.6,0 21.8,0 16,4.4 14,10.6 12.9,10.2 11.8,10 10.6,10 4.7,10 0,14.8 0,20.7 c 0,5.9 4.7,10.6 10.5,10.6 0,0 0,0 0,0 v 0 z"
   id="path4"
   inkscape:connector-curvature="0"
   style="opacity:0.1;fill:#ffffff" />
<path
   d="M 46.3,46.3 35.8,28 V 20.6 H 36 c 1.3,0 2.3,-1 2.3,-2.3 C 38.3,17 37.2,16 36,16 H 24.4 c -1.3,0 -2.3,1 -2.3,2.3 0,1.3 1,2.3 2.3,2.3 h 0.2 V 28 L 14,46.3 c -1.2,2 -0.2,3.7 2.1,3.7 h 28.1 c 2.4,0 3.3,-1.6 2.1,-3.7 z"
   id="path6"
   inkscape:connector-curvature="0"
   style="fill:#59b4d9" />
<path
   d="m 37.6,38.5 h -5 c 0.1,0.3 0.2,0.6 0.2,0.9 0,1.2 -1,2.1 -2.1,2.1 -1.1,0 -2.1,-1 -2.1,-2.1 0,-0.3 0.1,-0.7 0.2,-0.9 H 22.7 L 18.4,46 H 42 Z"
   id="path8"
   inkscape:connector-curvature="0"
   style="fill:#804998" />
<path
   d="m 30.7,41.5 c 1.2,0 2.1,-1 2.1,-2.1 0,-0.3 -0.1,-0.7 -0.2,-0.9 h -3.8 c -0.1,0.3 -0.2,0.6 -0.2,0.9 0,1.2 1,2.1 2.1,2.1 z"
   id="path10"
   inkscape:connector-curvature="0"
   style="fill:#68217a" />
<circle
   cx="33.400002"
   cy="43.200001"
   r="1"
   id="circle12"
   style="fill:#68217a" />
<path
   d="M 14,46.3 24.6,28 v -7.4 h -0.2 c -1.3,0 -2.3,-1 -2.3,-2.3 0,-1.3 1,-2.3 2.3,-2.3 h 5 V 28 L 23.8,50 H 16.1 C 13.8,50 12.9,48.4 14,46.3 Z"
   id="path14"
   inkscape:connector-curvature="0"
   style="opacity:0.25;fill:#ffffff" />
</svg>