<?xml version="1.0" encoding="UTF-8" standalone="no"?>
<!-- Generator: Adobe Illustrator 19.1.0, SVG Export Plug-In . SVG Version: 6.00 Build 0)  -->

<svg
   xmlns:dc="http://purl.org/dc/elements/1.1/"
   xmlns:cc="http://creativecommons.org/ns#"
   xmlns:rdf="http://www.w3.org/1999/02/22-rdf-syntax-ns#"
   xmlns:svg="http://www.w3.org/2000/svg"
   xmlns="http://www.w3.org/2000/svg"
   xmlns:sodipodi="http://sodipodi.sourceforge.net/DTD/sodipodi-0.dtd"
   xmlns:inkscape="http://www.inkscape.org/namespaces/inkscape"
   version="1.1"
   id="Layer_1"
   x="0px"
   y="0px"
   viewBox="272.5 360.2 66.30119 65.899999"
   xml:space="preserve"
   sodipodi:docname="AzDevTestLabs.svg"
   width="66.301193"
   height="65.900002"
   inkscape:version="0.92.4 (5da689c313, 2019-01-14)"><metadata
   id="metadata19"><rdf:RDF><cc:Work
       rdf:about=""><dc:format>image/svg+xml</dc:format><dc:type
         rdf:resource="http://purl.org/dc/dcmitype/StillImage" /></cc:Work></rdf:RDF></metadata><defs
   id="defs17" /><sodipodi:namedview
   pagecolor="#ffffff"
   bordercolor="#666666"
   borderopacity="1"
   objecttolerance="10"
   gridtolerance="10"
   guidetolerance="10"
   inkscape:pageopacity="0"
   inkscape:pageshadow="2"
   inkscape:window-width="713"
   inkscape:window-height="543"
   id="namedview15"
   showgrid="false"
   inkscape:zoom="3.3570411"
   inkscape:cx="32.651194"
   inkscape:cy="33.649998"
   inkscape:window-x="0"
   inkscape:window-y="0"
   inkscape:window-maximized="0"
   inkscape:current-layer="Layer_1" />
<style
   type="text/css"
   id="style2">
	.st0{fill:#2072B8;}
</style>
<g
   id="g12"
   transform="translate(-0.99880716,-2.9)">
	<path
   class="st0"
   d="m 287.4,404.5 h 11.4 l 3.8,-6.5 v -6.8 c -2,-1.1 -3.4,-3.2 -3.4,-5.6 0,-3.5 2.9,-6.4 6.4,-6.4 h 15.9 c 3.5,0 6.4,2.9 6.4,6.4 0,2.4 -1.4,4.6 -3.4,5.6 v 6.8 l 3.8,6.5 h 4.4 v 0 c 3.9,-0.3 7.1,-3.6 7.1,-7.7 0,-4.3 -3.4,-7.7 -7.7,-7.7 -0.3,0 -0.6,0 -0.9,0.1 0.5,-1.7 0.7,-3.6 0.7,-5.5 0,-11.4 -9.2,-20.6 -20.4,-20.6 -9,0 -16.7,5.9 -19.4,14.1 -1.4,-0.5 -3,-0.8 -4.6,-0.8 -7.7,0 -14,6.3 -14,14.1 -0.1,7.7 6.1,14 13.9,14 z"
   id="path4"
   inkscape:connector-curvature="0"
   style="fill:#2072b8" />
	<g
   id="g10">
		<circle
   class="st0"
   cx="317.89999"
   cy="419.60001"
   r="1.4"
   id="circle6"
   style="fill:#2072b8" />
		<path
   class="st0"
   d="m 335.7,424 -14.5,-25.2 v -10.2 h 0.3 c 1.7,0 3.1,-1.4 3.1,-3.1 0,-1.7 -1.4,-3.1 -3.1,-3.1 h -15.9 c -1.7,0 -3.1,1.4 -3.1,3.1 0,1.7 1.4,3.1 3.1,3.1 h 0.3 v 10.2 L 291.3,424 c -1.6,2.8 -0.3,5 2.9,5 h 38.6 c 3.2,0 4.5,-2.3 2.9,-5 z m -38.5,-0.5 6,-10.4 h 8.4 c -0.2,0.4 -0.3,0.8 -0.3,1.3 0,1.6 1.3,2.9 2.9,2.9 1.6,0 2.9,-1.3 2.9,-2.9 0,-0.5 -0.1,-0.9 -0.3,-1.3 h 6.8 l 6,10.4 z"
   id="path8"
   inkscape:connector-curvature="0"
   style="fill:#2072b8" />
	</g>
</g>
</svg>