<?xml version="1.0" encoding="UTF-8" standalone="no"?>
<!-- Generator: Adobe Illustrator 19.1.0, SVG Export Plug-In . SVG Version: 6.00 Build 0)  -->

<svg
   xmlns:dc="http://purl.org/dc/elements/1.1/"
   xmlns:cc="http://creativecommons.org/ns#"
   xmlns:rdf="http://www.w3.org/1999/02/22-rdf-syntax-ns#"
   xmlns:svg="http://www.w3.org/2000/svg"
   xmlns="http://www.w3.org/2000/svg"
   xmlns:sodipodi="http://sodipodi.sourceforge.net/DTD/sodipodi-0.dtd"
   xmlns:inkscape="http://www.inkscape.org/namespaces/inkscape"
   version="1.1"
   id="Layer_1"
   x="0px"
   y="0px"
   width="50.000252"
   height="50"
   viewBox="-374 616 50.000252 50"
   enable-background="new -374 616 50 50"
   xml:space="preserve"
   sodipodi:docname="AzDNS.svg"
   inkscape:version="0.92.4 (5da689c313, 2019-01-14)"><metadata
   id="metadata19"><rdf:RDF><cc:Work
       rdf:about=""><dc:format>image/svg+xml</dc:format><dc:type
         rdf:resource="http://purl.org/dc/dcmitype/StillImage" /></cc:Work></rdf:RDF></metadata><defs
   id="defs17" /><sodipodi:namedview
   pagecolor="#ffffff"
   bordercolor="#666666"
   borderopacity="1"
   objecttolerance="10"
   gridtolerance="10"
   guidetolerance="10"
   inkscape:pageopacity="0"
   inkscape:pageshadow="2"
   inkscape:window-width="713"
   inkscape:window-height="543"
   id="namedview15"
   showgrid="false"
   inkscape:zoom="4.72"
   inkscape:cx="25.00025"
   inkscape:cy="25"
   inkscape:window-x="0"
   inkscape:window-y="0"
   inkscape:window-maximized="0"
   inkscape:current-layer="Layer_1" />
<circle
   cx="-348.99976"
   cy="641"
   r="25"
   id="circle2"
   style="fill:#0072c6" />
<path
   d="m -366.67775,658.678 c -9.763,-9.763 -9.763,-25.592 0,-35.355 9.763,-9.763 25.592,-9.763 35.355,0 z"
   id="path4"
   inkscape:connector-curvature="0"
   style="opacity:0.2;fill:#ffffff" />
<path
   d="m -325.99975,640.996 c 0,-5.152 -1.748,-10.12 -4.968,-14.168 v 0 l -0.184,-0.184 c -0.092,-0.092 -0.092,-0.184 -0.184,-0.276 l -1.472,-1.564 v 0 c -4.324,-4.416 -10.028,-6.808 -16.192,-6.808 0,0 0,0 -0.092,0 v 0 h -0.092 c -6.072,0.092 -11.684,2.392 -16.008,6.716 v 0 l -1.564,1.656 c -0.092,0.092 -0.092,0.184 -0.184,0.276 l -0.184,0.092 v 0 c -3.128,4.048 -4.876,9.108 -4.876,14.26 0,5.152 1.748,10.12 4.968,14.168 v 0 l 0.184,0.184 c 0.092,0.092 0.092,0.184 0.184,0.276 l 1.472,1.564 v 0 c 4.324,4.324 9.936,6.716 16.008,6.716 h 0.092 v 0 c 0,0 0,0 0.092,0 6.072,0 11.868,-2.392 16.192,-6.716 v 0 l 1.472,-1.656 c 0.092,-0.092 0.092,-0.184 0.184,-0.276 l 0.184,-0.184 v 0 c 3.22,-3.864 4.968,-8.924 4.968,-14.076 z m -9.292,-14.996 c -0.092,0 -0.184,0.092 -0.276,0.092 -0.184,0.092 -0.368,0.184 -0.46,0.184 -0.368,0.184 -0.828,0.276 -1.288,0.46 -0.092,0 -0.184,0.092 -0.276,0.092 -0.552,0.184 -1.012,0.276 -1.564,0.46 v 0 c -0.092,0 -0.276,0.092 -0.368,0.092 -0.828,-2.208 -1.84,-4.14 -3.036,-5.612 2.668,0.828 5.152,2.3 7.268,4.232 z m -13.892,-5.336 h 0.092 c 2.484,0 5.06,2.668 6.9,7.268 -2.116,0.368 -4.416,0.552 -6.808,0.552 -2.392,0 -4.784,-0.184 -6.992,-0.552 1.748,-4.508 4.324,-7.176 6.808,-7.268 z m -6.532,1.196 c -1.104,1.472 -2.116,3.312 -2.944,5.52 -0.092,0 -0.092,0 -0.184,0 v 0 c -0.552,-0.184 -1.104,-0.276 -1.564,-0.46 -0.092,0 -0.184,-0.092 -0.276,-0.092 -0.368,-0.184 -0.828,-0.368 -1.196,-0.552 -0.184,-0.092 -0.276,-0.092 -0.46,-0.184 -0.092,-0.092 -0.184,-0.092 -0.368,-0.184 2.116,-1.748 4.416,-3.22 6.992,-4.048 z m -6.992,34.132 c 0.092,0 0.184,-0.092 0.276,-0.092 0.184,-0.092 0.276,-0.092 0.46,-0.184 0.368,-0.184 0.828,-0.276 1.288,-0.46 0.092,0 0.184,-0.092 0.276,-0.092 0.552,-0.184 1.012,-0.276 1.564,-0.46 v 0 c 0.092,0 0.092,0 0.184,0 0.828,2.116 1.84,4.048 2.944,5.52 -2.576,-0.92 -4.968,-2.392 -6.992,-4.232 z m 13.616,5.336 h -0.092 c -2.484,-0.092 -5.06,-2.668 -6.808,-7.176 2.208,-0.368 4.6,-0.552 6.992,-0.552 2.392,0 4.6,0.184 6.808,0.552 -1.748,4.508 -4.416,7.176 -6.9,7.176 z m 6.532,-1.104 c 1.196,-1.472 2.208,-3.404 3.036,-5.612 0.092,0 0.276,0.092 0.368,0.092 v 0 c 0.552,0.184 1.104,0.276 1.564,0.46 0.092,0 0.184,0.092 0.276,0.092 0.46,0.184 0.828,0.276 1.288,0.46 0.184,0.092 0.276,0.092 0.46,0.184 0.092,0 0.184,0.092 0.368,0.184 -2.208,1.84 -4.692,3.312 -7.36,4.14 z m 9.292,-6.348 v 0 c -0.276,0 -0.46,-0.092 -0.736,-0.184 -0.276,-0.092 -0.644,-0.276 -0.92,-0.368 -0.092,0 -0.184,-0.092 -0.276,-0.092 -1.104,-0.46 -2.3,-0.736 -3.496,-1.104 0.276,-1.104 0.552,-2.208 0.736,-3.312 h -2.76 c -0.184,1.012 -0.368,1.932 -0.644,2.76 -2.392,-0.46 -4.968,-0.644 -7.636,-0.644 -2.76,0 -5.336,0.276 -7.82,0.736 -0.276,-0.92 -0.46,-1.84 -0.644,-2.852 h -2.76 c 0.184,1.196 0.46,2.3 0.736,3.404 -1.104,0.276 -2.208,0.644 -3.22,1.012 -0.092,0.092 -0.276,0.092 -0.368,0.184 -0.276,0.092 -0.644,0.276 -0.92,0.368 -0.184,0 -0.46,0.092 -0.644,0.184 v 0 c -2.76,-3.312 -4.324,-7.452 -4.6,-11.684 h 2.3 v -2.668 h -2.3 c 0.276,-4.232 1.84,-8.28 4.508,-11.5 l 0.092,-0.092 c 0.184,0.092 0.46,0.184 0.644,0.276 0.368,0.184 0.644,0.276 1.012,0.46 0.092,0 0.184,0.092 0.276,0.092 1.012,0.368 2.116,0.736 3.312,1.012 -0.276,1.012 -0.46,2.024 -0.644,3.036 h 2.76 c 0.184,-0.828 0.368,-1.748 0.552,-2.484 2.484,0.46 5.152,0.736 7.82,0.736 2.668,0 5.244,-0.276 7.636,-0.644 0.184,0.736 0.368,1.564 0.552,2.484 h 2.76 c -0.184,-1.012 -0.368,-2.024 -0.644,-3.036 1.196,-0.276 2.3,-0.644 3.404,-1.104 0.092,0 0.276,-0.092 0.368,-0.092 0.368,-0.092 0.644,-0.276 1.012,-0.368 0.184,-0.092 0.46,-0.184 0.644,-0.276 v 0 c 2.668,3.312 4.324,7.36 4.6,11.592 h -2.76 v 2.668 h 2.76 c -0.46,4.14 -2.024,8.28 -4.692,11.5 z"
   id="path6"
   inkscape:connector-curvature="0"
   style="opacity:0.8;fill:#ffffff" />
<path
   d="m -354.77775,640.855 c 0,1.09 -0.143,2.023 -0.427,2.797 -0.284,0.775 -0.694,1.407 -1.226,1.896 -0.533,0.49 -1.18,0.85 -1.943,1.079 -0.762,0.229 -1.67,0.344 -2.723,0.344 h -2.838 c -0.201,0 -0.373,-0.06 -0.51,-0.178 -0.138,-0.12 -0.206,-0.314 -0.206,-0.583 v -10.36 c 0,-0.27 0.069,-0.464 0.206,-0.583 0.138,-0.12 0.308,-0.179 0.51,-0.179 h 3.049 c 1.059,0 1.958,0.124 2.696,0.373 0.738,0.248 1.359,0.615 1.865,1.102 0.505,0.487 0.889,1.088 1.153,1.804 0.262,0.715 0.394,1.546 0.394,2.488 z m -2.498,0.083 c 0,-0.564 -0.066,-1.087 -0.198,-1.571 -0.132,-0.483 -0.343,-0.903 -0.634,-1.258 -0.291,-0.355 -0.664,-0.632 -1.121,-0.831 -0.456,-0.2 -1.054,-0.299 -1.796,-0.299 h -1.222 v 8.082 h 1.259 c 0.661,0 1.218,-0.085 1.672,-0.257 0.453,-0.172 0.831,-0.43 1.134,-0.776 0.303,-0.346 0.53,-0.776 0.68,-1.291 0.15,-0.513 0.226,-1.113 0.226,-1.799 z"
   id="path8"
   inkscape:connector-curvature="0"
   style="fill:#ffffff" />
<path
   d="m -342.99475,646.128 c 0,0.141 -0.024,0.267 -0.073,0.376 -0.051,0.11 -0.116,0.201 -0.199,0.276 -0.081,0.074 -0.18,0.126 -0.293,0.16 -0.114,0.034 -0.229,0.051 -0.345,0.051 h -1.028 c -0.215,0 -0.399,-0.021 -0.557,-0.064 -0.155,-0.042 -0.3,-0.121 -0.431,-0.234 -0.132,-0.113 -0.259,-0.267 -0.381,-0.459 -0.123,-0.193 -0.26,-0.443 -0.412,-0.749 l -2.958,-5.557 c -0.172,-0.33 -0.346,-0.687 -0.523,-1.07 -0.178,-0.383 -0.337,-0.754 -0.478,-1.116 h -0.018 c 0.025,0.441 0.043,0.88 0.055,1.317 0.012,0.437 0.018,0.89 0.018,1.354 v 6.218 c 0,0.062 -0.017,0.117 -0.051,0.166 -0.034,0.049 -0.092,0.09 -0.175,0.124 -0.083,0.034 -0.195,0.06 -0.335,0.077 -0.141,0.019 -0.322,0.028 -0.542,0.028 -0.214,0 -0.392,-0.009 -0.533,-0.028 -0.141,-0.019 -0.251,-0.044 -0.33,-0.077 -0.08,-0.033 -0.135,-0.075 -0.166,-0.124 -0.03,-0.049 -0.046,-0.104 -0.046,-0.166 V 635.95 c 0,-0.288 0.084,-0.503 0.252,-0.648 0.168,-0.143 0.375,-0.216 0.62,-0.216 h 1.294 c 0.233,0 0.429,0.02 0.588,0.06 0.159,0.04 0.301,0.105 0.427,0.198 0.125,0.092 0.245,0.219 0.354,0.381 0.11,0.163 0.223,0.363 0.339,0.602 l 2.315,4.344 c 0.133,0.263 0.268,0.523 0.399,0.776 0.131,0.253 0.259,0.509 0.381,0.763 0.121,0.254 0.24,0.503 0.358,0.748 0.116,0.245 0.229,0.49 0.339,0.735 h 0.009 c -0.018,-0.429 -0.032,-0.877 -0.041,-1.341 -0.009,-0.465 -0.013,-0.909 -0.013,-1.331 v -5.575 c 0,-0.061 0.018,-0.116 0.054,-0.166 0.036,-0.049 0.098,-0.092 0.184,-0.128 0.085,-0.037 0.199,-0.063 0.339,-0.078 0.141,-0.016 0.322,-0.023 0.542,-0.023 0.208,0 0.381,0.007 0.523,0.023 0.141,0.016 0.249,0.041 0.327,0.078 0.075,0.037 0.13,0.079 0.161,0.128 0.03,0.05 0.045,0.104 0.045,0.166 v 10.682 z"
   id="path10"
   inkscape:connector-curvature="0"
   style="fill:#ffffff" />
<path
   d="m -333.35975,643.408 c 0,0.626 -0.117,1.173 -0.349,1.644 -0.233,0.472 -0.548,0.866 -0.946,1.18 -0.398,0.316 -0.864,0.552 -1.397,0.712 -0.532,0.159 -1.102,0.238 -1.708,0.238 -0.41,0 -0.791,-0.034 -1.143,-0.101 -0.352,-0.068 -0.663,-0.148 -0.932,-0.243 -0.27,-0.095 -0.495,-0.194 -0.675,-0.299 -0.18,-0.104 -0.312,-0.196 -0.391,-0.276 -0.079,-0.079 -0.135,-0.194 -0.17,-0.344 -0.033,-0.15 -0.051,-0.366 -0.051,-0.648 0,-0.19 0.006,-0.349 0.019,-0.477 0.012,-0.129 0.031,-0.233 0.06,-0.313 0.027,-0.079 0.064,-0.136 0.11,-0.17 0.046,-0.033 0.099,-0.051 0.161,-0.051 0.086,0 0.207,0.051 0.362,0.152 0.156,0.1 0.357,0.213 0.602,0.335 0.245,0.122 0.537,0.234 0.877,0.335 0.339,0.101 0.733,0.152 1.18,0.152 0.293,0 0.557,-0.035 0.789,-0.106 0.232,-0.071 0.43,-0.17 0.592,-0.299 0.162,-0.128 0.285,-0.287 0.372,-0.477 0.086,-0.19 0.129,-0.401 0.129,-0.634 0,-0.27 -0.074,-0.5 -0.221,-0.693 -0.147,-0.193 -0.339,-0.365 -0.575,-0.515 -0.236,-0.15 -0.503,-0.291 -0.803,-0.422 -0.3,-0.132 -0.61,-0.271 -0.927,-0.419 -0.319,-0.147 -0.627,-0.314 -0.927,-0.5 -0.3,-0.187 -0.569,-0.41 -0.803,-0.671 -0.236,-0.26 -0.427,-0.569 -0.575,-0.924 -0.148,-0.355 -0.221,-0.78 -0.221,-1.277 0,-0.569 0.106,-1.07 0.317,-1.502 0.212,-0.432 0.496,-0.789 0.854,-1.075 0.359,-0.284 0.781,-0.498 1.268,-0.638 0.487,-0.14 1.003,-0.211 1.547,-0.211 0.282,0 0.564,0.021 0.845,0.064 0.281,0.043 0.545,0.101 0.789,0.175 0.244,0.074 0.463,0.156 0.652,0.248 0.19,0.092 0.316,0.168 0.376,0.23 0.061,0.061 0.102,0.113 0.124,0.156 0.022,0.043 0.04,0.1 0.055,0.17 0.016,0.071 0.026,0.159 0.031,0.267 0.006,0.107 0.01,0.24 0.01,0.4 0,0.178 -0.005,0.328 -0.015,0.45 -0.009,0.122 -0.025,0.224 -0.045,0.303 -0.022,0.079 -0.052,0.138 -0.092,0.175 -0.04,0.037 -0.094,0.055 -0.161,0.055 -0.068,0 -0.175,-0.042 -0.322,-0.128 -0.147,-0.086 -0.328,-0.179 -0.542,-0.281 -0.214,-0.1 -0.462,-0.193 -0.743,-0.276 -0.282,-0.083 -0.591,-0.124 -0.927,-0.124 -0.263,0 -0.493,0.032 -0.688,0.097 -0.196,0.064 -0.361,0.153 -0.491,0.267 -0.132,0.113 -0.23,0.25 -0.294,0.408 -0.064,0.159 -0.096,0.328 -0.096,0.505 0,0.263 0.072,0.491 0.215,0.685 0.144,0.193 0.337,0.364 0.579,0.514 0.242,0.15 0.516,0.291 0.823,0.422 0.306,0.132 0.618,0.271 0.937,0.419 0.318,0.147 0.63,0.314 0.937,0.5 0.306,0.187 0.578,0.41 0.818,0.671 0.238,0.26 0.431,0.567 0.578,0.919 0.148,0.355 0.222,0.769 0.222,1.246 z"
   id="path12"
   inkscape:connector-curvature="0"
   style="fill:#ffffff" />
</svg>