<?xml version="1.0" encoding="UTF-8" standalone="no"?>
<!-- Generator: Adobe Illustrator 17.1.0, SVG Export Plug-In . SVG Version: 6.00 Build 0)  -->

<svg
   xmlns:dc="http://purl.org/dc/elements/1.1/"
   xmlns:cc="http://creativecommons.org/ns#"
   xmlns:rdf="http://www.w3.org/1999/02/22-rdf-syntax-ns#"
   xmlns:svg="http://www.w3.org/2000/svg"
   xmlns="http://www.w3.org/2000/svg"
   xmlns:sodipodi="http://sodipodi.sourceforge.net/DTD/sodipodi-0.dtd"
   xmlns:inkscape="http://www.inkscape.org/namespaces/inkscape"
   version="1.1"
   id="Layer_1"
   x="0px"
   y="0px"
   width="37.799999"
   height="50"
   viewBox="0 0 37.799999 50"
   enable-background="new 0 0 50 50"
   xml:space="preserve"
   sodipodi:docname="AzDocumentDB.svg"
   inkscape:version="0.92.4 (5da689c313, 2019-01-14)"><metadata
   id="metadata23"><rdf:RDF><cc:Work
       rdf:about=""><dc:format>image/svg+xml</dc:format><dc:type
         rdf:resource="http://purl.org/dc/dcmitype/StillImage" /></cc:Work></rdf:RDF></metadata><defs
   id="defs21" /><sodipodi:namedview
   pagecolor="#ffffff"
   bordercolor="#666666"
   borderopacity="1"
   objecttolerance="10"
   gridtolerance="10"
   guidetolerance="10"
   inkscape:pageopacity="0"
   inkscape:pageshadow="2"
   inkscape:window-width="713"
   inkscape:window-height="543"
   id="namedview19"
   showgrid="false"
   inkscape:zoom="4.72"
   inkscape:cx="18.9"
   inkscape:cy="25"
   inkscape:window-x="0"
   inkscape:window-y="0"
   inkscape:window-maximized="0"
   inkscape:current-layer="Layer_1" />
<path
   d="m 0,6.8 v 36.3 c 0,3.8 8.4,6.8 18.9,6.8 V 6.8 Z"
   id="path2"
   inkscape:connector-curvature="0"
   style="fill:#3999c6" />
<path
   d="m 18.6,50 h 0.3 c 10.4,0 18.9,-3.1 18.9,-6.8 V 6.8 H 18.6 Z"
   id="path4"
   inkscape:connector-curvature="0"
   style="fill:#59b4d9" />
<path
   d="m 37.8,6.8 c 0,3.8 -8.4,6.8 -18.9,6.8 C 8.4,13.6 0,10.6 0,6.8 0,3.1 8.5,0 18.9,0 29.3,0 37.8,3.1 37.8,6.8"
   id="path6"
   inkscape:connector-curvature="0"
   style="fill:#ffffff" />
<path
   d="m 33.9,6.4 c 0,2.5 -6.7,4.5 -15,4.5 -8.3,0 -15,-2 -15,-4.5 0,-2.5 6.7,-4.5 15,-4.5 8.3,0 15,2 15,4.5"
   id="path8"
   inkscape:connector-curvature="0"
   style="fill:#7fba00" />
<path
   d="m 30.8,9.2 c 2,-0.8 3.1,-1.7 3.1,-2.8 0,-2.5 -6.7,-4.5 -15,-4.5 -8.3,0 -15,2 -15,4.5 0,1 1.2,2 3.1,2.8 2.7,-1.1 7,-1.8 11.9,-1.8 4.8,0 9.1,0.7 11.9,1.8"
   id="path10"
   inkscape:connector-curvature="0"
   style="fill:#b8d432" />
<g
   id="g16"
   transform="translate(-6.1)">
	<path
   d="m 19.6,41.8 c -1.5,0 -2.7,-0.2 -3.5,-0.5 -0.9,-0.3 -1.5,-0.8 -1.9,-1.4 -0.4,-0.7 -0.6,-1.7 -0.6,-3 v -2.2 c 0,-1.4 -0.6,-2.2 -1.8,-2.2 v -2.7 c 1.2,0 1.8,-0.7 1.8,-2.2 v -2 c 0,-1.4 0.2,-2.5 0.6,-3.1 0.4,-0.7 1,-1.1 1.8,-1.5 0.9,-0.3 2,-0.5 3.5,-0.5 v 2.7 c -0.7,0 -1.1,0.1 -1.5,0.4 -0.3,0.3 -0.5,0.8 -0.5,1.5 v 1.7 c 0,1.1 -0.1,2 -0.4,2.7 -0.3,0.7 -0.8,1.2 -1.5,1.5 v 0 c 0.7,0.3 1.2,0.8 1.5,1.6 0.3,0.7 0.5,1.7 0.5,2.8 v 1.5 c 0,0.7 0.1,1.2 0.4,1.5 0.3,0.3 0.8,0.5 1.5,0.5 v 2.9 z"
   id="path12"
   inkscape:connector-curvature="0"
   style="fill:#ffffff" />
	<path
   d="m 36.6,32.5 c -1.2,0 -1.8,0.7 -1.8,2.2 v 2 c 0,1.4 -0.2,2.5 -0.6,3.1 -0.4,0.7 -1,1.1 -1.8,1.5 -0.9,0.3 -2,0.5 -3.5,0.5 v -2.7 c 0.7,0 1.2,-0.1 1.5,-0.4 0.3,-0.3 0.5,-0.8 0.5,-1.5 v -1.7 c 0,-1.1 0.1,-2 0.4,-2.7 0.3,-0.7 0.8,-1.2 1.5,-1.5 v 0 C 32.1,31 31.6,30.4 31.3,29.7 31,29 30.8,28 30.8,26.9 v -1.5 c 0,-0.7 -0.1,-1.2 -0.4,-1.5 -0.3,-0.3 -0.8,-0.5 -1.5,-0.5 v -2.7 c 1.5,0 2.7,0.2 3.5,0.5 0.9,0.3 1.5,0.8 1.9,1.4 0.4,0.7 0.6,1.7 0.6,3 v 2.2 c 0,1.4 0.6,2.2 1.8,2.2 v 2.5 z"
   id="path14"
   inkscape:connector-curvature="0"
   style="fill:#ffffff" />
</g>
</svg>