<?xml version="1.0" encoding="UTF-8" standalone="no"?>
<!-- Generator: Adobe Illustrator 18.1.1, SVG Export Plug-In . SVG Version: 6.00 Build 0)  -->

<svg
   xmlns:dc="http://purl.org/dc/elements/1.1/"
   xmlns:cc="http://creativecommons.org/ns#"
   xmlns:rdf="http://www.w3.org/1999/02/22-rdf-syntax-ns#"
   xmlns:svg="http://www.w3.org/2000/svg"
   xmlns="http://www.w3.org/2000/svg"
   xmlns:sodipodi="http://sodipodi.sourceforge.net/DTD/sodipodi-0.dtd"
   xmlns:inkscape="http://www.inkscape.org/namespaces/inkscape"
   version="1.1"
   id="Layer_1"
   x="0px"
   y="0px"
   viewBox="-163 237 29 30"
   enable-background="new -163 237 32 32"
   xml:space="preserve"
   sodipodi:docname="AzEventHubsColor.svg"
   width="29"
   height="30"
   inkscape:version="0.92.4 (5da689c313, 2019-01-14)"><metadata
   id="metadata23"><rdf:RDF><cc:Work
       rdf:about=""><dc:format>image/svg+xml</dc:format><dc:type
         rdf:resource="http://purl.org/dc/dcmitype/StillImage" /></cc:Work></rdf:RDF></metadata><defs
   id="defs21" /><sodipodi:namedview
   pagecolor="#ffffff"
   bordercolor="#666666"
   borderopacity="1"
   objecttolerance="10"
   gridtolerance="10"
   guidetolerance="10"
   inkscape:pageopacity="0"
   inkscape:pageshadow="2"
   inkscape:window-width="713"
   inkscape:window-height="543"
   id="namedview19"
   showgrid="false"
   inkscape:zoom="7.375"
   inkscape:cx="15"
   inkscape:cy="15"
   inkscape:window-x="0"
   inkscape:window-y="0"
   inkscape:window-maximized="0"
   inkscape:current-layer="Layer_1" />
<path
   d="m -145,250.5 c 0,0.3 -0.2,0.5 -0.5,0.5 h -3.9 c -0.3,0 -0.5,-0.2 -0.5,-0.5 v -2.9 c 0,-0.3 0.2,-0.5 0.5,-0.5 h 3.9 c 0.3,0 0.5,0.2 0.5,0.5 z"
   id="path2"
   inkscape:connector-curvature="0"
   style="fill:#b8d432" />
<path
   d="m -138,253.5 c 0,0.3 -0.2,0.5 -0.5,0.5 h -3.9 c -0.3,0 -0.5,-0.2 -0.5,-0.5 v -2.9 c 0,-0.3 0.2,-0.5 0.5,-0.5 h 3.9 c 0.3,0 0.5,0.2 0.5,0.5 z"
   id="path4"
   inkscape:connector-curvature="0"
   style="fill:#b8d432" />
<path
   d="m -145,256.5 c 0,0.3 -0.2,0.5 -0.5,0.5 h -3.9 c -0.3,0 -0.5,-0.2 -0.5,-0.5 v -2.9 c 0,-0.3 0.2,-0.5 0.5,-0.5 h 3.9 c 0.3,0 0.5,0.2 0.5,0.5 z"
   id="path6"
   inkscape:connector-curvature="0"
   style="fill:#b8d432" />
<path
   d="m -152,247.5 c 0,0.3 -0.2,0.5 -0.5,0.5 h -4 c -0.3,0 -0.5,-0.2 -0.5,-0.5 v -3 c 0,-0.3 0.2,-0.5 0.5,-0.5 h 3.9 c 0.4,0 0.6,0.2 0.6,0.5 z"
   id="path8"
   inkscape:connector-curvature="0"
   style="fill:#b8d432" />
<path
   d="m -134.5,237 v 0 h -3 -22.1 -1.9 -1 c -0.3,0 -0.5,0.2 -0.5,0.5 v 6 c 0,0.3 0.2,0.5 0.5,0.5 h 3 c 0.3,0 0.5,-0.2 0.5,-0.5 V 241 h 21 v 2.5 c 0,0.3 0.2,0.5 0.6,0.5 h 2.9 c 0.3,0 0.5,-0.2 0.5,-0.5 v -3 -3 c 0,-0.3 -0.2,-0.5 -0.5,-0.5 z"
   id="path10"
   inkscape:connector-curvature="0"
   style="fill:#0072c6" />
<path
   d="m -134.5,260.1 h -2.9 c -0.3,0 -0.5,0.2 -0.5,0.5 V 263 H -159 v -2.5 c 0,-0.3 -0.2,-0.5 -0.6,-0.5 h -2.9 c -0.3,0 -0.5,0.2 -0.5,0.6 v 5.9 c 0,0.3 0.2,0.5 0.5,0.5 h 1 2 22.1 2.8 0.1 c 0.3,0 0.5,-0.2 0.5,-0.5 v -5.9 c 0,-0.3 -0.2,-0.5 -0.5,-0.5 z"
   id="path12"
   inkscape:connector-curvature="0"
   style="fill:#0072c6" />
<path
   d="m -152,253.5 c 0,0.3 -0.2,0.5 -0.5,0.5 h -4 c -0.3,0 -0.5,-0.2 -0.5,-0.5 v -3 c 0,-0.3 0.2,-0.5 0.5,-0.5 h 3.9 c 0.4,0 0.6,0.2 0.6,0.5 z"
   id="path14"
   inkscape:connector-curvature="0"
   style="fill:#b8d432" />
<path
   d="m -152,259.5 c 0,0.3 -0.2,0.5 -0.5,0.5 h -4 c -0.3,0 -0.5,-0.2 -0.5,-0.5 v -3 c 0,-0.3 0.2,-0.5 0.5,-0.5 h 3.9 c 0.4,0 0.6,0.2 0.6,0.5 z"
   id="path16"
   inkscape:connector-curvature="0"
   style="fill:#b8d432" />
</svg>