<?xml version="1.0" encoding="UTF-8" standalone="no"?>
<!-- Generator: Adobe Illustrator 18.1.0, SVG Export Plug-In . SVG Version: 6.00 Build 0)  -->

<svg
   xmlns:dc="http://purl.org/dc/elements/1.1/"
   xmlns:cc="http://creativecommons.org/ns#"
   xmlns:rdf="http://www.w3.org/1999/02/22-rdf-syntax-ns#"
   xmlns:svg="http://www.w3.org/2000/svg"
   xmlns="http://www.w3.org/2000/svg"
   xmlns:sodipodi="http://sodipodi.sourceforge.net/DTD/sodipodi-0.dtd"
   xmlns:inkscape="http://www.inkscape.org/namespaces/inkscape"
   version="1.0"
   x="0px"
   y="0px"
   viewBox="0 0 39.5 40.700001"
   enable-background="new 0 0 152 117.5"
   xml:space="preserve"
   id="svg37"
   sodipodi:docname="AzEventHubs.svg"
   width="39.5"
   height="40.700001"
   inkscape:version="0.92.4 (5da689c313, 2019-01-14)"><metadata
   id="metadata43"><rdf:RDF><cc:Work
       rdf:about=""><dc:format>image/svg+xml</dc:format><dc:type
         rdf:resource="http://purl.org/dc/dcmitype/StillImage" /></cc:Work></rdf:RDF></metadata><defs
   id="defs41" /><sodipodi:namedview
   pagecolor="#ffffff"
   bordercolor="#666666"
   borderopacity="1"
   objecttolerance="10"
   gridtolerance="10"
   guidetolerance="10"
   inkscape:pageopacity="0"
   inkscape:pageshadow="2"
   inkscape:window-width="713"
   inkscape:window-height="543"
   id="namedview39"
   showgrid="false"
   inkscape:zoom="2.0085106"
   inkscape:cx="17.9"
   inkscape:cy="20.35"
   inkscape:window-x="0"
   inkscape:window-y="0"
   inkscape:window-maximized="0"
   inkscape:current-layer="svg37" />
<g
   id="Layer_1"
   transform="translate(-58.1,-38.4)">
	<g
   id="Azure">
	</g>
	<g
   id="BizTalk_Services"
   transform="translate(37.3575,-2500.2)">
	</g>
	<g
   id="g20">
		<path
   d="m 82.6,56.7 c 0,0.4 -0.3,0.7 -0.7,0.7 h -5.3 c -0.4,0 -0.7,-0.3 -0.7,-0.7 v -3.9 c 0,-0.4 0.3,-0.7 0.7,-0.7 h 5.3 c 0.4,0 0.7,0.3 0.7,0.7 z"
   id="path4"
   inkscape:connector-curvature="0"
   style="fill:#006fd4" />
		<path
   d="m 92.1,60.8 c 0,0.4 -0.3,0.7 -0.7,0.7 h -5.3 c -0.4,0 -0.7,-0.3 -0.7,-0.7 v -3.9 c 0,-0.4 0.3,-0.7 0.7,-0.7 h 5.3 c 0.4,0 0.7,0.3 0.7,0.7 z"
   id="path6"
   inkscape:connector-curvature="0"
   style="fill:#006fd4" />
		<path
   d="m 82.6,64.8 c 0,0.4 -0.3,0.7 -0.7,0.7 h -5.3 c -0.4,0 -0.7,-0.3 -0.7,-0.7 v -3.9 c 0,-0.4 0.3,-0.7 0.7,-0.7 h 5.3 c 0.4,0 0.7,0.3 0.7,0.7 z"
   id="path8"
   inkscape:connector-curvature="0"
   style="fill:#006fd4" />
		<path
   d="m 73.1,52.6 c 0,0.4 -0.3,0.7 -0.7,0.7 H 67 c -0.4,0 -0.7,-0.3 -0.7,-0.7 v -4.1 c 0,-0.4 0.3,-0.7 0.7,-0.7 h 5.3 c 0.5,0 0.8,0.3 0.8,0.7 z"
   id="path10"
   inkscape:connector-curvature="0"
   style="fill:#006fd4" />
		<path
   d="m 96.8,38.4 h -0.1 -3.9 -30 -2.6 -1.4 c -0.4,0 -0.7,0.3 -0.7,0.7 v 8.1 c 0,0.4 0.3,0.7 0.7,0.7 h 4.1 c 0.4,0 0.7,-0.3 0.7,-0.7 v -3.4 h 28.5 v 3.4 c 0,0.4 0.3,0.7 0.8,0.7 h 3.9 c 0.4,0 0.7,-0.3 0.7,-0.7 V 43.1 39 c 0,-0.4 -0.3,-0.6 -0.7,-0.6 z"
   id="path12"
   inkscape:connector-curvature="0"
   style="fill:#006fd4" />
		<path
   d="m 96.8,69.7 h -3.9 c -0.4,0 -0.7,0.3 -0.7,0.7 v 3.3 H 63.6 v -3.4 c 0,-0.4 -0.3,-0.7 -0.8,-0.7 h -3.9 c -0.4,0 -0.7,0.3 -0.7,0.8 v 8 c 0,0.4 0.3,0.7 0.7,0.7 h 1.4 2.7 30 3.8 0.1 c 0.4,0 0.7,-0.3 0.7,-0.7 v -8 C 97.5,70 97.2,69.7 96.8,69.7 Z"
   id="path14"
   inkscape:connector-curvature="0"
   style="fill:#006fd4" />
		<path
   d="m 73,60.7 c 0,0.4 -0.3,0.7 -0.7,0.7 H 67 c -0.4,0 -0.7,-0.3 -0.7,-0.7 v -3.9 c 0,-0.4 0.3,-0.7 0.7,-0.7 h 5.3 c 0.4,0 0.7,0.3 0.7,0.7 z"
   id="path16"
   inkscape:connector-curvature="0"
   style="fill:#006fd4" />
		<path
   d="m 73,68.8 c 0,0.4 -0.3,0.7 -0.7,0.7 H 67 c -0.4,0 -0.7,-0.3 -0.7,-0.7 v -3.9 c 0,-0.4 0.3,-0.7 0.7,-0.7 h 5.3 c 0.4,0 0.7,0.3 0.7,0.7 z"
   id="path18"
   inkscape:connector-curvature="0"
   style="fill:#006fd4" />
	</g>
</g>
<g
   id="paths"
   transform="translate(-58.1,-38.4)">
	<g
   id="Access_control">
	</g>
	<g
   id="Azure_active_directory">
	</g>
	<g
   id="API_Management">
	</g>
	<g
   id="Azure_automation">
	</g>
	<g
   id="Azure_SQL_database">
	</g>
	<g
   id="Azure_subscription">
	</g>
	<g
   id="Backup_service">
	</g>
	<g
   id="Bitbucket_code_source">
	</g>
	<g
   id="Azure_cache">
	</g>
	<g
   id="Content_delivery_network__x28_CDN_x29_">
	</g>
	<g
   id="Cloud_service">
	</g>
	<g
   id="CodePlex">
	</g>
	<g
   id="Dropbox_code_source">
	</g>
</g>
</svg>