<?xml version="1.0" encoding="UTF-8" standalone="no"?>
<!-- Generator: Adobe Illustrator 19.1.0, SVG Export Plug-In . SVG Version: 6.00 Build 0)  -->

<svg
   xmlns:dc="http://purl.org/dc/elements/1.1/"
   xmlns:cc="http://creativecommons.org/ns#"
   xmlns:rdf="http://www.w3.org/1999/02/22-rdf-syntax-ns#"
   xmlns:svg="http://www.w3.org/2000/svg"
   xmlns="http://www.w3.org/2000/svg"
   xmlns:sodipodi="http://sodipodi.sourceforge.net/DTD/sodipodi-0.dtd"
   xmlns:inkscape="http://www.inkscape.org/namespaces/inkscape"
   version="1.1"
   id="Layer_1"
   x="0px"
   y="0px"
   viewBox="-273 365 64.026695 59"
   xml:space="preserve"
   sodipodi:docname="AzFunctions.svg"
   width="64.026695"
   height="59"
   inkscape:version="0.92.4 (5da689c313, 2019-01-14)"><metadata
   id="metadata17"><rdf:RDF><cc:Work
       rdf:about=""><dc:format>image/svg+xml</dc:format><dc:type
         rdf:resource="http://purl.org/dc/dcmitype/StillImage" /></cc:Work></rdf:RDF></metadata><defs
   id="defs15" /><sodipodi:namedview
   pagecolor="#ffffff"
   bordercolor="#666666"
   borderopacity="1"
   objecttolerance="10"
   gridtolerance="10"
   guidetolerance="10"
   inkscape:pageopacity="0"
   inkscape:pageshadow="2"
   inkscape:window-width="713"
   inkscape:window-height="543"
   id="namedview13"
   showgrid="false"
   inkscape:zoom="3.6875"
   inkscape:cx="31.013349"
   inkscape:cy="29.5"
   inkscape:window-x="0"
   inkscape:window-y="0"
   inkscape:window-maximized="0"
   inkscape:current-layer="Layer_1" />
<style
   type="text/css"
   id="style2">
	.st0{fill:#0078D7;}
</style>
<g
   id="g10"
   transform="translate(-0.98665122,-2.5)">
	<path
   class="st0"
   d="m -208.4,395.1 -3.1,-3.1 -13.8,-13.4 c -0.6,-0.6 -1.5,-0.6 -2.2,0 -0.6,0.6 -0.8,1.7 0,2.3 l 14.5,14.2 c 0.6,0.6 0.6,1.7 0,2.3 l -14.8,14.7 c -0.6,0.6 -0.6,1.7 0,2.3 0.6,0.6 1.7,0.5 2.2,0 l 13.7,-13.6 c 0,0 0,0 0.1,-0.1 l 3.4,-3.3 c 0.6,-0.6 0.5,-1.7 0,-2.3 z"
   id="path4"
   inkscape:connector-curvature="0"
   style="fill:#0078d7" />
	<path
   class="st0"
   d="m -266.7,397.4 c -0.6,-0.6 -0.6,-1.7 0,-2.3 l 14.2,-14.2 c 0.8,-0.6 0.6,-1.7 0,-2.3 -0.7,-0.6 -1.6,-0.6 -2.2,0 l -13.8,13.4 -3.1,3.1 c -0.5,0.6 -0.6,1.7 0,2.3 l 3.1,3.5 c 0.1,0.1 0.1,0.1 0.1,0.1 l 14,13.4 c 0.5,0.5 1.6,0.6 2.2,0 0.6,-0.6 0.6,-1.7 0,-2.3 z"
   id="path6"
   inkscape:connector-curvature="0"
   style="fill:#0078d7" />
	<polygon
   class="st0"
   points="-224.4,367.5 -243.9,367.5 -254.4,397.1 -241.6,397.2 -251.6,426.5 -224,387.4 -237.4,387.4 "
   id="polygon8"
   style="fill:#0078d7" />
</g>
</svg>