<?xml version="1.0" encoding="UTF-8" standalone="no"?>
<!-- Generator: Adobe Illustrator 17.1.0, SVG Export Plug-In . SVG Version: 6.00 Build 0)  -->

<svg
   xmlns:dc="http://purl.org/dc/elements/1.1/"
   xmlns:cc="http://creativecommons.org/ns#"
   xmlns:rdf="http://www.w3.org/1999/02/22-rdf-syntax-ns#"
   xmlns:svg="http://www.w3.org/2000/svg"
   xmlns="http://www.w3.org/2000/svg"
   xmlns:sodipodi="http://sodipodi.sourceforge.net/DTD/sodipodi-0.dtd"
   xmlns:inkscape="http://www.inkscape.org/namespaces/inkscape"
   version="1.1"
   id="Layer_1"
   x="0px"
   y="0px"
   width="50.200001"
   height="38.77597"
   viewBox="0 0 50.200001 38.77597"
   enable-background="new 0 0 50 50"
   xml:space="preserve"
   sodipodi:docname="AzHDInsightColor.svg"
   inkscape:version="0.92.4 (5da689c313, 2019-01-14)"><metadata
   id="metadata27"><rdf:RDF><cc:Work
       rdf:about=""><dc:format>image/svg+xml</dc:format><dc:type
         rdf:resource="http://purl.org/dc/dcmitype/StillImage" /></cc:Work></rdf:RDF></metadata><defs
   id="defs25" /><sodipodi:namedview
   pagecolor="#ffffff"
   bordercolor="#666666"
   borderopacity="1"
   objecttolerance="10"
   gridtolerance="10"
   guidetolerance="10"
   inkscape:pageopacity="0"
   inkscape:pageshadow="2"
   inkscape:window-width="713"
   inkscape:window-height="543"
   id="namedview23"
   showgrid="false"
   inkscape:zoom="4.72"
   inkscape:cx="25"
   inkscape:cy="19.263353"
   inkscape:window-x="0"
   inkscape:window-y="0"
   inkscape:window-maximized="0"
   inkscape:current-layer="Layer_1" />
<polygon
   points="10.6,16 7.9,17.7 5.3,20.8 3.9,22.3 2.5,22.8 2.1,21.9 2.8,21 2.9,19.7 3.4,19.7 3.8,20.1 3.7,18.8 3.2,18.4 3.2,17.9 2,18.6 0.8,19.9 0.6,21.1 1.1,22.1 1.5,23.7 2.4,24.1 3.4,24.1 4.3,23.5 3.7,26.6 4.3,30 3.6,31.6 1.5,33.9 1.8,35.4 2.9,37 4.8,38.3 5.9,38.5 7,38.5 6.3,41.5 8.9,42.6 12.2,43 13.3,42.2 13.4,40.3 14.7,38.2 14.8,36.5 17.8,36.8 20.6,36.5 17.8,38.2 18.3,40.2 20,43 21.8,43.7 23.1,43.2 23.7,42 26.6,39.8 27.2,40.3 31.7,40.5 32.6,39.7 32.7,38.4 32.4,37.9 32.2,34.4 30.7,31.4 30.9,30 31.8,30.5 34.4,32.9 35.6,33 37,32.4 38.4,31.4 39.1,29.1 43.1,29.4 45.6,28.4 47.6,26.6 49,23.9 49.4,20.7 49.1,17.1 48.3,13.8 47.5,12.7 46.4,12.4 44.5,14.5 42.8,15.1 41.3,12.6 39.8,11.2 38.9,10.7 35.7,7.9 33,6.5 30.4,6.3 27.3,6.8 24.6,7.8 22.8,9.3 21.3,11.1 19.8,11.5 17.2,14 13.7,14.6 "
   id="polygon2"
   style="clip-rule:evenodd;fill:#fcd116;fill-rule:evenodd"
   transform="translate(0,-5.4873818)" />
<polygon
   points="4.2,20.7 3.9,20.7 3.7,20.8 4.1,21.3 "
   id="polygon4"
   style="fill:#1e1e1e"
   transform="translate(0,-5.4873818)" />
<path
   d="M 49.7,11.412618 C 49.5,9.9126182 49.1,8.4126182 48.5,7.4126182 c -0.1,-0.1 -0.2,-0.3 -0.3,-0.4 -0.3,-0.3 -0.7,-0.5 -1.1,-0.7 -0.4,-0.2 -0.9,-0.2 -1.3,0 -0.1,0.1 -0.2,0.1 -0.3,0.2 -0.2,0.2 -0.4,0.5 -0.6,0.8 -0.2,0.3 -0.5,0.7 -0.7,0.9 -0.3,0.3 -0.7,0.4 -1.1,0.6 -0.2,-0.4 -0.3,-0.8 -0.6,-1.1 -0.3,-0.4 -0.5,-0.8 -0.9,-1.2 -0.3,-0.3 -0.5,-0.5 -0.8,-0.8 -0.3,-0.2 -0.6,-0.4 -0.9,-0.6 -0.9,-0.6 -1.6,-1.2 -2.4,-1.9 -0.3,-0.3 -0.7,-0.6 -1,-0.9 C 34.7,0.81261822 33,0.11261822 31.2,0.01261822 c -1.8,-0.1 -3.7,0.4 -6,1.29999998 -1.1,0.5 -1.9,1 -2.6,1.6 -0.7,0.6 -1.2,1.3 -1.9,2.2 -0.4,0 -0.7,0.1 -1,0.2 -0.4,0.1 -0.7,0.4 -1.2,0.8 -0.3,0.3 -0.6,0.6 -0.9,0.8 v 0 c -0.3,0.3 -0.5,0.5 -0.8,0.8 -2.1,0.3 -3.7,0.7 -5.2,1.3 -1.5,0.6 -2.9,1.3999998 -4.3,2.5999998 -0.6,0.5 -1.1,1 -1.5,1.6 -0.4,0.6 -0.8,1.1 -1.1,1.7 -0.3,0.3 -0.6,0.6 -0.9,0.9 -0.3,0.3 -0.6,0.5 -1,0.6 v 0 c -0.2,0.1 -0.3,0.1 -0.3,0.1 0,0 0,-0.1 0,-0.1 0.5,-0.5 0.6,-1.2 0.6,-1.9 0.1,0.1 0.1,0.2 0.2,0.3 0.1,0.1 0.1,0.2 0.2,0.3 l 0.2,-0.2 0.3,0.1 c 0.1,-0.5 0.2,-1 0.1,-1.6 -0.1,-0.3 -0.2,-0.6 -0.5,-0.8 0,-0.1 0.1,-0.1 0.1,-0.2 0.1,-0.2 0.2,-0.4 0.2,-0.7 l -0.2,-0.1 v 0 l 0.2,0.1 0.3,-0.2 -0.4,0.1 c -0.6,0.1 -1.8,0.8 -2.7,1.7 -0.3,0.3 -0.6,0.7 -0.8,1.1 -0.3,0.5 -0.3,0.9 -0.3,1.3 0.1,0.4 0.3,0.7 0.6,1.1 0.1,0.3 0.1,0.5 0.2,0.7 0.1,0.2 0.2,0.4 0.2,0.6 0.3,0.5 0.7,0.9 1.1,1 0.4,0.1 0.8,0.1 1.2,0 -0.1,0.5 -0.1,1 -0.2,1.5 0,0.7 0,1.5 0.1,2.4 0,0.2 0,0.4 0.1,0.6 0,0.2 0.1,0.4 0.1,0.6 -0.1,0.2 -0.2,0.4 -0.2,0.6 -0.1,0.3 -0.2,0.7 -0.4,1 -0.3,0.3 -0.5,0.5 -0.8,0.8 -0.2,0.2 -0.5,0.5 -0.7,0.7 0,0 -0.1,0.1 -0.2,0.2 -0.5,0.5 -0.6,0.6 -0.5,1.4 0.1,0.5 0.3,1 0.5,1.6 0.2,0.5 0.6,0.9 1,1.4 0.7,0.6 1.6,1.2 2.5,1.6 0.5,0.2 1.1,0.3 1.6,0.2 0,0.1 0,0.2 -0.1,0.2 -0.1,0.2 -0.2,0.4 -0.3,0.7 -0.6,1.4 0,2.1 1,2.5 0.5,0.2 1.1,0.4 1.6,0.5 0.1,0 0.2,0.1 0.4,0.1 0.6,0.2 1.8,0.5 2.8,0.6 1.1,0.1 2.1,-0.2 2.4,-1.2 0.1,-0.4 0.2,-0.7 0.2,-1 0,-0.3 0,-0.6 0,-0.9 0.3,-0.7 0.5,-0.9 0.7,-1.2 0,-0.1 0.1,-0.1 0.1,-0.2 0.2,-0.4 0.4,-0.6 0.4,-0.9 0,-0.3 0,-0.6 0,-1 0,0 0,-0.1 0,-0.2 0.6,0.1 1.3,0.1 1.9,0.1 0.3,0 0.6,0 1,0 -0.1,0 -0.2,0.1 -0.3,0.1 0,0 -0.1,0 -0.1,0.1 -0.9,0.4 -0.9,1.3 -0.6,2.1 0.2,0.8 0.7,1.6 1.1,2 0.7,1 1.3,1.9 2,2.3 0.8,0.5 1.7,0.5 2.9,-0.1 0.6,-0.3 0.8,-0.7 1,-1.1 0.1,-0.1 0.2,-0.3 0.3,-0.4 0.2,-0.2 0.8,-0.7 1.5,-1.2 0.2,-0.2 0.4,-0.3 0.7,-0.5 0.2,0.1 0.3,0.2 0.6,0.3 0.3,0.1 0.7,0.1 1.1,0.1 0.3,0 1.4,0 2.1,0 0.2,0 0.4,0 0.5,0 0.7,0 1.3,0 1.7,-0.3 0.5,-0.3 0.7,-0.7 0.8,-1.5 0,-0.4 0,-0.6 0,-0.8 0,-0.2 -0.1,-0.4 -0.3,-0.7 0,-0.4 0,-0.7 0,-1.1 0,-0.4 0,-0.8 0,-1.1 0,-0.4 -0.1,-0.8 -0.2,-1.2 -0.1,-0.4 -0.2,-0.7 -0.4,-1.1 -0.1,-0.3 -0.2,-0.5 -0.3,-0.8 l -0.2,0.1 v 0 l 0.2,-0.1 v 0 c -0.1,-0.4 -0.3,-0.8 -0.5,-1.2 0,-0.1 0,-0.2 0,-0.3 0.1,0.1 0.3,0.3 0.4,0.4 l 0.6,0.6 c 0.4,0.4 0.8,0.8 1.3,1.1 0.5,0.3 1,0.5 1.7,0.4 0.7,0 1.5,-0.3 2.2,-0.8 0.6,-0.5 1.1,-1.1 1.4,-1.8 0.1,-0.2 0.1,-0.4 0.2,-0.6 0,-0.2 0.1,-0.3 0.1,-0.5 1,0.2 2.2,0.2 3.2,0.1 1,-0.1 2.1,-0.4 2.9,-0.8 1.3,-0.7 2.2,-1.7 2.9,-2.9 v 0 c 0.8,-1.3 1.2,-2.9 1.4,-4.5 -0.1,-1.2 -0.2,-3 -0.5,-4.7 z m -15,12.1 c -0.3,1 -0.8,2.7 0.6,3 0.5,0.1 0.8,0.1 1.5,-0.3 -0.6,0.1 -0.9,0.1 -1.3,0 -0.4,-0.1 -0.6,-0.3 -0.7,-0.6 0.1,0.1 0.3,0.1 0.7,0.2 1,0.2 2,-0.2 2.2,-1 0.1,-0.4 0.1,-0.6 0.3,-1.2 0.2,0.1 0.4,0.1 0.7,0.2 -0.1,0.4 -0.3,0.8 -0.4,1.3 -0.3,1.1 -1.6,2 -2.8,1.9 -1.1,0 -1.7,-0.7 -2.5,-1.3 -0.5,-0.4 -1,-0.9 -1.5,-1.3 -1.3,-0.4 -2.4,-0.9 -3.6,-1.8 0.9,1 1.5,1.6 2.7,2.1 -0.2,1.8 -0.8,3.1 -1.3,4.8 -0.2,0.8 -2.1,3.9 -2.7,4.2 -0.4,0.2 -2.7,2.2 -3.2,2.5 -0.3,0.4 -0.6,1 -1.1,1.3 -1.5,0.8 -2.5,-0.7 -3.3,-2 -0.4,-0.6 -1.4,-2.3 -0.5,-2.8 0.8,-0.4 1.3,-0.8 2.2,-1.3 0.1,0.2 0.3,0.5 0.5,0.7 0,-0.3 -0.1,-0.5 -0.1,-0.8 -0.1,-0.5 -0.1,-0.8 0,-1.3 0,-0.4 0.1,-0.9 0.1,-1.3 -0.1,0.5 -0.4,0.9 -0.5,1.4 -0.1,0.2 -0.1,0.3 -0.1,0.5 -1.9,0.4 -3.9,0.4 -5.8,0.1 -0.1,-0.7 -0.3,-1.5 -0.4,-2 0,0.6 0,2.3 0,3.2 0,0.7 0,1 -0.4,1.6 -0.3,0.6 -0.5,0.7 -1,1.7 0,0.6 0,1 -0.1,1.6 -0.3,1 -3,0.2 -3.7,0 -0.9,-0.2 -2.7,-0.6 -2.3,-1.8 0.4,-1 0.7,-2.1 0.9,-3.6 -1.6,-2.3 -3.1,-5.5 -3.4,-8.4 -0.2,-2.2 -0.1,-3.6 0.4,-4.9 0.8,-2.1 1.8,-4 3.5,-5.5 2.3,-2 4.4,-2.7999998 7.8,-3.2999998 -0.8,0.8999998 -1.6,1.8999998 -2.5,2.8999998 -0.9,1 -1.4,2.1 -2,3.2 -0.8,1.6 -0.8,2.2 0.3,3.5 0.9,1.2 1.4,1.7 1.7,2.9 -0.3,0.7 -0.4,1.2 -0.5,2.1 1.1,1.2 1.9,2 2.9,2.2 1,0.2 1.9,0.2 2.8,-0.3 2,-1 3.9,-2.4 6.2,-2.5 1.1,-2.6 1,-4.8 0.4,-7.4 -0.3,-1.7 -0.5,-3.4 -0.6,-5.1 -0.4,1.8 -0.5,3.4 -0.2,5.2 0.4,2.2 0.7,4.6 -0.4,6.5 -2.1,0.2 -3.9,1.4 -5.8,2.4 -0.8,0.4 -1.5,0.4 -2.4,0.2 -0.6,-0.1 -1.1,-0.6 -2,-1.6 0,-1 0.2,-1.4 0.6,-2.3 0.7,-1.4 1.5,-2.7 2.4,-4.1 -1,1.3 -2,2.4 -2.8,3.6 -0.3,-0.9 -0.8,-1.4 -1.5,-2.4 -0.7,-1 -0.8,-1.4 -0.3,-2.6 0.6,-1.2 1,-2.2 2,-3.2 1.6,-1.8 3.1,-3.6999998 4.9,-5.4999998 1,-0.9 1.4,-0.9 2.6,-1.1 1.2,-0.2 2.3,-0.4 3.5,-0.7 -1.2,0.2 -2.3,0.3 -3.4,0.3 0,0 0,0 0,0 1.1,-1.4 1.7,-2.2 3.5,-3 4.4,-1.89999998 7.2,-2.09999998 10.6,0.8 0.9,0.8 1.7,1.5 2.6,2.1 -0.3,0 -0.6,0.1 -1,0.2 0.5,-0.1 1,0 1.5,0.1 0.1,0.1 0.3,0.2 0.4,0.3 0.6,0.4 1,0.6 1.4,1.2 0.5,0.6 0.8,1.3 1.2,2 -0.2,-0.1 -0.4,-0.1 -0.6,-0.2 -0.1,-0.1 -0.3,-0.1 -0.4,-0.1 -0.3,0 -0.5,0 -0.8,0.2 0,0 0,0 0,0 -0.4,0.2 -0.9,0.4 -1.3,0.4 0.2,0.1 0.6,0.1 0.8,0 0,0 0.1,0 0.1,0 -0.1,0.1 -0.1,0.3 -0.2,0.4999998 0,0.2 0,0.5 0.1,0.7 0,0 0,0 0,0 0,0.1 0.1,0.1 0.1,0.2 -0.2,0.1 -0.3,0.1 -0.5,0.2 0.8,-0.1 1.6,-0.1 2.4,0 0.1,0.3 0.1,0.5 0.2,0.8 -0.1,0 -0.2,0 -0.3,0 0,0 0,0 0,0 -0.4,-0.3 -0.8,-0.3 -1.4,-0.1 -1.7,0.4 -1.3,1.4 -2.1,2.9 0.8,-1 0.8,-2.1 2.1,-2.4 0.3,-0.1 0.5,-0.2 0.7,-0.1 -0.4,0.2 -0.7,0.5 -0.9,0.9 -0.4,1.1 -0.1,1.9 -0.6,2.9 0.5,-0.9 0.5,-1.7 1,-2.7 0.2,-0.3 0.8,-0.9 1.1,-0.9 0.1,0 0.2,0 0.3,0 0.1,0.6 0.1,1.2 0.1,1.6 -0.1,0.9 -0.3,2.2 -0.4,2.7 0.5,-0.6 0.7,-1.8 0.9,-2.7 0.2,-0.9 0.2,-2 0,-3 -0.3,-1.3999998 1.1,-1.0999998 1.9,-1.7999998 0.6,-0.5 1,-1.2 1.5,-1.7 0.5,-0.5 1.4,0.2 1.6,0.8 0.9,2.1999998 1.3,5.6999998 1.1,7.9999998 -0.3,2.5 -1.5,5.3 -3.7,6.5 -2.8,1.6 -6.2,0.6 -9,-0.3 -0.6,-0.2 -1,-0.5 -1.5,-0.8 0.3,0.5 0.4,1.2 0.2,1.8 z m -2.5,10.1 c -0.1,1 -0.4,1.1 -1.4,1.1 -0.4,0 -2.1,0 -2.5,-0.1 -0.6,-0.1 -0.9,-0.1 -1.1,-0.2 0.9,-0.7 2.5,-3.5 2.8,-4.5 0.3,-1 0.7,-1.9 0.9,-2.9 0.1,0.4 0.2,0.8 0.4,1.2 0.3,0.7 0.4,1.1 0.5,1.9 0,0.8 0,1.6 0.1,2.4 0.3,0.5 0.3,0.6 0.3,1.1 z m -29.2,-20.8 c -0.2,0.3 -0.3,0.6 -0.3,0.8 -0.3,1.1 0.1,2.1 -0.9,2.9 0.5,0.9 0.4,1.3 1.5,0.9 0.4,-0.2 0.8,-0.4 1.1,-0.7 -0.1,0.4 -0.3,0.8 -0.4,1.2 0,0.1 0,0.1 -0.1,0.2 -0.8,0.3 -1.8,0.5 -2.2,-0.3 -0.2,-0.4 -0.3,-0.8 -0.4,-1.3 -1.3,-1.3 0.6,-3.1 1.7,-3.7 z m 0.1,1.2 c 0,-0.1 0,-0.3 0.1,-0.4 0,-0.1 0,-0.1 0.1,-0.2 0.3,0.2 0.3,0.4 0.4,0.8 -0.2,-0.2 -0.4,-0.3 -0.6,-0.2 z m 1,11.7 c 0.6,2 1.6,4.1 2.7,5.8 0,0 0,0 0,0 -0.1,0.3 -0.2,0.6 -0.3,0.8 -0.8,1.1 -2.8,-0.5 -3.4,-1.1 -0.7,-0.7 -1.1,-1.5 -1.2,-2.2 -0.1,-0.5 0,-0.5 0.4,-0.9 0.5,-0.5 1,-1 1.5,-1.5 0.1,-0.3 0.2,-0.6 0.3,-0.9 z M 42.2,9.2126182 c 0,0.1 0.1,0.2 0.1,0.3 0,0 -0.1,0.1 -0.1,0.1 -0.1,-0.1 -0.2,-0.3 -0.3,-0.4 0.1,0 0.2,0 0.3,0 z M 5,15.312618 v 0 0 z m -1.6,-2.4 v 0 0 z m -2.5,3.8 v 0 0 z m 14,14.7 v 0 0 z m 24.4,-7.4 v 0 0 0 0 z m 9,-3.4 v 0 0 z"
   id="path6"
   inkscape:connector-curvature="0"
   style="fill:#1e1e1e" />
<path
   d="m 44.7,10.412618 c 1.4,-0.4999998 2.1,-1.5999998 2.4,-2.9999998 -0.6,1.1 -1.4,2.1 -2.6,2.5999998 -0.6,0.3 -1,0.2 -1.7,0.1 0.7,0.3 1.2,0.5 1.9,0.3 z"
   id="path8"
   inkscape:connector-curvature="0"
   style="fill:#1e1e1e" />
<path
   d="m 36.7,11.812618 c -0.4,0 -0.9,0.1 -1.5,0.2 0,-0.2 -0.1,-0.3 -0.1,-0.5 -0.2,-0.4 -0.5,-0.7 -0.9,-0.8 0.3,-0.2 0.7,-0.4 1,-0.6 -0.8,0.4 -1.7,0.3 -2.4,0.7 -0.6,0.4 -1.4,1.7 -2,2.2 0.4,-0.2 0.8,-0.5 1.2,-0.8 0,0.2 0.1,0.5 0.2,0.7 0.2,0.3 0.4,0.6 0.7,0.7 -0.2,0.3 -0.4,0.6 -0.5,1 1.1,-1.3 2.7,-2.4 4.3,-2.8 z"
   id="path10"
   inkscape:connector-curvature="0"
   style="fill:#1e1e1e" />
<path
   d="m 29.5,10.312618 c 0.3,-1.1999998 0.7,-2.2999998 2.5,-3.0999998 -2.4,0.6 -2.8,1.6 -2.5,3.0999998 z"
   id="path12"
   inkscape:connector-curvature="0"
   style="fill:#1e1e1e" />
<path
   d="m 33.4,21.712618 c -0.1,0.3 -0.1,0.8 -0.2,1.1 0.1,-0.4 0.3,-0.9 0.5,-1.2 0.2,-0.4 0.3,-0.4 0.7,-0.6 0.3,-0.1 0.8,-0.4 1,-0.5 -0.3,0 -0.8,0.2 -1.1,0.2 -0.7,0.1 -0.8,0.3 -0.9,1 z"
   id="path14"
   inkscape:connector-curvature="0"
   style="fill:#1e1e1e" />
<path
   d="m 20.6,8.2126182 c -0.9,0.9 -1.7,3.7999998 -2,4.9999998 0.4,-1 1.5,-3.6999998 2.3,-4.3999998 0.2,-0.2 0.4,-0.3 0.6,-0.4 -0.6,1 -0.5,1.2 -0.3,2.4999998 0.2,-1.2999998 0.6,-1.8999998 1.4,-2.8999998 0.8,-0.2 1.6,-0.5 2.5,-0.8 -1,0.1 -1.9,0.2 -2.9,0.3 -0.9,0.2 -1.1,0.2 -1.6,0.7 z"
   id="path16"
   inkscape:connector-curvature="0"
   style="fill:#1e1e1e" />
<path
   d="m 32.5,13.312618 c -0.2,-0.3 0,-0.7 0.3,-0.9 0.3,-0.2 0.7,0 0.9,0.3 0,0 0,0.1 0,0.1 -0.3,0.2 -0.6,0.5 -0.9,0.8 -0.1,0 -0.3,-0.1 -0.3,-0.3"
   id="path18"
   inkscape:connector-curvature="0"
   style="clip-rule:evenodd;fill:#fffacb;fill-rule:evenodd" />
<path
   d="m 39.9,10.412618 c 0,-0.3 0.3,-0.4999998 0.5,-0.4999998 0.3,0 0.5,0.2999998 0.5,0.4999998 0,0.1 0,0.1 0,0.2 -0.3,0 -0.5,0.1 -0.8,0.2 -0.1,0 -0.2,-0.2 -0.2,-0.4"
   id="path20"
   inkscape:connector-curvature="0"
   style="clip-rule:evenodd;fill:#fffacb;fill-rule:evenodd" />
</svg>