<?xml version="1.0" encoding="UTF-8" standalone="no"?>
<!-- Generator: Adobe Illustrator 19.1.0, SVG Export Plug-In . SVG Version: 6.00 Build 0)  -->

<svg
   xmlns:dc="http://purl.org/dc/elements/1.1/"
   xmlns:cc="http://creativecommons.org/ns#"
   xmlns:rdf="http://www.w3.org/1999/02/22-rdf-syntax-ns#"
   xmlns:svg="http://www.w3.org/2000/svg"
   xmlns="http://www.w3.org/2000/svg"
   xmlns:sodipodi="http://sodipodi.sourceforge.net/DTD/sodipodi-0.dtd"
   xmlns:inkscape="http://www.inkscape.org/namespaces/inkscape"
   version="1.1"
   id="Layer_1"
   x="0px"
   y="0px"
   width="50"
   height="28.646"
   viewBox="0 0 50 28.646"
   enable-background="new 0 0 50 50"
   xml:space="preserve"
   sodipodi:docname="AzHockeyApp.svg"
   inkscape:version="0.92.4 (5da689c313, 2019-01-14)"><metadata
   id="metadata11"><rdf:RDF><cc:Work
       rdf:about=""><dc:format>image/svg+xml</dc:format><dc:type
         rdf:resource="http://purl.org/dc/dcmitype/StillImage" /></cc:Work></rdf:RDF></metadata><defs
   id="defs9" /><sodipodi:namedview
   pagecolor="#ffffff"
   bordercolor="#666666"
   borderopacity="1"
   objecttolerance="10"
   gridtolerance="10"
   guidetolerance="10"
   inkscape:pageopacity="0"
   inkscape:pageshadow="2"
   inkscape:window-width="713"
   inkscape:window-height="543"
   id="namedview7"
   showgrid="false"
   inkscape:zoom="4.72"
   inkscape:cx="25"
   inkscape:cy="14.323"
   inkscape:window-x="0"
   inkscape:window-y="0"
   inkscape:window-maximized="0"
   inkscape:current-layer="Layer_1" />
<path
   id="bottom_1_"
   d="m 45.405,20.461 c 0.159,-0.113 0.377,-0.017 0.408,0.175 0.018,0.115 0.027,0.231 0.027,0.348 0,3.241 -6.945,7.662 -20.836,7.662 -13.891,0 -20.837,-4.421 -20.837,-7.662 0,-0.116 0.009,-0.231 0.027,-0.344 0.03,-0.192 0.249,-0.288 0.408,-0.175 C 8.044,22.914 14.844,25 25.001,25 35.164,25 41.965,22.912 45.405,20.461 Z"
   inkscape:connector-curvature="0"
   style="fill:#009ee1" />
<path
   id="mid_1_"
   d="M 25.001,18.75 C 13.735,18.75 6.277,16.236 2.626,13.33 2.5,13.23 2.31,13.267 2.237,13.41 c -0.189,0.369 -0.284,0.753 -0.284,1.151 0,3.584 7.683,8.356 23.048,8.356 15.365,0 23.046,-4.772 23.046,-8.356 0,-0.397 -0.095,-0.782 -0.284,-1.151 -0.073,-0.143 -0.263,-0.18 -0.389,-0.08 -3.651,2.906 -11.108,5.42 -22.373,5.42 z"
   inkscape:connector-curvature="0"
   style="fill:#009ee1" />
<path
   d="M 25.001,0 C 8.334,0 0,2.898 0,7.031 0,11.164 8.334,16.667 25.001,16.667 41.668,16.667 50,11.164 50,7.031 50,2.898 41.667,0 25.001,0 Z M 25,11.458 C 13.194,11.458 7.292,8.446 7.292,6.38 7.292,4.314 13.194,3.125 25,3.125 c 11.806,0 17.708,1.189 17.708,3.255 0,2.066 -5.902,5.078 -17.708,5.078 z"
   id="path4"
   inkscape:connector-curvature="0"
   style="fill:#009ee1" />
</svg>