<?xml version="1.0" encoding="UTF-8" standalone="no"?>
<!-- Generator: Adobe Illustrator 17.1.0, SVG Export Plug-In . SVG Version: 6.00 Build 0)  -->

<svg
   xmlns:dc="http://purl.org/dc/elements/1.1/"
   xmlns:cc="http://creativecommons.org/ns#"
   xmlns:rdf="http://www.w3.org/1999/02/22-rdf-syntax-ns#"
   xmlns:svg="http://www.w3.org/2000/svg"
   xmlns="http://www.w3.org/2000/svg"
   xmlns:sodipodi="http://sodipodi.sourceforge.net/DTD/sodipodi-0.dtd"
   xmlns:inkscape="http://www.inkscape.org/namespaces/inkscape"
   version="1.1"
   id="Layer_1"
   x="0px"
   y="0px"
   width="32"
   height="31.9"
   viewBox="0 0 32 31.9"
   enable-background="new 0 0 32 32"
   xml:space="preserve"
   sodipodi:docname="AzIoTHub.svg"
   inkscape:version="0.92.4 (5da689c313, 2019-01-14)"><metadata
   id="metadata73"><rdf:RDF><cc:Work
       rdf:about=""><dc:format>image/svg+xml</dc:format><dc:type
         rdf:resource="http://purl.org/dc/dcmitype/StillImage" /></cc:Work></rdf:RDF></metadata><defs
   id="defs71" /><sodipodi:namedview
   pagecolor="#ffffff"
   bordercolor="#666666"
   borderopacity="1"
   objecttolerance="10"
   gridtolerance="10"
   guidetolerance="10"
   inkscape:pageopacity="0"
   inkscape:pageshadow="2"
   inkscape:window-width="713"
   inkscape:window-height="543"
   id="namedview69"
   showgrid="false"
   inkscape:zoom="7.375"
   inkscape:cx="16"
   inkscape:cy="15.9"
   inkscape:window-x="0"
   inkscape:window-y="0"
   inkscape:window-maximized="0"
   inkscape:current-layer="Layer_1" />
<g
   id="g6">
	<g
   id="g4">
		<circle
   cx="13.4"
   cy="4.9000001"
   r="3.0999999"
   id="circle2"
   style="fill:#006dd6" />
	</g>
</g>
<g
   id="g12">
	<g
   id="g10">
		<circle
   cx="20.5"
   cy="14.9"
   r="3.7"
   id="circle8"
   style="fill:#006dd6" />
	</g>
</g>
<g
   id="g18">
	<g
   id="g16">
		<circle
   cx="26.700001"
   cy="25.9"
   r="2.9000001"
   id="circle14"
   style="fill:#006dd6" />
	</g>
</g>
<g
   id="g24">
	<g
   id="g22">
		<circle
   cx="15.2"
   cy="23.9"
   r="2.5"
   id="circle20"
   style="fill:#006dd6" />
	</g>
</g>
<g
   id="g30">
	<g
   id="g28">
		<circle
   cx="5.0999999"
   cy="16.299999"
   r="2.5"
   id="circle26"
   style="fill:#006dd6" />
	</g>
</g>
<g
   id="g36">
	<g
   id="g34">
		
			<rect
   x="10.7"
   y="9"
   transform="matrix(0.5751,0.8181,-0.8181,0.5751,15.1512,-9.6241)"
   width="12.3"
   height="1.6"
   id="rect32"
   style="fill:#006dd6" />
	</g>
</g>
<g
   id="g42">
	<g
   id="g40">
		
			<rect
   x="17.200001"
   y="19.4"
   transform="matrix(0.4968,0.8679,-0.8679,0.4968,29.4089,-10.1933)"
   width="12.6"
   height="1.6"
   id="rect38"
   style="fill:#006dd6" />
	</g>
</g>
<g
   id="g48">
	<g
   id="g46">
		
			<rect
   x="11.9"
   y="7.9000001"
   transform="matrix(0.08274771,0.9966,-0.9966,0.08274771,27.1578,1.5262)"
   width="1.6"
   height="15.3"
   id="rect44"
   style="fill:#006dd6" />
	</g>
</g>
<g
   id="g54">
	<g
   id="g52">
		
			<rect
   x="16.9"
   y="14.1"
   transform="matrix(0.8565,0.5161,-0.5161,0.8565,12.5121,-6.3586)"
   width="1.6"
   height="10.4"
   id="rect50"
   style="fill:#006dd6" />
	</g>
</g>
<g
   id="g60">
	<g
   id="g58">
		<path
   d="m 31.5,0 h -8.1 c -0.3,0 -0.5,0.2 -0.5,0.6 v 2.9 c 0,0.3 0.2,0.5 0.5,0.5 H 28 V 8.5 C 28,8.8 28.2,9 28.6,9 h 2.9 C 31.8,9 32,8.8 32,8.5 v -8 C 32,0.2 31.8,0 31.5,0 Z"
   id="path56"
   inkscape:connector-curvature="0"
   style="fill:#006dd6" />
	</g>
</g>
<g
   id="g66">
	<g
   id="g64">
		<path
   d="m 0.5,31.9 h 8.1 c 0.3,0 0.5,-0.2 0.5,-0.6 V 28.4 C 9.1,28.1 8.9,27.9 8.6,27.9 H 4 V 23.4 C 4,23.1 3.8,22.9 3.4,22.9 H 0.5 C 0.2,22.9 0,23.1 0,23.4 v 8 c 0,0.3 0.2,0.5 0.5,0.5 z"
   id="path62"
   inkscape:connector-curvature="0"
   style="fill:#006dd6" />
	</g>
</g>
</svg>