<?xml version="1.0" encoding="UTF-8" standalone="no"?>
<!-- Generator: Adobe Illustrator 18.1.0, SVG Export Plug-In . SVG Version: 6.00 Build 0)  -->

<svg
   xmlns:dc="http://purl.org/dc/elements/1.1/"
   xmlns:cc="http://creativecommons.org/ns#"
   xmlns:rdf="http://www.w3.org/1999/02/22-rdf-syntax-ns#"
   xmlns:svg="http://www.w3.org/2000/svg"
   xmlns="http://www.w3.org/2000/svg"
   xmlns:sodipodi="http://sodipodi.sourceforge.net/DTD/sodipodi-0.dtd"
   xmlns:inkscape="http://www.inkscape.org/namespaces/inkscape"
   version="1.0"
   x="0px"
   y="0px"
   viewBox="0 0 44.799999 49.900002"
   enable-background="new 0 0 152 117.5"
   xml:space="preserve"
   id="svg37"
   sodipodi:docname="AzKeyVault.svg"
   width="44.799999"
   height="49.900002"
   inkscape:version="0.92.4 (5da689c313, 2019-01-14)"><metadata
   id="metadata43"><rdf:RDF><cc:Work
       rdf:about=""><dc:format>image/svg+xml</dc:format><dc:type
         rdf:resource="http://purl.org/dc/dcmitype/StillImage" /></cc:Work></rdf:RDF></metadata><defs
   id="defs41" /><sodipodi:namedview
   pagecolor="#ffffff"
   bordercolor="#666666"
   borderopacity="1"
   objecttolerance="10"
   gridtolerance="10"
   guidetolerance="10"
   inkscape:pageopacity="0"
   inkscape:pageshadow="2"
   inkscape:window-width="713"
   inkscape:window-height="543"
   id="namedview39"
   showgrid="false"
   inkscape:zoom="2.0085106"
   inkscape:cx="21.6"
   inkscape:cy="24.95"
   inkscape:window-x="0"
   inkscape:window-y="0"
   inkscape:window-maximized="0"
   inkscape:current-layer="svg37" />
<g
   id="Layer_1"
   transform="translate(-54.4,-33.8)">
	<g
   id="Azure">
	</g>
	<g
   id="BizTalk_Services"
   transform="translate(37.3575,-2500.2)">
	</g>
	<g
   id="Key_Vault">
		<g
   id="g10">
			<path
   d="m 99.2,61.4 c 0,-7.3 -3.5,-13.7 -8.8,-17.8 0,0.2 0,0.5 0,0.7 0,2.2 -0.6,4.3 -1.5,6.1 2.6,2.9 4.2,6.7 4.2,10.9 0,9 -7.3,16.3 -16.3,16.3 -9,0 -16.3,-7.3 -16.3,-16.3 0,-4.5 1.8,-8.5 4.7,-11.5 -0.8,-1.7 -1.3,-3.6 -1.3,-5.6 0,-0.4 0,-0.9 0.1,-1.3 -5.8,4 -9.6,10.8 -9.6,18.4 0,12.4 10,22.4 22.4,22.4 12.4,0 22.4,-9.9 22.4,-22.3 z"
   id="path4"
   inkscape:connector-curvature="0"
   style="fill:#0078d7" />
			<g
   id="g8">
				<path
   d="m 77.1,33.8 c -5.7,0 -10.3,4.6 -10.3,10.3 0,4.7 3.1,8.6 7.4,9.9 v 10.2 h -4.8 v 5.2 h 4.8 v 3.8 h 5.7 V 54 c 4.3,-1.2 7.4,-5.2 7.4,-9.9 0.1,-5.7 -4.5,-10.3 -10.2,-10.3 z m 0,5.4 c 2.7,0 4.9,2.2 4.9,4.9 0,2.7 -2.2,4.9 -4.9,4.9 -2.7,0 -4.9,-2.2 -4.9,-4.9 0,-2.7 2.2,-4.9 4.9,-4.9 z"
   id="path6"
   inkscape:connector-curvature="0"
   style="fill:#0078d7" />
			</g>
		</g>
	</g>
</g>
<g
   id="paths"
   transform="translate(-54.4,-33.8)">
	<g
   id="Access_control">
	</g>
	<g
   id="Azure_active_directory">
	</g>
	<g
   id="API_Management">
	</g>
	<g
   id="Azure_automation">
	</g>
	<g
   id="Azure_SQL_database">
	</g>
	<g
   id="Azure_subscription">
	</g>
	<g
   id="Backup_service">
	</g>
	<g
   id="Bitbucket_code_source">
	</g>
	<g
   id="Azure_cache">
	</g>
	<g
   id="Content_delivery_network__x28_CDN_x29_">
	</g>
	<g
   id="Cloud_service">
	</g>
	<g
   id="CodePlex">
	</g>
	<g
   id="Dropbox_code_source">
	</g>
	<g
   id="Express_route">
	</g>
	<g
   id="Git_repository">
	</g>
	<g
   id="GitHub_code">
	</g>
	<g
   id="HD_Insight">
	</g>
	<g
   id="Health_monitoring">
	</g>
	<g
   id="Healthy">
	</g>
	<g
   id="BizTalk_hybrid_connection">
	</g>
	<g
   id="Hybrid_connection_manager_for_BizTalk_hybrid_connection">
	</g>
	<g
   id="Hyper-V_recovery_manager">
	</g>
</g>
</svg>