<?xml version="1.0" encoding="UTF-8" standalone="no"?>
<!-- Generator: Adobe Illustrator 21.0.0, SVG Export Plug-In . SVG Version: 6.00 Build 0)  -->

<svg
   xmlns:v="http://schemas.microsoft.com/visio/2003/SVGExtensions/"
   xmlns:dc="http://purl.org/dc/elements/1.1/"
   xmlns:cc="http://creativecommons.org/ns#"
   xmlns:rdf="http://www.w3.org/1999/02/22-rdf-syntax-ns#"
   xmlns:svg="http://www.w3.org/2000/svg"
   xmlns="http://www.w3.org/2000/svg"
   xmlns:sodipodi="http://sodipodi.sourceforge.net/DTD/sodipodi-0.dtd"
   xmlns:inkscape="http://www.inkscape.org/namespaces/inkscape"
   version="1.1"
   id="Layer_1"
   x="0px"
   y="0px"
   width="37.5"
   height="29.1"
   viewBox="0 0 37.5 29.1"
   enable-background="new 0 0 39 30.6"
   xml:space="preserve"
   sodipodi:docname="AzLogicApps.svg"
   inkscape:version="0.92.4 (5da689c313, 2019-01-14)"><metadata
   id="metadata16"><rdf:RDF><cc:Work
       rdf:about=""><dc:format>image/svg+xml</dc:format><dc:type
         rdf:resource="http://purl.org/dc/dcmitype/StillImage" /></cc:Work></rdf:RDF></metadata><defs
   id="defs14" /><sodipodi:namedview
   pagecolor="#ffffff"
   bordercolor="#666666"
   borderopacity="1"
   objecttolerance="10"
   gridtolerance="10"
   guidetolerance="10"
   inkscape:pageopacity="0"
   inkscape:pageshadow="2"
   inkscape:window-width="713"
   inkscape:window-height="543"
   id="namedview12"
   showgrid="false"
   inkscape:zoom="7.7124182"
   inkscape:cx="18.75"
   inkscape:cy="14.55"
   inkscape:window-x="0"
   inkscape:window-y="0"
   inkscape:window-maximized="0"
   inkscape:current-layer="Layer_1" />
<v:documentProperties
   v:langID="1033"
   v:viewMarkup="false">
	<v:userDefs>
		<v:ud
   v:nameU="visTLShowProps"
   v:prompt=""
   v:val="VT0(0):26" />
	</v:userDefs>
</v:documentProperties>
<g
   id="g9"
   transform="translate(-0.75,-0.75)">
	<title
   id="title2">Page-1</title>
	
		<v:pageProperties
   v:drawingScale="1"
   v:drawingUnits="19"
   v:pageScale="1"
   v:shadowOffsetX="2.83465"
   v:shadowOffsetY="-2.83465"
   v:shadowType="1">
		</v:pageProperties>
	<g
   id="shape993-1"
   transform="translate(0.75,-0.75)">
		<title
   id="title4">Sheet.993</title>
		<path
   d="m 31.57,1.5 0.08,1.95 c 0.6,0 0.97,0.15 1.27,0.45 0.23,0.3 0.38,0.83 0.38,1.5 v 7.43 c 0,1.72 0.6,2.77 1.65,3.22 -1.13,0.45 -1.65,1.5 -1.65,3.23 v 7.5 c 0,1.27 -0.6,1.87 -1.73,1.87 v 1.95 c 1.58,0 2.71,-0.3 3.38,-0.9 0.67,-0.6 0.97,-1.65 0.97,-3.07 v -7.58 c 0,-1.35 0.53,-2.02 1.58,-2.02 v -1.95 c -1.05,0 -1.58,-0.68 -1.58,-1.95 v -7.8 c 0,-1.43 -0.3,-2.4 -0.97,-3 C 34.28,1.8 33.15,1.5 31.57,1.5 Z M 22.8,25.13 c 0,0.82 0.68,1.5 1.5,1.5 h 3.45 c 0.83,0 1.5,-0.68 1.5,-1.5 v -3.45 c 0,-0.83 -0.67,-1.5 -1.5,-1.5 H 26.93 V 18.9 c 0,-1.5 -1.2,-2.85 -2.93,-3.37 l -3.15,-0.68 c -0.68,-0.21 -1.17,-0.56 -1.41,-0.98 0.04,-0.2 0.06,-0.39 0.06,-0.59 v -0.15 -2.18 h 0.98 c 0.82,0 1.5,-0.67 1.5,-1.5 V 5.48 c 0,-0.83 -0.68,-1.5 -1.5,-1.5 H 16.5 c -0.82,0 -1.5,0.67 -1.5,1.5 v 3.97 c 0,0.83 0.68,1.5 1.5,1.5 h 0.9 v 2.18 0.15 c 0,0.2 0.02,0.39 0.06,0.59 -0.24,0.42 -0.73,0.77 -1.41,0.98 l -2.55,0.53 c -1.72,0.52 -2.92,1.87 -2.92,3.37 v 1.28 H 9.75 c -0.82,0 -1.5,0.67 -1.5,1.5 v 3.45 c 0,0.82 0.68,1.5 1.5,1.5 h 3.45 c 0.83,0 1.5,-0.68 1.5,-1.5 v -3.45 c 0,-0.83 -0.67,-1.5 -1.5,-1.5 h -0.75 v -1.28 c 0,-0.67 0.6,-1.27 1.58,-1.57 l 2.55,-0.6 c 0.73,-0.2 1.37,-0.55 1.86,-1.01 0.5,0.47 1.14,0.85 1.88,1.08 l 3.16,0.68 c 0.97,0.3 1.57,0.9 1.57,1.57 v 1.28 H 24.3 c -0.82,0 -1.5,0.67 -1.5,1.5 z M 19.88,6.08 V 8.85 H 17.1 V 6.08 Z M 5.92,30.6 5.85,28.65 C 5.25,28.65 4.87,28.5 4.57,28.2 4.35,27.9 4.2,27.38 4.2,26.7 V 19.28 C 4.2,17.55 3.6,16.5 2.55,16.05 3.67,15.6 4.2,14.55 4.2,12.83 V 5.33 C 4.2,4.05 4.8,3.45 5.92,3.45 V 1.5 C 4.35,1.5 3.22,1.73 2.55,2.33 1.88,2.93 1.58,3.98 1.58,5.4 v 7.65 c 0,1.35 -0.53,2.03 -1.58,2.03 v 1.95 c 1.05,0 1.58,0.67 1.58,1.95 v 7.8 c 0,1.42 0.3,2.4 0.97,3 0.67,0.52 1.8,0.82 3.37,0.82 z"
   id="path6"
   inkscape:connector-curvature="0"
   style="fill:#0078d7" />
	</g>
</g>
</svg>