<?xml version="1.0" encoding="UTF-8" standalone="no"?>
<!-- Generator: Adobe Illustrator 17.0.1, SVG Export Plug-In . SVG Version: 6.00 Build 0)  -->

<svg
   xmlns:dc="http://purl.org/dc/elements/1.1/"
   xmlns:cc="http://creativecommons.org/ns#"
   xmlns:rdf="http://www.w3.org/1999/02/22-rdf-syntax-ns#"
   xmlns:svg="http://www.w3.org/2000/svg"
   xmlns="http://www.w3.org/2000/svg"
   xmlns:sodipodi="http://sodipodi.sourceforge.net/DTD/sodipodi-0.dtd"
   xmlns:inkscape="http://www.inkscape.org/namespaces/inkscape"
   version="1.1"
   id="Layer_1"
   x="0px"
   y="0px"
   width="50"
   height="50.000999"
   viewBox="0 0 50 50.000999"
   enable-background="new 0 0 50 50"
   xml:space="preserve"
   sodipodi:docname="AzLoadBalancerFeatureColor.svg"
   inkscape:version="0.92.4 (5da689c313, 2019-01-14)"><metadata
   id="metadata15"><rdf:RDF><cc:Work
       rdf:about=""><dc:format>image/svg+xml</dc:format><dc:type
         rdf:resource="http://purl.org/dc/dcmitype/StillImage" /></cc:Work></rdf:RDF></metadata><defs
   id="defs13" /><sodipodi:namedview
   pagecolor="#ffffff"
   bordercolor="#666666"
   borderopacity="1"
   objecttolerance="10"
   gridtolerance="10"
   guidetolerance="10"
   inkscape:pageopacity="0"
   inkscape:pageshadow="2"
   inkscape:window-width="713"
   inkscape:window-height="543"
   id="namedview11"
   showgrid="false"
   inkscape:zoom="4.72"
   inkscape:cx="25"
   inkscape:cy="25"
   inkscape:window-x="0"
   inkscape:window-y="0"
   inkscape:window-maximized="0"
   inkscape:current-layer="Layer_1" />
<path
   d="m 25.001,50.001 c -1.232,0 -2.392,-0.48 -3.261,-1.352 L 1.351,28.261 C 0.492,27.402 0,26.215 0,25 0,23.786 0.492,22.598 1.351,21.74 L 21.74,1.352 C 22.611,0.48 23.769,0 25.001,0 c 1.231,0 2.39,0.48 3.261,1.352 L 48.648,21.74 C 49.521,22.608 50,23.767 50,25 c 0,1.233 -0.479,2.392 -1.353,3.263 L 28.262,48.649 c -0.87,0.872 -2.03,1.352 -3.261,1.352"
   id="path2"
   inkscape:connector-curvature="0"
   style="fill:#7fba00" />
<path
   d="M 45.613,24.661 39,18.049 v 4.668 L 31.984,22.711 C 31.307,20.293 29.411,18.383 27,17.691 v -6.69 h 4.613 L 25,4.388 18.388,11.001 H 23 v 6.689 c -2.407,0.692 -4.301,2.596 -4.981,5.008 L 11,22.692 V 18.074 L 4.387,24.687 11,31.299 v -4.668 l 7.022,0.006 c 0.683,2.407 2.574,4.305 4.978,4.996 v 4.636 c -1,0.728 -2.528,2.258 -2.528,4.04 0,2.481 2.033,4.5 4.514,4.5 2.481,0 4.51,-2.019 4.51,-4.5 C 29.496,38.547 28,37.035 27,36.296 v -4.663 c 2.399,-0.689 4.289,-2.583 4.975,-4.983 L 39,26.656 v 4.618 z"
   id="path4"
   inkscape:connector-curvature="0"
   style="fill:#ffffff" />
<path
   d="m 25,19.403 c -2.899,0 -5.258,2.359 -5.258,5.258 0,2.899 2.359,5.258 5.258,5.258 2.899,0 5.258,-2.358 5.258,-5.258 0,-2.9 -2.359,-5.258 -5.258,-5.258 z"
   id="path6"
   inkscape:connector-curvature="0"
   style="fill:#59b4d9" />
<path
   d="M 28.262,1.352 C 27.391,0.48 26.233,0 25.001,0 23.77,0 22.612,0.48 21.741,1.352 L 1.352,21.74 C 0.492,22.598 0,23.786 0,25 c 0,1.215 0.492,2.403 1.352,3.261 L 12.895,39.805 34.61,7.699 Z"
   id="path8"
   inkscape:connector-curvature="0"
   style="opacity:0.15;fill:#ffffff" />
</svg>