<?xml version="1.0" encoding="UTF-8" standalone="no"?>
<!-- Generator: Adobe Illustrator 18.1.0, SVG Export Plug-In . SVG Version: 6.00 Build 0)  -->

<svg
   xmlns:dc="http://purl.org/dc/elements/1.1/"
   xmlns:cc="http://creativecommons.org/ns#"
   xmlns:rdf="http://www.w3.org/1999/02/22-rdf-syntax-ns#"
   xmlns:svg="http://www.w3.org/2000/svg"
   xmlns="http://www.w3.org/2000/svg"
   xmlns:sodipodi="http://sodipodi.sourceforge.net/DTD/sodipodi-0.dtd"
   xmlns:inkscape="http://www.inkscape.org/namespaces/inkscape"
   version="1.0"
   x="0px"
   y="0px"
   viewBox="0 0 52 34.5"
   enable-background="new 0 0 152 117.5"
   xml:space="preserve"
   id="svg31"
   sodipodi:docname="AzLoadBalancer.svg"
   width="52"
   height="34.5"
   inkscape:version="0.92.4 (5da689c313, 2019-01-14)"><metadata
   id="metadata37"><rdf:RDF><cc:Work
       rdf:about=""><dc:format>image/svg+xml</dc:format><dc:type
         rdf:resource="http://purl.org/dc/dcmitype/StillImage" /></cc:Work></rdf:RDF></metadata><defs
   id="defs35" /><sodipodi:namedview
   pagecolor="#ffffff"
   bordercolor="#666666"
   borderopacity="1"
   objecttolerance="10"
   gridtolerance="10"
   guidetolerance="10"
   inkscape:pageopacity="0"
   inkscape:pageshadow="2"
   inkscape:window-width="713"
   inkscape:window-height="543"
   id="namedview33"
   showgrid="false"
   inkscape:zoom="2.0085106"
   inkscape:cx="27.9"
   inkscape:cy="17.25"
   inkscape:window-x="0"
   inkscape:window-y="0"
   inkscape:window-maximized="0"
   inkscape:current-layer="svg31" />
<g
   id="Layer_1"
   transform="translate(-48.1,-41.5)">
	<g
   id="Azure">
	</g>
	<g
   id="BizTalk_Services"
   transform="translate(37.3575,-2500.2)">
	</g>
	<g
   id="Key_Vault">
	</g>
	<path
   d="M 100,72.5 95.3,42.9 C 95.2,41.7 94.2,41.5 93.9,41.5 H 54.7 c -0.3,0 -1.4,0.1 -1.4,1.4 l -5.2,29.6 v 0 c 0,0 0,0 0,0.1 v 0.2 0 c 0,0.2 0,0.3 0,0.5 0,2.2 1.8,2.7 2.2,2.7 v 0 0 h 1.5 46.1 c 0.4,0 2.2,-0.5 2.2,-2.7 C 100,73 100,72.7 100,72.5 Z M 83.6,64.9 h -5.8 c -0.5,0 -0.8,-0.4 -0.8,-0.8 0,-0.5 0.4,-0.8 0.8,-0.8 h 2.7 L 74,56.8 v 13 l 2,-2 c 0.3,-0.3 0.9,-0.3 1.2,0 0.3,0.3 0.3,0.9 0,1.2 l -4,4 -4.1,-4.1 c -0.2,-0.2 -0.2,-0.4 -0.2,-0.6 0,-0.2 0.1,-0.4 0.2,-0.6 0.3,-0.3 0.9,-0.3 1.2,0 l 2.1,2.1 v -13 l -6.5,6.5 h 2.9 c 0.5,0 0.8,0.4 0.8,0.8 0,0.5 -0.4,0.8 -0.8,0.8 H 63 v -5.8 c 0,-0.5 0.4,-0.8 0.8,-0.8 0.5,0 0.8,0.4 0.8,0.8 V 62 l 7.7,-7.7 v -4 c -1,-0.4 -1.8,-1.3 -1.8,-2.5 0,-1.5 1.2,-2.6 2.6,-2.6 1.5,0 2.6,1.2 2.6,2.6 0,1.2 -0.8,2.1 -1.8,2.5 v 4 l 7.9,7.9 v -3.1 c 0,-0.5 0.4,-0.8 0.8,-0.8 0.5,0 0.8,0.4 0.8,0.8 v 5.8 z"
   id="path5"
   inkscape:connector-curvature="0"
   style="fill:#0078d7" />
</g>
<g
   id="paths"
   transform="translate(-48.1,-41.5)">
	<g
   id="Access_control">
	</g>
	<g
   id="Azure_active_directory">
	</g>
	<g
   id="API_Management">
	</g>
	<g
   id="Azure_automation">
	</g>
	<g
   id="Azure_SQL_database">
	</g>
	<g
   id="Azure_subscription">
	</g>
	<g
   id="Backup_service">
	</g>
	<g
   id="Bitbucket_code_source">
	</g>
	<g
   id="Azure_cache">
	</g>
	<g
   id="Content_delivery_network__x28_CDN_x29_">
	</g>
	<g
   id="Cloud_service">
	</g>
	<g
   id="CodePlex">
	</g>
	<g
   id="Dropbox_code_source">
	</g>
	<g
   id="Express_route">
	</g>
	<g
   id="Git_repository">
	</g>
	<g
   id="GitHub_code">
	</g>
	<g
   id="HD_Insight">
	</g>
	<g
   id="Health_monitoring">
	</g>
	<g
   id="Healthy">
	</g>
	<g
   id="BizTalk_hybrid_connection">
	</g>
	<g
   id="Hybrid_connection_manager_for_BizTalk_hybrid_connection">
	</g>
	<g
   id="Hyper-V_recovery_manager">
	</g>
</g>
</svg>