<?xml version="1.0" encoding="UTF-8" standalone="no"?>
<!-- Generator: Adobe Illustrator 19.1.0, SVG Export Plug-In . SVG Version: 6.00 Build 0)  -->

<svg
   xmlns:dc="http://purl.org/dc/elements/1.1/"
   xmlns:cc="http://creativecommons.org/ns#"
   xmlns:rdf="http://www.w3.org/1999/02/22-rdf-syntax-ns#"
   xmlns:svg="http://www.w3.org/2000/svg"
   xmlns="http://www.w3.org/2000/svg"
   xmlns:sodipodi="http://sodipodi.sourceforge.net/DTD/sodipodi-0.dtd"
   xmlns:inkscape="http://www.inkscape.org/namespaces/inkscape"
   version="1.1"
   id="Layer_1"
   x="0px"
   y="0px"
   viewBox="-280 372 50.200001 50.200001"
   xml:space="preserve"
   sodipodi:docname="AzLoadBalancerFeature.svg"
   width="50.200001"
   height="50.200001"
   inkscape:version="0.92.4 (5da689c313, 2019-01-14)"><metadata
   id="metadata38"><rdf:RDF><cc:Work
       rdf:about=""><dc:format>image/svg+xml</dc:format><dc:type
         rdf:resource="http://purl.org/dc/dcmitype/StillImage" /></cc:Work></rdf:RDF></metadata><defs
   id="defs36" /><sodipodi:namedview
   pagecolor="#ffffff"
   bordercolor="#666666"
   borderopacity="1"
   objecttolerance="10"
   gridtolerance="10"
   guidetolerance="10"
   inkscape:pageopacity="0"
   inkscape:pageshadow="2"
   inkscape:window-width="713"
   inkscape:window-height="543"
   id="namedview34"
   showgrid="false"
   inkscape:zoom="4.72"
   inkscape:cx="25.1"
   inkscape:cy="25"
   inkscape:window-x="0"
   inkscape:window-y="0"
   inkscape:window-maximized="0"
   inkscape:current-layer="Layer_1" />
<style
   type="text/css"
   id="style2">
	.st0{fill:#0078D7;}
	.st1{fill:#FFFFFF;}
</style>
<path
   class="st0"
   d="m -254.9,422.2 c -1.2,0 -2.4,-0.5 -3.3,-1.4 l -20.4,-20.4 c -0.9,-0.9 -1.4,-2 -1.4,-3.3 0,-1.2 0.5,-2.4 1.4,-3.3 l 20.4,-20.4 c 0.9,-0.9 2,-1.4 3.3,-1.4 1.2,0 2.4,0.5 3.3,1.4 l 20.4,20.4 c 0.9,0.9 1.4,2 1.4,3.3 0,1.3 -0.5,2.4 -1.4,3.3 l -20.4,20.4 c -0.9,0.9 -2.1,1.4 -3.3,1.4"
   id="path4"
   inkscape:connector-curvature="0"
   style="fill:#0078d7" />
<path
   class="st1"
   d="m -234.3,396.9 -6.6,-6.6 v 4.7 h -7 c -0.7,-2.4 -2.6,-4.3 -5,-5 v -6.8 h 4.6 l -6.6,-6.6 -6.6,6.6 h 4.6 v 6.7 c -2.4,0.7 -4.3,2.6 -5,5 h -7 v -4.6 l -6.6,6.6 6.6,6.6 v -4.7 h 7 c 0.7,2.4 2.6,4.3 5,5 v 4.6 c -1,0.7 -2.5,2.3 -2.5,4 0,2.5 2,4.5 4.5,4.5 2.5,0 4.5,-2 4.5,-4.5 0,-1.8 -1.5,-3.3 -2.5,-4 v -4.7 c 2.4,-0.7 4.3,-2.6 5,-5 h 7 v 4.6 z"
   id="path6"
   inkscape:connector-curvature="0"
   style="fill:#ffffff" />
<path
   class="st0"
   d="m -254.9,391.6 c -2.9,0 -5.3,2.4 -5.3,5.3 0,2.9 2.4,5.3 5.3,5.3 2.9,0 5.3,-2.4 5.3,-5.3 0,-2.9 -2.4,-5.3 -5.3,-5.3 z"
   id="path8"
   inkscape:connector-curvature="0"
   style="fill:#0078d7" />
<g
   id="paths"
   transform="translate(0.1,0.2)">
	<g
   id="Access_control">
	</g>
	<g
   id="Azure_active_directory">
	</g>
	<g
   id="API_Management">
	</g>
	<g
   id="Azure_automation">
	</g>
	<g
   id="Azure_SQL_database">
	</g>
	<g
   id="Azure_subscription">
	</g>
	<g
   id="Backup_service">
	</g>
	<g
   id="Bitbucket_code_source">
	</g>
	<g
   id="Azure_cache">
	</g>
	<g
   id="Content_delivery_network__x28_CDN_x29_">
	</g>
	<g
   id="Cloud_service">
	</g>
	<g
   id="CodePlex">
	</g>
	<g
   id="Dropbox_code_source">
	</g>
	<g
   id="Express_route">
	</g>
	<g
   id="Git_repository">
	</g>
	<g
   id="GitHub_code">
	</g>
	<g
   id="HD_Insight">
	</g>
	<g
   id="Health_monitoring">
	</g>
	<g
   id="Healthy">
	</g>
	<g
   id="BizTalk_hybrid_connection">
	</g>
	<g
   id="Hybrid_connection_manager_for_BizTalk_hybrid_connection">
	</g>
	<g
   id="Hyper-V_recovery_manager">
	</g>
</g>
</svg>