<?xml version="1.0" encoding="UTF-8" standalone="no"?>
<!-- Generator: Adobe Illustrator 21.0.0, SVG Export Plug-In . SVG Version: 6.00 Build 0)  -->

<svg
   xmlns:dc="http://purl.org/dc/elements/1.1/"
   xmlns:cc="http://creativecommons.org/ns#"
   xmlns:rdf="http://www.w3.org/1999/02/22-rdf-syntax-ns#"
   xmlns:svg="http://www.w3.org/2000/svg"
   xmlns="http://www.w3.org/2000/svg"
   xmlns:sodipodi="http://sodipodi.sourceforge.net/DTD/sodipodi-0.dtd"
   xmlns:inkscape="http://www.inkscape.org/namespaces/inkscape"
   version="1.1"
   id="Layer_1"
   x="0px"
   y="0px"
   width="50"
   height="38.799999"
   viewBox="0 0 50 38.799999"
   xml:space="preserve"
   sodipodi:docname="AzLogicAppsColor.svg"
   inkscape:version="0.92.4 (5da689c313, 2019-01-14)"><metadata
   id="metadata29"><rdf:RDF><cc:Work
       rdf:about=""><dc:format>image/svg+xml</dc:format><dc:type
         rdf:resource="http://purl.org/dc/dcmitype/StillImage" /></cc:Work></rdf:RDF></metadata><defs
   id="defs27" /><sodipodi:namedview
   pagecolor="#ffffff"
   bordercolor="#666666"
   borderopacity="1"
   objecttolerance="10"
   gridtolerance="10"
   guidetolerance="10"
   inkscape:pageopacity="0"
   inkscape:pageshadow="2"
   inkscape:window-width="713"
   inkscape:window-height="543"
   id="namedview25"
   showgrid="false"
   inkscape:zoom="4.72"
   inkscape:cx="25"
   inkscape:cy="19.4"
   inkscape:window-x="0"
   inkscape:window-y="0"
   inkscape:window-maximized="0"
   inkscape:current-layer="Layer_1" />
<style
   type="text/css"
   id="style2">
	.st0{fill:#59B4D9;}
	.st1{fill:#7FBA00;}
	.st2{fill:#0072C6;}
</style>
<path
   class="st0"
   d="m 26,15.7 v -5 h -2.5 v 5 c 0,0.9 -0.8,1.7 -2.1,2.1 L 18,18.5 C 15.7,19.2 14.1,21 14.1,23 v 5.7 h 2.5 V 23 c 0,-0.9 0.8,-1.7 2.1,-2.1 l 3.4,-0.8 C 24.4,19.5 26,17.7 26,15.7 Z"
   id="path4"
   inkscape:connector-curvature="0"
   style="fill:#59b4d9" />
<g
   id="g8"
   transform="translate(0,-5.6)">
	<path
   class="st1"
   d="m 19.6,36.9 v -4.6 c 0,-1.1 -0.9,-2 -2,-2 H 13 c -1.1,0 -2,0.9 -2,2 v 4.6 c 0,1.1 0.9,2 2,2 h 4.6 c 1.1,0 2,-0.9 2,-2 z"
   id="path6"
   inkscape:connector-curvature="0"
   style="fill:#7fba00" />
</g>
<path
   class="st0"
   d="m 23.2,15.7 v -5 h 2.5 v 5 c 0,0.9 0.8,1.7 2.1,2.1 l 4.2,0.9 c 2.3,0.7 3.9,2.5 3.9,4.5 v 5.7 h -2.5 v -5.7 c 0,-0.9 -0.8,-1.7 -2.1,-2.1 l -4.2,-0.9 c -2.3,-0.7 -3.9,-2.5 -3.9,-4.5 z"
   id="path10"
   inkscape:connector-curvature="0"
   style="fill:#59b4d9" />
<g
   id="g14"
   transform="translate(0,-5.6)">
	<path
   class="st1"
   d="m 30.4,37.1 v -4.6 c 0,-1.1 0.9,-2 2,-2 H 37 c 1.1,0 2,0.9 2,2 v 4.6 c 0,1.1 -0.9,2 -2,2 h -4.6 c -1.1,0 -2,-0.9 -2,-2 z"
   id="path12"
   inkscape:connector-curvature="0"
   style="fill:#7fba00" />
</g>
<rect
   x="23.200001"
   y="10.699999"
   class="st0"
   width="2.8"
   height="4.8000002"
   id="rect16"
   style="fill:#59b4d9" />
<path
   class="st2"
   d="M 26.5,6.1 V 9.8 H 22.8 V 6.1 h 3.7 M 27.3,3.3 H 22 c -1.1,0 -2,0.9 -2,2 v 5.3 c 0,1.1 0.9,2 2,2 h 5.3 c 1.1,0 2,-0.9 2,-2 V 5.3 c 0,-1.1 -0.9,-2 -2,-2 z"
   id="path18"
   inkscape:connector-curvature="0"
   style="fill:#0072c6" />
<path
   class="st0"
   d="M 7.9,38.8 C 5.8,38.8 4.3,38.4 3.4,37.7 2.5,36.9 2.1,35.6 2.1,33.7 V 23.3 C 2.1,21.6 1.4,20.7 0,20.7 v -2.6 c 1.4,0 2.1,-0.9 2.1,-2.7 V 5.2 C 2.1,3.3 2.5,1.9 3.4,1.1 4.3,0.3 5.8,0 7.9,0 V 2.6 C 6.4,2.6 5.6,3.4 5.6,5.1 v 10 c 0,2.3 -0.7,3.7 -2.2,4.3 v 0 c 1.4,0.6 2.2,2 2.2,4.3 v 9.9 c 0,0.9 0.2,1.6 0.5,2 0.4,0.4 0.9,0.6 1.7,0.6 l 0.1,2.6 c -0.1,0 0,0 0,0 z"
   id="path20"
   inkscape:connector-curvature="0"
   style="fill:#59b4d9" />
<path
   class="st0"
   d="m 42.1,0 c 2.1,0 3.6,0.4 4.5,1.1 0.9,0.8 1.3,2.1 1.3,4 v 10.4 c 0,1.7 0.7,2.6 2.1,2.6 v 2.6 c -1.4,0 -2.1,0.9 -2.1,2.7 v 10.1 c 0,1.9 -0.4,3.3 -1.3,4.1 -0.9,0.8 -2.4,1.2 -4.5,1.2 v -2.6 c 1.5,0 2.3,-0.8 2.3,-2.5 v -10 c 0,-2.3 0.7,-3.7 2.2,-4.3 v 0 c -1.4,-0.6 -2.2,-2 -2.2,-4.3 V 5.2 C 44.4,4.3 44.2,3.6 43.9,3.2 43.5,2.8 43,2.6 42.2,2.6 Z"
   id="path22"
   inkscape:connector-curvature="0"
   style="fill:#59b4d9" />
</svg>