<?xml version="1.0" encoding="UTF-8" standalone="no"?>
<!-- Generator: Adobe Illustrator 17.0.1, SVG Export Plug-In . SVG Version: 6.00 Build 0)  -->

<svg
   xmlns:dc="http://purl.org/dc/elements/1.1/"
   xmlns:cc="http://creativecommons.org/ns#"
   xmlns:rdf="http://www.w3.org/1999/02/22-rdf-syntax-ns#"
   xmlns:svg="http://www.w3.org/2000/svg"
   xmlns="http://www.w3.org/2000/svg"
   xmlns:sodipodi="http://sodipodi.sourceforge.net/DTD/sodipodi-0.dtd"
   xmlns:inkscape="http://www.inkscape.org/namespaces/inkscape"
   version="1.1"
   id="Layer_1"
   x="0px"
   y="0px"
   width="49.016544"
   height="50"
   viewBox="0 0 49.016544 50"
   enable-background="new 0 0 50 50"
   xml:space="preserve"
   sodipodi:docname="AzMachineLearning.svg"
   inkscape:version="0.92.4 (5da689c313, 2019-01-14)"><metadata
   id="metadata17"><rdf:RDF><cc:Work
       rdf:about=""><dc:format>image/svg+xml</dc:format><dc:type
         rdf:resource="http://purl.org/dc/dcmitype/StillImage" /></cc:Work></rdf:RDF></metadata><defs
   id="defs15" /><sodipodi:namedview
   pagecolor="#ffffff"
   bordercolor="#666666"
   borderopacity="1"
   objecttolerance="10"
   gridtolerance="10"
   guidetolerance="10"
   inkscape:pageopacity="0"
   inkscape:pageshadow="2"
   inkscape:window-width="713"
   inkscape:window-height="543"
   id="namedview13"
   showgrid="false"
   inkscape:zoom="4.72"
   inkscape:cx="25.00008"
   inkscape:cy="25"
   inkscape:window-x="0"
   inkscape:window-y="0"
   inkscape:window-maximized="0"
   inkscape:current-layer="Layer_1" />
<path
   d="M 48.28808,44.623 32.72008,17.659 V 6.743 h 0.281 c 1.862,0 3.372,-1.51 3.372,-3.372 0,-1.862 -1.51,-3.371 -3.372,-3.371 h -16.985 c -1.862,0 -3.372,1.51 -3.372,3.372 0,1.862 1.51,3.372 3.372,3.372 h 0.281 V 17.659 L 0.72907993,44.623 c -1.708,2.957 -0.311,5.377 3.10399997,5.377 H 45.18408 c 3.414,0 4.811,-2.42 3.104,-5.377 z"
   id="path2"
   inkscape:connector-curvature="0"
   style="fill:#59b4d9" />
<polygon
   points="41.889,44.143 35.466,33.017 13.551,33.017 7.127,44.143 "
   id="polygon4"
   style="fill:#b8d432"
   transform="translate(7.9934474e-5)" />
<path
   d="m 25.33408,37.532 c 1.735,0 3.141,-1.406 3.141,-3.141 0,-0.493 -0.117,-0.958 -0.32,-1.374 h -5.643 c -0.203,0.415 -0.32,0.88 -0.32,1.374 10e-4,1.735 1.407,3.141 3.142,3.141 z"
   id="path6"
   inkscape:connector-curvature="0"
   style="fill:#7fba00" />
<circle
   cx="29.23208"
   cy="39.956001"
   r="1.541"
   id="circle8"
   style="fill:#7fba00" />
<path
   d="M 0.72907993,44.623 16.29708,17.658 V 6.743 h -0.281 c -1.862,0 -3.372,-1.51 -3.372,-3.372 0,-1.862 1.509,-3.371 3.372,-3.371 h 7.319 V 17.572 L 15.13008,50 H 3.8330799 C 0.41807993,50 -0.97892007,47.58 0.72907993,44.623 Z"
   id="path10"
   inkscape:connector-curvature="0"
   style="opacity:0.25;fill:#ffffff" />
</svg>