<?xml version="1.0" encoding="UTF-8" standalone="no"?>
<!-- Generator: Adobe Illustrator 17.1.0, SVG Export Plug-In . SVG Version: 6.00 Build 0)  -->

<svg
   xmlns:dc="http://purl.org/dc/elements/1.1/"
   xmlns:cc="http://creativecommons.org/ns#"
   xmlns:rdf="http://www.w3.org/1999/02/22-rdf-syntax-ns#"
   xmlns:svg="http://www.w3.org/2000/svg"
   xmlns="http://www.w3.org/2000/svg"
   xmlns:sodipodi="http://sodipodi.sourceforge.net/DTD/sodipodi-0.dtd"
   xmlns:inkscape="http://www.inkscape.org/namespaces/inkscape"
   version="1.1"
   id="Layer_1"
   x="0px"
   y="0px"
   height="42.599998"
   width="50"
   viewBox="0 0 50 42.599998"
   enable-background="new 0 0 50 50"
   xml:space="preserve"
   sodipodi:docname="AzManagementPortal.svg"
   inkscape:version="0.92.4 (5da689c313, 2019-01-14)"><metadata
   id="metadata25"><rdf:RDF><cc:Work
       rdf:about=""><dc:format>image/svg+xml</dc:format><dc:type
         rdf:resource="http://purl.org/dc/dcmitype/StillImage" /></cc:Work></rdf:RDF></metadata><defs
   id="defs23" /><sodipodi:namedview
   pagecolor="#ffffff"
   bordercolor="#666666"
   borderopacity="1"
   objecttolerance="10"
   gridtolerance="10"
   guidetolerance="10"
   inkscape:pageopacity="0"
   inkscape:pageshadow="2"
   inkscape:window-width="713"
   inkscape:window-height="543"
   id="namedview21"
   showgrid="false"
   inkscape:zoom="4.72"
   inkscape:cx="25"
   inkscape:cy="21.3"
   inkscape:window-x="0"
   inkscape:window-y="0"
   inkscape:window-maximized="0"
   inkscape:current-layer="Layer_1" />
<path
   d="m 0,40.6 c 0,1.1 0.9,2 2,2 h 46 c 1.1,0 2,-0.9 2,-2 V 6.3 H 0 Z"
   id="path2"
   inkscape:connector-curvature="0"
   style="fill:#1e1e1e" />
<path
   d="m 0,40.6 c 0,1.1 0.9,2 2,2 h 46 c 1.1,0 2,-0.9 2,-2 V 6 H 0 Z"
   id="path4"
   inkscape:connector-curvature="0"
   style="opacity:0.25;fill:#0072c6" />
<path
   d="M 48,0 H 2 C 0.9,0 0,0.9 0,2 V 8 H 50 V 2 C 50,0.9 49.1,0 48,0"
   id="path6"
   inkscape:connector-curvature="0"
   style="fill:#a0a1a2" />
<rect
   x="12"
   y="12"
   width="38"
   height="26"
   id="rect8"
   style="fill:#e5e5e5" />
<rect
   x="0"
   y="12"
   width="12"
   height="26"
   id="rect10"
   style="fill:#59b4d9" />
<g
   id="g18"
   style="opacity:0.2"
   transform="translate(0,-3.7)">
	<g
   id="g16">
		<g
   id="g14">
			<path
   d="m 2,3.7 c -1.1,0 -2,0.9 -2,2 v 7.3 3.3 28 c 0,1.1 0.9,2 2,2 H 4.2 L 43.6,3.7 Z"
   id="path12"
   inkscape:connector-curvature="0"
   style="fill:#ffffff" />
		</g>
	</g>
</g>
</svg>