<?xml version="1.0" encoding="UTF-8" standalone="no"?>
<!-- Generator: Adobe Illustrator 21.0.0, SVG Export Plug-In . SVG Version: 6.00 Build 0)  -->

<svg
   xmlns:dc="http://purl.org/dc/elements/1.1/"
   xmlns:cc="http://creativecommons.org/ns#"
   xmlns:rdf="http://www.w3.org/1999/02/22-rdf-syntax-ns#"
   xmlns:svg="http://www.w3.org/2000/svg"
   xmlns="http://www.w3.org/2000/svg"
   xmlns:sodipodi="http://sodipodi.sourceforge.net/DTD/sodipodi-0.dtd"
   xmlns:inkscape="http://www.inkscape.org/namespaces/inkscape"
   version="1.1"
   id="Layer_1"
   x="0px"
   y="0px"
   width="50"
   height="50"
   viewBox="0 0 50 50"
   enable-background="new 0 0 50 50"
   xml:space="preserve"
   sodipodi:docname="AzMonitor.svg"
   inkscape:version="0.92.4 (5da689c313, 2019-01-14)"><metadata
   id="metadata21"><rdf:RDF><cc:Work
       rdf:about=""><dc:format>image/svg+xml</dc:format><dc:type
         rdf:resource="http://purl.org/dc/dcmitype/StillImage" /></cc:Work></rdf:RDF></metadata><defs
   id="defs19" /><sodipodi:namedview
   pagecolor="#ffffff"
   bordercolor="#666666"
   borderopacity="1"
   objecttolerance="10"
   gridtolerance="10"
   guidetolerance="10"
   inkscape:pageopacity="0"
   inkscape:pageshadow="2"
   inkscape:window-width="713"
   inkscape:window-height="543"
   id="namedview17"
   showgrid="false"
   inkscape:zoom="4.72"
   inkscape:cx="25"
   inkscape:cy="25"
   inkscape:window-x="0"
   inkscape:window-y="0"
   inkscape:window-maximized="0"
   inkscape:current-layer="Layer_1" />
<path
   d="M 16.456,19.473 11.408,15.387 C 9.25,18.475 8.271,22.075 8.417,25.619 l 6.454,-0.679 c 0,-1.89 0.521,-3.788 1.585,-5.467"
   id="path2"
   inkscape:connector-curvature="0"
   style="fill:#0072c6" />
<path
   d="M 30.575,16.279 34.662,11.23 C 31.572,9.074 27.969,8.1 24.424,8.248 l 0.679,6.453 c 1.891,-0.002 3.791,0.516 5.472,1.578"
   id="path4"
   inkscape:connector-curvature="0"
   style="fill:#0072c6" />
<path
   d="m 22.853,14.956 -0.68,-6.46 c -3.49,0.623 -6.795,2.35 -9.348,5.123 l 5.044,4.084 c 1.405,-1.409 3.143,-2.332 4.984,-2.747"
   id="path6"
   inkscape:connector-curvature="0"
   style="fill:#0072c6" />
<path
   d="m 15.121,27.189 -6.46,0.682 c 0.62,3.492 2.345,6.801 5.121,9.357 l 4.083,-5.044 c -1.41,-1.409 -2.331,-3.15 -2.744,-4.995"
   id="path8"
   inkscape:connector-curvature="0"
   style="fill:#0072c6" />
<path
   d="m 36.43,12.647 -4.084,5.045 c 1.008,1.002 1.759,2.178 2.264,3.437 h 6.775 C 40.643,17.958 38.977,14.985 36.43,12.647 Z"
   id="path10"
   inkscape:connector-curvature="0"
   style="fill:#0072c6" />
<path
   d="m 44.261,24.978 c 0,-0.003 0.002,-0.005 0.002,-0.008 -0.008,-1.17 -0.96,-2.113 -2.133,-2.113 l -0.004,-0.005 -0.621,0.005 H 34.82 27.219 c -0.009,-0.008 -0.012,0.007 -0.019,0 -0.57,-0.565 -1.314,-0.813 -2.057,-0.813 -0.752,0 -1.506,0.288 -2.079,0.866 -1.136,1.145 -1.129,2.995 0.018,4.131 0.57,0.565 1.312,0.845 2.052,0.845 0.688,0 1.373,-0.298 1.923,-0.779 h 15.085 c 1.172,-0.004 2.114,-0.952 2.118,-2.124 h 0.002 c 0,-0.002 -10e-4,-0.003 -10e-4,-0.005 z"
   id="path12"
   inkscape:connector-curvature="0"
   style="fill:#0072c6" />
<path
   d="M 25,4.2 C 36.469,4.2 45.8,13.531 45.8,25 45.8,36.469 36.469,45.8 25,45.8 13.531,45.8 4.2,36.469 4.2,25 4.2,13.531 13.531,4.2 25,4.2 M 25,0 C 11.193,0 0,11.193 0,25 0,38.807 11.193,50 25,50 38.807,50 50,38.807 50,25 50,11.193 38.807,0 25,0 Z"
   id="path14"
   inkscape:connector-curvature="0"
   style="fill:#0072c6" />
</svg>