<?xml version="1.0" encoding="UTF-8" standalone="no"?>
<!-- Generator: Adobe Illustrator 17.1.0, SVG Export Plug-In . SVG Version: 6.00 Build 0)  -->

<svg
   xmlns:dc="http://purl.org/dc/elements/1.1/"
   xmlns:cc="http://creativecommons.org/ns#"
   xmlns:rdf="http://www.w3.org/1999/02/22-rdf-syntax-ns#"
   xmlns:svg="http://www.w3.org/2000/svg"
   xmlns="http://www.w3.org/2000/svg"
   xmlns:sodipodi="http://sodipodi.sourceforge.net/DTD/sodipodi-0.dtd"
   xmlns:inkscape="http://www.inkscape.org/namespaces/inkscape"
   version="1.1"
   id="Layer_1"
   x="0px"
   y="0px"
   width="34.400002"
   height="50"
   viewBox="0 0 34.400002 50"
   enable-background="new 0 0 50 50"
   xml:space="preserve"
   sodipodi:docname="AzMobileEngagementColor.svg"
   inkscape:version="0.92.4 (5da689c313, 2019-01-14)"><metadata
   id="metadata29"><rdf:RDF><cc:Work
       rdf:about=""><dc:format>image/svg+xml</dc:format><dc:type
         rdf:resource="http://purl.org/dc/dcmitype/StillImage" /></cc:Work></rdf:RDF></metadata><defs
   id="defs27" /><sodipodi:namedview
   pagecolor="#ffffff"
   bordercolor="#666666"
   borderopacity="1"
   objecttolerance="10"
   gridtolerance="10"
   guidetolerance="10"
   inkscape:pageopacity="0"
   inkscape:pageshadow="2"
   inkscape:window-width="713"
   inkscape:window-height="543"
   id="namedview25"
   showgrid="false"
   inkscape:zoom="4.72"
   inkscape:cx="17"
   inkscape:cy="25"
   inkscape:window-x="0"
   inkscape:window-y="0"
   inkscape:window-maximized="0"
   inkscape:current-layer="Layer_1" />
<path
   d="m 34.4,47 c 0,1.7 -1.3,3 -3,3 H 3 C 1.3,50 0,48.7 0,47 V 3 C 0,1.3 1.3,0 3,0 h 28.4 c 1.7,0 3,1.3 3,3 z"
   id="path2"
   inkscape:connector-curvature="0"
   style="fill:#3e3e3e" />
<rect
   x="2.1999998"
   y="5"
   width="30"
   height="35.200001"
   id="rect4"
   style="fill:#59b4d9" />
<path
   d="m 20.1,45.1 c 0,1.6 -1.3,2.9 -2.9,2.9 -1.6,0 -2.9,-1.3 -2.9,-2.9 0,-1.6 1.3,-2.9 2.9,-2.9 1.6,0 2.9,1.3 2.9,2.9"
   id="path6"
   inkscape:connector-curvature="0"
   style="fill:#ffffff" />
<path
   d="m 19.1,45.1 c 0,1 -0.8,1.9 -1.9,1.9 -1,0 -1.9,-0.8 -1.9,-1.9 0,-1.1 0.8,-1.9 1.9,-1.9 1.1,0 1.9,0.9 1.9,1.9"
   id="path8"
   inkscape:connector-curvature="0"
   style="fill:#b8d432" />
<path
   enable-background="new    "
   d="M 2.2,40.2 V 5 H 25 L 27,0 H 3 C 1.3,0 0,1.3 0,3 v 44 c 0,1.7 1.3,3 3,3 h 3.7 l 4,-9.8 z"
   id="path10"
   inkscape:connector-curvature="0"
   style="opacity:0.15;fill:#ffffff" />
<path
   d="m 22.3,2.8 c 0,0.4 -0.3,0.7 -0.7,0.7 h -8.7 c -0.4,0 -0.7,-0.3 -0.7,-0.7 0,-0.4 0.3,-0.7 0.7,-0.7 h 8.7 c 0.4,0 0.7,0.3 0.7,0.7"
   id="path12"
   inkscape:connector-curvature="0"
   style="fill:#1e1e1e" />
<path
   d="m 22.3,2.8 c 0,0.4 -0.3,0.7 -0.7,0.7 h -8.7 c -0.4,0 -0.7,-0.3 -0.7,-0.7 0,-0.4 0.3,-0.7 0.7,-0.7 h 8.7 c 0.4,0 0.7,0.3 0.7,0.7"
   id="path14"
   inkscape:connector-curvature="0"
   style="fill:#ffffff" />
<rect
   x="5.3000002"
   y="32.299999"
   width="6"
   height="6"
   id="rect16"
   style="clip-rule:evenodd;opacity:0.75;fill:#ffffff;fill-rule:evenodd" />
<rect
   x="14"
   y="27.799999"
   width="6"
   height="10.5"
   id="rect18"
   style="clip-rule:evenodd;opacity:0.75;fill:#ffffff;fill-rule:evenodd" />
<rect
   x="22.700001"
   y="23.299999"
   width="6"
   height="15"
   id="rect20"
   style="clip-rule:evenodd;opacity:0.75;fill:#ffffff;fill-rule:evenodd" />
<path
   d="M 25.9,7 H 8.1 C 6.5,7 5.3,8.3 5.3,9.8 v 8.6 c 0,1.6 1.3,2.8 2.8,2.8 h 3.5 v 3.7 l 3.7,-3.7 h 10.6 c 1.6,0 2.8,-1.3 2.8,-2.8 V 9.8 C 28.7,8.3 27.5,7 25.9,7 Z"
   id="path22"
   inkscape:connector-curvature="0"
   style="opacity:0.75;fill:#ffffff" />
</svg>