<?xml version="1.0" encoding="UTF-8" standalone="no"?>
<!-- Generator: Adobe Illustrator 18.1.0, SVG Export Plug-In . SVG Version: 6.00 Build 0)  -->

<svg
   xmlns:dc="http://purl.org/dc/elements/1.1/"
   xmlns:cc="http://creativecommons.org/ns#"
   xmlns:rdf="http://www.w3.org/1999/02/22-rdf-syntax-ns#"
   xmlns:svg="http://www.w3.org/2000/svg"
   xmlns="http://www.w3.org/2000/svg"
   xmlns:sodipodi="http://sodipodi.sourceforge.net/DTD/sodipodi-0.dtd"
   xmlns:inkscape="http://www.inkscape.org/namespaces/inkscape"
   version="1.0"
   x="0px"
   y="0px"
   viewBox="0 0 27.306324 45"
   enable-background="new 0 0 152 117.5"
   xml:space="preserve"
   id="svg51"
   sodipodi:docname="AzMobileEngagement.svg"
   width="27.306324"
   height="45"
   inkscape:version="0.92.4 (5da689c313, 2019-01-14)"><metadata
   id="metadata57"><rdf:RDF><cc:Work
       rdf:about=""><dc:format>image/svg+xml</dc:format><dc:type
         rdf:resource="http://purl.org/dc/dcmitype/StillImage" /></cc:Work></rdf:RDF></metadata><defs
   id="defs55" /><sodipodi:namedview
   pagecolor="#ffffff"
   bordercolor="#666666"
   borderopacity="1"
   objecttolerance="10"
   gridtolerance="10"
   guidetolerance="10"
   inkscape:pageopacity="0"
   inkscape:pageshadow="2"
   inkscape:window-width="713"
   inkscape:window-height="543"
   id="namedview53"
   showgrid="false"
   inkscape:zoom="2.0085106"
   inkscape:cx="13.6"
   inkscape:cy="22.55"
   inkscape:window-x="0"
   inkscape:window-y="0"
   inkscape:window-maximized="0"
   inkscape:current-layer="svg51" />
<g
   id="Layer_1"
   transform="translate(-62.4,-36.3)">
	<g
   id="Azure">
	</g>
	<g
   id="BizTalk_Services"
   transform="translate(37.3575,-2500.2)">
	</g>
	<g
   id="Key_Vault">
	</g>
	<g
   id="Mobile_Engagement">
		<g
   id="g21">
			<rect
   x="67.300003"
   y="67.5"
   width="5"
   height="5"
   id="rect5"
   style="fill:#0078d7" />
			<rect
   x="73.599998"
   y="63.700001"
   width="5"
   height="8.6999998"
   id="rect7"
   style="fill:#0078d7" />
			<rect
   x="79.800003"
   y="60"
   width="5"
   height="12.5"
   id="rect9"
   style="fill:#0078d7" />
			<g
   id="g17">
				<g
   id="g15">
					<path
   d="m 81.3,38.5 c 0,-0.1 0,-0.4 0,-0.5 0,-0.1 0,-0.6 0,-0.6 h 6.1 c 0.5,0 0.9,0.5 1,1 z m -17.6,0 c 0,-0.5 0.4,-1 0.9,-1 h 3.6 c 0,0 0,0.5 0,0.6 0,0.1 0,0.2 0,0.5 z M 64.6,80 c -0.5,0 -1,-0.7 -1,-1.4 v -2.2 h 8.5 c -0.7,0.4 -1,1.2 -1,2 0,0.6 0.2,1.6 0.5,1.6 z m 14.5,0 c 0.2,0 0.5,-0.9 0.5,-1.6 0,-1 -0.2,-1.6 -0.7,-2 l 9.7,-0.1 v 2.4 c 0,0.6 -0.6,1.4 -1.1,1.4 h -8.4 z"
   id="path11"
   inkscape:connector-curvature="0"
   style="fill:#0078d7" />
					<path
   d="m 73.6,78.8 c -0.9,-0.1 -1.1,0.1 -1.1,-0.6 0,-0.6 0.5,-0.9 1.1,-1 h 3.9 c 0.6,0.1 0.9,0.4 0.9,1 0,0.6 -0.1,0.6 -0.5,0.6 H 77.4 Z M 64.7,75 V 40 h 22.6 v 35 z m 7.1,-36.3 c -0.5,0 -1,0 -1,-0.6 0,-0.6 0.4,-0.6 1,-0.6 H 79 c 0.5,0 1,0 1,0.6 0,0.6 -0.5,0.6 -1,0.6 z M 87.4,36.3 H 64.6 c -1.2,0 -2.2,1.1 -2.2,2.4 v 40 c 0,1.4 1,2.6 2.2,2.6 h 22.7 c 1.2,0 2.4,-1.2 2.4,-2.6 v -40 c 0.1,-1.3 -1,-2.4 -2.3,-2.4 z"
   id="path13"
   inkscape:connector-curvature="0"
   style="fill:#0078d7" />
				</g>
			</g>
			<path
   d="m 82.1,42.5 h -12 c -1.5,0 -4,1.2 -4,2.7 v 9.5 c 0,1.5 2.5,2.7 4,2.7 h 2.2 v 3.7 L 76,57.4 h 6 c 1.5,0 4,-1.2 4,-2.7 v -9.5 c 0,-1.5 -2.4,-2.7 -3.9,-2.7 z"
   id="path19"
   inkscape:connector-curvature="0"
   style="fill:#0078d7" />
		</g>
	</g>
</g>
<g
   id="paths"
   transform="translate(-62.4,-36.3)">
	<g
   id="Access_control">
	</g>
	<g
   id="Azure_active_directory">
	</g>
	<g
   id="API_Management">
	</g>
	<g
   id="Azure_automation">
	</g>
	<g
   id="Azure_SQL_database">
	</g>
	<g
   id="Azure_subscription">
	</g>
	<g
   id="Backup_service">
	</g>
	<g
   id="Bitbucket_code_source">
	</g>
	<g
   id="Azure_cache">
	</g>
	<g
   id="Content_delivery_network__x28_CDN_x29_">
	</g>
	<g
   id="Cloud_service">
	</g>
	<g
   id="CodePlex">
	</g>
	<g
   id="Dropbox_code_source">
	</g>
	<g
   id="Express_route">
	</g>
	<g
   id="Git_repository">
	</g>
	<g
   id="GitHub_code">
	</g>
	<g
   id="HD_Insight">
	</g>
	<g
   id="Health_monitoring">
	</g>
	<g
   id="Healthy">
	</g>
	<g
   id="BizTalk_hybrid_connection">
	</g>
	<g
   id="Hybrid_connection_manager_for_BizTalk_hybrid_connection">
	</g>
	<g
   id="Hyper-V_recovery_manager">
	</g>
	<g
   id="Machine_learning">
	</g>
	<g
   id="Media_services">
	</g>
	<g
   id="Microsoft_account">
	</g>
</g>
</svg>