<?xml version="1.0" encoding="UTF-8" standalone="no"?>
<!-- Generator: Adobe Illustrator 17.1.0, SVG Export Plug-In . SVG Version: 6.00 Build 0)  -->

<svg
   xmlns:dc="http://purl.org/dc/elements/1.1/"
   xmlns:cc="http://creativecommons.org/ns#"
   xmlns:rdf="http://www.w3.org/1999/02/22-rdf-syntax-ns#"
   xmlns:svg="http://www.w3.org/2000/svg"
   xmlns="http://www.w3.org/2000/svg"
   xmlns:sodipodi="http://sodipodi.sourceforge.net/DTD/sodipodi-0.dtd"
   xmlns:inkscape="http://www.inkscape.org/namespaces/inkscape"
   version="1.1"
   id="Layer_1"
   x="0px"
   y="0px"
   width="23.238693"
   height="50.117889"
   viewBox="0 0 23.238693 50.117889"
   enable-background="new 0 0 50 50"
   xml:space="preserve"
   sodipodi:docname="AzMultiFactorAuthenticationColor.svg"
   inkscape:version="0.92.4 (5da689c313, 2019-01-14)"><metadata
   id="metadata13"><rdf:RDF><cc:Work
       rdf:about=""><dc:format>image/svg+xml</dc:format><dc:type
         rdf:resource="http://purl.org/dc/dcmitype/StillImage" /></cc:Work></rdf:RDF></metadata><defs
   id="defs11" /><sodipodi:namedview
   pagecolor="#ffffff"
   bordercolor="#666666"
   borderopacity="1"
   objecttolerance="10"
   gridtolerance="10"
   guidetolerance="10"
   inkscape:pageopacity="0"
   inkscape:pageshadow="2"
   inkscape:window-width="713"
   inkscape:window-height="543"
   id="namedview9"
   showgrid="false"
   inkscape:zoom="4.72"
   inkscape:cx="11.627906"
   inkscape:cy="25.108439"
   inkscape:window-x="0"
   inkscape:window-y="0"
   inkscape:window-maximized="0"
   inkscape:current-layer="Layer_1" />
<ellipse
   cx="8.4279051"
   cy="3.7094495"
   rx="2.8"
   ry="1.6"
   id="ellipse2"
   style="fill:#b8d432" />
<path
   d="m 18.427906,22.30945 -13.7000003,1.7 -1.8,-14.4000004 c -0.1,-1.2 0.7,-2.2 1.9,-2.3 l 7.9000003,-1 c 1.2,-0.1 2.2,0.6 2.4,1.8 l 1.3,10.4000004 c 0.1,0.6 0.6,1 1.2,0.9 0.6,-0.1 1,-0.6 0.9,-1.2 l -2,-16.4000004 c -0.1,-1.20000004 -1.2,-1.90000004 -2.4,-1.80000004 L 1.9279057,1.6094496 c -1.19999998,0.1 -2.09999998,1.1 -1.89999998,2.3 L 2.5279057,24.00945 c 0,0.2 0.1,0.3 0.1,0.5 -0.6,0.4 -0.9,1.1 -0.8,1.8 l 2.8,22 c 0.1,1.1 1.2,1.9 2.2,1.8 l 14.8000003,-2 c 1.1,-0.1 1.7,-1.2 1.6,-2.3 l -2.8,-22 c -0.1,-1 -1,-1.6 -2,-1.5 z M 7.5279057,3.0094496 l 1.7,-0.2 c 0.4,-0.1 0.8000003,0.2 0.8000003,0.6 0.1,0.4 -0.2000003,0.8 -0.6000003,0.8 l -1.7,0.2 c -0.4,0.1 -0.8,-0.2 -0.8,-0.6 -0.1,-0.4 0.2,-0.7 0.6,-0.8 z m 6.1000003,31.6000004 0.4,3.5 -2.6,0.3 -0.5,-3.6 c -0.8,-0.4 -1.6000003,-1.2 -1.8000003,-2.3 -0.2,-1.6 0.9000003,-3 2.5000003,-3.2 1.6,-0.2 3,0.9 3.2,2.5 0.2,1.2 -0.1,2.2 -1.2,2.8 z"
   id="path4"
   inkscape:connector-curvature="0"
   style="fill:#3e3e3e" />
<path
   enable-background="new    "
   d="m 2.5279057,23.90945 c 0,0.2 0.1,0.3 0.1,0.5 -0.6,0.4 -0.9,1.1 -0.8,1.8 l 1.7,13.5 6.6000003,-16.3 -5.4000003,0.6 -1.8,-14.4000004 c -0.1,-1.2 0.7,-2.2 1.9,-2.3 l 7.9000003,-1 c 1.2,-0.1 2.2,0.6 2.4,1.8 l 0.3,2.2000004 1.7,-4.1000004 -0.5,-4.3 c -0.1,-1.20000004 -1.2,-1.90000004 -2.4,-1.80000004 L 1.9279057,1.6094496 c -1.19999998,0.1 -2.09999998,1.1 -1.89999998,2.3 z m 5,-20.9000004 1.7,-0.2 c 0.4,-0.1 0.8000003,0.2 0.8000003,0.6 0.1,0.4 -0.2000003,0.8 -0.6000003,0.8 l -1.7,0.2 c -0.4,0.1 -0.8,-0.2 -0.8,-0.6 -0.1,-0.4 0.2,-0.7 0.6,-0.8 z"
   id="path6"
   inkscape:connector-curvature="0"
   style="opacity:0.15;fill:#ffffff" />
</svg>