<?xml version="1.0" encoding="UTF-8" standalone="no"?>
<!-- Generator: Adobe Illustrator 18.1.0, SVG Export Plug-In . SVG Version: 6.00 Build 0)  -->

<svg
   xmlns:dc="http://purl.org/dc/elements/1.1/"
   xmlns:cc="http://creativecommons.org/ns#"
   xmlns:rdf="http://www.w3.org/1999/02/22-rdf-syntax-ns#"
   xmlns:svg="http://www.w3.org/2000/svg"
   xmlns="http://www.w3.org/2000/svg"
   xmlns:sodipodi="http://sodipodi.sourceforge.net/DTD/sodipodi-0.dtd"
   xmlns:inkscape="http://www.inkscape.org/namespaces/inkscape"
   version="1.0"
   x="0px"
   y="0px"
   viewBox="0 0 26.301252 35.599998"
   enable-background="new 0 0 152 117.5"
   xml:space="preserve"
   id="svg41"
   sodipodi:docname="AzMySQLClearDB.svg"
   width="26.301252"
   height="35.599998"
   inkscape:version="0.92.4 (5da689c313, 2019-01-14)"><metadata
   id="metadata47"><rdf:RDF><cc:Work
       rdf:about=""><dc:format>image/svg+xml</dc:format><dc:type
         rdf:resource="http://purl.org/dc/dcmitype/StillImage" /></cc:Work></rdf:RDF></metadata><defs
   id="defs45" /><sodipodi:namedview
   pagecolor="#ffffff"
   bordercolor="#666666"
   borderopacity="1"
   objecttolerance="10"
   gridtolerance="10"
   guidetolerance="10"
   inkscape:pageopacity="0"
   inkscape:pageshadow="2"
   inkscape:window-width="713"
   inkscape:window-height="543"
   id="namedview43"
   showgrid="false"
   inkscape:zoom="2.0085106"
   inkscape:cx="13.2165"
   inkscape:cy="17.77"
   inkscape:window-x="0"
   inkscape:window-y="0"
   inkscape:window-maximized="0"
   inkscape:current-layer="svg41" />
<g
   id="Layer_1"
   transform="translate(-62.7835,-40.92)">
	<g
   id="Azure">
	</g>
	<g
   id="BizTalk_Services"
   transform="translate(37.3575,-2500.2)">
	</g>
	<g
   id="Key_Vault">
	</g>
	<g
   id="Mobile_Engagement">
	</g>
</g>
<g
   id="paths"
   transform="translate(-62.7835,-40.92)">
	<g
   id="Access_control">
	</g>
	<g
   id="Azure_active_directory">
	</g>
	<g
   id="API_Management">
	</g>
	<g
   id="Azure_automation">
	</g>
	<g
   id="Azure_SQL_database">
	</g>
	<g
   id="Azure_subscription">
	</g>
	<g
   id="Backup_service">
	</g>
	<g
   id="Bitbucket_code_source">
	</g>
	<g
   id="Azure_cache">
	</g>
	<g
   id="Content_delivery_network__x28_CDN_x29_">
	</g>
	<g
   id="Cloud_service">
	</g>
	<g
   id="CodePlex">
	</g>
	<g
   id="Dropbox_code_source">
	</g>
	<g
   id="Express_route">
	</g>
	<g
   id="Git_repository">
	</g>
	<g
   id="GitHub_code">
	</g>
	<g
   id="HD_Insight">
	</g>
	<g
   id="Health_monitoring">
	</g>
	<g
   id="Healthy">
	</g>
	<g
   id="BizTalk_hybrid_connection">
	</g>
	<g
   id="Hybrid_connection_manager_for_BizTalk_hybrid_connection">
	</g>
	<g
   id="Hyper-V_recovery_manager">
	</g>
	<g
   id="Machine_learning">
	</g>
	<g
   id="Media_services">
	</g>
	<g
   id="Microsoft_account">
	</g>
	<g
   id="Mobile_services">
	</g>
	<g
   id="Multi-factor_authentication">
	</g>
	<g
   id="MySQL_database">
		<g
   id="shape128-232_1_"
   transform="translate(41.9835,-1350.98)">
			<title
   id="title34">Sheet.128</title>
			<path
   d="m 44.9,1414.8 c 0,1.5 -1.5,2.2 -3,2.3 h -5.3 v -1.9 h 5.3 c 0.3,0 0.4,-0.7 0.4,-0.7 l -0.9,0.3 h -2 c -1.8,0 -2.9,-0.9 -3,-2 v -0.2 c 0,-2 0,-2.8 0,-3.1 l -1,-0.6 v 6 h -2.7 v -4.4 l -1.5,3.2 c -0.4,0.9 -1,1.2 -1.9,1.2 -1,0 -1.6,-0.4 -2,-1.2 l -1.5,-3.3 v 4.4 h -2.4 v -6.8 c 0,-0.8 0.2,-1.3 0.9,-1.6 0.4,-0.1 0.8,-0.2 1.1,-0.2 0.9,0 1.6,0.5 2,1.3 l 1.9,4.3 2,-4.3 c 0.4,-0.8 1.1,-1.3 2,-1.3 0.3,0 0.7,0.1 1.1,0.2 0.7,0.2 1.1,0.8 1.1,1.6 v 1 h 3.9 v 3.6 c 0,0.1 0.1,0.1 0.4,0.1 h 0.7 1.9 v -3.7 h 2.7 z m -10.9,-21 c 5.2,0 9.4,1.3 9.4,2.9 0,1.6 -4.2,2.9 -9.4,2.9 -5.2,0 -9.4,-1.3 -9.4,-2.9 0,-1.6 4.2,-2.9 9.4,-2.9 z m 0,-1.9 c -7.3,0 -13.2,2.5 -13.2,5.2 v 24.6 c 0,2.7 5.9,5.8 13.2,5.8 7.3,0 13.1,-3 13.1,-5.7 v -24.6 c 0.1,-2.7 -5.8,-5.3 -13.1,-5.3 z"
   id="path36"
   inkscape:connector-curvature="0"
   style="fill:#0078d7" />
		</g>
	</g>
</g>
</svg>