<?xml version="1.0" encoding="UTF-8" standalone="no"?>
<!-- Generator: Adobe Illustrator 17.0.1, SVG Export Plug-In . SVG Version: 6.00 Build 0)  -->

<svg
   xmlns:dc="http://purl.org/dc/elements/1.1/"
   xmlns:cc="http://creativecommons.org/ns#"
   xmlns:rdf="http://www.w3.org/1999/02/22-rdf-syntax-ns#"
   xmlns:svg="http://www.w3.org/2000/svg"
   xmlns="http://www.w3.org/2000/svg"
   xmlns:sodipodi="http://sodipodi.sourceforge.net/DTD/sodipodi-0.dtd"
   xmlns:inkscape="http://www.inkscape.org/namespaces/inkscape"
   version="1.1"
   id="Layer_1"
   x="0px"
   y="0px"
   width="38"
   height="50"
   viewBox="0 0 38 50"
   enable-background="new 0 0 50 50"
   xml:space="preserve"
   sodipodi:docname="AzMySQLClearDBColor.svg"
   inkscape:version="0.92.4 (5da689c313, 2019-01-14)"><metadata
   id="metadata23"><rdf:RDF><cc:Work
       rdf:about=""><dc:format>image/svg+xml</dc:format><dc:type
         rdf:resource="http://purl.org/dc/dcmitype/StillImage" /></cc:Work></rdf:RDF></metadata><defs
   id="defs21" /><sodipodi:namedview
   pagecolor="#ffffff"
   bordercolor="#666666"
   borderopacity="1"
   objecttolerance="10"
   gridtolerance="10"
   guidetolerance="10"
   inkscape:pageopacity="0"
   inkscape:pageshadow="2"
   inkscape:window-width="713"
   inkscape:window-height="543"
   id="namedview19"
   showgrid="false"
   inkscape:zoom="4.72"
   inkscape:cx="19"
   inkscape:cy="25"
   inkscape:window-x="0"
   inkscape:window-y="0"
   inkscape:window-maximized="0"
   inkscape:current-layer="Layer_1" />
<path
   d="M 0,6.831 V 43.169 C 0,46.941 8.507,50 19,50 V 6.831 Z"
   id="path2"
   inkscape:connector-curvature="0"
   style="fill:#0072c6" />
<path
   d="M 18.74,49.999 H 19 c 10.493,0 19,-3.057 19,-6.831 V 6.831 H 18.74 Z"
   id="path4"
   inkscape:connector-curvature="0"
   style="fill:#0072c6" />
<path
   enable-background="new    "
   d="M 18.74,49.999 H 19 c 10.493,0 19,-3.057 19,-6.831 V 6.831 H 18.74 Z"
   id="path6"
   inkscape:connector-curvature="0"
   style="opacity:0.15;fill:#ffffff" />
<path
   d="m 38,6.831 c 0,3.773 -8.507,6.831 -19,6.831 C 8.507,13.662 0,10.603 0,6.831 0,3.058 8.507,0 19,0 29.493,0 38,3.058 38,6.831"
   id="path8"
   inkscape:connector-curvature="0"
   style="fill:#ffffff" />
<path
   d="m 34.115,6.438 c 0,2.491 -6.768,4.507 -15.115,4.507 -8.347,0 -15.116,-2.017 -15.116,-4.507 0,-2.49 6.768,-4.507 15.116,-4.507 8.348,0 15.115,2.017 15.115,4.507"
   id="path10"
   inkscape:connector-curvature="0"
   style="fill:#dd5900" />
<path
   d="m 30.949,9.191 c 1.979,-0.762 3.168,-1.716 3.168,-2.752 0,-2.491 -6.768,-4.508 -15.116,-4.508 -8.348,0 -15.115,2.018 -15.115,4.508 0,1.036 1.189,1.99 3.168,2.752 C 9.816,8.126 14.134,7.439 19,7.439 c 4.867,0 9.183,0.687 11.949,1.752"
   id="path12"
   inkscape:connector-curvature="0"
   style="fill:#ff8c00" />
<path
   d="M 3.947,33.582 H 6.35 v -9.49 l 3.72,8.273 c 0.439,1.001 1.04,1.356 2.218,1.356 1.178,0 1.756,-0.354 2.195,-1.356 l 3.72,-8.273 v 9.49 h 2.403 v -9.474 c 0,-0.924 -0.37,-1.371 -1.132,-1.602 -1.825,-0.57 -3.05,-0.077 -3.605,1.155 L 12.218,31.826 8.683,23.661 C 8.152,22.429 6.904,21.936 5.078,22.506 4.315,22.737 3.946,23.184 3.946,24.108 v 9.474 z"
   id="path14"
   inkscape:connector-curvature="0"
   style="fill:#ffffff" />
<path
   d="m 22.605,25.858 h 2.402 v 5.228 c -0.022,0.284 0.091,0.951 1.407,0.971 0.672,0.011 5.184,0 5.226,0 v -6.225 h 2.408 c 0.011,0 -0.002,8.489 -0.002,8.525 0.013,2.094 -2.598,2.548 -3.801,2.584 h -7.588 v -1.617 c 0.013,0 7.582,0.002 7.601,0 1.547,-0.163 1.364,-0.932 1.364,-1.191 v -0.63 h -5.108 c -2.376,-0.022 -3.89,-1.059 -3.908,-2.252 -0.001,-0.111 0.052,-5.341 -0.001,-5.393 z"
   id="path16"
   inkscape:connector-curvature="0"
   style="fill:#ffffff" />
</svg>