<?xml version="1.0" encoding="UTF-8" standalone="no"?>
<!-- Generator: Adobe Illustrator 17.1.0, SVG Export Plug-In . SVG Version: 6.00 Build 0)  -->

<svg
   xmlns:dc="http://purl.org/dc/elements/1.1/"
   xmlns:cc="http://creativecommons.org/ns#"
   xmlns:rdf="http://www.w3.org/1999/02/22-rdf-syntax-ns#"
   xmlns:svg="http://www.w3.org/2000/svg"
   xmlns="http://www.w3.org/2000/svg"
   xmlns:sodipodi="http://sodipodi.sourceforge.net/DTD/sodipodi-0.dtd"
   xmlns:inkscape="http://www.inkscape.org/namespaces/inkscape"
   version="1.1"
   id="Layer_1"
   x="0px"
   y="0px"
   height="49.900002"
   width="50"
   viewBox="0 0 50 49.900002"
   enable-background="new 0 0 50 50"
   xml:space="preserve"
   sodipodi:docname="AzNotificationHubsColor.svg"
   inkscape:version="0.92.4 (5da689c313, 2019-01-14)"><metadata
   id="metadata15"><rdf:RDF><cc:Work
       rdf:about=""><dc:format>image/svg+xml</dc:format><dc:type
         rdf:resource="http://purl.org/dc/dcmitype/StillImage" /></cc:Work></rdf:RDF></metadata><defs
   id="defs13" /><sodipodi:namedview
   pagecolor="#ffffff"
   bordercolor="#666666"
   borderopacity="1"
   objecttolerance="10"
   gridtolerance="10"
   guidetolerance="10"
   inkscape:pageopacity="0"
   inkscape:pageshadow="2"
   inkscape:window-width="713"
   inkscape:window-height="543"
   id="namedview11"
   showgrid="false"
   inkscape:zoom="4.72"
   inkscape:cx="25"
   inkscape:cy="24.9"
   inkscape:window-x="0"
   inkscape:window-y="0"
   inkscape:window-maximized="0"
   inkscape:current-layer="Layer_1" />
<path
   d="m 13.7,27.8 v 5.4 L 1,22.4 H 50 V 6.2 C 50,2.6 47,0 43.4,0 H 6.3 C 2.6,0 0,2.2 0,5.9 v 5.9 H 36.6 V 6.4 L 49.3,17.2 H 0 v 14.9 c 0,3.7 2.7,7 6.3,7 h 13.4 l 11,10.8 0.1,-10.8 H 43.3 C 47,39.1 50,36.2 50,32.5 V 27.7 H 13.7 Z"
   id="path2"
   inkscape:connector-curvature="0"
   style="fill:#ff8c00" />
<g
   id="g8"
   style="opacity:0.2">
	<path
   d="M 6.3,39.2 H 16 l 5.7,-11.3 h -8.1 v 5.4 L 1,22.4 h 23.3 l 2.8,-5.2 H 0 v 14.9 c 0,3.7 2.7,7 6.3,7.1 z"
   id="path4"
   inkscape:connector-curvature="0"
   style="fill:#ffffff" />
	<path
   d="M 35.6,0 H 6.3 C 2.6,0 0,2.2 0,5.9 v 5.9 h 29.7 z"
   id="path6"
   inkscape:connector-curvature="0"
   style="fill:#ffffff" />
</g>
</svg>