<?xml version="1.0" encoding="UTF-8" standalone="no"?>
<!-- Generator: Adobe Illustrator 17.1.0, SVG Export Plug-In . SVG Version: 6.00 Build 0)  -->

<svg
   xmlns:dc="http://purl.org/dc/elements/1.1/"
   xmlns:cc="http://creativecommons.org/ns#"
   xmlns:rdf="http://www.w3.org/1999/02/22-rdf-syntax-ns#"
   xmlns:svg="http://www.w3.org/2000/svg"
   xmlns="http://www.w3.org/2000/svg"
   xmlns:sodipodi="http://sodipodi.sourceforge.net/DTD/sodipodi-0.dtd"
   xmlns:inkscape="http://www.inkscape.org/namespaces/inkscape"
   version="1.1"
   id="Layer_1"
   x="0px"
   y="0px"
   width="50"
   height="50"
   viewBox="0 0 50 50"
   enable-background="new 0 0 50 50"
   xml:space="preserve"
   sodipodi:docname="AzRemoteAppColor.svg"
   inkscape:version="0.92.4 (5da689c313, 2019-01-14)"><metadata
   id="metadata13"><rdf:RDF><cc:Work
       rdf:about=""><dc:format>image/svg+xml</dc:format><dc:type
         rdf:resource="http://purl.org/dc/dcmitype/StillImage" /></cc:Work></rdf:RDF></metadata><defs
   id="defs11" /><sodipodi:namedview
   pagecolor="#ffffff"
   bordercolor="#666666"
   borderopacity="1"
   objecttolerance="10"
   gridtolerance="10"
   guidetolerance="10"
   inkscape:pageopacity="0"
   inkscape:pageshadow="2"
   inkscape:window-width="713"
   inkscape:window-height="543"
   id="namedview9"
   showgrid="false"
   inkscape:zoom="4.72"
   inkscape:cx="25"
   inkscape:cy="25"
   inkscape:window-x="0"
   inkscape:window-y="0"
   inkscape:window-maximized="0"
   inkscape:current-layer="Layer_1" />
<polygon
   points="23.8,20.6 34.5,31.4 37.8,28.3 30.5,20.9 37.8,13.1 34.5,9.8 "
   id="polygon2"
   style="fill:#b8d432" />
<polygon
   points="12.2,36.9 15.5,40.2 26.2,29.4 15.5,18.6 12.2,22.2 19.5,29.5 "
   id="polygon4"
   style="fill:#b8d432" />
<path
   d="M 25,0 C 11.1,0 0,11.4 0,25 0,38.9 11.4,50 25,50 38.6,50 50,38.6 50,25 50,11.4 38.9,0 25,0 Z m 0,3.3 C 37,3.3 46.7,13 46.7,25 46.7,37 36.9,46.7 25,46.7 13.1,46.7 3.3,36.9 3.3,25 3.3,13.1 13,3.3 25,3.3 Z"
   id="path6"
   inkscape:connector-curvature="0"
   style="fill:#59b4d9" />
</svg>