<?xml version="1.0" encoding="UTF-8" standalone="no"?>
<!-- Generator: Adobe Illustrator 18.1.0, SVG Export Plug-In . SVG Version: 6.00 Build 0)  -->

<svg
   xmlns:dc="http://purl.org/dc/elements/1.1/"
   xmlns:cc="http://creativecommons.org/ns#"
   xmlns:rdf="http://www.w3.org/1999/02/22-rdf-syntax-ns#"
   xmlns:svg="http://www.w3.org/2000/svg"
   xmlns="http://www.w3.org/2000/svg"
   xmlns:sodipodi="http://sodipodi.sourceforge.net/DTD/sodipodi-0.dtd"
   xmlns:inkscape="http://www.inkscape.org/namespaces/inkscape"
   version="1.0"
   x="0px"
   y="0px"
   viewBox="0 0 35.902779 44.200001"
   enable-background="new 0 0 152 117.5"
   xml:space="preserve"
   id="svg47"
   sodipodi:docname="AzRightsManagement.svg"
   width="35.902779"
   height="44.200001"
   inkscape:version="0.92.4 (5da689c313, 2019-01-14)"><metadata
   id="metadata53"><rdf:RDF><cc:Work
       rdf:about=""><dc:format>image/svg+xml</dc:format><dc:type
         rdf:resource="http://purl.org/dc/dcmitype/StillImage" /></cc:Work></rdf:RDF></metadata><defs
   id="defs51" /><sodipodi:namedview
   pagecolor="#ffffff"
   bordercolor="#666666"
   borderopacity="1"
   objecttolerance="10"
   gridtolerance="10"
   guidetolerance="10"
   inkscape:pageopacity="0"
   inkscape:pageshadow="2"
   inkscape:window-width="713"
   inkscape:window-height="543"
   id="namedview49"
   showgrid="false"
   inkscape:zoom="2.0085106"
   inkscape:cx="17.902778"
   inkscape:cy="22.15"
   inkscape:window-x="0"
   inkscape:window-y="0"
   inkscape:window-maximized="0"
   inkscape:current-layer="svg47" />
<g
   id="Layer_1"
   transform="translate(-58.097222,-36.7)">
	<g
   id="Azure">
	</g>
	<g
   id="BizTalk_Services"
   transform="translate(37.3575,-2500.2)">
	</g>
	<g
   id="Key_Vault">
	</g>
	<g
   id="Mobile_Engagement">
	</g>
	<g
   id="Office_subscription">
		<g
   id="Office_subscription_1_">
		</g>
	</g>
	<path
   d="m 93.1,54.8 h -2.4 v -3 c 0,-4.1 -1.5,-7.9 -3.9,-10.6 -2.5,-2.8 -6.9,-4.5 -10.7,-4.5 -3.8,0 -8.3,1.8 -10.7,4.5 -2.5,2.7 -4,6.5 -4,10.6 v 3 H 59 c -1,0 -0.9,0.8 -0.9,1.9 V 79 c 0,1 0.8,1.9 1.8,1.9 h 32.3 c 1,0 1.8,-0.8 1.8,-1.9 V 56.6 c -0.1,-1 0,-1.8 -0.9,-1.8 z M 79.7,71.2 c 0.5,-0.3 1,-0.5 1.6,-0.5 1.5,0 2.7,1.2 2.7,2.7 0,1.5 -1.2,2.7 -2.7,2.7 -1.5,0 -2.7,-1.2 -2.7,-2.7 0,-0.1 0,-0.1 0,-0.2 l -7,-3.6 c -0.5,0.5 -1.1,0.7 -1.9,0.7 -1.5,0 -2.7,-1.2 -2.7,-2.7 0,-1.5 1.2,-2.7 2.7,-2.7 0.7,0 1.4,0.3 1.8,0.7 l 7,-3.6 c 0,0 0,-0.1 0,-0.1 0,-1.5 1.2,-2.7 2.7,-2.7 1.5,0 2.7,1.2 2.7,2.7 0,1.5 -1.2,2.7 -2.7,2.7 -0.6,0 -1.2,-0.2 -1.7,-0.6 l -7,3.6 z M 84.2,54.8 H 67.7 v -3.6 c 0,-2.4 0.8,-3.9 2.2,-5.4 1.4,-1.5 4.1,-2.3 6.1,-2.3 2,0 4.6,0.8 6,2.3 1.3,1.5 2.2,3.6 2.2,6 z"
   id="path8"
   inkscape:connector-curvature="0"
   style="clip-rule:evenodd;fill:#0078d7;fill-rule:evenodd" />
</g>
<g
   id="paths"
   transform="translate(-58.097222,-36.7)">
	<g
   id="Access_control">
	</g>
	<g
   id="Azure_active_directory">
	</g>
	<g
   id="API_Management">
	</g>
	<g
   id="Azure_automation">
	</g>
	<g
   id="Azure_SQL_database">
	</g>
	<g
   id="Azure_subscription">
	</g>
	<g
   id="Backup_service">
	</g>
	<g
   id="Bitbucket_code_source">
	</g>
	<g
   id="Azure_cache">
	</g>
	<g
   id="Content_delivery_network__x28_CDN_x29_">
	</g>
	<g
   id="Cloud_service">
	</g>
	<g
   id="CodePlex">
	</g>
	<g
   id="Dropbox_code_source">
	</g>
	<g
   id="Express_route">
	</g>
	<g
   id="Git_repository">
	</g>
	<g
   id="GitHub_code">
	</g>
	<g
   id="HD_Insight">
	</g>
	<g
   id="Health_monitoring">
	</g>
	<g
   id="Healthy">
	</g>
	<g
   id="BizTalk_hybrid_connection">
	</g>
	<g
   id="Hybrid_connection_manager_for_BizTalk_hybrid_connection">
	</g>
	<g
   id="Hyper-V_recovery_manager">
	</g>
	<g
   id="Machine_learning">
	</g>
	<g
   id="Media_services">
	</g>
	<g
   id="Microsoft_account">
	</g>
	<g
   id="Mobile_services">
	</g>
	<g
   id="Multi-factor_authentication">
	</g>
	<g
   id="MySQL_database">
	</g>
	<g
   id="Notification_hub">
	</g>
	<g
   id="Notification_topic">
	</g>
	<g
   id="Cloud_Office_365">
	</g>
	<g
   id="Office_365">
	</g>
	<g
   id="OS_image">
	</g>
	<g
   id="Remote_app">
	</g>
</g>
<g
   id="Layer_57"
   transform="translate(-58.097222,-36.7)">
</g>
</svg>