<?xml version="1.0" encoding="UTF-8" standalone="no"?>
<!-- Generator: Adobe Illustrator 21.0.0, SVG Export Plug-In . SVG Version: 6.00 Build 0)  -->

<svg
   xmlns:dc="http://purl.org/dc/elements/1.1/"
   xmlns:cc="http://creativecommons.org/ns#"
   xmlns:rdf="http://www.w3.org/1999/02/22-rdf-syntax-ns#"
   xmlns:svg="http://www.w3.org/2000/svg"
   xmlns="http://www.w3.org/2000/svg"
   xmlns:sodipodi="http://sodipodi.sourceforge.net/DTD/sodipodi-0.dtd"
   xmlns:inkscape="http://www.inkscape.org/namespaces/inkscape"
   version="1.1"
   id="Layer_1"
   x="0px"
   y="0px"
   width="50.042999"
   height="42.007999"
   viewBox="0 0 50.042999 42.007999"
   enable-background="new 0 0 50 50"
   xml:space="preserve"
   sodipodi:docname="AzRouteFilter.svg"
   inkscape:version="0.92.4 (5da689c313, 2019-01-14)"><metadata
   id="metadata29"><rdf:RDF><cc:Work
       rdf:about=""><dc:format>image/svg+xml</dc:format><dc:type
         rdf:resource="http://purl.org/dc/dcmitype/StillImage" /></cc:Work></rdf:RDF></metadata><defs
   id="defs27" /><sodipodi:namedview
   pagecolor="#ffffff"
   bordercolor="#666666"
   borderopacity="1"
   objecttolerance="10"
   gridtolerance="10"
   guidetolerance="10"
   inkscape:pageopacity="0"
   inkscape:pageshadow="2"
   inkscape:window-width="713"
   inkscape:window-height="543"
   id="namedview25"
   showgrid="false"
   inkscape:zoom="4.72"
   inkscape:cx="25"
   inkscape:cy="21"
   inkscape:window-x="0"
   inkscape:window-y="0"
   inkscape:window-maximized="0"
   inkscape:current-layer="Layer_1" />
<polygon
   points="30.594,40.905 41.681,36.313 39.199,46 "
   id="polygon2"
   style="fill:#804998"
   transform="translate(0,-3.992)" />
<path
   d="m 24.025,22.004 c 0,0 -0.475,0.862 -1,1 6.594,0 10.902,10.95 13.469,17.34 l 3.331,-0.962 c -2.623,-6.939 -5.8,-17.378 -15.8,-17.378 z"
   id="path4"
   inkscape:connector-curvature="0"
   style="fill:#804998" />
<polygon
   points="30.594,9.087 41.681,13.679 39.199,3.992 "
   id="polygon6"
   style="fill:#804998"
   transform="translate(0,-3.992)" />
<path
   d="m 24.025,20.004 c 0,0 -0.475,-0.862 -1,-1 6.594,0 10.902,-10.95 13.469,-17.34 l 3.331,0.962 c -2.623,6.939 -5.8,17.378 -15.8,17.378 z"
   id="path8"
   inkscape:connector-curvature="0"
   style="fill:#804998" />
<polygon
   points="42.043,30.996 42.043,18.996 50.043,24.996 "
   id="polygon10"
   style="fill:#804998"
   transform="translate(0,-3.992)" />
<rect
   x="19.004"
   y="-45.203999"
   transform="rotate(90)"
   width="4.0040002"
   height="24.204"
   id="rect12"
   style="fill:#804998" />
<path
   d="M 4.754,34.008 H 19 c 2.625,0 4.754,-2.128 4.754,-4.754 V 12.758 C 23.754,10.133 21.626,8.004 19,8.004 H 4.754 C 2.128,8.004 0,10.132 0,12.758 v 16.497 c 0,2.625 2.128,4.753 4.754,4.753 z"
   id="path14"
   inkscape:connector-curvature="0"
   style="fill:#7fba00" />
<path
   d="M 4.754,34.008 19,8.004 H 4.754 C 2.128,8.004 0,10.132 0,12.758 v 16.497 c 0,2.625 2.128,4.753 4.754,4.753 z"
   id="path16"
   inkscape:connector-curvature="0"
   style="opacity:0.2;fill:#ffffff" />
<rect
   x="14"
   y="18.004"
   width="6"
   height="6"
   id="rect18"
   style="fill:#ffffff" />
<rect
   x="4"
   y="12.008"
   width="6"
   height="6"
   id="rect20"
   style="fill:#ffffff" />
<rect
   x="4"
   y="24.007999"
   width="6"
   height="6"
   id="rect22"
   style="fill:#ffffff" />
</svg>