<?xml version="1.0" encoding="UTF-8" standalone="no"?>
<!-- Generator: Adobe Illustrator 17.1.0, SVG Export Plug-In . SVG Version: 6.00 Build 0)  -->

<svg
   xmlns:dc="http://purl.org/dc/elements/1.1/"
   xmlns:cc="http://creativecommons.org/ns#"
   xmlns:rdf="http://www.w3.org/1999/02/22-rdf-syntax-ns#"
   xmlns:svg="http://www.w3.org/2000/svg"
   xmlns="http://www.w3.org/2000/svg"
   xmlns:sodipodi="http://sodipodi.sourceforge.net/DTD/sodipodi-0.dtd"
   xmlns:inkscape="http://www.inkscape.org/namespaces/inkscape"
   version="1.1"
   id="Layer_1"
   x="0px"
   y="0px"
   height="50"
   width="50"
   viewBox="0 0 50 50"
   enable-background="new 0 0 50 50"
   xml:space="preserve"
   sodipodi:docname="AzSDKColor.svg"
   inkscape:version="0.92.4 (5da689c313, 2019-01-14)"><metadata
   id="metadata19"><rdf:RDF><cc:Work
       rdf:about=""><dc:format>image/svg+xml</dc:format><dc:type
         rdf:resource="http://purl.org/dc/dcmitype/StillImage" /></cc:Work></rdf:RDF></metadata><defs
   id="defs17" /><sodipodi:namedview
   pagecolor="#ffffff"
   bordercolor="#666666"
   borderopacity="1"
   objecttolerance="10"
   gridtolerance="10"
   guidetolerance="10"
   inkscape:pageopacity="0"
   inkscape:pageshadow="2"
   inkscape:window-width="713"
   inkscape:window-height="543"
   id="namedview15"
   showgrid="false"
   inkscape:zoom="4.72"
   inkscape:cx="25"
   inkscape:cy="25"
   inkscape:window-x="0"
   inkscape:window-y="0"
   inkscape:window-maximized="0"
   inkscape:current-layer="Layer_1" />
<path
   d="M 30.9,46.7 29,43.6 30.8,40.4 H 36 c -1.1,-1.9 -3.2,-3.2 -5.5,-3.2 -2.4,0 -4.5,1.3 -5.6,3.2 H 11.1 C 10,38.5 7.9,37.2 5.5,37.2 3.1,37.2 1.1,38.5 0,40.4 H 5.1 L 7,43.6 5.2,46.8 H 0 c 1.1,1.9 3.2,3.2 5.5,3.2 2.5,0 4.6,-1.4 5.7,-3.5 h 13.5 c 1.1,2.1 3.2,3.5 5.7,3.5 2.4,0 4.4,-1.3 5.5,-3.2 z"
   id="path2"
   inkscape:connector-curvature="0"
   style="fill:#59b4d9" />
<g
   id="g10">
	<g
   id="g8">
		<path
   d="m 29.7,18.4 c -1.3,0 -2.4,0.8 -2.9,1.9 H 8.2 v 0 c -3.1,0 -5.7,-2.6 -5.7,-5.7 0,-3.1 2.6,-5.7 5.7,-5.7 v 0 h 0.1 v 0 h 2.6 C 11,8.2 11.2,7.6 11.4,7 11.5,6.8 11.6,6.6 11.7,6.3 13,4 15.5,2.5 18.3,2.5 20.8,2.5 23,3.7 24.4,5.6 25.2,5.2 26,5 26.9,4.8 25.2,1.9 22,0 18.4,0 14.1,0 10.5,2.6 9,6.4 c 0,0 0,0 0,0 v 0 c 0,0 0,0 0,0 H 8.2 C 3.7,6.4 0,10 0,14.6 c 0,4.5 3.7,8.2 8.2,8.2 h 18.6 c 0.5,1.1 1.6,1.9 2.9,1.9 1.7,0 3.2,-1.4 3.2,-3.2 0,-1.8 -1.4,-3.1 -3.2,-3.1 z"
   id="path4"
   inkscape:connector-curvature="0"
   style="fill:#59b4d9" />
		<path
   d="M 40,12.1 C 38.1,8.3 34.3,5.8 29.8,5.8 c -5.4,0 -10,3.8 -11.1,8.9 -2.6,0.3 -4.9,1.7 -6.4,3.7 h 13.6 c 0.9,-1.2 2.4,-1.9 3.9,-1.9 2.8,0 5.1,2.3 5.1,5.1 0,2.8 -2.3,5.1 -5.1,5.1 -1.6,0 -3,-0.7 -3.9,-1.9 H 10.7 c 0.6,4.3 4.3,7.6 8.8,7.6 0,0 0,0 0,0 v 0 h 20.3 v 0 c 0,0 0,0 0,0 5.6,0 10.1,-4.5 10.1,-10.1 C 50,16.6 45.5,12.1 40,12.1 Z"
   id="path6"
   inkscape:connector-curvature="0"
   style="fill:#59b4d9" />
	</g>
</g>
<path
   d="M 50,44.4 V 43 l -0.2,-0.1 -1.5,-0.5 -0.4,-1 0.8,-1.7 -1,-1 -0.2,0.1 -1.5,0.8 -1,-0.4 -0.6,-1.7 H 43 l -0.1,0.2 -0.5,1.5 -1,0.4 -1.7,-0.8 -1,1 0.1,0.2 0.7,1.4 -0.4,1 -1.7,0.6 v 1.4 l 0.2,0.1 1.5,0.5 0.4,1 -0.8,1.7 1,1 0.2,-0.1 1.4,-0.7 1,0.4 0.6,1.7 h 1.4 l 0.1,-0.2 0.5,-1.5 1,-0.4 1.7,0.8 1,-1 -0.1,-0.2 -0.6,-1.5 0.4,-1 z m -6.2,1.3 c -1.1,0 -2,-0.9 -2,-2 0,-1.1 0.9,-2 2,-2 1.1,0 2,0.9 2,2 -0.1,1.1 -1,2 -2,2"
   id="path12"
   inkscape:connector-curvature="0"
   style="fill:#59b4d9" />
</svg>