<?xml version="1.0" encoding="UTF-8" standalone="no"?>
<!-- Generator: Adobe Illustrator 18.1.0, SVG Export Plug-In . SVG Version: 6.00 Build 0)  -->

<svg
   xmlns:dc="http://purl.org/dc/elements/1.1/"
   xmlns:cc="http://creativecommons.org/ns#"
   xmlns:rdf="http://www.w3.org/1999/02/22-rdf-syntax-ns#"
   xmlns:svg="http://www.w3.org/2000/svg"
   xmlns="http://www.w3.org/2000/svg"
   xmlns:sodipodi="http://sodipodi.sourceforge.net/DTD/sodipodi-0.dtd"
   xmlns:inkscape="http://www.inkscape.org/namespaces/inkscape"
   version="1.0"
   x="0px"
   y="0px"
   viewBox="0 0 44.940693 42.299999"
   enable-background="new 0 0 152 117.5"
   xml:space="preserve"
   id="svg63"
   sodipodi:docname="AzSDK.svg"
   width="44.940693"
   height="42.299999"
   inkscape:version="0.92.4 (5da689c313, 2019-01-14)"><metadata
   id="metadata69"><rdf:RDF><cc:Work
       rdf:about=""><dc:format>image/svg+xml</dc:format><dc:type
         rdf:resource="http://purl.org/dc/dcmitype/StillImage" /></cc:Work></rdf:RDF></metadata><defs
   id="defs67" /><sodipodi:namedview
   pagecolor="#ffffff"
   bordercolor="#666666"
   borderopacity="1"
   objecttolerance="10"
   gridtolerance="10"
   guidetolerance="10"
   inkscape:pageopacity="0"
   inkscape:pageshadow="2"
   inkscape:window-width="713"
   inkscape:window-height="543"
   id="namedview65"
   showgrid="false"
   inkscape:zoom="2.0085106"
   inkscape:cx="22.540692"
   inkscape:cy="21.15"
   inkscape:window-x="0"
   inkscape:window-y="0"
   inkscape:window-maximized="0"
   inkscape:current-layer="svg63" />
<g
   id="Layer_1"
   transform="translate(-53.459308,-37.6)">
	<g
   id="Azure">
	</g>
	<g
   id="BizTalk_Services"
   transform="translate(37.3575,-2500.2)">
	</g>
	<g
   id="Key_Vault">
	</g>
	<g
   id="Mobile_Engagement">
	</g>
	<g
   id="Office_subscription">
		<g
   id="Office_subscription_1_">
		</g>
	</g>
</g>
<g
   id="paths"
   transform="translate(-53.459308,-37.6)">
	<g
   id="Access_control">
	</g>
	<g
   id="Azure_active_directory">
	</g>
	<g
   id="API_Management">
	</g>
	<g
   id="Azure_automation">
	</g>
	<g
   id="Azure_SQL_database">
	</g>
	<g
   id="Azure_subscription">
	</g>
	<g
   id="Backup_service">
	</g>
	<g
   id="Bitbucket_code_source">
	</g>
	<g
   id="Azure_cache">
	</g>
	<g
   id="Content_delivery_network__x28_CDN_x29_">
	</g>
	<g
   id="Cloud_service">
	</g>
	<g
   id="CodePlex">
	</g>
	<g
   id="Dropbox_code_source">
	</g>
	<g
   id="Express_route">
	</g>
	<g
   id="Git_repository">
	</g>
	<g
   id="GitHub_code">
	</g>
	<g
   id="HD_Insight">
	</g>
	<g
   id="Health_monitoring">
	</g>
	<g
   id="Healthy">
	</g>
	<g
   id="BizTalk_hybrid_connection">
	</g>
	<g
   id="Hybrid_connection_manager_for_BizTalk_hybrid_connection">
	</g>
	<g
   id="Hyper-V_recovery_manager">
	</g>
	<g
   id="Machine_learning">
	</g>
	<g
   id="Media_services">
	</g>
	<g
   id="Microsoft_account">
	</g>
	<g
   id="Mobile_services">
	</g>
	<g
   id="Multi-factor_authentication">
	</g>
	<g
   id="MySQL_database">
	</g>
	<g
   id="Notification_hub">
	</g>
	<g
   id="Notification_topic">
	</g>
	<g
   id="Cloud_Office_365">
	</g>
	<g
   id="Office_365">
	</g>
	<g
   id="OS_image">
	</g>
	<g
   id="Remote_app">
	</g>
	<g
   id="Task_scheduler">
	</g>
	<g
   id="Azure_SDK">
		<g
   id="g58">
			<path
   d="m 67.6,75.9 c -0.4,-0.2 -0.7,-0.4 -0.9,-0.6 -0.2,-0.2 -0.3,-0.3 -0.4,-0.4 -0.1,-0.1 -0.1,-0.3 -0.1,-0.6 0,-0.3 0.1,-0.6 0.4,-0.8 0.3,-0.2 0.6,-0.3 1,-0.3 0.6,0 1.1,0.1 1.5,0.4 v -0.9 c -0.3,-0.2 -0.8,-0.3 -1.4,-0.3 -0.7,0 -1.2,0.2 -1.7,0.5 -0.4,0.4 -0.6,0.8 -0.6,1.4 0,0.4 0.1,0.8 0.4,1.1 0.2,0.3 0.7,0.6 1.2,1 0.6,0.4 1,0.6 1.2,0.9 0.2,0.2 0.3,0.5 0.3,0.8 0,0.7 -0.5,1.1 -1.4,1.1 -0.3,0 -0.6,-0.1 -0.9,-0.2 -0.3,-0.1 -0.6,-0.3 -0.8,-0.5 v 1 c 0.1,0.1 0.4,0.2 0.7,0.3 0.3,0.1 0.6,0.1 0.9,0.1 0.7,0 1.3,-0.2 1.8,-0.5 0.4,-0.3 0.6,-0.8 0.6,-1.4 0,-0.4 -0.1,-0.8 -0.4,-1.1 -0.3,-0.3 -0.8,-0.7 -1.4,-1 z"
   id="path44"
   inkscape:connector-curvature="0"
   style="fill:#0078d7" />
			<path
   d="m 72.7,72.6 h -2 v 7.2 h 1.9 c 0.8,0 1.4,-0.2 2,-0.5 0.6,-0.3 1.1,-0.7 1.4,-1.3 0.3,-0.6 0.5,-1.2 0.5,-1.9 0.1,-2.4 -1.2,-3.5 -3.8,-3.5 z m 2.2,5.6 C 74.4,78.7 73.6,79 72.7,79 h -1.1 v -5.7 h 1.1 c 2,0 2.9,0.9 2.9,2.8 0.1,0.9 -0.2,1.6 -0.7,2.1 z"
   id="path46"
   inkscape:connector-curvature="0"
   style="fill:#0078d7" />
			<path
   d="M 93.5,42.3 C 93.2,42 92.9,42 92.7,42.2 c -0.1,0.1 -0.2,0.2 -0.1,0.4 0,0.2 0.1,0.3 0.2,0.4 z"
   id="path48"
   inkscape:connector-curvature="0"
   style="fill:#0078d7" />
			<path
   d="m 66.1,56.6 v 0 l 4.1,4 1.3,-1.3 -1.7,-1.7 -0.8,-0.7 4.2,-4.1 0.5,0.1 c 0.1,0 0.3,0 0.4,0 0.3,0 0.5,0 0.8,-0.1 l -2.5,-2.4 -0.2,-0.2 c 0.9,-3.1 0.1,-6.6 -2.4,-9 -2.5,-2.4 -6.1,-3.2 -9.3,-2.4 l 5.4,5.2 -1.4,5.2 -5.3,1.4 -5.4,-5.3 c -0.9,3.1 0,6.5 2.5,9 2.7,2.6 6.5,3.4 9.8,2.3 z"
   id="path50"
   inkscape:connector-curvature="0"
   style="fill:#0078d7" />
			<path
   d="M 83.1,50.5 C 83,50.4 82.9,50.4 82.8,50.3 v 0 c 0.1,0.1 0.1,0.2 0.2,0.3 l 0.7,1.3 0.8,-0.7 z"
   id="path52"
   inkscape:connector-curvature="0"
   style="fill:#0078d7" />
			<path
   d="m 82.7,60.3 c -0.1,0.4 -0.1,0.8 -0.1,1.2 l 0.1,0.5 -0.4,0.4 -2.8,2.6 -1,1 -2.5,-2.4 -1.3,1.3 7.9,7.7 h -0.9 l -2.7,3.1 -0.2,0.2 v 0 -3.4 H 78 v 7.2 h 0.8 v -3.6 0 c 0.1,0.1 0.1,0.2 0.2,0.3 l 2.8,3.3 H 83 l -3.3,-3.7 3,-3.4 5.7,5.6 c 0.9,0.9 2,1.3 3.2,1.3 1.2,0 2.3,-0.4 3.2,-1.3 1.8,-1.7 1.8,-4.5 0,-6.2 z"
   id="path54"
   inkscape:connector-curvature="0"
   style="fill:#0078d7" />
			<path
   d="m 75.7,61.4 2.5,2.4 2.8,-2.7 c -0.2,-1.3 0.3,-2.7 1.3,-3.7 1,-1 2.5,-1.5 3.8,-1.3 L 98.4,44.2 91.5,37.6 79.3,49.4 c 0.1,1.3 -0.3,2.7 -1.3,3.7 -1.1,1 -2.5,1.4 -3.8,1.3 l -2.8,2.7 2.5,2.4 -12.2,11.7 -0.4,-0.4 -2.3,1.8 -3.9,6 1,1 6.2,-3.8 1.9,-2.3 -0.4,-0.4 z M 92.2,41.7 c 0.3,-0.3 0.7,-0.5 1,-0.4 0.3,0 0.7,0.2 0.9,0.5 l 0.3,0.3 -1.4,1.4 c 0.3,0.3 0.7,0.3 1,-0.1 0.2,-0.2 0.4,-0.5 0.5,-0.8 l 0.5,0.5 c -0.1,0.3 -0.3,0.6 -0.6,0.9 -0.4,0.3 -0.7,0.5 -1.1,0.5 -0.4,0 -0.7,-0.2 -1.1,-0.5 -0.4,-0.4 -0.5,-0.8 -0.5,-1.2 0.1,-0.5 0.2,-0.8 0.5,-1.1 z m -1.9,2 0.4,0.4 v 0 c -0.2,-0.4 -0.1,-0.7 0.1,-1 C 90.9,43 90.9,43 91,43 l 0.6,0.6 c -0.1,0 -0.2,0.1 -0.3,0.2 -0.1,0.1 -0.2,0.3 -0.2,0.5 0,0.2 0.1,0.4 0.3,0.5 l 1,1 -0.7,0.6 -2.1,-2.2 z m -2.7,2.6 1.2,1.2 c 0.3,0.3 0.6,0.3 0.8,0.1 0.1,-0.1 0.2,-0.2 0.2,-0.4 0,-0.2 -0.1,-0.3 -0.2,-0.4 l -1.2,-1.2 0.7,-0.6 2.1,2.2 -0.7,0.6 -0.3,-0.3 v 0 c 0.1,0.4 0,0.8 -0.3,1 -0.5,0.5 -1,0.4 -1.6,-0.2 L 87,46.9 Z m -1,0.9 0.3,0.3 0.3,2.3 1,-1 0.5,0.5 -1.9,1.9 -0.3,-0.2 -0.3,-2.4 -1,0.9 -0.4,-0.5 z m -3.9,2.1 4,2 -0.7,0.7 -0.9,-0.5 -1.1,1 0.4,0.9 -0.7,0.7 -1.8,-4.1 z"
   id="path56"
   inkscape:connector-curvature="0"
   style="fill:#0078d7" />
		</g>
	</g>
</g>
<g
   id="Layer_57"
   transform="translate(-53.459308,-37.6)">
</g>
</svg>