<?xml version="1.0" encoding="UTF-8" standalone="no"?>
<!-- Generator: Adobe Illustrator 19.1.0, SVG Export Plug-In . SVG Version: 6.00 Build 0)  -->

<svg
   xmlns:dc="http://purl.org/dc/elements/1.1/"
   xmlns:cc="http://creativecommons.org/ns#"
   xmlns:rdf="http://www.w3.org/1999/02/22-rdf-syntax-ns#"
   xmlns:svg="http://www.w3.org/2000/svg"
   xmlns="http://www.w3.org/2000/svg"
   xmlns:sodipodi="http://sodipodi.sourceforge.net/DTD/sodipodi-0.dtd"
   xmlns:inkscape="http://www.inkscape.org/namespaces/inkscape"
   version="1.1"
   id="Layer_1"
   x="0px"
   y="0px"
   width="50"
   height="50.000999"
   viewBox="0 0 50 50.000999"
   enable-background="new 0 0 50 50"
   xml:space="preserve"
   sodipodi:docname="AzServiceFabric.svg"
   inkscape:version="0.92.4 (5da689c313, 2019-01-14)"><metadata
   id="metadata21"><rdf:RDF><cc:Work
       rdf:about=""><dc:format>image/svg+xml</dc:format><dc:type
         rdf:resource="http://purl.org/dc/dcmitype/StillImage" /></cc:Work></rdf:RDF></metadata><defs
   id="defs19" /><sodipodi:namedview
   pagecolor="#ffffff"
   bordercolor="#666666"
   borderopacity="1"
   objecttolerance="10"
   gridtolerance="10"
   guidetolerance="10"
   inkscape:pageopacity="0"
   inkscape:pageshadow="2"
   inkscape:window-width="713"
   inkscape:window-height="543"
   id="namedview17"
   showgrid="false"
   inkscape:zoom="4.72"
   inkscape:cx="25"
   inkscape:cy="25.001"
   inkscape:window-x="0"
   inkscape:window-y="0"
   inkscape:window-maximized="0"
   inkscape:current-layer="Layer_1" />
<path
   d="m 24.996,9.48 15.78,13.101 -5.321,18.032 H 14.197 L 9.18,22.61 24.996,9.48 m 0,-5.586 -20.703,17.188 6.641,23.828 h 27.734 l 7.031,-23.828 z"
   id="path2"
   inkscape:connector-curvature="0"
   style="fill:#dd5900" />
<path
   d="m 25,0 c 4.315,0 7.813,3.498 7.813,7.813 0,4.315 -3.498,7.812 -7.813,7.812 -4.315,0 -7.812,-3.498 -7.812,-7.812 C 17.187,3.498 20.685,0 25,0 Z"
   id="path4"
   inkscape:connector-curvature="0"
   style="clip-rule:evenodd;fill:#ff8c00;fill-rule:evenodd" />
<path
   d="m 42.188,13.281 c 4.315,0 7.812,3.498 7.812,7.812 0,4.315 -3.498,7.812 -7.812,7.812 -4.315,0 -7.813,-3.498 -7.813,-7.812 0,-4.314 3.498,-7.812 7.813,-7.812 z"
   id="path6"
   inkscape:connector-curvature="0"
   style="clip-rule:evenodd;fill:#ff8c00;fill-rule:evenodd" />
<path
   d="m 36.328,34.375 c 4.315,0 7.813,3.498 7.813,7.812 0,4.315 -3.498,7.812 -7.813,7.812 -4.315,0 -7.812,-3.498 -7.812,-7.812 0,-4.314 3.497,-7.812 7.812,-7.812 z"
   id="path8"
   inkscape:connector-curvature="0"
   style="clip-rule:evenodd;fill:#ff8c00;fill-rule:evenodd" />
<path
   d="m 13.662,34.375 c 4.315,0 7.813,3.498 7.813,7.812 0,4.315 -3.498,7.813 -7.813,7.813 -4.315,0 -7.813,-3.498 -7.813,-7.813 0,-4.314 3.498,-7.812 7.813,-7.812 z"
   id="path10"
   inkscape:connector-curvature="0"
   style="clip-rule:evenodd;fill:#ff8c00;fill-rule:evenodd" />
<path
   d="m 7.813,13.281 c 4.315,0 7.812,3.498 7.812,7.812 0,4.315 -3.498,7.812 -7.812,7.812 C 3.498,28.906 0,25.409 0,21.094 0,16.779 3.498,13.281 7.813,13.281 Z"
   id="path12"
   inkscape:connector-curvature="0"
   style="clip-rule:evenodd;fill:#ff8c00;fill-rule:evenodd" />
<path
   d="m 15.055,49.875 3.183,-14.018 c -1.286,-0.931 -2.866,-1.481 -4.576,-1.481 -0.401,0 -0.794,0.03 -1.179,0.089 l -1.711,-6.139 c 2.847,-1.167 4.853,-3.964 4.853,-7.231 0,-1.159 -0.254,-2.258 -0.707,-3.248 L 19.89,13.72 c 0.859,0.744 1.882,1.304 3.007,1.619 L 26.352,0.12 C 25.912,0.042 25.461,0 25,0 c -4.315,0 -7.812,3.498 -7.812,7.813 0,0.794 0.119,1.56 0.34,2.282 L 12.126,14.58 C 10.89,13.76 9.408,13.282 7.814,13.282 3.498,13.281 0,16.779 0,21.094 c 0,3.846 2.78,7.04 6.439,7.69 l 2.094,7.514 c -1.644,1.432 -2.684,3.539 -2.684,5.89 0,4.315 3.498,7.813 7.813,7.813 0.475,-10e-4 0.941,-0.045 1.393,-0.126 z"
   id="path14"
   inkscape:connector-curvature="0"
   style="clip-rule:evenodd;opacity:0.25;fill:#ffffff;fill-rule:evenodd" />
</svg>