<?xml version="1.0" encoding="UTF-8" standalone="no"?>
<!-- Generator: Adobe Illustrator 19.2.1, SVG Export Plug-In . SVG Version: 6.00 Build 0)  -->

<svg
   xmlns:dc="http://purl.org/dc/elements/1.1/"
   xmlns:cc="http://creativecommons.org/ns#"
   xmlns:rdf="http://www.w3.org/1999/02/22-rdf-syntax-ns#"
   xmlns:svg="http://www.w3.org/2000/svg"
   xmlns="http://www.w3.org/2000/svg"
   xmlns:sodipodi="http://sodipodi.sourceforge.net/DTD/sodipodi-0.dtd"
   xmlns:inkscape="http://www.inkscape.org/namespaces/inkscape"
   version="1.1"
   id="Layer_1"
   x="0px"
   y="0px"
   width="50"
   height="50"
   viewBox="0 0 50 50"
   enable-background="new 0 0 50 50"
   xml:space="preserve"
   sodipodi:docname="AzServiceBus.svg"
   inkscape:version="0.92.4 (5da689c313, 2019-01-14)"><metadata
   id="metadata15"><rdf:RDF><cc:Work
       rdf:about=""><dc:format>image/svg+xml</dc:format><dc:type
         rdf:resource="http://purl.org/dc/dcmitype/StillImage" /></cc:Work></rdf:RDF></metadata><defs
   id="defs13" /><sodipodi:namedview
   pagecolor="#ffffff"
   bordercolor="#666666"
   borderopacity="1"
   objecttolerance="10"
   gridtolerance="10"
   guidetolerance="10"
   inkscape:pageopacity="0"
   inkscape:pageshadow="2"
   inkscape:window-width="713"
   inkscape:window-height="543"
   id="namedview11"
   showgrid="false"
   inkscape:zoom="4.72"
   inkscape:cx="25"
   inkscape:cy="25"
   inkscape:window-x="0"
   inkscape:window-y="0"
   inkscape:window-maximized="0"
   inkscape:current-layer="Layer_1" />
<path
   d="M 0.833,0 C 0.333,0 0,0.333 0,0.833 v 10 c 0,0.5 0.333,0.833 0.833,0.833 h 5 c 0.5,0 0.833,-0.333 0.833,-0.833 V 6.667 h 36.667 v 4.167 c 0,0.5 0.333,0.833 1,0.833 h 4.833 c 0.5,0 0.833,-0.333 0.833,-0.833 v -5 -5 C 50,0.333 49.667,0 49.167,0 v 0 z"
   id="path2"
   inkscape:connector-curvature="0"
   style="fill:#0072c6" />
<path
   d="M 49.167,50 C 49.667,50 50,49.667 50,49.167 v -9.833 c 0,-0.5 -0.333,-0.833 -0.833,-0.833 h -4.833 c -0.5,0 -0.833,0.333 -0.833,0.833 v 4 H 6.667 v -4.167 c 0,-0.5 -0.333,-0.833 -1,-0.833 H 0.833 c -0.5,0 -0.833,0.333 -0.833,1 v 9.833 C 0,49.667 0.333,50 0.833,50 Z"
   id="path4"
   inkscape:connector-curvature="0"
   style="fill:#0072c6" />
<path
   d="M 29.857,26.098 C 28.56,27.395 26.835,28.11 25,28.11 c -1.835,0 -3.56,-0.714 -4.858,-2.012 L 10.833,16.789 V 35.712 H 39.166 V 16.788 Z"
   id="path6"
   inkscape:connector-curvature="0"
   style="fill:#59b4d9" />
<path
   d="m 25,26.728 c 1.466,0 2.844,-0.571 3.88,-1.607 L 39.166,14.835 V 14.29 H 10.833 v 0.546 L 21.119,25.12 c 1.037,1.037 2.415,1.608 3.881,1.608 z"
   id="path8"
   inkscape:connector-curvature="0"
   style="fill:#59b4d9" />
</svg>