<?xml version="1.0" encoding="UTF-8" standalone="no"?>
<!-- Generator: Adobe Illustrator 17.1.0, SVG Export Plug-In . SVG Version: 6.00 Build 0)  -->

<svg
   xmlns:dc="http://purl.org/dc/elements/1.1/"
   xmlns:cc="http://creativecommons.org/ns#"
   xmlns:rdf="http://www.w3.org/1999/02/22-rdf-syntax-ns#"
   xmlns:svg="http://www.w3.org/2000/svg"
   xmlns="http://www.w3.org/2000/svg"
   xmlns:sodipodi="http://sodipodi.sourceforge.net/DTD/sodipodi-0.dtd"
   xmlns:inkscape="http://www.inkscape.org/namespaces/inkscape"
   version="1.1"
   id="Layer_1"
   x="0px"
   y="0px"
   width="50"
   height="50"
   viewBox="0 0 50 50"
   enable-background="new 0 0 50 50"
   xml:space="preserve"
   sodipodi:docname="AzSearchColor.svg"
   inkscape:version="0.92.4 (5da689c313, 2019-01-14)"><metadata
   id="metadata21"><rdf:RDF><cc:Work
       rdf:about=""><dc:format>image/svg+xml</dc:format><dc:type
         rdf:resource="http://purl.org/dc/dcmitype/StillImage" /></cc:Work></rdf:RDF></metadata><defs
   id="defs19" /><sodipodi:namedview
   pagecolor="#ffffff"
   bordercolor="#666666"
   borderopacity="1"
   objecttolerance="10"
   gridtolerance="10"
   guidetolerance="10"
   inkscape:pageopacity="0"
   inkscape:pageshadow="2"
   inkscape:window-width="713"
   inkscape:window-height="543"
   id="namedview17"
   showgrid="false"
   inkscape:zoom="4.72"
   inkscape:cx="25"
   inkscape:cy="25"
   inkscape:window-x="0"
   inkscape:window-y="0"
   inkscape:window-maximized="0"
   inkscape:current-layer="Layer_1" />
<path
   d="m 44,14.2 c 0,-0.4 0.1,-0.9 0.1,-1.3 C 44.1,5.8 38.3,0.1 31.1,0.1 26.9,0 23,2 20.6,5.3 19.1,4.3 17.3,3.8 15.4,3.8 10,3.8 5.6,8.2 5.6,13.5 v 0.8 C 2,16.2 0,19.3 0,23.1 c 0,6 4.9,10.7 11.2,10.7 h 27.6 c 6.3,0 11.2,-4.7 11.2,-10.7 0,-4 -2.2,-7.2 -6,-8.9 z"
   id="path2"
   inkscape:connector-curvature="0"
   style="fill:#59b4d9" />
<path
   d="m 7,28 c 0,-4.1 2.1,-7.3 6,-9.3 v -0.8 c 0,-5.7 4.7,-10.3 10.4,-10.3 2,0 3.9,0.5 5.5,1.5 2.5,-3.5 6.7,-5.7 11.2,-5.7 0,0 0,0 0,0 C 37.7,1.3 34.6,0 31.1,0 26.9,0 23,2 20.6,5.3 19.1,4.3 17.3,3.8 15.4,3.8 10,3.8 5.6,8.2 5.6,13.5 v 0.8 C 2,16.2 0,19.3 0,23.1 0,28.2 3.5,32.4 8.4,33.5 7.5,31.9 7,30 7,28 Z"
   id="path4"
   inkscape:connector-curvature="0"
   style="opacity:0.2;fill:#ffffff" />
<path
   d="m 34.3,31 c -1,3.9 -4.4,6.6 -8.4,6.6 -0.7,0 -1.4,-0.1 -2.1,-0.3 -1,-0.3 -2,-0.7 -2.8,-1.3 -0.9,-0.6 -1.6,-1.4 -2.2,-2.2 -1.3,-2 -1.9,-4.4 -1.3,-6.9 1,-3.9 4.4,-6.6 8.4,-6.6 0.7,0 1.4,0.1 2.1,0.3 2.2,0.6 4.1,1.9 5.3,3.9 1.2,1.9 1.6,4.3 1,6.5"
   id="path6"
   inkscape:connector-curvature="0"
   style="fill:#ffffff" />
<path
   d="m 34.3,31 c -1,3.9 -4.4,6.6 -8.4,6.6 -0.7,0 -1.4,-0.1 -2.1,-0.3 -1,-0.3 -2,-0.7 -2.8,-1.3 -0.9,-0.6 -1.6,-1.4 -2.2,-2.2 -1.3,-2 -1.9,-4.4 -1.3,-6.9 1,-3.9 4.4,-6.6 8.4,-6.6 0.7,0 1.4,0.1 2.1,0.3 2.2,0.6 4.1,1.9 5.3,3.9 1.2,1.9 1.6,4.3 1,6.5"
   id="path8"
   inkscape:connector-curvature="0"
   style="opacity:0.1;fill:#59b4d9" />
<path
   d="m 30.6,21.7 c -0.8,-0.5 -1.7,-0.9 -2.6,-1.1 -0.7,-0.2 -1.4,-0.3 -2.1,-0.3 -4,0 -7.4,2.7 -8.4,6.6 -0.6,2.5 -0.1,5 1.3,6.9 0.2,0.3 0.5,0.7 0.8,1 1.8,-5.7 5.8,-10.4 11,-13.1"
   id="path10"
   inkscape:connector-curvature="0"
   style="opacity:0.3;fill:#59b4d9" />
<path
   d="m 36.5,22.6 c -1.7,-2.8 -4.4,-4.8 -7.6,-5.6 -1,-0.2 -2,-0.4 -3,-0.4 -5.7,0 -10.6,3.9 -12,9.4 -0.8,3.1 -0.3,6.3 1.3,9.1 l -9.4,9.5 c -1.2,1.2 -1.2,3.3 0,4.5 0.7,0.6 1.5,0.9 2.3,0.9 0.8,0 1.6,-0.3 2.3,-0.9 l 9.4,-9.5 c 1,0.6 2.1,1 3.2,1.3 1,0.2 2,0.4 3,0.4 5.7,0 10.6,-3.9 12,-9.4 0.7,-3.2 0.2,-6.5 -1.5,-9.3 z M 34.3,31 c -1,3.9 -4.4,6.6 -8.4,6.6 -0.7,0 -1.4,-0.1 -2.1,-0.3 -1,-0.3 -2,-0.7 -2.8,-1.3 -0.9,-0.6 -1.6,-1.4 -2.2,-2.2 -1.3,-2 -1.9,-4.4 -1.3,-6.9 1,-3.9 4.4,-6.6 8.4,-6.6 0.7,0 1.4,0.1 2.1,0.3 2.2,0.6 4.1,1.9 5.3,3.9 1.2,2 1.6,4.3 1,6.5 z"
   id="path12"
   inkscape:connector-curvature="0"
   style="fill:#3e3e3e" />
<path
   d="m 18.9,39.1 c -1.3,-0.9 -2.3,-1.9 -3.2,-3.2 -0.2,-0.3 -0.3,-0.5 -0.5,-0.8 l -0.8,0.9 -0.1,0.1 c 0.1,0.2 0.2,0.4 0.4,0.6 1,1.4 2.1,2.6 3.5,3.6 0.1,0.1 0.4,0.2 0.7,0.3 l 0.9,-0.9 c -0.4,-0.3 -0.6,-0.4 -0.9,-0.6 z"
   id="path14"
   inkscape:connector-curvature="0"
   style="opacity:0.5;fill:#1e1e1e" />
</svg>