<?xml version="1.0" encoding="UTF-8" standalone="no"?>
<!-- Generator: Adobe Illustrator 19.2.1, SVG Export Plug-In . SVG Version: 6.00 Build 0)  -->

<svg
   xmlns:dc="http://purl.org/dc/elements/1.1/"
   xmlns:cc="http://creativecommons.org/ns#"
   xmlns:rdf="http://www.w3.org/1999/02/22-rdf-syntax-ns#"
   xmlns:svg="http://www.w3.org/2000/svg"
   xmlns="http://www.w3.org/2000/svg"
   xmlns:sodipodi="http://sodipodi.sourceforge.net/DTD/sodipodi-0.dtd"
   xmlns:inkscape="http://www.inkscape.org/namespaces/inkscape"
   version="1.1"
   id="Layer_1"
   x="0px"
   y="0px"
   width="50"
   height="50"
   viewBox="0 0 50 50"
   xml:space="preserve"
   sodipodi:docname="AzServiceBusRelay.svg"
   inkscape:version="0.92.4 (5da689c313, 2019-01-14)"><metadata
   id="metadata29"><rdf:RDF><cc:Work
       rdf:about=""><dc:format>image/svg+xml</dc:format><dc:type
         rdf:resource="http://purl.org/dc/dcmitype/StillImage" /></cc:Work></rdf:RDF></metadata><defs
   id="defs27" /><sodipodi:namedview
   pagecolor="#ffffff"
   bordercolor="#666666"
   borderopacity="1"
   objecttolerance="10"
   gridtolerance="10"
   guidetolerance="10"
   inkscape:pageopacity="0"
   inkscape:pageshadow="2"
   inkscape:window-width="713"
   inkscape:window-height="543"
   id="namedview25"
   showgrid="false"
   inkscape:zoom="4.72"
   inkscape:cx="25"
   inkscape:cy="25"
   inkscape:window-x="0"
   inkscape:window-y="0"
   inkscape:window-maximized="0"
   inkscape:current-layer="Layer_1" />
<style
   type="text/css"
   id="style2">
	.st0{fill:#0072C6;}
	.st1{fill:#B8D432;}
	.st2{fill:#59B4D9;}
</style>
<path
   class="st0"
   d="M 0.8,0 C 0.3,0 0,0.3 0,0.8 v 10 c 0,0.5 0.3,0.8 0.8,0.8 h 5 c 0.5,0 0.8,-0.3 0.8,-0.8 V 6.7 h 36.7 v 4.2 c 0,0.5 0.3,0.8 1,0.8 h 4.8 c 0.5,0 0.8,-0.3 0.8,-0.8 v -5 -5 C 50,0.3 49.7,0 49.2,0 v 0 z"
   id="path4"
   inkscape:connector-curvature="0"
   style="fill:#0072c6" />
<path
   class="st0"
   d="m 49.2,50 c 0.5,0 0.8,-0.3 0.8,-0.8 v -9.8 c 0,-0.5 -0.3,-0.8 -0.8,-0.8 h -4.8 c -0.5,0 -0.8,0.3 -0.8,0.8 v 4 H 6.7 v -4.2 c 0,-0.5 -0.3,-0.8 -1,-0.8 H 0.8 c -0.5,0 -0.8,0.3 -0.8,1 v 9.8 C 0,49.7 0.3,50 0.8,50 Z"
   id="path6"
   inkscape:connector-curvature="0"
   style="fill:#0072c6" />
<g
   id="g10">
	<rect
   x="29"
   y="15.2"
   transform="matrix(0.848,-0.53,0.53,0.848,-8.6583,19.8107)"
   class="st0"
   width="2.5"
   height="19.700001"
   id="rect8"
   style="fill:#0072c6" />
</g>
<g
   id="g14">
	<rect
   x="10.2"
   y="23.799999"
   transform="matrix(0.5299,-0.848,0.848,0.5299,-11.7871,28.7355)"
   class="st0"
   width="19.700001"
   height="2.5"
   id="rect12"
   style="fill:#0072c6" />
</g>
<circle
   class="st1"
   cx="25"
   cy="16.700001"
   r="5.4000001"
   id="circle16"
   style="fill:#b8d432" />
<g
   id="g22">
	<circle
   class="st2"
   cx="14.6"
   cy="33.299999"
   r="5.4000001"
   id="circle18"
   style="fill:#59b4d9" />
	<circle
   class="st2"
   cx="35.400002"
   cy="33.299999"
   r="5.4000001"
   id="circle20"
   style="fill:#59b4d9" />
</g>
</svg>