<?xml version="1.0" encoding="UTF-8" standalone="no"?>
<!-- Generator: Adobe Illustrator 19.2.1, SVG Export Plug-In . SVG Version: 6.00 Build 0)  -->

<svg
   xmlns:dc="http://purl.org/dc/elements/1.1/"
   xmlns:cc="http://creativecommons.org/ns#"
   xmlns:rdf="http://www.w3.org/1999/02/22-rdf-syntax-ns#"
   xmlns:svg="http://www.w3.org/2000/svg"
   xmlns="http://www.w3.org/2000/svg"
   xmlns:sodipodi="http://sodipodi.sourceforge.net/DTD/sodipodi-0.dtd"
   xmlns:inkscape="http://www.inkscape.org/namespaces/inkscape"
   version="1.1"
   id="Layer_1"
   x="0px"
   y="0px"
   width="50"
   height="50"
   viewBox="0 0 50 50"
   enable-background="new 0 0 50 50"
   xml:space="preserve"
   sodipodi:docname="AzServiceBusQueues.svg"
   inkscape:version="0.92.4 (5da689c313, 2019-01-14)"><metadata
   id="metadata23"><rdf:RDF><cc:Work
       rdf:about=""><dc:format>image/svg+xml</dc:format><dc:type
         rdf:resource="http://purl.org/dc/dcmitype/StillImage" /></cc:Work></rdf:RDF></metadata><defs
   id="defs21" /><sodipodi:namedview
   pagecolor="#ffffff"
   bordercolor="#666666"
   borderopacity="1"
   objecttolerance="10"
   gridtolerance="10"
   guidetolerance="10"
   inkscape:pageopacity="0"
   inkscape:pageshadow="2"
   inkscape:window-width="713"
   inkscape:window-height="543"
   id="namedview19"
   showgrid="false"
   inkscape:zoom="4.72"
   inkscape:cx="25"
   inkscape:cy="25"
   inkscape:window-x="0"
   inkscape:window-y="0"
   inkscape:window-maximized="0"
   inkscape:current-layer="Layer_1" />
<path
   d="M 0.833,0 C 0.333,0 0,0.333 0,0.833 v 10 c 0,0.5 0.333,0.833 0.833,0.833 h 5 c 0.5,0 0.833,-0.333 0.833,-0.833 V 6.667 h 36.667 v 4.167 c 0,0.5 0.333,0.833 1,0.833 h 4.833 c 0.5,0 0.833,-0.333 0.833,-0.833 v -5 -5 C 50,0.333 49.667,0 49.167,0 v 0 z"
   id="path2"
   inkscape:connector-curvature="0"
   style="fill:#0072c6" />
<path
   d="M 49.167,50 C 49.667,50 50,49.667 50,49.167 v -9.833 c 0,-0.5 -0.333,-0.833 -0.833,-0.833 h -4.833 c -0.5,0 -0.833,0.333 -0.833,0.833 v 4 H 6.667 v -4.167 c 0,-0.5 -0.333,-0.833 -1,-0.833 H 0.833 c -0.5,0 -0.833,0.333 -0.833,1 v 9.833 C 0,49.667 0.333,50 0.833,50 Z"
   id="path4"
   inkscape:connector-curvature="0"
   style="fill:#0072c6" />
<path
   d="m 12.324,25.711 c -0.84,0.84 -1.958,1.303 -3.147,1.303 -1.189,0 -2.306,-0.463 -3.147,-1.303 L 0,19.681 V 31.939 H 18.354 V 19.681 Z"
   id="path6"
   inkscape:connector-curvature="0"
   style="fill:#59b4d9" />
<path
   d="m 9.177,26.119 c 0.95,0 1.842,-0.37 2.514,-1.041 l 6.663,-6.663 V 18.062 H 0 v 0.354 l 6.663,6.663 c 0.672,0.671 1.564,1.04 2.514,1.04 z"
   id="path8"
   inkscape:connector-curvature="0"
   style="fill:#59b4d9" />
<path
   d="m 43.97,25.711 c -0.84,0.84 -1.958,1.303 -3.147,1.303 -1.189,0 -2.306,-0.463 -3.147,-1.303 l -6.03,-6.03 V 31.939 H 50 V 19.681 Z"
   id="path10"
   inkscape:connector-curvature="0"
   style="fill:#59b4d9" />
<path
   d="m 40.823,26.119 c 0.95,0 1.842,-0.37 2.514,-1.041 L 50,18.415 V 18.062 H 31.646 v 0.354 l 6.663,6.663 c 0.672,0.671 1.564,1.04 2.514,1.04 z"
   id="path12"
   inkscape:connector-curvature="0"
   style="fill:#59b4d9" />
<rect
   x="25.813"
   y="23.778999"
   width="3.0840001"
   height="2.434"
   id="rect14"
   style="fill:#b8d432" />
<rect
   x="21.042"
   y="23.778999"
   width="3.2620001"
   height="2.434"
   id="rect16"
   style="fill:#b8d432" />
</svg>