<?xml version="1.0" encoding="UTF-8" standalone="no"?>
<!-- Generator: Adobe Illustrator 19.1.0, SVG Export Plug-In . SVG Version: 6.00 Build 0)  -->

<svg
   xmlns:dc="http://purl.org/dc/elements/1.1/"
   xmlns:cc="http://creativecommons.org/ns#"
   xmlns:rdf="http://www.w3.org/1999/02/22-rdf-syntax-ns#"
   xmlns:svg="http://www.w3.org/2000/svg"
   xmlns="http://www.w3.org/2000/svg"
   xmlns:sodipodi="http://sodipodi.sourceforge.net/DTD/sodipodi-0.dtd"
   xmlns:inkscape="http://www.inkscape.org/namespaces/inkscape"
   version="1.1"
   id="Layer_1"
   focusable="false"
   x="0px"
   y="0px"
   viewBox="-280 372 36.599998 49.900002"
   xml:space="preserve"
   sodipodi:docname="AzSecurityCenter.svg"
   width="36.599998"
   height="49.900002"
   inkscape:version="0.92.4 (5da689c313, 2019-01-14)"><metadata
   id="metadata13"><rdf:RDF><cc:Work
       rdf:about=""><dc:format>image/svg+xml</dc:format><dc:type
         rdf:resource="http://purl.org/dc/dcmitype/StillImage" /></cc:Work></rdf:RDF></metadata><defs
   id="defs11" /><sodipodi:namedview
   pagecolor="#ffffff"
   bordercolor="#666666"
   borderopacity="1"
   objecttolerance="10"
   gridtolerance="10"
   guidetolerance="10"
   inkscape:pageopacity="0"
   inkscape:pageshadow="2"
   inkscape:window-width="713"
   inkscape:window-height="543"
   id="namedview9"
   showgrid="false"
   inkscape:zoom="4.72"
   inkscape:cx="18"
   inkscape:cy="24.9"
   inkscape:window-x="0"
   inkscape:window-y="0"
   inkscape:window-maximized="0"
   inkscape:current-layer="Layer_1" />
<style
   type="text/css"
   id="style2">
	.st0{fill:#0078D7;}
	.st1{fill:#FFFFFF;}
</style>
<path
   class="st0"
   d="m -248.8,378 v 0 c -11,-1.2 -12.9,-6 -12.9,-6 0,0 -2.5,6.2 -18.3,6.2 v 25.6 c 0,3.1 1.7,6 4.1,8.5 v 0 c 5.4,5.7 14.2,9.6 14.2,9.6 0,0 18.3,-8 18.3,-18.1 v -25.6 c -2,0 -3.8,-0.1 -5.4,-0.2 z"
   id="path4"
   inkscape:connector-curvature="0"
   style="fill:#0078d7" />
<path
   class="st1"
   d="m -254.4,396.5 h -1.1 v -3.6 c 0,-1.7 -0.6,-3.3 -1.7,-4.4 v 0 c 0,0 -0.1,-0.1 -0.1,-0.1 -1.1,-1.2 -2.7,-1.9 -4.4,-1.9 -1.7,0 -3.3,0.8 -4.4,1.9 -1.1,1.2 -1.8,2.8 -1.8,4.6 v 3.6 h -1.1 c -0.4,0 -0.8,0.4 -0.8,0.8 v 7.2 0 2.2 c 0,0.4 0.4,0.8 0.8,0.8 h 14.5 c 0.4,0 0.8,-0.4 0.8,-0.8 v -9.4 c 0.1,-0.6 -0.3,-0.9 -0.7,-0.9 z m -4,0 h -5 v 0 h -1.5 v -3.6 c 0,-1 0.4,-1.9 1,-2.6 0.6,-0.6 1.4,-1 2.3,-1 0.9,0 1.7,0.4 2.3,1 0.1,0.2 0.3,0.3 0.4,0.5 v 0 c 0.4,0.6 0.6,1.3 0.6,2.1 -0.1,0 -0.1,3.6 -0.1,3.6 z"
   id="path6"
   inkscape:connector-curvature="0"
   style="fill:#ffffff" />
</svg>