<?xml version="1.0" encoding="UTF-8" standalone="no"?>
<!-- Generator: Adobe Illustrator 19.1.0, SVG Export Plug-In . SVG Version: 6.00 Build 0)  -->

<svg
   xmlns:dc="http://purl.org/dc/elements/1.1/"
   xmlns:cc="http://creativecommons.org/ns#"
   xmlns:rdf="http://www.w3.org/1999/02/22-rdf-syntax-ns#"
   xmlns:svg="http://www.w3.org/2000/svg"
   xmlns="http://www.w3.org/2000/svg"
   xmlns:sodipodi="http://sodipodi.sourceforge.net/DTD/sodipodi-0.dtd"
   xmlns:inkscape="http://www.inkscape.org/namespaces/inkscape"
   version="1.1"
   id="Layer_1"
   x="0px"
   y="0px"
   viewBox="-382 215 468.52722 324.20056"
   enable-background="new -382 215 500 500"
   xml:space="preserve"
   sodipodi:docname="AzSQLStretchDatabase.svg"
   width="468.52722"
   height="324.20056"
   inkscape:version="0.92.4 (5da689c313, 2019-01-14)"><metadata
   id="metadata25"><rdf:RDF><cc:Work
       rdf:about=""><dc:format>image/svg+xml</dc:format><dc:type
         rdf:resource="http://purl.org/dc/dcmitype/StillImage" /></cc:Work></rdf:RDF></metadata><defs
   id="defs23" /><sodipodi:namedview
   pagecolor="#ffffff"
   bordercolor="#666666"
   borderopacity="1"
   objecttolerance="10"
   gridtolerance="10"
   guidetolerance="10"
   inkscape:pageopacity="0"
   inkscape:pageshadow="2"
   inkscape:window-width="713"
   inkscape:window-height="543"
   id="namedview21"
   showgrid="false"
   inkscape:zoom="0.472"
   inkscape:cx="223"
   inkscape:cy="150.1"
   inkscape:window-x="0"
   inkscape:window-y="0"
   inkscape:window-maximized="0"
   inkscape:current-layer="Layer_1" />
<path
   d="M -259.9,517.10057 H 29.3 c 0,0 51.1,-0.7 56.4,-33.3 6.7,-41.3 -29.5,-44.9 -29.5,-44.9 0,0 39.7,-47.7 9.4,-97.3 -36.6,-59.9 -99.4,-26.9 -99.4,-26.9 0,0 -13.3,-125.2 -158,-95 -119.5,25 -98.7,155.9 -98.7,155.9 0,0 -70.1,-17.7 -76.6,58.2 -6.4,75.8 107.2,83.3 107.2,83.3 z"
   id="path2"
   inkscape:connector-curvature="0"
   style="fill:#dddddd" />
<path
   d="m -282,310.10057 v 0 h -100 v 192.7 c 0,19.8 44,36 99,36.2 v 0.2 h 0.2 c 0.2,0 0.8,-0.2 0.8,-0.2 v 0.2 h 0.2 c 55.1,0 99.8,-16.4 99.8,-36.3 v -192.8 z"
   id="path4"
   inkscape:connector-curvature="0"
   style="fill:#edb51d" />
<g
   id="g18"
   transform="translate(-27,-75.899429)">
	<polygon
   points="-76,426.2 0.4,485.4 -76,546.8 -76,507 -206,507 -206,464 -76,464 "
   id="polygon6"
   style="fill:#edb51d" />
	<g
   id="g16">
		<path
   enable-background="new    "
   d="m -354.7,386.3 v 192.3 c 0,20 44.7,36.2 99.8,36.2 V 386.3 Z"
   id="path8"
   inkscape:connector-curvature="0"
   style="opacity:0.3;fill:#ffffff" />
		<path
   d="m -155,386.3 c 0,20 -44.7,36.2 -99.8,36.2 -55.1,0 -99.8,-16.2 -99.8,-36.2 0,-20 44.7,-36.2 99.8,-36.2 55.1,0.1 99.8,16.3 99.8,36.2"
   id="path10"
   inkscape:connector-curvature="0"
   style="fill:#ffffff" />
		<path
   d="m -175.4,384.2 c 0,13.2 -35.6,23.9 -79.4,23.9 -43.9,0 -79.4,-10.7 -79.4,-23.9 0,-13.2 35.6,-23.9 79.4,-23.9 43.8,0.1 79.4,10.8 79.4,23.9"
   id="path12"
   inkscape:connector-curvature="0"
   style="fill:#7fba00" />
		<path
   d="m -192,398.8 c 10.4,-4 16.6,-9.1 16.6,-14.6 0,-13.2 -35.6,-23.9 -79.4,-23.9 -43.9,0 -79.4,10.7 -79.4,23.9 0,5.5 6.2,10.5 16.7,14.6 14.5,-5.6 37.2,-9.3 62.8,-9.3 25.4,0 48.1,3.7 62.7,9.3"
   id="path14"
   inkscape:connector-curvature="0"
   style="fill:#b8d432" />
	</g>
</g>
</svg>