<?xml version="1.0" encoding="UTF-8" standalone="no"?>
<!-- Generator: Adobe Illustrator 18.1.0, SVG Export Plug-In . SVG Version: 6.00 Build 0)  -->

<svg
   xmlns:dc="http://purl.org/dc/elements/1.1/"
   xmlns:cc="http://creativecommons.org/ns#"
   xmlns:rdf="http://www.w3.org/1999/02/22-rdf-syntax-ns#"
   xmlns:svg="http://www.w3.org/2000/svg"
   xmlns="http://www.w3.org/2000/svg"
   xmlns:sodipodi="http://sodipodi.sourceforge.net/DTD/sodipodi-0.dtd"
   xmlns:inkscape="http://www.inkscape.org/namespaces/inkscape"
   version="1.0"
   x="0px"
   y="0px"
   viewBox="0 0 29.299999 38.299999"
   enable-background="new 0 0 152 117.5"
   xml:space="preserve"
   id="svg56"
   sodipodi:docname="AzSQLDataSync.svg"
   width="29.299999"
   height="38.299999"
   inkscape:version="0.92.4 (5da689c313, 2019-01-14)"><metadata
   id="metadata62"><rdf:RDF><cc:Work
       rdf:about=""><dc:format>image/svg+xml</dc:format><dc:type
         rdf:resource="http://purl.org/dc/dcmitype/StillImage" /></cc:Work></rdf:RDF></metadata><defs
   id="defs60" /><sodipodi:namedview
   pagecolor="#ffffff"
   bordercolor="#666666"
   borderopacity="1"
   objecttolerance="10"
   gridtolerance="10"
   guidetolerance="10"
   inkscape:pageopacity="0"
   inkscape:pageshadow="2"
   inkscape:window-width="713"
   inkscape:window-height="543"
   id="namedview58"
   showgrid="false"
   inkscape:zoom="2.0085106"
   inkscape:cx="14.6"
   inkscape:cy="19.15"
   inkscape:window-x="0"
   inkscape:window-y="0"
   inkscape:window-maximized="0"
   inkscape:current-layer="svg56" />
<g
   id="Layer_1"
   transform="translate(-61.4,-39.6)">
	<g
   id="Azure">
	</g>
	<g
   id="BizTalk_Services"
   transform="translate(37.3575,-2500.2)">
	</g>
	<g
   id="Key_Vault">
	</g>
	<g
   id="Mobile_Engagement">
	</g>
	<g
   id="Office_subscription">
		<g
   id="Office_subscription_1_">
		</g>
	</g>
</g>
<g
   id="paths"
   transform="translate(-61.4,-39.6)">
	<g
   id="Access_control">
	</g>
	<g
   id="Azure_active_directory">
	</g>
	<g
   id="API_Management">
	</g>
	<g
   id="Azure_automation">
	</g>
	<g
   id="Azure_SQL_database">
	</g>
	<g
   id="Azure_subscription">
	</g>
	<g
   id="Backup_service">
	</g>
	<g
   id="Bitbucket_code_source">
	</g>
	<g
   id="Azure_cache">
	</g>
	<g
   id="Content_delivery_network__x28_CDN_x29_">
	</g>
	<g
   id="Cloud_service">
	</g>
	<g
   id="CodePlex">
	</g>
	<g
   id="Dropbox_code_source">
	</g>
	<g
   id="Express_route">
	</g>
	<g
   id="Git_repository">
	</g>
	<g
   id="GitHub_code">
	</g>
	<g
   id="HD_Insight">
	</g>
	<g
   id="Health_monitoring">
	</g>
	<g
   id="Healthy">
	</g>
	<g
   id="BizTalk_hybrid_connection">
	</g>
	<g
   id="Hybrid_connection_manager_for_BizTalk_hybrid_connection">
	</g>
	<g
   id="Hyper-V_recovery_manager">
	</g>
	<g
   id="Machine_learning">
	</g>
	<g
   id="Media_services">
	</g>
	<g
   id="Microsoft_account">
	</g>
	<g
   id="Mobile_services">
	</g>
	<g
   id="Multi-factor_authentication">
	</g>
	<g
   id="MySQL_database">
	</g>
	<g
   id="Notification_hub">
	</g>
	<g
   id="Notification_topic">
	</g>
	<g
   id="Cloud_Office_365">
	</g>
	<g
   id="Office_365">
	</g>
	<g
   id="OS_image">
	</g>
	<g
   id="Remote_app">
	</g>
	<g
   id="Task_scheduler">
	</g>
	<g
   id="Azure_SDK">
	</g>
	<g
   id="Service_bus">
	</g>
	<g
   id="Service_bus_queue">
	</g>
	<g
   id="Service_bus_relay">
	</g>
	<g
   id="Service_bus_topic">
	</g>
	<g
   id="Service_endpoint">
	</g>
	<g
   id="Custom_create">
	</g>
	<g
   id="SQL_data_sync">
		<path
   d="m 76,39.6 c -8.1,0 -14.6,2.7 -14.6,5.7 v 12 8.8 5.7 c 0,2.7 5.3,5.6 12.3,6.1 h 4.7 c 7,-0.5 12.3,-2.9 12.3,-5.6 V 45.4 c 0,-3 -6.6,-5.8 -14.7,-5.8 z m 0,2 c 5.8,0 10.4,1.4 10.4,3.1 0,1.7 -4.7,3.1 -10.4,3.1 -5.8,0 -10.4,-1.4 -10.4,-3.1 0,-1.7 4.6,-3.1 10.4,-3.1 z m 0.3,28.3 c -4.5,0 -8.3,-3.7 -8.3,-8.3 0,-0.3 0,-0.5 0,-0.8 h -3.8 l 5.3,-5.4 4.4,5.4 h -3.6 c 0,0.3 0,0.5 0,0.8 0,3.2 2.6,5.9 5.9,5.9 1.1,0 2.1,-0.3 3,-0.8 l 1.5,1.9 c -1.3,0.9 -2.8,1.3 -4.4,1.3 z M 82.4,67.8 78,62.4 h 4.1 c 0,-0.2 0.1,-0.5 0.1,-0.7 0,-3.2 -2.6,-5.9 -5.9,-5.9 -1,0 -2,0.3 -2.8,0.7 L 72,54.6 c 1.3,-0.8 2.7,-1.2 4.3,-1.2 4.5,0 8.3,3.7 8.3,8.3 0,0.2 0,0.5 0,0.7 h 3.3 z"
   id="path51"
   inkscape:connector-curvature="0"
   style="fill:#0078d7" />
	</g>
</g>
<g
   id="Layer_57"
   transform="translate(-61.4,-39.6)">
</g>
</svg>