<?xml version="1.0" encoding="UTF-8" standalone="no"?>
<!-- Generator: Adobe Illustrator 17.0.1, SVG Export Plug-In . SVG Version: 6.00 Build 0)  -->

<svg
   xmlns:dc="http://purl.org/dc/elements/1.1/"
   xmlns:cc="http://creativecommons.org/ns#"
   xmlns:rdf="http://www.w3.org/1999/02/22-rdf-syntax-ns#"
   xmlns:svg="http://www.w3.org/2000/svg"
   xmlns="http://www.w3.org/2000/svg"
   xmlns:sodipodi="http://sodipodi.sourceforge.net/DTD/sodipodi-0.dtd"
   xmlns:inkscape="http://www.inkscape.org/namespaces/inkscape"
   version="1.1"
   id="Layer_1"
   x="0px"
   y="0px"
   width="43.334"
   height="50"
   viewBox="0 0 43.334 50"
   enable-background="new 0 0 50 50"
   xml:space="preserve"
   sodipodi:docname="AzStoreMarketplaceColor.svg"
   inkscape:version="0.92.4 (5da689c313, 2019-01-14)"><metadata
   id="metadata19"><rdf:RDF><cc:Work
       rdf:about=""><dc:format>image/svg+xml</dc:format><dc:type
         rdf:resource="http://purl.org/dc/dcmitype/StillImage" /></cc:Work></rdf:RDF></metadata><defs
   id="defs17" /><sodipodi:namedview
   pagecolor="#ffffff"
   bordercolor="#666666"
   borderopacity="1"
   objecttolerance="10"
   gridtolerance="10"
   guidetolerance="10"
   inkscape:pageopacity="0"
   inkscape:pageshadow="2"
   inkscape:window-width="713"
   inkscape:window-height="543"
   id="namedview15"
   showgrid="false"
   inkscape:zoom="4.72"
   inkscape:cx="22"
   inkscape:cy="25"
   inkscape:window-x="0"
   inkscape:window-y="0"
   inkscape:window-maximized="0"
   inkscape:current-layer="Layer_1" />
<polygon
   points="45.222,12.364 42.699,12.364 42.699,12.364 39.667,12.364 39.667,12.364 4.111,12.364 3,47.105 39.667,50 39.667,50 42.699,47.664 46.334,44.864 46.332,44.863 "
   id="polygon2"
   style="fill:#3999c6"
   transform="translate(-3)" />
<polygon
   points="39.667,50 42.699,44.345 42.699,12.364 39.667,12.364 "
   id="polygon4"
   style="opacity:0.3;fill:#ffffff"
   transform="translate(-3)" />
<polygon
   points="39.667,50 42.699,47.664 46.334,44.864 42.722,44.302 42.699,44.345 "
   id="polygon6"
   style="opacity:0.2;fill:#1e1e1e"
   transform="translate(-3)" />
<path
   d="m 30.037,34.209 c 0,-1.552 -1.246,-2.81 -2.785,-2.81 -0.116,0 -0.23,0.009 -0.34,0.024 0.17,-0.631 0.264,-1.295 0.264,-1.981 0,-4.137 -3.326,-7.491 -7.428,-7.491 -3.277,0 -6.056,2.14 -7.043,5.111 -0.52,-0.183 -1.076,-0.286 -1.658,-0.286 -2.806,0 -5.077,2.293 -5.077,5.121 0,2.83 2.271,5.123 5.077,5.123 0,0 0.005,-0.002 0.007,-0.002 v 0.002 h 16.424 l -0.003,-0.014 c 1.433,-0.113 2.562,-1.32 2.562,-2.797"
   id="path8"
   inkscape:connector-curvature="0"
   style="fill:#ffffff" />
<path
   d="m 20.406,6.76 c 0,-2.451 2.144,-4.446 4.779,-4.446 2.635,0 4.777,1.995 4.777,4.446 v 5.604 h 2.296 V 6.76 C 32.258,3.032 29.085,0 25.185,0 21.284,0 18.112,3.032 18.112,6.76 v 5.604 h 2.294 z"
   id="path10"
   inkscape:connector-curvature="0"
   style="fill:#a0a1a2" />
<path
   d="m 13.369,6.76 c 0,-2.451 2.144,-4.446 4.779,-4.446 2.635,0 4.779,1.995 4.779,4.446 v 5.604 h 2.294 V 6.76 C 25.221,3.032 22.048,0 18.148,0 c -3.9,0 -7.073,3.032 -7.073,6.76 v 5.604 h 2.294 z"
   id="path12"
   inkscape:connector-curvature="0"
   style="fill:#7a7a7a" />
</svg>