<?xml version="1.0" encoding="UTF-8" standalone="no"?>
<!-- Generator: Adobe Illustrator 18.1.0, SVG Export Plug-In . SVG Version: 6.00 Build 0)  -->

<svg
   xmlns:dc="http://purl.org/dc/elements/1.1/"
   xmlns:cc="http://creativecommons.org/ns#"
   xmlns:rdf="http://www.w3.org/1999/02/22-rdf-syntax-ns#"
   xmlns:svg="http://www.w3.org/2000/svg"
   xmlns="http://www.w3.org/2000/svg"
   xmlns:sodipodi="http://sodipodi.sourceforge.net/DTD/sodipodi-0.dtd"
   xmlns:inkscape="http://www.inkscape.org/namespaces/inkscape"
   version="1.0"
   x="0px"
   y="0px"
   viewBox="0 0 52.599998 40.599998"
   enable-background="new 0 0 152 117.5"
   xml:space="preserve"
   id="svg75"
   sodipodi:docname="AzStreamAnalytics.svg"
   width="52.599998"
   height="40.599998"
   inkscape:version="0.92.4 (5da689c313, 2019-01-14)"><metadata
   id="metadata81"><rdf:RDF><cc:Work
       rdf:about=""><dc:format>image/svg+xml</dc:format><dc:type
         rdf:resource="http://purl.org/dc/dcmitype/StillImage" /></cc:Work></rdf:RDF></metadata><defs
   id="defs79" /><sodipodi:namedview
   pagecolor="#ffffff"
   bordercolor="#666666"
   borderopacity="1"
   objecttolerance="10"
   gridtolerance="10"
   guidetolerance="10"
   inkscape:pageopacity="0"
   inkscape:pageshadow="2"
   inkscape:window-width="713"
   inkscape:window-height="543"
   id="namedview77"
   showgrid="false"
   inkscape:zoom="2.0085106"
   inkscape:cx="30.9"
   inkscape:cy="12.65"
   inkscape:window-x="0"
   inkscape:window-y="0"
   inkscape:window-maximized="0"
   inkscape:current-layer="svg75" />
<g
   id="Layer_1"
   transform="translate(-45.1,-30.8)">
	<g
   id="Azure">
	</g>
	<g
   id="BizTalk_Services"
   transform="translate(37.3575,-2500.2)">
	</g>
	<g
   id="Key_Vault">
	</g>
	<g
   id="Mobile_Engagement">
	</g>
	<g
   id="Office_subscription">
		<g
   id="Office_subscription_1_">
		</g>
	</g>
	<g
   id="g18">
		<g
   id="g16">
			<path
   d="m 90.6,58.4 1.4,-3.2 5.7,-2 v -4.6 l -0.6,-0.2 -5,-1.7 -1.4,-3.2 2.6,-5.4 v 0 l -3.2,-3.2 -0.7,0.4 -4.7,2.4 -3.2,-1.4 -2.1,-5.5 h -4.7 l -0.2,0.6 -1.7,4.9 -3.2,1.4 -5.5,-2.4 -3.2,3.2 0.3,0.6 1.5,2.8 c 2.6,-1.5 5.4,-2.1 8.4,-2.1 4.1,0.2 7.9,1.7 10.8,4.4 0.6,0.5 1.4,0.9 2,1.7 0.3,0.3 0.6,0.8 0.8,1.2 2,3.5 1.2,7.9 -2.1,10.5 -2.4,2 -5.8,2.3 -8.4,1.2 -0.3,-0.2 -0.5,-0.2 -0.6,-0.3 v 0 0 C 73,58.2 72.3,57.7 71.8,57.2 71.6,57.2 71.5,57 71.2,57 c -0.6,0 -1.4,0.3 -1.8,0.8 L 69.2,58 v 0 c -2,2 -4.3,3.5 -6.7,4.3 l -1.6,1.7 3.1,3.1 0.2,0.2 0.6,-0.3 4.7,-2.4 3.2,1.3 1.8,5.5 h 4.7 l 0.2,-0.6 1.7,-4.9 3.2,-1.4 5.5,2.4 3.2,-3.2 V 63 Z"
   id="path8"
   inkscape:connector-curvature="0"
   style="fill:#006fd4" />
			<path
   d="m 62.4,50.3 v 0 0 c -3.6,3.8 -9.3,3.8 -12.8,-0.2 -0.3,-0.5 -1.2,-0.5 -1.5,0 -0.2,0.2 -0.3,0.5 -0.3,0.8 0,0.3 0.2,0.6 0.3,0.8 4.3,4.7 11.3,4.9 15.7,0.3 v -0.2 0 c 3.6,-3.6 9.2,-3.6 12.6,0.3 0.5,0.5 1.2,0.5 1.5,0 0.2,-0.2 0.3,-0.5 0.3,-0.8 C 78.2,51 78,50.7 77.9,50.5 73.8,45.8 66.8,45.7 62.4,50.3 Z"
   id="path10"
   inkscape:connector-curvature="0"
   style="fill:#006fd4" />
			<path
   d="m 70.2,52.2 c -2,0 -3.6,0.6 -5,2.1 l -0.2,0.2 -0.2,0.2 c -2.4,2.6 -5.8,4 -9.2,3.8 -3.5,0 -6.6,-1.7 -9,-4.3 -0.5,-0.5 -1.2,-0.5 -1.5,0 0,0.2 0,0.5 0,0.8 0,0.3 0.2,0.6 0.3,0.8 2.8,3.1 6.5,4.9 10.5,4.9 4,0.2 7.6,-1.5 10.7,-4.6 l 0.2,-0.2 0.2,-0.2 c 0.9,-0.9 2.1,-1.5 3.5,-1.5 1.4,0 2.4,0.6 3.5,1.7 0.5,0.5 1.2,0.5 1.5,0 0.2,-0.2 0.3,-0.5 0.3,-0.8 0,-0.3 -0.2,-0.6 -0.3,-0.8 C 74,53 72.2,52.2 70.2,52.2 Z"
   id="path12"
   inkscape:connector-curvature="0"
   style="fill:#006fd4" />
			<path
   d="m 80.9,46.6 c -2.8,-3.1 -6.6,-4.9 -10.5,-4.9 -3.9,0 -7.6,1.5 -10.7,4.6 l -0.2,0.2 -0.2,0.2 c -0.9,0.9 -2.1,1.5 -3.5,1.5 -1.4,0 -2.3,-0.7 -3.4,-1.7 -0.5,-0.5 -1.2,-0.5 -1.5,0 -0.2,0.2 -0.3,0.5 -0.3,0.8 0,0.3 0.2,0.6 0.3,0.8 1.4,1.5 3.1,2.3 4.9,2.3 2,0 3.6,-0.6 5,-2.1 L 61,48.1 c 0,0 0.2,0 0.2,-0.2 2.4,-2.6 5.8,-4 9.2,-4 3.5,0 6.6,1.7 8.8,4.3 0.5,0.5 1.2,0.5 1.5,0 0.2,-0.2 0.3,-0.5 0.3,-0.8 0.2,-0.3 0,-0.6 -0.1,-0.8 z"
   id="path14"
   inkscape:connector-curvature="0"
   style="fill:#006fd4" />
		</g>
	</g>
</g>
<g
   id="paths"
   transform="translate(-45.1,-30.8)">
	<g
   id="Access_control">
	</g>
	<g
   id="Azure_active_directory">
	</g>
	<g
   id="API_Management">
	</g>
	<g
   id="Azure_automation">
	</g>
	<g
   id="Azure_SQL_database">
	</g>
	<g
   id="Azure_subscription">
	</g>
	<g
   id="Backup_service">
	</g>
	<g
   id="Bitbucket_code_source">
	</g>
	<g
   id="Azure_cache">
	</g>
	<g
   id="Content_delivery_network__x28_CDN_x29_">
	</g>
	<g
   id="Cloud_service">
	</g>
	<g
   id="CodePlex">
	</g>
	<g
   id="Dropbox_code_source">
	</g>
	<g
   id="Express_route">
	</g>
	<g
   id="Git_repository">
	</g>
	<g
   id="GitHub_code">
	</g>
	<g
   id="HD_Insight">
	</g>
	<g
   id="Health_monitoring">
	</g>
	<g
   id="Healthy">
	</g>
	<g
   id="BizTalk_hybrid_connection">
	</g>
	<g
   id="Hybrid_connection_manager_for_BizTalk_hybrid_connection">
	</g>
	<g
   id="Hyper-V_recovery_manager">
	</g>
	<g
   id="Machine_learning">
	</g>
	<g
   id="Media_services">
	</g>
	<g
   id="Microsoft_account">
	</g>
	<g
   id="Mobile_services">
	</g>
	<g
   id="Multi-factor_authentication">
	</g>
	<g
   id="MySQL_database">
	</g>
	<g
   id="Notification_hub">
	</g>
	<g
   id="Notification_topic">
	</g>
	<g
   id="Cloud_Office_365">
	</g>
	<g
   id="Office_365">
	</g>
	<g
   id="OS_image">
	</g>
	<g
   id="Remote_app">
	</g>
	<g
   id="Task_scheduler">
	</g>
	<g
   id="Azure_SDK">
	</g>
	<g
   id="Service_bus">
	</g>
	<g
   id="Service_bus_queue">
	</g>
	<g
   id="Service_bus_relay">
	</g>
	<g
   id="Service_bus_topic">
	</g>
	<g
   id="Service_endpoint">
	</g>
	<g
   id="Custom_create">
	</g>
	<g
   id="SQL_data_sync">
	</g>
	<g
   id="SQL_reporting">
	</g>
	<g
   id="Startup_task">
	</g>
	<g
   id="Windows_Azure_storage">
	</g>
	<g
   id="Storage_blob">
	</g>
	<g
   id="Storage_table">
	</g>
	<g
   id="Storage_queue">
	</g>
	<g
   id="StorSimple">
	</g>
</g>
<g
   id="Layer_57"
   transform="translate(-45.1,-30.8)">
</g>
<g
   id="Ibiza_Symbols"
   transform="translate(-45.1,-30.8)">
	<g
   id="SQL_Database_Premium">
	</g>
</g>
</svg>