<?xml version="1.0" encoding="UTF-8" standalone="no"?>
<!-- Generator: Adobe Illustrator 19.1.0, SVG Export Plug-In . SVG Version: 6.00 Build 0)  -->

<svg
   xmlns:dc="http://purl.org/dc/elements/1.1/"
   xmlns:cc="http://creativecommons.org/ns#"
   xmlns:rdf="http://www.w3.org/1999/02/22-rdf-syntax-ns#"
   xmlns:svg="http://www.w3.org/2000/svg"
   xmlns="http://www.w3.org/2000/svg"
   xmlns:sodipodi="http://sodipodi.sourceforge.net/DTD/sodipodi-0.dtd"
   xmlns:inkscape="http://www.inkscape.org/namespaces/inkscape"
   version="1.1"
   id="Layer_1"
   x="0px"
   y="0px"
   width="50.000523"
   height="44.821999"
   viewBox="0 0 50.000523 44.821999"
   enable-background="new 0 0 50 50"
   xml:space="preserve"
   sodipodi:docname="AzStorSimpleColor.svg"
   inkscape:version="0.92.4 (5da689c313, 2019-01-14)"><metadata
   id="metadata19"><rdf:RDF><cc:Work
       rdf:about=""><dc:format>image/svg+xml</dc:format><dc:type
         rdf:resource="http://purl.org/dc/dcmitype/StillImage" /></cc:Work></rdf:RDF></metadata><defs
   id="defs17" /><sodipodi:namedview
   pagecolor="#ffffff"
   bordercolor="#666666"
   borderopacity="1"
   objecttolerance="10"
   gridtolerance="10"
   guidetolerance="10"
   inkscape:pageopacity="0"
   inkscape:pageshadow="2"
   inkscape:window-width="713"
   inkscape:window-height="543"
   id="namedview15"
   showgrid="false"
   inkscape:zoom="4.72"
   inkscape:cx="25"
   inkscape:cy="22.411"
   inkscape:window-x="0"
   inkscape:window-y="0"
   inkscape:window-maximized="0"
   inkscape:current-layer="Layer_1" />
<path
   d="m 44.352,20.06 c -0.313,0 -0.47,0 -0.784,0 0.313,-1.41 0.627,-2.821 0.627,-4.231 C 44.195,7.053 37.926,0 29.15,0 22.254,0 16.299,4.545 14.262,10.814 13.165,10.501 11.911,10.187 10.658,10.187 4.858,10.187 0,15.202 0,21.157 c 0,6.269 4.388,10.5 10.343,10.5 h 4.231 v -2.664 h 11.911 v 5.328 H 38.24 v -2.664 h 6.112 c 3.291,0 5.642,-2.351 5.642,-5.642 C 50.15,22.724 47.486,20.06 44.352,20.06 Z M 26.329,26.329 H 14.575 v -2.508 h 11.754 z m 0,-5.172 H 14.575 v -2.508 h 11.754 z"
   id="path2"
   inkscape:connector-curvature="0"
   style="fill:#59b4d9" />
<rect
   x="26.486"
   y="36.986"
   width="11.754"
   height="2.5079999"
   id="rect4"
   style="fill:#59b4d9" />
<rect
   x="26.486"
   y="42.313999"
   width="11.754"
   height="2.5079999"
   id="rect6"
   style="fill:#59b4d9" />
<g
   id="g12"
   transform="translate(0,-2.589)">
	<path
   d="m 19.594,16.391 c 1.2,-0.3 2.4,-0.3 3.5,-0.2 C 23.593,10.798 27.846,5.399 32.639,2.995 31.529,2.738 30.366,2.59 29.15,2.59 22.254,2.59 16.299,7.135 14.262,13.404 13.165,13.091 11.911,12.777 10.658,12.777 4.858,12.776 0,17.791 0,23.746 c 0,6.269 4.388,10.5 10.343,10.5 h 4.212 c -1.378,-1.392 -2.366,-3.077 -2.861,-5.156 -1.3,-5.699 2.2,-11.399 7.9,-12.699 z"
   id="path8"
   inkscape:connector-curvature="0"
   style="opacity:0.2;fill:#ffffff" />
	<path
   enable-background="new    "
   d="m 32.656,2.985 c -0.006,0.003 -0.011,0.006 -0.017,0.009 0.003,10e-4 0.007,0.002 0.01,0.003 z"
   id="path10"
   inkscape:connector-curvature="0"
   style="opacity:0.2;fill:#ffffff" />
</g>
</svg>