<?xml version="1.0" encoding="UTF-8" standalone="no"?>
<!-- Generator: Adobe Illustrator 21.0.0, SVG Export Plug-In . SVG Version: 6.00 Build 0)  -->

<svg
   xmlns:dc="http://purl.org/dc/elements/1.1/"
   xmlns:cc="http://creativecommons.org/ns#"
   xmlns:rdf="http://www.w3.org/1999/02/22-rdf-syntax-ns#"
   xmlns:svg="http://www.w3.org/2000/svg"
   xmlns="http://www.w3.org/2000/svg"
   xmlns:sodipodi="http://sodipodi.sourceforge.net/DTD/sodipodi-0.dtd"
   xmlns:inkscape="http://www.inkscape.org/namespaces/inkscape"
   version="1.1"
   id="Layer_1"
   x="0px"
   y="0px"
   width="49.5"
   height="50"
   viewBox="0 0 49.5 50"
   enable-background="new 0 0 50 50"
   xml:space="preserve"
   sodipodi:docname="AzStack.svg"
   inkscape:version="0.92.4 (5da689c313, 2019-01-14)"><metadata
   id="metadata13"><rdf:RDF><cc:Work
       rdf:about=""><dc:format>image/svg+xml</dc:format><dc:type
         rdf:resource="http://purl.org/dc/dcmitype/StillImage" /></cc:Work></rdf:RDF></metadata><defs
   id="defs11" /><sodipodi:namedview
   pagecolor="#ffffff"
   bordercolor="#666666"
   borderopacity="1"
   objecttolerance="10"
   gridtolerance="10"
   guidetolerance="10"
   inkscape:pageopacity="0"
   inkscape:pageshadow="2"
   inkscape:window-width="713"
   inkscape:window-height="543"
   id="namedview9"
   showgrid="false"
   inkscape:zoom="4.72"
   inkscape:cx="24.5"
   inkscape:cy="25"
   inkscape:window-x="0"
   inkscape:window-y="0"
   inkscape:window-maximized="0"
   inkscape:current-layer="Layer_1" />
<g
   id="g6"
   transform="translate(-0.5)">
	<g
   id="g4">
		<path
   d="m 33.128,32.443 c -0.151,0 -0.624,0.015 -0.774,0.023 -1.443,-3.163 -4.626,-5.366 -8.33,-5.366 -4.54,0 -8.298,3.306 -9.024,7.64 -0.046,-0.001 -0.09,-0.007 -0.136,-0.007 -2.824,0 -5.681,1.987 -7.002,4.267 h 12.311 c 0.718,-1.332 2.11,-2.25 3.727,-2.25 2.344,0 4.25,1.906 4.25,4.25 0,2.344 -1.907,4.25 -4.25,4.25 -1.617,0 -3.008,-0.918 -3.727,-2.25 H 7.197 c 0.047,0.245 0.106,0.53 0.188,0.893 C 8.193,47.487 11.171,50 14.864,50 h 18.32 l 0.326,-0.019 c 4.67,-0.201 8.397,-4.04 8.397,-8.759 -10e-4,-4.849 -3.931,-8.779 -8.779,-8.779 z M 49,0 H 26.995 C 26.995,0 26,0.004 26,1.002 v 24.279 c 1.051,0.182 2.057,0.514 3,0.976 V 24 h 4 v 5.544 c 0.223,0.294 0.444,0.59 0.638,0.907 0.815,0.031 1.603,0.162 2.362,0.365 V 24 h 4 v 7 H 36.629 C 40.907,32.43 44,36.469 44,41.222 44,42.939 43.593,44.559 42.88,46 H 49 c 0,0 1,-0.043 1,-1 V 1 C 50,0.004 49,0 49,0 Z M 33,21 h -4 v -7 h 4 z M 33,11 H 29 V 4 h 4 z m 7,10 h -4 v -7 h 4 z M 40,11 H 36 V 4 h 4 z m 7,20 h -4 v -7 h 4 z m 0,-10 h -4 v -7 h 4 z M 47,11 H 43 V 4 h 4 z M 23.9,44 c 1.657,0 3,-1.343 3,-3 0,-1.657 -1.343,-3 -3,-3 -1.304,0 -2.403,0.837 -2.816,2 H 6.961 C 4.525,39.873 2.617,37.733 2.617,35.297 c 0,-2.529 2.057,-4.586 4.567,-4.587 l 0.054,0.003 c 0.054,0.004 0.108,0.007 0.162,0.009 l 1.467,0.062 0.572,-1.352 c 0.942,-2.225 3.111,-3.662 5.526,-3.662 1.212,0 2.259,0.375 3.181,0.993 0.667,-0.413 1.383,-0.752 2.133,-1.018 -1.418,-1.295 -3.228,-2.093 -5.314,-2.093 -3.36,0 -6.243,2.042 -7.476,4.954 C 7.393,28.602 7.3,28.592 7.203,28.592 c -3.702,0 -6.703,3.001 -6.703,6.703 0,3.583 2.813,6.519 6.351,6.703 H 21.084 C 21.497,43.163 22.596,44 23.9,44 Z"
   id="path2"
   inkscape:connector-curvature="0"
   style="fill:#0072c6" />
	</g>
</g>
</svg>