<?xml version="1.0" encoding="UTF-8" standalone="no"?>
<!-- Generator: Adobe Illustrator 17.1.0, SVG Export Plug-In . SVG Version: 6.00 Build 0)  -->

<svg
   xmlns:dc="http://purl.org/dc/elements/1.1/"
   xmlns:cc="http://creativecommons.org/ns#"
   xmlns:rdf="http://www.w3.org/1999/02/22-rdf-syntax-ns#"
   xmlns:svg="http://www.w3.org/2000/svg"
   xmlns="http://www.w3.org/2000/svg"
   xmlns:sodipodi="http://sodipodi.sourceforge.net/DTD/sodipodi-0.dtd"
   xmlns:inkscape="http://www.inkscape.org/namespaces/inkscape"
   version="1.1"
   id="Layer_1"
   x="0px"
   y="0px"
   width="50"
   height="38.799999"
   viewBox="0 0 50 38.799999"
   enable-background="new 0 0 50 50"
   xml:space="preserve"
   sodipodi:docname="AzStreamAnalyticsColor.svg"
   inkscape:version="0.92.4 (5da689c313, 2019-01-14)"><metadata
   id="metadata21"><rdf:RDF><cc:Work
       rdf:about=""><dc:format>image/svg+xml</dc:format><dc:type
         rdf:resource="http://purl.org/dc/dcmitype/StillImage" /></cc:Work></rdf:RDF></metadata><defs
   id="defs19" /><sodipodi:namedview
   pagecolor="#ffffff"
   bordercolor="#666666"
   borderopacity="1"
   objecttolerance="10"
   gridtolerance="10"
   guidetolerance="10"
   inkscape:pageopacity="0"
   inkscape:pageshadow="2"
   inkscape:window-width="713"
   inkscape:window-height="543"
   id="namedview17"
   showgrid="false"
   inkscape:zoom="4.72"
   inkscape:cx="25"
   inkscape:cy="19.5"
   inkscape:window-x="0"
   inkscape:window-y="0"
   inkscape:window-maximized="0"
   inkscape:current-layer="Layer_1" />
<path
   d="m 43.3,26.3 1.2,-3.1 5.5,-1.9 v -4.4 l -0.6,-0.2 -4.9,-1.4 -1.2,-3.1 2.5,-5.1 v 0 L 42.7,4 42.1,4.3 37.6,6.6 34.4,5.3 32.4,0 h -4.5 l -0.2,0.6 -1.5,4.7 -3.1,1.2 -5.3,-2.3 -3.2,3.1 0.3,0.6 1.4,2.6 c 2.5,-1.4 5.1,-2 7.9,-2 3.9,0.2 7.5,1.6 10.3,4.2 0.6,0.5 1.2,0.9 1.9,1.6 0.3,0.3 0.6,0.8 0.8,1.1 1.9,3.3 1.1,7.5 -2,10 -2.3,1.9 -5.5,2.2 -7.9,1.1 -0.3,-0.2 -0.5,-0.2 -0.6,-0.3 v 0 0 C 26.1,25.9 25.5,25.4 25,25 c -0.2,0 -0.3,-0.2 -0.6,-0.2 -0.6,0 -1.2,0.3 -1.7,0.8 l -0.2,0.2 v 0 c -1.9,1.9 -4,3.3 -6.4,4 l -0.9,1.9 3,3 0.2,0.2 0.6,-0.3 4.5,-2.3 3.1,1.2 1.7,5.3 h 4.5 l 0.2,-0.6 1.6,-4.7 3.1,-1.2 5.3,2.3 3,-3.3 -0.3,-0.6 z"
   id="path2"
   inkscape:connector-curvature="0"
   style="fill:#7a7a7a" />
<path
   d="m 16.5,18.5 v 0 0 C 13.1,22.1 7.6,22.1 4.4,18.3 4.1,17.8 3.3,17.8 3,18.3 c -0.2,0.2 -0.3,0.5 -0.3,0.8 0,0.3 0.2,0.6 0.3,0.8 4,4.5 10.7,4.6 15,0.2 v 0 0 c 3.4,-3.4 8.7,-3.5 12,0.3 0.5,0.5 1.1,0.5 1.4,0 0.2,-0.2 0.3,-0.5 0.3,-0.8 0,-0.3 -0.2,-0.6 -0.3,-0.8 -4,-4.5 -10.7,-4.6 -14.9,-0.3 z"
   id="path4"
   inkscape:connector-curvature="0"
   style="fill:#48c8ef" />
<path
   d="m 24,20.4 c -1.9,0 -3.4,0.6 -4.8,2 l -0.2,0.2 -0.2,0.2 c -2.3,2.5 -5.5,3.7 -8.7,3.6 -3.3,0 -6.2,-1.6 -8.6,-4 C 1,21.9 0.4,21.9 0.1,22.4 0,22.4 0,22.6 0,22.9 c 0,0.3 0.3,0.8 0.5,0.9 2.6,3 6.2,4.7 10,4.7 3.7,0.2 7.3,-1.4 10.1,-4.4 l 0.2,-0.2 0.2,-0.2 c 0.9,-0.9 2,-1.4 3.3,-1.4 1.2,0 2.3,0.6 3.3,1.6 0.5,0.5 1.1,0.5 1.4,0 0.2,-0.2 0.3,-0.5 0.3,-0.8 0,-0.3 -0.2,-0.6 -0.3,-0.8 -1.4,-1.1 -3.1,-1.9 -5,-1.9 z"
   id="path6"
   inkscape:connector-curvature="0"
   style="fill:#00abec" />
<path
   d="m 15.6,16.3 c 2.3,-2.5 5.5,-3.7 8.7,-3.7 3.2,0 6.2,1.6 8.4,4 0.5,0.5 1.1,0.5 1.4,0 0.2,-0.2 0.3,-0.5 0.3,-0.8 0,-0.3 -0.2,-0.6 -0.3,-0.8 -2.6,-3 -6.2,-4.7 -10,-4.7 -3.8,0 -7.3,1.4 -10.1,4.4 l -0.2,0.2 -0.2,0.2 c -0.9,0.9 -2,1.4 -3.3,1.4 C 9,16.5 8,15.9 7,14.9 c -0.5,-0.5 -1.1,-0.5 -1.4,0 -0.2,0.2 -0.3,0.5 -0.3,0.8 0,0.3 0.2,0.6 0.3,0.8 1.2,1.4 3,2.2 4.7,2.2 1.9,0 3.4,-0.6 4.8,-2 l 0.2,-0.2 z"
   id="path8"
   inkscape:connector-curvature="0"
   style="fill:#84d6ef" />
<g
   enable-background="new    "
   id="g14"
   style="opacity:0.2"
   transform="translate(0,-5.7)">
	<path
   d="m 24.9,30.6 c -0.2,0 -0.3,-0.2 -0.6,-0.2 -0.6,0 -1.2,0.3 -1.7,0.8 l -0.2,0.2 c -1.9,1.9 -4,3.3 -6.4,4 l -0.9,1.9 1.6,1.6 8.2,-8.3 c 0,0 0,0 0,0 z"
   id="path10"
   inkscape:connector-curvature="0"
   style="fill:#f1f1f1" />
	<path
   d="m 16.4,16.3 c 2.5,-1.4 5.1,-2 7.9,-2 3.9,0.2 7.5,1.6 10.3,4.2 0.5,0.4 0.9,0.7 1.4,1.1 L 44.3,11.3 42.6,9.6 42,9.9 37.5,12.2 34.4,11 32.4,5.7 h -4.5 l -0.2,0.6 -1.5,4.7 -3.1,1.2 -5.3,-2.3 -3.2,3.1 0.3,0.6 z"
   id="path12"
   inkscape:connector-curvature="0"
   style="fill:#f1f1f1" />
</g>
</svg>