<?xml version="1.0" encoding="UTF-8" standalone="no"?>
<svg
   xmlns:dc="http://purl.org/dc/elements/1.1/"
   xmlns:cc="http://creativecommons.org/ns#"
   xmlns:rdf="http://www.w3.org/1999/02/22-rdf-syntax-ns#"
   xmlns:svg="http://www.w3.org/2000/svg"
   xmlns="http://www.w3.org/2000/svg"
   height="43.099998"
   width="50.200001"
   id="svg4"
   xml:space="preserve"
   viewBox="0 0 50.200001 43.099998"
   y="0px"
   x="0px"
   version="1.0"><metadata
   id="metadata10"><rdf:RDF><cc:Work
       rdf:about=""><dc:format>image/svg+xml</dc:format><dc:type
         rdf:resource="http://purl.org/dc/dcmitype/StillImage" /><dc:title></dc:title></cc:Work></rdf:RDF></metadata><defs
   id="defs8" />
		<path
   style="fill:#0078d7"
   id="path2"
   d="M 42.8,16.9 H 39.5 V 1.5 C 39.5,0.69999998 38.8,0 38,0 H 1.5 C 0.7,0 0,0.69999998 0,1.5 v 30.7 c 0,0.8 0.7,1.5 1.5,1.5 h 20.7 l 5.4,9.4 H 42.7 L 50.2,30 Z M 29.3,8.8 h 7.3 v 4.4 h -7.3 z m 7.3,5.9 v 2.2 H 29.3 V 14.7 Z M 20.5,8.8 h 7.3 v 4.4 h -7.3 z m 0,5.9 h 7.3 v 2.2 h -0.2 l -1.3,2.2 h -5.9 v -4.4 z m 0,5.8 h 5 L 23,24.9 h -2.5 z m 1.7,5.8 -1.7,2.9 V 26.3 Z M 10.3,30.7 H 3 v -4.4 h 7.3 z m 0,-5.8 H 3 v -4.4 h 7.3 z m 0,-5.9 H 3 v -4.4 h 7.3 z m 0,-5.8 H 3 V 8.8 h 7.3 z m 8.8,17.5 h -7.3 v -4.4 h 7.3 z m 0,-5.8 h -7.3 v -4.4 h 7.3 z m 0,-5.9 h -7.3 v -4.4 h 7.3 z m 0,-5.8 H 11.8 V 8.8 h 7.3 z m 1.4,17.5 v -0.1 z" />
	
</svg>