<?xml version="1.0" encoding="UTF-8" standalone="no"?>
<!-- Generator: Adobe Illustrator 18.1.0, SVG Export Plug-In . SVG Version: 6.00 Build 0)  -->

<svg
   xmlns:dc="http://purl.org/dc/elements/1.1/"
   xmlns:cc="http://creativecommons.org/ns#"
   xmlns:rdf="http://www.w3.org/1999/02/22-rdf-syntax-ns#"
   xmlns:svg="http://www.w3.org/2000/svg"
   xmlns="http://www.w3.org/2000/svg"
   xmlns:xlink="http://www.w3.org/1999/xlink"
   xmlns:sodipodi="http://sodipodi.sourceforge.net/DTD/sodipodi-0.dtd"
   xmlns:inkscape="http://www.inkscape.org/namespaces/inkscape"
   version="1.0"
   x="0px"
   y="0px"
   viewBox="0 0 30.5 38.5"
   enable-background="new 0 0 152 117.5"
   xml:space="preserve"
   id="svg67"
   sodipodi:docname="AzStoreMarketplace.svg"
   width="30.5"
   height="38.5"
   inkscape:version="0.92.4 (5da689c313, 2019-01-14)"><metadata
   id="metadata73"><rdf:RDF><cc:Work
       rdf:about=""><dc:format>image/svg+xml</dc:format><dc:type
         rdf:resource="http://purl.org/dc/dcmitype/StillImage" /></cc:Work></rdf:RDF></metadata><defs
   id="defs71" /><sodipodi:namedview
   pagecolor="#ffffff"
   bordercolor="#666666"
   borderopacity="1"
   objecttolerance="10"
   gridtolerance="10"
   guidetolerance="10"
   inkscape:pageopacity="0"
   inkscape:pageshadow="2"
   inkscape:window-width="713"
   inkscape:window-height="543"
   id="namedview69"
   showgrid="false"
   inkscape:zoom="2.0085106"
   inkscape:cx="15.7176"
   inkscape:cy="19.177301"
   inkscape:window-x="0"
   inkscape:window-y="0"
   inkscape:window-maximized="0"
   inkscape:current-layer="svg67" />
<symbol
   id="Marketplace_store"
   viewBox="-15.2 -19.2 30.4 38.5"
   transform="translate(-60.2824,-39.427301)">
	<path
   d="m 13.5,9.7 -2.2,-1.2 -1,1.2 H 7.6 v 4.9 c 0,2.8 -2.2,4.7 -5.3,4.7 -0.5,0 -0.9,-0.1 -1.3,-0.1 0.6,-0.3 1.1,-0.8 1.6,-1.3 1.9,-0.1 3.7,-1.1 3.7,-3.3 v -5 H 2.9 v 4.5 c 0,2.8 -2.2,4.7 -5.3,4.7 -3.1,0 -5.3,-1.9 -5.3,-4.7 V 9.6 H -8.9 -14 l -1.2,-26.9 24.7,-1.8 v 0 h 0.4 l 1,-0.1 4.4,3.5 z m -20,4.4 c 0,2.3 2,3.3 3.9,3.3 1.9,0 3.9,-1 3.9,-3.3 V 9.6 h -3 v 4.9 c 0,0.6 0.2,1.2 0.4,1.6 -0.6,0.2 -1.1,0.2 -1.3,0.2 0,0 -0.1,0 -0.1,0 -0.2,-0.6 -0.4,-1.2 -0.4,-1.8 V 9.6 h -3.4 z"
   id="path2"
   inkscape:connector-curvature="0"
   style="fill:#0078d7" />
</symbol>
<g
   id="Layer_1"
   transform="translate(-60.2824,-39.427301)">
	<g
   id="Azure">
	</g>
	<g
   id="BizTalk_Services"
   transform="translate(37.3575,-2500.2)">
	</g>
	<g
   id="Key_Vault">
	</g>
	<g
   id="Mobile_Engagement">
	</g>
	<g
   id="Office_subscription">
		<g
   id="Office_subscription_1_">
		</g>
	</g>
</g>
<g
   id="paths"
   transform="translate(-60.2824,-39.427301)">
	<g
   id="Access_control">
	</g>
	<g
   id="Azure_active_directory">
	</g>
	<g
   id="API_Management">
	</g>
	<g
   id="Azure_automation">
	</g>
	<g
   id="Azure_SQL_database">
	</g>
	<g
   id="Azure_subscription">
	</g>
	<g
   id="Backup_service">
	</g>
	<g
   id="Bitbucket_code_source">
	</g>
	<g
   id="Azure_cache">
	</g>
	<g
   id="Content_delivery_network__x28_CDN_x29_">
	</g>
	<g
   id="Cloud_service">
	</g>
	<g
   id="CodePlex">
	</g>
	<g
   id="Dropbox_code_source">
	</g>
	<g
   id="Express_route">
	</g>
	<g
   id="Git_repository">
	</g>
	<g
   id="GitHub_code">
	</g>
	<g
   id="HD_Insight">
	</g>
	<g
   id="Health_monitoring">
	</g>
	<g
   id="Healthy">
	</g>
	<g
   id="BizTalk_hybrid_connection">
	</g>
	<g
   id="Hybrid_connection_manager_for_BizTalk_hybrid_connection">
	</g>
	<g
   id="Hyper-V_recovery_manager">
	</g>
	<g
   id="Machine_learning">
	</g>
	<g
   id="Media_services">
	</g>
	<g
   id="Microsoft_account">
	</g>
	<g
   id="Mobile_services">
	</g>
	<g
   id="Multi-factor_authentication">
	</g>
	<g
   id="MySQL_database">
	</g>
	<g
   id="Notification_hub">
	</g>
	<g
   id="Notification_topic">
	</g>
	<g
   id="Cloud_Office_365">
	</g>
	<g
   id="Office_365">
	</g>
	<g
   id="OS_image">
	</g>
	<g
   id="Remote_app">
	</g>
	<g
   id="Task_scheduler">
	</g>
	<g
   id="Azure_SDK">
	</g>
	<g
   id="Service_bus">
	</g>
	<g
   id="Service_bus_queue">
	</g>
	<g
   id="Service_bus_relay">
	</g>
	<g
   id="Service_bus_topic">
	</g>
	<g
   id="Service_endpoint">
	</g>
	<g
   id="Custom_create">
	</g>
	<g
   id="SQL_data_sync">
	</g>
	<g
   id="SQL_reporting">
	</g>
	<g
   id="Startup_task">
	</g>
	<g
   id="Windows_Azure_storage">
	</g>
	<g
   id="Storage_blob">
	</g>
	<g
   id="Storage_table">
	</g>
	<g
   id="Storage_queue">
	</g>
	
		<use
   xlink:href="#Marketplace_store"
   width="30.4"
   height="38.5"
   x="-15.2"
   y="-19.200001"
   transform="matrix(1,0,0,-1,135.7648,19.299999)"
   overflow="visible"
   id="use61"
   style="overflow:visible" />
</g>
<g
   id="Layer_57"
   transform="translate(-60.2824,-39.427301)">
</g>
<g
   id="Ibiza_Symbols"
   transform="translate(-60.2824,-39.427301)">
	<g
   id="SQL_Database_Premium">
	</g>
</g>
</svg>