<?xml version="1.0" encoding="UTF-8" standalone="no"?>
<!-- Generator: Adobe Illustrator 17.1.0, SVG Export Plug-In . SVG Version: 6.00 Build 0)  -->

<svg
   xmlns:dc="http://purl.org/dc/elements/1.1/"
   xmlns:cc="http://creativecommons.org/ns#"
   xmlns:rdf="http://www.w3.org/1999/02/22-rdf-syntax-ns#"
   xmlns:svg="http://www.w3.org/2000/svg"
   xmlns="http://www.w3.org/2000/svg"
   xmlns:sodipodi="http://sodipodi.sourceforge.net/DTD/sodipodi-0.dtd"
   xmlns:inkscape="http://www.inkscape.org/namespaces/inkscape"
   version="1.1"
   id="Layer_1"
   x="0px"
   y="0px"
   height="28.713535"
   width="50.077072"
   viewBox="0 0 50.077072 28.713535"
   enable-background="new 0 0 50 50"
   xml:space="preserve"
   sodipodi:docname="AzVirtualNetworkColor.svg"
   inkscape:version="0.92.4 (5da689c313, 2019-01-14)"><metadata
   id="metadata17"><rdf:RDF><cc:Work
       rdf:about=""><dc:format>image/svg+xml</dc:format><dc:type
         rdf:resource="http://purl.org/dc/dcmitype/StillImage" /></cc:Work></rdf:RDF></metadata><defs
   id="defs15" /><sodipodi:namedview
   pagecolor="#ffffff"
   bordercolor="#666666"
   borderopacity="1"
   objecttolerance="10"
   gridtolerance="10"
   guidetolerance="10"
   inkscape:pageopacity="0"
   inkscape:pageshadow="2"
   inkscape:window-width="713"
   inkscape:window-height="543"
   id="namedview13"
   showgrid="false"
   inkscape:zoom="4.72"
   inkscape:cx="25.038535"
   inkscape:cy="14.338535"
   inkscape:window-x="0"
   inkscape:window-y="0"
   inkscape:window-maximized="0"
   inkscape:current-layer="Layer_1" />
<path
   d="m 49.738535,15.075 c 0.5,-0.5 0.4,-1.3 0,-1.8 l -2.4,-2.4 -10.8,-10.5 c -0.5,-0.5 -1.2,-0.5 -1.7,0 v 0 c -0.5,0.5 -0.6,1.3 0,1.8 l 11.3,11.1 c 0.5,0.5 0.5,1.3 0,1.8 l -11.5,11.5 c -0.5,0.5 -0.5,1.3 0,1.8 v 0 c 0.5,0.5 1.3,0.4 1.7,0 l 10.7,-10.6 c 0,0 0,0 0.1,-0.1 z"
   id="path2"
   inkscape:connector-curvature="0"
   style="fill:#3999c6" />
<path
   d="m 0.33853532,15.075 c -0.5,-0.5 -0.4,-1.3 0,-1.8 l 2.39999998,-2.4 10.7999997,-10.5 c 0.5,-0.5 1.2,-0.5 1.7,0 v 0 c 0.5,0.5 0.6,1.3 0,1.8 l -11.0999997,11.1 c -0.5,0.5 -0.5,1.3 0,1.8 l 11.2999997,11.5 c 0.5,0.5 0.5,1.3 0,1.8 v 0 c -0.5,0.5 -1.3,0.4 -1.7,0 L 2.8385353,17.875 c 0,0 0,0 -0.1,-0.1 z"
   id="path4"
   inkscape:connector-curvature="0"
   style="fill:#3999c6" />
<path
   d="m 18.238535,14.175 c 0,1.9 -1.6,3.3 -3.3,3.3 -1.7,0 -3.5,-1.6 -3.5,-3.3 0,-1.7 1.4,-3.3 3.5,-3.3 2,0 3.3,1.6 3.3,3.3 z"
   id="path6"
   inkscape:connector-curvature="0"
   style="fill:#7fba00" />
<path
   d="m 28.338535,14.175 c 0,1.9 -1.6,3.3 -3.3,3.3 -1.7,0 -3.5,-1.6 -3.5,-3.3 0,-1.7 1.6,-3.3 3.5,-3.3 1.9,0 3.3,1.6 3.3,3.3 z"
   id="path8"
   inkscape:connector-curvature="0"
   style="fill:#7fba00" />
<circle
   cx="35.238537"
   cy="14.174999"
   r="3.3"
   id="circle10"
   style="fill:#7fba00" />
</svg>