<?xml version="1.0" encoding="UTF-8" standalone="no"?>
<!-- Generator: Adobe Illustrator 19.1.0, SVG Export Plug-In . SVG Version: 6.00 Build 0)  -->

<svg
   xmlns:dc="http://purl.org/dc/elements/1.1/"
   xmlns:cc="http://creativecommons.org/ns#"
   xmlns:rdf="http://www.w3.org/1999/02/22-rdf-syntax-ns#"
   xmlns:svg="http://www.w3.org/2000/svg"
   xmlns="http://www.w3.org/2000/svg"
   xmlns:sodipodi="http://sodipodi.sourceforge.net/DTD/sodipodi-0.dtd"
   xmlns:inkscape="http://www.inkscape.org/namespaces/inkscape"
   version="1.1"
   id="Layer_1"
   x="0px"
   y="0px"
   width="50"
   height="50"
   viewBox="0 0 50 50"
   enable-background="new 0 0 50 50"
   xml:space="preserve"
   sodipodi:docname="AzVirtualMachinesAvailabilitySet.svg"
   inkscape:version="0.92.4 (5da689c313, 2019-01-14)"><metadata
   id="metadata67"><rdf:RDF><cc:Work
       rdf:about=""><dc:format>image/svg+xml</dc:format><dc:type
         rdf:resource="http://purl.org/dc/dcmitype/StillImage" /></cc:Work></rdf:RDF></metadata><defs
   id="defs65" /><sodipodi:namedview
   pagecolor="#ffffff"
   bordercolor="#666666"
   borderopacity="1"
   objecttolerance="10"
   gridtolerance="10"
   guidetolerance="10"
   inkscape:pageopacity="0"
   inkscape:pageshadow="2"
   inkscape:window-width="713"
   inkscape:window-height="543"
   id="namedview63"
   showgrid="false"
   inkscape:zoom="4.72"
   inkscape:cx="25"
   inkscape:cy="25"
   inkscape:window-x="0"
   inkscape:window-y="0"
   inkscape:window-maximized="0"
   inkscape:current-layer="Layer_1" />
<rect
   x="21.667"
   width="6.6669998"
   height="5"
   id="rect2"
   y="0"
   style="fill:#59b4d9" />
<rect
   x="11.667"
   width="6.6669998"
   height="5"
   id="rect4"
   y="0"
   style="fill:#59b4d9" />
<path
   d="m 45,45 h -3.333 v 5 h 5 C 48.508,50 50,48.507 50,46.667 v -5 h -5 z"
   id="path6"
   inkscape:connector-curvature="0"
   style="fill:#59b4d9" />
<rect
   y="31.667"
   width="5"
   height="6.6669998"
   id="rect8"
   x="0"
   style="fill:#59b4d9" />
<rect
   x="21.667"
   y="45"
   width="6.6669998"
   height="5"
   id="rect10"
   style="fill:#59b4d9" />
<rect
   x="45"
   y="31.667"
   width="5"
   height="6.6669998"
   id="rect12"
   style="fill:#59b4d9" />
<rect
   x="31.667"
   y="45"
   width="6.6669998"
   height="5"
   id="rect14"
   style="fill:#59b4d9" />
<rect
   x="11.667"
   y="45"
   width="6.6669998"
   height="5"
   id="rect16"
   style="fill:#59b4d9" />
<path
   d="M 5,45 V 41.667 H 0 v 5 C 0,48.508 1.493,50 3.333,50 h 5 v -5 z"
   id="path18"
   inkscape:connector-curvature="0"
   style="fill:#59b4d9" />
<rect
   y="11.667"
   width="5"
   height="6.6669998"
   id="rect20"
   x="0"
   style="fill:#59b4d9" />
<path
   d="M 5,5 H 8.333 V 0 h -5 C 1.493,0 0,1.493 0,3.333 v 5 h 5 z"
   id="path22"
   inkscape:connector-curvature="0"
   style="fill:#59b4d9" />
<rect
   y="21.667"
   width="5"
   height="6.6669998"
   id="rect24"
   x="0"
   style="fill:#59b4d9" />
<rect
   x="45"
   y="21.667"
   width="5"
   height="6.6669998"
   id="rect26"
   style="fill:#59b4d9" />
<rect
   x="45"
   y="11.666"
   width="5"
   height="6.6669998"
   id="rect28"
   style="fill:#59b4d9" />
<rect
   x="31.666"
   y="0"
   width="6.6669998"
   height="5"
   id="rect30"
   style="fill:#59b4d9" />
<path
   d="m 45,5 v 3.333 h 5 v -5 C 50,1.492 48.507,0 46.667,0 h -5 v 5 z"
   id="path32"
   inkscape:connector-curvature="0"
   style="fill:#59b4d9" />
<path
   d="M 35.328,8.959 H 9.949 c -0.863,0 -1.558,0.77 -1.558,1.63 v 17.675 c 0,0.855 0.695,1.617 1.558,1.617 h 25.379 c 0.86,0 1.732,-0.762 1.732,-1.617 V 10.59 C 37.061,9.727 36.189,8.959 35.328,8.959"
   id="path34"
   inkscape:connector-curvature="0"
   style="fill:#a0a1a2" />
<path
   enable-background="new    "
   d="m 35.346,8.961 c -0.006,0 -0.012,-0.002 -0.018,-0.002 H 9.949 c -0.863,0 -1.558,0.77 -1.558,1.63 v 17.674 c 0,0.855 0.695,1.617 1.558,1.617 h 0.604 z"
   id="path36"
   inkscape:connector-curvature="0"
   style="opacity:0.2;fill:#ffffff" />
<polygon
   points="10.564,11.163 34.881,11.127 34.881,27.678 10.564,27.678 "
   id="polygon38"
   style="fill:#59b4d9" />
<path
   d="m 23.022,10.159 c 0,0.225 -0.182,0.406 -0.407,0.406 -0.225,0 -0.406,-0.182 -0.406,-0.406 0,-0.225 0.181,-0.406 0.406,-0.406 0.225,-10e-4 0.407,0.18 0.407,0.406"
   id="path40"
   inkscape:connector-curvature="0"
   style="fill:#b8d432" />
<path
   d="m 23.039,18.919 c -0.026,0 -0.052,-0.008 -0.077,-0.022 l -5.049,-2.91 c -0.046,-0.027 -0.075,-0.078 -0.075,-0.132 0,-0.054 0.029,-0.105 0.075,-0.132 l 5.018,-2.891 c 0.047,-0.026 0.104,-0.026 0.151,0 l 5.05,2.912 c 0.047,0.027 0.075,0.078 0.075,0.132 0,0.055 -0.028,0.105 -0.075,0.132 l -5.016,2.89 c -0.025,0.014 -0.049,0.021 -0.077,0.021"
   id="path42"
   inkscape:connector-curvature="0"
   style="fill:#ffffff" />
<path
   d="m 31.531,35.535 h -0.683 -6.76 -0.353 c 0.937,3.303 -0.322,3.776 -5.834,3.776 v 1.73 h 7.011 5.119 6.616 V 39.312 C 31.134,39.311 30.593,38.84 31.531,35.535"
   id="path44"
   inkscape:connector-curvature="0"
   style="fill:#7a7a7a" />
<path
   d="M 39.877,14.614 H 14.498 c -0.863,0 -1.558,0.77 -1.558,1.63 v 17.675 c 0,0.855 0.695,1.617 1.558,1.617 h 25.379 c 0.86,0 1.732,-0.762 1.732,-1.617 V 16.244 c 0,-0.862 -0.872,-1.63 -1.732,-1.63"
   id="path46"
   inkscape:connector-curvature="0"
   style="fill:#a0a1a2" />
<path
   enable-background="new    "
   d="m 39.895,14.616 c -0.006,0 -0.012,-0.002 -0.018,-0.002 h -25.38 c -0.863,0 -1.558,0.77 -1.558,1.63 v 17.674 c 0,0.855 0.695,1.617 1.558,1.617 h 0.604 z"
   id="path48"
   inkscape:connector-curvature="0"
   style="opacity:0.2;fill:#ffffff" />
<polygon
   points="15.112,16.818 39.429,16.782 39.429,33.333 15.112,33.333 "
   id="polygon50"
   style="fill:#59b4d9" />
<rect
   x="17.900999"
   y="39.311001"
   width="18.745001"
   height="1.73"
   id="rect52"
   style="fill:#a0a1a2" />
<path
   d="m 27.571,15.814 c 0,0.225 -0.182,0.406 -0.407,0.406 -0.225,0 -0.406,-0.182 -0.406,-0.406 0,-0.224 0.181,-0.406 0.406,-0.406 0.225,-10e-4 0.407,0.181 0.407,0.406"
   id="path54"
   inkscape:connector-curvature="0"
   style="fill:#b8d432" />
<path
   d="m 27.587,24.575 c -0.026,0 -0.052,-0.008 -0.077,-0.022 l -5.049,-2.91 c -0.046,-0.027 -0.075,-0.078 -0.075,-0.132 0,-0.054 0.029,-0.105 0.075,-0.132 l 5.018,-2.891 c 0.047,-0.026 0.104,-0.026 0.151,0 l 5.05,2.912 c 0.047,0.027 0.075,0.078 0.075,0.132 0,0.055 -0.028,0.105 -0.075,0.132 l -5.016,2.89 c -0.024,0.012 -0.049,0.021 -0.077,0.021"
   id="path56"
   inkscape:connector-curvature="0"
   style="fill:#ffffff" />
<path
   enable-background="new    "
   d="m 26.861,31.648 c -0.029,0 -0.054,-0.007 -0.077,-0.02 L 21.751,28.727 C 21.702,28.7 21.673,28.651 21.673,28.595 v -5.822 c 0,-0.055 0.029,-0.105 0.078,-0.132 0.047,-0.028 0.103,-0.028 0.154,0 l 5.033,2.9 c 0.044,0.029 0.075,0.078 0.075,0.133 v 5.822 c 0,0.056 -0.029,0.105 -0.075,0.132 -0.025,0.013 -0.052,0.02 -0.077,0.02"
   id="path58"
   inkscape:connector-curvature="0"
   style="opacity:0.7;fill:#ffffff" />
<path
   enable-background="new    "
   d="m 28.287,31.648 c -0.028,0 -0.054,-0.007 -0.079,-0.02 -0.044,-0.027 -0.074,-0.077 -0.074,-0.132 V 25.71 c 0,-0.054 0.029,-0.104 0.074,-0.132 l 5.033,-2.899 c 0.048,-0.027 0.104,-0.027 0.152,0 0.048,0.027 0.077,0.077 0.077,0.132 v 5.785 c 0,0.056 -0.029,0.106 -0.077,0.132 l -5.031,2.901 c -0.023,0.012 -0.05,0.019 -0.075,0.019"
   id="path60"
   inkscape:connector-curvature="0"
   style="opacity:0.4;fill:#ffffff" />
</svg>