<?xml version="1.0" encoding="UTF-8" standalone="no"?>
<!-- Generator: Adobe Illustrator 17.1.0, SVG Export Plug-In . SVG Version: 6.00 Build 0)  -->

<svg
   xmlns:dc="http://purl.org/dc/elements/1.1/"
   xmlns:cc="http://creativecommons.org/ns#"
   xmlns:rdf="http://www.w3.org/1999/02/22-rdf-syntax-ns#"
   xmlns:svg="http://www.w3.org/2000/svg"
   xmlns="http://www.w3.org/2000/svg"
   xmlns:sodipodi="http://sodipodi.sourceforge.net/DTD/sodipodi-0.dtd"
   xmlns:inkscape="http://www.inkscape.org/namespaces/inkscape"
   version="1.1"
   id="Layer_1"
   x="0px"
   y="0px"
   width="50"
   height="46.099998"
   viewBox="0 0 50 46.099998"
   enable-background="new 0 0 50 50"
   xml:space="preserve"
   sodipodi:docname="AzVirtualMachineColorSimple.svg"
   inkscape:version="0.92.4 (5da689c313, 2019-01-14)"><metadata
   id="metadata17"><rdf:RDF><cc:Work
       rdf:about=""><dc:format>image/svg+xml</dc:format><dc:type
         rdf:resource="http://purl.org/dc/dcmitype/StillImage" /></cc:Work></rdf:RDF></metadata><defs
   id="defs15" /><sodipodi:namedview
   pagecolor="#ffffff"
   bordercolor="#666666"
   borderopacity="1"
   objecttolerance="10"
   gridtolerance="10"
   guidetolerance="10"
   inkscape:pageopacity="0"
   inkscape:pageshadow="2"
   inkscape:window-width="713"
   inkscape:window-height="543"
   id="namedview13"
   showgrid="false"
   inkscape:zoom="4.72"
   inkscape:cx="25"
   inkscape:cy="23.1"
   inkscape:window-x="0"
   inkscape:window-y="0"
   inkscape:window-maximized="0"
   inkscape:current-layer="Layer_1" />
<path
   d="M 47,0 H 2.7 C 1.2,0 0,1.3 0,2.8 v 30.9 c 0,1.5 1.2,2.8 2.7,2.8 h 16.1 c 1.6,5.8 -0.6,6.6 -10.2,6.6 v 3 h 12.2 8.9 11.5 v -3 c -9.6,0 -10.6,-0.8 -8.9,-6.6 H 47 c 1.5,0 3,-1.3 3,-2.8 V 2.8 C 50,1.3 48.5,0 47,0 Z"
   id="path2"
   inkscape:connector-curvature="0"
   style="fill:#59b4d9" />
<polygon
   points="3.8,34.7 3.8,5.8 46.1,5.8 46.1,34.7 "
   id="polygon4"
   style="fill:#ffffff"
   transform="translate(0,-2)" />
<path
   d="m 25.5,17.4 c 0,0 -0.1,0 -0.1,0 l -8.8,-5.1 c -0.1,0 -0.1,-0.1 -0.1,-0.2 0,-0.1 0.1,-0.2 0.1,-0.2 l 8.8,-5 c 0.1,0 0.2,0 0.3,0 l 8.8,5.1 c 0.1,0 0.1,0.1 0.1,0.2 0,0.1 0,0.2 -0.1,0.2 l -8.7,5 c -0.2,0 -0.2,0 -0.3,0"
   id="path6"
   inkscape:connector-curvature="0"
   style="fill:#0072c6" />
<path
   d="m 24.3,29.7 c 0,0 -0.1,0 -0.1,0 l -8.8,-5.1 c -0.1,0 -0.1,-0.1 -0.1,-0.2 V 14.2 c 0,-0.1 0.1,-0.2 0.1,-0.2 0.1,0 0.2,0 0.3,0 l 8.8,5.1 c 0.1,0 0.1,0.1 0.1,0.2 v 10.2 c 0,0.1 -0.1,0.2 -0.1,0.2 -0.1,0 -0.2,0 -0.2,0"
   id="path8"
   inkscape:connector-curvature="0"
   style="fill:#0072c6" />
<path
   d="m 26.8,29.7 c 0,0 -0.1,0 -0.1,0 -0.1,0 -0.1,-0.1 -0.1,-0.2 V 19.4 c 0,-0.1 0.1,-0.2 0.1,-0.2 l 8.8,-5.1 c 0.1,0 0.2,0 0.3,0 0.1,0 0.1,0.1 0.1,0.2 v 10.1 c 0,0.1 -0.1,0.2 -0.1,0.2 L 27,29.7 c -0.1,0 -0.2,0 -0.2,0"
   id="path10"
   inkscape:connector-curvature="0"
   style="fill:#0072c6" />
</svg>