<?xml version="1.0" encoding="UTF-8" standalone="no"?>
<!-- Generator: Adobe Illustrator 18.1.0, SVG Export Plug-In . SVG Version: 6.00 Build 0)  -->

<svg
   xmlns:dc="http://purl.org/dc/elements/1.1/"
   xmlns:cc="http://creativecommons.org/ns#"
   xmlns:rdf="http://www.w3.org/1999/02/22-rdf-syntax-ns#"
   xmlns:svg="http://www.w3.org/2000/svg"
   xmlns="http://www.w3.org/2000/svg"
   xmlns:sodipodi="http://sodipodi.sourceforge.net/DTD/sodipodi-0.dtd"
   xmlns:inkscape="http://www.inkscape.org/namespaces/inkscape"
   version="1.0"
   x="0px"
   y="0px"
   viewBox="0 0 43.5 34.799999"
   enable-background="new 0 0 152 117.5"
   xml:space="preserve"
   id="svg73"
   sodipodi:docname="AzVirtualMachine.svg"
   width="43.5"
   height="34.799999"
   inkscape:version="0.92.4 (5da689c313, 2019-01-14)"><metadata
   id="metadata79"><rdf:RDF><cc:Work
       rdf:about=""><dc:format>image/svg+xml</dc:format><dc:type
         rdf:resource="http://purl.org/dc/dcmitype/StillImage" /></cc:Work></rdf:RDF></metadata><defs
   id="defs77" /><sodipodi:namedview
   pagecolor="#ffffff"
   bordercolor="#666666"
   borderopacity="1"
   objecttolerance="10"
   gridtolerance="10"
   guidetolerance="10"
   inkscape:pageopacity="0"
   inkscape:pageshadow="2"
   inkscape:window-width="713"
   inkscape:window-height="543"
   id="namedview75"
   showgrid="false"
   inkscape:zoom="2.0085106"
   inkscape:cx="21"
   inkscape:cy="10.05"
   inkscape:window-x="0"
   inkscape:window-y="0"
   inkscape:window-maximized="0"
   inkscape:current-layer="svg73" />
<g
   id="Layer_1"
   transform="translate(-55,-34)">
	<g
   id="Azure">
	</g>
	<g
   id="BizTalk_Services"
   transform="translate(37.3575,-2500.2)">
	</g>
	<g
   id="Key_Vault">
	</g>
	<g
   id="Mobile_Engagement">
	</g>
	<g
   id="Office_subscription">
		<g
   id="Office_subscription_1_">
		</g>
	</g>
</g>
<g
   id="paths"
   transform="translate(-55,-34)">
	<g
   id="Access_control">
	</g>
	<g
   id="Azure_active_directory">
	</g>
	<g
   id="API_Management">
	</g>
	<g
   id="Azure_automation">
	</g>
	<g
   id="Azure_SQL_database">
	</g>
	<g
   id="Azure_subscription">
	</g>
	<g
   id="Backup_service">
	</g>
	<g
   id="Bitbucket_code_source">
	</g>
	<g
   id="Azure_cache">
	</g>
	<g
   id="Content_delivery_network__x28_CDN_x29_">
	</g>
	<g
   id="Cloud_service">
	</g>
	<g
   id="CodePlex">
	</g>
	<g
   id="Dropbox_code_source">
	</g>
	<g
   id="Express_route">
	</g>
	<g
   id="Git_repository">
	</g>
	<g
   id="GitHub_code">
	</g>
	<g
   id="HD_Insight">
	</g>
	<g
   id="Health_monitoring">
	</g>
	<g
   id="Healthy">
	</g>
	<g
   id="BizTalk_hybrid_connection">
	</g>
	<g
   id="Hybrid_connection_manager_for_BizTalk_hybrid_connection">
	</g>
	<g
   id="Hyper-V_recovery_manager">
	</g>
	<g
   id="Machine_learning">
	</g>
	<g
   id="Media_services">
	</g>
	<g
   id="Microsoft_account">
	</g>
	<g
   id="Mobile_services">
	</g>
	<g
   id="Multi-factor_authentication">
	</g>
	<g
   id="MySQL_database">
	</g>
	<g
   id="Notification_hub">
	</g>
	<g
   id="Notification_topic">
	</g>
	<g
   id="Cloud_Office_365">
	</g>
	<g
   id="Office_365">
	</g>
	<g
   id="OS_image">
	</g>
	<g
   id="Remote_app">
	</g>
	<g
   id="Task_scheduler">
	</g>
	<g
   id="Azure_SDK">
	</g>
	<g
   id="Service_bus">
	</g>
	<g
   id="Service_bus_queue">
	</g>
	<g
   id="Service_bus_relay">
	</g>
	<g
   id="Service_bus_topic">
	</g>
	<g
   id="Service_endpoint">
	</g>
	<g
   id="Custom_create">
	</g>
	<g
   id="SQL_data_sync">
	</g>
	<g
   id="SQL_reporting">
	</g>
	<g
   id="Startup_task">
	</g>
	<g
   id="Windows_Azure_storage">
	</g>
	<g
   id="Storage_blob">
	</g>
	<g
   id="Storage_table">
	</g>
	<g
   id="Storage_queue">
	</g>
	<g
   id="StorSimple">
	</g>
	<g
   id="Traffic_manager">
	</g>
	<g
   id="VHD">
	</g>
	<g
   id="VHD_data_disk">
	</g>
	<g
   id="Virtual_machine">
		<g
   id="g66">
			<path
   d="m 69.3,53.2 h 16.4 v -11 H 69.3 Z M 81.1,50 78,51.8 v -3.6 l 3.1,-1.8 z m -3.4,-5.9 3.1,1.8 -3.1,1.8 -3.1,-1.8 z m -3.3,2.3 3.1,1.8 v 3.6 L 74.4,50 Z"
   id="path62"
   inkscape:connector-curvature="0"
   style="fill:#0078d7" />
			<path
   d="M 96.6,34 H 56.9 C 55.8,34 55,34.9 55,35.9 v 31 c 0,1.1 0.9,1.9 1.9,1.9 h 39.7 c 1.1,0 1.9,-0.9 1.9,-1.9 v -31 c 0,-1 -0.8,-1.9 -1.9,-1.9 z m -20,28.8 -1.2,3.6 c 0,0 0,0.1 0,0.1 0,0 0,0 -0.1,0.1 0,0 -0.1,0 -0.2,0 -0.1,0 -0.1,0 -0.3,0 -0.1,0 -0.2,0 -0.2,0 -0.1,0 -0.1,0 -0.2,0 0,0 -0.1,0 -0.1,0 0,0 0,0 -0.1,0 0,0 0,0 0,0 0,0 0,0 0,-0.1 L 73,62.9 c 0,-0.1 0,-0.1 0,-0.2 0,0 0,-0.1 0,-0.1 0,0 0.1,0 0.1,0 0.1,0 0.2,0 0.3,0 0.1,0 0.2,0 0.2,0 0.1,0 0.1,0 0.1,0 0,0 0,0 0.1,0 0,0 0,0 0,0.1 l 1,3.1 v 0 l 1,-3.1 c 0,0 0,-0.1 0,-0.1 0,0 0,0 0.1,-0.1 0,0 0.1,0 0.1,0 0.1,0 0.1,0 0.2,0 0.1,0 0.2,0 0.2,0 0.1,0 0.1,0 0.1,0 0,0 0,0.1 0,0.1 0.2,0.1 0.2,0.2 0.1,0.2 z m 5.3,3.7 c 0,0 0,0 0,0 0,0 0,0 0,0 -0.1,0.1 -0.2,0.1 -0.2,0.1 -0.1,0 -0.1,0 -0.2,0 -0.1,0 -0.1,0 -0.2,0 0,0 -0.1,0 -0.1,0 0,0 0,0 -0.1,0 0,0 0,0 0,-0.1 v -3.3 0 L 80,66.5 c 0,0 0,0 0,0.1 0,0 0,0 -0.1,0 0,0 -0.1,0 -0.1,0 0,0 -0.1,0 -0.2,0 -0.1,0 -0.1,0 -0.2,0 0,0 -0.1,0 -0.1,0 0,0 -0.1,0 -0.1,0 0,0 0,0 0,-0.1 L 78,63.2 v 0 3.3 c 0,0 0,0 0,0.1 0,0 0,0 -0.1,0 0,0 -0.1,0 -0.1,0 0,0 -0.1,0 -0.2,0 -0.1,0 -0.1,0 -0.2,0 -0.1,0 -0.1,0 -0.1,0 0,0 -0.1,0 -0.1,0 0,0 0,0 0,-0.1 v -3.6 c 0,-0.1 0,-0.2 0.1,-0.2 0.1,-0.1 0.1,-0.1 0.2,-0.1 H 78 c 0.1,0 0.2,0 0.2,0 0.1,0 0.1,0 0.2,0.1 0,0 0.1,0.1 0.1,0.1 0,0.1 0.1,0.1 0.1,0.2 l 0.9,2.4 v 0 L 80.4,63 c 0,-0.1 0.1,-0.2 0.1,-0.2 0,-0.1 0.1,-0.1 0.1,-0.1 0,0 0.1,-0.1 0.2,-0.1 0.1,0 0.1,0 0.2,0 h 0.6 c 0.1,0 0.1,0 0.1,0 0,0 0.1,0 0.1,0.1 0,0 0,0.1 0.1,0.1 0,0 0,0.1 0,0.1 z m 5.1,-13 c 0,0.6 -0.5,1 -1,1 h -6 c -0.6,2.3 -0.3,2.6 3.7,2.6 v 1 H 79 75.6 71.2 v -1 c 3.6,0 4.2,-0.3 3.7,-2.6 H 69 c -0.6,0 -1,-0.5 -1,-1 V 41.9 c 0,-0.6 0.5,-1.1 1,-1.1 h 17 c 0.6,0 1,0.5 1,1.1 z"
   id="path64"
   inkscape:connector-curvature="0"
   style="fill:#0078d7" />
		</g>
	</g>
</g>
<g
   id="Layer_57"
   transform="translate(-55,-34)">
</g>
<g
   id="Ibiza_Symbols"
   transform="translate(-55,-34)">
	<g
   id="SQL_Database_Premium">
	</g>
</g>
</svg>