<?xml version="1.0" encoding="UTF-8" standalone="no"?>
<!-- Generator: Adobe Illustrator 17.0.1, SVG Export Plug-In . SVG Version: 6.00 Build 0)  -->

<svg
   xmlns:dc="http://purl.org/dc/elements/1.1/"
   xmlns:cc="http://creativecommons.org/ns#"
   xmlns:rdf="http://www.w3.org/1999/02/22-rdf-syntax-ns#"
   xmlns:svg="http://www.w3.org/2000/svg"
   xmlns="http://www.w3.org/2000/svg"
   xmlns:sodipodi="http://sodipodi.sourceforge.net/DTD/sodipodi-0.dtd"
   xmlns:inkscape="http://www.inkscape.org/namespaces/inkscape"
   version="1.1"
   id="Layer_1"
   x="0px"
   y="0px"
   width="50.000999"
   height="46.148998"
   viewBox="0 0 50.000999 46.148998"
   enable-background="new 0 0 50 50"
   xml:space="preserve"
   sodipodi:docname="AzVirtualMachineColor.svg"
   inkscape:version="0.92.4 (5da689c313, 2019-01-14)"><metadata
   id="metadata27"><rdf:RDF><cc:Work
       rdf:about=""><dc:format>image/svg+xml</dc:format><dc:type
         rdf:resource="http://purl.org/dc/dcmitype/StillImage" /></cc:Work></rdf:RDF></metadata><defs
   id="defs25" /><sodipodi:namedview
   pagecolor="#ffffff"
   bordercolor="#666666"
   borderopacity="1"
   objecttolerance="10"
   gridtolerance="10"
   guidetolerance="10"
   inkscape:pageopacity="0"
   inkscape:pageshadow="2"
   inkscape:window-width="713"
   inkscape:window-height="543"
   id="namedview23"
   showgrid="false"
   inkscape:zoom="4.72"
   inkscape:cx="25"
   inkscape:cy="23.149"
   inkscape:window-x="0"
   inkscape:window-y="0"
   inkscape:window-maximized="0"
   inkscape:current-layer="Layer_1" />
<path
   d="M 32.426,36.534 H 31.235 19.445 18.83 c 1.634,5.768 -0.561,6.595 -10.175,6.595 v 3.02 h 12.227 8.927 11.538 v -3.02 c -9.614,0 -10.557,-0.824 -8.921,-6.595"
   id="path2"
   inkscape:connector-curvature="0"
   style="fill:#7a7a7a" />
<path
   d="M 46.98,0 H 2.718 C 1.214,0 0.001,1.345 0.001,2.847 v 30.866 c 0,1.493 1.213,2.823 2.717,2.823 H 46.98 c 1.501,0 3.021,-1.33 3.021,-2.823 V 2.847 C 50.001,1.341 48.481,0 46.98,0"
   id="path4"
   inkscape:connector-curvature="0"
   style="fill:#a0a1a2" />
<path
   enable-background="new    "
   d="M 47.011,0.003 C 47,0.003 46.99,10e-4 46.98,10e-4 H 2.717 C 1.213,10e-4 0,1.345 0,2.848 v 30.865 c 0,1.494 1.213,2.824 2.717,2.824 H 3.77 Z"
   id="path6"
   inkscape:connector-curvature="0"
   style="opacity:0.2;fill:#ffffff" />
<polygon
   points="3.79,34.689 3.79,5.848 46.098,5.848 46.098,34.689 "
   id="polygon8"
   style="fill:#59b4d9"
   transform="translate(0,-2)" />
<polygon
   points="3.848,5.849 42.528,5.791 42.53,5.791 3.79,5.849 3.79,34.689 3.848,34.689 "
   id="polygon10"
   style="fill:#59b4d9"
   transform="translate(0,-2)" />
<rect
   x="8.6549997"
   y="43.127998"
   width="32.692001"
   height="3.0209999"
   id="rect12"
   style="fill:#a0a1a2" />
<path
   d="m 25.518,2.095 c 0,0.392 -0.318,0.71 -0.71,0.71 -0.393,0 -0.709,-0.318 -0.709,-0.71 0,-0.393 0.316,-0.71 0.709,-0.71 0.392,0 0.71,0.317 0.71,0.71"
   id="path14"
   inkscape:connector-curvature="0"
   style="fill:#b8d432" />
<path
   d="m 25.546,17.394 c -0.045,0 -0.091,-0.014 -0.134,-0.038 l -8.804,-5.082 c -0.081,-0.048 -0.132,-0.137 -0.132,-0.231 0,-0.095 0.051,-0.183 0.132,-0.23 l 8.751,-5.049 c 0.082,-0.046 0.182,-0.046 0.263,0 l 8.807,5.084 c 0.082,0.047 0.131,0.135 0.131,0.23 0,0.096 -0.049,0.183 -0.131,0.23 l -8.748,5.048 c -0.043,0.024 -0.086,0.038 -0.135,0.038"
   id="path16"
   inkscape:connector-curvature="0"
   style="fill:#ffffff" />
<path
   enable-background="new    "
   d="m 24.281,29.746 c -0.05,0 -0.095,-0.012 -0.134,-0.036 L 15.369,24.644 C 15.284,24.597 15.233,24.511 15.233,24.413 V 14.247 c 0,-0.096 0.051,-0.183 0.136,-0.231 0.081,-0.049 0.181,-0.049 0.268,0 l 8.777,5.064 c 0.078,0.05 0.13,0.137 0.13,0.233 v 10.166 c 0,0.097 -0.052,0.183 -0.13,0.231 -0.044,0.024 -0.09,0.036 -0.133,0.036"
   id="path18"
   inkscape:connector-curvature="0"
   style="opacity:0.7;fill:#ffffff" />
<path
   enable-background="new    "
   d="m 26.766,29.746 c -0.048,0 -0.093,-0.012 -0.138,-0.036 -0.078,-0.048 -0.129,-0.134 -0.129,-0.231 V 19.377 c 0,-0.094 0.051,-0.182 0.129,-0.231 l 8.777,-5.064 c 0.084,-0.048 0.182,-0.048 0.264,0 0.084,0.047 0.135,0.135 0.135,0.23 v 10.101 c 0,0.098 -0.051,0.184 -0.135,0.231 l -8.774,5.066 c -0.036,0.024 -0.083,0.036 -0.129,0.036"
   id="path20"
   inkscape:connector-curvature="0"
   style="opacity:0.4;fill:#ffffff" />
</svg>