<?xml version="1.0" encoding="UTF-8" standalone="no"?>
<!-- Generator: Adobe Illustrator 22.0.1, SVG Export Plug-In . SVG Version: 6.00 Build 0)  -->

<svg
   xmlns:dc="http://purl.org/dc/elements/1.1/"
   xmlns:cc="http://creativecommons.org/ns#"
   xmlns:rdf="http://www.w3.org/1999/02/22-rdf-syntax-ns#"
   xmlns:svg="http://www.w3.org/2000/svg"
   xmlns="http://www.w3.org/2000/svg"
   xmlns:sodipodi="http://sodipodi.sourceforge.net/DTD/sodipodi-0.dtd"
   xmlns:inkscape="http://www.inkscape.org/namespaces/inkscape"
   version="1.1"
   id="Layer_1"
   x="0px"
   y="0px"
   width="49.799999"
   height="49.550999"
   viewBox="0 0 49.799999 49.550999"
   enable-background="new 0 0 50 50"
   xml:space="preserve"
   sodipodi:docname="AzVirtualDatacenter.svg"
   inkscape:version="0.92.4 (5da689c313, 2019-01-14)"><metadata
   id="metadata41"><rdf:RDF><cc:Work
       rdf:about=""><dc:format>image/svg+xml</dc:format><dc:type
         rdf:resource="http://purl.org/dc/dcmitype/StillImage" /></cc:Work></rdf:RDF></metadata><defs
   id="defs39" /><sodipodi:namedview
   pagecolor="#ffffff"
   bordercolor="#666666"
   borderopacity="1"
   objecttolerance="10"
   gridtolerance="10"
   guidetolerance="10"
   inkscape:pageopacity="0"
   inkscape:pageshadow="2"
   inkscape:window-width="713"
   inkscape:window-height="543"
   id="namedview37"
   showgrid="false"
   inkscape:zoom="4.72"
   inkscape:cx="24.9"
   inkscape:cy="24.651"
   inkscape:window-x="0"
   inkscape:window-y="0"
   inkscape:window-maximized="0"
   inkscape:current-layer="Layer_1" />
<path
   d="m 40.117,12.483 c -0.012,0 -0.023,0.002 -0.035,0.002 C 39.721,5.531 34,0 26.975,0 21.841,0 17.406,2.958 15.244,7.262 14.345,7.055 13.412,6.935 12.45,6.935 5.574,6.935 0,12.524 0,19.418 0,26.311 5.574,31.9 12.45,31.9 h 27.667 c 5.348,0 9.683,-4.347 9.683,-9.709 0,-5.362 -4.335,-9.708 -9.683,-9.708 z"
   id="path2"
   inkscape:connector-curvature="0"
   style="fill:#59b4d9" />
<path
   d="m 40.117,12.483 c -0.012,0 -0.023,0.002 -0.035,0.002 C 39.721,5.531 34,0 26.975,0 21.841,0 17.406,2.958 15.244,7.262 14.345,7.055 13.412,6.935 12.45,6.935 5.574,6.935 0,12.524 0,19.418 0,26.311 5.574,31.9 12.45,31.9 h 27.667 c 5.348,0 9.683,-4.347 9.683,-9.709 0,-5.362 -4.335,-9.708 -9.683,-9.708 z"
   id="path4"
   inkscape:connector-curvature="0"
   style="opacity:0.2;fill:#ffffff" />
<g
   id="g24"
   transform="translate(-0.1,-0.1)">
	<path
   d="M 12.55,32 H 28 V 17.522 C 28,16.132 26.854,15 25.444,15 H 11.556 C 10.146,15 9,16.132 9,17.522 V 31.478 C 10.126,31.813 11.316,32 12.55,32 Z"
   id="path6"
   inkscape:connector-curvature="0"
   style="opacity:0.4;fill:#ffffff" />
	<path
   d="M 27,45.477 C 27,46.318 26.304,47 25.444,47 H 11.556 C 10.696,47 10,46.318 10,45.477 V 17.523 C 10,16.682 10.696,16 11.556,16 H 25.444 C 26.304,16 27,16.682 27,17.523 Z"
   id="path8"
   inkscape:connector-curvature="0"
   style="fill:#7a7a7a" />
	<g
   id="g22">
		<path
   d="m 12.201,33 c 0,-1.057 0.857,-1.915 1.915,-1.915 h 8.768 c 1.057,0 1.915,0.857 1.915,1.915 v 0 c 0,1.057 -0.857,1.915 -1.915,1.915 h -8.768 c -1.057,0 -1.915,-0.857 -1.915,-1.915 z"
   id="path10"
   inkscape:connector-curvature="0"
   style="fill:#1e1e1e" />
		<circle
   cx="14.5"
   cy="33"
   r="1.285"
   id="circle12"
   style="fill:#b8d432" />
		<path
   d="m 12.201,27 c 0,-1.057 0.857,-1.915 1.915,-1.915 h 8.768 c 1.057,0 1.915,0.857 1.915,1.915 v 0 c 0,1.057 -0.857,1.915 -1.915,1.915 h -8.768 c -1.057,0 -1.915,-0.858 -1.915,-1.915 z"
   id="path14"
   inkscape:connector-curvature="0"
   style="fill:#1e1e1e" />
		<circle
   cx="14.5"
   cy="27"
   r="1.285"
   id="circle16"
   style="fill:#b8d432" />
		<path
   d="m 12.201,21 c 0,-1.057 0.857,-1.915 1.915,-1.915 h 8.768 c 1.057,0 1.915,0.857 1.915,1.915 v 0 c 0,1.057 -0.857,1.915 -1.915,1.915 h -8.768 c -1.057,0 -1.915,-0.857 -1.915,-1.915 z"
   id="path18"
   inkscape:connector-curvature="0"
   style="fill:#1e1e1e" />
		<circle
   cx="14.5"
   cy="21"
   r="1.285"
   id="circle20"
   style="fill:#b8d432" />
	</g>
</g>
<g
   id="g34"
   transform="translate(-0.1,-0.1)">
	<path
   d="m 33.5,27.808 v 0 H 24 v 18.386 c 0,1.893 4.184,3.429 9.37,3.454 v 0.002 h 0.113 c 0.006,0 0.011,0.001 0.017,0.001 v -0.001 0 c 5.246,0 9.5,-1.547 9.5,-3.456 V 27.808 Z"
   id="path26"
   inkscape:connector-curvature="0"
   style="fill:#59b4d9" />
	<path
   d="m 33.37,49.65 c 5.246,0 9.629,-1.547 9.629,-3.456 V 27.808 l -9.63,0.25 z"
   id="path28"
   inkscape:connector-curvature="0"
   style="fill:#3999c6" />
	<path
   d="m 43,27.808 c 0,1.909 -4.254,3.706 -9.5,3.706 -5.246,0 -9.5,-1.798 -9.5,-3.706 0,-1.909 4.254,-3.456 9.5,-3.456 5.246,0 9.5,1.547 9.5,3.456"
   id="path30"
   inkscape:connector-curvature="0"
   style="fill:#ffffff" />
	<path
   d="m 41.058,27.764 c 0,1.174 -3.384,2.125 -7.558,2.125 -4.174,0 -7.558,-0.951 -7.558,-2.125 0,-1.174 3.384,-2.125 7.558,-2.125 4.174,0 7.558,0.951 7.558,2.125"
   id="path32"
   inkscape:connector-curvature="0"
   style="fill:#59b4d9" />
</g>
</svg>