<?xml version="1.0" encoding="UTF-8" standalone="no"?>
<!-- Generator: Adobe Illustrator 18.1.0, SVG Export Plug-In . SVG Version: 6.00 Build 0)  -->

<svg
   xmlns:dc="http://purl.org/dc/elements/1.1/"
   xmlns:cc="http://creativecommons.org/ns#"
   xmlns:rdf="http://www.w3.org/1999/02/22-rdf-syntax-ns#"
   xmlns:svg="http://www.w3.org/2000/svg"
   xmlns="http://www.w3.org/2000/svg"
   xmlns:sodipodi="http://sodipodi.sourceforge.net/DTD/sodipodi-0.dtd"
   xmlns:inkscape="http://www.inkscape.org/namespaces/inkscape"
   version="1.1"
   x="0px"
   y="0px"
   viewBox="0 0 37.400002 34.500001"
   enable-background="new 0 0 230 177.7"
   xml:space="preserve"
   id="svg26"
   sodipodi:docname="AzVMSymbol.svg"
   width="37.400002"
   height="34.5"
   inkscape:version="0.92.4 (5da689c313, 2019-01-14)"><metadata
   id="metadata32"><rdf:RDF><cc:Work
       rdf:about=""><dc:format>image/svg+xml</dc:format><dc:type
         rdf:resource="http://purl.org/dc/dcmitype/StillImage" /></cc:Work></rdf:RDF></metadata><defs
   id="defs30" /><sodipodi:namedview
   pagecolor="#ffffff"
   bordercolor="#666666"
   borderopacity="1"
   objecttolerance="10"
   gridtolerance="10"
   guidetolerance="10"
   inkscape:pageopacity="0"
   inkscape:pageshadow="2"
   inkscape:window-width="713"
   inkscape:window-height="543"
   id="namedview28"
   showgrid="false"
   inkscape:zoom="1.3280811"
   inkscape:cx="19.1"
   inkscape:cy="17.350002"
   inkscape:window-x="0"
   inkscape:window-y="0"
   inkscape:window-maximized="0"
   inkscape:current-layer="svg26" />
<g
   id="Layer_1"
   transform="translate(-95.9,-71.7)">
</g>
<g
   id="Ibiza_Symbols"
   transform="translate(-95.9,-71.7)">
	<g
   id="g23">
		<path
   d="M 131,71.7 H 97.9 c -1.1,0 -2,1 -2,2.1 v 23.1 c 0,1.1 0.9,2.1 2,2.1 h 11.3 c 1.2,4.3 -0.4,4.9 -7.6,4.9 v 2.3 h 9.1 6.7 8.6 v -2.3 c -7.2,0 -7.9,-0.6 -6.7,-4.9 H 131 c 1.1,0 2.3,-1 2.3,-2.1 V 73.8 c 0,-1.1 -1.2,-2.1 -2.3,-2.1 z m -0.6,2.8 V 96.1 H 98.7 V 74.5 Z"
   id="path3"
   inkscape:connector-curvature="0"
   style="fill:#0078d7" />
		<g
   id="group975-1984_1_"
   transform="translate(1176.51,-2762.63)">
			<title
   id="title5">Sheet.975</title>
			<g
   id="shape976-1985_2_"
   transform="translate(0.8685,-17.652)">
				<title
   id="title7">Sheet.976</title>
				<path
   d="m -1057.4,2861.6 -5.8,-3.3 -5.8,3.3 v 0.1 l 5.8,3.3 z"
   id="path9"
   inkscape:connector-curvature="0"
   style="fill:#0078d7" />
			</g>
			<g
   id="shape977-1987_1_"
   transform="translate(15.8925)">
				<title
   id="title12">Sheet.977</title>
				<path
   d="m -1077.6,2848.3 v 6.6 l 5.8,-3.3 v -6.6 z"
   id="path14"
   inkscape:connector-curvature="0"
   style="fill:#0078d7" />
			</g>
			<g
   id="shape978-1989_1_">
				<title
   id="title17">Sheet.978</title>
				<path
   d="m -1062.9,2848.3 -5.8,-3.3 v 6.6 l 5.8,3.3 z"
   id="path19"
   inkscape:connector-curvature="0"
   style="fill:#0078d7" />
			</g>
		</g>
	</g>
</g>
</svg>