<?xml version="1.0" encoding="UTF-8" standalone="no"?>
<!-- Generator: Adobe Illustrator 19.1.0, SVG Export Plug-In . SVG Version: 6.00 Build 0)  -->

<svg
   xmlns:dc="http://purl.org/dc/elements/1.1/"
   xmlns:cc="http://creativecommons.org/ns#"
   xmlns:rdf="http://www.w3.org/1999/02/22-rdf-syntax-ns#"
   xmlns:svg="http://www.w3.org/2000/svg"
   xmlns="http://www.w3.org/2000/svg"
   xmlns:sodipodi="http://sodipodi.sourceforge.net/DTD/sodipodi-0.dtd"
   xmlns:inkscape="http://www.inkscape.org/namespaces/inkscape"
   version="1.1"
   id="Layer_1"
   x="0px"
   y="0px"
   viewBox="-280 372 44.799999 50"
   xml:space="preserve"
   sodipodi:docname="AzVPNGateway.svg"
   width="44.799999"
   height="50"
   inkscape:version="0.92.4 (5da689c313, 2019-01-14)"><metadata
   id="metadata14"><rdf:RDF><cc:Work
       rdf:about=""><dc:format>image/svg+xml</dc:format><dc:type
         rdf:resource="http://purl.org/dc/dcmitype/StillImage" /></cc:Work></rdf:RDF></metadata><defs
   id="defs12" /><sodipodi:namedview
   pagecolor="#ffffff"
   bordercolor="#666666"
   borderopacity="1"
   objecttolerance="10"
   gridtolerance="10"
   guidetolerance="10"
   inkscape:pageopacity="0"
   inkscape:pageshadow="2"
   inkscape:window-width="713"
   inkscape:window-height="543"
   id="namedview10"
   showgrid="false"
   inkscape:zoom="4.72"
   inkscape:cx="22.4"
   inkscape:cy="25"
   inkscape:window-x="0"
   inkscape:window-y="0"
   inkscape:window-maximized="0"
   inkscape:current-layer="Layer_1" />
<style
   type="text/css"
   id="style2">
	.st0{fill:#0078D7;}
</style>
<path
   class="st0"
   d="m -240.5,390.5 v 0 -2.2 c 0,-4.4 -1.6,-8.5 -4.4,-11.4 -2.6,-3 -8.4,-4.9 -12.7,-4.9 -4.3,0 -10.1,1.9 -12.7,4.9 -2.7,2.9 -4.4,7 -4.4,11.4 v 2.2 0 c -3.9,0 -5.3,2.3 -5.3,5.3 v 20.9 c 0,2.6 1.6,5.3 4.6,5.3 h 35.6 c 3.4,0 4.6,-2.7 4.6,-5.3 v -20.9 c 0,-2.7 -1.1,-5.3 -5.3,-5.3 z m -26.3,-1.1 c 0,-2.6 0.9,-5.9 2.4,-7.6 1.5,-1.7 4.7,-2.5 6.8,-2.6 2.1,0 5.3,0.9 6.8,2.6 1.5,1.7 2.4,3.9 2.4,6.4 v 2.2 h -18.4 z m 3.2,9.7 5.8,-5.8 5.8,5.8 h -4.1 v 4.2 h -3.5 v -4.2 z m -10.7,8.8 v -3.4 h 6 v -4 l 5.6,5.6 -5.6,5.6 v -3.9 z m 16.5,11.3 -5.9,-5.9 h 4.1 v -4.1 h 3.5 v 4.1 h 4.2 z m 16.5,-11.3 h -6 v 4 l -5.7,-5.7 5.7,-5.7 v 4 h 6 z"
   id="path4"
   inkscape:connector-curvature="0"
   style="fill:#0078d7" />
<g
   id="paths"
   transform="translate(-2.6)">
	<g
   id="Access_control">
	</g>
	<g
   id="Azure_active_directory">
	</g>
</g>
</svg>