<?xml version="1.0" encoding="UTF-8" standalone="no"?>
<!-- Generator: Adobe Illustrator 17.1.0, SVG Export Plug-In . SVG Version: 6.00 Build 0)  -->

<svg
   xmlns:dc="http://purl.org/dc/elements/1.1/"
   xmlns:cc="http://creativecommons.org/ns#"
   xmlns:rdf="http://www.w3.org/1999/02/22-rdf-syntax-ns#"
   xmlns:svg="http://www.w3.org/2000/svg"
   xmlns="http://www.w3.org/2000/svg"
   xmlns:sodipodi="http://sodipodi.sourceforge.net/DTD/sodipodi-0.dtd"
   xmlns:inkscape="http://www.inkscape.org/namespaces/inkscape"
   version="1.1"
   id="Layer_1"
   x="0px"
   y="0px"
   width="44.799999"
   height="50"
   viewBox="0 0 44.799999 50"
   enable-background="new 0 0 50 50"
   xml:space="preserve"
   sodipodi:docname="AzVPNGatewayColor.svg"
   inkscape:version="0.92.4 (5da689c313, 2019-01-14)"><metadata
   id="metadata15"><rdf:RDF><cc:Work
       rdf:about=""><dc:format>image/svg+xml</dc:format><dc:type
         rdf:resource="http://purl.org/dc/dcmitype/StillImage" /></cc:Work></rdf:RDF></metadata><defs
   id="defs13" /><sodipodi:namedview
   pagecolor="#ffffff"
   bordercolor="#666666"
   borderopacity="1"
   objecttolerance="10"
   gridtolerance="10"
   guidetolerance="10"
   inkscape:pageopacity="0"
   inkscape:pageshadow="2"
   inkscape:window-width="713"
   inkscape:window-height="543"
   id="namedview11"
   showgrid="false"
   inkscape:zoom="4.72"
   inkscape:cx="22.4"
   inkscape:cy="25"
   inkscape:window-x="0"
   inkscape:window-y="0"
   inkscape:window-maximized="0"
   inkscape:current-layer="Layer_1" />
<path
   d="m 39.5,18.5 v 0 -2.2 C 39.5,11.9 37.9,7.8 35.1,4.9 32.5,1.9 26.7,0 22.4,0 18.1,0 12.3,1.9 9.7,4.9 7,7.8 5.3,11.9 5.3,16.3 v 2.2 0 l 7.9,0.9 v -2 c 0,-2.6 0.9,-5.9 2.4,-7.6 1.5,-1.7 4.7,-2.5 6.8,-2.6 2.1,0 5.3,0.9 6.8,2.6 1.5,1.7 2.4,3.9 2.4,6.4 v 3.2 z"
   id="path2"
   inkscape:connector-curvature="0"
   style="fill:#a0a1a2" />
<path
   d="m 5.3,18.5 v 0 C 1.4,18.5 0,20.8 0,23.8 V 44.7 C 0,47.3 1.6,50 4.6,50 h 35.6 c 3.4,0 4.6,-2.7 4.6,-5.3 V 23.8 c 0,-2.7 -1.1,-5.3 -5.3,-5.3 v 0 z"
   id="path4"
   inkscape:connector-curvature="0"
   style="fill:#59b4d9" />
<path
   d="m 31.5,18.5 v 0 H 5.3 v 0 C 1.4,18.5 0,20.8 0,23.8 V 44.7 C 0,47.3 1.6,50 4.6,50 h 6.7 z"
   id="path6"
   inkscape:connector-curvature="0"
   style="opacity:0.15;fill:#ffffff" />
<path
   d="m 16.4,27.1 5.8,-5.8 5.8,5.8 h -4.1 v 4.2 h -3.5 v -4.2 c 0,0 -4,0 -4,0 z M 5.7,35.9 v -3.4 h 6 v -4 l 5.6,5.6 -5.6,5.6 v -3.9 h -6 z m 16.5,11.3 -5.9,-5.9 h 4.1 v -4.1 h 3.5 v 4.1 h 4.2 z M 38.7,35.9 h -6 v 4 L 27,34.2 32.7,28.5 v 4 h 6 z"
   id="path8"
   inkscape:connector-curvature="0"
   style="fill:#ffffff" />
</svg>