<?xml version="1.0" encoding="UTF-8" standalone="no"?>
<!-- Generator: Adobe Illustrator 18.1.0, SVG Export Plug-In . SVG Version: 6.00 Build 0)  -->

<svg
   xmlns:dc="http://purl.org/dc/elements/1.1/"
   xmlns:cc="http://creativecommons.org/ns#"
   xmlns:rdf="http://www.w3.org/1999/02/22-rdf-syntax-ns#"
   xmlns:svg="http://www.w3.org/2000/svg"
   xmlns="http://www.w3.org/2000/svg"
   xmlns:sodipodi="http://sodipodi.sourceforge.net/DTD/sodipodi-0.dtd"
   xmlns:inkscape="http://www.inkscape.org/namespaces/inkscape"
   version="1.0"
   x="0px"
   y="0px"
   viewBox="0 0 37.836967 40.900002"
   enable-background="new 0 0 152 117.5"
   xml:space="preserve"
   id="svg89"
   sodipodi:docname="AzWebAppWebJobs.svg"
   width="37.836967"
   height="40.900002"
   inkscape:version="0.92.4 (5da689c313, 2019-01-14)"><metadata
   id="metadata95"><rdf:RDF><cc:Work
       rdf:about=""><dc:format>image/svg+xml</dc:format><dc:type
         rdf:resource="http://purl.org/dc/dcmitype/StillImage" /></cc:Work></rdf:RDF></metadata><defs
   id="defs93" /><sodipodi:namedview
   pagecolor="#ffffff"
   bordercolor="#666666"
   borderopacity="1"
   objecttolerance="10"
   gridtolerance="10"
   guidetolerance="10"
   inkscape:pageopacity="0"
   inkscape:pageshadow="2"
   inkscape:window-width="713"
   inkscape:window-height="543"
   id="namedview91"
   showgrid="false"
   inkscape:zoom="2.0085106"
   inkscape:cx="21.527541"
   inkscape:cy="20.55"
   inkscape:window-x="0"
   inkscape:window-y="0"
   inkscape:window-maximized="0"
   inkscape:current-layer="svg89" />
<g
   id="Layer_1"
   transform="translate(-54.472459,-38.4)">
	<g
   id="Azure">
	</g>
	<g
   id="BizTalk_Services"
   transform="translate(37.3575,-2500.2)">
	</g>
	<g
   id="Key_Vault">
	</g>
	<g
   id="Mobile_Engagement">
	</g>
	<g
   id="Office_subscription">
		<g
   id="Office_subscription_1_">
		</g>
	</g>
</g>
<g
   id="paths"
   transform="translate(-54.472459,-38.4)">
	<g
   id="Access_control">
	</g>
	<g
   id="Azure_active_directory">
	</g>
	<g
   id="API_Management">
	</g>
	<g
   id="Azure_automation">
	</g>
	<g
   id="Azure_SQL_database">
	</g>
	<g
   id="Azure_subscription">
	</g>
	<g
   id="Backup_service">
	</g>
	<g
   id="Bitbucket_code_source">
	</g>
	<g
   id="Azure_cache">
	</g>
	<g
   id="Content_delivery_network__x28_CDN_x29_">
	</g>
	<g
   id="Cloud_service">
	</g>
	<g
   id="CodePlex">
	</g>
	<g
   id="Dropbox_code_source">
	</g>
	<g
   id="Express_route">
	</g>
	<g
   id="Git_repository">
	</g>
	<g
   id="GitHub_code">
	</g>
	<g
   id="HD_Insight">
	</g>
	<g
   id="Health_monitoring">
	</g>
	<g
   id="Healthy">
	</g>
	<g
   id="BizTalk_hybrid_connection">
	</g>
	<g
   id="Hybrid_connection_manager_for_BizTalk_hybrid_connection">
	</g>
	<g
   id="Hyper-V_recovery_manager">
	</g>
	<g
   id="Machine_learning">
	</g>
	<g
   id="Media_services">
	</g>
	<g
   id="Microsoft_account">
	</g>
	<g
   id="Mobile_services">
	</g>
	<g
   id="Multi-factor_authentication">
	</g>
	<g
   id="MySQL_database">
	</g>
	<g
   id="Notification_hub">
	</g>
	<g
   id="Notification_topic">
	</g>
	<g
   id="Cloud_Office_365">
	</g>
	<g
   id="Office_365">
	</g>
	<g
   id="OS_image">
	</g>
	<g
   id="Remote_app">
	</g>
	<g
   id="Task_scheduler">
	</g>
	<g
   id="Azure_SDK">
	</g>
	<g
   id="Service_bus">
	</g>
	<g
   id="Service_bus_queue">
	</g>
	<g
   id="Service_bus_relay">
	</g>
	<g
   id="Service_bus_topic">
	</g>
	<g
   id="Service_endpoint">
	</g>
	<g
   id="Custom_create">
	</g>
	<g
   id="SQL_data_sync">
	</g>
	<g
   id="SQL_reporting">
	</g>
	<g
   id="Startup_task">
	</g>
	<g
   id="Windows_Azure_storage">
	</g>
	<g
   id="Storage_blob">
	</g>
	<g
   id="Storage_table">
	</g>
	<g
   id="Storage_queue">
	</g>
	<g
   id="StorSimple">
	</g>
	<g
   id="Traffic_manager">
	</g>
	<g
   id="VHD">
	</g>
	<g
   id="VHD_data_disk">
	</g>
	<g
   id="Virtual_machine">
	</g>
	<g
   id="Team_foundation">
	</g>
	<g
   id="Azure_web_site">
	</g>
	<g
   id="Web_role">
	</g>
	<g
   id="Web_roles">
	</g>
</g>
<g
   id="Layer_57"
   transform="translate(-54.472459,-38.4)">
	<g
   id="g84">
		<path
   d="M 73.8,70.8 C 73.7,70.7 73.6,70.7 73.5,70.7 V 70 69.4 c 0,-0.2 -0.2,-0.4 -0.5,-0.5 -0.3,0 -0.5,0.2 -0.5,0.5 v 1.9 c 0,0.1 0,0.1 0.1,0.1 0,0.1 0.1,0.2 0.2,0.3 l 1.9,1.7 c 0.2,0.2 0.6,0.2 0.8,0 l 0.1,-0.1 c 0.2,-0.2 0.2,-0.6 0,-0.8 z"
   id="path68"
   inkscape:connector-curvature="0"
   style="fill:#006fd4" />
		<path
   d="m 69.2,71.1 c -0.1,0 -0.2,0.1 -0.2,0.2 0,0.1 0.1,0.2 0.2,0.2 0.1,0 0.2,-0.1 0.2,-0.2 0.1,-0.1 0,-0.3 -0.2,-0.2 z"
   id="path70"
   inkscape:connector-curvature="0"
   style="fill:#006fd4" />
		<path
   d="m 73.1,67.7 c 0.1,0 0.2,-0.1 0.2,-0.2 0,-0.1 -0.1,-0.2 -0.2,-0.2 -0.1,0 -0.2,0.1 -0.2,0.2 0,0.1 0.1,0.2 0.2,0.2 z"
   id="path72"
   inkscape:connector-curvature="0"
   style="fill:#006fd4" />
		<path
   d="m 77,71.1 c 0,0.1 0.1,0.2 0.2,0.2 0.1,0 0.2,-0.1 0.2,-0.2 0,-0.1 -0.1,-0.2 -0.2,-0.2 C 77.1,70.8 77,71 77,71.1 Z"
   id="path74"
   inkscape:connector-curvature="0"
   style="fill:#006fd4" />
		<path
   d="m 72.9,75.2 c -0.1,0 -0.2,0.1 -0.2,0.2 0,0.1 0.1,0.2 0.2,0.2 0.1,0 0.2,-0.1 0.2,-0.2 0,-0.1 -0.1,-0.2 -0.2,-0.2 z"
   id="path76"
   inkscape:connector-curvature="0"
   style="fill:#006fd4" />
		<path
   d="m 79.5,71.2 c 0,-0.2 0,-0.3 0,-0.5 L 81,69.8 c -0.1,-0.5 -0.2,-1 -0.4,-1.5 v 0 0 l -1.7,0.1 c -0.1,-0.2 -0.2,-0.4 -0.4,-0.6 0,0 -0.1,-0.1 -0.1,-0.1 0,0 0,0 0,0 l 0.9,-1.5 C 79.2,66.1 79,65.9 78.9,65.8 78.7,65.6 78.4,65.4 78.2,65.2 L 76.7,66 c -0.3,-0.2 -0.5,-0.3 -0.8,-0.4 v -0.8 -0.9 c 0,0 0,0 0,0 v 0 c -0.5,-0.2 -1,-0.3 -1.5,-0.4 L 73.6,65 c -0.1,0 -0.3,0 -0.4,0 -0.2,0 -0.3,0 -0.5,0 l -0.9,-1.5 c -0.5,0.1 -1,0.2 -1.5,0.4 v 0 c 0,0 0,0 0,0 l 0.1,1.7 c -0.3,0.1 -0.5,0.3 -0.8,0.5 l -1.5,-0.9 c -0.2,0.2 -0.5,0.4 -0.7,0.7 -0.1,0.1 -0.3,0.3 -0.4,0.4 l 0.5,0.9 v 0 l 0.4,0.6 c -0.2,0.3 -0.3,0.5 -0.4,0.8 h -1.8 c -0.2,0.5 -0.3,1 -0.4,1.5 l 1.6,0.8 c 0,0.2 0,0.3 0,0.5 0,0.2 0,0.3 0,0.5 v 0 0 l -1.5,0.9 c 0.1,0.5 0.2,1 0.4,1.5 v 0 0 h 0.9 0.8 c 0.1,0.3 0.3,0.5 0.5,0.8 l -0.9,1.5 c 0.3,0.3 0.5,0.6 0.8,0.8 0.1,0.1 0.2,0.1 0.3,0.2 l 0.9,-0.5 v 0 l 0.6,-0.4 c 0.3,0.2 0.5,0.3 0.8,0.4 v 1.8 c 0.5,0.2 1,0.3 1.5,0.4 l 0.8,-1.5 c 0.2,0 0.3,0 0.5,0 0.2,0 0.3,0 0.5,0 l 0.4,0.6 0.5,0.9 c 0.5,-0.1 1,-0.2 1.5,-0.4 v 0 c 0,0 0,0 0,0 V 78 77.2 c 0.2,-0.1 0.5,-0.2 0.7,-0.4 0,0 0,0 0,0 0,0 0,0 0.1,0 l 1.5,0.9 c 0.2,-0.1 0.3,-0.3 0.5,-0.5 0.2,-0.2 0.4,-0.4 0.6,-0.6 l -0.9,-1.5 c 0,0 0,0 0,-0.1 0,0 0,0 0,0 0.1,-0.2 0.3,-0.5 0.4,-0.7 h 0.8 0.9 v 0 0 c 0.2,-0.5 0.3,-1 0.4,-1.5 L 79.6,72 C 79.5,71.5 79.5,71.3 79.5,71.2 Z M 74.1,76 v 0 c -0.3,0.1 -0.5,0.1 -0.8,0.1 -1.1,0 -2.2,-0.3 -3,-1 v 0 c -1.2,-0.9 -1.9,-2.3 -1.9,-3.8 0,-1.1 0.4,-2.2 1,-3 0.9,-1.2 2.2,-1.9 3.8,-1.9 1.8,0 3.3,0.9 4.2,2.3 0.5,0.7 0.7,1.6 0.7,2.5 0,2.4 -1.7,4.4 -4,4.8 z"
   id="path78"
   inkscape:connector-curvature="0"
   style="fill:#006fd4" />
		<path
   d="m 90.4,69.2 -1.1,-0.7 -0.1,-0.9 1,-1.2 -0.6,-1.1 H 89.4 L 88,65.7 87.3,65.2 87.2,63.7 86,63.3 l -0.1,0.2 -0.7,1.1 -0.9,0.1 -1.2,-1 -1,0.6 v 0.2 l 0.3,1.3 -0.5,0.7 -1.5,0.1 -0.4,1.2 0.2,0.1 1.1,0.7 0.1,0.9 -0.9,1.1 c 0.1,0.2 0.1,0.4 0.2,0.6 l 0.3,0.6 h 0.2 l 1.3,-0.3 0.7,0.5 0.1,1.5 1.2,0.3 0.1,-0.2 0.7,-1.1 0.9,-0.1 1.2,1 1,-0.6 v -0.2 l -0.3,-1.3 0.5,-0.7 1.6,-0.1 0.3,-1.2 z M 86.9,69 c -0.2,0.9 -1.2,1.4 -2.1,1.2 -0.9,-0.2 -1.4,-1.2 -1.2,-2.1 0.2,-0.9 1.2,-1.5 2.1,-1.2 0.9,0.3 1.4,1.2 1.2,2.1 z"
   id="path80"
   inkscape:connector-curvature="0"
   style="fill:#006fd4" />
		<path
   d="m 89.8,65 0.6,1 c 1.3,-2.7 1.3,-4.1 1.5,-4.8 1.1,-5.2 0,-10.9 -3.5,-15.4 -3.7,-4.9 -9.4,-7.4 -15,-7.4 -4,0 -8.1,1.3 -11.5,3.9 -8.3,6.4 -9.9,18.2 -3.5,26.5 1.9,2.5 4.4,4.4 7.2,5.7 L 65,72.5 66,72 c -1,-0.5 -2,-1.2 -3,-1.9 -0.1,-1.8 0,-4.5 1.1,-7.5 0.8,0.1 1.5,-0.1 2.3,-0.4 0.4,0.4 0.9,0.8 1.3,1.1 0.4,0.3 1.6,1.1 2.4,1.6 v -1.3 l 2.3,-0.7 C 71,62 69.7,61.1 69.5,61 c -0.3,-0.2 -0.6,-0.5 -0.9,-0.7 0.9,-1.5 1,-3.4 0.2,-5 0.2,-0.2 0.4,-0.4 0.6,-0.6 1.5,-1.4 2.9,-2.6 4.3,-3.5 l 6.3,5.3 c -0.5,1.2 -0.5,2.6 0.4,3.6 1.2,1.6 3.4,1.8 5,0.7 0.1,-0.1 0.1,-0.1 0.2,-0.2 1.3,0.9 2.6,1.8 3.3,2.3 l -0.8,2.3 0.3,0.2 M 59.9,66.7 C 55.9,61 56,53.5 59.8,48 c -0.4,1.6 -0.5,3.9 0.7,6.6 -1.3,1.7 -1.4,4.2 0,6 0.1,0.1 0.2,0.3 0.4,0.4 -0.6,2 -0.9,4 -1,5.7 z M 70.6,48.1 c -1.5,1 -3,2.3 -4.6,4 -0.2,0.2 -0.4,0.4 -0.6,0.6 -0.9,-0.2 -1.8,-0.1 -2.7,0.2 -1.5,-3.2 -1.4,-5.7 -1.2,-7.1 0.6,-0.6 1.1,-1.1 1.8,-1.6 0.9,-0.7 1.8,-1.2 2.8,-1.7 1.2,1.9 2.8,3.8 4.5,5.6 z m 2.3,-1.4 v 0 c 0,0 0,0 0,0 v 0 c -1.5,-1.6 -3,-3.2 -4.6,-5 1.6,-0.5 3.3,-0.8 5,-0.8 3.8,0 7.5,1.3 10.5,3.8 -2.4,-0.5 -6.4,-0.4 -10.9,2 z M 89.3,61.5 C 88.6,61 87.7,60.3 86.5,59.3 86.9,58.2 86.8,56.9 86,55.9 84.9,54.5 83,54.1 81.4,55 79.7,53.5 77.9,51.8 75.9,49.8 v 0 c 0,0 0,0 0,0 5.8,-3.1 9.9,-2.8 10.3,-2.8 0.1,0.1 0.1,0.2 0.2,0.2 3.3,4.3 4.2,9.5 2.9,14.3 z"
   id="path82"
   inkscape:connector-curvature="0"
   style="fill:#006fd4" />
	</g>
</g>
<g
   id="Ibiza_Symbols"
   transform="translate(-54.472459,-38.4)">
	<g
   id="SQL_Database_Premium">
	</g>
</g>
</svg>