<?xml version="1.0" encoding="UTF-8" standalone="no"?>
<!-- Generator: Adobe Illustrator 17.1.0, SVG Export Plug-In . SVG Version: 6.00 Build 0)  -->

<svg
   xmlns:dc="http://purl.org/dc/elements/1.1/"
   xmlns:cc="http://creativecommons.org/ns#"
   xmlns:rdf="http://www.w3.org/1999/02/22-rdf-syntax-ns#"
   xmlns:svg="http://www.w3.org/2000/svg"
   xmlns="http://www.w3.org/2000/svg"
   xmlns:sodipodi="http://sodipodi.sourceforge.net/DTD/sodipodi-0.dtd"
   xmlns:inkscape="http://www.inkscape.org/namespaces/inkscape"
   version="1.1"
   id="Layer_1"
   x="0px"
   y="0px"
   height="50.027779"
   width="50.072113"
   viewBox="0 0 180.25961 180.1"
   enable-background="new 0 0 180 180"
   xml:space="preserve"
   sodipodi:docname="AzWebAppWebJobsColor.svg"
   inkscape:version="0.92.4 (5da689c313, 2019-01-14)"><metadata
   id="metadata31"><rdf:RDF><cc:Work
       rdf:about=""><dc:format>image/svg+xml</dc:format><dc:type
         rdf:resource="http://purl.org/dc/dcmitype/StillImage" /></cc:Work></rdf:RDF></metadata><defs
   id="defs29" /><sodipodi:namedview
   pagecolor="#ffffff"
   bordercolor="#666666"
   borderopacity="1"
   objecttolerance="10"
   gridtolerance="10"
   guidetolerance="10"
   inkscape:pageopacity="0"
   inkscape:pageshadow="2"
   inkscape:window-width="713"
   inkscape:window-height="543"
   id="namedview27"
   showgrid="false"
   inkscape:zoom="4.72"
   inkscape:cx="25.016559"
   inkscape:cy="25.027778"
   inkscape:window-x="0"
   inkscape:window-y="0"
   inkscape:window-maximized="0"
   inkscape:current-layer="Layer_1" />
<path
   d="m 118.85961,132.5 c -13.3,10.1 -29.199998,15.1 -44.599998,15.1 -22.3,0 -44.3,-10.1 -58.7,-28.8 -25.1999995,-32.4 -19.0999995,-78.8 13.3,-103.7 13.7,-10.1 29.2,-15.1 45,-15.1 22.3,0 44.299998,10.1 58.699998,28.8 24.8,32.4 18.3,78.8 -13.7,103.7"
   id="path2"
   inkscape:connector-curvature="0"
   style="fill:#59b4d9" />
<path
   d="m 132.55961,82.8 c 1.8,-5 1.4,-10.8 -2.2,-15.1 -5,-6.5 -13.7,-7.9 -20.5,-4 -7.6,-6.8 -15.799998,-14.4 -24.499998,-23 26.299998,-14.4 44.999998,-13 46.099998,-13 -3.2,-4 -6.8,-7.6 -10.8,-10.8 -11.5,-1.8 -29.199998,-1.4 -49.299998,9.4 v 0 0 c -6.8,-6.8 -13.7,-14.4 -20.5,-22.7 -3.2,1.1 -6.5,2.5 -9.7,4 5,8.3 11.9,16.9 19.8,25.2 v 0 0 c -6.9,4.6 -13.7,10.4 -20.6,17.6 -0.7,1.1 -1.8,1.8 -2.5,2.9 -4,-0.7 -8.3,-0.7 -12.2,0.7 -6.5,-14.4 -6.1,-25.6 -5,-31.7 -2.5,3.2 -5,6.5 -7.6,9.7 -1.8,7.2 -2.2,17.3 2.9,29.5 -6.0999995,7.9 -6.0999995,18.7 0,27 0.4,0.7 1.1,1.4 1.8,1.8 -2.5,9 -4,18 -4.3,25.6 0.7,1.1 1.1,1.8 1.8,2.9 3.6,4.7 7.6,8.6 11.9,12.2 -0.4,-8.3 0,-20.2 5,-33.5 3.6,0.4 6.8,-0.4 10.4,-1.8 1.8,1.8 4,3.2 6.1,5 7.2,5.8 14.4,10.1 21.6,13.7 -0.4,3.6 0.4,7.2 2.9,10.4 5,6.5 14,7.6 20.5,2.9 1.4,-1.1 2.5,-2.2 3.2,-3.6 11.199998,2.5 21.199998,2.9 28.399998,2.9 3.2,-3.2 6.5,-6.8 9,-10.4 v 0 c 0.4,-0.4 0.4,-0.7 0.7,-1.1 -4.7,1.1 -18,2.9 -36.399998,-2.5 -0.4,-2.2 -1.4,-4 -2.5,-5.8 -4.7,-6.1 -13.3,-7.6 -19.4,-3.2 -6.5,-3.6 -13,-7.9 -19.8,-13.3 -1.4,-1.1 -2.9,-2.2 -4,-3.2 4.3,-6.5 4.7,-15.1 1.1,-22.3 0.7,-0.7 1.8,-1.8 2.5,-2.5 6.6,-5.8 13.8,-11.6 19.6,-15.5 9.3,8.6 19,16.5 27.999998,23.7 -2.5,5 -2.2,11.5 1.8,16.2 5.4,6.8 15.5,8.3 22.3,2.9 0.4,-0.4 0.7,-0.7 1.1,-1.1 6.5,4.7 11.9,8.3 14.8,10.1 0.7,-2.2 1.4,-4.3 1.8,-6.5 -3.6,-2.1 -7.9,-5.4 -13.3,-9.7 z"
   id="path4"
   inkscape:connector-curvature="0"
   style="fill:#ffffff" />
<g
   id="g8"
   transform="translate(0.05961247)">
	<path
   d="m 161.6,93.2 -1.4,0.7 -11.2,5.8 -7.6,-3.2 -4.7,-13.3 H 126 l -0.7,1.4 -4,11.9 -7.6,3.2 -12.6,-6.1 -7.6,7.9 0.7,1.4 5.8,11.2 -3.2,7.6 -13.3,4.7 v 11.2 l 1.4,0.4 11.9,4 3.2,7.6 -6,12.4 7.9,7.9 1.4,-0.7 11.2,-5.8 7.6,3.2 4.7,13.3 H 138 l 0.4,-1.4 4,-11.9 7.6,-3.2 13,6.1 7.9,-7.9 -7.2,-12.6 3.2,-7.6 13.3,-4.7 V 126 l -1.4,-0.7 -11.9,-4 -3.2,-7.6 5.4,-11.5 z m -29.8,54 c -8.6,0 -15.5,-6.8 -15.5,-15.5 0,-8.6 6.8,-15.5 15.5,-15.5 8.7,0 15.5,6.8 15.5,15.5 -0.1,8.7 -6.9,15.5 -15.5,15.5 z"
   id="path6"
   inkscape:connector-curvature="0"
   style="fill:#7a7a7a" />
</g>
<g
   id="g14"
   transform="translate(0.05961247)">
	<path
   d="m 116.3,131.8 c 0,6.1 4,11.5 9.4,14 l 11.9,-28.4 c -1.8,-0.7 -3.6,-1.1 -5.8,-1.1 -8.7,0 -15.5,6.8 -15.5,15.5 z"
   id="path10"
   inkscape:connector-curvature="0"
   style="fill:none" />
	<path
   enable-background="new    "
   d="m 116.3,131.8 c 0,-8.6 6.8,-15.5 15.5,-15.5 2.2,0 4,0.4 5.8,1.1 l 7.9,-19.1 -3.6,-1.4 -5,-13.7 H 126 l -0.7,1.4 -4,11.9 -7.6,3.2 -12.6,-6.1 -7.6,7.9 0.7,1.4 5.8,11.2 -3.2,7.6 -13.3,4.7 v 11.2 l 1.4,0.4 11.9,4 3.2,7.6 -6,12.4 7.9,7.9 1.4,-0.7 11.2,-5.8 3.2,1.4 7.9,-19.1 c -5.4,-2.4 -9.3,-7.8 -9.3,-13.9 z"
   id="path12"
   inkscape:connector-curvature="0"
   style="opacity:0.25;fill:#ffffff" />
</g>
<g
   id="g18"
   transform="translate(0.05961247)">
	<path
   d="m 72.6,128.7 -0.9,0.4 -6.6,3.4 -4.5,-1.9 -2.8,-7.9 h -6.4 l -0.4,0.9 -2.3,7 -4.5,1.9 -7.4,-3.6 -4.5,4.7 0.4,0.9 3.4,6.6 -1.9,4.5 -7.9,2.8 v 6.6 l 0.9,0.2 7,2.3 1.9,4.5 -3.6,7.4 4.7,4.7 0.9,-0.4 6.6,-3.4 4.5,1.9 2.8,7.9 h 6.6 l 0.2,-0.9 2.3,-7 4.5,-1.9 7.7,3.6 4.7,-4.7 -4.3,-7.4 1.9,-4.5 7.9,-2.8 v -6.4 l -0.9,-0.4 -7,-2.3 -1.9,-4.5 3.2,-6.8 z m -17.7,31.9 c -5.1,0 -9.1,-4 -9.1,-9.1 0,-5.1 4,-9.1 9.1,-9.1 5.1,0 9.1,4 9.1,9.1 0,5.1 -4,9.1 -9.1,9.1 z"
   id="path16"
   inkscape:connector-curvature="0"
   style="fill:#7a7a7a" />
</g>
<g
   id="g24"
   transform="translate(0.05961247)">
	<path
   d="m 45.8,151.5 c 0,3.6 2.3,6.8 5.5,8.3 l 7,-16.8 c -1.1,-0.4 -2.1,-0.6 -3.4,-0.6 -5.1,-0.1 -9.1,4 -9.1,9.1 z"
   id="path20"
   inkscape:connector-curvature="0"
   style="fill:none" />
	<path
   enable-background="new    "
   d="m 45.8,151.5 c 0,-5.1 4,-9.1 9.1,-9.1 1.3,0 2.3,0.2 3.4,0.6 l 4.7,-11.3 -2.1,-0.9 -3,-8.1 h -6.4 l -0.4,0.9 -2.3,7 -4.5,1.9 -7.4,-3.6 -4.5,4.7 0.4,0.9 3.4,6.6 -1.9,4.5 -7.9,2.8 v 6.6 l 0.9,0.2 7,2.3 1.9,4.5 -3.6,7.4 4.7,4.7 0.9,-0.4 6.6,-3.4 1.9,0.9 4.7,-11.3 c -3.3,-1.6 -5.6,-4.8 -5.6,-8.4 z"
   id="path22"
   inkscape:connector-curvature="0"
   style="opacity:0.25;fill:#ffffff" />
</g>
</svg>