<?xml version="1.0" encoding="UTF-8" standalone="no"?>
<svg
   xmlns:dc="http://purl.org/dc/elements/1.1/"
   xmlns:cc="http://creativecommons.org/ns#"
   xmlns:rdf="http://www.w3.org/1999/02/22-rdf-syntax-ns#"
   xmlns:svg="http://www.w3.org/2000/svg"
   xmlns="http://www.w3.org/2000/svg"
   xmlns:sodipodi="http://sodipodi.sourceforge.net/DTD/sodipodi-0.dtd"
   xmlns:inkscape="http://www.inkscape.org/namespaces/inkscape"
   id="Layer_1"
   data-name="Layer 1"
   viewBox="0 0 50 50"
   version="1.1"
   sodipodi:docname="BlockchainColor.svg"
   width="50"
   height="50"
   inkscape:version="0.92.4 (5da689c313, 2019-01-14)">
  <metadata
     id="metadata25">
    <rdf:RDF>
      <cc:Work
         rdf:about="">
        <dc:format>image/svg+xml</dc:format>
        <dc:type
           rdf:resource="http://purl.org/dc/dcmitype/StillImage" />
      </cc:Work>
    </rdf:RDF>
  </metadata>
  <defs
     id="defs23" />
  <sodipodi:namedview
     pagecolor="#ffffff"
     bordercolor="#666666"
     borderopacity="1"
     objecttolerance="10"
     gridtolerance="10"
     guidetolerance="10"
     inkscape:pageopacity="0"
     inkscape:pageshadow="2"
     inkscape:window-width="713"
     inkscape:window-height="543"
     id="namedview21"
     showgrid="false"
     inkscape:zoom="4.72"
     inkscape:cx="25"
     inkscape:cy="25"
     inkscape:window-x="0"
     inkscape:window-y="0"
     inkscape:window-maximized="0"
     inkscape:current-layer="Layer_1" />
  <title
     id="title2">Blockchain_icon</title>
  <g
     id="g16">
    <g
       id="g10">
      <circle
         cx="24"
         cy="22"
         r="5"
         id="circle4"
         style="fill:#0072c6" />
      <path
         d="M 38.2,17.2 A 14.983,14.983 0 0 0 9.206,19.622 11.991,11.991 0 1 0 23,37.572 v -8.683 a 6.977,6.977 0 0 1 -4.215,-2.26 l -0.9,0.9 a 6.03,6.03 0 1 1 -1.414,-1.414 l 1.192,-1.192 a 6.993,6.993 0 1 1 12.758,-0.142 l 2.2,1.575 a 4.9,4.9 0 0 1 0.583,-0.505 5.263,5.263 0 1 1 -1.746,2.131 L 29.342,26.47 A 6.977,6.977 0 0 1 25,28.885 V 36.9 c 0.01,0.015 0.016,0.032 0.026,0.047 A 12.992,12.992 0 1 0 38.2,17.2 Z"
         id="path6"
         inkscape:connector-curvature="0"
         style="fill:#0072c6" />
      <circle
         cx="13"
         cy="31"
         r="4"
         id="circle8"
         style="fill:#0072c6" />
    </g>
    <g
       id="g14"
       style="opacity:0.3">
      <path
         d="M 13.206,23.622 A 14.932,14.932 0 0 1 36.373,13.6 14.95,14.95 0 0 0 9.206,19.622 11.983,11.983 0 0 0 6.763,41.237 11.969,11.969 0 0 1 13.206,23.622 Z"
         id="path12"
         inkscape:connector-curvature="0"
         style="fill:#ffffff" />
    </g>
  </g>
  <rect
     width="50"
     height="50"
     id="rect18"
     x="0"
     y="0"
     style="fill:none" />
</svg>
