<?xml version="1.0" encoding="UTF-8" standalone="no"?>
<!-- Generator: Adobe Illustrator 18.1.0, SVG Export Plug-In . SVG Version: 6.00 Build 0)  -->

<svg
   xmlns:dc="http://purl.org/dc/elements/1.1/"
   xmlns:cc="http://creativecommons.org/ns#"
   xmlns:rdf="http://www.w3.org/1999/02/22-rdf-syntax-ns#"
   xmlns:svg="http://www.w3.org/2000/svg"
   xmlns="http://www.w3.org/2000/svg"
   xmlns:sodipodi="http://sodipodi.sourceforge.net/DTD/sodipodi-0.dtd"
   xmlns:inkscape="http://www.inkscape.org/namespaces/inkscape"
   version="1.0"
   x="0px"
   y="0px"
   viewBox="0 0 63 37.5"
   enable-background="new 0 0 152 117.5"
   xml:space="preserve"
   id="svg41"
   sodipodi:docname="CloudOffice.svg"
   width="63"
   height="37.5"
   inkscape:version="0.92.4 (5da689c313, 2019-01-14)"><metadata
   id="metadata47"><rdf:RDF><cc:Work
       rdf:about=""><dc:format>image/svg+xml</dc:format><dc:type
         rdf:resource="http://purl.org/dc/dcmitype/StillImage" /></cc:Work></rdf:RDF></metadata><defs
   id="defs45" /><sodipodi:namedview
   pagecolor="#ffffff"
   bordercolor="#666666"
   borderopacity="1"
   objecttolerance="10"
   gridtolerance="10"
   guidetolerance="10"
   inkscape:pageopacity="0"
   inkscape:pageshadow="2"
   inkscape:window-width="713"
   inkscape:window-height="543"
   id="namedview43"
   showgrid="false"
   inkscape:zoom="2.0085106"
   inkscape:cx="31.5"
   inkscape:cy="18.65"
   inkscape:window-x="0"
   inkscape:window-y="0"
   inkscape:window-maximized="0"
   inkscape:current-layer="svg41" />
<g
   id="Layer_1"
   transform="translate(-44.5,-39.9)">
	<g
   id="Azure">
	</g>
	<g
   id="BizTalk_Services"
   transform="translate(37.3575,-2500.2)">
	</g>
	<g
   id="Key_Vault">
	</g>
	<g
   id="Mobile_Engagement">
	</g>
</g>
<g
   id="paths"
   transform="translate(-44.5,-39.9)">
	<g
   id="Access_control">
	</g>
	<g
   id="Azure_active_directory">
	</g>
	<g
   id="API_Management">
	</g>
	<g
   id="Azure_automation">
	</g>
	<g
   id="Azure_SQL_database">
	</g>
	<g
   id="Azure_subscription">
	</g>
	<g
   id="Backup_service">
	</g>
	<g
   id="Bitbucket_code_source">
	</g>
	<g
   id="Azure_cache">
	</g>
	<g
   id="Content_delivery_network__x28_CDN_x29_">
	</g>
	<g
   id="Cloud_service">
	</g>
	<g
   id="CodePlex">
	</g>
	<g
   id="Dropbox_code_source">
	</g>
	<g
   id="Express_route">
	</g>
	<g
   id="Git_repository">
	</g>
	<g
   id="GitHub_code">
	</g>
	<g
   id="HD_Insight">
	</g>
	<g
   id="Health_monitoring">
	</g>
	<g
   id="Healthy">
	</g>
	<g
   id="BizTalk_hybrid_connection">
	</g>
	<g
   id="Hybrid_connection_manager_for_BizTalk_hybrid_connection">
	</g>
	<g
   id="Hyper-V_recovery_manager">
	</g>
	<g
   id="Machine_learning">
	</g>
	<g
   id="Media_services">
	</g>
	<g
   id="Microsoft_account">
	</g>
	<g
   id="Mobile_services">
	</g>
	<g
   id="Multi-factor_authentication">
	</g>
	<g
   id="MySQL_database">
	</g>
	<g
   id="Notification_hub">
	</g>
	<g
   id="Notification_topic">
	</g>
	<g
   id="Cloud_Office_365">
		<path
   d="m 102.4,58.8 c 0.1,-0.5 0.1,-0.9 0.1,-1.3 0,-6.7 -5.1,-12.2 -11.4,-12.2 -1.6,0 -3.3,0.4 -4.8,1.1 -2.1,-4 -6,-6.5 -10.2,-6.5 -6.3,0 -11.4,5.2 -11.8,11.8 -0.5,-0.1 -1,-0.1 -1.5,-0.1 -3,0 -5.8,1.5 -7.5,4.1 -5.9,-0.4 -10.8,4.6 -10.8,10.8 0,6 4.6,10.9 10.2,10.9 H 99 l 1.4,-0.3 c 4.2,-1.1 7.1,-5.1 7.1,-9.6 0,-3.7 -2,-7 -5.1,-8.7 z m -15.9,13 v 0 L 80.1,73.6 68.5,69.3 80.1,71 V 55.5 l -7.6,1.8 v 10.5 l -3.9,1.5 v -13 0 l 11.5,-4.3 6.4,1.9 v 17.9 z"
   id="path37"
   inkscape:connector-curvature="0"
   style="clip-rule:evenodd;fill:#de3c00;fill-rule:evenodd" />
	</g>
</g>
</svg>