<?xml version="1.0" encoding="UTF-8" standalone="no"?>
<!-- Generator: Adobe Illustrator 17.1.0, SVG Export Plug-In . SVG Version: 6.00 Build 0)  -->

<svg
   xmlns:dc="http://purl.org/dc/elements/1.1/"
   xmlns:cc="http://creativecommons.org/ns#"
   xmlns:rdf="http://www.w3.org/1999/02/22-rdf-syntax-ns#"
   xmlns:svg="http://www.w3.org/2000/svg"
   xmlns="http://www.w3.org/2000/svg"
   xmlns:sodipodi="http://sodipodi.sourceforge.net/DTD/sodipodi-0.dtd"
   xmlns:inkscape="http://www.inkscape.org/namespaces/inkscape"
   version="1.1"
   id="Layer_1"
   x="0px"
   y="0px"
   height="42.504002"
   width="50"
   viewBox="0 0 50 42.504002"
   xml:space="preserve"
   sodipodi:docname="Discs.svg"
   inkscape:version="0.92.4 (5da689c313, 2019-01-14)"><metadata
   id="metadata27"><rdf:RDF><cc:Work
       rdf:about=""><dc:format>image/svg+xml</dc:format><dc:type
         rdf:resource="http://purl.org/dc/dcmitype/StillImage" /></cc:Work></rdf:RDF></metadata><defs
   id="defs25" /><sodipodi:namedview
   pagecolor="#ffffff"
   bordercolor="#666666"
   borderopacity="1"
   objecttolerance="10"
   gridtolerance="10"
   guidetolerance="10"
   inkscape:pageopacity="0"
   inkscape:pageshadow="2"
   inkscape:window-width="713"
   inkscape:window-height="543"
   id="namedview23"
   showgrid="false"
   inkscape:zoom="4.72"
   inkscape:cx="25"
   inkscape:cy="21.252"
   inkscape:window-x="0"
   inkscape:window-y="0"
   inkscape:window-maximized="0"
   inkscape:current-layer="Layer_1" />
<path
   d="m 50,33.45 c 0,5.001 -11.194,9.054 -25,9.054 -13.806,0 -25,-4.053 -25,-9.054 v -4.88 h 50 z"
   id="path2"
   inkscape:connector-curvature="0"
   style="fill:#7fba00" />
<path
   d="m 50,28.57 c 0,5.001 -11.194,9.054 -25,9.054 -13.806,0 -25,-4.053 -25,-9.054 0,-5 11.193,-9.054 25,-9.054 13.807,0 25,4.054 25,9.054"
   id="path4"
   inkscape:connector-curvature="0"
   style="fill:#b8d432" />
<path
   d="m 33.013,28.049 c 0,1.33 -3.588,2.407 -8.014,2.407 -4.426,0 -8.015,-1.077 -8.015,-2.407 0,-1.33 3.589,-2.407 8.015,-2.407 4.426,0 8.014,1.078 8.014,2.407"
   id="path6"
   inkscape:connector-curvature="0"
   style="fill:#7fba00" />
<path
   d="M 43.071,22.367 C 39.569,21.04 34.967,20.098 29.792,19.734 l -3.244,6.004 c 1.596,0.094 3.023,0.329 4.127,0.662 z"
   id="path8"
   inkscape:connector-curvature="0"
   style="opacity:0.25;fill:#ffffff" />
<path
   d="m 5.902,34.46 c 3.601,1.543 8.598,2.643 14.288,3.045 l 3.793,-7.02 c -1.579,-0.06 -3.014,-0.257 -4.168,-0.552 z"
   id="path10"
   inkscape:connector-curvature="0"
   style="opacity:0.25;fill:#ffffff" />
<path
   d="m 50,13.934 c 0,5.001 -11.194,9.054 -25,9.054 -13.806,0 -25,-4.054 -25,-9.054 v -4.88 h 50 z"
   id="path12"
   inkscape:connector-curvature="0"
   style="fill:#0072c6" />
<path
   d="M 50,9.054 C 50,14.055 38.806,18.108 25,18.108 11.194,18.108 0,14.054 0,9.054 0,4.054 11.193,0 25,0 38.807,0 50,4.053 50,9.054"
   id="path14"
   inkscape:connector-curvature="0"
   style="fill:#59b4d9" />
<path
   d="m 33.013,8.533 c 0,1.33 -3.588,2.407 -8.014,2.407 -4.426,0 -8.015,-1.077 -8.015,-2.407 0,-1.33 3.589,-2.407 8.015,-2.407 4.426,0 8.014,1.077 8.014,2.407"
   id="path16"
   inkscape:connector-curvature="0"
   style="fill:#0072c6" />
<path
   d="M 43.071,2.801 C 39.569,1.474 34.967,0.532 29.792,0.168 l -3.244,6.004 c 1.596,0.094 3.023,0.329 4.127,0.662 z"
   id="path18"
   inkscape:connector-curvature="0"
   style="opacity:0.25;fill:#ffffff" />
<path
   d="m 5.902,14.894 c 3.601,1.543 8.598,2.643 14.288,3.045 l 3.793,-7.02 c -1.579,-0.06 -3.014,-0.257 -4.168,-0.552 z"
   id="path20"
   inkscape:connector-curvature="0"
   style="opacity:0.25;fill:#ffffff" />
</svg>