<?xml version="1.0" encoding="UTF-8" standalone="no"?>
<!-- Generator: Adobe Illustrator 21.0.0, SVG Export Plug-In . SVG Version: 6.00 Build 0)  -->

<svg
   xmlns:dc="http://purl.org/dc/elements/1.1/"
   xmlns:cc="http://creativecommons.org/ns#"
   xmlns:rdf="http://www.w3.org/1999/02/22-rdf-syntax-ns#"
   xmlns:svg="http://www.w3.org/2000/svg"
   xmlns="http://www.w3.org/2000/svg"
   xmlns:sodipodi="http://sodipodi.sourceforge.net/DTD/sodipodi-0.dtd"
   xmlns:inkscape="http://www.inkscape.org/namespaces/inkscape"
   version="1.1"
   id="Layer_1"
   x="0px"
   y="0px"
   width="50.099998"
   height="50"
   viewBox="0 0 50.099998 50"
   xml:space="preserve"
   sodipodi:docname="ElasticDatabasePools.svg"
   inkscape:version="0.92.4 (5da689c313, 2019-01-14)"><metadata
   id="metadata45"><rdf:RDF><cc:Work
       rdf:about=""><dc:format>image/svg+xml</dc:format><dc:type
         rdf:resource="http://purl.org/dc/dcmitype/StillImage" /></cc:Work></rdf:RDF></metadata><defs
   id="defs43" /><sodipodi:namedview
   pagecolor="#ffffff"
   bordercolor="#666666"
   borderopacity="1"
   objecttolerance="10"
   gridtolerance="10"
   guidetolerance="10"
   inkscape:pageopacity="0"
   inkscape:pageshadow="2"
   inkscape:window-width="713"
   inkscape:window-height="543"
   id="namedview41"
   showgrid="false"
   inkscape:zoom="4.72"
   inkscape:cx="25"
   inkscape:cy="25"
   inkscape:window-x="0"
   inkscape:window-y="0"
   inkscape:window-maximized="0"
   inkscape:current-layer="Layer_1" />
<style
   type="text/css"
   id="style2">
	.st0{fill:#0072C6;}
	.st1{opacity:0.2;fill:#FFFFFF;enable-background:new    ;}
	.st2{fill:#7FBA00;}
	.st3{fill:#B8D432;}
	.st4{fill:#FFFFFF;}
</style>
<path
   class="st0"
   d="m 25,50 c -1.2,0 -2.4,-0.5 -3.3,-1.4 L 1.4,28.3 C 0.5,27.4 0,26.2 0,25 0,23.8 0.5,22.6 1.4,21.7 L 21.7,1.4 C 22.6,0.5 23.8,0 25,0 c 1.2,0 2.4,0.5 3.3,1.4 l 20.4,20.4 c 0.9,0.9 1.4,2 1.4,3.3 0,1.3 -0.5,2.4 -1.4,3.3 L 28.3,48.6 C 27.4,49.5 26.2,50 25,50"
   id="path4"
   inkscape:connector-curvature="0"
   style="fill:#0072c6" />
<path
   class="st1"
   d="M 33.5,6.6 28.3,1.4 C 27.4,0.5 26.2,0 25,0 23.8,0 22.6,0.5 21.7,1.4 L 1.4,21.7 C 0.5,22.6 0,23.8 0,25 c 0,1.2 0.5,2.4 1.4,3.3 l 8.3,8.3 z"
   id="path6"
   inkscape:connector-curvature="0"
   style="opacity:0.2;fill:#ffffff;enable-background:new" />
<path
   class="st2"
   d="m 12,20.4 v 0 H 7 v 9.7 c 0,1 2.2,1.8 4.9,1.8 v 0 H 12 c 0,0 0,0 0,0 v 0 0 c 2.8,0 5,-0.8 5,-1.8 v -9.7 z"
   id="path8"
   inkscape:connector-curvature="0"
   style="fill:#7fba00" />
<path
   class="st3"
   d="m 12,20.4 v 11.5 c 2.8,0 5,-0.8 5,-1.8 v -9.7 z"
   id="path10"
   inkscape:connector-curvature="0"
   style="fill:#b8d432" />
<path
   class="st4"
   d="m 17,20.4 c 0,1.3 -2.2,2.3 -5,2.3 -2.8,0 -5,-1 -5,-2.3 0,-1.3 2.2,-2.3 5,-2.3 2.8,0 5,1 5,2.3"
   id="path12"
   inkscape:connector-curvature="0"
   style="fill:#ffffff" />
<path
   class="st2"
   d="m 15.7,20.4 c 0,0.7 -1.6,1.3 -3.7,1.3 -2.1,0 -3.7,-0.6 -3.7,-1.3 0,-0.7 1.6,-1.3 3.7,-1.3 2.1,0 3.7,0.6 3.7,1.3"
   id="path14"
   inkscape:connector-curvature="0"
   style="fill:#7fba00" />
<path
   class="st2"
   d="m 38,20.4 v 0 h -5 v 9.7 c 0,1 2.2,1.8 4.9,1.8 v 0 H 38 c 0,0 0,0 0,0 v 0 0 c 2.8,0 5,-0.8 5,-1.8 v -9.7 z"
   id="path16"
   inkscape:connector-curvature="0"
   style="fill:#7fba00" />
<path
   class="st3"
   d="m 38,20.4 v 11.5 c 2.8,0 5,-0.8 5,-1.8 v -9.7 z"
   id="path18"
   inkscape:connector-curvature="0"
   style="fill:#b8d432" />
<path
   class="st4"
   d="m 43,20.4 c 0,1.3 -2.2,2.3 -5,2.3 -2.8,0 -5,-1 -5,-2.3 0,-1.3 2.2,-2.3 5,-2.3 2.8,0 5,1 5,2.3"
   id="path20"
   inkscape:connector-curvature="0"
   style="fill:#ffffff" />
<path
   class="st2"
   d="m 41.7,20.4 c 0,0.7 -1.6,1.3 -3.7,1.3 -2.1,0 -3.7,-0.6 -3.7,-1.3 0,-0.7 1.6,-1.3 3.7,-1.3 2.1,0 3.7,0.6 3.7,1.3"
   id="path22"
   inkscape:connector-curvature="0"
   style="fill:#7fba00" />
<path
   class="st2"
   d="m 25,7.4 v 0 h -5 v 9.7 c 0,1 2.2,1.8 4.9,1.8 v 0 H 25 c 0,0 0,0 0,0 v 0 0 c 2.8,0 5,-0.8 5,-1.8 V 7.4 Z"
   id="path24"
   inkscape:connector-curvature="0"
   style="fill:#7fba00" />
<path
   class="st3"
   d="m 25,7.4 v 11.5 c 2.8,0 5,-0.8 5,-1.8 V 7.4 Z"
   id="path26"
   inkscape:connector-curvature="0"
   style="fill:#b8d432" />
<path
   class="st4"
   d="m 30,7.4 c 0,1.3 -2.2,2.3 -5,2.3 -2.8,0 -5,-1 -5,-2.3 0,-1.3 2.2,-2.3 5,-2.3 2.8,0 5,1 5,2.3"
   id="path28"
   inkscape:connector-curvature="0"
   style="fill:#ffffff" />
<path
   class="st2"
   d="m 28.7,7.4 c 0,0.7 -1.6,1.3 -3.7,1.3 -2.1,0 -3.7,-0.6 -3.7,-1.3 0,-0.7 1.7,-1.3 3.7,-1.3 2,0 3.7,0.6 3.7,1.3"
   id="path30"
   inkscape:connector-curvature="0"
   style="fill:#7fba00" />
<path
   class="st2"
   d="m 25,33.4 v 0 h -5 v 9.7 c 0,1 2.2,1.8 4.9,1.8 v 0 H 25 c 0,0 0,0 0,0 v 0 0 c 2.8,0 5,-0.8 5,-1.8 v -9.7 z"
   id="path32"
   inkscape:connector-curvature="0"
   style="fill:#7fba00" />
<path
   class="st3"
   d="m 25,33.4 v 11.5 c 2.8,0 5,-0.8 5,-1.8 v -9.7 z"
   id="path34"
   inkscape:connector-curvature="0"
   style="fill:#b8d432" />
<path
   class="st4"
   d="m 30,33.4 c 0,1.3 -2.2,2.3 -5,2.3 -2.8,0 -5,-1 -5,-2.3 0,-1.3 2.2,-2.3 5,-2.3 2.8,0 5,1 5,2.3"
   id="path36"
   inkscape:connector-curvature="0"
   style="fill:#ffffff" />
<path
   class="st2"
   d="m 28.7,33.4 c 0,0.7 -1.6,1.3 -3.7,1.3 -2.1,0 -3.7,-0.6 -3.7,-1.3 0,-0.7 1.6,-1.3 3.7,-1.3 2.1,0 3.7,0.6 3.7,1.3"
   id="path38"
   inkscape:connector-curvature="0"
   style="fill:#7fba00" />
</svg>