<?xml version="1.0" encoding="UTF-8" standalone="no"?>
<!-- Generator: Adobe Illustrator 21.1.0, SVG Export Plug-In . SVG Version: 6.00 Build 0)  -->

<svg
   xmlns:dc="http://purl.org/dc/elements/1.1/"
   xmlns:cc="http://creativecommons.org/ns#"
   xmlns:rdf="http://www.w3.org/1999/02/22-rdf-syntax-ns#"
   xmlns:svg="http://www.w3.org/2000/svg"
   xmlns="http://www.w3.org/2000/svg"
   xmlns:sodipodi="http://sodipodi.sourceforge.net/DTD/sodipodi-0.dtd"
   xmlns:inkscape="http://www.inkscape.org/namespaces/inkscape"
   version="1.1"
   id="Layer_1"
   x="0px"
   y="0px"
   viewBox="0 0 323.79999 337.50001"
   xml:space="preserve"
   sodipodi:docname="IoTdpsBlueColorFinal.svg"
   width="323.79999"
   height="337.5"
   inkscape:version="0.92.4 (5da689c313, 2019-01-14)"><metadata
   id="metadata69"><rdf:RDF><cc:Work
       rdf:about=""><dc:format>image/svg+xml</dc:format><dc:type
         rdf:resource="http://purl.org/dc/dcmitype/StillImage" /></cc:Work></rdf:RDF></metadata><defs
   id="defs67" /><sodipodi:namedview
   pagecolor="#ffffff"
   bordercolor="#666666"
   borderopacity="1"
   objecttolerance="10"
   gridtolerance="10"
   guidetolerance="10"
   inkscape:pageopacity="0"
   inkscape:pageshadow="2"
   inkscape:window-width="713"
   inkscape:window-height="543"
   id="namedview65"
   showgrid="false"
   inkscape:zoom="0.68425632"
   inkscape:cx="161.9"
   inkscape:cy="167.75002"
   inkscape:window-x="0"
   inkscape:window-y="0"
   inkscape:window-maximized="0"
   inkscape:current-layer="Layer_1" />
<g
   id="g6"
   transform="translate(-3.6,-2.7)">
	<g
   id="g4">
		<circle
   cx="131.5"
   cy="69.5"
   r="25"
   id="circle2"
   style="fill:#0072c6" />
	</g>
</g>
<g
   id="g12"
   transform="translate(-3.6,-2.7)">
	<g
   id="g10">
		<circle
   cx="188.60001"
   cy="150"
   r="29.799999"
   id="circle8"
   style="fill:#0072c6" />
	</g>
</g>
<g
   id="g18"
   transform="translate(-3.6,-2.7)">
	<g
   id="g16">
		<circle
   cx="238.5"
   cy="238.60001"
   r="23.299999"
   id="circle14"
   style="fill:#0072c6" />
	</g>
</g>
<g
   id="g24"
   transform="translate(-3.6,-2.7)">
	<g
   id="g22">
		<circle
   cx="146"
   cy="222.5"
   r="20.1"
   id="circle20"
   style="fill:#0072c6" />
	</g>
</g>
<g
   id="g30"
   transform="translate(-3.6,-2.7)">
	<g
   id="g28">
		<circle
   cx="64.599998"
   cy="161.3"
   r="20.1"
   id="circle26"
   style="fill:#0072c6" />
	</g>
</g>
<rect
   x="57.057018"
   y="124.16443"
   transform="rotate(-35.106079)"
   width="18.10025"
   height="104.20144"
   id="rect32"
   style="fill:#0072c6;stroke-width:1.00001383" />
<rect
   x="78.386261"
   y="216.00929"
   transform="rotate(-29.78752)"
   width="18.10055"
   height="106.60323"
   id="rect34"
   style="fill:#0072c6;stroke-width:1.00003028" />
<rect
   x="45.109169"
   y="152.5032"
   transform="rotate(-4.7460995)"
   width="128.40372"
   height="18.100525"
   id="rect36"
   style="fill:#0072c6;stroke-width:1.00002897" />
<rect
   x="-117.19354"
   y="224.58377"
   transform="rotate(-58.928153)"
   width="88.897842"
   height="18.099562"
   id="rect38"
   style="fill:#0072c6;stroke-width:0.99997574" />
<g
   id="g42"
   transform="translate(-3.6,-2.7)">
	<circle
   cx="37.200001"
   cy="88.199997"
   r="24"
   id="circle40"
   style="fill:#0072c6" />
</g>
<g
   id="g48"
   transform="translate(-3.6,-2.7)">
	<g
   id="g46">
		<circle
   cx="293.20001"
   cy="88.199997"
   r="24"
   id="circle44"
   style="fill:#0072c6" />
	</g>
</g>
<g
   id="g54"
   transform="translate(-3.6,-2.7)">
	<g
   id="g52">
		<circle
   cx="171.60001"
   cy="316.20001"
   r="24"
   id="circle50"
   style="fill:#0072c6" />
	</g>
</g>
<g
   id="g62"
   transform="translate(-3.6,-2.7)">
	<path
   d="m 63.5,67.1 c 25.7,-26.9 61.9,-43.6 102,-43.6 39.9,0 76,16.6 101.7,43.3 4.5,-5.5 10.8,-9.6 17.9,-11.4 -1.6,-1.8 -3.3,-3.6 -5.1,-5.3 C 265.1,35.2 247.8,23.6 228.5,15.4 208.5,6.9 187.3,2.7 165.4,2.7 143.5,2.7 122.3,7 102.3,15.4 83,23.6 65.7,35.2 50.8,50.1 c -1.8,1.8 -3.5,3.6 -5.2,5.4 7.3,1.9 13.4,6 17.9,11.6 z"
   id="path56"
   inkscape:connector-curvature="0"
   style="fill:#0072c6" />
	<path
   d="m 318.3,110.8 c -4.8,5.3 -11.2,9 -18.5,10.5 4.4,13.7 6.8,28.2 6.8,43.4 0,65.4 -44.5,120.4 -104.9,136.4 2.3,4.6 3.6,9.7 3.6,15.2 0,1.9 -0.2,3.8 -0.5,5.6 8.1,-2 16,-4.7 23.7,-7.9 19.3,-8.2 36.6,-19.8 51.5,-34.7 14.9,-14.9 26.5,-32.2 34.7,-51.5 8.5,-20 12.7,-41.2 12.7,-63.1 0,-18.6 -3,-36.7 -9.1,-53.9 z"
   id="path58"
   inkscape:connector-curvature="0"
   style="fill:#0072c6" />
	<path
   d="M 140.3,303.5 C 74.4,291.6 24.4,234 24.4,164.6 c 0,-15.1 2.4,-29.6 6.8,-43.3 -7.3,-1.3 -13.7,-5 -18.6,-10.1 -6,17.1 -9,35 -9,53.4 0,21.9 4.3,43.1 12.7,63.1 8.2,19.3 19.8,36.6 34.7,51.5 14.9,14.9 32.2,26.5 51.5,34.7 11.7,5 23.9,8.5 36.4,10.5 -0.7,-2.6 -1,-5.4 -1,-8.2 -0.1,-4.5 0.8,-8.8 2.4,-12.7 z"
   id="path60"
   inkscape:connector-curvature="0"
   style="fill:#0072c6" />
</g>
</svg>