<?xml version="1.0" encoding="UTF-8" standalone="no"?>
<!-- Generator: Adobe Illustrator 21.1.0, SVG Export Plug-In . SVG Version: 6.00 Build 0)  -->

<svg
   xmlns:dc="http://purl.org/dc/elements/1.1/"
   xmlns:cc="http://creativecommons.org/ns#"
   xmlns:rdf="http://www.w3.org/1999/02/22-rdf-syntax-ns#"
   xmlns:svg="http://www.w3.org/2000/svg"
   xmlns="http://www.w3.org/2000/svg"
   xmlns:sodipodi="http://sodipodi.sourceforge.net/DTD/sodipodi-0.dtd"
   xmlns:inkscape="http://www.inkscape.org/namespaces/inkscape"
   version="1.1"
   id="Layer_1"
   x="0px"
   y="0px"
   width="23.525227"
   height="24"
   viewBox="0 0 23.525227 24"
   enable-background="new 0 0 24 24"
   xml:space="preserve"
   sodipodi:docname="MachineLearningWorkspacescolor.svg"
   inkscape:version="0.92.4 (5da689c313, 2019-01-14)"><metadata
   id="metadata17"><rdf:RDF><cc:Work
       rdf:about=""><dc:format>image/svg+xml</dc:format><dc:type
         rdf:resource="http://purl.org/dc/dcmitype/StillImage" /></cc:Work></rdf:RDF></metadata><defs
   id="defs15" /><sodipodi:namedview
   pagecolor="#ffffff"
   bordercolor="#666666"
   borderopacity="1"
   objecttolerance="10"
   gridtolerance="10"
   guidetolerance="10"
   inkscape:pageopacity="0"
   inkscape:pageshadow="2"
   inkscape:window-width="713"
   inkscape:window-height="543"
   id="namedview13"
   showgrid="false"
   inkscape:zoom="9.8333333"
   inkscape:cx="11.525227"
   inkscape:cy="12"
   inkscape:window-x="0"
   inkscape:window-y="0"
   inkscape:window-maximized="0"
   inkscape:current-layer="Layer_1" />
<path
   d="M 11.525227,8 H 4.5252273 v 1 h 1 v 3.969 l -5.28000003,9.255 c -0.576,0.96 -0.096,1.776 1.00800003,1.776 H 14.741227 c 1.152,0 1.584,-0.768 1.008,-1.776 l -5.224,-9.255 V 9 h 1 z"
   id="path2"
   inkscape:connector-curvature="0"
   style="fill:#59b4d9" />
<path
   d="M 11.652227,17 H 4.3762273 l -3.263,5.72 c -0.072,0.12 -0.098,0.201 -0.108,0.246 0.043,0.015 0.121,0.034 0.248,0.034 H 14.741227 c 0.114,0 0.196,-0.012 0.25,-0.025 -0.015,-0.058 -0.047,-0.143 -0.11,-0.254 z"
   id="path4"
   inkscape:connector-curvature="0"
   style="fill:#0072c6" />
<path
   enable-background="new    "
   d="m 4.5252273,9 h 1 v 3.969 l -5.28000003,9.255 c -0.576,0.96 -0.096,1.776 1.00800003,1.776 h 1.454 l 3.818,-7 2,-3.667 V 8 h -4 z"
   id="path6"
   inkscape:connector-curvature="0"
   style="opacity:0.25;fill:#ecf0f1" />
<path
   enable-background="new    "
   d="m 3.2522273,23 3.273,-6 h -2.149 l -3.263,5.72 c -0.072,0.12 -0.098,0.201 -0.108,0.246 0.043,0.015 0.121,0.034 0.248,0.034 z"
   id="path8"
   inkscape:connector-curvature="0"
   style="opacity:0.25;fill:#ecf0f1" />
<path
   d="M 10.525227,6 H 8.5252273 V 4 h 1.9999997 z m 0,-3 H 8.5252273 V 1 h 1.9999997 z m 3,3 h -2 V 4 h 2 z m 0,-3 h -2 V 1 h 2 z m 3,9 h -2 v -2 h 2 z m 0,-3 h -2 V 7 h 2 z m 0,-3 h -2 V 4 h 2 z m 0,-3 h -2 V 1 h 2 z m 3,9 h -2 v -2 h 2 z m 0,-3 h -2 V 7 h 2 z m 0,-3 h -2 V 4 h 2 z m 0,-3 h -2 V 1 h 2 z m 1,10 h 2 1 V 0 H 7.5252273 v 7 h 1 1.9999997 1 1 1 v 2 h -1 v 1 h 1 v 2 h -2 v 0.707 l 0.166,0.293 h 1.834 z m 2,-1 h -2 v -2 h 2 z m 0,-3 h -2 V 7 h 2 z m 0,-3 h -2 V 4 h 2 z m 0,-3 h -2 V 1 h 2 z"
   id="path10"
   inkscape:connector-curvature="0"
   style="fill:#a0a1a2" />
</svg>