<?xml version="1.0" encoding="UTF-8" standalone="no"?>
<!-- Generator: Adobe Illustrator 21.1.0, SVG Export Plug-In . SVG Version: 6.00 Build 0)  -->

<svg
   xmlns:dc="http://purl.org/dc/elements/1.1/"
   xmlns:cc="http://creativecommons.org/ns#"
   xmlns:rdf="http://www.w3.org/1999/02/22-rdf-syntax-ns#"
   xmlns:svg="http://www.w3.org/2000/svg"
   xmlns="http://www.w3.org/2000/svg"
   xmlns:sodipodi="http://sodipodi.sourceforge.net/DTD/sodipodi-0.dtd"
   xmlns:inkscape="http://www.inkscape.org/namespaces/inkscape"
   version="1.1"
   id="Layer_1"
   x="0px"
   y="0px"
   width="23.525227"
   height="24"
   viewBox="0 0 23.525227 24"
   enable-background="new 0 0 24 24"
   xml:space="preserve"
   sodipodi:docname="MachineLearningWebServicescolor.svg"
   inkscape:version="0.92.4 (5da689c313, 2019-01-14)"><metadata
   id="metadata17"><rdf:RDF><cc:Work
       rdf:about=""><dc:format>image/svg+xml</dc:format><dc:type
         rdf:resource="http://purl.org/dc/dcmitype/StillImage" /></cc:Work></rdf:RDF></metadata><defs
   id="defs15" /><sodipodi:namedview
   pagecolor="#ffffff"
   bordercolor="#666666"
   borderopacity="1"
   objecttolerance="10"
   gridtolerance="10"
   guidetolerance="10"
   inkscape:pageopacity="0"
   inkscape:pageshadow="2"
   inkscape:window-width="713"
   inkscape:window-height="543"
   id="namedview13"
   showgrid="false"
   inkscape:zoom="9.8333333"
   inkscape:cx="11.525227"
   inkscape:cy="12"
   inkscape:window-x="0"
   inkscape:window-y="0"
   inkscape:window-maximized="0"
   inkscape:current-layer="Layer_1" />
<path
   d="m 15.525227,0 c -4.079,0 -7.4379997,3.055 -7.9309997,7 h 1.012 c 0.115,-0.776 0.354,-1.512 0.702,-2.185 0.364,0.773 0.8619997,1.497 1.4359997,2.185 h 1.781 v 0.092 c 0.157,-0.056 0.324,-0.092 0.5,-0.092 0.827,0 1.5,0.673 1.5,1.5 0,0.827 -0.673,1.5 -1.5,1.5 -0.176,0 -0.343,-0.036 -0.5,-0.092 V 10 h -1 v 0.461 c 0.115,0.087 0.225,0.181 0.353,0.248 -0.127,0.491 -0.245,0.988 -0.353,1.49 v 0.507 l 0.693,1.228 c 0.162,-1.009 0.379,-1.99 0.628,-2.952 v 0 c 0.06,0.004 0.117,0.018 0.179,0.018 0.684,0 1.304,-0.276 1.755,-0.722 0.85,0.466 1.775,0.859 2.747,1.199 0,0.008 -0.002,0.015 -0.002,0.023 0,0.828 0.672,1.5 1.5,1.5 0.56,0 1.042,-0.31 1.3,-0.765 0.22,0.044 0.429,0.106 0.653,0.143 -1.284,1.596 -3.25,2.622 -5.453,2.622 -1.127,0 -2.186,-0.277 -3.13,-0.752 l 0.792,1.403 c 0.74,0.226 1.524,0.349 2.338,0.349 4.418,0 8,-3.582 8,-8 0,-4.418 -3.582,-8 -8,-8 z m 6.986,7.714 c -0.709,-0.269 -1.382,-0.578 -2.015,-0.919 0.018,-0.096 0.029,-0.194 0.029,-0.295 0,-0.828 -0.672,-1.5 -1.5,-1.5 -0.308,0 -0.595,0.094 -0.833,0.253 -0.799,-0.658 -1.49,-1.382 -2.042,-2.162 0.393,-0.635 0.81,-1.245 1.247,-1.827 2.862,0.797 4.988,3.366 5.114,6.45 z m -2.986,-1.214 c 0,0.276 -0.224,0.5 -0.5,0.5 -0.276,0 -0.5,-0.224 -0.5,-0.5 0,-0.276 0.224,-0.5 0.5,-0.5 0.276,0 0.5,0.224 0.5,0.5 z m -4,-5.5 c 0.271,0 0.538,0.019 0.802,0.049 -0.26,0.36 -0.515,0.728 -0.759,1.107 -0.2,-0.369 -0.369,-0.746 -0.509,-1.133 0.154,-0.01 0.308,-0.023 0.466,-0.023 z m -2.022,5.048 c -0.155,-0.03 -0.314,-0.048 -0.478,-0.048 -0.542,0 -1.04,0.177 -1.449,0.469 l 0.001,-0.001 c -0.704,-0.834 -1.263,-1.734 -1.6199997,-2.694 0.9939997,-1.307 2.4379997,-2.245 4.0969997,-2.602 0.228,0.675 0.531,1.328 0.918,1.951 -0.543,0.925 -1.022,1.912 -1.469,2.925 z m 5.522,5.952 c -0.276,0 -0.5,-0.224 -0.5,-0.5 0,-0.276 0.224,-0.5 0.5,-0.5 0.276,0 0.5,0.224 0.5,0.5 0,0.276 -0.224,0.5 -0.5,0.5 z m 2.567,-0.527 c -0.368,-0.052 -0.73,-0.115 -1.088,-0.186 0,0 0,0 -0.001,0 -0.104,-0.727 -0.723,-1.287 -1.478,-1.287 -0.472,0 -0.888,0.223 -1.163,0.564 -0.895,-0.314 -1.745,-0.681 -2.528,-1.107 v 0 c 0.122,-0.295 0.191,-0.618 0.191,-0.957 0,-0.867 -0.442,-1.63 -1.112,-2.078 0.364,-0.826 0.752,-1.63 1.182,-2.393 0.564,0.729 1.24,1.406 2.005,2.026 v 0 c -0.044,0.141 -0.075,0.289 -0.075,0.445 0,0.828 0.672,1.5 1.5,1.5 0.372,0 0.707,-0.14 0.969,-0.364 0.773,0.418 1.594,0.792 2.466,1.108 -0.106,0.984 -0.396,1.91 -0.868,2.729 z"
   id="path2"
   inkscape:connector-curvature="0"
   style="fill:#a0a1a2" />
<path
   d="M 11.525227,8 H 4.5252273 v 1 h 1 v 3.969 l -5.28000003,9.255 c -0.576,0.96 -0.096,1.776 1.00800003,1.776 H 14.741227 c 1.152,0 1.584,-0.768 1.008,-1.776 l -5.224,-9.255 V 9 h 1 z"
   id="path4"
   inkscape:connector-curvature="0"
   style="fill:#59b4d9" />
<path
   d="M 11.652227,17 H 4.3762273 l -3.263,5.72 c -0.072,0.12 -0.098,0.201 -0.108,0.246 0.043,0.015 0.121,0.034 0.248,0.034 H 14.741227 c 0.114,0 0.196,-0.012 0.25,-0.025 -0.015,-0.058 -0.047,-0.143 -0.11,-0.254 z"
   id="path6"
   inkscape:connector-curvature="0"
   style="fill:#0072c6" />
<path
   enable-background="new    "
   d="m 4.5252273,9 h 1 v 3.969 l -5.28000003,9.255 c -0.576,0.96 -0.096,1.776 1.00800003,1.776 h 1.454 l 3.818,-7 2,-3.667 V 8 h -4 z"
   id="path8"
   inkscape:connector-curvature="0"
   style="opacity:0.25;fill:#ecf0f1" />
<path
   enable-background="new    "
   d="m 3.2522273,23 3.273,-6 h -2.149 l -3.263,5.72 c -0.072,0.12 -0.098,0.201 -0.108,0.246 0.043,0.015 0.121,0.034 0.248,0.034 z"
   id="path10"
   inkscape:connector-curvature="0"
   style="opacity:0.25;fill:#ecf0f1" />
</svg>