<?xml version="1.0" encoding="UTF-8" standalone="no"?>
<!-- Generator: Adobe Illustrator 20.0.0, SVG Export Plug-In . SVG Version: 6.00 Build 0)  -->

<svg
   xmlns:dc="http://purl.org/dc/elements/1.1/"
   xmlns:cc="http://creativecommons.org/ns#"
   xmlns:rdf="http://www.w3.org/1999/02/22-rdf-syntax-ns#"
   xmlns:svg="http://www.w3.org/2000/svg"
   xmlns="http://www.w3.org/2000/svg"
   xmlns:sodipodi="http://sodipodi.sourceforge.net/DTD/sodipodi-0.dtd"
   xmlns:inkscape="http://www.inkscape.org/namespaces/inkscape"
   version="1.1"
   id="Layer_1"
   x="0px"
   y="0px"
   width="49.799999"
   height="49.799999"
   viewBox="0 0 49.799999 49.799999"
   enable-background="new 0 0 50 50"
   xml:space="preserve"
   sodipodi:docname="NetworkWatcherFifty.svg"
   inkscape:version="0.92.4 (5da689c313, 2019-01-14)"><metadata
   id="metadata39"><rdf:RDF><cc:Work
       rdf:about=""><dc:format>image/svg+xml</dc:format><dc:type
         rdf:resource="http://purl.org/dc/dcmitype/StillImage" /></cc:Work></rdf:RDF></metadata><defs
   id="defs37" /><sodipodi:namedview
   pagecolor="#ffffff"
   bordercolor="#666666"
   borderopacity="1"
   objecttolerance="10"
   gridtolerance="10"
   guidetolerance="10"
   inkscape:pageopacity="0"
   inkscape:pageshadow="2"
   inkscape:window-width="713"
   inkscape:window-height="543"
   id="namedview35"
   showgrid="false"
   inkscape:zoom="4.72"
   inkscape:cx="24.9"
   inkscape:cy="24.9"
   inkscape:window-x="0"
   inkscape:window-y="0"
   inkscape:window-maximized="0"
   inkscape:current-layer="Layer_1" />
<g
   id="g32"
   transform="translate(-0.1,-0.1)">
	<path
   d="M 31.9,1.1 C 22.726,1.1 15.25,8.454 15.022,17.575 16.81,16.637 18.841,16.1 21,16.1 c 7.124,0 12.9,5.776 12.9,12.9 0,2.117 -0.52,4.108 -1.423,5.871 C 41.527,34.563 48.8,27.125 48.8,18 48.8,8.682 41.218,1.1 31.9,1.1 Z"
   id="path2"
   inkscape:connector-curvature="0"
   style="fill:#ffffff" />
	<g
   id="g10">
		<path
   d="m 32.867,35.601 c 3.674,-3.221 7.594,-8.33 7.594,-17.589 0,-9.259 -3.857,-14.571 -7.629,-17.613 l -1.529,1.502 c 3.531,2.846 6.796,6.768 6.796,16.111 0,9.375 -3.375,13.113 -6.829,16.139 z"
   id="path4"
   inkscape:connector-curvature="0"
   style="fill:#3898c5" />
		<rect
   x="16.112"
   y="16.941"
   width="31.775"
   height="2.118"
   id="rect6"
   style="fill:#3898c5" />
		<path
   d="m 32,10.084 c -5.212,0 -9.918,-1.453 -12.729,-3.618 l -1.27,1.27 C 21.134,10.254 26.23,11.9 32,11.9 c 5.77,0 10.866,-1.646 13.999,-4.165 l -1.27,-1.27 C 41.919,8.631 37.212,10.084 32,10.084 Z"
   id="path8"
   inkscape:connector-curvature="0"
   style="fill:#3898c5" />
	</g>
	<path
   d="m 10.925,35.075 -10,10 0.002,0.002 C 0.416,45.589 0.1,46.295 0.1,47.075 c 0,1.56 1.265,2.825 2.825,2.825 0.78,0 1.486,-0.316 1.998,-0.827 l 0.002,0.002 10,-10 z"
   id="path12"
   inkscape:connector-curvature="0"
   style="fill:#7a7b7b" />
	<path
   d="m 7,39 c 1.047,1.591 2.409,2.953 4,4 l 2.615,-2.615 -4,-4 z"
   id="path14"
   inkscape:connector-curvature="0"
   style="opacity:0.4;fill:#1d1d1d" />
	<circle
   cx="20.725"
   cy="28.9"
   r="9"
   id="circle16"
   style="fill:#ffffff" />
	<circle
   cx="21"
   cy="29"
   r="11"
   id="circle18"
   style="fill:#ffffff" />
	<path
   d="M 25.921,17.077 C 26.136,8.414 29.288,4.649 32.696,1.901 L 31.167,0.399 c -3.541,2.856 -7.156,7.715 -7.585,15.96 0.811,0.165 1.592,0.409 2.339,0.718 z"
   id="path20"
   inkscape:connector-curvature="0"
   style="fill:#3898c5" />
	<path
   d="m 32.943,24.133 c 0.241,0.591 0.432,1.205 0.584,1.836 4.594,0.253 8.67,1.614 11.202,3.565 l 1.27,-1.27 C 43.039,25.885 38.32,24.303 32.943,24.133 Z"
   id="path22"
   inkscape:connector-curvature="0"
   style="fill:#3898c5" />
	<path
   d="m 32,0.1 c -9.869,0 -17.9,8.031 -17.9,17.9 0,0.037 0.005,0.073 0.006,0.11 0.721,-0.457 1.489,-0.842 2.297,-1.151 C 16.943,8.815 23.722,2.35 32,2.35 c 8.629,0 15.65,7.021 15.65,15.65 0,8.278 -6.465,15.057 -14.609,15.597 -0.309,0.808 -0.694,1.576 -1.151,2.297 0.037,0 0.073,0.006 0.11,0.006 9.869,0 17.9,-8.029 17.9,-17.9 C 49.9,8.131 41.869,0.1 32,0.1 Z"
   id="path24"
   inkscape:connector-curvature="0"
   style="fill:#3898c5" />
	<path
   d="m 19.581,35 -2.068,-6.107 -1.588,3.131 H 13 v -1.569 h 1.941 l 2.865,-5.646 1.766,5.215 2.525,-7.539 2.07,6.097 1.932,-3.687 h 2.9 v 1.588 l -1.988,-0.002 -3.136,6.181 -1.768,-5.208 z"
   id="path26"
   inkscape:connector-curvature="0"
   style="fill:#7fba00" />
	<path
   d="m 13.49,32.49 c 0,-6.501 4.53,-11 11,-11 2.01,0 3.889,0.548 5.51,1.49 -1.904,-3.279 -5.445,-5.49 -9.51,-5.49 -6.075,0 -11,4.925 -11,11 0,4.065 2.211,7.606 5.49,9.51 -0.942,-1.622 -1.49,-3.5 -1.49,-5.51 z"
   id="path28"
   inkscape:connector-curvature="0"
   style="opacity:0.2;fill:#3898c5" />
	<path
   d="M 21,15.1 C 13.323,15.1 7.1,21.323 7.1,29 7.1,36.677 13.323,42.9 21,42.9 28.677,42.9 34.9,36.677 34.9,29 34.9,21.323 28.677,15.1 21,15.1 Z m 0,24.2 c -5.689,0 -10.3,-4.611 -10.3,-10.3 0,-5.689 4.611,-10.3 10.3,-10.3 5.689,0 10.3,4.612 10.3,10.3 0,5.688 -4.611,10.3 -10.3,10.3 z"
   id="path30"
   inkscape:connector-curvature="0"
   style="fill:#7a7b7b" />
</g>
</svg>