<?xml version="1.0" encoding="UTF-8" standalone="no"?>
<!-- Generator: Adobe Illustrator 21.0.0, SVG Export Plug-In . SVG Version: 6.00 Build 0)  -->

<svg
   xmlns:dc="http://purl.org/dc/elements/1.1/"
   xmlns:cc="http://creativecommons.org/ns#"
   xmlns:rdf="http://www.w3.org/1999/02/22-rdf-syntax-ns#"
   xmlns:svg="http://www.w3.org/2000/svg"
   xmlns="http://www.w3.org/2000/svg"
   xmlns:sodipodi="http://sodipodi.sourceforge.net/DTD/sodipodi-0.dtd"
   xmlns:inkscape="http://www.inkscape.org/namespaces/inkscape"
   version="1.1"
   id="Layer_1"
   x="0px"
   y="0px"
   width="36.599998"
   height="49.900002"
   viewBox="0 0 36.599998 49.900002"
   enable-background="new 0 0 50 50"
   xml:space="preserve"
   sodipodi:docname="NSG.svg"
   inkscape:version="0.92.4 (5da689c313, 2019-01-14)"><metadata
   id="metadata29"><rdf:RDF><cc:Work
       rdf:about=""><dc:format>image/svg+xml</dc:format><dc:type
         rdf:resource="http://purl.org/dc/dcmitype/StillImage" /></cc:Work></rdf:RDF></metadata><defs
   id="defs27" /><sodipodi:namedview
   pagecolor="#ffffff"
   bordercolor="#666666"
   borderopacity="1"
   objecttolerance="10"
   gridtolerance="10"
   guidetolerance="10"
   inkscape:pageopacity="0"
   inkscape:pageshadow="2"
   inkscape:window-width="713"
   inkscape:window-height="543"
   id="namedview25"
   showgrid="false"
   inkscape:zoom="4.72"
   inkscape:cx="18"
   inkscape:cy="24.9"
   inkscape:window-x="0"
   inkscape:window-y="0"
   inkscape:window-maximized="0"
   inkscape:current-layer="Layer_1" />
<path
   d="M 31.2,6 V 6 C 20.2,4.8 18.3,0 18.3,0 18.3,0 15.8,6.2 0,6.2 v 25.6 c 0,3.1 1.7,6 4.1,8.5 v 0 c 5.4,5.7 14.2,9.6 14.2,9.6 0,0 18.3,-8 18.3,-18.1 V 6.2 c -2,0 -3.8,-0.1 -5.4,-0.2 z"
   id="path2"
   inkscape:connector-curvature="0"
   style="fill:#3999c6" />
<path
   enable-background="new    "
   d="M 22.9,16.5 31.2,6 C 20.2,4.8 18.3,0 18.3,0 18.3,0 15.8,6.2 0,6.2 v 25.6 c 0,3.1 1.7,6 4.1,8.5 l 6.2,-7.8 z"
   id="path4"
   inkscape:connector-curvature="0"
   style="opacity:0.4;fill:#59b4d9" />
<g
   id="g14"
   transform="translate(-7)">
	<path
   enable-background="new    "
   d="m 10.8,24.4 v 6.1 c 0,2.5 1.4,4.8 3.3,6.8 4.3,4.6 11.3,7.6 11.3,7.6 V 24.4 Z"
   id="path6"
   inkscape:connector-curvature="0"
   style="opacity:0.3;fill:#ffffff" />
	<path
   enable-background="new    "
   d="m 25.3,44.9 c 0,0 14.6,-6.4 14.6,-14.4 V 24.4 H 25.3 Z"
   id="path8"
   inkscape:connector-curvature="0"
   style="opacity:0.7;fill:#ffffff" />
	<path
   enable-background="new    "
   d="m 25.3,5.1 v 0 c 0,0 -2,5 -14.6,5 v 14.3 h 14.6 z"
   id="path10"
   inkscape:connector-curvature="0"
   style="opacity:0.7;fill:#ffffff" />
	<path
   enable-background="new    "
   d="M 35.5,9.9 C 26.8,8.9 25.3,5.2 25.3,5.2 V 24.4 H 39.9 V 10.1 c -1.6,0 -3.1,-0.1 -4.4,-0.2 z"
   id="path12"
   inkscape:connector-curvature="0"
   style="opacity:0.3;fill:#ffffff" />
</g>
<g
   id="g22"
   transform="translate(-7)">
	<path
   d="m 20.322,29.25 h -1.777 l -4.683,-7.205 c -0.119,-0.182 -0.216,-0.372 -0.294,-0.567 h -0.041 c 0.037,0.209 0.055,0.659 0.055,1.347 v 6.426 H 12.01 v -9.803 h 1.894 l 4.525,7.034 c 0.191,0.292 0.314,0.492 0.369,0.602 h 0.027 c -0.045,-0.26 -0.068,-0.7 -0.068,-1.319 v -6.316 h 1.565 z"
   id="path16"
   inkscape:connector-curvature="0"
   style="fill:#3e3e3e" />
	<path
   d="m 22.298,28.86 v -1.675 c 0.15,0.137 0.329,0.26 0.537,0.369 0.208,0.109 0.427,0.201 0.66,0.277 0.232,0.074 0.465,0.133 0.697,0.174 0.232,0.041 0.447,0.062 0.643,0.062 0.684,0 1.193,-0.114 1.528,-0.342 0.335,-0.228 0.502,-0.558 0.502,-0.991 0,-0.232 -0.056,-0.434 -0.167,-0.605 -0.112,-0.17 -0.268,-0.327 -0.469,-0.468 -0.2,-0.141 -0.437,-0.277 -0.708,-0.407 -0.271,-0.13 -0.562,-0.266 -0.872,-0.407 -0.333,-0.178 -0.643,-0.358 -0.93,-0.54 -0.287,-0.182 -0.537,-0.384 -0.749,-0.605 -0.212,-0.221 -0.378,-0.471 -0.499,-0.749 -0.121,-0.278 -0.181,-0.604 -0.181,-0.978 0,-0.46 0.104,-0.86 0.311,-1.2 0.207,-0.34 0.481,-0.62 0.82,-0.841 0.339,-0.221 0.726,-0.385 1.159,-0.492 0.433,-0.107 0.875,-0.161 1.326,-0.161 1.025,0 1.772,0.116 2.242,0.349 v 1.606 c -0.556,-0.401 -1.271,-0.602 -2.146,-0.602 -0.242,0 -0.482,0.023 -0.721,0.068 -0.239,0.045 -0.454,0.121 -0.643,0.226 -0.189,0.105 -0.343,0.239 -0.461,0.403 C 24.059,21.495 24,21.696 24,21.929 c 0,0.219 0.045,0.408 0.137,0.567 0.092,0.159 0.225,0.305 0.4,0.438 0.175,0.133 0.39,0.261 0.643,0.386 0.253,0.125 0.546,0.261 0.878,0.407 0.342,0.178 0.664,0.365 0.967,0.561 0.304,0.196 0.57,0.413 0.8,0.649 0.23,0.237 0.413,0.5 0.547,0.79 0.135,0.29 0.202,0.619 0.202,0.988 0,0.497 -0.101,0.916 -0.301,1.258 -0.2,0.342 -0.471,0.62 -0.811,0.834 -0.339,0.214 -0.729,0.369 -1.172,0.465 -0.442,0.096 -0.909,0.144 -1.401,0.144 -0.164,0 -0.366,-0.013 -0.605,-0.037 -0.239,-0.025 -0.484,-0.062 -0.735,-0.109 -0.25,-0.049 -0.488,-0.106 -0.711,-0.175 -0.223,-0.069 -0.403,-0.148 -0.54,-0.235 z"
   id="path18"
   inkscape:connector-curvature="0"
   style="fill:#3e3e3e" />
	<path
   d="m 38.021,28.58 c -1.021,0.557 -2.158,0.834 -3.411,0.834 -1.449,0 -2.623,-0.451 -3.521,-1.354 -0.898,-0.903 -1.347,-2.096 -1.347,-3.582 0,-1.518 0.491,-2.763 1.474,-3.736 0.981,-0.973 2.229,-1.459 3.742,-1.459 1.089,0 2.005,0.16 2.748,0.479 v 1.675 c -0.752,-0.501 -1.647,-0.752 -2.687,-0.752 -1.044,0 -1.899,0.344 -2.567,1.032 -0.667,0.688 -1.001,1.579 -1.001,2.673 0,1.125 0.287,2.011 0.861,2.655 0.574,0.646 1.354,0.968 2.338,0.968 0.675,0 1.258,-0.13 1.75,-0.39 v -2.331 h -2.064 v -1.367 h 3.685 c 0,0 0,4.655 0,4.655 z"
   id="path20"
   inkscape:connector-curvature="0"
   style="fill:#3e3e3e" />
</g>
</svg>