<?xml version="1.0" encoding="UTF-8" standalone="no"?>
<!-- Generator: Adobe Illustrator 18.1.0, SVG Export Plug-In . SVG Version: 6.00 Build 0)  -->

<svg
   xmlns:dc="http://purl.org/dc/elements/1.1/"
   xmlns:cc="http://creativecommons.org/ns#"
   xmlns:rdf="http://www.w3.org/1999/02/22-rdf-syntax-ns#"
   xmlns:svg="http://www.w3.org/2000/svg"
   xmlns="http://www.w3.org/2000/svg"
   xmlns:sodipodi="http://sodipodi.sourceforge.net/DTD/sodipodi-0.dtd"
   xmlns:inkscape="http://www.inkscape.org/namespaces/inkscape"
   version="1.0"
   x="0px"
   y="0px"
   viewBox="0 0 60.200001 41.616646"
   enable-background="new 0 0 152 117.5"
   xml:space="preserve"
   id="svg75"
   sodipodi:docname="Officesubscription.svg"
   width="60.200001"
   height="41.616646"
   inkscape:version="0.92.4 (5da689c313, 2019-01-14)"><metadata
   id="metadata81"><rdf:RDF><cc:Work
       rdf:about=""><dc:format>image/svg+xml</dc:format><dc:type
         rdf:resource="http://purl.org/dc/dcmitype/StillImage" /></cc:Work></rdf:RDF></metadata><defs
   id="defs79" /><sodipodi:namedview
   pagecolor="#ffffff"
   bordercolor="#666666"
   borderopacity="1"
   objecttolerance="10"
   gridtolerance="10"
   guidetolerance="10"
   inkscape:pageopacity="0"
   inkscape:pageshadow="2"
   inkscape:window-width="713"
   inkscape:window-height="543"
   id="namedview77"
   showgrid="false"
   inkscape:zoom="2.0085106"
   inkscape:cx="30"
   inkscape:cy="20.85"
   inkscape:window-x="0"
   inkscape:window-y="0"
   inkscape:window-maximized="0"
   inkscape:current-layer="svg75" />
<g
   id="Layer_1"
   transform="translate(-46,-37.983354)">
	<g
   id="Azure">
	</g>
	<g
   id="BizTalk_Services"
   transform="translate(37.3575,-2500.2)">
	</g>
	<g
   id="Key_Vault">
	</g>
	<g
   id="Mobile_Engagement">
	</g>
	<g
   id="Office_subscription">
		<g
   id="Office_subscription_1_">
			<g
   id="g37">
				<g
   id="group18-2_1_">
					<title
   id="title6">subscription.788</title>
					<g
   id="group19-3_1_"
   transform="translate(2.10961,-3.20491)">
						<title
   id="title8">Sheet.19</title>
						<g
   id="shape20-4_1_">
							<title
   id="title10">Sheet.20</title>
						</g>
						<g
   id="shape21-6_1_"
   transform="translate(18.9973,-6.6208)">
							<title
   id="title13">Sheet.21</title>
							<path
   d="m 51,76.9 -0.7,2.8 c -0.1,0.5 0.2,0.8 0.7,0.7 l 2.8,-0.7 c 0.5,-0.1 0.6,-0.5 0.2,-0.9 L 51.8,76.6 C 51.5,76.3 51.1,76.4 51,76.9 Z"
   id="path15"
   inkscape:connector-curvature="0"
   style="fill:#dc3c00" />
						</g>
						<g
   id="shape22-8_1_"
   transform="translate(37.7953,-25.398)">
							<title
   id="title18">Sheet.22</title>
							<path
   d="m 61,73.9 c 0.3,0.3 0.9,0.3 1.3,0 0.3,-0.3 0.9,-1 1.2,-1.3 0,0 1.8,-2.4 -0.6,-4.8 -2.4,-2.4 -4.8,-0.5 -4.8,-0.5 -0.4,0.3 -1,0.8 -1.3,1.2 -0.4,0.3 -0.3,0.9 0,1.3 z"
   id="path20"
   inkscape:connector-curvature="0"
   style="fill:#dc3c00" />
						</g>
						<g
   id="shape23-10_1_"
   transform="translate(21.0672,-8.65079)">
							<title
   id="title23">Sheet.23</title>
							<path
   d="m 51.2,75.2 4.2,4.2 c 0.4,0.3 0.9,0.3 1.3,0 L 76.3,59.8 c 0.3,-0.3 0.3,-0.9 0,-1.3 l -4.2,-4.2 c -0.4,-0.4 -0.9,-0.4 -1.3,0 L 51.2,74 c -0.3,0.3 -0.3,0.9 0,1.2 z"
   id="path25"
   inkscape:connector-curvature="0"
   style="fill:#dc3c00" />
						</g>
					</g>
				</g>
				<path
   d="m 106.2,72.5 c 0,-3.9 -3.1,-7 -6.9,-7 -0.3,0 -0.6,0 -0.9,0.1 0.4,-1.6 0.7,-3.2 0.7,-4.9 0,-2.6 -0.5,-5 -1.4,-7.2 l -16,15.9 c -0.6,0.6 -1.1,0.9 -1.9,0.9 -1.3,0.8 -3.4,1.7 -4.2,1.9 v 0 0 l -3,0.8 c -0.3,0.1 -0.5,0.1 -0.8,0.1 -0.9,0 -1.8,-0.4 -2.4,-1.1 -0.6,-0.7 -0.8,-1.7 -0.6,-2.7 v 0 0 l 0.7,-2.8 c 0.2,-0.9 1.2,-3.6 2.2,-4.9 0.2,-0.5 0.4,-0.9 0.8,-1.2 L 88.8,44.2 c -2.5,-1.3 -5.3,-2 -8.3,-2 -7.5,0 -14.7,4.9 -17.1,11 v 8.6 l -7.1,1.9 -8.5,-3.3 c -0.5,0.8 -0.8,1.4 -0.8,1.4 -0.1,-0.3 -1,2.2 -1,5 0,7 5.7,12.7 12.7,12.7 v 0 l 41,0.1 v 0 c 3.6,-0.4 6.5,-3.4 6.5,-7.1 z"
   id="path30"
   inkscape:connector-curvature="0"
   style="fill:#dc3c00" />
				<g
   id="shape24-12_1_"
   transform="translate(2.53953,-17.472)">
					<title
   id="title32">Cloud, Office 365.795</title>
					<path
   d="m 59.4,77.7 v 0 -15.8 l -5.7,-1.6 -10.2,3.8 v 0 11.4 L 47,74.1 v -9.3 l 6.7,-1.6 v 13.7 l -10.2,-1.4 10.2,3.8 5.7,-1.6 z"
   id="path34"
   inkscape:connector-curvature="0"
   style="fill:#dc3c00" />
				</g>
			</g>
		</g>
	</g>
</g>
<g
   id="paths"
   transform="translate(-46,-37.983354)">
	<g
   id="Access_control">
	</g>
	<g
   id="Azure_active_directory">
	</g>
	<g
   id="API_Management">
	</g>
	<g
   id="Azure_automation">
	</g>
	<g
   id="Azure_SQL_database">
	</g>
	<g
   id="Azure_subscription">
	</g>
	<g
   id="Backup_service">
	</g>
	<g
   id="Bitbucket_code_source">
	</g>
	<g
   id="Azure_cache">
	</g>
	<g
   id="Content_delivery_network__x28_CDN_x29_">
	</g>
	<g
   id="Cloud_service">
	</g>
	<g
   id="CodePlex">
	</g>
	<g
   id="Dropbox_code_source">
	</g>
	<g
   id="Express_route">
	</g>
	<g
   id="Git_repository">
	</g>
	<g
   id="GitHub_code">
	</g>
	<g
   id="HD_Insight">
	</g>
	<g
   id="Health_monitoring">
	</g>
	<g
   id="Healthy">
	</g>
	<g
   id="BizTalk_hybrid_connection">
	</g>
	<g
   id="Hybrid_connection_manager_for_BizTalk_hybrid_connection">
	</g>
	<g
   id="Hyper-V_recovery_manager">
	</g>
	<g
   id="Machine_learning">
	</g>
	<g
   id="Media_services">
	</g>
	<g
   id="Microsoft_account">
	</g>
	<g
   id="Mobile_services">
	</g>
	<g
   id="Multi-factor_authentication">
	</g>
	<g
   id="MySQL_database">
	</g>
	<g
   id="Notification_hub">
	</g>
	<g
   id="Notification_topic">
	</g>
	<g
   id="Cloud_Office_365">
	</g>
	<g
   id="Office_365">
	</g>
</g>
</svg>