<?xml version="1.0" encoding="UTF-8" standalone="no"?>
<!-- Generator: Adobe Illustrator 17.1.0, SVG Export Plug-In . SVG Version: 6.00 Build 0)  -->

<svg
   xmlns:dc="http://purl.org/dc/elements/1.1/"
   xmlns:cc="http://creativecommons.org/ns#"
   xmlns:rdf="http://www.w3.org/1999/02/22-rdf-syntax-ns#"
   xmlns:svg="http://www.w3.org/2000/svg"
   xmlns="http://www.w3.org/2000/svg"
   xmlns:sodipodi="http://sodipodi.sourceforge.net/DTD/sodipodi-0.dtd"
   xmlns:inkscape="http://www.inkscape.org/namespaces/inkscape"
   version="1.1"
   id="Layer_1"
   x="0px"
   y="0px"
   width="48.400002"
   height="48.400002"
   viewBox="0 0 48.400002 48.400002"
   enable-background="new 0 0 50 50"
   xml:space="preserve"
   sodipodi:docname="OperationsManagementSuite.svg"
   inkscape:version="0.92.4 (5da689c313, 2019-01-14)"><metadata
   id="metadata65"><rdf:RDF><cc:Work
       rdf:about=""><dc:format>image/svg+xml</dc:format><dc:type
         rdf:resource="http://purl.org/dc/dcmitype/StillImage" /></cc:Work></rdf:RDF></metadata><defs
   id="defs63" /><sodipodi:namedview
   pagecolor="#ffffff"
   bordercolor="#666666"
   borderopacity="1"
   objecttolerance="10"
   gridtolerance="10"
   guidetolerance="10"
   inkscape:pageopacity="0"
   inkscape:pageshadow="2"
   inkscape:window-width="713"
   inkscape:window-height="543"
   id="namedview61"
   showgrid="false"
   inkscape:zoom="4.72"
   inkscape:cx="23.4"
   inkscape:cy="23.400001"
   inkscape:window-x="0"
   inkscape:window-y="0"
   inkscape:window-maximized="0"
   inkscape:current-layer="Layer_1" />
<rect
   x="4.9000001"
   y="21"
   width="3.2"
   height="3.2"
   id="rect2"
   style="clip-rule:evenodd;fill:#59b4d9;fill-rule:evenodd" />
<rect
   x="4.9000001"
   y="25.799999"
   width="3.2"
   height="3.2"
   id="rect4"
   style="clip-rule:evenodd;fill:#59b4d9;fill-rule:evenodd" />
<path
   d="M 4.9,19.4 H 8.1 V 16.5 C 6.9,17.1 5.9,17.8 4.9,18.6 Z"
   id="path6"
   inkscape:connector-curvature="0"
   style="clip-rule:evenodd;fill:#59b4d9;fill-rule:evenodd" />
<rect
   x="9.6999998"
   y="35.5"
   width="3.2"
   height="3.2"
   id="rect8"
   style="clip-rule:evenodd;fill:#59b4d9;fill-rule:evenodd" />
<rect
   x="9.6999998"
   y="40.299999"
   width="3.2"
   height="3.2"
   id="rect10"
   style="clip-rule:evenodd;fill:#59b4d9;fill-rule:evenodd" />
<rect
   x="9.6999998"
   y="45.200001"
   width="3.2"
   height="3.2"
   id="rect12"
   style="clip-rule:evenodd;fill:#59b4d9;fill-rule:evenodd" />
<rect
   x="9.6999998"
   y="30.700001"
   width="3.2"
   height="3.2"
   id="rect14"
   style="clip-rule:evenodd;fill:#59b4d9;fill-rule:evenodd" />
<rect
   x="0"
   y="25.799999"
   width="3.2"
   height="3.2"
   id="rect16"
   style="clip-rule:evenodd;fill:#59b4d9;fill-rule:evenodd" />
<rect
   x="4.9000001"
   y="40.299999"
   width="3.2"
   height="3.2"
   id="rect18"
   style="clip-rule:evenodd;fill:#59b4d9;fill-rule:evenodd" />
<rect
   x="0"
   y="35.5"
   width="3.2"
   height="3.2"
   id="rect20"
   style="clip-rule:evenodd;fill:#59b4d9;fill-rule:evenodd" />
<rect
   x="0"
   y="30.700001"
   width="3.2"
   height="3.2"
   id="rect22"
   style="clip-rule:evenodd;fill:#59b4d9;fill-rule:evenodd" />
<path
   d="m 4.9,45.9 c 1,0.8 2.1,1.5 3.2,2.1 V 45.1 H 4.9 Z"
   id="path24"
   inkscape:connector-curvature="0"
   style="clip-rule:evenodd;fill:#59b4d9;fill-rule:evenodd" />
<path
   d="M 0.39999998,24.2 H 3.3 V 21 H 2.5 c -0.9,1 -1.60000002,2 -2.10000002,3.2 z"
   id="path26"
   inkscape:connector-curvature="0"
   style="clip-rule:evenodd;fill:#59b4d9;fill-rule:evenodd" />
<rect
   x="4.9000001"
   y="35.5"
   width="3.2"
   height="3.2"
   id="rect28"
   style="clip-rule:evenodd;fill:#59b4d9;fill-rule:evenodd" />
<path
   d="m 29,43.5 h 0.8 c 0.8,-1 1.5,-2.1 2.1,-3.2 H 29 Z"
   id="path30"
   inkscape:connector-curvature="0"
   style="clip-rule:evenodd;fill:#59b4d9;fill-rule:evenodd" />
<rect
   x="9.6999998"
   y="25.799999"
   width="3.2"
   height="3.2"
   id="rect32"
   style="clip-rule:evenodd;fill:#59b4d9;fill-rule:evenodd" />
<rect
   x="24.199999"
   y="40.299999"
   width="3.2"
   height="3.2"
   id="rect34"
   style="clip-rule:evenodd;fill:#59b4d9;fill-rule:evenodd" />
<path
   d="m 31.5,0 c -9.3,0 -16.9,7.6 -16.9,16.9 0,5 0,16.9 0,16.9 0,0 12.6,0 16.9,0 9.3,0 16.9,-7.6 16.9,-16.9 C 48.4,7.6 40.8,0 31.5,0 Z"
   id="path36"
   inkscape:connector-curvature="0"
   style="fill:#7fba00" />
<rect
   x="22.6"
   y="14.5"
   width="3.2"
   height="9.6999998"
   id="rect38"
   style="fill:#68217a" />
<rect
   x="29"
   y="17.700001"
   width="3.2"
   height="6.5"
   id="rect40"
   style="fill:#68217a" />
<rect
   x="35.5"
   y="11.3"
   width="3.2"
   height="12.9"
   id="rect42"
   style="fill:#68217a" />
<path
   d="m 24.2,48 c 1.2,-0.6 2.2,-1.3 3.2,-2.1 v -0.8 h -3.2 z"
   id="path44"
   inkscape:connector-curvature="0"
   style="clip-rule:evenodd;fill:#59b4d9;fill-rule:evenodd" />
<rect
   x="29"
   y="35.5"
   width="3.2"
   height="3.2"
   id="rect46"
   style="clip-rule:evenodd;fill:#59b4d9;fill-rule:evenodd" />
<rect
   x="24.199999"
   y="35.5"
   width="3.2"
   height="3.2"
   id="rect48"
   style="clip-rule:evenodd;fill:#59b4d9;fill-rule:evenodd" />
<rect
   x="14.5"
   y="40.299999"
   width="3.2"
   height="3.2"
   id="rect50"
   style="clip-rule:evenodd;fill:#59b4d9;fill-rule:evenodd" />
<polygon
   points="14.5,16.1 11.3,16.1 11.3,19.4 14.5,19.4 "
   id="polygon52"
   style="clip-rule:evenodd;fill:#59b4d9;fill-rule:evenodd"
   transform="translate(-1.6)" />
<rect
   x="19.4"
   y="40.299999"
   width="3.2"
   height="3.2"
   id="rect54"
   style="clip-rule:evenodd;fill:#59b4d9;fill-rule:evenodd" />
<rect
   x="19.4"
   y="45.200001"
   width="3.2"
   height="3.2"
   id="rect56"
   style="clip-rule:evenodd;fill:#59b4d9;fill-rule:evenodd" />
<rect
   x="14.5"
   y="35.5"
   width="3.2"
   height="3.2"
   id="rect58"
   style="clip-rule:evenodd;fill:#59b4d9;fill-rule:evenodd" />
</svg>