<?xml version="1.0" encoding="UTF-8" standalone="no"?>
<!-- Generator: Adobe Illustrator 18.1.0, SVG Export Plug-In . SVG Version: 6.00 Build 0)  -->

<svg
   xmlns:dc="http://purl.org/dc/elements/1.1/"
   xmlns:cc="http://creativecommons.org/ns#"
   xmlns:rdf="http://www.w3.org/1999/02/22-rdf-syntax-ns#"
   xmlns:svg="http://www.w3.org/2000/svg"
   xmlns="http://www.w3.org/2000/svg"
   xmlns:sodipodi="http://sodipodi.sourceforge.net/DTD/sodipodi-0.dtd"
   xmlns:inkscape="http://www.inkscape.org/namespaces/inkscape"
   version="1.0"
   x="0px"
   y="0px"
   viewBox="0 0 35.099998 35.200001"
   enable-background="new 0 0 152 117.5"
   xml:space="preserve"
   id="svg101"
   sodipodi:docname="OSimage.svg"
   width="35.099998"
   height="35.200001"
   inkscape:version="0.92.4 (5da689c313, 2019-01-14)"><metadata
   id="metadata107"><rdf:RDF><cc:Work
       rdf:about=""><dc:format>image/svg+xml</dc:format><dc:type
         rdf:resource="http://purl.org/dc/dcmitype/StillImage" /></cc:Work></rdf:RDF></metadata><defs
   id="defs105" /><sodipodi:namedview
   pagecolor="#ffffff"
   bordercolor="#666666"
   borderopacity="1"
   objecttolerance="10"
   gridtolerance="10"
   guidetolerance="10"
   inkscape:pageopacity="0"
   inkscape:pageshadow="2"
   inkscape:window-width="713"
   inkscape:window-height="543"
   id="namedview103"
   showgrid="false"
   inkscape:zoom="2.0085106"
   inkscape:cx="17.64"
   inkscape:cy="17.6"
   inkscape:window-x="0"
   inkscape:window-y="0"
   inkscape:window-maximized="0"
   inkscape:current-layer="svg101" />
<g
   id="Layer_1"
   transform="translate(-58.36,-41.15)">
	<g
   id="Azure">
	</g>
	<g
   id="BizTalk_Services"
   transform="translate(37.3575,-2500.2)">
	</g>
	<g
   id="Key_Vault">
	</g>
	<g
   id="Mobile_Engagement">
	</g>
	<g
   id="Office_subscription">
		<g
   id="Office_subscription_1_">
		</g>
	</g>
</g>
<g
   id="paths"
   transform="translate(-58.36,-41.15)">
	<g
   id="Access_control">
	</g>
	<g
   id="Azure_active_directory">
	</g>
	<g
   id="API_Management">
	</g>
	<g
   id="Azure_automation">
	</g>
	<g
   id="Azure_SQL_database">
	</g>
	<g
   id="Azure_subscription">
	</g>
	<g
   id="Backup_service">
	</g>
	<g
   id="Bitbucket_code_source">
	</g>
	<g
   id="Azure_cache">
	</g>
	<g
   id="Content_delivery_network__x28_CDN_x29_">
	</g>
	<g
   id="Cloud_service">
	</g>
	<g
   id="CodePlex">
	</g>
	<g
   id="Dropbox_code_source">
	</g>
	<g
   id="Express_route">
	</g>
	<g
   id="Git_repository">
	</g>
	<g
   id="GitHub_code">
	</g>
	<g
   id="HD_Insight">
	</g>
	<g
   id="Health_monitoring">
	</g>
	<g
   id="Healthy">
	</g>
	<g
   id="BizTalk_hybrid_connection">
	</g>
	<g
   id="Hybrid_connection_manager_for_BizTalk_hybrid_connection">
	</g>
	<g
   id="Hyper-V_recovery_manager">
	</g>
	<g
   id="Machine_learning">
	</g>
	<g
   id="Media_services">
	</g>
	<g
   id="Microsoft_account">
	</g>
	<g
   id="Mobile_services">
	</g>
	<g
   id="Multi-factor_authentication">
	</g>
	<g
   id="MySQL_database">
	</g>
	<g
   id="Notification_hub">
	</g>
	<g
   id="Notification_topic">
	</g>
	<g
   id="Cloud_Office_365">
	</g>
	<g
   id="Office_365">
	</g>
	<g
   id="OS_image">
		<g
   id="group1186-2309_1_"
   transform="translate(1241.26,-2257.15)">
			<title
   id="title41">Sheet.1186</title>
			<g
   id="shape1187-2310_1_"
   transform="translate(22.7775,-10.3778)">
				<title
   id="title43">Sheet.1187</title>
				<path
   d="m -1178.5,2331.8 c 0.2,0 0.3,-0.1 0.4,-0.2 0.1,-0.1 0.2,-0.3 0.2,-0.5 0,-0.2 -0.1,-0.3 -0.2,-0.4 -0.2,-0.2 -0.6,-0.2 -0.9,0 -0.2,0.2 -0.2,0.6 0,0.9 0.1,0.1 0.3,0.2 0.5,0.2 z"
   id="path45"
   inkscape:connector-curvature="0"
   style="fill:#0078d7" />
			</g>
			<g
   id="shape1188-2312_1_"
   transform="translate(19.056,-6.65625)">
				<title
   id="title48">Sheet.1188</title>
				<path
   d="m -1179.6,2331.3 c -0.2,0.2 -0.2,0.6 0,0.9 0.1,0.1 0.3,0.2 0.4,0.2 0.2,0 0.3,-0.1 0.4,-0.2 0.1,-0.1 0.2,-0.3 0.2,-0.4 0,-0.2 -0.1,-0.3 -0.2,-0.4 -0.1,-0.3 -0.5,-0.3 -0.8,-0.1 z"
   id="path50"
   inkscape:connector-curvature="0"
   style="fill:#0078d7" />
			</g>
			<g
   id="shape1189-2314_1_">
				<title
   id="title53">Sheet.1189</title>
				<path
   d="m -1150.1,2328.5 c -0.2,-0.4 -0.6,-0.7 -1.1,-0.7 -0.3,0 -0.6,0.1 -0.9,0.2 -0.4,0.1 -13.1,4.8 -14.4,5.3 h -0.1 c -3,-2.5 -4.9,-6.2 -4.9,-10.4 0,-7.5 6.1,-13.5 13.5,-13.5 4.1,0 7.7,1.8 10.2,4.7 v -15.8 h -35.1 v 35.1 h 18.5 c 3.8,-1.4 12.2,-4.5 12.5,-4.6 0.3,-0.1 0.5,-0.1 0.6,-0.1 0.1,0 0.2,0 0.3,0.2 0.1,0.3 -0.1,0.5 -0.4,0.8 -0.7,0.7 -2.3,2.1 -4.1,3.8 h 1.3 c 1.7,-1.5 3,-2.8 3.4,-3.2 0.4,-0.2 1.1,-0.9 0.7,-1.8 z"
   id="path55"
   inkscape:connector-curvature="0"
   style="fill:#0078d7" />
			</g>
			<g
   id="shape1190-2316_1_"
   transform="translate(18.3383,-8.51775)">
				<title
   id="title58">Sheet.1190</title>
				<circle
   cx="-1179.3"
   cy="2331.5"
   id="ellipse60"
   r="0.60000002"
   style="fill:#0078d7" />
			</g>
			<g
   id="shape1191-2318_1_"
   transform="translate(19.056,-10.3778)">
				<title
   id="title63">Sheet.1191</title>
				<path
   d="m -1179.1,2331.8 c 0.2,0 0.3,-0.1 0.4,-0.2 0.1,-0.1 0.2,-0.3 0.2,-0.5 0,-0.2 -0.1,-0.3 -0.2,-0.4 -0.2,-0.2 -0.6,-0.2 -0.9,0 -0.2,0.2 -0.2,0.6 0,0.9 0.1,0.1 0.3,0.2 0.5,0.2 z"
   id="path65"
   inkscape:connector-curvature="0"
   style="fill:#0078d7" />
			</g>
			<g
   id="shape1192-2320_1_"
   transform="translate(20.9685,-11.148)">
				<title
   id="title68">Sheet.1192</title>
				<circle
   cx="-1178.9"
   cy="2331.1001"
   id="ellipse70"
   r="0.60000002"
   style="fill:#0078d7" />
			</g>
			<g
   id="shape1193-2322_1_"
   transform="translate(20.9685,-5.88675)">
				<title
   id="title73">Sheet.1193</title>
				<circle
   cx="-1178.9"
   cy="2331.8999"
   id="ellipse75"
   r="0.60000002"
   style="fill:#0078d7" />
			</g>
			<g
   id="shape1194-2324_1_"
   transform="translate(16.8233,-4.37775)">
				<title
   id="title78">Sheet.1194</title>
				<path
   d="m -1174.7,2321.9 c -3,0 -5.4,2.4 -5.4,5.4 0,3 2.4,5.4 5.4,5.4 3,0 5.4,-2.4 5.4,-5.4 0,-3 -2.4,-5.4 -5.4,-5.4 z m 0,9.9 c -2.5,0 -4.5,-2 -4.5,-4.5 0,-2.5 2,-4.5 4.5,-4.5 2.5,0 4.5,2 4.5,4.5 0,2.5 -2.1,4.5 -4.5,4.5 z"
   id="path80"
   inkscape:connector-curvature="0"
   style="fill:#0078d7" />
			</g>
			<g
   id="shape1195-2326_1_"
   transform="translate(19.983,-7.5375)">
				<title
   id="title83">Sheet.1195</title>
				<circle
   cx="-1177.9"
   cy="2330.5"
   id="ellipse85"
   r="1.8"
   style="fill:#0078d7" />
			</g>
			<g
   id="shape1196-2328_1_"
   transform="translate(23.5995,-8.51775)">
				<title
   id="title88">Sheet.1196</title>
				<circle
   cx="-1178.5"
   cy="2331.5"
   id="ellipse90"
   r="0.60000002"
   style="fill:#0078d7" />
			</g>
			<g
   id="shape1197-2330_1_"
   transform="translate(22.7768,-6.65625)">
				<title
   id="title93">Sheet.1197</title>
				<path
   d="m -1179,2331.3 c -0.2,0.2 -0.2,0.6 0,0.9 0.1,0.1 0.3,0.2 0.4,0.2 0.2,0 0.3,-0.1 0.4,-0.2 0.1,-0.1 0.2,-0.3 0.2,-0.4 0,-0.2 -0.1,-0.3 -0.2,-0.4 -0.1,-0.3 -0.5,-0.3 -0.8,-0.1 z"
   id="path95"
   inkscape:connector-curvature="0"
   style="fill:#0078d7" />
			</g>
		</g>
	</g>
</g>
</svg>