<?xml version="1.0" encoding="UTF-8" standalone="no"?>
<!-- Generated by Microsoft Visio, SVG Export Power BI.svg Page-1 -->

<svg
   xmlns:v="http://schemas.microsoft.com/visio/2003/SVGExtensions/"
   xmlns:dc="http://purl.org/dc/elements/1.1/"
   xmlns:cc="http://creativecommons.org/ns#"
   xmlns:rdf="http://www.w3.org/1999/02/22-rdf-syntax-ns#"
   xmlns:svg="http://www.w3.org/2000/svg"
   xmlns="http://www.w3.org/2000/svg"
   xmlns:sodipodi="http://sodipodi.sourceforge.net/DTD/sodipodi-0.dtd"
   xmlns:inkscape="http://www.inkscape.org/namespaces/inkscape"
   width="0.7311002in"
   height="0.76964647in"
   viewBox="0 0 52.639233 55.414541"
   xml:space="preserve"
   class="st2"
   version="1.1"
   id="svg36"
   sodipodi:docname="PowerBIEmbedded.svg"
   style="font-size:12px;overflow:visible;color-interpolation-filters:sRGB;fill:none;fill-rule:evenodd;stroke-linecap:square;stroke-miterlimit:3"
   inkscape:version="0.92.4 (5da689c313, 2019-01-14)"><metadata
   id="metadata42"><rdf:RDF><cc:Work
       rdf:about=""><dc:format>image/svg+xml</dc:format><dc:type
         rdf:resource="http://purl.org/dc/dcmitype/StillImage" /></cc:Work></rdf:RDF></metadata><defs
   id="defs40" /><sodipodi:namedview
   pagecolor="#ffffff"
   bordercolor="#666666"
   borderopacity="1"
   objecttolerance="10"
   gridtolerance="10"
   guidetolerance="10"
   inkscape:pageopacity="0"
   inkscape:pageshadow="2"
   inkscape:window-width="713"
   inkscape:window-height="543"
   id="namedview38"
   showgrid="false"
   inkscape:zoom="3.0770244"
   inkscape:cx="35.093774"
   inkscape:cy="36.940839"
   inkscape:window-x="0"
   inkscape:window-y="0"
   inkscape:window-maximized="0"
   inkscape:current-layer="svg36" />
	<v:documentProperties
   v:langID="1033"
   v:viewMarkup="false" />

	<style
   type="text/css"
   id="style2">
	<![CDATA[
		.st1 {fill:#000000;stroke:none;stroke-linecap:butt;stroke-width:1.05281}
		.st2 {fill:none;fill-rule:evenodd;font-size:12px;overflow:visible;stroke-linecap:square;stroke-miterlimit:3}
	]]>
	</style>

	<g
   v:mID="0"
   v:index="1"
   v:groupContext="foregroundPage"
   id="g34"
   transform="translate(-1.05281,-1.0526351)">
		<title
   id="title4">Page-1</title>
		<v:pageProperties
   v:drawingScale="1"
   v:pageScale="1"
   v:drawingUnits="19"
   v:shadowOffsetX="9"
   v:shadowOffsetY="-9" />
		<g
   id="group1-1"
   transform="translate(1.05281,-1.05281)"
   v:mID="1"
   v:groupContext="group">
			<title
   id="title6">Sheet.1</title>
			<g
   id="shape2-2"
   v:mID="2"
   v:groupContext="shape"
   transform="translate(9.79116,-7.47497)">
				<title
   id="title8">Sheet.2</title>
				<path
   d="m 6.74,54.15 c 0,1.9 -1.48,3.37 -3.37,3.37 C 1.47,57.52 0,56.05 0,54.15 V 39.52 c 0,-1.9 1.47,-3.37 3.37,-3.37 1.89,0 3.37,1.47 3.37,3.37 z"
   class="st1"
   id="path10"
   inkscape:connector-curvature="0"
   style="fill:#000000;stroke:none;stroke-width:1.05280995;stroke-linecap:butt" />
			</g>
			<g
   id="shape3-4"
   v:mID="3"
   v:groupContext="shape"
   transform="translate(19.6876,-3.47428)">
				<title
   id="title13">Sheet.3</title>
				<path
   d="m 6.74,54.15 c 0,1.9 -1.48,3.37 -3.37,3.37 C 1.47,57.52 0,56.05 0,54.15 V 31.73 c 0,-1.9 1.47,-3.37 3.37,-3.37 1.89,0 3.37,1.47 3.37,3.37 z"
   class="st1"
   id="path15"
   inkscape:connector-curvature="0"
   style="fill:#000000;stroke:none;stroke-width:1.05280995;stroke-linecap:butt" />
			</g>
			<g
   id="shape4-6"
   v:mID="4"
   v:groupContext="shape"
   transform="translate(0,-10.7387)">
				<title
   id="title18">Sheet.4</title>
				<path
   d="m 6.74,54.15 c 0,1.9 -1.48,3.37 -3.37,3.37 C 1.47,57.52 0,56.05 0,54.15 v -7.89 c 0,-1.9 1.47,-3.37 3.37,-3.37 1.89,0 3.37,1.47 3.37,3.37 z"
   class="st1"
   id="path20"
   inkscape:connector-curvature="0"
   style="fill:#000000;stroke:none;stroke-width:1.05280995;stroke-linecap:butt" />
			</g>
			<g
   id="shape5-8"
   v:mID="5"
   v:groupContext="shape"
   transform="translate(29.584)">
				<title
   id="title23">Sheet.5</title>
				<path
   d="m 6.74,54.15 c 0,1.9 -1.48,3.37 -3.37,3.37 C 1.47,57.52 0,56.05 0,54.15 V 24.46 c 0,-1.89 1.47,-3.36 3.37,-3.36 1.89,0 3.37,1.47 3.37,3.36 z"
   class="st1"
   id="path25"
   inkscape:connector-curvature="0"
   style="fill:#000000;stroke:none;stroke-width:1.05280995;stroke-linecap:butt" />
			</g>
			<g
   id="shape6-10"
   v:mID="6"
   v:groupContext="shape"
   transform="translate(1.57922,-4.84294)">
				<title
   id="title28">Sheet.6</title>
				<path
   d="m 45.48,57.52 c -0.52,0 -1.16,-0.1 -1.68,-0.31 l -4.21,-1.37 c -0.74,-0.21 -1.06,-0.95 -0.85,-1.69 0.21,-0.73 0.95,-1.05 1.69,-0.84 l 4.21,1.37 c 0.84,0.32 1.79,0.11 2.53,-0.42 0.73,-0.53 1.15,-1.37 1.15,-2.32 V 24.68 c 0,-1.27 -0.84,-2.43 -2,-2.74 L 6.42,9.83 C 5.58,9.51 4.63,9.73 3.9,10.25 3.16,10.78 2.74,11.62 2.74,12.57 v 18.74 c 0,0.74 -0.63,1.37 -1.37,1.37 C 0.63,32.68 0,32.05 0,31.31 V 12.57 C 0,10.78 0.84,9.2 2.21,8.04 3.68,6.99 5.47,6.67 7.16,7.2 l 39.9,12.11 c 2.32,0.73 4,2.84 4,5.37 v 27.26 c 0,1.79 -0.84,3.48 -2.31,4.53 -1.06,0.74 -2.11,1.05 -3.27,1.05 z"
   class="st1"
   id="path30"
   inkscape:connector-curvature="0"
   style="fill:#000000;stroke:none;stroke-width:1.05280995;stroke-linecap:butt" />
			</g>
		</g>
	</g>
</svg>