<?xml version="1.0" encoding="UTF-8" standalone="no"?>
<!-- Generator: Adobe Illustrator 19.1.0, SVG Export Plug-In . SVG Version: 6.00 Build 0)  -->

<svg
   xmlns:dc="http://purl.org/dc/elements/1.1/"
   xmlns:cc="http://creativecommons.org/ns#"
   xmlns:rdf="http://www.w3.org/1999/02/22-rdf-syntax-ns#"
   xmlns:svg="http://www.w3.org/2000/svg"
   xmlns="http://www.w3.org/2000/svg"
   xmlns:sodipodi="http://sodipodi.sourceforge.net/DTD/sodipodi-0.dtd"
   xmlns:inkscape="http://www.inkscape.org/namespaces/inkscape"
   version="1.1"
   id="Layer_1"
   x="0px"
   y="0px"
   viewBox="-280 372 49.799999 40.478867"
   xml:space="preserve"
   sodipodi:docname="ResourceGroup.svg"
   width="49.799999"
   height="40.478867"
   inkscape:version="0.92.4 (5da689c313, 2019-01-14)"><metadata
   id="metadata24"><rdf:RDF><cc:Work
       rdf:about=""><dc:format>image/svg+xml</dc:format><dc:type
         rdf:resource="http://purl.org/dc/dcmitype/StillImage" /></cc:Work></rdf:RDF></metadata><defs
   id="defs22" /><sodipodi:namedview
   pagecolor="#ffffff"
   bordercolor="#666666"
   borderopacity="1"
   objecttolerance="10"
   gridtolerance="10"
   guidetolerance="10"
   inkscape:pageopacity="0"
   inkscape:pageshadow="2"
   inkscape:window-width="713"
   inkscape:window-height="543"
   id="namedview20"
   showgrid="false"
   inkscape:zoom="4.72"
   inkscape:cx="24.9"
   inkscape:cy="20.203867"
   inkscape:window-x="0"
   inkscape:window-y="0"
   inkscape:window-maximized="0"
   inkscape:current-layer="Layer_1" />
<style
   type="text/css"
   id="style2">
	.st0{fill:#0078D7;}
</style>
<path
   class="st0"
   d="m -255.1,389.875 c -0.1,0 -0.1,0 -0.2,-0.1 l -14.7,-8.5 c -0.1,-0.1 -0.2,-0.2 -0.2,-0.4 0,-0.2 0.1,-0.3 0.2,-0.4 l 14.6,-8.4 c 0.1,-0.1 0.3,-0.1 0.4,0 l 14.7,8.5 c 0.1,0.1 0.2,0.2 0.2,0.4 0,0.2 -0.1,0.3 -0.2,0.4 l -14.6,8.4 c 0,0.1 -0.1,0.1 -0.2,0.1"
   id="path4"
   inkscape:connector-curvature="0"
   style="fill:#0078d7" />
<path
   class="st0"
   d="m -257.2,410.575 c -0.1,0 -0.2,0 -0.2,-0.1 l -14.7,-8.5 c -0.1,-0.1 -0.2,-0.2 -0.2,-0.4 v -17 c 0,-0.2 0.1,-0.3 0.2,-0.4 0.1,-0.1 0.3,-0.1 0.4,0 l 14.7,8.5 c 0.1,0.1 0.2,0.2 0.2,0.4 v 17 c 0,0.2 -0.1,0.3 -0.2,0.4 0,0.1 -0.1,0.1 -0.2,0.1"
   id="path6"
   inkscape:connector-curvature="0"
   style="fill:#0078d7" />
<path
   class="st0"
   d="m -253,410.575 c -0.1,0 -0.2,0 -0.2,-0.1 -0.1,-0.1 -0.2,-0.2 -0.2,-0.4 v -16.8 c 0,-0.2 0.1,-0.3 0.2,-0.4 l 14.7,-8.5 c 0.1,-0.1 0.3,-0.1 0.4,0 0.1,0.1 0.2,0.2 0.2,0.4 v 16.9 c 0,0.2 -0.1,0.3 -0.2,0.4 l -14.7,8.5 c -0.1,0 -0.1,0 -0.2,0"
   id="path8"
   inkscape:connector-curvature="0"
   style="fill:#0078d7" />
<path
   class="st0"
   d="m -253,410.575 c -0.1,0 -0.2,0 -0.2,-0.1 -0.1,-0.1 -0.2,-0.2 -0.2,-0.4 v -16.8 c 0,-0.2 0.1,-0.3 0.2,-0.4 l 14.7,-8.5 c 0.1,-0.1 0.3,-0.1 0.4,0 0.1,0.1 0.2,0.2 0.2,0.4 v 16.9 c 0,0.2 -0.1,0.3 -0.2,0.4 l -14.7,8.5 c -0.1,0 -0.1,0 -0.2,0"
   id="path10"
   inkscape:connector-curvature="0"
   style="fill:#0078d7" />
<path
   class="st0"
   d="m -270.5,412.475 c -0.2,0 -0.5,-0.1 -0.7,-0.2 l -6.8,-4 c -1.2,-0.7 -2,-2.1 -2,-3.4 v -25.2 c 0,-1.3 0.8,-2.8 2,-3.4 l 6.8,-4 c 0.7,-0.4 1.6,-0.2 2,0.5 0.4,0.7 0.2,1.6 -0.5,2 l -6.8,4 c -0.2,0.1 -0.5,0.6 -0.5,0.9 v 25.2 c 0,0.3 0.3,0.8 0.5,0.9 l 6.8,4 c 0.7,0.4 0.9,1.3 0.5,2 -0.4,0.4 -0.8,0.7 -1.3,0.7 z"
   id="path12"
   inkscape:connector-curvature="0"
   style="fill:#0078d7" />
<path
   class="st0"
   d="m -239.7,372.075 c 0.2,0 0.5,0.1 0.7,0.2 l 6.8,4 c 1.2,0.7 2,2.1 2,3.4 v 25.2 c 0,1.3 -0.8,2.8 -2,3.4 l -6.8,4 c -0.7,0.4 -1.6,0.2 -2,-0.5 -0.4,-0.7 -0.2,-1.6 0.5,-2 l 6.8,-4 c 0.2,-0.1 0.5,-0.6 0.5,-0.9 v -25.2 c 0,-0.3 -0.3,-0.8 -0.5,-0.9 l -6.8,-4 c -0.7,-0.4 -0.9,-1.3 -0.5,-2 0.3,-0.4 0.8,-0.7 1.3,-0.7 z"
   id="path14"
   inkscape:connector-curvature="0"
   style="fill:#0078d7" />
<g
   id="paths"
   transform="translate(-0.1,-4.725)">
	<g
   id="Access_control">
	</g>
	<g
   id="Azure_active_directory">
	</g>
</g>
</svg>