<?xml version="1.0" encoding="UTF-8" standalone="no"?>
<!-- Generator: Adobe Illustrator 17.0.1, SVG Export Plug-In . SVG Version: 6.00 Build 0)  -->

<svg
   xmlns:dc="http://purl.org/dc/elements/1.1/"
   xmlns:cc="http://creativecommons.org/ns#"
   xmlns:rdf="http://www.w3.org/1999/02/22-rdf-syntax-ns#"
   xmlns:svg="http://www.w3.org/2000/svg"
   xmlns="http://www.w3.org/2000/svg"
   xmlns:sodipodi="http://sodipodi.sourceforge.net/DTD/sodipodi-0.dtd"
   xmlns:inkscape="http://www.inkscape.org/namespaces/inkscape"
   version="1.1"
   id="Layer_1"
   x="0px"
   y="0px"
   width="50"
   height="40.341999"
   viewBox="0 0 50 40.341999"
   enable-background="new 0 0 50 50"
   xml:space="preserve"
   sodipodi:docname="ResourceGroupColor.svg"
   inkscape:version="0.92.4 (5da689c313, 2019-01-14)"><metadata
   id="metadata19"><rdf:RDF><cc:Work
       rdf:about=""><dc:format>image/svg+xml</dc:format><dc:type
         rdf:resource="http://purl.org/dc/dcmitype/StillImage" /></cc:Work></rdf:RDF></metadata><defs
   id="defs17" /><sodipodi:namedview
   pagecolor="#ffffff"
   bordercolor="#666666"
   borderopacity="1"
   objecttolerance="10"
   gridtolerance="10"
   guidetolerance="10"
   inkscape:pageopacity="0"
   inkscape:pageshadow="2"
   inkscape:window-width="713"
   inkscape:window-height="543"
   id="namedview15"
   showgrid="false"
   inkscape:zoom="4.72"
   inkscape:cx="25"
   inkscape:cy="20.171"
   inkscape:window-x="0"
   inkscape:window-y="0"
   inkscape:window-maximized="0"
   inkscape:current-layer="Layer_1" />
<path
   d="m 25.047,17.818 c -0.078,0 -0.15,-0.023 -0.22,-0.064 L 10.116,9.264 C 9.976,9.184 9.893,9.036 9.893,8.875 9.893,8.719 9.976,8.571 10.116,8.493 L 24.732,0.058 c 0.139,-0.077 0.309,-0.077 0.442,0 l 14.714,8.495 c 0.133,0.078 0.221,0.224 0.221,0.382 0,0.163 -0.088,0.308 -0.221,0.387 l -14.619,8.433 c -0.069,0.04 -0.143,0.063 -0.222,0.063"
   id="path2"
   inkscape:connector-curvature="0"
   style="fill:#3999c6" />
<path
   d="m 22.932,38.455 c -0.08,0 -0.158,-0.019 -0.226,-0.059 L 8.042,29.932 C 7.9,29.853 7.816,29.708 7.816,29.546 V 12.561 c 0,-0.159 0.084,-0.305 0.226,-0.389 0.134,-0.077 0.306,-0.077 0.448,0 l 14.662,8.464 c 0.136,0.082 0.218,0.228 0.218,0.387 V 38.01 c 0,0.163 -0.083,0.305 -0.218,0.386 -0.073,0.041 -0.146,0.059 -0.22,0.059"
   id="path4"
   inkscape:connector-curvature="0"
   style="fill:#59b4d9" />
<path
   d="m 27.081,38.455 c -0.075,0 -0.152,-0.019 -0.226,-0.059 -0.136,-0.081 -0.22,-0.223 -0.22,-0.386 V 21.133 c 0,-0.159 0.084,-0.305 0.22,-0.387 l 14.66,-8.461 c 0.142,-0.078 0.308,-0.078 0.448,0 0.134,0.08 0.22,0.227 0.22,0.385 v 16.877 c 0,0.162 -0.085,0.306 -0.22,0.386 l -14.665,8.464 c -0.061,0.04 -0.14,0.058 -0.217,0.058"
   id="path6"
   inkscape:connector-curvature="0"
   style="fill:#59b4d9" />
<path
   d="m 27.081,38.455 c -0.075,0 -0.152,-0.019 -0.226,-0.059 -0.136,-0.081 -0.22,-0.223 -0.22,-0.386 V 21.133 c 0,-0.159 0.084,-0.305 0.22,-0.387 l 14.66,-8.461 c 0.142,-0.078 0.308,-0.078 0.448,0 0.134,0.08 0.22,0.227 0.22,0.385 v 16.877 c 0,0.162 -0.085,0.306 -0.22,0.386 l -14.665,8.464 c -0.061,0.04 -0.14,0.058 -0.217,0.058"
   id="path8"
   inkscape:connector-curvature="0"
   style="opacity:0.5;fill:#ffffff" />
<path
   d="m 9.558,40.342 c -0.247,0 -0.497,-0.063 -0.726,-0.195 L 1.987,36.195 C 0.835,35.529 0,34.082 0,32.753 V 7.589 C 0,6.26 0.835,4.812 1.987,4.148 L 8.832,0.196 c 0.697,-0.401 1.586,-0.163 1.987,0.532 0.402,0.696 0.163,1.585 -0.532,1.987 L 3.442,6.667 C 3.199,6.808 2.91,7.308 2.91,7.589 v 25.164 c 0,0.281 0.289,0.782 0.532,0.922 l 6.845,3.952 c 0.696,0.402 0.934,1.291 0.532,1.987 -0.269,0.467 -0.758,0.728 -1.261,0.728 z"
   id="path10"
   inkscape:connector-curvature="0"
   style="fill:#7a7a7a" />
<path
   d="m 40.442,0 c 0.247,0 0.497,0.063 0.726,0.195 l 6.845,3.952 C 49.165,4.813 50,6.26 50,7.589 v 25.164 c 0,1.329 -0.835,2.777 -1.987,3.441 l -6.845,3.952 c -0.697,0.401 -1.586,0.163 -1.987,-0.532 -0.402,-0.696 -0.163,-1.585 0.532,-1.987 l 6.845,-3.952 c 0.243,-0.141 0.532,-0.641 0.532,-0.922 V 7.589 c 0,-0.281 -0.289,-0.782 -0.532,-0.922 L 39.713,2.715 C 39.017,2.313 38.779,1.424 39.181,0.728 39.45,0.261 39.939,0 40.442,0 Z"
   id="path12"
   inkscape:connector-curvature="0"
   style="fill:#7a7a7a" />
</svg>