<?xml version="1.0" encoding="UTF-8" standalone="no"?>
<!-- Generator: Adobe Illustrator 18.1.0, SVG Export Plug-In . SVG Version: 6.00 Build 0)  -->

<svg
   xmlns:dc="http://purl.org/dc/elements/1.1/"
   xmlns:cc="http://creativecommons.org/ns#"
   xmlns:rdf="http://www.w3.org/1999/02/22-rdf-syntax-ns#"
   xmlns:svg="http://www.w3.org/2000/svg"
   xmlns="http://www.w3.org/2000/svg"
   xmlns:sodipodi="http://sodipodi.sourceforge.net/DTD/sodipodi-0.dtd"
   xmlns:inkscape="http://www.inkscape.org/namespaces/inkscape"
   version="1.0"
   id="Layer_1"
   x="0px"
   y="0px"
   viewBox="0 0 37.4 41.599997"
   enable-background="new 0 0 176.1 136.1"
   xml:space="preserve"
   sodipodi:docname="SimpleAppServiceAPIApps.svg"
   width="37.400002"
   height="41.599998"
   inkscape:version="0.92.4 (5da689c313, 2019-01-14)"><metadata
   id="metadata9"><rdf:RDF><cc:Work
       rdf:about=""><dc:format>image/svg+xml</dc:format><dc:type
         rdf:resource="http://purl.org/dc/dcmitype/StillImage" /></cc:Work></rdf:RDF></metadata><defs
   id="defs7" /><sodipodi:namedview
   pagecolor="#ffffff"
   bordercolor="#666666"
   borderopacity="1"
   objecttolerance="10"
   gridtolerance="10"
   guidetolerance="10"
   inkscape:pageopacity="0"
   inkscape:pageshadow="2"
   inkscape:window-width="713"
   inkscape:window-height="543"
   id="namedview5"
   showgrid="false"
   inkscape:zoom="1.734019"
   inkscape:cx="18.350003"
   inkscape:cy="21.249997"
   inkscape:window-x="0"
   inkscape:window-y="0"
   inkscape:window-maximized="0"
   inkscape:current-layer="Layer_1" />
<path
   d="M 35.6,0 H 1.8 C 0.8,0 0,0.8 0,1.8 v 27.3 c 0,1 0.8,1.8 1.8,1.8 h 8.7 c 0.7,2.2 2.8,3.7 5.3,3.7 3,0 5.5,-2.5 5.5,-5.5 0,-3 -2.5,-5.5 -5.5,-5.5 -2.5,0 -4.6,1.5 -5.3,3.7 H 3.6 V 7.8 H 33.8 V 27.3 H 28.1 C 27.3,21.3 22,16.6 15.8,16.6 c -2.1,0 -4.2,0.6 -6,1.5 l 1.7,3.2 c 1.2,-0.7 2.8,-1.1 4.2,-1.1 4.8,0 8.9,4 8.9,8.9 0,4.9 -4,8.9 -8.9,8.9 -1.5,0 -2.9,-0.4 -4.2,-1.1 l -1.7,3.2 c 1.8,1 3.9,1.5 6,1.5 6.2,0 11.5,-4.7 12.3,-10.7 h 7.5 c 1,0 1.8,-0.8 1.8,-1.8 V 1.8 C 37.4,0.9 36.6,0 35.6,0 Z"
   id="path2"
   inkscape:connector-curvature="0"
   style="fill:#3276bc" />
</svg>