<?xml version="1.0" encoding="UTF-8" standalone="no"?>
<!-- Generator: Adobe Illustrator 21.0.0, SVG Export Plug-In . SVG Version: 6.00 Build 0)  -->

<svg
   xmlns:dc="http://purl.org/dc/elements/1.1/"
   xmlns:cc="http://creativecommons.org/ns#"
   xmlns:rdf="http://www.w3.org/1999/02/22-rdf-syntax-ns#"
   xmlns:svg="http://www.w3.org/2000/svg"
   xmlns="http://www.w3.org/2000/svg"
   xmlns:sodipodi="http://sodipodi.sourceforge.net/DTD/sodipodi-0.dtd"
   xmlns:inkscape="http://www.inkscape.org/namespaces/inkscape"
   version="1.1"
   id="Layer_1"
   x="0px"
   y="0px"
   width="49.800045"
   height="49.900002"
   viewBox="0 0 49.800045 49.900002"
   enable-background="new 0 0 50 50"
   xml:space="preserve"
   sodipodi:docname="StorageSyncService.svg"
   inkscape:version="0.92.4 (5da689c313, 2019-01-14)"><metadata
   id="metadata33"><rdf:RDF><cc:Work
       rdf:about=""><dc:format>image/svg+xml</dc:format><dc:type
         rdf:resource="http://purl.org/dc/dcmitype/StillImage" /></cc:Work></rdf:RDF></metadata><defs
   id="defs31" /><sodipodi:namedview
   pagecolor="#ffffff"
   bordercolor="#666666"
   borderopacity="1"
   objecttolerance="10"
   gridtolerance="10"
   guidetolerance="10"
   inkscape:pageopacity="0"
   inkscape:pageshadow="2"
   inkscape:window-width="713"
   inkscape:window-height="543"
   id="namedview29"
   showgrid="false"
   inkscape:zoom="4.72"
   inkscape:cx="24.9"
   inkscape:cy="25"
   inkscape:window-x="0"
   inkscape:window-y="0"
   inkscape:window-maximized="0"
   inkscape:current-layer="Layer_1" />
<path
   d="m 43.247,13.881 c 0.372,-1.027 0.577,-2.12 0.577,-3.257 C 43.824,4.756 38.473,0 31.872,0 26.719,0 22.34,2.904 20.662,6.968 19.144,5.415 16.905,4.423 14.407,4.423 c -4.579,0 -8.309,3.329 -8.309,7.44 0,0.72 0.116,1.39 0.319,2.034 C 2.678,15.131 0,18.355 0,22.13 0,26.967 4.38,30.9 9.792,30.9 h 30.213 c 5.426,0 9.795,-3.927 9.795,-8.77 0.013,-3.82 -2.727,-7.057 -6.553,-8.249 z"
   id="path2"
   inkscape:connector-curvature="0"
   style="fill:#59b4d9" />
<path
   enable-background="new    "
   d="m 8.349,19.86 c -0.232,-0.735 -0.364,-1.5 -0.364,-2.321 0,-4.694 4.258,-8.494 9.485,-8.494 2.851,0 5.407,1.133 7.14,2.906 1.916,-4.638 6.914,-7.954 12.797,-7.954 1.516,0 2.969,0.229 4.332,0.635 C 39.586,1.836 35.972,0 31.873,0 26.72,0 22.341,2.904 20.663,6.968 19.145,5.415 16.905,4.423 14.408,4.423 c -4.579,0 -8.309,3.329 -8.309,7.44 0,0.72 0.116,1.39 0.319,2.034 C 2.678,15.131 0,18.355 0,22.13 c 0,1.656 0.523,3.2 1.416,4.523 0.948,-3.142 3.558,-5.678 6.933,-6.793 z"
   id="path4"
   inkscape:connector-curvature="0"
   style="opacity:0.2;fill:#ffffff" />
<path
   enable-background="new    "
   d="M 37.899,15.4 15.9,14.9 v -2.562 c 0,-0.649 -0.769,-0.992 -1.252,-0.557 L 7.905,17.4 14.648,23.019 C 15.131,23.452 15.9,23.11 15.9,22.461 V 19.9 h 5 v 27.122 c 0,1.037 0.851,1.878 1.901,1.878 h 15.098 c 1.05,0 1.901,-0.841 1.901,-1.878 V 17.278 C 39.8,16.241 38.949,15.4 37.899,15.4 Z M 20.9,15.9 h 0.23 c -0.142,0.263 -0.23,0.559 -0.23,0.878 z"
   id="path6"
   inkscape:connector-curvature="0"
   style="opacity:0.8;fill:#ffffff" />
<path
   d="m 39.9,48.022 c 0,1.037 -0.851,1.878 -1.901,1.878 H 22.801 C 21.751,49.9 20.9,49.059 20.9,48.022 V 17.778 c 0,-1.037 0.851,-1.878 1.901,-1.878 h 15.198 c 1.05,0 1.901,0.841 1.901,1.878 z"
   id="path8"
   inkscape:connector-curvature="0"
   style="fill:#7a7a7a" />
<path
   d="m 22.95,44.293 c 0,-1.321 1.075,-2.393 2.401,-2.393 h 9.997 c 1.326,0 2.401,1.072 2.401,2.393 v 0 c 0,1.321 -1.075,2.393 -2.401,2.393 h -9.997 c -1.326,0 -2.401,-1.071 -2.401,-2.393 z"
   id="path10"
   inkscape:connector-curvature="0"
   style="fill:#1e1e1e" />
<circle
   cx="25.581999"
   cy="44.293003"
   r="1.607"
   id="circle12"
   style="fill:#b8d432" />
<path
   d="m 22.95,37.293 c 0,-1.321 1.075,-2.393 2.401,-2.393 h 9.997 c 1.326,0 2.401,1.072 2.401,2.393 v 0 c 0,1.321 -1.075,2.393 -2.401,2.393 h -9.997 c -1.326,0 -2.401,-1.071 -2.401,-2.393 z"
   id="path14"
   inkscape:connector-curvature="0"
   style="fill:#1e1e1e" />
<circle
   cx="25.581999"
   cy="37.293003"
   r="1.607"
   id="circle16"
   style="fill:#b8d432" />
<path
   d="m 22.95,21.4 c 0,-1.322 1.075,-2.393 2.401,-2.393 h 9.997 c 1.326,0 2.401,1.072 2.401,2.393 v 0 c 0,1.322 -1.075,2.393 -2.401,2.393 H 25.351 C 24.025,23.794 22.95,22.722 22.95,21.4 Z"
   id="path18"
   inkscape:connector-curvature="0"
   style="fill:#1e1e1e" />
<circle
   cx="25.581999"
   cy="21.4"
   r="1.607"
   id="circle20"
   style="fill:#b8d432" />
<path
   d="m 28.9,31.9 h -8.05 v -4 H 19.9 l 1,-1 h 8 v -2.561 c 0,-0.649 0.769,-0.992 1.252,-0.557 l 6.743,5.619 -6.743,5.619 C 29.669,35.453 28.9,35.11 28.9,34.461 Z"
   id="path22"
   inkscape:connector-curvature="0"
   style="opacity:0.9;fill:#ffffff" />
<polygon
   points="29.95,34 35.45,29.5 29.95,25 29.95,28 18.95,28 18.95,31 29.95,31 "
   id="polygon24"
   style="fill:#59b4d9"
   transform="translate(-0.1,-0.1)" />
<polygon
   points="15,13 9.5,17.5 15,22 15,19 26,19 26,16 15,16 "
   id="polygon26"
   style="fill:#7a7a7a"
   transform="translate(-0.1,-0.1)" />
</svg>