<?xml version="1.0" encoding="UTF-8" standalone="no"?>
<!-- Generator: Adobe Illustrator 17.1.0, SVG Export Plug-In . SVG Version: 6.00 Build 0)  -->

<svg
   xmlns:dc="http://purl.org/dc/elements/1.1/"
   xmlns:cc="http://creativecommons.org/ns#"
   xmlns:rdf="http://www.w3.org/1999/02/22-rdf-syntax-ns#"
   xmlns:svg="http://www.w3.org/2000/svg"
   xmlns="http://www.w3.org/2000/svg"
   xmlns:sodipodi="http://sodipodi.sourceforge.net/DTD/sodipodi-0.dtd"
   xmlns:inkscape="http://www.inkscape.org/namespaces/inkscape"
   version="1.1"
   id="Layer_1"
   x="0px"
   y="0px"
   height="50"
   width="42.200001"
   viewBox="0 0 42.200001 50"
   enable-background="new 0 0 50 50"
   xml:space="preserve"
   sodipodi:docname="Tags.svg"
   inkscape:version="0.92.4 (5da689c313, 2019-01-14)"><metadata
   id="metadata25"><rdf:RDF><cc:Work
       rdf:about=""><dc:format>image/svg+xml</dc:format><dc:type
         rdf:resource="http://purl.org/dc/dcmitype/StillImage" /></cc:Work></rdf:RDF></metadata><defs
   id="defs23" /><sodipodi:namedview
   pagecolor="#ffffff"
   bordercolor="#666666"
   borderopacity="1"
   objecttolerance="10"
   gridtolerance="10"
   guidetolerance="10"
   inkscape:pageopacity="0"
   inkscape:pageshadow="2"
   inkscape:window-width="713"
   inkscape:window-height="543"
   id="namedview21"
   showgrid="false"
   inkscape:zoom="4.72"
   inkscape:cx="21.1"
   inkscape:cy="25"
   inkscape:window-x="0"
   inkscape:window-y="0"
   inkscape:window-maximized="0"
   inkscape:current-layer="Layer_1" />
<path
   d="M 30.6,0 20.7,0.4 0,21.1 14.7,35.8 35.4,15.1 36.2,5.6 Z m 0.8,7.7 c -0.8,0.8 -2.1,0.8 -2.9,0 -0.8,-0.8 -0.8,-2.1 0,-2.9 0.8,-0.8 2.1,-0.8 2.9,0 0.8,0.8 0.8,2.1 0,2.9 z"
   id="path2"
   inkscape:connector-curvature="0"
   style="fill:#7fba00" />
<polygon
   points="21.9,32.5 21.9,3.1 3.9,21.1 18.6,35.8 "
   id="polygon4"
   style="opacity:0.1;fill:#ffffff"
   transform="translate(-3.9)" />
<path
   d="m 32.6,3.6 c -1.5,-1.5 -3.8,-1.5 -5.3,0 -1.5,1.5 -1.5,3.8 0,5.3 1.5,1.5 3.8,1.5 5.3,0 1.5,-1.5 1.5,-3.9 0,-5.3 z m -1.2,4.1 c -0.8,0.8 -2.1,0.8 -2.9,0 -0.8,-0.8 -0.8,-2.1 0,-2.9 0.8,-0.8 2.1,-0.8 2.9,0 0.8,0.8 0.8,2.1 0,2.9 z"
   id="path6"
   inkscape:connector-curvature="0"
   style="opacity:0.3;fill:#1e1e1e" />
<path
   d="M 33.6,7.1 23.7,7.5 3,28.2 17.7,42.9 38.4,22.2 39.2,12.7 Z m 0.8,7.7 c -0.8,0.8 -2.1,0.8 -2.9,0 -0.8,-0.8 -0.8,-2.1 0,-2.9 0.8,-0.8 2.1,-0.8 2.9,0 0.8,0.8 0.8,2.1 0,2.9 z"
   id="path8"
   inkscape:connector-curvature="0"
   style="fill:#3999c6" />
<polygon
   points="24.9,39.6 24.9,10.2 6.9,28.2 21.6,42.9 "
   id="polygon10"
   style="opacity:0.1;fill:#ffffff"
   transform="translate(-3.9)" />
<path
   d="m 35.6,10.7 c -1.5,-1.5 -3.8,-1.5 -5.3,0 -1.5,1.5 -1.5,3.8 0,5.3 1.5,1.5 3.8,1.5 5.3,0 1.5,-1.5 1.5,-3.8 0,-5.3 z m -1.2,4.1 c -0.8,0.8 -2.1,0.8 -2.9,0 -0.8,-0.8 -0.8,-2.1 0,-2.9 0.8,-0.8 2.1,-0.8 2.9,0 0.8,0.8 0.8,2.1 0,2.9 z"
   id="path12"
   inkscape:connector-curvature="0"
   style="opacity:0.3;fill:#1e1e1e" />
<path
   d="M 36.6,14.2 26.7,14.6 6,35.3 20.7,50 41.4,29.3 42.2,19.8 Z m 0.8,7.7 c -0.8,0.8 -2.1,0.8 -2.9,0 -0.8,-0.8 -0.8,-2.1 0,-2.9 0.8,-0.8 2.1,-0.8 2.9,0 0.8,0.8 0.8,2.1 0,2.9 z"
   id="path14"
   inkscape:connector-curvature="0"
   style="fill:#804998" />
<polygon
   points="27.9,46.7 27.9,17.3 9.9,35.3 24.6,50 "
   id="polygon16"
   style="opacity:0.1;fill:#ffffff"
   transform="translate(-3.9)" />
<path
   d="m 38.6,17.8 c -1.5,-1.5 -3.8,-1.5 -5.3,0 -1.5,1.5 -1.5,3.8 0,5.3 1.5,1.5 3.8,1.5 5.3,0 1.5,-1.5 1.5,-3.8 0,-5.3 z m -1.2,4.1 c -0.8,0.8 -2.1,0.8 -2.9,0 -0.8,-0.8 -0.8,-2.1 0,-2.9 0.8,-0.8 2.1,-0.8 2.9,0 0.8,0.8 0.8,2.1 0,2.9 z"
   id="path18"
   inkscape:connector-curvature="0"
   style="opacity:0.3;fill:#1e1e1e" />
</svg>