<?xml version="1.0" encoding="UTF-8" standalone="no"?>
<!-- Generator: Adobe Illustrator 21.1.0, SVG Export Plug-In . SVG Version: 6.00 Build 0)  -->

<svg
   xmlns:dc="http://purl.org/dc/elements/1.1/"
   xmlns:cc="http://creativecommons.org/ns#"
   xmlns:rdf="http://www.w3.org/1999/02/22-rdf-syntax-ns#"
   xmlns:svg="http://www.w3.org/2000/svg"
   xmlns="http://www.w3.org/2000/svg"
   xmlns:sodipodi="http://sodipodi.sourceforge.net/DTD/sodipodi-0.dtd"
   xmlns:inkscape="http://www.inkscape.org/namespaces/inkscape"
   version="1.1"
   id="Layer_1"
   x="0px"
   y="0px"
   width="23"
   height="23"
   viewBox="0 0 23 23"
   enable-background="new 0 0 24 24"
   xml:space="preserve"
   sodipodi:docname="TimeSeriesInsights.svg"
   inkscape:version="0.92.4 (5da689c313, 2019-01-14)"><metadata
   id="metadata13"><rdf:RDF><cc:Work
       rdf:about=""><dc:format>image/svg+xml</dc:format><dc:type
         rdf:resource="http://purl.org/dc/dcmitype/StillImage" /></cc:Work></rdf:RDF></metadata><defs
   id="defs11" /><sodipodi:namedview
   pagecolor="#ffffff"
   bordercolor="#666666"
   borderopacity="1"
   objecttolerance="10"
   gridtolerance="10"
   guidetolerance="10"
   inkscape:pageopacity="0"
   inkscape:pageshadow="2"
   inkscape:window-width="713"
   inkscape:window-height="543"
   id="namedview9"
   showgrid="false"
   inkscape:zoom="9.8333333"
   inkscape:cx="12"
   inkscape:cy="11"
   inkscape:window-x="0"
   inkscape:window-y="0"
   inkscape:window-maximized="0"
   inkscape:current-layer="Layer_1" />
<path
   d="m 12.661,15.093 -2,-11 L 8.15,11 H 0.025 C 0.018,11.167 0,11.331 0,11.5 0,11.669 0.018,11.833 0.025,12 H 8.85 l 1.488,-4.093 2,11 L 14.851,12 h 8.124 C 22.982,11.833 23,11.669 23,11.5 23,11.331 22.982,11.167 22.975,11 H 14.15 Z"
   id="path2"
   inkscape:connector-curvature="0"
   style="fill:#0072c6" />
<path
   d="M 1.12,10 C 1.852,4.92 6.221,1 11.5,1 c 5.279,0 9.648,3.92 10.38,9 h 1.011 C 22.154,4.359 17.342,0 11.5,0 5.658,0 0.846,4.359 0.109,10 Z"
   id="path4"
   inkscape:connector-curvature="0"
   style="fill:#59b4d9" />
<path
   d="M 21.88,13 C 21.148,18.08 16.779,22 11.5,22 6.221,22 1.852,18.08 1.12,13 H 0.109 c 0.737,5.641 5.549,10 11.391,10 5.842,0 10.654,-4.359 11.391,-10 z"
   id="path6"
   inkscape:connector-curvature="0"
   style="fill:#59b4d9" />
</svg>