<?xml version="1.0" encoding="UTF-8" standalone="no"?>
<!-- Generator: Adobe Illustrator 17.0.1, SVG Export Plug-In . SVG Version: 6.00 Build 0)  -->

<svg
   xmlns:dc="http://purl.org/dc/elements/1.1/"
   xmlns:cc="http://creativecommons.org/ns#"
   xmlns:rdf="http://www.w3.org/1999/02/22-rdf-syntax-ns#"
   xmlns:svg="http://www.w3.org/2000/svg"
   xmlns="http://www.w3.org/2000/svg"
   xmlns:sodipodi="http://sodipodi.sourceforge.net/DTD/sodipodi-0.dtd"
   xmlns:inkscape="http://www.inkscape.org/namespaces/inkscape"
   version="1.1"
   id="Layer_1"
   x="0px"
   y="0px"
   width="50"
   height="49.168758"
   viewBox="0 0 50 49.168758"
   enable-background="new 0 0 50 50"
   xml:space="preserve"
   sodipodi:docname="UnidentifiedFeatureObjectColor.svg"
   inkscape:version="0.92.4 (5da689c313, 2019-01-14)"><metadata
   id="metadata49"><rdf:RDF><cc:Work
       rdf:about=""><dc:format>image/svg+xml</dc:format><dc:type
         rdf:resource="http://purl.org/dc/dcmitype/StillImage" /></cc:Work></rdf:RDF></metadata><defs
   id="defs47" /><sodipodi:namedview
   pagecolor="#ffffff"
   bordercolor="#666666"
   borderopacity="1"
   objecttolerance="10"
   gridtolerance="10"
   guidetolerance="10"
   inkscape:pageopacity="0"
   inkscape:pageshadow="2"
   inkscape:window-width="713"
   inkscape:window-height="543"
   id="namedview45"
   showgrid="false"
   inkscape:zoom="4.72"
   inkscape:cx="25"
   inkscape:cy="24.169"
   inkscape:window-x="0"
   inkscape:window-y="0"
   inkscape:window-maximized="0"
   inkscape:current-layer="Layer_1" />
<path
   d="m 23.614,18.374758 c -0.145,-0.012 -0.248,-0.063 -0.404,-0.063 -8.292,0 -11.161,3.297 -11.161,3.297 8.13,4.939 11.161,15.409 11.161,15.409 0,0 0.159,-0.372 0.404,-0.976 0.249,0.604 0.409,0.976 0.409,0.976 0,0 3.031,-10.47 11.161,-15.409 0,0 -2.871,-3.297 -11.161,-3.297 -0.155,0 -0.261,0.051 -0.409,0.063"
   id="path2"
   inkscape:connector-curvature="0"
   style="fill:#e5e5e5" />
<path
   d="m 47.111,41.045758 c 0.114,-0.086 0.18,-0.135 0.18,-0.135 0,0 -1.514,-2.411 -4.879,-5.014 -1.953,-1.51 -4.522,-3.086 -7.791,-4.293 v -0.06 c -3.277,-1.128 -7.008,-1.774 -10.979,-1.774 -3.967,0 -7.7,0.646 -10.976,1.774 v 0.06 c -3.267,1.207 -5.836,2.783 -7.789,4.293 -3.364,2.603 -4.877,5.014 -4.877,5.014 0,0 0.07,0.053 0.201,0.151 0.142,0.105 0.363,0.264 0.649,0.461 2.579,1.764 10.931,7.646 22.792,7.646 11.865,0 20.217,-5.882 22.795,-7.646 0.305,-0.208 0.529,-0.371 0.674,-0.477"
   id="path4"
   inkscape:connector-curvature="0"
   style="fill:#3999c6" />
<path
   enable-background="new    "
   d="m 38.025,35.011758 c 0,2.04 -6.473,3.696 -14.455,3.696 -7.986,0 -14.455,-1.656 -14.455,-3.696 0,-2.047 6.469,-3.705 14.455,-3.705 7.982,0 14.455,1.658 14.455,3.705"
   id="path6"
   inkscape:connector-curvature="0"
   style="opacity:0.5;fill:#1e1e1e" />
<path
   d="m 23.521,31.306758 v 0 h -0.015 -0.014 c -8,0.233 -14.327,1.777 -14.536,3.58 -0.008,-0.492 -0.014,-0.974 -0.022,-1.444 -0.025,-1.851 6.404,-3.448 14.558,-3.682 h 0.014 0.015 c 8.149,0.234 14.581,1.831 14.556,3.682 -0.01,0.47 -0.016,0.952 -0.022,1.444 -0.21,-1.803 -6.538,-3.347 -14.534,-3.58"
   id="path8"
   inkscape:connector-curvature="0"
   style="fill:#7a7a7a" />
<path
   d="m 20.716,34.060758 c -0.302,-0.062 -7.351,-1.457 -8.896,-7.441 -0.066,-0.257 0.039,-0.531 0.274,-0.649 0.224,-0.145 0.514,-0.116 0.701,0.065 0.041,0.035 3.668,3.508 6.656,3.548 0.246,-0.008 0.459,0.15 0.549,0.358 l 1.367,3.315 c 0.088,0.19 0.049,0.42 -0.084,0.599 -0.131,0.165 -0.354,0.245 -0.567,0.205"
   id="path10"
   inkscape:connector-curvature="0"
   style="fill:#59b4d9" />
<path
   d="m 33.392,25.630758 c -0.027,0.035 -2.987,3.672 -5.753,4.064 -0.227,0.019 -0.401,0.186 -0.453,0.403 l -0.879,3.22 c -0.059,0.203 -0.002,0.409 0.145,0.543 0.153,0.143 0.364,0.193 0.55,0.132 0.271,-0.084 6.643,-2.224 7.361,-7.959 0.039,-0.237 -0.101,-0.471 -0.332,-0.563 -0.219,-0.104 -0.481,-0.032 -0.639,0.16"
   id="path12"
   inkscape:connector-curvature="0"
   style="fill:#59b4d9" />
<polygon
   points="19.433,37.264 20.348,30.924 26.729,30.924 27.644,37.264 "
   id="polygon14"
   style="fill:#1e1e1e"
   transform="translate(0,-2.4190328e-4)" />
<path
   d="m 23.197,37.481758 c -2.251,-8.971 -5.546,-12.207 -9.584,-20.914 -3.922,-8.4649999 2.359,-16.7409999 10.422,-16.5649999 8.053,0.187 13.961,8.735 9.656,17.0099999 -4.421,8.531 -7.846,11.612 -10.494,20.469"
   id="path16"
   inkscape:connector-curvature="0"
   style="fill:#59b4d9" />
<path
   d="m 20.342,14.433758 c -0.017,0.746 -0.367,1.331 -0.781,1.326 -0.422,-0.019 -0.738,-0.615 -0.732,-1.361 0.017,-0.737 0.376,-1.325 0.781,-1.313 0.421,0.012 0.745,0.62 0.732,1.348"
   id="path18"
   inkscape:connector-curvature="0"
   style="fill:#1e1e1e" />
<path
   d="m 28.346,14.636758 c -0.023,0.727 -0.368,1.322 -0.785,1.312 -0.419,-0.007 -0.74,-0.61 -0.717,-1.352 0.006,-0.737 0.354,-1.327 0.779,-1.319 0.414,0.009 0.741,0.613 0.723,1.359"
   id="path20"
   inkscape:connector-curvature="0"
   style="fill:#1e1e1e" />
<path
   d="m 27.645,25.825758 c -2.353,2.658 -3.495,6.26 -4.031,8.691 -0.538,-2.431 -1.681,-6.033 -4.034,-8.691 0,0 -3.785,-4.027 -7.451,-4.063 0,0 9.963,9.471 10.92,15.421 h 0.12 0.892 0.119 c 0.959,-5.95 10.917,-15.421 10.917,-15.421 -3.668,0.036 -7.452,4.063 -7.452,4.063 z"
   id="path22"
   inkscape:connector-curvature="0"
   style="fill:#a0a1a2" />
<path
   d="m 23.521,36.884758 v 0 h -0.029 c -8,-0.229 -14.327,-1.263 -14.536,-3.067 -0.008,0.494 -0.014,0.974 -0.022,1.448 -0.025,1.849 6.404,3.443 14.558,3.679 v 0.003 c 0.004,0 0.01,-0.003 0.014,-0.003 0.004,0 0.008,0.003 0.015,0.003 v -0.003 c 8.149,-0.236 14.581,-1.83 14.556,-3.679 -0.01,-0.474 -0.016,-0.954 -0.022,-1.448 -0.21,1.804 -6.538,2.838 -14.534,3.067"
   id="path24"
   inkscape:connector-curvature="0"
   style="fill:#e5e5e5" />
<path
   d="m 43.49,6.9047581 c -3.596,0 -6.511,2.914 -6.511,6.5099999 0,1.275 0.149,2.058 0.783,3.062 l -2.139,1.767 h 3.512 c 1.154,1.042 2.677,1.681 4.355,1.681 3.596,0 6.51,-2.916 6.51,-6.51 0,-3.5959999 -2.914,-6.5099999 -6.51,-6.5099999"
   id="path26"
   inkscape:connector-curvature="0"
   style="fill:#b8d432" />
<path
   d="m 46.812,10.701758 c 0,0.978 -0.488,1.863 -1.465,2.658 -0.408,0.328 -0.68,0.597 -0.818,0.807 -0.137,0.211 -0.207,0.489 -0.207,0.835 v 0.386 h -1.824 v -0.589 c 0,-0.847 0.338,-1.555 1.012,-2.126 0.42,-0.346 0.707,-0.631 0.859,-0.855 0.15,-0.225 0.227,-0.496 0.227,-0.813 0,-0.295 -0.107,-0.536 -0.326,-0.723 -0.218,-0.188 -0.497,-0.2819999 -0.839,-0.2819999 -0.768,0 -1.498,0.3069999 -2.195,0.9189999 V 8.8077581 c 0.721,-0.43 1.529,-0.646 2.428,-0.646 0.986,0 1.758,0.226 2.314,0.678 0.557,0.451 0.834,1.071 0.834,1.8619999 z"
   id="path28"
   inkscape:connector-curvature="0"
   style="fill:#ffffff" />
<path
   d="m 44.744,17.387758 c 0,0.337 -0.121,0.615 -0.361,0.835 -0.24,0.22 -0.549,0.329 -0.922,0.329 -0.355,0 -0.662,-0.111 -0.92,-0.333 -0.258,-0.222 -0.387,-0.499 -0.387,-0.831 0,-0.332 0.125,-0.607 0.373,-0.824 0.248,-0.218 0.559,-0.326 0.934,-0.326 0.369,0 0.676,0.108 0.918,0.326 0.244,0.216 0.365,0.492 0.365,0.824 z"
   id="path30"
   inkscape:connector-curvature="0"
   style="fill:#ffffff" />
<path
   enable-background="new    "
   d="m 23.643,49.168758 c 11.865,0 20.217,-5.882 22.795,-7.646 0.305,-0.208 0.529,-0.371 0.674,-0.477 -4.695,1.893 -13.598,5.329 -23.512,5.329 -9.912,0 -18.714,-3.371 -23.398,-5.313 0.142,0.105 0.363,0.264 0.649,0.461 2.578,1.764 10.93,7.646 22.792,7.646"
   id="path32"
   inkscape:connector-curvature="0"
   style="opacity:0.5;fill:#1e1e1e" />
<path
   enable-background="new    "
   d="m 30.983,18.228758 c 0.013,-0.648 -14.392,-0.97 -14.412,-0.324 -0.009,0.452 1.637,2.518 3.98,3.764 0.878,-0.241 1.945,-0.316 3.052,-0.155 0.958,0.14 1.787,0.432 2.427,0.808 2.912,-0.911 4.946,-3.565 4.953,-4.093 z"
   id="path34"
   inkscape:connector-curvature="0"
   style="opacity:0.85;fill:#3e3e3e" />
<path
   d="m 24.415,18.920758 c -0.721,-0.045 -0.77,0.511 -0.741,1.178 0.032,0.667 0.082,0.915 -0.216,0.92 -0.294,0.003 -0.722,-0.166 -0.35,-0.904 0.378,-0.738 0.029,-1.718 -1.459,-0.848 -1.174,0.686 -1.027,1.884 -0.913,2.362 0.842,-0.204 1.834,-0.266 2.868,-0.115 0.958,0.14 1.787,0.432 2.427,0.808 0.111,-0.035 0.211,-0.087 0.32,-0.127 0.01,-0.025 0.02,-0.042 0.031,-0.067 0.825,-1.963 -1.245,-3.167 -1.967,-3.207 z"
   id="path36"
   inkscape:connector-curvature="0"
   style="fill:#1e1e1e" />
<path
   d="m 25.247,19.034758 c 0.737,-0.005 1.344,-0.598 1.422,-1.353 -0.918,-0.045 -1.907,-0.08 -2.901,-0.102 0.031,0.813 0.681,1.462 1.479,1.455 z"
   id="path38"
   inkscape:connector-curvature="0"
   style="fill:#ffffff" />
<path
   d="m 21.998,18.984758 c 0.796,0.032 1.465,-0.6 1.521,-1.41 -0.758,-0.015 -1.512,-0.024 -2.229,-0.024 -0.231,0 -0.452,0.002 -0.675,0.004 0.038,0.774 0.634,1.402 1.383,1.43 z"
   id="path40"
   inkscape:connector-curvature="0"
   style="fill:#ffffff" />
<path
   d="m 20.552,21.667758 c 1.024,0.544 2.179,0.934 3.389,0.96 0.733,0.017 1.433,-0.102 2.09,-0.307 -0.64,-0.376 -1.469,-0.668 -2.427,-0.808 -1.108,-0.161 -2.175,-0.085 -3.052,0.155 z"
   id="path42"
   inkscape:connector-curvature="0"
   style="fill:#dd5900" />
</svg>