<?xml version="1.0" encoding="UTF-8" standalone="no"?>
<!-- Generator: Adobe Illustrator 18.1.0, SVG Export Plug-In . SVG Version: 6.00 Build 0)  -->

<svg
   xmlns:dc="http://purl.org/dc/elements/1.1/"
   xmlns:cc="http://creativecommons.org/ns#"
   xmlns:rdf="http://www.w3.org/1999/02/22-rdf-syntax-ns#"
   xmlns:svg="http://www.w3.org/2000/svg"
   xmlns="http://www.w3.org/2000/svg"
   xmlns:sodipodi="http://sodipodi.sourceforge.net/DTD/sodipodi-0.dtd"
   xmlns:inkscape="http://www.inkscape.org/namespaces/inkscape"
   version="1.0"
   x="0px"
   y="0px"
   viewBox="0 0 41.799999 36.599998"
   enable-background="new 0 0 152 117.5"
   xml:space="preserve"
   id="svg80"
   sodipodi:docname="UnidentifiedFeatureObject.svg"
   width="41.799999"
   height="36.599998"
   inkscape:version="0.92.4 (5da689c313, 2019-01-14)"><metadata
   id="metadata86"><rdf:RDF><cc:Work
       rdf:about=""><dc:format>image/svg+xml</dc:format><dc:type
         rdf:resource="http://purl.org/dc/dcmitype/StillImage" /></cc:Work></rdf:RDF></metadata><defs
   id="defs84" /><sodipodi:namedview
   pagecolor="#ffffff"
   bordercolor="#666666"
   borderopacity="1"
   objecttolerance="10"
   gridtolerance="10"
   guidetolerance="10"
   inkscape:pageopacity="0"
   inkscape:pageshadow="2"
   inkscape:window-width="713"
   inkscape:window-height="543"
   id="namedview82"
   showgrid="false"
   inkscape:zoom="2.0085106"
   inkscape:cx="20.9"
   inkscape:cy="18.25"
   inkscape:window-x="0"
   inkscape:window-y="0"
   inkscape:window-maximized="0"
   inkscape:current-layer="svg80" />
<g
   id="Layer_1"
   transform="translate(-55.1,-40.4)">
	<g
   id="Azure">
	</g>
	<g
   id="BizTalk_Services"
   transform="translate(37.3575,-2500.2)">
	</g>
	<g
   id="Key_Vault">
	</g>
	<g
   id="Mobile_Engagement">
	</g>
	<g
   id="Office_subscription">
		<g
   id="Office_subscription_1_">
		</g>
	</g>
</g>
<g
   id="paths"
   transform="translate(-55.1,-40.4)">
	<g
   id="Access_control">
	</g>
	<g
   id="Azure_active_directory">
	</g>
	<g
   id="API_Management">
	</g>
	<g
   id="Azure_automation">
	</g>
	<g
   id="Azure_SQL_database">
	</g>
	<g
   id="Azure_subscription">
	</g>
	<g
   id="Backup_service">
	</g>
	<g
   id="Bitbucket_code_source">
	</g>
	<g
   id="Azure_cache">
	</g>
	<g
   id="Content_delivery_network__x28_CDN_x29_">
	</g>
	<g
   id="Cloud_service">
	</g>
	<g
   id="CodePlex">
	</g>
	<g
   id="Dropbox_code_source">
	</g>
	<g
   id="Express_route">
	</g>
	<g
   id="Git_repository">
	</g>
	<g
   id="GitHub_code">
	</g>
	<g
   id="HD_Insight">
	</g>
	<g
   id="Health_monitoring">
	</g>
	<g
   id="Healthy">
	</g>
	<g
   id="BizTalk_hybrid_connection">
	</g>
	<g
   id="Hybrid_connection_manager_for_BizTalk_hybrid_connection">
	</g>
	<g
   id="Hyper-V_recovery_manager">
	</g>
	<g
   id="Machine_learning">
	</g>
	<g
   id="Media_services">
	</g>
	<g
   id="Microsoft_account">
	</g>
	<g
   id="Mobile_services">
	</g>
	<g
   id="Multi-factor_authentication">
	</g>
	<g
   id="MySQL_database">
	</g>
	<g
   id="Notification_hub">
	</g>
	<g
   id="Notification_topic">
	</g>
	<g
   id="Cloud_Office_365">
	</g>
	<g
   id="Office_365">
	</g>
	<g
   id="OS_image">
	</g>
	<g
   id="Remote_app">
	</g>
	<g
   id="Task_scheduler">
	</g>
	<g
   id="Azure_SDK">
	</g>
	<g
   id="Service_bus">
	</g>
	<g
   id="Service_bus_queue">
	</g>
	<g
   id="Service_bus_relay">
	</g>
	<g
   id="Service_bus_topic">
	</g>
	<g
   id="Service_endpoint">
	</g>
	<g
   id="Custom_create">
	</g>
	<g
   id="SQL_data_sync">
	</g>
	<g
   id="SQL_reporting">
	</g>
	<g
   id="Startup_task">
	</g>
	<g
   id="Windows_Azure_storage">
	</g>
	<g
   id="Storage_blob">
	</g>
	<g
   id="Storage_table">
	</g>
	<g
   id="Storage_queue">
	</g>
	<g
   id="StorSimple">
	</g>
	<g
   id="Traffic_manager">
	</g>
	<g
   id="VHD">
	</g>
	<g
   id="VHD_data_disk">
	</g>
	<g
   id="Virtual_machine">
	</g>
	<g
   id="Team_foundation">
	</g>
	<g
   id="Azure_web_site">
	</g>
	<g
   id="Web_role">
	</g>
	<g
   id="Web_roles">
	</g>
	<g
   id="Worker_role">
	</g>
	<g
   id="Worker_roles">
	</g>
	<g
   id="Unidentified_feature_object">
		<g
   id="g73">
			<path
   d="M 88.6,63.5 V 52.6 C 88.6,46 82.8,40.4 76,40.4 69.2,40.4 63.4,46 63.4,52.6 V 63.5 C 56.8,66.1 55.1,70 55.1,70 l 0.1,0.1 H 96.8 L 96.9,70 c 0,0.1 -1.7,-3.8 -8.3,-6.5 z M 64.9,63 V 52.6 c 0,-5.8 5.1,-10.7 11.1,-10.7 6,0 11.1,4.9 11.1,10.7 V 63 H 87 C 86.8,62.9 86.6,62.9 86.4,62.8 H 79 c 1.7,-0.7 4.2,-2.2 4.9,-5.1 0,-0.2 0,-0.4 -0.2,-0.5 -0.2,-0.1 -0.4,-0.1 -0.5,0.1 0,0 -2.8,2.7 -5.1,2.7 0,0 0,0 -0.1,0 0.9,-1.6 2,-3.1 3.1,-5.4 2.3,-4.5 -0.9,-9.1 -5.3,-9.2 -4.4,-0.1 -7.8,4.4 -5.7,9 1.1,2.3 2.1,4 2.9,5.6 -2.3,-0.1 -5,-2.7 -5,-2.7 -0.1,-0.2 -0.4,-0.2 -0.5,-0.1 -0.2,0.1 -0.3,0.3 -0.2,0.5 0.8,2.9 3.2,4.4 4.9,5.1 h -6.7 c -0.2,0.1 -0.4,0.1 -0.6,0.2 z m 15.5,-9.3 c 0,0.4 -2.4,3.3 -4.5,3.3 -2.2,-0.1 -4.1,-2.9 -4.1,-3.3 -0.1,-0.3 8.6,-0.3 8.6,0 z m -3.8,-2.1 c 0,-0.8 1,-2 1.4,-2 0.5,0 1.2,1.3 1.2,2.2 0,0.8 -0.7,1 -1.2,1 -0.4,-0.1 -1.4,-0.3 -1.4,-1.2 z M 74,52.7 c -0.5,0 -1.1,-0.2 -1.2,-1 0,-0.8 0.7,-2.2 1.2,-2.2 0.5,0 1.4,1.2 1.4,2 0,1 -0.9,1.2 -1.4,1.2 z"
   id="path69"
   inkscape:connector-curvature="0"
   style="fill:#0078d7" />
			<path
   d="m 76,77 c 11.5,0 18,-4.2 18.7,-5.7 H 57.3 C 58,72.8 64.4,77 76,77 Z"
   id="path71"
   inkscape:connector-curvature="0"
   style="fill:#0078d7" />
		</g>
	</g>
</g>
<g
   id="Layer_57"
   transform="translate(-55.1,-40.4)">
</g>
<g
   id="Ibiza_Symbols"
   transform="translate(-55.1,-40.4)">
	<g
   id="SQL_Database_Premium">
	</g>
</g>
</svg>