<?xml version="1.0" encoding="UTF-8" standalone="no"?>
<!-- Generator: Adobe Illustrator 18.1.0, SVG Export Plug-In . SVG Version: 6.00 Build 0)  -->

<svg
   xmlns:dc="http://purl.org/dc/elements/1.1/"
   xmlns:cc="http://creativecommons.org/ns#"
   xmlns:rdf="http://www.w3.org/1999/02/22-rdf-syntax-ns#"
   xmlns:svg="http://www.w3.org/2000/svg"
   xmlns="http://www.w3.org/2000/svg"
   xmlns:sodipodi="http://sodipodi.sourceforge.net/DTD/sodipodi-0.dtd"
   xmlns:inkscape="http://www.inkscape.org/namespaces/inkscape"
   version="1.0"
   x="0px"
   y="0px"
   viewBox="0 0 29.299999 37.099998"
   enable-background="new 0 0 152 117.5"
   xml:space="preserve"
   id="svg126"
   sodipodi:docname="VHD.svg"
   width="29.299999"
   height="37.099998"
   inkscape:version="0.92.4 (5da689c313, 2019-01-14)"><metadata
   id="metadata132"><rdf:RDF><cc:Work
       rdf:about=""><dc:format>image/svg+xml</dc:format><dc:type
         rdf:resource="http://purl.org/dc/dcmitype/StillImage" /></cc:Work></rdf:RDF></metadata><defs
   id="defs130" /><sodipodi:namedview
   pagecolor="#ffffff"
   bordercolor="#666666"
   borderopacity="1"
   objecttolerance="10"
   gridtolerance="10"
   guidetolerance="10"
   inkscape:pageopacity="0"
   inkscape:pageshadow="2"
   inkscape:window-width="713"
   inkscape:window-height="543"
   id="namedview128"
   showgrid="false"
   inkscape:zoom="2.0085106"
   inkscape:cx="14.57"
   inkscape:cy="18.52"
   inkscape:window-x="0"
   inkscape:window-y="0"
   inkscape:window-maximized="0"
   inkscape:current-layer="svg126" />
<g
   id="Layer_1"
   transform="translate(-61.43,-40.17)">
	<g
   id="Azure">
	</g>
	<g
   id="BizTalk_Services"
   transform="translate(37.3575,-2500.2)">
	</g>
	<g
   id="Key_Vault">
	</g>
	<g
   id="Mobile_Engagement">
	</g>
	<g
   id="Office_subscription">
		<g
   id="Office_subscription_1_">
		</g>
	</g>
</g>
<g
   id="paths"
   transform="translate(-61.43,-40.17)">
	<g
   id="Access_control">
	</g>
	<g
   id="Azure_active_directory">
	</g>
	<g
   id="API_Management">
	</g>
	<g
   id="Azure_automation">
	</g>
	<g
   id="Azure_SQL_database">
	</g>
	<g
   id="Azure_subscription">
	</g>
	<g
   id="Backup_service">
	</g>
	<g
   id="Bitbucket_code_source">
	</g>
	<g
   id="Azure_cache">
	</g>
	<g
   id="Content_delivery_network__x28_CDN_x29_">
	</g>
	<g
   id="Cloud_service">
	</g>
	<g
   id="CodePlex">
	</g>
	<g
   id="Dropbox_code_source">
	</g>
	<g
   id="Express_route">
	</g>
	<g
   id="Git_repository">
	</g>
	<g
   id="GitHub_code">
	</g>
	<g
   id="HD_Insight">
	</g>
	<g
   id="Health_monitoring">
	</g>
	<g
   id="Healthy">
	</g>
	<g
   id="BizTalk_hybrid_connection">
	</g>
	<g
   id="Hybrid_connection_manager_for_BizTalk_hybrid_connection">
	</g>
	<g
   id="Hyper-V_recovery_manager">
	</g>
	<g
   id="Machine_learning">
	</g>
	<g
   id="Media_services">
	</g>
	<g
   id="Microsoft_account">
	</g>
	<g
   id="Mobile_services">
	</g>
	<g
   id="Multi-factor_authentication">
	</g>
	<g
   id="MySQL_database">
	</g>
	<g
   id="Notification_hub">
	</g>
	<g
   id="Notification_topic">
	</g>
	<g
   id="Cloud_Office_365">
	</g>
	<g
   id="Office_365">
	</g>
	<g
   id="OS_image">
	</g>
	<g
   id="Remote_app">
	</g>
	<g
   id="Task_scheduler">
	</g>
	<g
   id="Azure_SDK">
	</g>
	<g
   id="Service_bus">
	</g>
	<g
   id="Service_bus_queue">
	</g>
	<g
   id="Service_bus_relay">
	</g>
	<g
   id="Service_bus_topic">
	</g>
	<g
   id="Service_endpoint">
	</g>
	<g
   id="Custom_create">
	</g>
	<g
   id="SQL_data_sync">
	</g>
	<g
   id="SQL_reporting">
	</g>
	<g
   id="Startup_task">
	</g>
	<g
   id="Windows_Azure_storage">
	</g>
	<g
   id="Storage_blob">
	</g>
	<g
   id="Storage_table">
	</g>
	<g
   id="Storage_queue">
	</g>
	<g
   id="StorSimple">
	</g>
	<g
   id="Traffic_manager">
	</g>
	<g
   id="VHD">
		<g
   id="group444-904_5_"
   transform="translate(1355.43,-2200.23)">
			<g
   id="shape445-905_5_"
   transform="translate(11.1,-17.1022)">
				<title
   id="title60">Sheet.445</title>
				<circle
   cx="-1290.5"
   cy="2272.8999"
   id="ellipse62"
   r="1.7"
   style="fill:#0078d7" />
			</g>
			<g
   id="shape446-907_5_"
   transform="translate(12.0503,-15.4965)">
				<title
   id="title65">Sheet.446</title>
				<circle
   cx="-1291.5"
   cy="2274.3"
   id="ellipse67"
   r="0.60000002"
   style="fill:#0078d7" />
			</g>
			<g
   id="shape447-909_5_"
   transform="translate(9.516,-18.0607)">
				<title
   id="title70">Sheet.447</title>
				<circle
   cx="-1291.9"
   cy="2273.8999"
   id="ellipse72"
   r="0.60000002"
   style="fill:#0078d7" />
			</g>
			<g
   id="shape448-911_5_"
   transform="translate(10.2068,-16.2472)">
				<title
   id="title75">Sheet.448</title>
				<path
   d="m -1292.2,2273.7 c -0.2,0.2 -0.2,0.6 0,0.9 0.1,0.1 0.3,0.2 0.4,0.2 0.1,0 0.3,-0.1 0.4,-0.2 0.1,-0.1 0.2,-0.3 0.2,-0.4 0,-0.2 -0.1,-0.3 -0.2,-0.4 -0.1,-0.3 -0.5,-0.3 -0.8,-0.1 z"
   id="path77"
   inkscape:connector-curvature="0"
   style="fill:#0078d7" />
			</g>
			<g
   id="shape449-913_5_"
   transform="translate(10.2075,-19.863)">
				<title
   id="title80">Sheet.449</title>
				<path
   d="m -1291.7,2274.2 c 0.2,0 0.3,-0.1 0.4,-0.2 0.1,-0.1 0.2,-0.3 0.2,-0.4 0,-0.2 -0.1,-0.3 -0.2,-0.4 -0.2,-0.2 -0.6,-0.2 -0.9,0 -0.2,0.2 -0.2,0.6 0,0.9 0.2,0 0.3,0.1 0.5,0.1 z"
   id="path82"
   inkscape:connector-curvature="0"
   style="fill:#0078d7" />
			</g>
			<g
   id="shape450-915_5_"
   transform="translate(3.1275,-3.14325)">
				<title
   id="title85">Sheet.450</title>
				<circle
   cx="-1292.1"
   cy="2275.5"
   id="ellipse87"
   r="1.5"
   style="fill:#0078d7" />
			</g>
			<g
   id="shape451-917_5_"
   transform="translate(13.791,-19.863)">
				<title
   id="title90">Sheet.451</title>
				<path
   d="m -1291.1,2274.2 c 0.2,0 0.3,-0.1 0.4,-0.2 0.1,-0.1 0.2,-0.3 0.2,-0.4 0,-0.2 -0.1,-0.3 -0.2,-0.4 -0.2,-0.2 -0.6,-0.2 -0.9,0 -0.2,0.2 -0.2,0.6 0,0.9 0.2,0 0.3,0.1 0.5,0.1 z"
   id="path92"
   inkscape:connector-curvature="0"
   style="fill:#0078d7" />
			</g>
			<g
   id="shape452-919_5_"
   transform="translate(12.0503,-20.613)">
				<title
   id="title95">Sheet.452</title>
				<circle
   cx="-1291.5"
   cy="2273.3999"
   id="ellipse97"
   r="0.60000002"
   style="fill:#0078d7" />
			</g>
			<g
   id="shape453-921_9_">
				<title
   id="title100">Sheet.453</title>
				<path
   d="m -1265.7,2240.4 h -27.4 c -0.5,0 -0.9,0.4 -0.9,1 v 35.1 c 0,0.5 0.4,1 0.9,1 h 27.4 c 0.5,0 1,-0.4 1,-1 v -35.1 c -0.1,-0.5 -0.5,-1 -1,-1 z m -27.2,1.8 c 0,-0.5 0.4,-0.8 0.8,-0.8 0.4,0 0.8,0.4 0.8,0.8 0,0.5 -0.4,0.8 -0.8,0.8 -0.4,0 -0.8,-0.4 -0.8,-0.8 z m 6.8,31.7 v 0 0 c -0.6,1.1 -1.7,1.8 -2.9,1.8 -1.8,0 -3.3,-1.5 -3.3,-3.4 0,-0.9 0.4,-1.8 1,-2.4 l 7.1,-7.2 c 0.3,-0.3 0.7,-0.5 1.2,-0.5 0.9,0 1.7,0.8 1.7,1.7 0,0.3 -0.1,0.5 -0.2,0.8 v 0 l -4.6,9.2 c 0.1,0 0.1,0 0,0 z m 6.6,-6.4 c -0.7,0 -1.4,-0.1 -2.1,-0.2 l 1.1,-2.1 c 0,-0.1 0,-0.1 0.1,-0.2 0.2,-0.4 0.2,-0.7 0.2,-1.1 0,-1.5 -1.2,-2.8 -2.7,-2.8 -0.7,0 -1.4,0.3 -2,0.8 l -2.4,2.4 c -2.3,-2.1 -3.8,-5.2 -3.8,-8.6 0,-6.5 5.2,-11.7 11.6,-11.7 6.4,0 11.6,5.2 11.6,11.7 0,6.6 -5.2,11.8 -11.6,11.8 z m 12.6,8.8 c -0.5,0 -0.8,-0.4 -0.8,-0.8 0,-0.5 0.4,-0.8 0.8,-0.8 0.5,0 0.8,0.4 0.8,0.8 0,0.4 -0.3,0.8 -0.8,0.8 z m 0,-33.3 c -0.5,0 -0.8,-0.4 -0.8,-0.8 0,-0.5 0.4,-0.8 0.8,-0.8 0.5,0 0.8,0.4 0.8,0.8 0,0.4 -0.3,0.8 -0.8,0.8 z"
   id="path102"
   inkscape:connector-curvature="0"
   style="fill:#0078d7" />
			</g>
			<g
   id="shape454-923_5_"
   transform="translate(13.791,-16.2472)">
				<title
   id="title105">Sheet.454</title>
				<path
   d="m -1291.6,2273.7 c -0.2,0.2 -0.2,0.6 0,0.9 0.1,0.1 0.3,0.2 0.4,0.2 0.1,0 0.3,-0.1 0.4,-0.2 0.1,-0.1 0.2,-0.3 0.2,-0.4 0,-0.2 -0.1,-0.3 -0.2,-0.4 -0.1,-0.3 -0.5,-0.3 -0.8,-0.1 z"
   id="path107"
   inkscape:connector-curvature="0"
   style="fill:#0078d7" />
			</g>
			<g
   id="shape455-925_5_"
   transform="translate(7.83675,-13.8682)">
				<title
   id="title110">Sheet.455</title>
				<path
   d="m -1287.3,2264.2 c -3,0 -5.4,2.5 -5.4,5.5 0,3 2.4,5.5 5.4,5.5 3,0 5.5,-2.5 5.5,-5.5 -0.1,-3.1 -2.5,-5.5 -5.5,-5.5 z m 0,9.9 c -2.4,0 -4.4,-2 -4.4,-4.4 0,-2.4 1.9,-4.4 4.4,-4.4 2.4,0 4.4,2 4.4,4.4 0,2.4 -2,4.4 -4.4,4.4 z"
   id="path112"
   inkscape:connector-curvature="0"
   style="fill:#0078d7" />
			</g>
			<g
   id="shape456-927_5_"
   transform="translate(14.583,-18.0555)">
				<title
   id="title115">Sheet.456</title>
				<circle
   cx="-1291.1"
   cy="2273.8999"
   id="ellipse117"
   r="0.60000002"
   style="fill:#0078d7" />
			</g>
		</g>
	</g>
</g>
<g
   id="Layer_57"
   transform="translate(-61.43,-40.17)">
</g>
<g
   id="Ibiza_Symbols"
   transform="translate(-61.43,-40.17)">
	<g
   id="SQL_Database_Premium">
	</g>
</g>
</svg>