<?xml version="1.0" encoding="UTF-8" standalone="no"?>
<!-- Generator: Adobe Illustrator 18.1.0, SVG Export Plug-In . SVG Version: 6.00 Build 0)  -->

<svg
   xmlns:dc="http://purl.org/dc/elements/1.1/"
   xmlns:cc="http://creativecommons.org/ns#"
   xmlns:rdf="http://www.w3.org/1999/02/22-rdf-syntax-ns#"
   xmlns:svg="http://www.w3.org/2000/svg"
   xmlns="http://www.w3.org/2000/svg"
   xmlns:sodipodi="http://sodipodi.sourceforge.net/DTD/sodipodi-0.dtd"
   xmlns:inkscape="http://www.inkscape.org/namespaces/inkscape"
   version="1.0"
   x="0px"
   y="0px"
   viewBox="0 0 29.1217 40.33025"
   enable-background="new 0 0 152 117.5"
   xml:space="preserve"
   id="svg102"
   sodipodi:docname="VHDdatadisk.svg"
   width="29.1217"
   height="40.33025"
   inkscape:version="0.92.4 (5da689c313, 2019-01-14)"><metadata
   id="metadata108"><rdf:RDF><cc:Work
       rdf:about=""><dc:format>image/svg+xml</dc:format><dc:type
         rdf:resource="http://purl.org/dc/dcmitype/StillImage" /></cc:Work></rdf:RDF></metadata><defs
   id="defs106" /><sodipodi:namedview
   pagecolor="#ffffff"
   bordercolor="#666666"
   borderopacity="1"
   objecttolerance="10"
   gridtolerance="10"
   guidetolerance="10"
   inkscape:pageopacity="0"
   inkscape:pageshadow="2"
   inkscape:window-width="713"
   inkscape:window-height="543"
   id="namedview104"
   showgrid="false"
   inkscape:zoom="2.0085106"
   inkscape:cx="15.4"
   inkscape:cy="20.88025"
   inkscape:window-x="0"
   inkscape:window-y="0"
   inkscape:window-maximized="0"
   inkscape:current-layer="svg102" />
<g
   id="Layer_1"
   transform="translate(-60.6,-39.3)">
	<g
   id="Azure">
	</g>
	<g
   id="BizTalk_Services"
   transform="translate(37.3575,-2500.2)">
	</g>
	<g
   id="Key_Vault">
	</g>
	<g
   id="Mobile_Engagement">
	</g>
	<g
   id="Office_subscription">
		<g
   id="Office_subscription_1_">
		</g>
	</g>
</g>
<g
   id="paths"
   transform="translate(-60.6,-39.3)">
	<g
   id="Access_control">
	</g>
	<g
   id="Azure_active_directory">
	</g>
	<g
   id="API_Management">
	</g>
	<g
   id="Azure_automation">
	</g>
	<g
   id="Azure_SQL_database">
	</g>
	<g
   id="Azure_subscription">
	</g>
	<g
   id="Backup_service">
	</g>
	<g
   id="Bitbucket_code_source">
	</g>
	<g
   id="Azure_cache">
	</g>
	<g
   id="Content_delivery_network__x28_CDN_x29_">
	</g>
	<g
   id="Cloud_service">
	</g>
	<g
   id="CodePlex">
	</g>
	<g
   id="Dropbox_code_source">
	</g>
	<g
   id="Express_route">
	</g>
	<g
   id="Git_repository">
	</g>
	<g
   id="GitHub_code">
	</g>
	<g
   id="HD_Insight">
	</g>
	<g
   id="Health_monitoring">
	</g>
	<g
   id="Healthy">
	</g>
	<g
   id="BizTalk_hybrid_connection">
	</g>
	<g
   id="Hybrid_connection_manager_for_BizTalk_hybrid_connection">
	</g>
	<g
   id="Hyper-V_recovery_manager">
	</g>
	<g
   id="Machine_learning">
	</g>
	<g
   id="Media_services">
	</g>
	<g
   id="Microsoft_account">
	</g>
	<g
   id="Mobile_services">
	</g>
	<g
   id="Multi-factor_authentication">
	</g>
	<g
   id="MySQL_database">
	</g>
	<g
   id="Notification_hub">
	</g>
	<g
   id="Notification_topic">
	</g>
	<g
   id="Cloud_Office_365">
	</g>
	<g
   id="Office_365">
	</g>
	<g
   id="OS_image">
	</g>
	<g
   id="Remote_app">
	</g>
	<g
   id="Task_scheduler">
	</g>
	<g
   id="Azure_SDK">
	</g>
	<g
   id="Service_bus">
	</g>
	<g
   id="Service_bus_queue">
	</g>
	<g
   id="Service_bus_relay">
	</g>
	<g
   id="Service_bus_topic">
	</g>
	<g
   id="Service_endpoint">
	</g>
	<g
   id="Custom_create">
	</g>
	<g
   id="SQL_data_sync">
	</g>
	<g
   id="SQL_reporting">
	</g>
	<g
   id="Startup_task">
	</g>
	<g
   id="Windows_Azure_storage">
	</g>
	<g
   id="Storage_blob">
	</g>
	<g
   id="Storage_table">
	</g>
	<g
   id="Storage_queue">
	</g>
	<g
   id="StorSimple">
	</g>
	<g
   id="Traffic_manager">
	</g>
	<g
   id="VHD">
	</g>
	<g
   id="VHD_data_disk">
		<g
   id="g95">
			<g
   id="g85">
				<circle
   cx="75.199997"
   cy="54.700001"
   id="ellipse61"
   r="1.7"
   style="fill:#0078d7" />
				<circle
   cx="75.199997"
   cy="57.700001"
   id="ellipse63"
   r="0.60000002"
   style="fill:#0078d7" />
				<circle
   cx="72.199997"
   cy="54.700001"
   r="0.60000002"
   id="circle65"
   style="fill:#0078d7" />
				<path
   d="m 72.7,56.4 c -0.2,0.2 -0.2,0.6 0,0.9 0.1,0.1 0.3,0.2 0.4,0.2 0.2,0 0.3,-0.1 0.4,-0.2 0.1,-0.1 0.2,-0.3 0.2,-0.4 0,-0.2 -0.1,-0.3 -0.2,-0.4 -0.2,-0.3 -0.6,-0.3 -0.8,-0.1 z"
   id="path67"
   inkscape:connector-curvature="0"
   style="fill:#0078d7" />
				<path
   d="m 73.1,53.2 c 0.2,0 0.3,-0.1 0.4,-0.2 0.1,-0.1 0.2,-0.3 0.2,-0.4 0,-0.2 -0.1,-0.3 -0.2,-0.4 -0.2,-0.2 -0.6,-0.2 -0.9,0 -0.2,0.2 -0.2,0.6 0,0.9 0.2,0.1 0.3,0.1 0.5,0.1 z"
   id="path69"
   inkscape:connector-curvature="0"
   style="fill:#0078d7" />
				<circle
   cx="65.699997"
   cy="71.199997"
   id="ellipse71"
   r="1.5"
   style="fill:#0078d7" />
				<path
   d="m 77.3,53.2 c 0.2,0 0.3,-0.1 0.4,-0.2 0.1,-0.1 0.2,-0.3 0.2,-0.4 0,-0.2 -0.1,-0.3 -0.2,-0.4 -0.2,-0.2 -0.6,-0.2 -0.9,0 -0.2,0.2 -0.2,0.6 0,0.9 0.2,0.1 0.3,0.1 0.5,0.1 z"
   id="path73"
   inkscape:connector-curvature="0"
   style="fill:#0078d7" />
				<circle
   cx="75.199997"
   cy="51.700001"
   id="ellipse75"
   r="0.60000002"
   style="fill:#0078d7" />
				<path
   d="m 76.4,66.3 c -0.4,0 -0.9,0.1 -1.3,0.1 -0.7,0 -1.4,-0.1 -2.1,-0.2 l 1.1,-2.1 c 0,-0.1 0,-0.1 0.1,-0.2 0.2,-0.3 0.2,-0.7 0.2,-1.1 0,-1.5 -1.2,-2.8 -2.7,-2.8 -0.7,0 -1.4,0.3 -2,0.8 l -2.4,2.4 C 65,61.1 63.5,58 63.5,54.6 c 0,-6.5 5.2,-11.7 11.6,-11.7 6.4,0 11.6,5.2 11.6,11.7 0,3 -1.1,5.7 -3,7.8 0,0 0.1,0 0.1,0 2.2,0 4.5,0.5 5.9,1.5 V 40.3 c 0,-0.5 -0.4,-1 -1,-1 H 61.5 c -0.5,0 -0.9,0.4 -0.9,1 v 35.1 c 0,0.5 0.4,1 0.9,1 h 14.9 v -9.9 c 0,0 0,-0.1 0,-0.2 z m 11.3,-26 c 0.5,0 0.8,0.4 0.8,0.8 0,0.5 -0.4,0.8 -0.8,0.8 -0.5,0 -0.8,-0.4 -0.8,-0.8 0,-0.5 0.4,-0.8 0.8,-0.8 z m -26,0.8 c 0,-0.5 0.4,-0.8 0.8,-0.8 0.4,0 0.8,0.4 0.8,0.8 0,0.5 -0.4,0.8 -0.8,0.8 -0.4,0 -0.8,-0.3 -0.8,-0.8 z m 6.9,31.8 v 0 c -0.6,1 -1.7,1.8 -2.9,1.8 -1.8,0 -3.3,-1.5 -3.3,-3.4 0,-0.9 0.4,-1.8 1,-2.4 l 7.1,-7.2 c 0.3,-0.3 0.7,-0.5 1.2,-0.5 0.9,0 1.7,0.8 1.7,1.7 0,0.3 -0.1,0.5 -0.2,0.8 v 0 l -4.6,9.2 c 0,-0.1 0,-0.1 0,0 z"
   id="path77"
   inkscape:connector-curvature="0"
   style="fill:#0078d7" />
				<path
   d="m 76.8,56.4 c -0.2,0.2 -0.2,0.6 0,0.9 0.1,0.1 0.3,0.2 0.4,0.2 0.2,0 0.3,-0.1 0.4,-0.2 0.1,-0.1 0.2,-0.3 0.2,-0.4 0,-0.2 -0.1,-0.3 -0.2,-0.4 -0.1,-0.3 -0.5,-0.3 -0.8,-0.1 z"
   id="path79"
   inkscape:connector-curvature="0"
   style="fill:#0078d7" />
				<path
   d="m 75.1,49.2 c -3,0 -5.4,2.5 -5.4,5.5 0,3 2.4,5.5 5.4,5.5 3,0 5.5,-2.5 5.5,-5.5 0,-3 -2.5,-5.5 -5.5,-5.5 z m 0.1,9.9 c -2.4,0 -4.4,-2 -4.4,-4.4 0,-2.4 1.9,-4.4 4.4,-4.4 2.4,0 4.4,2 4.4,4.4 0,2.5 -2,4.4 -4.4,4.4 z"
   id="path81"
   inkscape:connector-curvature="0"
   style="fill:#0078d7" />
				<circle
   cx="78.099998"
   cy="54.700001"
   id="ellipse83"
   r="0.60000002"
   style="fill:#0078d7" />
			</g>
			<g
   id="group989-2010_5_"
   transform="translate(1238.42,-2152.07)">
				<title
   id="title87">Sheet.989</title>
				<g
   id="shape1003-2037_5_"
   transform="translate(20.9017,-0.69975)">
					<title
   id="title89">Sheet.1003</title>
					<path
   d="m -1175.4,2217 c -3.2,0 -5.8,1.1 -5.8,2.3 v 10.8 c 0,1.2 2.6,2.3 5.8,2.3 3.2,0 5.8,-1.1 5.8,-2.3 v -10.8 c 0,-1.1 -2.6,-2.3 -5.8,-2.3 z m 0,3.4 c -2.3,0 -4.1,-0.6 -4.1,-1.3 0,-0.7 1.8,-1.3 4.1,-1.3 2.3,0 4.1,0.6 4.1,1.3 0,0.7 -1.8,1.3 -4.1,1.3 z"
   id="path91"
   inkscape:connector-curvature="0"
   style="fill:#0078d7" />
				</g>
			</g>
		</g>
	</g>
</g>
<g
   id="Layer_57"
   transform="translate(-60.6,-39.3)">
</g>
<g
   id="Ibiza_Symbols"
   transform="translate(-60.6,-39.3)">
	<g
   id="SQL_Database_Premium">
	</g>
</g>
</svg>