<?xml version="1.0" encoding="UTF-8" standalone="no"?>
<!-- Generator: Adobe Illustrator 18.1.0, SVG Export Plug-In . SVG Version: 6.00 Build 0)  -->

<svg
   xmlns:dc="http://purl.org/dc/elements/1.1/"
   xmlns:cc="http://creativecommons.org/ns#"
   xmlns:rdf="http://www.w3.org/1999/02/22-rdf-syntax-ns#"
   xmlns:svg="http://www.w3.org/2000/svg"
   xmlns="http://www.w3.org/2000/svg"
   xmlns:sodipodi="http://sodipodi.sourceforge.net/DTD/sodipodi-0.dtd"
   xmlns:inkscape="http://www.inkscape.org/namespaces/inkscape"
   version="1.0"
   x="0px"
   y="0px"
   viewBox="0 0 40.487946 40.5"
   enable-background="new 0 0 152 117.5"
   xml:space="preserve"
   id="svg25"
   sodipodi:docname="VisualStudioTeamServicesGitrepository.svg"
   width="40.487946"
   height="40.5"
   inkscape:version="0.92.4 (5da689c313, 2019-01-14)"><metadata
   id="metadata31"><rdf:RDF><cc:Work
       rdf:about=""><dc:format>image/svg+xml</dc:format><dc:type
         rdf:resource="http://purl.org/dc/dcmitype/StillImage" /></cc:Work></rdf:RDF></metadata><defs
   id="defs29" /><sodipodi:namedview
   pagecolor="#ffffff"
   bordercolor="#666666"
   borderopacity="1"
   objecttolerance="10"
   gridtolerance="10"
   guidetolerance="10"
   inkscape:pageopacity="0"
   inkscape:pageshadow="2"
   inkscape:window-width="713"
   inkscape:window-height="543"
   id="namedview27"
   showgrid="false"
   inkscape:zoom="2.0085106"
   inkscape:cx="20.25"
   inkscape:cy="20.2"
   inkscape:window-x="0"
   inkscape:window-y="0"
   inkscape:window-maximized="0"
   inkscape:current-layer="svg25" />
<g
   id="Layer_1"
   transform="translate(-55.75,-38.45)">
	<g
   id="Azure">
	</g>
	<g
   id="BizTalk_Services"
   transform="translate(37.3575,-2500.2)">
	</g>
</g>
<g
   id="paths"
   transform="translate(-55.75,-38.45)">
	<g
   id="Access_control">
	</g>
	<g
   id="Azure_active_directory">
	</g>
	<g
   id="API_Management">
	</g>
	<g
   id="Azure_automation">
	</g>
	<g
   id="Azure_SQL_database">
	</g>
	<g
   id="Azure_subscription">
	</g>
	<g
   id="Backup_service">
	</g>
	<g
   id="Bitbucket_code_source">
	</g>
	<g
   id="Azure_cache">
	</g>
	<g
   id="Content_delivery_network__x28_CDN_x29_">
	</g>
	<g
   id="Cloud_service">
	</g>
	<g
   id="CodePlex">
	</g>
	<g
   id="Dropbox_code_source">
	</g>
	<g
   id="Express_route">
	</g>
	<g
   id="Git_repository">
		<title
   id="title19">Sheet.959</title>
		<path
   d="M 95.5,57 77.8,39.2 c -1,-1 -2.6,-1 -3.5,0 L 70.4,43 75,47.6 c 0.3,-0.1 0.7,-0.2 1.1,-0.2 1.7,0 3.1,1.4 3.1,3.1 0,0.4 -0.1,0.8 -0.2,1.1 l 4.5,4.5 c 0.3,-0.1 0.7,-0.2 1.1,-0.2 1.7,0 3.1,1.4 3.1,3.1 0,1.7 -1.4,3.1 -3.1,3.1 -1.7,0 -3.1,-1.4 -3.1,-3.1 0,-0.4 0.1,-0.8 0.2,-1.1 l -4.2,-4.2 v 11 c 1,0.5 1.7,1.6 1.7,2.7 0,1.7 -1.4,3.1 -3.1,3.1 -1.7,0 -3.1,-1.4 -3.1,-3.1 0,-1.3 0.8,-2.4 2,-2.9 V 53.3 c -1.2,-0.4 -2,-1.6 -2,-2.9 0,-0.4 0.1,-0.8 0.2,-1.1 L 68.6,44.7 56.5,57 c -1,1 -1,2.6 0,3.5 l 17.7,17.7 c 1,1 2.6,1 3.5,0 L 95.4,60.5 c 1.1,-1 1.1,-2.6 0.1,-3.5 z"
   id="path21"
   inkscape:connector-curvature="0"
   style="fill:#0078d7" />
	</g>
</g>
</svg>