<?xml version="1.0" encoding="UTF-8" standalone="no"?>
<!-- Generator: Adobe Illustrator 17.1.0, SVG Export Plug-In . SVG Version: 6.00 Build 0)  -->

<svg
   xmlns:dc="http://purl.org/dc/elements/1.1/"
   xmlns:cc="http://creativecommons.org/ns#"
   xmlns:rdf="http://www.w3.org/1999/02/22-rdf-syntax-ns#"
   xmlns:svg="http://www.w3.org/2000/svg"
   xmlns="http://www.w3.org/2000/svg"
   xmlns:sodipodi="http://sodipodi.sourceforge.net/DTD/sodipodi-0.dtd"
   xmlns:inkscape="http://www.inkscape.org/namespaces/inkscape"
   version="1.1"
   id="Layer_1"
   x="0px"
   y="0px"
   height="29.950001"
   width="29.938126"
   viewBox="0 0 29.938126 29.950001"
   enable-background="new 0 0 30 30"
   xml:space="preserve"
   sodipodi:docname="VisualStudioTeamServicesGitrepositoryColor.svg"
   inkscape:version="0.92.4 (5da689c313, 2019-01-14)"><metadata
   id="metadata9"><rdf:RDF><cc:Work
       rdf:about=""><dc:format>image/svg+xml</dc:format><dc:type
         rdf:resource="http://purl.org/dc/dcmitype/StillImage" /></cc:Work></rdf:RDF></metadata><defs
   id="defs7" /><sodipodi:namedview
   pagecolor="#ffffff"
   bordercolor="#666666"
   borderopacity="1"
   objecttolerance="10"
   gridtolerance="10"
   guidetolerance="10"
   inkscape:pageopacity="0"
   inkscape:pageshadow="2"
   inkscape:window-width="713"
   inkscape:window-height="543"
   id="namedview5"
   showgrid="false"
   inkscape:zoom="7.8666667"
   inkscape:cx="14.925"
   inkscape:cy="14.925"
   inkscape:window-x="0"
   inkscape:window-y="0"
   inkscape:window-maximized="0"
   inkscape:current-layer="Layer_1" />
<path
   d="m 29.425,13.725 -13.2,-13.2 c -0.7,-0.7 -1.9,-0.7 -2.6,0 l -2.8,2.8 3.4,3.4 c 0.3,-0.1 0.5,-0.2 0.8,-0.2 1.3,0 2.3,1 2.3,2.3 0,0.3 0,0.6 -0.1,0.8 l 3.3,3.3 c 0.3,-0.1 0.5,-0.2 0.8,-0.2 1.3,0 2.3,1 2.3,2.3 0,1.3 -1,2.3 -2.3,2.3 -1.3,0 -2.3,-1 -2.3,-2.3 0,-0.3 0.1,-0.6 0.2,-0.8 l -3.1,-3.1 v 8.2 c 0.8,0.4 1.3,1.2 1.3,2 0,1.3 -1,2.3 -2.3,2.3 -1.3,0 -2.3,-1 -2.3,-2.3 0,-1 0.6,-1.8 1.5,-2.1 v -8.2 c -0.9,-0.3 -1.5,-1.2 -1.5,-2.1 0,-0.3 0.1,-0.6 0.2,-0.8 l -3.5,-3.4 -9,9 c -0.7,0.7 -0.7,1.9 0,2.6 l 13.1,13.1 c 0.7,0.7 1.9,0.7 2.6,0 l 13.1,-13.1 c 0.8,-0.7 0.8,-1.9 0.1,-2.6 z"
   id="path2"
   inkscape:connector-curvature="0"
   style="fill:#dd5900" />
</svg>