<?xml version="1.0" encoding="UTF-8" standalone="no"?>
<!-- Generator: Adobe Illustrator 18.1.0, SVG Export Plug-In . SVG Version: 6.00 Build 0)  -->

<svg
   xmlns:dc="http://purl.org/dc/elements/1.1/"
   xmlns:cc="http://creativecommons.org/ns#"
   xmlns:rdf="http://www.w3.org/1999/02/22-rdf-syntax-ns#"
   xmlns:svg="http://www.w3.org/2000/svg"
   xmlns="http://www.w3.org/2000/svg"
   xmlns:sodipodi="http://sodipodi.sourceforge.net/DTD/sodipodi-0.dtd"
   xmlns:inkscape="http://www.inkscape.org/namespaces/inkscape"
   version="1.0"
   x="0px"
   y="0px"
   viewBox="0 0 31.4 35.885502"
   enable-background="new 0 0 152 117.5"
   xml:space="preserve"
   id="svg35"
   sodipodi:docname="VisualStudioTeamServicesBitbucketCodeSource.svg"
   width="31.4"
   height="35.885502"
   inkscape:version="0.92.4 (5da689c313, 2019-01-14)"><metadata
   id="metadata41"><rdf:RDF><cc:Work
       rdf:about=""><dc:format>image/svg+xml</dc:format><dc:type
         rdf:resource="http://purl.org/dc/dcmitype/StillImage" /></cc:Work></rdf:RDF></metadata><defs
   id="defs39" /><sodipodi:namedview
   pagecolor="#ffffff"
   bordercolor="#666666"
   borderopacity="1"
   objecttolerance="10"
   gridtolerance="10"
   guidetolerance="10"
   inkscape:pageopacity="0"
   inkscape:pageshadow="2"
   inkscape:window-width="713"
   inkscape:window-height="543"
   id="namedview37"
   showgrid="false"
   inkscape:zoom="2.0085106"
   inkscape:cx="15.6"
   inkscape:cy="17.85"
   inkscape:window-x="0"
   inkscape:window-y="0"
   inkscape:window-maximized="0"
   inkscape:current-layer="svg35" />
<g
   id="Layer_1"
   transform="translate(-60.4,-40.7145)">
	<g
   id="Azure">
	</g>
</g>
<g
   id="paths"
   transform="translate(-60.4,-40.7145)">
	<g
   id="Access_control">
	</g>
	<g
   id="Azure_active_directory">
	</g>
	<g
   id="API_Management">
	</g>
	<g
   id="Azure_automation">
	</g>
	<g
   id="Azure_SQL_database">
	</g>
	<g
   id="Azure_subscription">
	</g>
	<g
   id="Backup_service">
	</g>
	<g
   id="Bitbucket_code_source">
		<g
   id="g31">
			<title
   id="title11">Sheet.964</title>
			<g
   id="group965-1966_1_"
   transform="translate(0,-7.2855)">
				<title
   id="title13">Sheet.965</title>
				<g
   id="shape966-1967_1_"
   transform="translate(9.4425,-4.27425)">
					<title
   id="title15">Sheet.966</title>
					<circle
   cx="66.599998"
   cy="69.699997"
   id="ellipse17"
   r="2.5"
   style="fill:#0078d7" />
				</g>
				<g
   id="shape967-1969_1_">
					<title
   id="title20">Sheet.967</title>
					<path
   d="m 76,48 c -8.6,0 -15.6,2.3 -15.6,5.1 L 63,68.4 c 0,3 5.8,5.5 13.1,5.5 7.2,0 13.1,-2.4 13.1,-5.5 L 91.8,53.1 C 91.6,50.3 84.6,48 76,48 Z m 0,22.4 c -2.8,0 -5,-2.2 -5,-5 0,-2.8 2.2,-5 5,-5 2.8,0 5,2.2 5,5 0,2.8 -2.2,5 -5,5 z m 0,-15.6 c -5.5,0 -10,-1 -10,-2.1 0,-1.2 4.5,-2.2 10,-2.2 5.5,0 10,1 10,2.2 0,1.2 -4.5,2.1 -10,2.1 z"
   id="path22"
   inkscape:connector-curvature="0"
   style="fill:#0078d7" />
				</g>
			</g>
			<g
   id="shape968-1971_1_"
   transform="translate(2.694)">
				<title
   id="title26">Sheet.968</title>
				<path
   d="m 62.8,66.5 c -0.2,-0.2 -0.4,-0.3 -0.5,-0.5 0,0 -0.1,0 -0.2,0 -0.3,0 -0.6,0.2 -0.7,0.5 l 0.1,0.6 1.1,5.2 c 0,2.1 4.8,4.3 10.7,4.3 5.9,0 10.7,-2.1 10.7,-4.3 l 1.1,-5.2 0.1,-0.6 C 85.1,66.2 84.8,66 84.5,66 c 0,0 -0.1,0 -0.2,0 -0.2,0.2 -0.3,0.3 -0.5,0.5 -2,1.5 -5.9,2.6 -10.5,2.6 -4.6,0 -8.5,-1 -10.5,-2.6 z"
   id="path28"
   inkscape:connector-curvature="0"
   style="fill:#0078d7" />
			</g>
		</g>
	</g>
</g>
</svg>