<?xml version="1.0" encoding="UTF-8" standalone="no"?>
<!-- Generator: Adobe Illustrator 17.0.1, SVG Export Plug-In . SVG Version: 6.00 Build 0)  -->

<svg
   xmlns:dc="http://purl.org/dc/elements/1.1/"
   xmlns:cc="http://creativecommons.org/ns#"
   xmlns:rdf="http://www.w3.org/1999/02/22-rdf-syntax-ns#"
   xmlns:svg="http://www.w3.org/2000/svg"
   xmlns="http://www.w3.org/2000/svg"
   xmlns:sodipodi="http://sodipodi.sourceforge.net/DTD/sodipodi-0.dtd"
   xmlns:inkscape="http://www.inkscape.org/namespaces/inkscape"
   version="1.1"
   id="Layer_1"
   x="0px"
   y="0px"
   width="26.034"
   height="29.999001"
   viewBox="-0.5 0.5 26.034 29.999001"
   enable-background="new -0.5 0.5 30 30"
   xml:space="preserve"
   sodipodi:docname="VisualStudioTeamServicesBitbucketCodeSourceColor.svg"
   inkscape:version="0.92.4 (5da689c313, 2019-01-14)"><metadata
   id="metadata19"><rdf:RDF><cc:Work
       rdf:about=""><dc:format>image/svg+xml</dc:format><dc:type
         rdf:resource="http://purl.org/dc/dcmitype/StillImage" /></cc:Work></rdf:RDF></metadata><defs
   id="defs17" /><sodipodi:namedview
   pagecolor="#ffffff"
   bordercolor="#666666"
   borderopacity="1"
   objecttolerance="10"
   gridtolerance="10"
   guidetolerance="10"
   inkscape:pageopacity="0"
   inkscape:pageshadow="2"
   inkscape:window-width="713"
   inkscape:window-height="543"
   id="namedview15"
   showgrid="false"
   inkscape:zoom="7.8666667"
   inkscape:cx="13.017"
   inkscape:cy="14.999"
   inkscape:window-x="0"
   inkscape:window-y="0"
   inkscape:window-maximized="0"
   inkscape:current-layer="Layer_1" />
<circle
   cx="12.537001"
   cy="15.01"
   id="ellipse2"
   r="2.072"
   style="fill:#0072c6" />
<path
   d="M 12.517,0.5 C 5.329,0.5 -0.5,2.404 -0.5,4.761 l 2.16,12.727 c 0,2.52 4.854,4.552 10.857,4.552 5.992,0 10.857,-2.032 10.857,-4.552 L 25.534,4.761 C 25.522,2.404 19.705,0.5 12.517,0.5 Z m 0.023,18.649 c -2.299,0 -4.145,-1.858 -4.145,-4.145 0,-2.287 1.846,-4.134 4.145,-4.134 2.288,0 4.134,1.846 4.134,4.134 0,2.288 -1.846,4.145 -4.134,4.145 z M 12.517,6.201 C 7.919,6.201 4.203,5.4 4.203,4.413 c 0,-0.987 3.716,-1.788 8.314,-1.788 4.587,0 8.303,0.801 8.303,1.788 0,0.987 -3.716,1.788 -8.303,1.788 z"
   id="path4"
   inkscape:connector-curvature="0"
   style="fill:#0072c6" />
<path
   d="M 3.778,21.988 C 3.615,21.86 3.476,21.733 3.337,21.605 3.302,21.593 3.256,21.593 3.209,21.593 c -0.279,0 -0.511,0.198 -0.581,0.453 l 0.105,0.511 0.883,4.366 c 0,1.788 3.983,3.576 8.895,3.576 4.923,0 8.906,-1.788 8.906,-3.576 l 0.883,-4.366 0.105,-0.511 c -0.07,-0.255 -0.302,-0.453 -0.592,-0.453 -0.035,0 -0.081,0 -0.128,0.012 -0.128,0.128 -0.267,0.255 -0.43,0.383 -1.661,1.277 -4.947,2.148 -8.744,2.148 -3.786,0.001 -7.073,-0.87 -8.733,-2.148 z"
   id="path6"
   inkscape:connector-curvature="0"
   style="fill:#0072c6" />
<circle
   cx="12.537001"
   cy="15.01"
   id="ellipse8"
   r="2.072"
   style="opacity:0.5;fill:#1e1e1e" />
<path
   d="M 12.517,0.5 C 5.329,0.5 -0.5,2.404 -0.5,4.761 l 2.16,12.727 c 0,2.52 4.854,4.552 10.857,4.552 5.992,0 10.857,-2.032 10.857,-4.552 L 25.534,4.761 C 25.522,2.404 19.705,0.5 12.517,0.5 Z m 0.023,18.649 c -2.299,0 -4.145,-1.858 -4.145,-4.145 0,-2.287 1.846,-4.134 4.145,-4.134 2.288,0 4.134,1.846 4.134,4.134 0,2.288 -1.846,4.145 -4.134,4.145 z M 12.517,6.201 C 7.919,6.201 4.203,5.4 4.203,4.413 c 0,-0.987 3.716,-1.788 8.314,-1.788 4.587,0 8.303,0.801 8.303,1.788 0,0.987 -3.716,1.788 -8.303,1.788 z"
   id="path10"
   inkscape:connector-curvature="0"
   style="opacity:0.5;fill:#1e1e1e" />
<path
   d="M 3.778,21.988 C 3.615,21.86 3.476,21.733 3.337,21.605 3.302,21.593 3.256,21.593 3.209,21.593 c -0.279,0 -0.511,0.198 -0.581,0.453 l 0.105,0.511 0.883,4.366 c 0,1.788 3.983,3.576 8.895,3.576 4.923,0 8.906,-1.788 8.906,-3.576 l 0.883,-4.366 0.105,-0.511 c -0.07,-0.255 -0.302,-0.453 -0.592,-0.453 -0.035,0 -0.081,0 -0.128,0.012 -0.128,0.128 -0.267,0.255 -0.43,0.383 -1.661,1.277 -4.947,2.148 -8.744,2.148 -3.786,0.001 -7.073,-0.87 -8.733,-2.148 z"
   id="path12"
   inkscape:connector-curvature="0"
   style="opacity:0.5;fill:#1e1e1e" />
</svg>