<?xml version="1.0" encoding="UTF-8" standalone="no"?>
<!-- Generator: Adobe Illustrator 18.1.0, SVG Export Plug-In . SVG Version: 6.00 Build 0)  -->

<svg
   xmlns:dc="http://purl.org/dc/elements/1.1/"
   xmlns:cc="http://creativecommons.org/ns#"
   xmlns:rdf="http://www.w3.org/1999/02/22-rdf-syntax-ns#"
   xmlns:svg="http://www.w3.org/2000/svg"
   xmlns="http://www.w3.org/2000/svg"
   xmlns:sodipodi="http://sodipodi.sourceforge.net/DTD/sodipodi-0.dtd"
   xmlns:inkscape="http://www.inkscape.org/namespaces/inkscape"
   version="1.0"
   x="0px"
   y="0px"
   viewBox="0 0 38 38"
   enable-background="new 0 0 152 117.5"
   xml:space="preserve"
   id="svg26"
   sodipodi:docname="VisualStudioTeamServicesGitHub.svg"
   width="38"
   height="38"
   inkscape:version="0.92.4 (5da689c313, 2019-01-14)"><metadata
   id="metadata32"><rdf:RDF><cc:Work
       rdf:about=""><dc:format>image/svg+xml</dc:format><dc:type
         rdf:resource="http://purl.org/dc/dcmitype/StillImage" /></cc:Work></rdf:RDF></metadata><defs
   id="defs30" /><sodipodi:namedview
   pagecolor="#ffffff"
   bordercolor="#666666"
   borderopacity="1"
   objecttolerance="10"
   gridtolerance="10"
   guidetolerance="10"
   inkscape:pageopacity="0"
   inkscape:pageshadow="2"
   inkscape:window-width="713"
   inkscape:window-height="543"
   id="namedview28"
   showgrid="false"
   inkscape:zoom="2.0085106"
   inkscape:cx="19"
   inkscape:cy="18.95"
   inkscape:window-x="0"
   inkscape:window-y="0"
   inkscape:window-maximized="0"
   inkscape:current-layer="svg26" />
<g
   id="Layer_1"
   transform="translate(-57,-39.7)">
	<g
   id="Azure">
	</g>
	<g
   id="BizTalk_Services"
   transform="translate(37.3575,-2500.2)">
	</g>
</g>
<g
   id="paths"
   transform="translate(-57,-39.7)">
	<g
   id="Access_control">
	</g>
	<g
   id="Azure_active_directory">
	</g>
	<g
   id="API_Management">
	</g>
	<g
   id="Azure_automation">
	</g>
	<g
   id="Azure_SQL_database">
	</g>
	<g
   id="Azure_subscription">
	</g>
	<g
   id="Backup_service">
	</g>
	<g
   id="Bitbucket_code_source">
	</g>
	<g
   id="Azure_cache">
	</g>
	<g
   id="Content_delivery_network__x28_CDN_x29_">
	</g>
	<g
   id="Cloud_service">
	</g>
	<g
   id="CodePlex">
	</g>
	<g
   id="Dropbox_code_source">
	</g>
	<g
   id="Express_route">
	</g>
	<g
   id="Git_repository">
	</g>
	<g
   id="GitHub_code">
		<title
   id="title20">Sheet.961</title>
		<path
   d="m 76,39.7 c -10.5,0 -19,8.5 -19,19 0,10.5 8.5,19 19,19 10.5,0 19,-8.5 19,-19 0,-10.5 -8.5,-19 -19,-19 z m 5,35.5 V 72 c 0,-1.3 -0.7,-2.4 -1.7,-3.1 0.1,0 0.2,0 0.2,0 1.8,-0.2 3.4,-0.8 3.4,-0.8 0,0 2.3,-0.7 3.6,-2.2 1.3,-1.6 1.7,-3.9 1.7,-3.9 0,0 0.4,-2.5 0,-4.5 -0.4,-1.9 -1.9,-3.3 -1.9,-3.3 0,0 0.5,-1.3 0.4,-2.6 0,-1.3 -0.6,-2.6 -0.6,-2.6 0,0 -1.1,-0.1 -2.3,0.4 -1.4,0.6 -3,1.7 -3,1.7 0,0 -1.1,-0.4 -2.4,-0.5 -1.2,-0.2 -2.6,-0.2 -2.6,-0.2 0,0 -1.4,0 -2.6,0.2 -1.3,0.2 -2.4,0.5 -2.4,0.5 0,0 -1.6,-1.1 -3,-1.7 -1.2,-0.5 -2.3,-0.4 -2.3,-0.4 0,0 -0.6,1.3 -0.6,2.6 0,1.3 0.4,2.6 0.4,2.6 0,0 -1.4,1.3 -1.9,3.3 -0.5,2 0,4.5 0,4.5 0,0 0.3,2.3 1.7,3.9 1.3,1.5 3.6,2.2 3.6,2.2 0,0 1.6,0.6 3.4,0.8 0.1,0 0.2,0 0.3,0 C 71.7,69.6 71,70.7 71,72 v 3.2 C 63.9,73.1 58.8,66.5 58.8,58.7 c 0,-9.5 7.7,-17.2 17.2,-17.2 9.5,0 17.3,7.7 17.3,17.2 0,7.8 -5.2,14.4 -12.3,16.5 z"
   id="path22"
   inkscape:connector-curvature="0"
   style="fill:#0078d7" />
	</g>
</g>
</svg>