<?xml version="1.0" encoding="UTF-8" standalone="no"?>
<svg
   xmlns:dc="http://purl.org/dc/elements/1.1/"
   xmlns:cc="http://creativecommons.org/ns#"
   xmlns:rdf="http://www.w3.org/1999/02/22-rdf-syntax-ns#"
   xmlns:svg="http://www.w3.org/2000/svg"
   xmlns="http://www.w3.org/2000/svg"
   xmlns:sodipodi="http://sodipodi.sourceforge.net/DTD/sodipodi-0.dtd"
   xmlns:inkscape="http://www.inkscape.org/namespaces/inkscape"
   width="255.0695"
   height="237.46112"
   viewBox="0 0 255.0695 237.46112"
   version="1.1"
   preserveAspectRatio="xMidYMid"
   id="svg10"
   sodipodi:docname="Webhook.svg"
   inkscape:version="0.92.4 (5da689c313, 2019-01-14)">
  <metadata
     id="metadata16">
    <rdf:RDF>
      <cc:Work
         rdf:about="">
        <dc:format>image/svg+xml</dc:format>
        <dc:type
           rdf:resource="http://purl.org/dc/dcmitype/StillImage" />
      </cc:Work>
    </rdf:RDF>
  </metadata>
  <defs
     id="defs14" />
  <sodipodi:namedview
     pagecolor="#ffffff"
     bordercolor="#666666"
     borderopacity="1"
     objecttolerance="10"
     gridtolerance="10"
     guidetolerance="10"
     inkscape:pageopacity="0"
     inkscape:pageshadow="2"
     inkscape:window-width="713"
     inkscape:window-height="543"
     id="namedview12"
     showgrid="false"
     inkscape:zoom="0.9874477"
     inkscape:cx="127.99886"
     inkscape:cy="118.93292"
     inkscape:window-x="0"
     inkscape:window-y="0"
     inkscape:window-maximized="0"
     inkscape:current-layer="svg10" />
  <g
     id="g8"
     transform="translate(-0.00114474,-0.97179992)">
    <path
       d="m 119.54043,100.50274 c -10.61031,17.83607 -20.7758,35.10871 -31.152828,52.25088 -2.664932,4.40069 -3.98356,7.98491 -1.854382,13.57969 5.877482,15.45384 -2.41386,30.49253 -17.998182,34.57493 -14.69667,3.85111 -29.015743,-5.80829 -31.931749,-21.54286 -2.583878,-13.92763 8.224126,-27.58047 23.579122,-29.7571 1.286996,-0.18385 2.599693,-0.2056 4.76248,-0.36771 7.524284,-12.61691 15.232425,-25.54026 23.357702,-39.1674 C 73.611854,95.465466 64.86779,78.388544 66.803227,57.229213 68.171279,42.271585 74.052715,29.346265 84.803386,18.751772 105.39335,-1.535722 136.80516,-4.8214183 161.04854,10.751042 184.3331,25.708671 194.99678,54.845007 185.90675,79.782296 179.05265,77.92396 172.15111,76.049808 164.56356,73.9918 167.41828,60.127427 165.3069,47.676575 155.95591,37.010912 149.77793,29.969005 141.85035,26.278033 132.83544,24.917889 114.76411,22.187717 97.020957,33.798363 91.756331,51.535588 85.780001,71.666903 94.824562,88.1112 119.54043,100.50274 Z"
       id="path2"
       inkscape:connector-curvature="0"
       style="fill:#c73a63" />
    <path
       d="m 149.84119,79.410629 c 7.47486,13.186278 15.06439,26.572231 22.58669,39.835611 38.02077,-11.76287 66.68659,9.28377 76.9707,31.81708 12.4212,27.21869 3.93018,59.45687 -20.46542,76.24911 -25.04009,17.23903 -56.70692,14.29337 -78.89229,-7.85048 5.65408,-4.73283 11.33585,-9.4874 17.40707,-14.56619 21.91255,14.19255 41.07713,13.52434 55.30527,-3.28174 12.13256,-14.33687 11.86962,-35.71366 -0.61484,-49.75003 -14.40803,-16.19718 -33.70705,-16.69142 -57.0351,-1.14268 C 155.42609,133.55345 145.58086,116.522 136.2101,99.229585 133.05093,93.401527 129.56161,90.020937 122.44062,88.787318 110.54727,86.725356 102.86879,76.512415 102.40815,65.06981 c -0.45272,-11.316081 6.21357,-21.544837 16.63409,-25.530374 10.32167,-3.947976 22.43446,-0.761127 29.37752,8.014568 5.67386,7.170409 7.47684,15.240332 4.49164,24.083244 -0.83032,2.465261 -1.90578,4.851444 -3.07021,7.773381 z"
       id="path4"
       inkscape:connector-curvature="0"
       style="fill:#4b4b4b" />
    <path
       d="M 167.70692,187.20993 H 121.9365 c -4.38686,18.04366 -13.8624,32.61183 -30.190054,41.87583 -12.69204,7.20006 -26.372556,9.6416 -40.932817,7.291 C 24.006143,232.05316 2.0856857,207.9205 0.15617931,180.7453 -2.028354,149.96216 19.130976,122.59915 47.334192,116.4528 c 1.947298,7.07156 3.914367,14.21034 5.861666,21.26411 -25.876341,13.20209 -34.831939,29.83618 -27.59036,50.6357 6.375675,18.30461 24.484566,28.33765 44.147343,24.45689 20.079914,-3.96181 30.203892,-20.64927 28.968296,-47.43106 19.036083,0 38.087983,-0.1977 57.126043,0.0969 7.43334,0.11664 13.17244,-0.65437 18.77315,-7.20797 9.22051,-10.78428 26.19067,-9.81162 36.12091,0.37364 10.1477,10.40866 9.66137,27.15741 -1.07744,37.12719 -10.36121,9.61985 -26.73039,9.10584 -36.42339,-1.25932 -1.99277,-2.13709 -3.56247,-4.67352 -5.53349,-7.29892 z"
       id="path6"
       inkscape:connector-curvature="0"
       style="fill:#4a4a4a" />
  </g>
</svg>
